<svg width="1681" height="502" viewBox="0 0 1681 502" fill="none" xmlns="http://www.w3.org/2000/svg">
<path d="M1246.41 453.04C1237.36 467.753 1224.09 479.404 1208.34 486.478C1194.74 492.507 1180.47 496.894 1165.84 499.546C1142.85 503.74 1120.16 499.808 1098.45 491.758C1074.78 482.888 1054.31 467.117 1039.7 446.488C1022.21 422.713 1011.52 394.623 1008.78 365.233C1006.64 346.09 1006.04 326.807 1006.98 307.569C1009.9 262.897 1023.87 222.383 1058.12 191.491C1076.6 174.638 1099.77 163.81 1124.54 160.449C1145.78 157.04 1167.5 158.318 1188.19 164.194C1203.42 168.759 1217.52 176.477 1229.56 186.848C1234.92 191.379 1240.16 196.097 1244.99 200.328V196.92C1244.99 157.079 1244.62 117.239 1245.18 77.3977C1245.44 60.2856 1249.52 44.0347 1263.45 31.9027C1272.46 24.3352 1283.71 19.9522 1295.46 19.4337C1311.82 18.1606 1328.15 19.0592 1342.3 29.2441C1348.64 33.459 1353.85 39.1658 1357.47 45.864C1361.1 52.5621 1363.02 60.047 1363.08 67.6621C1363.8 192.477 1364.13 317.292 1364.05 442.107C1364.05 461.877 1358.06 479.776 1339.75 491.009C1325.38 499.846 1309.39 499.883 1293.51 498.498C1286.14 498.13 1278.95 496.005 1272.57 492.298C1266.18 488.592 1260.77 483.413 1256.78 477.192C1252.72 469.418 1249.25 461.344 1246.41 453.04ZM1125.18 329.474C1126.08 338.91 1126.57 348.421 1127.88 357.782C1132.22 388.786 1154.38 413.05 1189.58 411.552C1200.56 411.165 1211.18 407.494 1220.05 401.013C1228.93 394.532 1235.66 385.538 1239.37 375.193C1246.59 353.097 1248.56 329.621 1245.1 306.633C1242.29 285.102 1234.66 266.792 1215.52 254.547C1192.35 239.57 1156.14 246.834 1140.64 269.3C1127.95 287.386 1125.67 307.943 1125.18 329.212V329.474Z" fill="#00B64C"/>
<path d="M794.244 223.394V79.6443C794.244 64.03 797.015 49.0896 807.498 36.5083C814.994 27.7825 825.42 22.0964 836.814 20.5195C853.4 17.5989 869.986 17.8984 885.487 25.8366C893.592 29.7105 900.414 35.8322 905.141 43.473C909.867 51.1138 912.298 59.9519 912.144 68.9352C912.931 168.163 912.818 267.391 913.492 366.581C913.492 382.869 920.793 400.281 938.952 403.651C945.982 404.625 953.113 404.625 960.143 403.651C979.837 402.041 985.303 404.7 988.56 424.058C990.395 437.1 990.395 450.334 988.56 463.375C986.464 481.61 974.034 491.983 956.886 495.502C942.508 498.911 927.782 500.632 913.006 500.632C885.899 499.696 859.241 495.353 836.702 477.791C818.506 463.637 808.097 444.69 801.882 423.122C795.368 400.656 794.394 377.403 794.394 354.112C794.369 310.527 794.319 266.954 794.244 223.394Z" fill="#00B64C"/>
<path d="M0.206793 193.326C0.206793 153.035 0.656079 112.745 0.206793 72.4925C-0.167612 47.4796 11.2517 30.1428 33.6786 22.0174C55.6187 14.0791 78.083 14.1166 96.5037 31.4908C101.993 36.3008 106.378 42.2412 109.357 48.9047C112.337 55.5682 113.84 62.7971 113.764 70.096C113.489 148.53 113.489 226.976 113.764 305.434C113.338 331.932 121.191 357.903 136.228 379.724C146.092 392.788 156.679 405.289 167.94 417.169C175.401 426.278 179.213 437.833 178.639 449.595C178.065 461.356 173.145 472.485 164.833 480.824C154.007 492.108 139.267 498.809 123.648 499.546C104.329 500.295 88.3417 492.057 75.4622 478.091C64.2285 466.296 53.6781 453.869 43.8624 440.871C29.3009 420.428 18.1021 397.788 10.6901 373.808C3.08969 350.338 -0.504927 325.755 0.0570275 301.091C0.543754 265.182 0.206793 229.235 0.206793 193.326Z" fill="#00B64C"/>
<path d="M475.401 18.2729C504.493 15.3148 529.053 35.0105 533.434 58.6754C534.631 67.5335 535.045 76.48 534.67 85.4108C534.67 162.097 535.007 238.933 534.67 315.395C534.67 346.736 525.646 376.242 512.393 404.55C499.634 431.133 482.469 455.365 461.623 476.218C447.471 490.709 431.222 501.231 410.217 499.621C384.271 497.674 363.904 482.734 357.464 457.833C352.821 439.785 359.373 423.871 372.777 411.44C394.308 392.12 409.739 366.94 417.181 338.984C419.509 330.372 420.766 321.506 420.925 312.586C421.562 228.973 421.487 145.322 422.423 61.7084C422.61 46.7306 432.906 35.722 444.625 26.8851C448.904 23.4394 453.839 20.8992 459.129 19.4187C464.42 17.9383 469.956 17.5484 475.401 18.2729Z" fill="#00B64C"/>
<path d="M1546.99 215.98C1554.5 205.566 1562.58 195.567 1571.17 186.024C1587.23 170.209 1608.56 160.877 1631.08 159.813C1639.8 158.839 1648.6 158.99 1657.28 160.262C1663.19 161.219 1668.59 164.165 1672.58 168.613C1676.58 173.061 1678.94 178.742 1679.26 184.713C1681.25 199.625 1681.25 214.735 1679.26 229.647C1676.27 247.995 1662.19 257.318 1644.41 260.314C1629.99 262.748 1615.28 263.497 1601.01 266.492C1568.93 273.27 1552.04 294.987 1552.04 327.864C1552.04 366.956 1552.56 406.048 1551.82 445.102C1551.4 466.221 1543.24 484.232 1522.76 493.78C1502.28 503.328 1461.55 501.531 1445.52 481.723C1436.57 470.738 1431.75 456.954 1431.93 442.781C1431.59 367.48 1431.41 292.142 1431.93 216.803C1431.93 191.154 1442.11 170.859 1467.09 163.37C1488.65 156.892 1510.14 157.529 1528.98 172.282C1539.38 180.445 1543.95 192.053 1546.01 204.784C1546.54 209.127 1546.76 213.733 1546.99 215.98Z" fill="#00B64C"/>
<path d="M727.937 329.249C727.937 364.297 728.461 399.345 727.6 434.356C727.12 445.793 724.82 457.081 720.786 467.793C715.582 482.284 704.238 491.159 689.074 495.053C672.413 499.805 654.633 498.762 638.642 492.095C621.569 484.831 613.669 470.527 610.636 453.302C609.209 444.363 608.545 435.319 608.652 426.268C608.502 358.293 608.502 290.332 608.652 222.383C608.652 206.731 611.685 191.566 621.943 178.76C629.456 169.579 640.15 163.564 651.896 161.91C667.035 158.618 682.825 160.15 697.049 166.291C714.234 174.154 722.883 188.42 725.878 206.319C727.219 214.815 727.87 223.405 727.825 232.006C728.05 264.283 727.937 296.785 727.937 329.249Z" fill="#00B64C"/>
<path d="M324.741 188.757C324.741 228.299 324.254 267.84 324.928 307.381C325.415 335.09 300.479 356.808 277.903 359.804C255.326 362.799 235.221 356.434 221.742 337.786C215.464 329.281 211.795 319.133 211.184 308.58C210.36 228.449 210.847 148.317 210.66 68.2237C210.66 42.9113 237.767 16.176 261.317 18.0482C274.159 19.0592 287.225 16.6627 298.982 24.7882C315.456 36.2462 325.19 50.7746 324.965 71.5937C324.479 110.648 324.741 149.703 324.741 188.757Z" fill="#00B64C"/>
<path d="M668.444 0C686.79 0 703.788 4.04402 718.128 16.1386C726.67 23.4317 731.974 33.8125 732.879 45.0082C734.489 60.8472 735.126 76.7986 725.129 90.8402C720.756 97.1596 715.021 102.418 708.347 106.228C701.673 110.038 694.23 112.304 686.566 112.858C671.38 114.103 656.099 113.449 641.075 110.91C617.75 106.941 602.175 85.8976 601.913 62.2327C601.913 49.9509 602.325 37.8938 608.877 27.0349C618.387 11.3082 633.363 4.56824 650.773 1.8348C656.613 0.861243 662.529 0.561667 668.444 0Z" fill="#00B64C"/>
</svg>
