<?xml version="1.0" standalone="no"?>
<svg xmlns:xlink="http://www.w3.org/1999/xlink" id="wave" style="transform:rotate(0deg); transition: 0.3s" viewBox="0 0 1440 490" version="1.1" xmlns="http://www.w3.org/2000/svg"><defs><linearGradient id="sw-gradient-0" x1="0" x2="0" y1="1" y2="0"><stop stop-color="rgba(80, 179, 89, 1)" offset="0%"/><stop stop-color="rgba(73.895, 152.972, 81.084, 1)" offset="100%"/></linearGradient></defs><path style="transform:translate(0, 0px); opacity:1" fill="url(#sw-gradient-0)" d="M0,343L40,310.3C80,278,160,212,240,204.2C320,196,400,245,480,277.7C560,310,640,327,720,294C800,261,880,180,960,155.2C1040,131,1120,163,1200,171.5C1280,180,1360,163,1440,187.8C1520,212,1600,278,1680,285.8C1760,294,1840,245,1920,228.7C2000,212,2080,229,2160,212.3C2240,196,2320,147,2400,163.3C2480,180,2560,261,2640,285.8C2720,310,2800,278,2880,285.8C2960,294,3040,343,3120,375.7C3200,408,3280,425,3360,359.3C3440,294,3520,147,3600,114.3C3680,82,3760,163,3840,212.3C3920,261,4000,278,4080,261.3C4160,245,4240,196,4320,147C4400,98,4480,49,4560,49C4640,49,4720,98,4800,98C4880,98,4960,49,5040,32.7C5120,16,5200,33,5280,49C5360,65,5440,82,5520,138.8C5600,196,5680,294,5720,343L5760,392L5760,490L5720,490C5680,490,5600,490,5520,490C5440,490,5360,490,5280,490C5200,490,5120,490,5040,490C4960,490,4880,490,4800,490C4720,490,4640,490,4560,490C4480,490,4400,490,4320,490C4240,490,4160,490,4080,490C4000,490,3920,490,3840,490C3760,490,3680,490,3600,490C3520,490,3440,490,3360,490C3280,490,3200,490,3120,490C3040,490,2960,490,2880,490C2800,490,2720,490,2640,490C2560,490,2480,490,2400,490C2320,490,2240,490,2160,490C2080,490,2000,490,1920,490C1840,490,1760,490,1680,490C1600,490,1520,490,1440,490C1360,490,1280,490,1200,490C1120,490,1040,490,960,490C880,490,800,490,720,490C640,490,560,490,480,490C400,490,320,490,240,490C160,490,80,490,40,490L0,490Z"/></svg>