<svg width="260" height="357" viewBox="0 0 260 357" fill="none" xmlns="http://www.w3.org/2000/svg">
<path d="M203 187.5C186.5 211.5 227.5 286.5 129 250C46.168 219.306 3.66669 242.166 39 271.5" stroke="#00B64C" stroke-width="4" stroke-dasharray="8 8"/>
<path d="M45.9999 82C28.1666 110.333 44.5 148.5 118.5 118.5C211 81 235 89.5 218 138.5" stroke="#00B64C" stroke-width="4" stroke-dasharray="8 8"/>
<path d="M16 265.281H64C72.5604 265.281 79.5 272.221 79.5 280.781V340.564C79.5 349.124 72.5604 356.064 64 356.064H16C7.43959 356.064 0.5 349.124 0.5 340.564V280.781C0.5 272.221 7.43959 265.281 16 265.281Z" fill="white" stroke="#9DA0A2"/>
<mask id="mask0_3451_178686" style="mask-type:alpha" maskUnits="userSpaceOnUse" x="0" y="264" width="80" height="93">
<path d="M16 265.281H64C72.5604 265.281 79.5 272.221 79.5 280.781V340.564C79.5 349.124 72.5604 356.064 64 356.064H16C7.43959 356.064 0.5 349.124 0.5 340.564V280.781C0.5 272.221 7.43959 265.281 16 265.281Z" fill="white" stroke="#9DA0A2"/>
</mask>
<g mask="url(#mask0_3451_178686)">
<mask id="mask1_3451_178686" style="mask-type:alpha" maskUnits="userSpaceOnUse" x="0" y="265" width="80" height="93">
<path d="M16 266.281H64C72.5604 266.281 79.5 273.221 79.5 281.781V341.564C79.5 350.124 72.5604 357.064 64 357.064H16C7.43959 357.064 0.5 350.124 0.5 341.564V281.781C0.5 273.221 7.43959 266.281 16 266.281Z" fill="white" stroke="#9DA0A2"/>
</mask>
<g mask="url(#mask1_3451_178686)">
<path d="M39.2001 280.953C43.7089 280.953 47.364 277.83 47.364 273.977C47.364 270.123 43.7089 267 39.2001 267C34.6912 267 31.0361 270.123 31.0361 273.977C31.0361 277.83 34.6912 280.953 39.2001 280.953Z" fill="#1E160B"/>
<path d="M70.6577 333.076C70.7262 332.916 73.9813 325.871 73.8654 323.862C73.8101 322.919 73.5309 322.24 73.3308 321.756C71.5189 317.362 66.6048 317.78 63.7105 314.384C61.4694 311.754 61.6616 307.979 62.1067 300.431C62.3753 295.887 63.2444 293.555 62.1067 289.637C62.1067 289.637 61.2403 286.652 59.1677 283.846C54.6591 277.743 46.7269 275.798 42.5976 275.171V274.766H38.3207V274.897C34.668 275.334 25.6219 277.03 20.6814 283.717C18.6088 286.523 17.7424 289.508 17.7424 289.508C16.6047 293.426 17.4738 295.758 17.7424 300.302C18.1875 307.85 18.3823 311.625 16.1386 314.255C13.2443 317.651 8.3302 317.233 6.51833 321.627C6.31818 322.111 6.03902 322.79 5.98372 323.733C5.86784 325.742 9.13341 332.784 9.19135 332.947C11.4641 339.397 -2.722 339.597 -5 340.319V356.934L39.9246 356.641L39.9219 356.114H39.9246C39.9219 356.541 39.9219 356.77 39.9219 356.77L85 356.994V340.466C82.7246 339.745 67.853 339.66 70.6577 333.076Z" fill="#1E160B"/>
<path d="M0.118652 356.887C1.05092 354.336 12.4703 338.212 25.9012 330.84C29.3722 329.569 42.4371 323.219 54.6066 330.84C75.2271 343.756 79.5155 357.174 79.4551 356.993" fill="#FD4C54"/>
<path d="M45.9159 324.787L54.6065 330.842C48.8128 341.899 34.3284 345.321 25.9011 330.842L34.3284 325.05C34.3284 325.05 34.3284 315.485 34.3284 310.57H45.9159C45.9159 315.396 45.9159 324.787 45.9159 324.787Z" fill="#F5B7A3"/>
<path d="M45.8209 316.199C45.8025 316.207 45.784 316.218 45.7629 316.226V316.228C45.784 316.218 45.8025 316.21 45.8209 316.199Z" fill="#1E160B"/>
<path d="M46.4424 315.837C46.1791 313.73 40.2642 318.559 40.2642 318.559C42.2051 318.385 44.0933 318.111 45.9157 317.416C45.9157 317.248 46.7058 317.943 46.4424 315.837Z" fill="#1E160B"/>
<path d="M45.9656 281.092C44.2643 280.139 42.5815 279.607 41.0883 279.312H38.3679C36.8747 279.61 35.1919 280.142 33.4906 281.092C31.713 282.087 22.6036 289.833 24.0442 300.903C24.7025 305.963 27.257 309.33 28.7977 311.362C28.7977 311.362 32.9402 316.825 39.6662 319.089C39.6952 319.1 39.7268 319.1 39.7268 319.1C39.7268 319.1 39.7557 319.1 39.7873 319.089C46.2816 316.901 50.3925 311.626 50.3925 311.626C52.0727 309.469 54.7273 306.06 55.4094 300.903C56.8763 289.83 47.7274 282.079 45.9656 281.092Z" fill="#F5B7A3"/>
<path d="M39.356 311.468C37.8716 311.468 36.6837 310.357 36.2358 309.871C37.3747 310.061 38.5264 310.159 39.6631 310.159C40.6121 310.159 41.574 310.091 42.5252 309.959C42.056 310.423 40.8339 311.468 39.356 311.468Z" fill="white"/>
<path d="M36.5387 310.024C37.5794 310.182 38.6287 310.263 39.6652 310.263C40.5097 310.263 41.3628 310.21 42.2116 310.105C41.6465 310.607 40.5908 311.36 39.356 311.36C38.1126 311.357 37.0804 310.551 36.5387 310.024ZM35.9607 309.711C35.9607 309.711 37.3917 311.571 39.356 311.571C41.3223 311.571 42.8152 309.803 42.8152 309.803C41.7638 309.965 40.7145 310.048 39.6631 310.048C38.4304 310.048 37.1955 309.937 35.9607 309.711Z" fill="black"/>
<path d="M39.4626 311.469C37.6029 311.469 36.1249 310.17 35.5981 309.637C37.0079 309.856 38.4325 309.967 39.8401 309.967C41.0173 309.967 42.2116 309.888 43.391 309.735C42.8344 310.247 41.3117 311.469 39.4626 311.469Z" fill="white"/>
<path d="M35.9138 309.79C37.2211 309.977 38.537 310.073 39.8401 310.073C40.9086 310.073 41.9877 310.009 43.0583 309.884C42.378 310.451 41.0408 311.362 39.4626 311.362C37.8738 311.362 36.5643 310.385 35.9138 309.79ZM35.3081 309.48C35.3081 309.48 37.0591 311.575 39.4626 311.575C41.8683 311.575 43.696 309.585 43.696 309.585C42.41 309.768 41.1261 309.86 39.8401 309.86C38.328 309.86 36.8181 309.732 35.3081 309.48Z" fill="black"/>
<path d="M32.5577 299.533C33.418 299.533 34.1154 298.603 34.1154 297.456C34.1154 296.309 33.418 295.379 32.5577 295.379C31.6974 295.379 31 296.309 31 297.456C31 298.603 31.6974 299.533 32.5577 299.533Z" fill="#1E160B"/>
<path d="M46.4036 299.533C47.2639 299.533 47.9613 298.603 47.9613 297.456C47.9613 296.309 47.2639 295.379 46.4036 295.379C45.5433 295.379 44.8459 296.309 44.8459 297.456C44.8459 298.603 45.5433 299.533 46.4036 299.533Z" fill="#1E160B"/>
<path d="M39.2052 295.379C39.609 300.12 36.9719 303.9 36.699 304.132C36.699 304.132 38.5564 306.17 38.6483 306.108C38.7374 306.049 37.5344 304.132 37.5344 304.132C37.5344 304.132 40.3191 299.332 39.2052 295.379Z" fill="#1E160B"/>
<path d="M30.3076 293.303C30.8076 292.828 31.5507 292.283 32.5175 292.157C33.5203 292.025 34.349 292.398 34.4512 292.157C34.5341 291.962 34.1004 291.466 33.6225 291.297C32.1943 290.789 30.385 293.2 30.3076 293.303Z" fill="#1E160B"/>
<path d="M48.9998 293.303C48.4998 292.828 47.7567 292.283 46.7899 292.157C45.7871 292.025 44.9584 292.398 44.8562 292.157C44.7733 291.962 45.207 291.466 45.6849 291.297C47.1131 290.789 48.9224 293.2 48.9998 293.303Z" fill="#1E160B"/>
<path d="M55.5277 300.962C58.9802 293.327 47.0688 274.032 41.0854 277.794C32.6818 271.423 15.5745 293.972 23.9781 300.343C23.9781 300.343 27.7967 293.222 31.2966 289.115C34.6386 285.195 38.0411 282.375 40.7773 280.427C43.5715 282.744 47.0293 286.095 50.258 290.694C52.644 294.09 54.3452 298.221 55.5277 300.962Z" fill="#1E160B"/>
<path d="M40.2532 280.427C39.6422 285.587 37.6196 289.115 37.6196 289.115C37.6196 289.115 40.2005 287.546 41.0432 284.903C42.015 281.862 40.8299 278.824 40.5165 278.848C40.3743 278.858 40.3611 279.516 40.2532 280.427Z" fill="#1E160B"/>
<path d="M25.1105 300.304C23.9149 300.098 22.6429 300.749 21.9503 301.62C20.4676 303.487 21.3182 306.764 23.267 308.465C24.7839 309.787 27.4201 310.553 28.5341 309.518C30.3723 307.809 28.4156 300.87 25.1105 300.304Z" fill="#F5B7A3"/>
<path d="M57.4579 301.62C56.7653 300.749 55.4933 300.098 54.2977 300.304C50.9926 300.87 49.036 307.809 50.8742 309.518C51.9881 310.553 54.6243 309.787 56.1412 308.465C58.09 306.764 58.9406 303.487 57.4579 301.62Z" fill="#F5B7A3"/>
<path d="M23.5304 305.305C23.5304 305.305 23.9228 305.157 24.1887 305.173C24.5021 305.192 24.6759 305.247 24.8392 305.486C25.2316 306.063 25.5397 306.713 25.8795 307.324C26.6195 308.651 27.3595 309.98 28.0995 311.307C28.2233 311.528 28.5657 311.331 28.4419 311.107C27.4964 309.412 26.551 307.714 25.6056 306.018C25.2975 305.468 24.9498 304.689 24.2519 304.565C23.741 304.475 23.3987 304.647 23.3987 304.647C23.3987 304.647 22.872 305.173 23.5304 305.305Z" fill="#1E160B"/>
<path d="M51.114 310.845C52.0594 309.15 53.0049 307.452 53.9503 305.756C54.2584 305.206 54.6061 304.427 55.304 304.303C55.8096 304.214 56.1546 304.385 56.1546 304.385C56.1546 304.385 56.6813 304.911 56.0229 305.043C56.0229 305.043 55.6305 304.896 55.3645 304.911C55.0511 304.93 54.8773 304.985 54.7141 305.225C54.3217 305.801 54.0135 306.451 53.6738 307.062C52.9338 308.389 52.1938 309.719 51.4537 311.045" fill="#1E160B"/>
</g>
<path d="M16 265.281H64C72.5604 265.281 79.5 272.221 79.5 280.781V340.564C79.5 349.124 72.5604 356.064 64 356.064H16C7.43959 356.064 0.5 349.124 0.5 340.564V280.781C0.5 272.221 7.43959 265.281 16 265.281Z" stroke="#9DA0A2"/>
</g>
<path d="M109.056 315.601C108.555 315.601 108.069 315.558 107.6 315.473C107.131 315.398 106.688 315.281 106.272 315.121C105.856 314.961 105.483 314.764 105.152 314.529C105.013 314.433 104.912 314.316 104.848 314.177C104.795 314.038 104.779 313.905 104.8 313.777C104.832 313.638 104.891 313.521 104.976 313.425C105.072 313.329 105.184 313.27 105.312 313.249C105.44 313.228 105.579 313.27 105.728 313.377C106.219 313.708 106.731 313.948 107.264 314.097C107.808 314.246 108.405 314.321 109.056 314.321C109.995 314.321 110.683 314.15 111.12 313.809C111.568 313.468 111.792 313.02 111.792 312.465C111.792 312.006 111.632 311.649 111.312 311.393C110.992 311.126 110.453 310.918 109.696 310.769L108 310.417C106.997 310.204 106.245 309.852 105.744 309.361C105.253 308.87 105.008 308.214 105.008 307.393C105.008 306.892 105.109 306.438 105.312 306.033C105.515 305.617 105.803 305.26 106.176 304.961C106.549 304.662 106.987 304.433 107.488 304.273C108 304.113 108.565 304.033 109.184 304.033C109.845 304.033 110.464 304.124 111.04 304.305C111.627 304.486 112.155 304.753 112.624 305.105C112.752 305.201 112.837 305.318 112.88 305.457C112.923 305.585 112.928 305.713 112.896 305.841C112.875 305.969 112.816 306.076 112.72 306.161C112.635 306.246 112.523 306.294 112.384 306.305C112.256 306.316 112.112 306.268 111.952 306.161C111.525 305.862 111.088 305.649 110.64 305.521C110.192 305.382 109.701 305.313 109.168 305.313C108.624 305.313 108.149 305.398 107.744 305.569C107.349 305.74 107.04 305.98 106.816 306.289C106.603 306.588 106.496 306.94 106.496 307.345C106.496 307.836 106.645 308.22 106.944 308.497C107.243 308.774 107.744 308.988 108.448 309.137L110.128 309.473C111.195 309.697 111.984 310.044 112.496 310.513C113.019 310.972 113.28 311.59 113.28 312.369C113.28 312.86 113.179 313.302 112.976 313.697C112.784 314.092 112.507 314.433 112.144 314.721C111.781 314.998 111.339 315.217 110.816 315.377C110.293 315.526 109.707 315.601 109.056 315.601ZM115.811 315.569C115.587 315.569 115.411 315.505 115.283 315.377C115.155 315.249 115.091 315.062 115.091 314.817V308.289C115.091 308.044 115.155 307.862 115.283 307.745C115.411 307.617 115.587 307.553 115.811 307.553C116.035 307.553 116.205 307.617 116.323 307.745C116.451 307.862 116.515 308.044 116.515 308.289V309.649L116.339 309.361C116.541 308.774 116.867 308.321 117.315 308.001C117.773 307.681 118.317 307.521 118.947 307.521C119.608 307.521 120.141 307.681 120.547 308.001C120.952 308.31 121.224 308.785 121.363 309.425H121.139C121.331 308.838 121.672 308.374 122.163 308.033C122.664 307.692 123.245 307.521 123.907 307.521C124.493 307.521 124.973 307.638 125.347 307.873C125.731 308.097 126.019 308.438 126.211 308.897C126.403 309.345 126.499 309.921 126.499 310.625V314.817C126.499 315.062 126.435 315.249 126.307 315.377C126.179 315.505 126.003 315.569 125.779 315.569C125.544 315.569 125.363 315.505 125.235 315.377C125.107 315.249 125.043 315.062 125.043 314.817V310.689C125.043 310.006 124.925 309.505 124.691 309.185C124.456 308.865 124.061 308.705 123.507 308.705C122.899 308.705 122.413 308.918 122.051 309.345C121.699 309.761 121.523 310.337 121.523 311.073V314.817C121.523 315.062 121.459 315.249 121.331 315.377C121.213 315.505 121.037 315.569 120.803 315.569C120.568 315.569 120.387 315.505 120.259 315.377C120.131 315.249 120.067 315.062 120.067 314.817V310.689C120.067 310.006 119.949 309.505 119.715 309.185C119.48 308.865 119.085 308.705 118.531 308.705C117.923 308.705 117.437 308.918 117.075 309.345C116.723 309.761 116.547 310.337 116.547 311.073V314.817C116.547 315.318 116.301 315.569 115.811 315.569ZM129.56 315.537C129.336 315.537 129.16 315.468 129.032 315.329C128.904 315.19 128.84 314.998 128.84 314.753V308.369C128.84 308.113 128.904 307.921 129.032 307.793C129.16 307.654 129.336 307.585 129.56 307.585C129.795 307.585 129.976 307.654 130.104 307.793C130.232 307.921 130.296 308.113 130.296 308.369V314.753C130.296 314.998 130.232 315.19 130.104 315.329C129.987 315.468 129.805 315.537 129.56 315.537ZM129.56 305.857C129.272 305.857 129.043 305.782 128.872 305.633C128.712 305.473 128.632 305.265 128.632 305.009C128.632 304.732 128.712 304.524 128.872 304.385C129.043 304.236 129.272 304.161 129.56 304.161C129.869 304.161 130.099 304.236 130.248 304.385C130.408 304.524 130.488 304.732 130.488 305.009C130.488 305.265 130.408 305.473 130.248 305.633C130.099 305.782 129.869 305.857 129.56 305.857ZM135.085 315.601C134.285 315.601 133.677 315.366 133.261 314.897C132.845 314.417 132.637 313.729 132.637 312.833V304.801C132.637 304.556 132.701 304.374 132.829 304.257C132.957 304.129 133.133 304.065 133.357 304.065C133.591 304.065 133.773 304.129 133.901 304.257C134.029 304.374 134.093 304.556 134.093 304.801V312.721C134.093 313.276 134.205 313.692 134.429 313.969C134.663 314.236 134.994 314.369 135.421 314.369C135.517 314.369 135.602 314.369 135.677 314.369C135.751 314.358 135.826 314.348 135.901 314.337C136.018 314.326 136.103 314.358 136.157 314.433C136.21 314.508 136.237 314.657 136.237 314.881C136.237 315.084 136.189 315.244 136.093 315.361C136.007 315.468 135.863 315.537 135.661 315.569C135.565 315.58 135.469 315.585 135.373 315.585C135.277 315.596 135.181 315.601 135.085 315.601ZM140.971 315.601C140.128 315.601 139.403 315.441 138.795 315.121C138.198 314.79 137.734 314.326 137.403 313.729C137.072 313.121 136.907 312.406 136.907 311.585C136.907 310.774 137.067 310.065 137.387 309.457C137.718 308.849 138.166 308.374 138.731 308.033C139.307 307.692 139.963 307.521 140.699 307.521C141.222 307.521 141.691 307.612 142.107 307.793C142.534 307.964 142.896 308.214 143.195 308.545C143.494 308.876 143.718 309.281 143.867 309.761C144.027 310.23 144.107 310.764 144.107 311.361C144.107 311.532 144.054 311.665 143.947 311.761C143.851 311.846 143.707 311.889 143.515 311.889H138.043V310.961H143.147L142.875 311.185C142.875 310.63 142.79 310.161 142.619 309.777C142.459 309.382 142.219 309.084 141.899 308.881C141.59 308.678 141.2 308.577 140.731 308.577C140.219 308.577 139.782 308.7 139.419 308.945C139.056 309.18 138.779 309.516 138.587 309.953C138.395 310.38 138.299 310.876 138.299 311.441V311.537C138.299 312.497 138.528 313.222 138.987 313.713C139.446 314.204 140.107 314.449 140.971 314.449C141.312 314.449 141.659 314.406 142.011 314.321C142.374 314.236 142.72 314.081 143.051 313.857C143.211 313.761 143.355 313.718 143.483 313.729C143.622 313.729 143.734 313.772 143.819 313.857C143.904 313.932 143.958 314.028 143.979 314.145C144 314.252 143.984 314.369 143.931 314.497C143.878 314.625 143.776 314.737 143.627 314.833C143.275 315.078 142.854 315.27 142.363 315.409C141.883 315.537 141.419 315.601 140.971 315.601ZM152.858 315.569C152.655 315.569 152.479 315.521 152.33 315.425C152.181 315.318 152.063 315.148 151.978 314.913L149.594 308.561C149.519 308.358 149.498 308.182 149.53 308.033C149.562 307.884 149.637 307.766 149.754 307.681C149.871 307.596 150.026 307.553 150.218 307.553C150.399 307.553 150.543 307.596 150.65 307.681C150.757 307.766 150.847 307.921 150.922 308.145L153.098 314.289H152.714L154.954 308.113C155.029 307.921 155.125 307.782 155.242 307.697C155.37 307.601 155.525 307.553 155.706 307.553C155.898 307.553 156.058 307.601 156.186 307.697C156.314 307.782 156.405 307.921 156.458 308.113L158.666 314.289H158.298L160.506 308.113C160.581 307.9 160.677 307.756 160.794 307.681C160.911 307.596 161.055 307.553 161.226 307.553C161.418 307.553 161.562 307.601 161.658 307.697C161.754 307.793 161.807 307.921 161.818 308.081C161.839 308.23 161.818 308.39 161.754 308.561L159.37 314.913C159.295 315.137 159.178 315.302 159.018 315.409C158.869 315.516 158.693 315.569 158.49 315.569C158.287 315.569 158.106 315.516 157.946 315.409C157.797 315.302 157.679 315.137 157.594 314.913L155.306 308.641H156.042L153.754 314.913C153.669 315.137 153.551 315.302 153.402 315.409C153.253 315.516 153.071 315.569 152.858 315.569ZM164.31 315.537C164.086 315.537 163.91 315.468 163.782 315.329C163.654 315.19 163.59 314.998 163.59 314.753V308.369C163.59 308.113 163.654 307.921 163.782 307.793C163.91 307.654 164.086 307.585 164.31 307.585C164.545 307.585 164.726 307.654 164.854 307.793C164.982 307.921 165.046 308.113 165.046 308.369V314.753C165.046 314.998 164.982 315.19 164.854 315.329C164.737 315.468 164.555 315.537 164.31 315.537ZM164.31 305.857C164.022 305.857 163.793 305.782 163.622 305.633C163.462 305.473 163.382 305.265 163.382 305.009C163.382 304.732 163.462 304.524 163.622 304.385C163.793 304.236 164.022 304.161 164.31 304.161C164.619 304.161 164.849 304.236 164.998 304.385C165.158 304.524 165.238 304.732 165.238 305.009C165.238 305.265 165.158 305.473 164.998 305.633C164.849 305.782 164.619 305.857 164.31 305.857ZM170.619 315.601C169.989 315.601 169.461 315.489 169.035 315.265C168.619 315.041 168.304 314.716 168.091 314.289C167.888 313.862 167.787 313.34 167.787 312.721V308.785H166.763C166.571 308.785 166.421 308.737 166.315 308.641C166.208 308.534 166.155 308.396 166.155 308.225C166.155 308.044 166.208 307.905 166.315 307.809C166.421 307.713 166.571 307.665 166.763 307.665H167.787V305.921C167.787 305.676 167.851 305.494 167.979 305.377C168.107 305.249 168.288 305.185 168.523 305.185C168.757 305.185 168.933 305.249 169.051 305.377C169.179 305.494 169.243 305.676 169.243 305.921V307.665H171.179C171.381 307.665 171.536 307.713 171.643 307.809C171.749 307.905 171.803 308.044 171.803 308.225C171.803 308.396 171.749 308.534 171.643 308.641C171.536 308.737 171.381 308.785 171.179 308.785H169.243V312.593C169.243 313.18 169.365 313.622 169.611 313.921C169.856 314.22 170.261 314.369 170.827 314.369C171.029 314.369 171.2 314.353 171.339 314.321C171.477 314.278 171.6 314.257 171.707 314.257C171.803 314.246 171.883 314.278 171.947 314.353C172.021 314.428 172.059 314.566 172.059 314.769C172.059 314.918 172.032 315.057 171.979 315.185C171.936 315.302 171.845 315.382 171.707 315.425C171.579 315.468 171.408 315.505 171.195 315.537C170.981 315.58 170.789 315.601 170.619 315.601ZM173.966 315.569C173.742 315.569 173.566 315.505 173.438 315.377C173.31 315.249 173.246 315.062 173.246 314.817V304.801C173.246 304.556 173.31 304.374 173.438 304.257C173.566 304.129 173.742 304.065 173.966 304.065C174.201 304.065 174.382 304.129 174.51 304.257C174.638 304.374 174.702 304.556 174.702 304.801V309.361H174.494C174.718 308.753 175.081 308.294 175.582 307.985C176.094 307.676 176.675 307.521 177.326 307.521C177.955 307.521 178.473 307.638 178.878 307.873C179.283 308.097 179.587 308.438 179.79 308.897C179.993 309.356 180.094 309.932 180.094 310.625V314.817C180.094 315.062 180.03 315.249 179.902 315.377C179.785 315.505 179.609 315.569 179.374 315.569C179.139 315.569 178.958 315.505 178.83 315.377C178.702 315.249 178.638 315.062 178.638 314.817V310.705C178.638 310.012 178.505 309.505 178.238 309.185C177.971 308.865 177.545 308.705 176.958 308.705C176.275 308.705 175.726 308.918 175.31 309.345C174.905 309.761 174.702 310.326 174.702 311.041V314.817C174.702 315.318 174.457 315.569 173.966 315.569ZM188.366 318.449C188.196 318.449 188.052 318.401 187.934 318.305C187.828 318.22 187.764 318.097 187.742 317.937C187.732 317.788 187.764 317.628 187.838 317.457L188.926 314.993V315.601L185.902 308.561C185.828 308.38 185.801 308.214 185.822 308.065C185.844 307.916 185.913 307.793 186.03 307.697C186.158 307.601 186.329 307.553 186.542 307.553C186.724 307.553 186.868 307.596 186.974 307.681C187.081 307.766 187.182 307.916 187.278 308.129L189.79 314.321H189.342L191.902 308.129C191.988 307.916 192.089 307.766 192.206 307.681C192.324 307.596 192.484 307.553 192.686 307.553C192.868 307.553 193.006 307.601 193.102 307.697C193.209 307.793 193.273 307.916 193.294 308.065C193.316 308.214 193.284 308.374 193.198 308.545L189.166 317.873C189.06 318.097 188.948 318.246 188.83 318.321C188.724 318.406 188.569 318.449 188.366 318.449ZM198.027 315.601C197.259 315.601 196.592 315.436 196.027 315.105C195.462 314.774 195.024 314.305 194.715 313.697C194.406 313.089 194.251 312.374 194.251 311.553C194.251 310.934 194.336 310.38 194.507 309.889C194.688 309.388 194.944 308.961 195.275 308.609C195.606 308.257 196 307.99 196.459 307.809C196.928 307.617 197.451 307.521 198.027 307.521C198.795 307.521 199.462 307.686 200.027 308.017C200.592 308.348 201.03 308.817 201.339 309.425C201.648 310.022 201.803 310.732 201.803 311.553C201.803 312.172 201.712 312.732 201.531 313.233C201.36 313.734 201.11 314.161 200.779 314.513C200.448 314.865 200.048 315.137 199.579 315.329C199.12 315.51 198.603 315.601 198.027 315.601ZM198.027 314.449C198.496 314.449 198.902 314.337 199.243 314.113C199.595 313.889 199.862 313.564 200.043 313.137C200.235 312.71 200.331 312.182 200.331 311.553C200.331 310.614 200.123 309.9 199.707 309.409C199.291 308.918 198.731 308.673 198.027 308.673C197.568 308.673 197.163 308.785 196.811 309.009C196.47 309.222 196.203 309.542 196.011 309.969C195.819 310.396 195.723 310.924 195.723 311.553C195.723 312.492 195.931 313.212 196.347 313.713C196.774 314.204 197.334 314.449 198.027 314.449ZM206.452 315.601C205.823 315.601 205.295 315.484 204.868 315.249C204.452 315.014 204.143 314.668 203.94 314.209C203.737 313.75 203.636 313.174 203.636 312.481V308.289C203.636 308.044 203.695 307.862 203.812 307.745C203.94 307.617 204.121 307.553 204.356 307.553C204.591 307.553 204.772 307.617 204.9 307.745C205.028 307.862 205.092 308.044 205.092 308.289V312.481C205.092 313.142 205.225 313.633 205.492 313.953C205.759 314.262 206.18 314.417 206.756 314.417C207.396 314.417 207.913 314.204 208.308 313.777C208.713 313.35 208.916 312.785 208.916 312.081V308.289C208.916 308.044 208.975 307.862 209.092 307.745C209.22 307.617 209.401 307.553 209.636 307.553C209.871 307.553 210.052 307.617 210.18 307.745C210.308 307.862 210.372 308.044 210.372 308.289V314.817C210.372 315.318 210.137 315.569 209.668 315.569C209.433 315.569 209.252 315.505 209.124 315.377C209.007 315.249 208.948 315.062 208.948 314.817V313.425L209.156 313.697C208.943 314.316 208.596 314.79 208.116 315.121C207.647 315.441 207.092 315.601 206.452 315.601ZM213.467 315.569C213.222 315.569 213.035 315.505 212.907 315.377C212.779 315.249 212.715 315.062 212.715 314.817V308.289C212.715 308.044 212.779 307.862 212.907 307.745C213.035 307.617 213.211 307.553 213.435 307.553C213.659 307.553 213.83 307.617 213.947 307.745C214.075 307.862 214.139 308.044 214.139 308.289V309.521H213.979C214.15 308.881 214.47 308.396 214.939 308.065C215.408 307.734 216 307.548 216.715 307.505C216.886 307.494 217.024 307.537 217.131 307.633C217.238 307.718 217.296 307.868 217.307 308.081C217.318 308.284 217.27 308.449 217.163 308.577C217.056 308.694 216.891 308.764 216.667 308.785L216.379 308.801C215.675 308.876 215.131 309.105 214.747 309.489C214.374 309.873 214.187 310.401 214.187 311.073V314.817C214.187 315.062 214.123 315.249 213.995 315.377C213.878 315.505 213.702 315.569 213.467 315.569ZM225.963 315.601C225.333 315.601 224.805 315.489 224.379 315.265C223.963 315.041 223.648 314.716 223.435 314.289C223.232 313.862 223.131 313.34 223.131 312.721V308.785H222.107C221.915 308.785 221.765 308.737 221.659 308.641C221.552 308.534 221.498 308.396 221.498 308.225C221.498 308.044 221.552 307.905 221.659 307.809C221.765 307.713 221.915 307.665 222.107 307.665H223.131V305.921C223.131 305.676 223.195 305.494 223.323 305.377C223.451 305.249 223.632 305.185 223.867 305.185C224.101 305.185 224.277 305.249 224.395 305.377C224.523 305.494 224.587 305.676 224.587 305.921V307.665H226.523C226.725 307.665 226.88 307.713 226.987 307.809C227.093 307.905 227.147 308.044 227.147 308.225C227.147 308.396 227.093 308.534 226.987 308.641C226.88 308.737 226.725 308.785 226.523 308.785H224.587V312.593C224.587 313.18 224.709 313.622 224.955 313.921C225.2 314.22 225.605 314.369 226.171 314.369C226.373 314.369 226.544 314.353 226.683 314.321C226.821 314.278 226.944 314.257 227.051 314.257C227.147 314.246 227.227 314.278 227.291 314.353C227.365 314.428 227.403 314.566 227.403 314.769C227.403 314.918 227.376 315.057 227.323 315.185C227.28 315.302 227.189 315.382 227.051 315.425C226.923 315.468 226.752 315.505 226.539 315.537C226.325 315.58 226.133 315.601 225.963 315.601ZM231.987 315.601C231.144 315.601 230.419 315.441 229.811 315.121C229.213 314.79 228.749 314.326 228.419 313.729C228.088 313.121 227.923 312.406 227.923 311.585C227.923 310.774 228.083 310.065 228.403 309.457C228.733 308.849 229.181 308.374 229.747 308.033C230.323 307.692 230.979 307.521 231.715 307.521C232.237 307.521 232.707 307.612 233.123 307.793C233.549 307.964 233.912 308.214 234.211 308.545C234.509 308.876 234.733 309.281 234.883 309.761C235.043 310.23 235.123 310.764 235.123 311.361C235.123 311.532 235.069 311.665 234.963 311.761C234.867 311.846 234.723 311.889 234.531 311.889H229.059V310.961H234.163L233.891 311.185C233.891 310.63 233.805 310.161 233.635 309.777C233.475 309.382 233.235 309.084 232.915 308.881C232.605 308.678 232.216 308.577 231.747 308.577C231.235 308.577 230.797 308.7 230.435 308.945C230.072 309.18 229.795 309.516 229.603 309.953C229.411 310.38 229.315 310.876 229.315 311.441V311.537C229.315 312.497 229.544 313.222 230.003 313.713C230.461 314.204 231.123 314.449 231.987 314.449C232.328 314.449 232.675 314.406 233.027 314.321C233.389 314.236 233.736 314.081 234.067 313.857C234.227 313.761 234.371 313.718 234.499 313.729C234.637 313.729 234.749 313.772 234.835 313.857C234.92 313.932 234.973 314.028 234.995 314.145C235.016 314.252 235 314.369 234.947 314.497C234.893 314.625 234.792 314.737 234.643 314.833C234.291 315.078 233.869 315.27 233.379 315.409C232.899 315.537 232.435 315.601 231.987 315.601ZM240.534 315.601C239.691 315.601 238.966 315.441 238.358 315.121C237.76 314.79 237.296 314.326 236.966 313.729C236.635 313.121 236.47 312.406 236.47 311.585C236.47 310.774 236.63 310.065 236.95 309.457C237.28 308.849 237.728 308.374 238.294 308.033C238.87 307.692 239.526 307.521 240.262 307.521C240.784 307.521 241.254 307.612 241.67 307.793C242.096 307.964 242.459 308.214 242.758 308.545C243.056 308.876 243.28 309.281 243.43 309.761C243.59 310.23 243.67 310.764 243.67 311.361C243.67 311.532 243.616 311.665 243.51 311.761C243.414 311.846 243.27 311.889 243.078 311.889H237.606V310.961H242.71L242.438 311.185C242.438 310.63 242.352 310.161 242.182 309.777C242.022 309.382 241.782 309.084 241.462 308.881C241.152 308.678 240.763 308.577 240.294 308.577C239.782 308.577 239.344 308.7 238.982 308.945C238.619 309.18 238.342 309.516 238.15 309.953C237.958 310.38 237.862 310.876 237.862 311.441V311.537C237.862 312.497 238.091 313.222 238.55 313.713C239.008 314.204 239.67 314.449 240.534 314.449C240.875 314.449 241.222 314.406 241.574 314.321C241.936 314.236 242.283 314.081 242.614 313.857C242.774 313.761 242.918 313.718 243.046 313.729C243.184 313.729 243.296 313.772 243.382 313.857C243.467 313.932 243.52 314.028 243.542 314.145C243.563 314.252 243.547 314.369 243.494 314.497C243.44 314.625 243.339 314.737 243.19 314.833C242.838 315.078 242.416 315.27 241.926 315.409C241.446 315.537 240.982 315.601 240.534 315.601ZM248.697 315.601C248.068 315.601 247.54 315.489 247.113 315.265C246.697 315.041 246.382 314.716 246.169 314.289C245.966 313.862 245.865 313.34 245.865 312.721V308.785H244.841C244.649 308.785 244.5 308.737 244.393 308.641C244.286 308.534 244.233 308.396 244.233 308.225C244.233 308.044 244.286 307.905 244.393 307.809C244.5 307.713 244.649 307.665 244.841 307.665H245.865V305.921C245.865 305.676 245.929 305.494 246.057 305.377C246.185 305.249 246.366 305.185 246.601 305.185C246.836 305.185 247.012 305.249 247.129 305.377C247.257 305.494 247.321 305.676 247.321 305.921V307.665H249.257C249.46 307.665 249.614 307.713 249.721 307.809C249.828 307.905 249.881 308.044 249.881 308.225C249.881 308.396 249.828 308.534 249.721 308.641C249.614 308.737 249.46 308.785 249.257 308.785H247.321V312.593C247.321 313.18 247.444 313.622 247.689 313.921C247.934 314.22 248.34 314.369 248.905 314.369C249.108 314.369 249.278 314.353 249.417 314.321C249.556 314.278 249.678 314.257 249.785 314.257C249.881 314.246 249.961 314.278 250.025 314.353C250.1 314.428 250.137 314.566 250.137 314.769C250.137 314.918 250.11 315.057 250.057 315.185C250.014 315.302 249.924 315.382 249.785 315.425C249.657 315.468 249.486 315.505 249.273 315.537C249.06 315.58 248.868 315.601 248.697 315.601ZM252.044 315.569C251.82 315.569 251.644 315.505 251.516 315.377C251.388 315.249 251.324 315.062 251.324 314.817V304.801C251.324 304.556 251.388 304.374 251.516 304.257C251.644 304.129 251.82 304.065 252.044 304.065C252.279 304.065 252.46 304.129 252.588 304.257C252.716 304.374 252.78 304.556 252.78 304.801V309.361H252.572C252.796 308.753 253.159 308.294 253.66 307.985C254.172 307.676 254.754 307.521 255.404 307.521C256.034 307.521 256.551 307.638 256.956 307.873C257.362 308.097 257.666 308.438 257.868 308.897C258.071 309.356 258.172 309.932 258.172 310.625V314.817C258.172 315.062 258.108 315.249 257.98 315.377C257.863 315.505 257.687 315.569 257.452 315.569C257.218 315.569 257.036 315.505 256.908 315.377C256.78 315.249 256.716 315.062 256.716 314.817V310.705C256.716 310.012 256.583 309.505 256.316 309.185C256.05 308.865 255.623 308.705 255.036 308.705C254.354 308.705 253.804 308.918 253.388 309.345C252.983 309.761 252.78 310.326 252.78 311.041V314.817C252.78 315.318 252.535 315.569 252.044 315.569Z" fill="#030903"/>
<path d="M5.056 183.816C4.55467 183.816 4.06933 183.773 3.6 183.688C3.13067 183.613 2.688 183.496 2.272 183.336C1.856 183.176 1.48267 182.979 1.152 182.744C1.01333 182.648 0.912 182.531 0.848 182.392C0.794667 182.253 0.778667 182.12 0.8 181.992C0.832 181.853 0.890667 181.736 0.976 181.64C1.072 181.544 1.184 181.485 1.312 181.464C1.44 181.443 1.57867 181.485 1.728 181.592C2.21867 181.923 2.73067 182.163 3.264 182.312C3.808 182.461 4.40533 182.536 5.056 182.536C5.99467 182.536 6.68267 182.365 7.12 182.024C7.568 181.683 7.792 181.235 7.792 180.68C7.792 180.221 7.632 179.864 7.312 179.608C6.992 179.341 6.45333 179.133 5.696 178.984L4 178.632C2.99733 178.419 2.24533 178.067 1.744 177.576C1.25333 177.085 1.008 176.429 1.008 175.608C1.008 175.107 1.10933 174.653 1.312 174.248C1.51467 173.832 1.80267 173.475 2.176 173.176C2.54933 172.877 2.98667 172.648 3.488 172.488C4 172.328 4.56533 172.248 5.184 172.248C5.84533 172.248 6.464 172.339 7.04 172.52C7.62667 172.701 8.15467 172.968 8.624 173.32C8.752 173.416 8.83733 173.533 8.88 173.672C8.92267 173.8 8.928 173.928 8.896 174.056C8.87467 174.184 8.816 174.291 8.72 174.376C8.63467 174.461 8.52267 174.509 8.384 174.52C8.256 174.531 8.112 174.483 7.952 174.376C7.52533 174.077 7.088 173.864 6.64 173.736C6.192 173.597 5.70133 173.528 5.168 173.528C4.624 173.528 4.14933 173.613 3.744 173.784C3.34933 173.955 3.04 174.195 2.816 174.504C2.60267 174.803 2.496 175.155 2.496 175.56C2.496 176.051 2.64533 176.435 2.944 176.712C3.24267 176.989 3.744 177.203 4.448 177.352L6.128 177.688C7.19467 177.912 7.984 178.259 8.496 178.728C9.01867 179.187 9.28 179.805 9.28 180.584C9.28 181.075 9.17867 181.517 8.976 181.912C8.784 182.307 8.50667 182.648 8.144 182.936C7.78133 183.213 7.33867 183.432 6.816 183.592C6.29333 183.741 5.70667 183.816 5.056 183.816ZM14.2438 183.816C13.6144 183.816 13.0864 183.704 12.6598 183.48C12.2438 183.256 11.9291 182.931 11.7158 182.504C11.5131 182.077 11.4118 181.555 11.4118 180.936V177H10.3878C10.1958 177 10.0464 176.952 9.93975 176.856C9.83308 176.749 9.77975 176.611 9.77975 176.44C9.77975 176.259 9.83308 176.12 9.93975 176.024C10.0464 175.928 10.1958 175.88 10.3878 175.88H11.4118V174.136C11.4118 173.891 11.4758 173.709 11.6038 173.592C11.7318 173.464 11.9131 173.4 12.1478 173.4C12.3824 173.4 12.5584 173.464 12.6758 173.592C12.8038 173.709 12.8678 173.891 12.8678 174.136V175.88H14.8038C15.0064 175.88 15.1611 175.928 15.2678 176.024C15.3744 176.12 15.4278 176.259 15.4278 176.44C15.4278 176.611 15.3744 176.749 15.2678 176.856C15.1611 176.952 15.0064 177 14.8038 177H12.8678V180.808C12.8678 181.395 12.9904 181.837 13.2358 182.136C13.4811 182.435 13.8864 182.584 14.4518 182.584C14.6544 182.584 14.8251 182.568 14.9638 182.536C15.1024 182.493 15.2251 182.472 15.3318 182.472C15.4278 182.461 15.5078 182.493 15.5718 182.568C15.6464 182.643 15.6838 182.781 15.6838 182.984C15.6838 183.133 15.6571 183.272 15.6038 183.4C15.5611 183.517 15.4704 183.597 15.3318 183.64C15.2038 183.683 15.0331 183.72 14.8198 183.752C14.6064 183.795 14.4144 183.816 14.2438 183.816ZM17.4981 183.784C17.2528 183.784 17.0661 183.72 16.9381 183.592C16.8101 183.464 16.7461 183.277 16.7461 183.032V176.504C16.7461 176.259 16.8101 176.077 16.9381 175.96C17.0661 175.832 17.2421 175.768 17.4661 175.768C17.6901 175.768 17.8608 175.832 17.9781 175.96C18.1061 176.077 18.1701 176.259 18.1701 176.504V177.736H18.0101C18.1808 177.096 18.5008 176.611 18.9701 176.28C19.4395 175.949 20.0315 175.763 20.7461 175.72C20.9168 175.709 21.0555 175.752 21.1621 175.848C21.2688 175.933 21.3275 176.083 21.3381 176.296C21.3488 176.499 21.3008 176.664 21.1941 176.792C21.0875 176.909 20.9221 176.979 20.6981 177L20.4101 177.016C19.7061 177.091 19.1621 177.32 18.7781 177.704C18.4048 178.088 18.2181 178.616 18.2181 179.288V183.032C18.2181 183.277 18.1541 183.464 18.0261 183.592C17.9088 183.72 17.7328 183.784 17.4981 183.784ZM25.4565 183.816C24.7738 183.816 24.1712 183.656 23.6485 183.336C23.1365 183.005 22.7365 182.536 22.4485 181.928C22.1605 181.309 22.0165 180.589 22.0165 179.768C22.0165 178.936 22.1552 178.221 22.4325 177.624C22.7205 177.016 23.1205 176.552 23.6325 176.232C24.1552 175.901 24.7632 175.736 25.4565 175.736C26.1498 175.736 26.7472 175.912 27.2485 176.264C27.7498 176.605 28.0858 177.064 28.2565 177.64L28.0805 177.88V176.504C28.0805 176.259 28.1445 176.077 28.2725 175.96C28.4005 175.832 28.5765 175.768 28.8005 175.768C29.0352 175.768 29.2165 175.832 29.3445 175.96C29.4725 176.077 29.5365 176.259 29.5365 176.504V183.032C29.5365 183.277 29.4725 183.464 29.3445 183.592C29.2165 183.72 29.0352 183.784 28.8005 183.784C28.5765 183.784 28.4005 183.72 28.2725 183.592C28.1445 183.464 28.0805 183.277 28.0805 183.032V181.672L28.2565 181.864C28.0965 182.461 27.7605 182.936 27.2485 183.288C26.7472 183.64 26.1498 183.816 25.4565 183.816ZM25.7925 182.664C26.2618 182.664 26.6672 182.552 27.0085 182.328C27.3605 182.104 27.6272 181.779 27.8085 181.352C28.0005 180.925 28.0965 180.397 28.0965 179.768C28.0965 178.829 27.8885 178.115 27.4725 177.624C27.0565 177.133 26.4965 176.888 25.7925 176.888C25.3338 176.888 24.9285 177 24.5765 177.224C24.2352 177.437 23.9685 177.757 23.7765 178.184C23.5845 178.611 23.4885 179.139 23.4885 179.768C23.4885 180.707 23.6965 181.427 24.1125 181.928C24.5392 182.419 25.0992 182.664 25.7925 182.664ZM32.5911 183.752C32.3671 183.752 32.1911 183.683 32.0631 183.544C31.9351 183.405 31.8711 183.213 31.8711 182.968V176.584C31.8711 176.328 31.9351 176.136 32.0631 176.008C32.1911 175.869 32.3671 175.8 32.5911 175.8C32.8258 175.8 33.0071 175.869 33.1351 176.008C33.2631 176.136 33.3271 176.328 33.3271 176.584V182.968C33.3271 183.213 33.2631 183.405 33.1351 183.544C33.0178 183.683 32.8365 183.752 32.5911 183.752ZM32.5911 174.072C32.3031 174.072 32.0738 173.997 31.9031 173.848C31.7431 173.688 31.6631 173.48 31.6631 173.224C31.6631 172.947 31.7431 172.739 31.9031 172.6C32.0738 172.451 32.3031 172.376 32.5911 172.376C32.9005 172.376 33.1298 172.451 33.2791 172.6C33.4391 172.739 33.5191 172.947 33.5191 173.224C33.5191 173.48 33.4391 173.688 33.2791 173.848C33.1298 173.997 32.9005 174.072 32.5911 174.072ZM39.172 186.696C38.596 186.696 38.036 186.632 37.492 186.504C36.9587 186.376 36.4733 186.179 36.036 185.912C35.8973 185.827 35.8013 185.725 35.748 185.608C35.7053 185.501 35.6947 185.389 35.716 185.272C35.748 185.155 35.8013 185.048 35.876 184.952C35.9613 184.867 36.0573 184.808 36.164 184.776C36.2813 184.755 36.3987 184.781 36.516 184.856C36.9853 185.123 37.4333 185.304 37.86 185.4C38.2867 185.496 38.692 185.544 39.076 185.544C39.8333 185.544 40.3987 185.347 40.772 184.952C41.156 184.568 41.348 184.003 41.348 183.256V181.528H41.492C41.3427 182.125 41.0067 182.6 40.484 182.952C39.972 183.304 39.3747 183.48 38.692 183.48C37.988 183.48 37.3747 183.32 36.852 183C36.3293 182.669 35.924 182.216 35.636 181.64C35.348 181.053 35.204 180.376 35.204 179.608C35.204 179.021 35.284 178.493 35.444 178.024C35.6147 177.544 35.8493 177.139 36.148 176.808C36.4573 176.467 36.8253 176.205 37.252 176.024C37.6787 175.832 38.1587 175.736 38.692 175.736C39.3853 175.736 39.988 175.912 40.5 176.264C41.012 176.616 41.3427 177.091 41.492 177.688L41.316 177.912V176.504C41.316 176.259 41.38 176.077 41.508 175.96C41.636 175.832 41.8173 175.768 42.052 175.768C42.276 175.768 42.452 175.832 42.58 175.96C42.708 176.077 42.772 176.259 42.772 176.504V183.064C42.772 184.269 42.4627 185.176 41.844 185.784C41.236 186.392 40.3453 186.696 39.172 186.696ZM39.012 182.328C39.492 182.328 39.9027 182.221 40.244 182.008C40.596 181.784 40.8627 181.469 41.044 181.064C41.236 180.648 41.332 180.163 41.332 179.608C41.332 178.765 41.124 178.104 40.708 177.624C40.292 177.133 39.7267 176.888 39.012 176.888C38.532 176.888 38.116 177 37.764 177.224C37.4227 177.437 37.156 177.747 36.964 178.152C36.772 178.557 36.676 179.043 36.676 179.608C36.676 180.44 36.884 181.101 37.3 181.592C37.7267 182.083 38.2973 182.328 39.012 182.328ZM45.8255 183.784C45.6015 183.784 45.4255 183.72 45.2975 183.592C45.1695 183.464 45.1055 183.277 45.1055 183.032V173.016C45.1055 172.771 45.1695 172.589 45.2975 172.472C45.4255 172.344 45.6015 172.28 45.8255 172.28C46.0602 172.28 46.2415 172.344 46.3695 172.472C46.4975 172.589 46.5615 172.771 46.5615 173.016V177.576H46.3535C46.5775 176.968 46.9402 176.509 47.4415 176.2C47.9535 175.891 48.5348 175.736 49.1855 175.736C49.8148 175.736 50.3322 175.853 50.7375 176.088C51.1428 176.312 51.4468 176.653 51.6495 177.112C51.8522 177.571 51.9535 178.147 51.9535 178.84V183.032C51.9535 183.277 51.8895 183.464 51.7615 183.592C51.6442 183.72 51.4682 183.784 51.2335 183.784C50.9988 183.784 50.8175 183.72 50.6895 183.592C50.5615 183.464 50.4975 183.277 50.4975 183.032V178.92C50.4975 178.227 50.3642 177.72 50.0975 177.4C49.8308 177.08 49.4042 176.92 48.8175 176.92C48.1348 176.92 47.5855 177.133 47.1695 177.56C46.7642 177.976 46.5615 178.541 46.5615 179.256V183.032C46.5615 183.533 46.3162 183.784 45.8255 183.784ZM57.4938 183.816C56.8644 183.816 56.3364 183.704 55.9098 183.48C55.4938 183.256 55.1791 182.931 54.9658 182.504C54.7631 182.077 54.6618 181.555 54.6618 180.936V177H53.6378C53.4458 177 53.2964 176.952 53.1898 176.856C53.0831 176.749 53.0297 176.611 53.0297 176.44C53.0297 176.259 53.0831 176.12 53.1898 176.024C53.2964 175.928 53.4458 175.88 53.6378 175.88H54.6618V174.136C54.6618 173.891 54.7258 173.709 54.8538 173.592C54.9818 173.464 55.1631 173.4 55.3978 173.4C55.6324 173.4 55.8084 173.464 55.9258 173.592C56.0538 173.709 56.1178 173.891 56.1178 174.136V175.88H58.0538C58.2564 175.88 58.4111 175.928 58.5178 176.024C58.6244 176.12 58.6778 176.259 58.6778 176.44C58.6778 176.611 58.6244 176.749 58.5178 176.856C58.4111 176.952 58.2564 177 58.0538 177H56.1178V180.808C56.1178 181.395 56.2404 181.837 56.4858 182.136C56.7311 182.435 57.1364 182.584 57.7018 182.584C57.9044 182.584 58.0751 182.568 58.2138 182.536C58.3524 182.493 58.4751 182.472 58.5818 182.472C58.6778 182.461 58.7578 182.493 58.8218 182.568C58.8964 182.643 58.9338 182.781 58.9338 182.984C58.9338 183.133 58.9071 183.272 58.8538 183.4C58.8111 183.517 58.7204 183.597 58.5818 183.64C58.4538 183.683 58.2831 183.72 58.0698 183.752C57.8564 183.795 57.6644 183.816 57.4938 183.816ZM65.144 183.784C64.8987 183.784 64.7067 183.715 64.568 183.576C64.4293 183.437 64.36 183.24 64.36 182.984V173.192C64.36 172.936 64.4293 172.739 64.568 172.6C64.7067 172.461 64.904 172.392 65.16 172.392H70.904C71.1173 172.392 71.2773 172.445 71.384 172.552C71.4907 172.648 71.544 172.792 71.544 172.984C71.544 173.187 71.4907 173.341 71.384 173.448C71.2773 173.555 71.1173 173.608 70.904 173.608H65.848V177.384H70.584C70.7867 177.384 70.9413 177.437 71.048 177.544C71.1547 177.651 71.208 177.795 71.208 177.976C71.208 178.179 71.1547 178.333 71.048 178.44C70.9413 178.547 70.7867 178.6 70.584 178.6H65.848V182.984C65.848 183.517 65.6133 183.784 65.144 183.784ZM75.6596 183.816C74.977 183.816 74.3743 183.656 73.8516 183.336C73.3396 183.005 72.9396 182.536 72.6516 181.928C72.3636 181.309 72.2196 180.589 72.2196 179.768C72.2196 178.936 72.3583 178.221 72.6356 177.624C72.9236 177.016 73.3236 176.552 73.8356 176.232C74.3583 175.901 74.9663 175.736 75.6596 175.736C76.353 175.736 76.9503 175.912 77.4516 176.264C77.953 176.605 78.289 177.064 78.4596 177.64L78.2836 177.88V176.504C78.2836 176.259 78.3476 176.077 78.4756 175.96C78.6036 175.832 78.7796 175.768 79.0036 175.768C79.2383 175.768 79.4196 175.832 79.5476 175.96C79.6756 176.077 79.7396 176.259 79.7396 176.504V183.032C79.7396 183.277 79.6756 183.464 79.5476 183.592C79.4196 183.72 79.2383 183.784 79.0036 183.784C78.7796 183.784 78.6036 183.72 78.4756 183.592C78.3476 183.464 78.2836 183.277 78.2836 183.032V181.672L78.4596 181.864C78.2996 182.461 77.9636 182.936 77.4516 183.288C76.9503 183.64 76.353 183.816 75.6596 183.816ZM75.9956 182.664C76.465 182.664 76.8703 182.552 77.2116 182.328C77.5636 182.104 77.8303 181.779 78.0116 181.352C78.2036 180.925 78.2996 180.397 78.2996 179.768C78.2996 178.829 78.0916 178.115 77.6756 177.624C77.2596 177.133 76.6996 176.888 75.9956 176.888C75.537 176.888 75.1316 177 74.7796 177.224C74.4383 177.437 74.1716 177.757 73.9796 178.184C73.7876 178.611 73.6916 179.139 73.6916 179.768C73.6916 180.707 73.8996 181.427 74.3156 181.928C74.7423 182.419 75.3023 182.664 75.9956 182.664ZM85.4503 183.816C84.6609 183.816 83.9783 183.651 83.4023 183.32C82.8263 182.979 82.3836 182.504 82.0743 181.896C81.7649 181.277 81.6103 180.552 81.6103 179.72C81.6103 179.101 81.6956 178.547 81.8663 178.056C82.0476 177.565 82.3036 177.149 82.6343 176.808C82.9649 176.456 83.3649 176.189 83.8343 176.008C84.3143 175.827 84.8529 175.736 85.4503 175.736C85.8236 175.736 86.2183 175.795 86.6343 175.912C87.0503 176.029 87.4343 176.221 87.7863 176.488C87.9036 176.573 87.9783 176.675 88.0103 176.792C88.0423 176.899 88.0423 177.011 88.0103 177.128C87.9889 177.245 87.9356 177.347 87.8503 177.432C87.7756 177.507 87.6743 177.549 87.5463 177.56C87.4289 177.571 87.3009 177.533 87.1623 177.448C86.9063 177.256 86.6343 177.117 86.3463 177.032C86.0689 176.947 85.8023 176.904 85.5463 176.904C85.1516 176.904 84.7996 176.968 84.4903 177.096C84.1916 177.224 83.9356 177.411 83.7223 177.656C83.5196 177.891 83.3649 178.184 83.2582 178.536C83.1516 178.877 83.0983 179.277 83.0983 179.736C83.0983 180.643 83.3116 181.357 83.7383 181.88C84.1649 182.392 84.7676 182.648 85.5463 182.648C85.8023 182.648 86.0689 182.611 86.3463 182.536C86.6236 182.451 86.8956 182.312 87.1623 182.12C87.3009 182.035 87.4289 182.003 87.5463 182.024C87.6636 182.035 87.7596 182.083 87.8343 182.168C87.9196 182.243 87.9729 182.339 87.9943 182.456C88.0156 182.563 88.0049 182.675 87.9623 182.792C87.9303 182.909 87.8556 183.005 87.7383 183.08C87.3969 183.336 87.0236 183.523 86.6183 183.64C86.2129 183.757 85.8236 183.816 85.4503 183.816ZM92.9555 183.816C92.1128 183.816 91.3875 183.656 90.7795 183.336C90.1822 183.005 89.7182 182.541 89.3875 181.944C89.0568 181.336 88.8915 180.621 88.8915 179.8C88.8915 178.989 89.0515 178.28 89.3715 177.672C89.7022 177.064 90.1502 176.589 90.7155 176.248C91.2915 175.907 91.9475 175.736 92.6835 175.736C93.2062 175.736 93.6755 175.827 94.0915 176.008C94.5182 176.179 94.8808 176.429 95.1795 176.76C95.4782 177.091 95.7022 177.496 95.8515 177.976C96.0115 178.445 96.0915 178.979 96.0915 179.576C96.0915 179.747 96.0382 179.88 95.9315 179.976C95.8355 180.061 95.6915 180.104 95.4995 180.104H90.0275V179.176H95.1315L94.8595 179.4C94.8595 178.845 94.7742 178.376 94.6035 177.992C94.4435 177.597 94.2035 177.299 93.8835 177.096C93.5742 176.893 93.1848 176.792 92.7155 176.792C92.2035 176.792 91.7662 176.915 91.4035 177.16C91.0408 177.395 90.7635 177.731 90.5715 178.168C90.3795 178.595 90.2835 179.091 90.2835 179.656V179.752C90.2835 180.712 90.5128 181.437 90.9715 181.928C91.4302 182.419 92.0915 182.664 92.9555 182.664C93.2968 182.664 93.6435 182.621 93.9955 182.536C94.3582 182.451 94.7048 182.296 95.0355 182.072C95.1955 181.976 95.3395 181.933 95.4675 181.944C95.6062 181.944 95.7182 181.987 95.8035 182.072C95.8888 182.147 95.9422 182.243 95.9635 182.36C95.9848 182.467 95.9688 182.584 95.9155 182.712C95.8622 182.84 95.7608 182.952 95.6115 183.048C95.2595 183.293 94.8382 183.485 94.3475 183.624C93.8675 183.752 93.4035 183.816 92.9555 183.816Z" fill="#030903"/>
<path d="M174 134.281H222C230.56 134.281 237.5 141.221 237.5 149.781V209.564C237.5 218.124 230.56 225.064 222 225.064H174C165.44 225.064 158.5 218.124 158.5 209.564V149.781C158.5 141.221 165.44 134.281 174 134.281Z" fill="white" stroke="#9DA0A2"/>
<mask id="mask2_3451_178686" style="mask-type:alpha" maskUnits="userSpaceOnUse" x="158" y="133" width="80" height="93">
<path d="M174 134.281H222C230.56 134.281 237.5 141.221 237.5 149.781V209.564C237.5 218.124 230.56 225.064 222 225.064H174C165.44 225.064 158.5 218.124 158.5 209.564V149.781C158.5 141.221 165.44 134.281 174 134.281Z" fill="white" stroke="#9DA0A2"/>
</mask>
<g mask="url(#mask2_3451_178686)">
<path d="M197.2 149.976C201.709 149.976 205.364 146.853 205.364 143C205.364 139.147 201.709 136.023 197.2 136.023C192.691 136.023 189.036 139.147 189.036 143C189.036 146.853 192.691 149.976 197.2 149.976Z" fill="#1E160B"/>
<path d="M228.658 202.1C228.726 201.939 231.981 194.894 231.866 192.885C231.81 191.943 231.531 191.264 231.331 190.779C229.519 186.385 224.605 186.804 221.711 183.408C219.47 180.778 219.662 177.003 220.107 169.455C220.376 164.911 221.245 162.578 220.107 158.661C220.107 158.661 219.241 155.675 217.168 152.869C212.659 146.767 204.727 144.821 200.598 144.194V143.789H196.321V143.921C192.668 144.358 183.622 146.053 178.682 152.74C176.609 155.546 175.743 158.532 175.743 158.532C174.605 162.449 175.474 164.782 175.743 169.326C176.188 176.874 176.383 180.649 174.139 183.279C171.245 186.675 166.33 186.256 164.519 190.65C164.318 191.135 164.039 191.814 163.984 192.756C163.868 194.765 167.134 201.807 167.192 201.971C169.464 208.421 155.278 208.621 153 209.342V225.957L197.925 225.664L197.922 225.138H197.925C197.922 225.564 197.922 225.793 197.922 225.793L243 226.018V209.489C240.725 208.768 225.853 208.684 228.658 202.1Z" fill="#1E160B"/>
<path d="M158.119 225.914C159.051 223.363 170.47 207.239 183.901 199.868C187.372 198.596 200.437 192.246 212.607 199.868C233.227 212.783 237.515 226.202 237.455 226.021" fill="#FD4C54"/>
<path d="M203.916 193.814L212.607 199.869C206.813 210.926 192.328 214.349 183.901 199.869L192.328 194.077C192.328 194.077 192.328 184.513 192.328 179.598H203.916C203.916 184.423 203.916 193.814 203.916 193.814Z" fill="#F5B7A3"/>
<path d="M203.821 185.227C203.803 185.234 203.784 185.245 203.763 185.253V185.256C203.784 185.245 203.803 185.237 203.821 185.227Z" fill="#1E160B"/>
<path d="M204.442 184.864C204.179 182.758 198.264 187.586 198.264 187.586C200.205 187.412 202.093 187.139 203.916 186.444C203.916 186.275 204.706 186.97 204.442 184.864Z" fill="#1E160B"/>
<path d="M203.966 150.116C202.265 149.163 200.582 148.631 199.089 148.336H196.368C194.875 148.633 193.192 149.165 191.491 150.116C189.713 151.111 180.604 158.856 182.044 169.926C182.703 174.986 185.257 178.353 186.798 180.386C186.798 180.386 190.94 185.849 197.666 188.113C197.695 188.123 197.727 188.123 197.727 188.123C197.727 188.123 197.756 188.123 197.788 188.113C204.282 185.925 208.393 180.649 208.393 180.649C210.073 178.493 212.728 175.084 213.41 169.926C214.877 158.853 205.728 151.103 203.966 150.116Z" fill="#F5B7A3"/>
<path d="M195.441 179.663C196.448 178.825 197.823 178.669 199.706 179.45V179.663C198 179.236 196.706 179.181 195.441 179.663Z" fill="#1E160B"/>
<path d="M190.558 168.556C191.418 168.556 192.115 167.626 192.115 166.479C192.115 165.332 191.418 164.402 190.558 164.402C189.697 164.402 189 165.332 189 166.479C189 167.626 189.697 168.556 190.558 168.556Z" fill="#1E160B"/>
<path d="M204.404 168.556C205.264 168.556 205.962 167.626 205.962 166.479C205.962 165.332 205.264 164.402 204.404 164.402C203.544 164.402 202.846 165.332 202.846 166.479C202.846 167.626 203.544 168.556 204.404 168.556Z" fill="#1E160B"/>
<path d="M197.419 164.402C197.823 169.143 195.185 172.924 194.913 173.155C194.913 173.155 196.77 175.194 196.862 175.132C196.951 175.072 195.748 173.155 195.748 173.155C195.748 173.155 198.533 168.355 197.419 164.402Z" fill="#1E160B"/>
<path d="M188.308 162.327C188.808 161.851 189.551 161.306 190.518 161.18C191.521 161.048 192.349 161.421 192.451 161.18C192.534 160.985 192.101 160.489 191.623 160.32C190.195 159.813 188.385 162.224 188.308 162.327Z" fill="#1E160B"/>
<path d="M207 162.327C206.5 161.851 205.757 161.306 204.79 161.18C203.787 161.048 202.959 161.421 202.856 161.18C202.774 160.985 203.207 160.489 203.685 160.32C205.113 159.813 206.923 162.224 207 162.327Z" fill="#1E160B"/>
<path d="M213.528 169.985C216.98 162.35 205.069 143.056 199.086 146.818C190.682 140.447 173.575 162.995 181.978 169.366C181.978 169.366 185.797 162.245 189.297 158.138C192.639 154.218 196.041 151.398 198.778 149.45C201.572 151.767 205.03 155.118 208.258 159.718C210.644 163.114 212.345 167.244 213.528 169.985Z" fill="#1E160B"/>
<path d="M198.253 149.451C197.642 154.611 195.62 158.139 195.62 158.139C195.62 158.139 198.201 156.57 199.043 153.926C200.015 150.886 198.83 147.848 198.517 147.871C198.375 147.882 198.361 148.54 198.253 149.451Z" fill="#1E160B"/>
<path d="M183.11 169.327C181.915 169.122 180.643 169.772 179.95 170.644C178.468 172.51 179.318 175.788 181.267 177.488C182.784 178.81 185.42 179.576 186.534 178.541C188.372 176.833 186.416 169.893 183.11 169.327Z" fill="#F5B7A3"/>
<path d="M215.458 170.644C214.765 169.772 213.493 169.122 212.298 169.327C208.993 169.893 207.036 176.833 208.874 178.541C209.988 179.576 212.624 178.81 214.141 177.488C216.09 175.788 216.941 172.51 215.458 170.644Z" fill="#F5B7A3"/>
<path d="M181.531 174.328C181.531 174.328 181.923 174.181 182.189 174.197C182.502 174.215 182.676 174.27 182.839 174.51C183.232 175.086 183.54 175.737 183.88 176.347C184.62 177.674 185.36 179.004 186.1 180.331C186.224 180.552 186.566 180.354 186.442 180.131C185.497 178.435 184.551 176.737 183.606 175.042C183.298 174.491 182.95 173.712 182.252 173.588C181.741 173.499 181.399 173.67 181.399 173.67C181.399 173.67 180.872 174.197 181.531 174.328Z" fill="#1E160B"/>
<path d="M209.114 179.869C210.06 178.173 211.005 176.475 211.951 174.78C212.259 174.23 212.606 173.45 213.304 173.327C213.81 173.237 214.155 173.408 214.155 173.408C214.155 173.408 214.682 173.935 214.023 174.066C214.023 174.066 213.631 173.919 213.365 173.935C213.051 173.953 212.878 174.009 212.714 174.248C212.322 174.825 212.014 175.475 211.674 176.086C210.934 177.413 210.194 178.742 209.454 180.069" fill="#1E160B"/>
<path d="M174 134.281H222C230.56 134.281 237.5 141.221 237.5 149.781V209.564C237.5 218.124 230.56 225.064 222 225.064H174C165.44 225.064 158.5 218.124 158.5 209.564V149.781C158.5 141.221 165.44 134.281 174 134.281Z" stroke="#9DA0A2"/>
</g>
<path d="M109.056 52.0346C108.555 52.0346 108.069 51.992 107.6 51.9066C107.131 51.832 106.688 51.7146 106.272 51.5546C105.856 51.3946 105.483 51.1973 105.152 50.9626C105.013 50.8666 104.912 50.7493 104.848 50.6106C104.795 50.472 104.779 50.3386 104.8 50.2106C104.832 50.072 104.891 49.9546 104.976 49.8586C105.072 49.7626 105.184 49.704 105.312 49.6826C105.44 49.6613 105.579 49.704 105.728 49.8106C106.219 50.1413 106.731 50.3813 107.264 50.5306C107.808 50.68 108.405 50.7546 109.056 50.7546C109.995 50.7546 110.683 50.584 111.12 50.2426C111.568 49.9013 111.792 49.4533 111.792 48.8986C111.792 48.44 111.632 48.0826 111.312 47.8266C110.992 47.56 110.453 47.352 109.696 47.2026L108 46.8506C106.997 46.6373 106.245 46.2853 105.744 45.7946C105.253 45.304 105.008 44.648 105.008 43.8266C105.008 43.3253 105.109 42.872 105.312 42.4666C105.515 42.0506 105.803 41.6933 106.176 41.3946C106.549 41.096 106.987 40.8666 107.488 40.7066C108 40.5466 108.565 40.4666 109.184 40.4666C109.845 40.4666 110.464 40.5573 111.04 40.7386C111.627 40.92 112.155 41.1866 112.624 41.5386C112.752 41.6346 112.837 41.752 112.88 41.8906C112.923 42.0186 112.928 42.1466 112.896 42.2746C112.875 42.4026 112.816 42.5093 112.72 42.5946C112.635 42.68 112.523 42.728 112.384 42.7386C112.256 42.7493 112.112 42.7013 111.952 42.5946C111.525 42.296 111.088 42.0826 110.64 41.9546C110.192 41.816 109.701 41.7466 109.168 41.7466C108.624 41.7466 108.149 41.832 107.744 42.0026C107.349 42.1733 107.04 42.4133 106.816 42.7226C106.603 43.0213 106.496 43.3733 106.496 43.7786C106.496 44.2693 106.645 44.6533 106.944 44.9306C107.243 45.208 107.744 45.4213 108.448 45.5706L110.128 45.9066C111.195 46.1306 111.984 46.4773 112.496 46.9466C113.019 47.4053 113.28 48.024 113.28 48.8026C113.28 49.2933 113.179 49.736 112.976 50.1306C112.784 50.5253 112.507 50.8666 112.144 51.1546C111.781 51.432 111.339 51.6506 110.816 51.8106C110.293 51.96 109.707 52.0346 109.056 52.0346ZM115.811 52.0026C115.587 52.0026 115.411 51.9386 115.283 51.8106C115.155 51.6826 115.091 51.496 115.091 51.2506V44.7226C115.091 44.4773 115.155 44.296 115.283 44.1786C115.411 44.0506 115.587 43.9866 115.811 43.9866C116.035 43.9866 116.205 44.0506 116.323 44.1786C116.451 44.296 116.515 44.4773 116.515 44.7226V46.0826L116.339 45.7946C116.541 45.208 116.867 44.7546 117.315 44.4346C117.773 44.1146 118.317 43.9546 118.947 43.9546C119.608 43.9546 120.141 44.1146 120.547 44.4346C120.952 44.744 121.224 45.2186 121.363 45.8586H121.139C121.331 45.272 121.672 44.808 122.163 44.4666C122.664 44.1253 123.245 43.9546 123.907 43.9546C124.493 43.9546 124.973 44.072 125.347 44.3066C125.731 44.5306 126.019 44.872 126.211 45.3306C126.403 45.7786 126.499 46.3546 126.499 47.0586V51.2506C126.499 51.496 126.435 51.6826 126.307 51.8106C126.179 51.9386 126.003 52.0026 125.779 52.0026C125.544 52.0026 125.363 51.9386 125.235 51.8106C125.107 51.6826 125.043 51.496 125.043 51.2506V47.1226C125.043 46.44 124.925 45.9386 124.691 45.6186C124.456 45.2986 124.061 45.1386 123.507 45.1386C122.899 45.1386 122.413 45.352 122.051 45.7786C121.699 46.1946 121.523 46.7706 121.523 47.5066V51.2506C121.523 51.496 121.459 51.6826 121.331 51.8106C121.213 51.9386 121.037 52.0026 120.803 52.0026C120.568 52.0026 120.387 51.9386 120.259 51.8106C120.131 51.6826 120.067 51.496 120.067 51.2506V47.1226C120.067 46.44 119.949 45.9386 119.715 45.6186C119.48 45.2986 119.085 45.1386 118.531 45.1386C117.923 45.1386 117.437 45.352 117.075 45.7786C116.723 46.1946 116.547 46.7706 116.547 47.5066V51.2506C116.547 51.752 116.301 52.0026 115.811 52.0026ZM129.56 51.9706C129.336 51.9706 129.16 51.9013 129.032 51.7626C128.904 51.624 128.84 51.432 128.84 51.1866V44.8026C128.84 44.5466 128.904 44.3546 129.032 44.2266C129.16 44.088 129.336 44.0186 129.56 44.0186C129.795 44.0186 129.976 44.088 130.104 44.2266C130.232 44.3546 130.296 44.5466 130.296 44.8026V51.1866C130.296 51.432 130.232 51.624 130.104 51.7626C129.987 51.9013 129.805 51.9706 129.56 51.9706ZM129.56 42.2906C129.272 42.2906 129.043 42.216 128.872 42.0666C128.712 41.9066 128.632 41.6986 128.632 41.4426C128.632 41.1653 128.712 40.9573 128.872 40.8186C129.043 40.6693 129.272 40.5946 129.56 40.5946C129.869 40.5946 130.099 40.6693 130.248 40.8186C130.408 40.9573 130.488 41.1653 130.488 41.4426C130.488 41.6986 130.408 41.9066 130.248 42.0666C130.099 42.216 129.869 42.2906 129.56 42.2906ZM135.085 52.0346C134.285 52.0346 133.677 51.8 133.261 51.3306C132.845 50.8506 132.637 50.1626 132.637 49.2666V41.2346C132.637 40.9893 132.701 40.808 132.829 40.6906C132.957 40.5626 133.133 40.4986 133.357 40.4986C133.591 40.4986 133.773 40.5626 133.901 40.6906C134.029 40.808 134.093 40.9893 134.093 41.2346V49.1546C134.093 49.7093 134.205 50.1253 134.429 50.4026C134.663 50.6693 134.994 50.8026 135.421 50.8026C135.517 50.8026 135.602 50.8026 135.677 50.8026C135.751 50.792 135.826 50.7813 135.901 50.7706C136.018 50.76 136.103 50.792 136.157 50.8666C136.21 50.9413 136.237 51.0906 136.237 51.3146C136.237 51.5173 136.189 51.6773 136.093 51.7946C136.007 51.9013 135.863 51.9706 135.661 52.0026C135.565 52.0133 135.469 52.0186 135.373 52.0186C135.277 52.0293 135.181 52.0346 135.085 52.0346ZM140.971 52.0346C140.128 52.0346 139.403 51.8746 138.795 51.5546C138.198 51.224 137.734 50.76 137.403 50.1626C137.072 49.5546 136.907 48.84 136.907 48.0186C136.907 47.208 137.067 46.4986 137.387 45.8906C137.718 45.2826 138.166 44.808 138.731 44.4666C139.307 44.1253 139.963 43.9546 140.699 43.9546C141.222 43.9546 141.691 44.0453 142.107 44.2266C142.534 44.3973 142.896 44.648 143.195 44.9786C143.494 45.3093 143.718 45.7146 143.867 46.1946C144.027 46.664 144.107 47.1973 144.107 47.7946C144.107 47.9653 144.054 48.0986 143.947 48.1946C143.851 48.28 143.707 48.3226 143.515 48.3226H138.043V47.3946H143.147L142.875 47.6186C142.875 47.064 142.79 46.5946 142.619 46.2106C142.459 45.816 142.219 45.5173 141.899 45.3146C141.59 45.112 141.2 45.0106 140.731 45.0106C140.219 45.0106 139.782 45.1333 139.419 45.3786C139.056 45.6133 138.779 45.9493 138.587 46.3866C138.395 46.8133 138.299 47.3093 138.299 47.8746V47.9706C138.299 48.9306 138.528 49.656 138.987 50.1466C139.446 50.6373 140.107 50.8826 140.971 50.8826C141.312 50.8826 141.659 50.84 142.011 50.7546C142.374 50.6693 142.72 50.5146 143.051 50.2906C143.211 50.1946 143.355 50.152 143.483 50.1626C143.622 50.1626 143.734 50.2053 143.819 50.2906C143.904 50.3653 143.958 50.4613 143.979 50.5786C144 50.6853 143.984 50.8026 143.931 50.9306C143.878 51.0586 143.776 51.1706 143.627 51.2666C143.275 51.512 142.854 51.704 142.363 51.8426C141.883 51.9706 141.419 52.0346 140.971 52.0346ZM152.858 52.0026C152.655 52.0026 152.479 51.9546 152.33 51.8586C152.181 51.752 152.063 51.5813 151.978 51.3466L149.594 44.9946C149.519 44.792 149.498 44.616 149.53 44.4666C149.562 44.3173 149.637 44.2 149.754 44.1146C149.871 44.0293 150.026 43.9866 150.218 43.9866C150.399 43.9866 150.543 44.0293 150.65 44.1146C150.757 44.2 150.847 44.3546 150.922 44.5786L153.098 50.7226H152.714L154.954 44.5466C155.029 44.3546 155.125 44.216 155.242 44.1306C155.37 44.0346 155.525 43.9866 155.706 43.9866C155.898 43.9866 156.058 44.0346 156.186 44.1306C156.314 44.216 156.405 44.3546 156.458 44.5466L158.666 50.7226H158.298L160.506 44.5466C160.581 44.3333 160.677 44.1893 160.794 44.1146C160.911 44.0293 161.055 43.9866 161.226 43.9866C161.418 43.9866 161.562 44.0346 161.658 44.1306C161.754 44.2266 161.807 44.3546 161.818 44.5146C161.839 44.664 161.818 44.824 161.754 44.9946L159.37 51.3466C159.295 51.5706 159.178 51.736 159.018 51.8426C158.869 51.9493 158.693 52.0026 158.49 52.0026C158.287 52.0026 158.106 51.9493 157.946 51.8426C157.797 51.736 157.679 51.5706 157.594 51.3466L155.306 45.0746H156.042L153.754 51.3466C153.669 51.5706 153.551 51.736 153.402 51.8426C153.253 51.9493 153.071 52.0026 152.858 52.0026ZM164.31 51.9706C164.086 51.9706 163.91 51.9013 163.782 51.7626C163.654 51.624 163.59 51.432 163.59 51.1866V44.8026C163.59 44.5466 163.654 44.3546 163.782 44.2266C163.91 44.088 164.086 44.0186 164.31 44.0186C164.545 44.0186 164.726 44.088 164.854 44.2266C164.982 44.3546 165.046 44.5466 165.046 44.8026V51.1866C165.046 51.432 164.982 51.624 164.854 51.7626C164.737 51.9013 164.555 51.9706 164.31 51.9706ZM164.31 42.2906C164.022 42.2906 163.793 42.216 163.622 42.0666C163.462 41.9066 163.382 41.6986 163.382 41.4426C163.382 41.1653 163.462 40.9573 163.622 40.8186C163.793 40.6693 164.022 40.5946 164.31 40.5946C164.619 40.5946 164.849 40.6693 164.998 40.8186C165.158 40.9573 165.238 41.1653 165.238 41.4426C165.238 41.6986 165.158 41.9066 164.998 42.0666C164.849 42.216 164.619 42.2906 164.31 42.2906ZM170.619 52.0346C169.989 52.0346 169.461 51.9226 169.035 51.6986C168.619 51.4746 168.304 51.1493 168.091 50.7226C167.888 50.296 167.787 49.7733 167.787 49.1546V45.2186H166.763C166.571 45.2186 166.421 45.1706 166.315 45.0746C166.208 44.968 166.155 44.8293 166.155 44.6586C166.155 44.4773 166.208 44.3386 166.315 44.2426C166.421 44.1466 166.571 44.0986 166.763 44.0986H167.787V42.3546C167.787 42.1093 167.851 41.928 167.979 41.8106C168.107 41.6826 168.288 41.6186 168.523 41.6186C168.757 41.6186 168.933 41.6826 169.051 41.8106C169.179 41.928 169.243 42.1093 169.243 42.3546V44.0986H171.179C171.381 44.0986 171.536 44.1466 171.643 44.2426C171.749 44.3386 171.803 44.4773 171.803 44.6586C171.803 44.8293 171.749 44.968 171.643 45.0746C171.536 45.1706 171.381 45.2186 171.179 45.2186H169.243V49.0266C169.243 49.6133 169.365 50.056 169.611 50.3546C169.856 50.6533 170.261 50.8026 170.827 50.8026C171.029 50.8026 171.2 50.7866 171.339 50.7546C171.477 50.712 171.6 50.6906 171.707 50.6906C171.803 50.68 171.883 50.712 171.947 50.7866C172.021 50.8613 172.059 51 172.059 51.2026C172.059 51.352 172.032 51.4906 171.979 51.6186C171.936 51.736 171.845 51.816 171.707 51.8586C171.579 51.9013 171.408 51.9386 171.195 51.9706C170.981 52.0133 170.789 52.0346 170.619 52.0346ZM173.966 52.0026C173.742 52.0026 173.566 51.9386 173.438 51.8106C173.31 51.6826 173.246 51.496 173.246 51.2506V41.2346C173.246 40.9893 173.31 40.808 173.438 40.6906C173.566 40.5626 173.742 40.4986 173.966 40.4986C174.201 40.4986 174.382 40.5626 174.51 40.6906C174.638 40.808 174.702 40.9893 174.702 41.2346V45.7946H174.494C174.718 45.1866 175.081 44.728 175.582 44.4186C176.094 44.1093 176.675 43.9546 177.326 43.9546C177.955 43.9546 178.473 44.072 178.878 44.3066C179.283 44.5306 179.587 44.872 179.79 45.3306C179.993 45.7893 180.094 46.3653 180.094 47.0586V51.2506C180.094 51.496 180.03 51.6826 179.902 51.8106C179.785 51.9386 179.609 52.0026 179.374 52.0026C179.139 52.0026 178.958 51.9386 178.83 51.8106C178.702 51.6826 178.638 51.496 178.638 51.2506V47.1386C178.638 46.4453 178.505 45.9386 178.238 45.6186C177.971 45.2986 177.545 45.1386 176.958 45.1386C176.275 45.1386 175.726 45.352 175.31 45.7786C174.905 46.1946 174.702 46.76 174.702 47.4746V51.2506C174.702 51.752 174.457 52.0026 173.966 52.0026ZM188.366 54.8826C188.196 54.8826 188.052 54.8346 187.934 54.7386C187.828 54.6533 187.764 54.5306 187.742 54.3706C187.732 54.2213 187.764 54.0613 187.838 53.8906L188.926 51.4266V52.0346L185.902 44.9946C185.828 44.8133 185.801 44.648 185.822 44.4986C185.844 44.3493 185.913 44.2266 186.03 44.1306C186.158 44.0346 186.329 43.9866 186.542 43.9866C186.724 43.9866 186.868 44.0293 186.974 44.1146C187.081 44.2 187.182 44.3493 187.278 44.5626L189.79 50.7546H189.342L191.902 44.5626C191.988 44.3493 192.089 44.2 192.206 44.1146C192.324 44.0293 192.484 43.9866 192.686 43.9866C192.868 43.9866 193.006 44.0346 193.102 44.1306C193.209 44.2266 193.273 44.3493 193.294 44.4986C193.316 44.648 193.284 44.808 193.198 44.9786L189.166 54.3066C189.06 54.5306 188.948 54.68 188.83 54.7546C188.724 54.84 188.569 54.8826 188.366 54.8826ZM198.027 52.0346C197.259 52.0346 196.592 51.8693 196.027 51.5386C195.462 51.208 195.024 50.7386 194.715 50.1306C194.406 49.5226 194.251 48.808 194.251 47.9866C194.251 47.368 194.336 46.8133 194.507 46.3226C194.688 45.8213 194.944 45.3946 195.275 45.0426C195.606 44.6906 196 44.424 196.459 44.2426C196.928 44.0506 197.451 43.9546 198.027 43.9546C198.795 43.9546 199.462 44.12 200.027 44.4506C200.592 44.7813 201.03 45.2506 201.339 45.8586C201.648 46.456 201.803 47.1653 201.803 47.9866C201.803 48.6053 201.712 49.1653 201.531 49.6666C201.36 50.168 201.11 50.5946 200.779 50.9466C200.448 51.2986 200.048 51.5706 199.579 51.7626C199.12 51.944 198.603 52.0346 198.027 52.0346ZM198.027 50.8826C198.496 50.8826 198.902 50.7706 199.243 50.5466C199.595 50.3226 199.862 49.9973 200.043 49.5706C200.235 49.144 200.331 48.616 200.331 47.9866C200.331 47.048 200.123 46.3333 199.707 45.8426C199.291 45.352 198.731 45.1066 198.027 45.1066C197.568 45.1066 197.163 45.2186 196.811 45.4426C196.47 45.656 196.203 45.976 196.011 46.4026C195.819 46.8293 195.723 47.3573 195.723 47.9866C195.723 48.9253 195.931 49.6453 196.347 50.1466C196.774 50.6373 197.334 50.8826 198.027 50.8826ZM206.452 52.0346C205.823 52.0346 205.295 51.9173 204.868 51.6826C204.452 51.448 204.143 51.1013 203.94 50.6426C203.737 50.184 203.636 49.608 203.636 48.9146V44.7226C203.636 44.4773 203.695 44.296 203.812 44.1786C203.94 44.0506 204.121 43.9866 204.356 43.9866C204.591 43.9866 204.772 44.0506 204.9 44.1786C205.028 44.296 205.092 44.4773 205.092 44.7226V48.9146C205.092 49.576 205.225 50.0666 205.492 50.3866C205.759 50.696 206.18 50.8506 206.756 50.8506C207.396 50.8506 207.913 50.6373 208.308 50.2106C208.713 49.784 208.916 49.2186 208.916 48.5146V44.7226C208.916 44.4773 208.975 44.296 209.092 44.1786C209.22 44.0506 209.401 43.9866 209.636 43.9866C209.871 43.9866 210.052 44.0506 210.18 44.1786C210.308 44.296 210.372 44.4773 210.372 44.7226V51.2506C210.372 51.752 210.137 52.0026 209.668 52.0026C209.433 52.0026 209.252 51.9386 209.124 51.8106C209.007 51.6826 208.948 51.496 208.948 51.2506V49.8586L209.156 50.1306C208.943 50.7493 208.596 51.224 208.116 51.5546C207.647 51.8746 207.092 52.0346 206.452 52.0346ZM213.467 52.0026C213.222 52.0026 213.035 51.9386 212.907 51.8106C212.779 51.6826 212.715 51.496 212.715 51.2506V44.7226C212.715 44.4773 212.779 44.296 212.907 44.1786C213.035 44.0506 213.211 43.9866 213.435 43.9866C213.659 43.9866 213.83 44.0506 213.947 44.1786C214.075 44.296 214.139 44.4773 214.139 44.7226V45.9546H213.979C214.15 45.3146 214.47 44.8293 214.939 44.4986C215.408 44.168 216 43.9813 216.715 43.9386C216.886 43.928 217.024 43.9706 217.131 44.0666C217.238 44.152 217.296 44.3013 217.307 44.5146C217.318 44.7173 217.27 44.8826 217.163 45.0106C217.056 45.128 216.891 45.1973 216.667 45.2186L216.379 45.2346C215.675 45.3093 215.131 45.5386 214.747 45.9226C214.374 46.3066 214.187 46.8346 214.187 47.5066V51.2506C214.187 51.496 214.123 51.6826 213.995 51.8106C213.878 51.9386 213.702 52.0026 213.467 52.0026ZM225.963 52.0346C225.333 52.0346 224.805 51.9226 224.379 51.6986C223.963 51.4746 223.648 51.1493 223.435 50.7226C223.232 50.296 223.131 49.7733 223.131 49.1546V45.2186H222.107C221.915 45.2186 221.765 45.1706 221.659 45.0746C221.552 44.968 221.498 44.8293 221.498 44.6586C221.498 44.4773 221.552 44.3386 221.659 44.2426C221.765 44.1466 221.915 44.0986 222.107 44.0986H223.131V42.3546C223.131 42.1093 223.195 41.928 223.323 41.8106C223.451 41.6826 223.632 41.6186 223.867 41.6186C224.101 41.6186 224.277 41.6826 224.395 41.8106C224.523 41.928 224.587 42.1093 224.587 42.3546V44.0986H226.523C226.725 44.0986 226.88 44.1466 226.987 44.2426C227.093 44.3386 227.147 44.4773 227.147 44.6586C227.147 44.8293 227.093 44.968 226.987 45.0746C226.88 45.1706 226.725 45.2186 226.523 45.2186H224.587V49.0266C224.587 49.6133 224.709 50.056 224.955 50.3546C225.2 50.6533 225.605 50.8026 226.171 50.8026C226.373 50.8026 226.544 50.7866 226.683 50.7546C226.821 50.712 226.944 50.6906 227.051 50.6906C227.147 50.68 227.227 50.712 227.291 50.7866C227.365 50.8613 227.403 51 227.403 51.2026C227.403 51.352 227.376 51.4906 227.323 51.6186C227.28 51.736 227.189 51.816 227.051 51.8586C226.923 51.9013 226.752 51.9386 226.539 51.9706C226.325 52.0133 226.133 52.0346 225.963 52.0346ZM231.987 52.0346C231.144 52.0346 230.419 51.8746 229.811 51.5546C229.213 51.224 228.749 50.76 228.419 50.1626C228.088 49.5546 227.923 48.84 227.923 48.0186C227.923 47.208 228.083 46.4986 228.403 45.8906C228.733 45.2826 229.181 44.808 229.747 44.4666C230.323 44.1253 230.979 43.9546 231.715 43.9546C232.237 43.9546 232.707 44.0453 233.123 44.2266C233.549 44.3973 233.912 44.648 234.211 44.9786C234.509 45.3093 234.733 45.7146 234.883 46.1946C235.043 46.664 235.123 47.1973 235.123 47.7946C235.123 47.9653 235.069 48.0986 234.963 48.1946C234.867 48.28 234.723 48.3226 234.531 48.3226H229.059V47.3946H234.163L233.891 47.6186C233.891 47.064 233.805 46.5946 233.635 46.2106C233.475 45.816 233.235 45.5173 232.915 45.3146C232.605 45.112 232.216 45.0106 231.747 45.0106C231.235 45.0106 230.797 45.1333 230.435 45.3786C230.072 45.6133 229.795 45.9493 229.603 46.3866C229.411 46.8133 229.315 47.3093 229.315 47.8746V47.9706C229.315 48.9306 229.544 49.656 230.003 50.1466C230.461 50.6373 231.123 50.8826 231.987 50.8826C232.328 50.8826 232.675 50.84 233.027 50.7546C233.389 50.6693 233.736 50.5146 234.067 50.2906C234.227 50.1946 234.371 50.152 234.499 50.1626C234.637 50.1626 234.749 50.2053 234.835 50.2906C234.92 50.3653 234.973 50.4613 234.995 50.5786C235.016 50.6853 235 50.8026 234.947 50.9306C234.893 51.0586 234.792 51.1706 234.643 51.2666C234.291 51.512 233.869 51.704 233.379 51.8426C232.899 51.9706 232.435 52.0346 231.987 52.0346ZM240.534 52.0346C239.691 52.0346 238.966 51.8746 238.358 51.5546C237.76 51.224 237.296 50.76 236.966 50.1626C236.635 49.5546 236.47 48.84 236.47 48.0186C236.47 47.208 236.63 46.4986 236.95 45.8906C237.28 45.2826 237.728 44.808 238.294 44.4666C238.87 44.1253 239.526 43.9546 240.262 43.9546C240.784 43.9546 241.254 44.0453 241.67 44.2266C242.096 44.3973 242.459 44.648 242.758 44.9786C243.056 45.3093 243.28 45.7146 243.43 46.1946C243.59 46.664 243.67 47.1973 243.67 47.7946C243.67 47.9653 243.616 48.0986 243.51 48.1946C243.414 48.28 243.27 48.3226 243.078 48.3226H237.606V47.3946H242.71L242.438 47.6186C242.438 47.064 242.352 46.5946 242.182 46.2106C242.022 45.816 241.782 45.5173 241.462 45.3146C241.152 45.112 240.763 45.0106 240.294 45.0106C239.782 45.0106 239.344 45.1333 238.982 45.3786C238.619 45.6133 238.342 45.9493 238.15 46.3866C237.958 46.8133 237.862 47.3093 237.862 47.8746V47.9706C237.862 48.9306 238.091 49.656 238.55 50.1466C239.008 50.6373 239.67 50.8826 240.534 50.8826C240.875 50.8826 241.222 50.84 241.574 50.7546C241.936 50.6693 242.283 50.5146 242.614 50.2906C242.774 50.1946 242.918 50.152 243.046 50.1626C243.184 50.1626 243.296 50.2053 243.382 50.2906C243.467 50.3653 243.52 50.4613 243.542 50.5786C243.563 50.6853 243.547 50.8026 243.494 50.9306C243.44 51.0586 243.339 51.1706 243.19 51.2666C242.838 51.512 242.416 51.704 241.926 51.8426C241.446 51.9706 240.982 52.0346 240.534 52.0346ZM248.697 52.0346C248.068 52.0346 247.54 51.9226 247.113 51.6986C246.697 51.4746 246.382 51.1493 246.169 50.7226C245.966 50.296 245.865 49.7733 245.865 49.1546V45.2186H244.841C244.649 45.2186 244.5 45.1706 244.393 45.0746C244.286 44.968 244.233 44.8293 244.233 44.6586C244.233 44.4773 244.286 44.3386 244.393 44.2426C244.5 44.1466 244.649 44.0986 244.841 44.0986H245.865V42.3546C245.865 42.1093 245.929 41.928 246.057 41.8106C246.185 41.6826 246.366 41.6186 246.601 41.6186C246.836 41.6186 247.012 41.6826 247.129 41.8106C247.257 41.928 247.321 42.1093 247.321 42.3546V44.0986H249.257C249.46 44.0986 249.614 44.1466 249.721 44.2426C249.828 44.3386 249.881 44.4773 249.881 44.6586C249.881 44.8293 249.828 44.968 249.721 45.0746C249.614 45.1706 249.46 45.2186 249.257 45.2186H247.321V49.0266C247.321 49.6133 247.444 50.056 247.689 50.3546C247.934 50.6533 248.34 50.8026 248.905 50.8026C249.108 50.8026 249.278 50.7866 249.417 50.7546C249.556 50.712 249.678 50.6906 249.785 50.6906C249.881 50.68 249.961 50.712 250.025 50.7866C250.1 50.8613 250.137 51 250.137 51.2026C250.137 51.352 250.11 51.4906 250.057 51.6186C250.014 51.736 249.924 51.816 249.785 51.8586C249.657 51.9013 249.486 51.9386 249.273 51.9706C249.06 52.0133 248.868 52.0346 248.697 52.0346ZM252.044 52.0026C251.82 52.0026 251.644 51.9386 251.516 51.8106C251.388 51.6826 251.324 51.496 251.324 51.2506V41.2346C251.324 40.9893 251.388 40.808 251.516 40.6906C251.644 40.5626 251.82 40.4986 252.044 40.4986C252.279 40.4986 252.46 40.5626 252.588 40.6906C252.716 40.808 252.78 40.9893 252.78 41.2346V45.7946H252.572C252.796 45.1866 253.159 44.728 253.66 44.4186C254.172 44.1093 254.754 43.9546 255.404 43.9546C256.034 43.9546 256.551 44.072 256.956 44.3066C257.362 44.5306 257.666 44.872 257.868 45.3306C258.071 45.7893 258.172 46.3653 258.172 47.0586V51.2506C258.172 51.496 258.108 51.6826 257.98 51.8106C257.863 51.9386 257.687 52.0026 257.452 52.0026C257.218 52.0026 257.036 51.9386 256.908 51.8106C256.78 51.6826 256.716 51.496 256.716 51.2506V47.1386C256.716 46.4453 256.583 45.9386 256.316 45.6186C256.05 45.2986 255.623 45.1386 255.036 45.1386C254.354 45.1386 253.804 45.352 253.388 45.7786C252.983 46.1946 252.78 46.76 252.78 47.4746V51.2506C252.78 51.752 252.535 52.0026 252.044 52.0026Z" fill="#030903"/>
<path d="M16 1.28125H64C72.5604 1.28125 79.5 8.22084 79.5 16.7812V76.5637C79.5 85.1241 72.5604 92.0637 64 92.0637H16C7.43959 92.0637 0.5 85.1241 0.5 76.5637V16.7812C0.5 8.22084 7.43959 1.28125 16 1.28125Z" fill="white" stroke="#9DA0A2"/>
<mask id="mask3_3451_178686" style="mask-type:alpha" maskUnits="userSpaceOnUse" x="0" y="0" width="80" height="93">
<path d="M16 1.28125H64C72.5604 1.28125 79.5 8.22084 79.5 16.7812V76.5637C79.5 85.1241 72.5604 92.0637 64 92.0637H16C7.43959 92.0637 0.5 85.1241 0.5 76.5637V16.7812C0.5 8.22084 7.43959 1.28125 16 1.28125Z" fill="white" stroke="#9DA0A2"/>
</mask>
<g mask="url(#mask3_3451_178686)">
<mask id="mask4_3451_178686" style="mask-type:alpha" maskUnits="userSpaceOnUse" x="0" y="1" width="80" height="93">
<path d="M16 2.28125H64C72.5604 2.28125 79.5 9.22084 79.5 17.7812V77.5637C79.5 86.1241 72.5604 93.0637 64 93.0637H16C7.43959 93.0637 0.5 86.1241 0.5 77.5637V17.7812C0.5 9.22084 7.43959 2.28125 16 2.28125Z" fill="white" stroke="#9DA0A2"/>
</mask>
<g mask="url(#mask4_3451_178686)">
<path d="M39.2001 16.953C43.7089 16.953 47.364 13.8295 47.364 9.97652C47.364 6.12349 43.7089 3 39.2001 3C34.6912 3 31.0361 6.12349 31.0361 9.97652C31.0361 13.8295 34.6912 16.953 39.2001 16.953Z" fill="#1E160B"/>
<path d="M70.6577 69.0761C70.7262 68.9156 73.9813 61.8706 73.8654 59.8619C73.8101 58.9194 73.5309 58.2402 73.3308 57.7558C71.5189 53.3619 66.6048 53.7805 63.7105 50.3843C61.4694 47.7543 61.6616 43.9791 62.1067 36.4313C62.3753 31.8874 63.2444 29.5548 62.1067 25.6375C62.1067 25.6375 61.2403 22.652 59.1677 19.8456C54.6591 13.7431 46.7269 11.7976 42.5976 11.1711V10.7656H38.3207V10.8973C34.668 11.3343 25.6219 13.0297 20.6814 19.7166C18.6088 22.523 17.7424 25.5085 17.7424 25.5085C16.6047 29.4258 17.4738 31.7584 17.7424 36.3023C18.1875 43.8501 18.3823 47.6253 16.1386 50.2553C13.2443 53.6515 8.3302 53.2329 6.51833 57.6268C6.31818 58.1112 6.03902 58.7904 5.98372 59.7329C5.86784 61.7416 9.13341 68.7839 9.19135 68.9471C11.4641 75.3971 -2.722 75.5972 -5 76.3186V92.934L39.9246 92.641L39.9219 92.1144H39.9246C39.9219 92.5409 39.9219 92.77 39.9219 92.77L85 92.9944V76.466C82.7246 75.7447 67.853 75.6604 70.6577 69.0761Z" fill="#1E160B"/>
<path d="M0.118652 92.8867C1.05092 90.3356 12.4703 74.2118 25.9012 66.8404C29.3722 65.5688 42.4371 59.2188 54.6066 66.8404C75.2271 79.7561 79.5155 93.1743 79.4551 92.9933" fill="#FD4C54"/>
<path d="M45.9159 60.7866L54.6065 66.8417C48.8128 77.8988 34.3284 81.3213 25.9011 66.8417L34.3284 61.0499C34.3284 61.0499 34.3284 51.4855 34.3284 46.5703H45.9159C45.9159 51.396 45.9159 60.7866 45.9159 60.7866Z" fill="#F5B7A3"/>
<path d="M45.8209 52.1992C45.8025 52.2071 45.784 52.2176 45.7629 52.2255V52.2282C45.784 52.2176 45.8025 52.2097 45.8209 52.1992Z" fill="#1E160B"/>
<path d="M46.4424 51.8366C46.1791 49.7305 40.2642 54.5587 40.2642 54.5587C42.2051 54.385 44.0933 54.1112 45.9157 53.4162C45.9157 53.2477 46.7058 53.9427 46.4424 51.8366Z" fill="#1E160B"/>
<path d="M45.9656 17.0922C44.2643 16.1392 42.5815 15.6074 41.0883 15.3125H38.3679C36.8747 15.61 35.1919 16.1418 33.4906 17.0922C31.713 18.0873 22.6036 25.8326 24.0442 36.9028C24.7025 41.9628 27.257 45.33 28.7977 47.3624C28.7977 47.3624 32.9402 52.8251 39.6662 55.0892C39.6952 55.0997 39.7268 55.0997 39.7268 55.0997C39.7268 55.0997 39.7557 55.0997 39.7873 55.0892C46.2816 52.9015 50.3925 47.6256 50.3925 47.6256C52.0727 45.4695 54.7273 42.0602 55.4094 36.9028C56.8763 25.8299 47.7274 18.0794 45.9656 17.0922Z" fill="#F5B7A3"/>
<path d="M39.356 47.4685C37.8716 47.4685 36.6837 46.3573 36.2358 45.8711C37.3747 46.0609 38.5264 46.159 39.6631 46.159C40.6121 46.159 41.574 46.0908 42.5252 45.9585C42.056 46.4235 40.8339 47.4685 39.356 47.4685Z" fill="white"/>
<path d="M36.5387 46.0244C37.5794 46.1823 38.6287 46.2633 39.6652 46.2633C40.5097 46.2633 41.3628 46.21 42.2116 46.1055C41.6465 46.6067 40.5908 47.3595 39.356 47.3595C38.1126 47.3574 37.0804 46.5512 36.5387 46.0244ZM35.9607 45.7109C35.9607 45.7109 37.3917 47.5707 39.356 47.5707C41.3223 47.5707 42.8152 45.8026 42.8152 45.8026C41.7638 45.9647 40.7145 46.0479 39.6631 46.0479C38.4304 46.0479 37.1955 45.937 35.9607 45.7109Z" fill="black"/>
<path d="M39.4626 47.4687C37.6029 47.4687 36.1249 46.1699 35.5981 45.6367C37.0079 45.8564 38.4325 45.9673 39.8401 45.9673C41.0173 45.9673 42.2116 45.8884 43.391 45.7348C42.8344 46.2467 41.3117 47.4687 39.4626 47.4687Z" fill="white"/>
<path d="M35.9138 45.7897C37.2211 45.9774 38.537 46.0734 39.8401 46.0734C40.9086 46.0734 41.9877 46.0094 43.0583 45.8835C42.378 46.4508 41.0408 47.3615 39.4626 47.3615C37.8738 47.3615 36.5643 46.3847 35.9138 45.7897ZM35.3081 45.4805C35.3081 45.4805 37.0591 47.5748 39.4626 47.5748C41.8683 47.5748 43.696 45.585 43.696 45.585C42.41 45.7684 41.1261 45.8601 39.8401 45.8601C38.328 45.8601 36.8181 45.7321 35.3081 45.4805Z" fill="black"/>
<path d="M32.5577 35.5328C33.418 35.5328 34.1154 34.6029 34.1154 33.4558C34.1154 32.3088 33.418 31.3789 32.5577 31.3789C31.6974 31.3789 31 32.3088 31 33.4558C31 34.6029 31.6974 35.5328 32.5577 35.5328Z" fill="#1E160B"/>
<path d="M46.4036 35.5328C47.2639 35.5328 47.9613 34.6029 47.9613 33.4558C47.9613 32.3088 47.2639 31.3789 46.4036 31.3789C45.5433 31.3789 44.8459 32.3088 44.8459 33.4558C44.8459 34.6029 45.5433 35.5328 46.4036 35.5328Z" fill="#1E160B"/>
<path d="M39.2052 31.3789C39.609 36.1196 36.9719 39.9003 36.699 40.1318C36.699 40.1318 38.5564 42.1704 38.6483 42.1083C38.7374 42.049 37.5344 40.1318 37.5344 40.1318C37.5344 40.1318 40.3191 35.3318 39.2052 31.3789Z" fill="#1E160B"/>
<path d="M30.3076 29.3035C30.8076 28.8276 31.5507 28.2829 32.5175 28.1567C33.5203 28.0248 34.349 28.3975 34.4512 28.1567C34.5341 27.9618 34.1004 27.4658 33.6225 27.2966C32.1943 26.7892 30.385 29.2003 30.3076 29.3035Z" fill="#1E160B"/>
<path d="M48.9998 29.3035C48.4998 28.8276 47.7567 28.2829 46.7899 28.1567C45.7871 28.0248 44.9584 28.3975 44.8562 28.1567C44.7733 27.9618 45.207 27.4658 45.6849 27.2966C47.1131 26.7892 48.9224 29.2003 48.9998 29.3035Z" fill="#1E160B"/>
<path d="M55.5277 36.9615C58.9802 29.3269 47.0688 10.0322 41.0854 13.7942C32.6818 7.42323 15.5745 29.9719 23.9781 36.3429C23.9781 36.3429 27.7967 29.2216 31.2966 25.1146C34.6386 21.1946 38.0411 18.375 40.7773 16.4269C43.5715 18.7436 47.0293 22.095 50.258 26.6942C52.644 30.0903 54.3452 34.221 55.5277 36.9615Z" fill="#1E160B"/>
<path d="M40.2532 16.4274C39.6422 21.5874 37.6196 25.1151 37.6196 25.1151C37.6196 25.1151 40.2005 23.5461 41.0432 20.9029C42.015 17.8622 40.8299 14.8241 40.5165 14.8478C40.3743 14.8583 40.3611 15.5165 40.2532 16.4274Z" fill="#1E160B"/>
<path d="M25.1105 36.3038C23.9149 36.0984 22.6429 36.7487 21.9503 37.6201C20.4676 39.4866 21.3182 42.7643 23.267 44.465C24.7839 45.7866 27.4201 46.5527 28.5341 45.518C30.3723 43.8094 28.4156 36.8698 25.1105 36.3038Z" fill="#F5B7A3"/>
<path d="M57.4579 37.6201C56.7653 36.7487 55.4933 36.0984 54.2977 36.3038C50.9926 36.8698 49.036 43.8094 50.8742 45.518C51.9881 46.5527 54.6243 45.7866 56.1412 44.465C58.09 42.7643 58.9406 39.4866 57.4579 37.6201Z" fill="#F5B7A3"/>
<path d="M23.5304 41.3047C23.5304 41.3047 23.9228 41.1573 24.1887 41.1731C24.5021 41.1915 24.6759 41.2468 24.8392 41.4864C25.2316 42.063 25.5397 42.7132 25.8795 43.324C26.6195 44.6508 27.3595 45.9803 28.0995 47.3072C28.2233 47.5283 28.5657 47.3309 28.4419 47.1071C27.4964 45.4117 26.551 43.7136 25.6056 42.0182C25.2975 41.468 24.9498 40.6887 24.2519 40.565C23.741 40.4755 23.3987 40.6466 23.3987 40.6466C23.3987 40.6466 22.872 41.1731 23.5304 41.3047Z" fill="#1E160B"/>
<path d="M51.114 46.8454C52.0594 45.15 53.0049 43.4519 53.9503 41.7565C54.2584 41.2063 54.6061 40.427 55.304 40.3033C55.8096 40.2137 56.1546 40.3849 56.1546 40.3849C56.1546 40.3849 56.6813 40.9114 56.0229 41.043C56.0229 41.043 55.6305 40.8956 55.3645 40.9114C55.0511 40.9298 54.8773 40.9851 54.7141 41.2247C54.3217 41.8012 54.0135 42.4515 53.6738 43.0623C52.9338 44.3891 52.1938 45.7186 51.4537 47.0455" fill="#1E160B"/>
</g>
<path d="M16 1.28125H64C72.5604 1.28125 79.5 8.22084 79.5 16.7812V76.5637C79.5 85.1241 72.5604 92.0637 64 92.0637H16C7.43959 92.0637 0.5 85.1241 0.5 76.5637V16.7812C0.5 8.22084 7.43959 1.28125 16 1.28125Z" stroke="#9DA0A2"/>
</g>
</svg>
