<svg width="263" height="357" viewBox="0 0 263 357" fill="none" xmlns="http://www.w3.org/2000/svg">
<path d="M228 187.5C211.5 211.5 252.5 286.5 154 250C71.168 219.306 28.6667 242.166 64 271.5" stroke="#00B64C" stroke-width="4" stroke-dasharray="8 8"/>
<path d="M70.9999 82C53.1666 110.333 69.5 148.5 143.5 118.5C236 81 260 89.5 243 138.5" stroke="#00B64C" stroke-width="4" stroke-dasharray="8 8"/>
<path d="M41 265.281H89C97.5604 265.281 104.5 272.221 104.5 280.781V340.564C104.5 349.124 97.5604 356.064 89 356.064H41C32.4396 356.064 25.5 349.124 25.5 340.564V280.781C25.5 272.221 32.4396 265.281 41 265.281Z" fill="white" stroke="#9DA0A2"/>
<mask id="mask0_3921_233173" style="mask-type:alpha" maskUnits="userSpaceOnUse" x="25" y="264" width="80" height="93">
<path d="M41 265.281H89C97.5604 265.281 104.5 272.221 104.5 280.781V340.564C104.5 349.124 97.5604 356.064 89 356.064H41C32.4396 356.064 25.5 349.124 25.5 340.564V280.781C25.5 272.221 32.4396 265.281 41 265.281Z" fill="white" stroke="#9DA0A2"/>
</mask>
<g mask="url(#mask0_3921_233173)">
<mask id="mask1_3921_233173" style="mask-type:alpha" maskUnits="userSpaceOnUse" x="25" y="265" width="80" height="93">
<path d="M41 266.281H89C97.5604 266.281 104.5 273.221 104.5 281.781V341.564C104.5 350.124 97.5604 357.064 89 357.064H41C32.4396 357.064 25.5 350.124 25.5 341.564V281.781C25.5 273.221 32.4396 266.281 41 266.281Z" fill="white" stroke="#9DA0A2"/>
</mask>
<g mask="url(#mask1_3921_233173)">
<path d="M64.2001 280.953C68.7089 280.953 72.364 277.83 72.364 273.977C72.364 270.123 68.7089 267 64.2001 267C59.6912 267 56.0361 270.123 56.0361 273.977C56.0361 277.83 59.6912 280.953 64.2001 280.953Z" fill="#1E160B"/>
<path d="M95.6577 333.076C95.7262 332.916 98.9813 325.871 98.8654 323.862C98.8101 322.919 98.5309 322.24 98.3308 321.756C96.5189 317.362 91.6048 317.78 88.7105 314.384C86.4694 311.754 86.6616 307.979 87.1067 300.431C87.3753 295.887 88.2444 293.555 87.1067 289.637C87.1067 289.637 86.2403 286.652 84.1677 283.846C79.6591 277.743 71.7269 275.798 67.5976 275.171V274.766H63.3207V274.897C59.668 275.334 50.6219 277.03 45.6814 283.717C43.6088 286.523 42.7424 289.508 42.7424 289.508C41.6047 293.426 42.4738 295.758 42.7424 300.302C43.1875 307.85 43.3823 311.625 41.1386 314.255C38.2443 317.651 33.3302 317.233 31.5183 321.627C31.3182 322.111 31.039 322.79 30.9837 323.733C30.8678 325.742 34.1334 332.784 34.1913 332.947C36.4641 339.397 22.278 339.597 20 340.319V356.934L64.9246 356.641L64.9219 356.114H64.9246C64.9219 356.541 64.9219 356.77 64.9219 356.77L110 356.994V340.466C107.725 339.745 92.853 339.66 95.6577 333.076Z" fill="#1E160B"/>
<path d="M25.1187 356.887C26.0509 354.336 37.4703 338.212 50.9012 330.84C54.3722 329.569 67.4371 323.219 79.6066 330.84C100.227 343.756 104.515 357.174 104.455 356.993" fill="#FD4C54"/>
<path d="M70.9159 324.787L79.6065 330.842C73.8128 341.899 59.3284 345.321 50.9011 330.842L59.3284 325.05C59.3284 325.05 59.3284 315.485 59.3284 310.57H70.9159C70.9159 315.396 70.9159 324.787 70.9159 324.787Z" fill="#F5B7A3"/>
<path d="M70.8209 316.199C70.8025 316.207 70.784 316.218 70.7629 316.226V316.228C70.784 316.218 70.8025 316.21 70.8209 316.199Z" fill="#1E160B"/>
<path d="M71.4424 315.837C71.1791 313.73 65.2642 318.559 65.2642 318.559C67.2051 318.385 69.0933 318.111 70.9157 317.416C70.9157 317.248 71.7058 317.943 71.4424 315.837Z" fill="#1E160B"/>
<path d="M70.9656 281.092C69.2643 280.139 67.5815 279.607 66.0883 279.312H63.3679C61.8747 279.61 60.1919 280.142 58.4906 281.092C56.713 282.087 47.6036 289.833 49.0442 300.903C49.7025 305.963 52.257 309.33 53.7977 311.362C53.7977 311.362 57.9402 316.825 64.6662 319.089C64.6952 319.1 64.7268 319.1 64.7268 319.1C64.7268 319.1 64.7557 319.1 64.7873 319.089C71.2816 316.901 75.3925 311.626 75.3925 311.626C77.0727 309.469 79.7273 306.06 80.4094 300.903C81.8763 289.83 72.7274 282.079 70.9656 281.092Z" fill="#F5B7A3"/>
<path d="M64.356 311.468C62.8716 311.468 61.6837 310.357 61.2358 309.871C62.3747 310.061 63.5264 310.159 64.6631 310.159C65.6121 310.159 66.574 310.091 67.5252 309.959C67.056 310.423 65.8339 311.468 64.356 311.468Z" fill="white"/>
<path d="M61.5387 310.024C62.5794 310.182 63.6287 310.263 64.6652 310.263C65.5097 310.263 66.3628 310.21 67.2116 310.105C66.6465 310.607 65.5908 311.36 64.356 311.36C63.1126 311.357 62.0804 310.551 61.5387 310.024ZM60.9607 309.711C60.9607 309.711 62.3917 311.571 64.356 311.571C66.3223 311.571 67.8152 309.803 67.8152 309.803C66.7638 309.965 65.7145 310.048 64.6631 310.048C63.4304 310.048 62.1955 309.937 60.9607 309.711Z" fill="black"/>
<path d="M64.4626 311.469C62.6029 311.469 61.1249 310.17 60.5981 309.637C62.0079 309.856 63.4325 309.967 64.8401 309.967C66.0173 309.967 67.2116 309.888 68.391 309.735C67.8344 310.247 66.3117 311.469 64.4626 311.469Z" fill="white"/>
<path d="M60.9138 309.79C62.2211 309.977 63.537 310.073 64.8401 310.073C65.9086 310.073 66.9877 310.009 68.0583 309.884C67.378 310.451 66.0408 311.362 64.4626 311.362C62.8738 311.362 61.5643 310.385 60.9138 309.79ZM60.3081 309.48C60.3081 309.48 62.0591 311.575 64.4626 311.575C66.8683 311.575 68.696 309.585 68.696 309.585C67.41 309.768 66.1261 309.86 64.8401 309.86C63.328 309.86 61.8181 309.732 60.3081 309.48Z" fill="black"/>
<path d="M57.5577 299.533C58.418 299.533 59.1154 298.603 59.1154 297.456C59.1154 296.309 58.418 295.379 57.5577 295.379C56.6974 295.379 56 296.309 56 297.456C56 298.603 56.6974 299.533 57.5577 299.533Z" fill="#1E160B"/>
<path d="M71.4036 299.533C72.2639 299.533 72.9613 298.603 72.9613 297.456C72.9613 296.309 72.2639 295.379 71.4036 295.379C70.5433 295.379 69.8459 296.309 69.8459 297.456C69.8459 298.603 70.5433 299.533 71.4036 299.533Z" fill="#1E160B"/>
<path d="M64.2052 295.379C64.609 300.12 61.9719 303.9 61.699 304.132C61.699 304.132 63.5564 306.17 63.6483 306.108C63.7374 306.049 62.5344 304.132 62.5344 304.132C62.5344 304.132 65.3191 299.332 64.2052 295.379Z" fill="#1E160B"/>
<path d="M55.3076 293.303C55.8076 292.828 56.5507 292.283 57.5175 292.157C58.5203 292.025 59.349 292.398 59.4512 292.157C59.5341 291.962 59.1004 291.466 58.6225 291.297C57.1943 290.789 55.385 293.2 55.3076 293.303Z" fill="#1E160B"/>
<path d="M73.9998 293.303C73.4998 292.828 72.7567 292.283 71.7899 292.157C70.7871 292.025 69.9584 292.398 69.8562 292.157C69.7733 291.962 70.207 291.466 70.6849 291.297C72.1131 290.789 73.9224 293.2 73.9998 293.303Z" fill="#1E160B"/>
<path d="M80.5277 300.962C83.9802 293.327 72.0688 274.032 66.0854 277.794C57.6818 271.423 40.5745 293.972 48.9781 300.343C48.9781 300.343 52.7967 293.222 56.2966 289.115C59.6386 285.195 63.0411 282.375 65.7773 280.427C68.5715 282.744 72.0293 286.095 75.258 290.694C77.644 294.09 79.3452 298.221 80.5277 300.962Z" fill="#1E160B"/>
<path d="M65.2532 280.427C64.6422 285.587 62.6196 289.115 62.6196 289.115C62.6196 289.115 65.2005 287.546 66.0432 284.903C67.015 281.862 65.8299 278.824 65.5165 278.848C65.3743 278.858 65.3611 279.516 65.2532 280.427Z" fill="#1E160B"/>
<path d="M50.1105 300.304C48.9149 300.098 47.6429 300.749 46.9503 301.62C45.4676 303.487 46.3182 306.764 48.267 308.465C49.7839 309.787 52.4201 310.553 53.5341 309.518C55.3723 307.809 53.4156 300.87 50.1105 300.304Z" fill="#F5B7A3"/>
<path d="M82.4579 301.62C81.7653 300.749 80.4933 300.098 79.2977 300.304C75.9926 300.87 74.036 307.809 75.8742 309.518C76.9881 310.553 79.6243 309.787 81.1412 308.465C83.09 306.764 83.9406 303.487 82.4579 301.62Z" fill="#F5B7A3"/>
<path d="M48.5304 305.305C48.5304 305.305 48.9228 305.157 49.1887 305.173C49.5021 305.192 49.6759 305.247 49.8392 305.486C50.2316 306.063 50.5397 306.713 50.8795 307.324C51.6195 308.651 52.3595 309.98 53.0995 311.307C53.2233 311.528 53.5657 311.331 53.4419 311.107C52.4964 309.412 51.551 307.714 50.6056 306.018C50.2975 305.468 49.9498 304.689 49.2519 304.565C48.741 304.475 48.3987 304.647 48.3987 304.647C48.3987 304.647 47.872 305.173 48.5304 305.305Z" fill="#1E160B"/>
<path d="M76.114 310.845C77.0594 309.15 78.0049 307.452 78.9503 305.756C79.2584 305.206 79.6061 304.427 80.304 304.303C80.8096 304.214 81.1546 304.385 81.1546 304.385C81.1546 304.385 81.6813 304.911 81.0229 305.043C81.0229 305.043 80.6305 304.896 80.3645 304.911C80.0511 304.93 79.8773 304.985 79.7141 305.225C79.3217 305.801 79.0135 306.451 78.6738 307.062C77.9338 308.389 77.1938 309.719 76.4537 311.045" fill="#1E160B"/>
</g>
<path d="M41 265.281H89C97.5604 265.281 104.5 272.221 104.5 280.781V340.564C104.5 349.124 97.5604 356.064 89 356.064H41C32.4396 356.064 25.5 349.124 25.5 340.564V280.781C25.5 272.221 32.4396 265.281 41 265.281Z" stroke="#9DA0A2"/>
</g>
<path d="M41 265.281H89C97.5604 265.281 104.5 272.221 104.5 280.781V340.564C104.5 349.124 97.5604 356.064 89 356.064H41C32.4396 356.064 25.5 349.124 25.5 340.564V280.781C25.5 272.221 32.4396 265.281 41 265.281Z" fill="white" stroke="#9DA0A2"/>
<path d="M41 265.281H89C97.5604 265.281 104.5 272.221 104.5 280.781V340.564C104.5 349.124 97.5604 356.064 89 356.064H41C32.4396 356.064 25.5 349.124 25.5 340.564V280.781C25.5 272.221 32.4396 265.281 41 265.281Z" fill="white" stroke="#9DA0A2"/>
<mask id="mask2_3921_233173" style="mask-type:alpha" maskUnits="userSpaceOnUse" x="25" y="264" width="80" height="93">
<path d="M41 265.281H89C97.5604 265.281 104.5 272.221 104.5 280.781V340.564C104.5 349.124 97.5604 356.064 89 356.064H41C32.4396 356.064 25.5 349.124 25.5 340.564V280.781C25.5 272.221 32.4396 265.281 41 265.281Z" fill="white" stroke="#9DA0A2"/>
</mask>
<g mask="url(#mask2_3921_233173)">
<path d="M64.2003 280.976C68.7091 280.976 72.3642 277.853 72.3642 274C72.3642 270.147 68.7091 267.023 64.2003 267.023C59.6915 267.023 56.0364 270.147 56.0364 274C56.0364 277.853 59.6915 280.976 64.2003 280.976Z" fill="#1E160B"/>
<path d="M95.658 333.1C95.7265 332.939 98.9815 325.894 98.8656 323.885C98.8103 322.943 98.5312 322.264 98.331 321.779C96.5192 317.385 91.605 317.804 88.7108 314.408C86.4696 311.778 86.6619 308.003 87.1069 300.455C87.3756 295.911 88.2446 293.578 87.1069 289.661C87.1069 289.661 86.2405 286.675 84.1679 283.869C79.6593 277.767 71.7272 275.821 67.5978 275.194V274.789H63.321V274.921C59.6683 275.358 50.6221 277.053 45.6817 283.74C43.6091 286.546 42.7426 289.532 42.7426 289.532C41.605 293.449 42.474 295.782 42.7426 300.326C43.1877 307.874 43.3826 311.649 41.1388 314.279C38.2446 317.675 33.3304 317.256 31.5186 321.65C31.3184 322.135 31.0393 322.814 30.984 323.756C30.8681 325.765 34.1337 332.807 34.1916 332.971C36.4643 339.421 22.2782 339.621 20.0002 340.342V356.957L64.9248 356.664L64.9222 356.138H64.9248C64.9222 356.564 64.9222 356.793 64.9222 356.793L110 357.018V340.489C107.725 339.768 92.8533 339.684 95.658 333.1Z" fill="#1E160B"/>
<path d="M25.1187 356.914C26.0509 354.363 37.4703 338.239 50.9012 330.868C54.3722 329.596 67.4371 323.246 79.6066 330.868C100.227 343.783 104.515 357.202 104.455 357.021" fill="#FD4C54"/>
<path d="M70.9159 324.814L79.6065 330.869C73.8128 341.926 59.3284 345.349 50.9011 330.869L59.3284 325.077C59.3284 325.077 59.3284 315.513 59.3284 310.598H70.9159C70.9159 315.423 70.9159 324.814 70.9159 324.814Z" fill="#F5B7A3"/>
<path d="M70.8211 316.227C70.8027 316.234 70.7843 316.245 70.7632 316.253V316.256C70.7843 316.245 70.8027 316.237 70.8211 316.227Z" fill="#1E160B"/>
<path d="M71.4424 315.864C71.1791 313.758 65.2642 318.586 65.2642 318.586C67.2051 318.412 69.0933 318.139 70.9157 317.444C70.9157 317.275 71.7058 317.97 71.4424 315.864Z" fill="#1E160B"/>
<path d="M70.9658 281.116C69.2646 280.163 67.5818 279.631 66.0885 279.336H63.3681C61.8749 279.633 60.1921 280.165 58.4908 281.116C56.7132 282.111 47.6039 289.856 49.0444 300.926C49.7028 305.986 52.2573 309.353 53.7979 311.386C53.7979 311.386 57.9404 316.849 64.6665 319.113C64.6954 319.123 64.727 319.123 64.727 319.123C64.727 319.123 64.756 319.123 64.7876 319.113C71.2819 316.925 75.3928 311.649 75.3928 311.649C77.073 309.493 79.7276 306.084 80.4097 300.926C81.8765 289.853 72.7277 282.103 70.9658 281.116Z" fill="#F5B7A3"/>
<path d="M62.4409 310.663C63.4476 309.825 64.8231 309.669 66.7063 310.45V310.663C65.0002 310.236 63.7056 310.181 62.4409 310.663Z" fill="#1E160B"/>
<path d="M57.5577 299.556C58.418 299.556 59.1154 298.626 59.1154 297.479C59.1154 296.332 58.418 295.402 57.5577 295.402C56.6974 295.402 56 296.332 56 297.479C56 298.626 56.6974 299.556 57.5577 299.556Z" fill="#1E160B"/>
<path d="M71.4039 299.556C72.2642 299.556 72.9616 298.626 72.9616 297.479C72.9616 296.332 72.2642 295.402 71.4039 295.402C70.5436 295.402 69.8462 296.332 69.8462 297.479C69.8462 298.626 70.5436 299.556 71.4039 299.556Z" fill="#1E160B"/>
<path d="M64.4188 295.402C64.8226 300.143 62.1855 303.924 61.9126 304.155C61.9126 304.155 63.77 306.194 63.8619 306.132C63.951 306.072 62.748 304.155 62.748 304.155C62.748 304.155 65.5327 299.355 64.4188 295.402Z" fill="#1E160B"/>
<path d="M55.3079 293.327C55.8079 292.851 56.5509 292.306 57.5178 292.18C58.5205 292.048 59.3493 292.421 59.4515 292.18C59.5344 291.985 59.1007 291.489 58.6228 291.32C57.1946 290.813 55.3852 293.224 55.3079 293.327Z" fill="#1E160B"/>
<path d="M74 293.327C73.5 292.851 72.757 292.306 71.7901 292.18C70.7874 292.048 69.9586 292.421 69.8564 292.18C69.7735 291.985 70.2072 291.489 70.6851 291.32C72.1133 290.813 73.9227 293.224 74 293.327Z" fill="#1E160B"/>
<path d="M80.5279 300.985C83.9805 293.35 72.069 274.056 66.0857 277.818C57.6821 271.447 40.5747 293.995 48.9783 300.366C48.9783 300.366 52.7969 293.245 56.2969 289.138C59.6388 285.218 63.0413 282.398 65.7775 280.45C68.5717 282.767 72.0295 286.118 75.2582 290.718C77.6442 294.114 79.3455 298.244 80.5279 300.985Z" fill="#1E160B"/>
<path d="M65.2534 280.451C64.6424 285.611 62.6199 289.139 62.6199 289.139C62.6199 289.139 65.2007 287.57 66.0435 284.926C67.0152 281.886 65.8301 278.848 65.5167 278.871C65.3745 278.882 65.3614 279.54 65.2534 280.451Z" fill="#1E160B"/>
<path d="M50.1105 300.327C48.9149 300.122 47.6429 300.772 46.9503 301.644C45.4676 303.51 46.3182 306.788 48.267 308.488C49.7839 309.81 52.4201 310.576 53.5341 309.541C55.3723 307.833 53.4156 300.893 50.1105 300.327Z" fill="#F5B7A3"/>
<path d="M82.4579 301.644C81.7653 300.772 80.4933 300.122 79.2977 300.327C75.9926 300.893 74.036 307.833 75.8742 309.541C76.9881 310.576 79.6243 309.81 81.1412 308.488C83.09 306.788 83.9406 303.51 82.4579 301.644Z" fill="#F5B7A3"/>
<path d="M48.5306 305.328C48.5306 305.328 48.923 305.181 49.189 305.197C49.5024 305.215 49.6762 305.27 49.8395 305.51C50.2318 306.086 50.54 306.737 50.8797 307.347C51.6197 308.674 52.3597 310.004 53.0998 311.331C53.2235 311.552 53.5659 311.354 53.4421 311.131C52.4967 309.435 51.5513 307.737 50.6058 306.042C50.2977 305.491 49.9501 304.712 49.2522 304.588C48.7413 304.499 48.3989 304.67 48.3989 304.67C48.3989 304.67 47.8722 305.197 48.5306 305.328Z" fill="#1E160B"/>
<path d="M76.1143 310.869C77.0597 309.173 78.0051 307.475 78.9506 305.78C79.2587 305.23 79.6063 304.45 80.3042 304.327C80.8098 304.237 81.1548 304.408 81.1548 304.408C81.1548 304.408 81.6815 304.935 81.0231 305.066C81.0231 305.066 80.6308 304.919 80.3648 304.935C80.0514 304.953 79.8776 305.009 79.7143 305.248C79.3219 305.825 79.0138 306.475 78.674 307.086C77.934 308.413 77.194 309.742 76.454 311.069" fill="#1E160B"/>
<path d="M41 265.281H89C97.5604 265.281 104.5 272.221 104.5 280.781V340.564C104.5 349.124 97.5604 356.064 89 356.064H41C32.4396 356.064 25.5 349.124 25.5 340.564V280.781C25.5 272.221 32.4396 265.281 41 265.281Z" stroke="#9DA0A2"/>
</g>
<path d="M134.056 315.601C133.555 315.601 133.069 315.558 132.6 315.473C132.131 315.398 131.688 315.281 131.272 315.121C130.856 314.961 130.483 314.764 130.152 314.529C130.013 314.433 129.912 314.316 129.848 314.177C129.795 314.038 129.779 313.905 129.8 313.777C129.832 313.638 129.891 313.521 129.976 313.425C130.072 313.329 130.184 313.27 130.312 313.249C130.44 313.228 130.579 313.27 130.728 313.377C131.219 313.708 131.731 313.948 132.264 314.097C132.808 314.246 133.405 314.321 134.056 314.321C134.995 314.321 135.683 314.15 136.12 313.809C136.568 313.468 136.792 313.02 136.792 312.465C136.792 312.006 136.632 311.649 136.312 311.393C135.992 311.126 135.453 310.918 134.696 310.769L133 310.417C131.997 310.204 131.245 309.852 130.744 309.361C130.253 308.87 130.008 308.214 130.008 307.393C130.008 306.892 130.109 306.438 130.312 306.033C130.515 305.617 130.803 305.26 131.176 304.961C131.549 304.662 131.987 304.433 132.488 304.273C133 304.113 133.565 304.033 134.184 304.033C134.845 304.033 135.464 304.124 136.04 304.305C136.627 304.486 137.155 304.753 137.624 305.105C137.752 305.201 137.837 305.318 137.88 305.457C137.923 305.585 137.928 305.713 137.896 305.841C137.875 305.969 137.816 306.076 137.72 306.161C137.635 306.246 137.523 306.294 137.384 306.305C137.256 306.316 137.112 306.268 136.952 306.161C136.525 305.862 136.088 305.649 135.64 305.521C135.192 305.382 134.701 305.313 134.168 305.313C133.624 305.313 133.149 305.398 132.744 305.569C132.349 305.74 132.04 305.98 131.816 306.289C131.603 306.588 131.496 306.94 131.496 307.345C131.496 307.836 131.645 308.22 131.944 308.497C132.243 308.774 132.744 308.988 133.448 309.137L135.128 309.473C136.195 309.697 136.984 310.044 137.496 310.513C138.019 310.972 138.28 311.59 138.28 312.369C138.28 312.86 138.179 313.302 137.976 313.697C137.784 314.092 137.507 314.433 137.144 314.721C136.781 314.998 136.339 315.217 135.816 315.377C135.293 315.526 134.707 315.601 134.056 315.601ZM143.244 315.601C142.614 315.601 142.086 315.489 141.66 315.265C141.244 315.041 140.929 314.716 140.716 314.289C140.513 313.862 140.412 313.34 140.412 312.721V308.785H139.388C139.196 308.785 139.046 308.737 138.94 308.641C138.833 308.534 138.78 308.396 138.78 308.225C138.78 308.044 138.833 307.905 138.94 307.809C139.046 307.713 139.196 307.665 139.388 307.665H140.412V305.921C140.412 305.676 140.476 305.494 140.604 305.377C140.732 305.249 140.913 305.185 141.148 305.185C141.382 305.185 141.558 305.249 141.676 305.377C141.804 305.494 141.868 305.676 141.868 305.921V307.665H143.804C144.006 307.665 144.161 307.713 144.268 307.809C144.374 307.905 144.428 308.044 144.428 308.225C144.428 308.396 144.374 308.534 144.268 308.641C144.161 308.737 144.006 308.785 143.804 308.785H141.868V312.593C141.868 313.18 141.99 313.622 142.236 313.921C142.481 314.22 142.886 314.369 143.452 314.369C143.654 314.369 143.825 314.353 143.964 314.321C144.102 314.278 144.225 314.257 144.332 314.257C144.428 314.246 144.508 314.278 144.572 314.353C144.646 314.428 144.684 314.566 144.684 314.769C144.684 314.918 144.657 315.057 144.604 315.185C144.561 315.302 144.47 315.382 144.332 315.425C144.204 315.468 144.033 315.505 143.82 315.537C143.606 315.58 143.414 315.601 143.244 315.601ZM146.498 315.569C146.253 315.569 146.066 315.505 145.938 315.377C145.81 315.249 145.746 315.062 145.746 314.817V308.289C145.746 308.044 145.81 307.862 145.938 307.745C146.066 307.617 146.242 307.553 146.466 307.553C146.69 307.553 146.861 307.617 146.978 307.745C147.106 307.862 147.17 308.044 147.17 308.289V309.521H147.01C147.181 308.881 147.501 308.396 147.97 308.065C148.439 307.734 149.031 307.548 149.746 307.505C149.917 307.494 150.055 307.537 150.162 307.633C150.269 307.718 150.327 307.868 150.338 308.081C150.349 308.284 150.301 308.449 150.194 308.577C150.087 308.694 149.922 308.764 149.698 308.785L149.41 308.801C148.706 308.876 148.162 309.105 147.778 309.489C147.405 309.873 147.218 310.401 147.218 311.073V314.817C147.218 315.062 147.154 315.249 147.026 315.377C146.909 315.505 146.733 315.569 146.498 315.569ZM154.457 315.601C153.774 315.601 153.171 315.441 152.649 315.121C152.137 314.79 151.737 314.321 151.449 313.713C151.161 313.094 151.017 312.374 151.017 311.553C151.017 310.721 151.155 310.006 151.433 309.409C151.721 308.801 152.121 308.337 152.633 308.017C153.155 307.686 153.763 307.521 154.457 307.521C155.15 307.521 155.747 307.697 156.249 308.049C156.75 308.39 157.086 308.849 157.257 309.425L157.081 309.665V308.289C157.081 308.044 157.145 307.862 157.273 307.745C157.401 307.617 157.577 307.553 157.801 307.553C158.035 307.553 158.217 307.617 158.345 307.745C158.473 307.862 158.536 308.044 158.536 308.289V314.817C158.536 315.062 158.473 315.249 158.345 315.377C158.217 315.505 158.035 315.569 157.801 315.569C157.577 315.569 157.401 315.505 157.273 315.377C157.145 315.249 157.081 315.062 157.081 314.817V313.457L157.257 313.649C157.097 314.246 156.761 314.721 156.249 315.073C155.747 315.425 155.15 315.601 154.457 315.601ZM154.793 314.449C155.262 314.449 155.667 314.337 156.009 314.113C156.361 313.889 156.627 313.564 156.809 313.137C157.001 312.71 157.097 312.182 157.097 311.553C157.097 310.614 156.889 309.9 156.473 309.409C156.057 308.918 155.497 308.673 154.793 308.673C154.334 308.673 153.929 308.785 153.577 309.009C153.235 309.222 152.969 309.542 152.777 309.969C152.585 310.396 152.489 310.924 152.489 311.553C152.489 312.492 152.697 313.212 153.113 313.713C153.539 314.204 154.099 314.449 154.793 314.449ZM161.591 315.537C161.367 315.537 161.191 315.468 161.063 315.329C160.935 315.19 160.871 314.998 160.871 314.753V308.369C160.871 308.113 160.935 307.921 161.063 307.793C161.191 307.654 161.367 307.585 161.591 307.585C161.826 307.585 162.007 307.654 162.135 307.793C162.263 307.921 162.327 308.113 162.327 308.369V314.753C162.327 314.998 162.263 315.19 162.135 315.329C162.018 315.468 161.836 315.537 161.591 315.537ZM161.591 305.857C161.303 305.857 161.074 305.782 160.903 305.633C160.743 305.473 160.663 305.265 160.663 305.009C160.663 304.732 160.743 304.524 160.903 304.385C161.074 304.236 161.303 304.161 161.591 304.161C161.9 304.161 162.13 304.236 162.279 304.385C162.439 304.524 162.519 304.732 162.519 305.009C162.519 305.265 162.439 305.473 162.279 305.633C162.13 305.782 161.9 305.857 161.591 305.857ZM168.172 318.481C167.596 318.481 167.036 318.417 166.492 318.289C165.959 318.161 165.473 317.964 165.036 317.697C164.897 317.612 164.801 317.51 164.748 317.393C164.705 317.286 164.695 317.174 164.716 317.057C164.748 316.94 164.801 316.833 164.876 316.737C164.961 316.652 165.057 316.593 165.164 316.561C165.281 316.54 165.399 316.566 165.516 316.641C165.985 316.908 166.433 317.089 166.86 317.185C167.287 317.281 167.692 317.329 168.076 317.329C168.833 317.329 169.399 317.132 169.772 316.737C170.156 316.353 170.348 315.788 170.348 315.041V313.313H170.492C170.343 313.91 170.007 314.385 169.484 314.737C168.972 315.089 168.375 315.265 167.692 315.265C166.988 315.265 166.375 315.105 165.852 314.785C165.329 314.454 164.924 314.001 164.636 313.425C164.348 312.838 164.204 312.161 164.204 311.393C164.204 310.806 164.284 310.278 164.444 309.809C164.615 309.329 164.849 308.924 165.148 308.593C165.457 308.252 165.825 307.99 166.252 307.809C166.679 307.617 167.159 307.521 167.692 307.521C168.385 307.521 168.988 307.697 169.5 308.049C170.012 308.401 170.343 308.876 170.492 309.473L170.316 309.697V308.289C170.316 308.044 170.38 307.862 170.508 307.745C170.636 307.617 170.817 307.553 171.052 307.553C171.276 307.553 171.452 307.617 171.58 307.745C171.708 307.862 171.772 308.044 171.772 308.289V314.849C171.772 316.054 171.463 316.961 170.844 317.569C170.236 318.177 169.345 318.481 168.172 318.481ZM168.012 314.113C168.492 314.113 168.903 314.006 169.244 313.793C169.596 313.569 169.863 313.254 170.044 312.849C170.236 312.433 170.332 311.948 170.332 311.393C170.332 310.55 170.124 309.889 169.708 309.409C169.292 308.918 168.727 308.673 168.012 308.673C167.532 308.673 167.116 308.785 166.764 309.009C166.423 309.222 166.156 309.532 165.964 309.937C165.772 310.342 165.676 310.828 165.676 311.393C165.676 312.225 165.884 312.886 166.3 313.377C166.727 313.868 167.297 314.113 168.012 314.113ZM174.826 315.569C174.602 315.569 174.426 315.505 174.298 315.377C174.17 315.249 174.106 315.062 174.106 314.817V304.801C174.106 304.556 174.17 304.374 174.298 304.257C174.426 304.129 174.602 304.065 174.826 304.065C175.06 304.065 175.242 304.129 175.37 304.257C175.498 304.374 175.562 304.556 175.562 304.801V309.361H175.354C175.578 308.753 175.94 308.294 176.442 307.985C176.954 307.676 177.535 307.521 178.186 307.521C178.815 307.521 179.332 307.638 179.738 307.873C180.143 308.097 180.447 308.438 180.65 308.897C180.852 309.356 180.954 309.932 180.954 310.625V314.817C180.954 315.062 180.89 315.249 180.762 315.377C180.644 315.505 180.468 315.569 180.234 315.569C179.999 315.569 179.818 315.505 179.69 315.377C179.562 315.249 179.498 315.062 179.498 314.817V310.705C179.498 310.012 179.364 309.505 179.098 309.185C178.831 308.865 178.404 308.705 177.818 308.705C177.135 308.705 176.586 308.918 176.17 309.345C175.764 309.761 175.562 310.326 175.562 311.041V314.817C175.562 315.318 175.316 315.569 174.826 315.569ZM186.494 315.601C185.864 315.601 185.336 315.489 184.91 315.265C184.494 315.041 184.179 314.716 183.966 314.289C183.763 313.862 183.662 313.34 183.662 312.721V308.785H182.638C182.446 308.785 182.296 308.737 182.19 308.641C182.083 308.534 182.03 308.396 182.03 308.225C182.03 308.044 182.083 307.905 182.19 307.809C182.296 307.713 182.446 307.665 182.638 307.665H183.662V305.921C183.662 305.676 183.726 305.494 183.854 305.377C183.982 305.249 184.163 305.185 184.398 305.185C184.632 305.185 184.808 305.249 184.926 305.377C185.054 305.494 185.118 305.676 185.118 305.921V307.665H187.054C187.256 307.665 187.411 307.713 187.518 307.809C187.624 307.905 187.678 308.044 187.678 308.225C187.678 308.396 187.624 308.534 187.518 308.641C187.411 308.737 187.256 308.785 187.054 308.785H185.118V312.593C185.118 313.18 185.24 313.622 185.486 313.921C185.731 314.22 186.136 314.369 186.702 314.369C186.904 314.369 187.075 314.353 187.214 314.321C187.352 314.278 187.475 314.257 187.582 314.257C187.678 314.246 187.758 314.278 187.822 314.353C187.896 314.428 187.934 314.566 187.934 314.769C187.934 314.918 187.907 315.057 187.854 315.185C187.811 315.302 187.72 315.382 187.582 315.425C187.454 315.468 187.283 315.505 187.07 315.537C186.856 315.58 186.664 315.601 186.494 315.601ZM194.144 315.569C193.899 315.569 193.707 315.5 193.568 315.361C193.429 315.222 193.36 315.025 193.36 314.769V304.977C193.36 304.721 193.429 304.524 193.568 304.385C193.707 304.246 193.904 304.177 194.16 304.177H199.904C200.117 304.177 200.277 304.23 200.384 304.337C200.491 304.433 200.544 304.577 200.544 304.769C200.544 304.972 200.491 305.126 200.384 305.233C200.277 305.34 200.117 305.393 199.904 305.393H194.848V309.169H199.584C199.787 309.169 199.941 309.222 200.048 309.329C200.155 309.436 200.208 309.58 200.208 309.761C200.208 309.964 200.155 310.118 200.048 310.225C199.941 310.332 199.787 310.385 199.584 310.385H194.848V314.769C194.848 315.302 194.613 315.569 194.144 315.569ZM204.66 315.601C203.977 315.601 203.374 315.441 202.852 315.121C202.34 314.79 201.94 314.321 201.652 313.713C201.364 313.094 201.22 312.374 201.22 311.553C201.22 310.721 201.358 310.006 201.636 309.409C201.924 308.801 202.324 308.337 202.836 308.017C203.358 307.686 203.966 307.521 204.66 307.521C205.353 307.521 205.95 307.697 206.452 308.049C206.953 308.39 207.289 308.849 207.46 309.425L207.284 309.665V308.289C207.284 308.044 207.348 307.862 207.476 307.745C207.604 307.617 207.78 307.553 208.004 307.553C208.238 307.553 208.42 307.617 208.548 307.745C208.676 307.862 208.74 308.044 208.74 308.289V314.817C208.74 315.062 208.676 315.249 208.548 315.377C208.42 315.505 208.238 315.569 208.004 315.569C207.78 315.569 207.604 315.505 207.476 315.377C207.348 315.249 207.284 315.062 207.284 314.817V313.457L207.46 313.649C207.3 314.246 206.964 314.721 206.452 315.073C205.95 315.425 205.353 315.601 204.66 315.601ZM204.996 314.449C205.465 314.449 205.87 314.337 206.212 314.113C206.564 313.889 206.83 313.564 207.012 313.137C207.204 312.71 207.3 312.182 207.3 311.553C207.3 310.614 207.092 309.9 206.676 309.409C206.26 308.918 205.7 308.673 204.996 308.673C204.537 308.673 204.132 308.785 203.78 309.009C203.438 309.222 203.172 309.542 202.98 309.969C202.788 310.396 202.692 310.924 202.692 311.553C202.692 312.492 202.9 313.212 203.316 313.713C203.742 314.204 204.302 314.449 204.996 314.449ZM214.45 315.601C213.661 315.601 212.978 315.436 212.402 315.105C211.826 314.764 211.384 314.289 211.074 313.681C210.765 313.062 210.61 312.337 210.61 311.505C210.61 310.886 210.696 310.332 210.866 309.841C211.048 309.35 211.304 308.934 211.634 308.593C211.965 308.241 212.365 307.974 212.834 307.793C213.314 307.612 213.853 307.521 214.45 307.521C214.824 307.521 215.218 307.58 215.634 307.697C216.05 307.814 216.434 308.006 216.786 308.273C216.904 308.358 216.978 308.46 217.01 308.577C217.042 308.684 217.042 308.796 217.01 308.913C216.989 309.03 216.936 309.132 216.85 309.217C216.776 309.292 216.674 309.334 216.546 309.345C216.429 309.356 216.301 309.318 216.162 309.233C215.906 309.041 215.634 308.902 215.346 308.817C215.069 308.732 214.802 308.689 214.546 308.689C214.152 308.689 213.8 308.753 213.49 308.881C213.192 309.009 212.936 309.196 212.722 309.441C212.52 309.676 212.365 309.969 212.258 310.321C212.152 310.662 212.098 311.062 212.098 311.521C212.098 312.428 212.312 313.142 212.738 313.665C213.165 314.177 213.768 314.433 214.546 314.433C214.802 314.433 215.069 314.396 215.346 314.321C215.624 314.236 215.896 314.097 216.162 313.905C216.301 313.82 216.429 313.788 216.546 313.809C216.664 313.82 216.76 313.868 216.834 313.953C216.92 314.028 216.973 314.124 216.994 314.241C217.016 314.348 217.005 314.46 216.962 314.577C216.93 314.694 216.856 314.79 216.738 314.865C216.397 315.121 216.024 315.308 215.618 315.425C215.213 315.542 214.824 315.601 214.45 315.601ZM221.956 315.601C221.113 315.601 220.388 315.441 219.78 315.121C219.182 314.79 218.718 314.326 218.388 313.729C218.057 313.121 217.892 312.406 217.892 311.585C217.892 310.774 218.052 310.065 218.372 309.457C218.702 308.849 219.15 308.374 219.716 308.033C220.292 307.692 220.948 307.521 221.684 307.521C222.206 307.521 222.676 307.612 223.092 307.793C223.518 307.964 223.881 308.214 224.18 308.545C224.478 308.876 224.702 309.281 224.852 309.761C225.012 310.23 225.092 310.764 225.092 311.361C225.092 311.532 225.038 311.665 224.932 311.761C224.836 311.846 224.692 311.889 224.5 311.889H219.028V310.961H224.132L223.86 311.185C223.86 310.63 223.774 310.161 223.604 309.777C223.444 309.382 223.204 309.084 222.884 308.881C222.574 308.678 222.185 308.577 221.716 308.577C221.204 308.577 220.766 308.7 220.404 308.945C220.041 309.18 219.764 309.516 219.572 309.953C219.38 310.38 219.284 310.876 219.284 311.441V311.537C219.284 312.497 219.513 313.222 219.972 313.713C220.43 314.204 221.092 314.449 221.956 314.449C222.297 314.449 222.644 314.406 222.996 314.321C223.358 314.236 223.705 314.081 224.036 313.857C224.196 313.761 224.34 313.718 224.468 313.729C224.606 313.729 224.718 313.772 224.804 313.857C224.889 313.932 224.942 314.028 224.964 314.145C224.985 314.252 224.969 314.369 224.916 314.497C224.862 314.625 224.761 314.737 224.612 314.833C224.26 315.078 223.838 315.27 223.348 315.409C222.868 315.537 222.404 315.601 221.956 315.601Z" fill="#030903"/>
<path d="M5.056 185.144C4.55467 185.144 4.06933 185.101 3.6 185.016C3.13067 184.941 2.688 184.824 2.272 184.664C1.856 184.504 1.48267 184.307 1.152 184.072C1.01333 183.976 0.912 183.859 0.848 183.72C0.794667 183.581 0.778667 183.448 0.8 183.32C0.832 183.181 0.890667 183.064 0.976 182.968C1.072 182.872 1.184 182.813 1.312 182.792C1.44 182.771 1.57867 182.813 1.728 182.92C2.21867 183.251 2.73067 183.491 3.264 183.64C3.808 183.789 4.40533 183.864 5.056 183.864C5.99467 183.864 6.68267 183.693 7.12 183.352C7.568 183.011 7.792 182.563 7.792 182.008C7.792 181.549 7.632 181.192 7.312 180.936C6.992 180.669 6.45333 180.461 5.696 180.312L4 179.96C2.99733 179.747 2.24533 179.395 1.744 178.904C1.25333 178.413 1.008 177.757 1.008 176.936C1.008 176.435 1.10933 175.981 1.312 175.576C1.51467 175.16 1.80267 174.803 2.176 174.504C2.54933 174.205 2.98667 173.976 3.488 173.816C4 173.656 4.56533 173.576 5.184 173.576C5.84533 173.576 6.464 173.667 7.04 173.848C7.62667 174.029 8.15467 174.296 8.624 174.648C8.752 174.744 8.83733 174.861 8.88 175C8.92267 175.128 8.928 175.256 8.896 175.384C8.87467 175.512 8.816 175.619 8.72 175.704C8.63467 175.789 8.52267 175.837 8.384 175.848C8.256 175.859 8.112 175.811 7.952 175.704C7.52533 175.405 7.088 175.192 6.64 175.064C6.192 174.925 5.70133 174.856 5.168 174.856C4.624 174.856 4.14933 174.941 3.744 175.112C3.34933 175.283 3.04 175.523 2.816 175.832C2.60267 176.131 2.496 176.483 2.496 176.888C2.496 177.379 2.64533 177.763 2.944 178.04C3.24267 178.317 3.744 178.531 4.448 178.68L6.128 179.016C7.19467 179.24 7.984 179.587 8.496 180.056C9.01867 180.515 9.28 181.133 9.28 181.912C9.28 182.403 9.17867 182.845 8.976 183.24C8.784 183.635 8.50667 183.976 8.144 184.264C7.78133 184.541 7.33867 184.76 6.816 184.92C6.29333 185.069 5.70667 185.144 5.056 185.144ZM11.8106 185.112C11.5866 185.112 11.4106 185.048 11.2826 184.92C11.1546 184.792 11.0906 184.605 11.0906 184.36V177.832C11.0906 177.587 11.1546 177.405 11.2826 177.288C11.4106 177.16 11.5866 177.096 11.8106 177.096C12.0346 177.096 12.2053 177.16 12.3226 177.288C12.4506 177.405 12.5146 177.587 12.5146 177.832V179.192L12.3386 178.904C12.5413 178.317 12.8666 177.864 13.3146 177.544C13.7733 177.224 14.3173 177.064 14.9466 177.064C15.608 177.064 16.1413 177.224 16.5466 177.544C16.952 177.853 17.224 178.328 17.3626 178.968H17.1386C17.3306 178.381 17.672 177.917 18.1626 177.576C18.664 177.235 19.2453 177.064 19.9066 177.064C20.4933 177.064 20.9733 177.181 21.3466 177.416C21.7306 177.64 22.0186 177.981 22.2106 178.44C22.4026 178.888 22.4986 179.464 22.4986 180.168V184.36C22.4986 184.605 22.4346 184.792 22.3066 184.92C22.1786 185.048 22.0026 185.112 21.7786 185.112C21.544 185.112 21.3626 185.048 21.2346 184.92C21.1066 184.792 21.0426 184.605 21.0426 184.36V180.232C21.0426 179.549 20.9253 179.048 20.6906 178.728C20.456 178.408 20.0613 178.248 19.5066 178.248C18.8986 178.248 18.4133 178.461 18.0506 178.888C17.6986 179.304 17.5226 179.88 17.5226 180.616V184.36C17.5226 184.605 17.4586 184.792 17.3306 184.92C17.2133 185.048 17.0373 185.112 16.8026 185.112C16.568 185.112 16.3866 185.048 16.2586 184.92C16.1306 184.792 16.0666 184.605 16.0666 184.36V180.232C16.0666 179.549 15.9493 179.048 15.7146 178.728C15.48 178.408 15.0853 178.248 14.5306 178.248C13.9226 178.248 13.4373 178.461 13.0746 178.888C12.7226 179.304 12.5466 179.88 12.5466 180.616V184.36C12.5466 184.861 12.3013 185.112 11.8106 185.112ZM25.5599 185.08C25.3359 185.08 25.1599 185.011 25.0319 184.872C24.9039 184.733 24.8399 184.541 24.8399 184.296V177.912C24.8399 177.656 24.9039 177.464 25.0319 177.336C25.1599 177.197 25.3359 177.128 25.5599 177.128C25.7945 177.128 25.9759 177.197 26.1039 177.336C26.2319 177.464 26.2959 177.656 26.2959 177.912V184.296C26.2959 184.541 26.2319 184.733 26.1039 184.872C25.9865 185.011 25.8052 185.08 25.5599 185.08ZM25.5599 175.4C25.2719 175.4 25.0425 175.325 24.8719 175.176C24.7119 175.016 24.6319 174.808 24.6319 174.552C24.6319 174.275 24.7119 174.067 24.8719 173.928C25.0425 173.779 25.2719 173.704 25.5599 173.704C25.8692 173.704 26.0985 173.779 26.2479 173.928C26.4079 174.067 26.4879 174.275 26.4879 174.552C26.4879 174.808 26.4079 175.016 26.2479 175.176C26.0985 175.325 25.8692 175.4 25.5599 175.4ZM31.0848 185.144C30.2848 185.144 29.6768 184.909 29.2608 184.44C28.8448 183.96 28.6368 183.272 28.6368 182.376V174.344C28.6368 174.099 28.7008 173.917 28.8288 173.8C28.9568 173.672 29.1328 173.608 29.3568 173.608C29.5914 173.608 29.7728 173.672 29.9008 173.8C30.0288 173.917 30.0928 174.099 30.0928 174.344V182.264C30.0928 182.819 30.2048 183.235 30.4288 183.512C30.6634 183.779 30.9941 183.912 31.4208 183.912C31.5168 183.912 31.6021 183.912 31.6768 183.912C31.7514 183.901 31.8261 183.891 31.9008 183.88C32.0181 183.869 32.1034 183.901 32.1568 183.976C32.2101 184.051 32.2368 184.2 32.2368 184.424C32.2368 184.627 32.1888 184.787 32.0928 184.904C32.0074 185.011 31.8634 185.08 31.6608 185.112C31.5648 185.123 31.4688 185.128 31.3728 185.128C31.2768 185.139 31.1808 185.144 31.0848 185.144ZM36.9711 185.144C36.1285 185.144 35.4031 184.984 34.7951 184.664C34.1978 184.333 33.7338 183.869 33.4031 183.272C33.0725 182.664 32.9071 181.949 32.9071 181.128C32.9071 180.317 33.0671 179.608 33.3871 179C33.7178 178.392 34.1658 177.917 34.7311 177.576C35.3071 177.235 35.9631 177.064 36.6991 177.064C37.2218 177.064 37.6911 177.155 38.1071 177.336C38.5338 177.507 38.8965 177.757 39.1951 178.088C39.4938 178.419 39.7178 178.824 39.8671 179.304C40.0271 179.773 40.1071 180.307 40.1071 180.904C40.1071 181.075 40.0538 181.208 39.9471 181.304C39.8511 181.389 39.7071 181.432 39.5151 181.432H34.0431V180.504H39.1471L38.8751 180.728C38.8751 180.173 38.7898 179.704 38.6191 179.32C38.4591 178.925 38.2191 178.627 37.8991 178.424C37.5898 178.221 37.2005 178.12 36.7311 178.12C36.2191 178.12 35.7818 178.243 35.4191 178.488C35.0565 178.723 34.7791 179.059 34.5871 179.496C34.3951 179.923 34.2991 180.419 34.2991 180.984V181.08C34.2991 182.04 34.5285 182.765 34.9871 183.256C35.4458 183.747 36.1071 183.992 36.9711 183.992C37.3125 183.992 37.6591 183.949 38.0111 183.864C38.3738 183.779 38.7205 183.624 39.0511 183.4C39.2111 183.304 39.3551 183.261 39.4831 183.272C39.6218 183.272 39.7338 183.315 39.8191 183.4C39.9045 183.475 39.9578 183.571 39.9791 183.688C40.0005 183.795 39.9845 183.912 39.9311 184.04C39.8778 184.168 39.7765 184.28 39.6271 184.376C39.2751 184.621 38.8538 184.813 38.3631 184.952C37.8831 185.08 37.4191 185.144 36.9711 185.144ZM48.8579 185.112C48.6552 185.112 48.4792 185.064 48.3299 184.968C48.1805 184.861 48.0632 184.691 47.9779 184.456L45.5939 178.104C45.5192 177.901 45.4979 177.725 45.5299 177.576C45.5619 177.427 45.6365 177.309 45.7539 177.224C45.8712 177.139 46.0259 177.096 46.2179 177.096C46.3992 177.096 46.5432 177.139 46.6499 177.224C46.7565 177.309 46.8472 177.464 46.9219 177.688L49.0979 183.832H48.7139L50.9539 177.656C51.0285 177.464 51.1245 177.325 51.2419 177.24C51.3699 177.144 51.5245 177.096 51.7059 177.096C51.8979 177.096 52.0579 177.144 52.1859 177.24C52.3139 177.325 52.4045 177.464 52.4579 177.656L54.6659 183.832H54.2979L56.5059 177.656C56.5805 177.443 56.6765 177.299 56.7939 177.224C56.9112 177.139 57.0552 177.096 57.2259 177.096C57.4179 177.096 57.5619 177.144 57.6579 177.24C57.7539 177.336 57.8072 177.464 57.8179 177.624C57.8392 177.773 57.8179 177.933 57.7539 178.104L55.3699 184.456C55.2952 184.68 55.1779 184.845 55.0179 184.952C54.8685 185.059 54.6925 185.112 54.4899 185.112C54.2872 185.112 54.1059 185.059 53.9459 184.952C53.7965 184.845 53.6792 184.68 53.5939 184.456L51.3059 178.184H52.0419L49.7539 184.456C49.6685 184.68 49.5512 184.845 49.4019 184.952C49.2525 185.059 49.0712 185.112 48.8579 185.112ZM60.3099 185.08C60.0859 185.08 59.9099 185.011 59.7819 184.872C59.6539 184.733 59.5899 184.541 59.5899 184.296V177.912C59.5899 177.656 59.6539 177.464 59.7819 177.336C59.9099 177.197 60.0859 177.128 60.3099 177.128C60.5445 177.128 60.7259 177.197 60.8539 177.336C60.9819 177.464 61.0459 177.656 61.0459 177.912V184.296C61.0459 184.541 60.9819 184.733 60.8539 184.872C60.7365 185.011 60.5552 185.08 60.3099 185.08ZM60.3099 175.4C60.0219 175.4 59.7925 175.325 59.6219 175.176C59.4619 175.016 59.3819 174.808 59.3819 174.552C59.3819 174.275 59.4619 174.067 59.6219 173.928C59.7925 173.779 60.0219 173.704 60.3099 173.704C60.6192 173.704 60.8485 173.779 60.9979 173.928C61.1579 174.067 61.2379 174.275 61.2379 174.552C61.2379 174.808 61.1579 175.016 60.9979 175.176C60.8485 175.325 60.6192 175.4 60.3099 175.4ZM66.6188 185.144C65.9894 185.144 65.4614 185.032 65.0348 184.808C64.6188 184.584 64.3041 184.259 64.0908 183.832C63.8881 183.405 63.7868 182.883 63.7868 182.264V178.328H62.7628C62.5708 178.328 62.4214 178.28 62.3148 178.184C62.2081 178.077 62.1547 177.939 62.1547 177.768C62.1547 177.587 62.2081 177.448 62.3148 177.352C62.4214 177.256 62.5708 177.208 62.7628 177.208H63.7868V175.464C63.7868 175.219 63.8508 175.037 63.9788 174.92C64.1068 174.792 64.2881 174.728 64.5228 174.728C64.7574 174.728 64.9334 174.792 65.0508 174.92C65.1788 175.037 65.2428 175.219 65.2428 175.464V177.208H67.1788C67.3814 177.208 67.5361 177.256 67.6428 177.352C67.7494 177.448 67.8028 177.587 67.8028 177.768C67.8028 177.939 67.7494 178.077 67.6428 178.184C67.5361 178.28 67.3814 178.328 67.1788 178.328H65.2428V182.136C65.2428 182.723 65.3654 183.165 65.6108 183.464C65.8561 183.763 66.2614 183.912 66.8268 183.912C67.0294 183.912 67.2001 183.896 67.3388 183.864C67.4774 183.821 67.6001 183.8 67.7068 183.8C67.8028 183.789 67.8828 183.821 67.9468 183.896C68.0214 183.971 68.0588 184.109 68.0588 184.312C68.0588 184.461 68.0321 184.6 67.9788 184.728C67.9361 184.845 67.8454 184.925 67.7068 184.968C67.5788 185.011 67.4081 185.048 67.1948 185.08C66.9814 185.123 66.7894 185.144 66.6188 185.144ZM69.9661 185.112C69.7421 185.112 69.5661 185.048 69.4381 184.92C69.3101 184.792 69.2461 184.605 69.2461 184.36V174.344C69.2461 174.099 69.3101 173.917 69.4381 173.8C69.5661 173.672 69.7421 173.608 69.9661 173.608C70.2008 173.608 70.3821 173.672 70.5101 173.8C70.6381 173.917 70.7021 174.099 70.7021 174.344V178.904H70.4941C70.7181 178.296 71.0808 177.837 71.5821 177.528C72.0941 177.219 72.6755 177.064 73.3261 177.064C73.9555 177.064 74.4728 177.181 74.8781 177.416C75.2835 177.64 75.5875 177.981 75.7901 178.44C75.9928 178.899 76.0941 179.475 76.0941 180.168V184.36C76.0941 184.605 76.0301 184.792 75.9021 184.92C75.7848 185.048 75.6088 185.112 75.3741 185.112C75.1395 185.112 74.9581 185.048 74.8301 184.92C74.7021 184.792 74.6381 184.605 74.6381 184.36V180.248C74.6381 179.555 74.5048 179.048 74.2381 178.728C73.9715 178.408 73.5448 178.248 72.9581 178.248C72.2755 178.248 71.7261 178.461 71.3101 178.888C70.9048 179.304 70.7021 179.869 70.7021 180.584V184.36C70.7021 184.861 70.4568 185.112 69.9661 185.112ZM84.3663 187.992C84.1956 187.992 84.0516 187.944 83.9343 187.848C83.8276 187.763 83.7636 187.64 83.7423 187.48C83.7316 187.331 83.7636 187.171 83.8383 187L84.9263 184.536V185.144L81.9023 178.104C81.8276 177.923 81.8009 177.757 81.8223 177.608C81.8436 177.459 81.9129 177.336 82.0303 177.24C82.1583 177.144 82.3289 177.096 82.5423 177.096C82.7236 177.096 82.8676 177.139 82.9743 177.224C83.0809 177.309 83.1823 177.459 83.2783 177.672L85.7903 183.864H85.3423L87.9023 177.672C87.9876 177.459 88.0889 177.309 88.2063 177.224C88.3236 177.139 88.4836 177.096 88.6863 177.096C88.8676 177.096 89.0063 177.144 89.1023 177.24C89.2089 177.336 89.2729 177.459 89.2943 177.608C89.3156 177.757 89.2836 177.917 89.1983 178.088L85.1663 187.416C85.0596 187.64 84.9476 187.789 84.8303 187.864C84.7236 187.949 84.5689 187.992 84.3663 187.992ZM94.0269 185.144C93.2589 185.144 92.5922 184.979 92.0269 184.648C91.4615 184.317 91.0242 183.848 90.7149 183.24C90.4055 182.632 90.2509 181.917 90.2509 181.096C90.2509 180.477 90.3362 179.923 90.5069 179.432C90.6882 178.931 90.9442 178.504 91.2749 178.152C91.6055 177.8 92.0002 177.533 92.4589 177.352C92.9282 177.16 93.4509 177.064 94.0269 177.064C94.7949 177.064 95.4615 177.229 96.0269 177.56C96.5922 177.891 97.0295 178.36 97.3389 178.968C97.6482 179.565 97.8029 180.275 97.8029 181.096C97.8029 181.715 97.7122 182.275 97.5309 182.776C97.3602 183.277 97.1095 183.704 96.7789 184.056C96.4482 184.408 96.0482 184.68 95.5789 184.872C95.1202 185.053 94.6029 185.144 94.0269 185.144ZM94.0269 183.992C94.4962 183.992 94.9015 183.88 95.2429 183.656C95.5949 183.432 95.8615 183.107 96.0429 182.68C96.2349 182.253 96.3309 181.725 96.3309 181.096C96.3309 180.157 96.1229 179.443 95.7069 178.952C95.2909 178.461 94.7309 178.216 94.0269 178.216C93.5682 178.216 93.1629 178.328 92.8109 178.552C92.4695 178.765 92.2029 179.085 92.0109 179.512C91.8189 179.939 91.7229 180.467 91.7229 181.096C91.7229 182.035 91.9309 182.755 92.3469 183.256C92.7735 183.747 93.3335 183.992 94.0269 183.992ZM102.452 185.144C101.823 185.144 101.295 185.027 100.868 184.792C100.452 184.557 100.143 184.211 99.94 183.752C99.7373 183.293 99.636 182.717 99.636 182.024V177.832C99.636 177.587 99.6947 177.405 99.812 177.288C99.94 177.16 100.121 177.096 100.356 177.096C100.591 177.096 100.772 177.16 100.9 177.288C101.028 177.405 101.092 177.587 101.092 177.832V182.024C101.092 182.685 101.225 183.176 101.492 183.496C101.759 183.805 102.18 183.96 102.756 183.96C103.396 183.96 103.913 183.747 104.308 183.32C104.713 182.893 104.916 182.328 104.916 181.624V177.832C104.916 177.587 104.975 177.405 105.092 177.288C105.22 177.16 105.401 177.096 105.636 177.096C105.871 177.096 106.052 177.16 106.18 177.288C106.308 177.405 106.372 177.587 106.372 177.832V184.36C106.372 184.861 106.137 185.112 105.668 185.112C105.433 185.112 105.252 185.048 105.124 184.92C105.007 184.792 104.948 184.605 104.948 184.36V182.968L105.156 183.24C104.943 183.859 104.596 184.333 104.116 184.664C103.647 184.984 103.092 185.144 102.452 185.144ZM109.467 185.112C109.222 185.112 109.035 185.048 108.907 184.92C108.779 184.792 108.715 184.605 108.715 184.36V177.832C108.715 177.587 108.779 177.405 108.907 177.288C109.035 177.16 109.211 177.096 109.435 177.096C109.659 177.096 109.83 177.16 109.947 177.288C110.075 177.405 110.139 177.587 110.139 177.832V179.064H109.979C110.15 178.424 110.47 177.939 110.939 177.608C111.408 177.277 112 177.091 112.715 177.048C112.886 177.037 113.024 177.08 113.131 177.176C113.238 177.261 113.296 177.411 113.307 177.624C113.318 177.827 113.27 177.992 113.163 178.12C113.056 178.237 112.891 178.307 112.667 178.328L112.379 178.344C111.675 178.419 111.131 178.648 110.747 179.032C110.374 179.416 110.187 179.944 110.187 180.616V184.36C110.187 184.605 110.123 184.792 109.995 184.92C109.878 185.048 109.702 185.112 109.467 185.112ZM121.963 185.144C121.333 185.144 120.805 185.032 120.379 184.808C119.963 184.584 119.648 184.259 119.435 183.832C119.232 183.405 119.131 182.883 119.131 182.264V178.328H118.107C117.915 178.328 117.765 178.28 117.659 178.184C117.552 178.077 117.498 177.939 117.498 177.768C117.498 177.587 117.552 177.448 117.659 177.352C117.765 177.256 117.915 177.208 118.107 177.208H119.131V175.464C119.131 175.219 119.195 175.037 119.323 174.92C119.451 174.792 119.632 174.728 119.867 174.728C120.101 174.728 120.277 174.792 120.395 174.92C120.523 175.037 120.587 175.219 120.587 175.464V177.208H122.523C122.725 177.208 122.88 177.256 122.987 177.352C123.093 177.448 123.147 177.587 123.147 177.768C123.147 177.939 123.093 178.077 122.987 178.184C122.88 178.28 122.725 178.328 122.523 178.328H120.587V182.136C120.587 182.723 120.709 183.165 120.955 183.464C121.2 183.763 121.605 183.912 122.171 183.912C122.373 183.912 122.544 183.896 122.683 183.864C122.821 183.821 122.944 183.8 123.051 183.8C123.147 183.789 123.227 183.821 123.291 183.896C123.365 183.971 123.403 184.109 123.403 184.312C123.403 184.461 123.376 184.6 123.323 184.728C123.28 184.845 123.189 184.925 123.051 184.968C122.923 185.011 122.752 185.048 122.539 185.08C122.325 185.123 122.133 185.144 121.963 185.144ZM127.987 185.144C127.144 185.144 126.419 184.984 125.811 184.664C125.213 184.333 124.749 183.869 124.419 183.272C124.088 182.664 123.923 181.949 123.923 181.128C123.923 180.317 124.083 179.608 124.403 179C124.733 178.392 125.181 177.917 125.747 177.576C126.323 177.235 126.979 177.064 127.715 177.064C128.237 177.064 128.707 177.155 129.123 177.336C129.549 177.507 129.912 177.757 130.211 178.088C130.509 178.419 130.733 178.824 130.883 179.304C131.043 179.773 131.123 180.307 131.123 180.904C131.123 181.075 131.069 181.208 130.963 181.304C130.867 181.389 130.723 181.432 130.531 181.432H125.059V180.504H130.163L129.891 180.728C129.891 180.173 129.805 179.704 129.635 179.32C129.475 178.925 129.235 178.627 128.915 178.424C128.605 178.221 128.216 178.12 127.747 178.12C127.235 178.12 126.797 178.243 126.435 178.488C126.072 178.723 125.795 179.059 125.603 179.496C125.411 179.923 125.315 180.419 125.315 180.984V181.08C125.315 182.04 125.544 182.765 126.003 183.256C126.461 183.747 127.123 183.992 127.987 183.992C128.328 183.992 128.675 183.949 129.027 183.864C129.389 183.779 129.736 183.624 130.067 183.4C130.227 183.304 130.371 183.261 130.499 183.272C130.637 183.272 130.749 183.315 130.835 183.4C130.92 183.475 130.973 183.571 130.995 183.688C131.016 183.795 131 183.912 130.947 184.04C130.893 184.168 130.792 184.28 130.643 184.376C130.291 184.621 129.869 184.813 129.379 184.952C128.899 185.08 128.435 185.144 127.987 185.144ZM136.534 185.144C135.691 185.144 134.966 184.984 134.358 184.664C133.76 184.333 133.296 183.869 132.966 183.272C132.635 182.664 132.47 181.949 132.47 181.128C132.47 180.317 132.63 179.608 132.95 179C133.28 178.392 133.728 177.917 134.294 177.576C134.87 177.235 135.526 177.064 136.262 177.064C136.784 177.064 137.254 177.155 137.67 177.336C138.096 177.507 138.459 177.757 138.758 178.088C139.056 178.419 139.28 178.824 139.43 179.304C139.59 179.773 139.67 180.307 139.67 180.904C139.67 181.075 139.616 181.208 139.51 181.304C139.414 181.389 139.27 181.432 139.078 181.432H133.606V180.504H138.71L138.438 180.728C138.438 180.173 138.352 179.704 138.182 179.32C138.022 178.925 137.782 178.627 137.462 178.424C137.152 178.221 136.763 178.12 136.294 178.12C135.782 178.12 135.344 178.243 134.982 178.488C134.619 178.723 134.342 179.059 134.15 179.496C133.958 179.923 133.862 180.419 133.862 180.984V181.08C133.862 182.04 134.091 182.765 134.55 183.256C135.008 183.747 135.67 183.992 136.534 183.992C136.875 183.992 137.222 183.949 137.574 183.864C137.936 183.779 138.283 183.624 138.614 183.4C138.774 183.304 138.918 183.261 139.046 183.272C139.184 183.272 139.296 183.315 139.382 183.4C139.467 183.475 139.52 183.571 139.542 183.688C139.563 183.795 139.547 183.912 139.494 184.04C139.44 184.168 139.339 184.28 139.19 184.376C138.838 184.621 138.416 184.813 137.926 184.952C137.446 185.08 136.982 185.144 136.534 185.144ZM144.697 185.144C144.068 185.144 143.54 185.032 143.113 184.808C142.697 184.584 142.382 184.259 142.169 183.832C141.966 183.405 141.865 182.883 141.865 182.264V178.328H140.841C140.649 178.328 140.5 178.28 140.393 178.184C140.286 178.077 140.233 177.939 140.233 177.768C140.233 177.587 140.286 177.448 140.393 177.352C140.5 177.256 140.649 177.208 140.841 177.208H141.865V175.464C141.865 175.219 141.929 175.037 142.057 174.92C142.185 174.792 142.366 174.728 142.601 174.728C142.836 174.728 143.012 174.792 143.129 174.92C143.257 175.037 143.321 175.219 143.321 175.464V177.208H145.257C145.46 177.208 145.614 177.256 145.721 177.352C145.828 177.448 145.881 177.587 145.881 177.768C145.881 177.939 145.828 178.077 145.721 178.184C145.614 178.28 145.46 178.328 145.257 178.328H143.321V182.136C143.321 182.723 143.444 183.165 143.689 183.464C143.934 183.763 144.34 183.912 144.905 183.912C145.108 183.912 145.278 183.896 145.417 183.864C145.556 183.821 145.678 183.8 145.785 183.8C145.881 183.789 145.961 183.821 146.025 183.896C146.1 183.971 146.137 184.109 146.137 184.312C146.137 184.461 146.11 184.6 146.057 184.728C146.014 184.845 145.924 184.925 145.785 184.968C145.657 185.011 145.486 185.048 145.273 185.08C145.06 185.123 144.868 185.144 144.697 185.144ZM148.044 185.112C147.82 185.112 147.644 185.048 147.516 184.92C147.388 184.792 147.324 184.605 147.324 184.36V174.344C147.324 174.099 147.388 173.917 147.516 173.8C147.644 173.672 147.82 173.608 148.044 173.608C148.279 173.608 148.46 173.672 148.588 173.8C148.716 173.917 148.78 174.099 148.78 174.344V178.904H148.572C148.796 178.296 149.159 177.837 149.66 177.528C150.172 177.219 150.754 177.064 151.404 177.064C152.034 177.064 152.551 177.181 152.956 177.416C153.362 177.64 153.666 177.981 153.868 178.44C154.071 178.899 154.172 179.475 154.172 180.168V184.36C154.172 184.605 154.108 184.792 153.98 184.92C153.863 185.048 153.687 185.112 153.452 185.112C153.218 185.112 153.036 185.048 152.908 184.92C152.78 184.792 152.716 184.605 152.716 184.36V180.248C152.716 179.555 152.583 179.048 152.316 178.728C152.05 178.408 151.623 178.248 151.036 178.248C150.354 178.248 149.804 178.461 149.388 178.888C148.983 179.304 148.78 179.869 148.78 180.584V184.36C148.78 184.861 148.535 185.112 148.044 185.112Z" fill="#030903"/>
<path d="M199 134.281H247C255.56 134.281 262.5 141.221 262.5 149.781V209.564C262.5 218.124 255.56 225.064 247 225.064H199C190.44 225.064 183.5 218.124 183.5 209.564V149.781C183.5 141.221 190.44 134.281 199 134.281Z" fill="white" stroke="#9DA0A2"/>
<mask id="mask3_3921_233173" style="mask-type:alpha" maskUnits="userSpaceOnUse" x="183" y="133" width="80" height="93">
<path d="M199 134.281H247C255.56 134.281 262.5 141.221 262.5 149.781V209.564C262.5 218.124 255.56 225.064 247 225.064H199C190.44 225.064 183.5 218.124 183.5 209.564V149.781C183.5 141.221 190.44 134.281 199 134.281Z" fill="white" stroke="#9DA0A2"/>
</mask>
<g mask="url(#mask3_3921_233173)">
<mask id="mask4_3921_233173" style="mask-type:alpha" maskUnits="userSpaceOnUse" x="183" y="134" width="80" height="93">
<path d="M199 135.281H247C255.56 135.281 262.5 142.221 262.5 150.781V210.564C262.5 219.124 255.56 226.064 247 226.064H199C190.44 226.064 183.5 219.124 183.5 210.564V150.781C183.5 142.221 190.44 135.281 199 135.281Z" fill="white" stroke="#9DA0A2"/>
</mask>
<g mask="url(#mask4_3921_233173)">
<path d="M222.2 149.953C226.709 149.953 230.364 146.83 230.364 142.977C230.364 139.123 226.709 136 222.2 136C217.691 136 214.036 139.123 214.036 142.977C214.036 146.83 217.691 149.953 222.2 149.953Z" fill="#1E160B"/>
<path d="M253.658 202.076C253.726 201.916 256.981 194.871 256.865 192.862C256.81 191.919 256.531 191.24 256.331 190.756C254.519 186.362 249.605 186.78 246.711 183.384C244.469 180.754 244.662 176.979 245.107 169.431C245.375 164.887 246.244 162.555 245.107 158.637C245.107 158.637 244.24 155.652 242.168 152.846C237.659 146.743 229.727 144.798 225.598 144.171V143.766H221.321V143.897C217.668 144.334 208.622 146.03 203.681 152.717C201.609 155.523 200.742 158.508 200.742 158.508C199.605 162.426 200.474 164.758 200.742 169.302C201.187 176.85 201.382 180.625 199.139 183.255C196.244 186.651 191.33 186.233 189.518 190.627C189.318 191.111 189.039 191.79 188.984 192.733C188.868 194.742 192.133 201.784 192.191 201.947C194.464 208.397 180.278 208.597 178 209.319V225.934L222.925 225.641L222.922 225.114H222.925C222.922 225.541 222.922 225.77 222.922 225.77L268 225.994V209.466C265.725 208.745 250.853 208.66 253.658 202.076Z" fill="#1E160B"/>
<path d="M183.119 225.887C184.051 223.336 195.47 207.212 208.901 199.84C212.372 198.569 225.437 192.219 237.607 199.84C258.227 212.756 262.515 226.174 262.455 225.993" fill="#FD4C54"/>
<path d="M228.916 193.787L237.607 199.842C231.813 210.899 217.328 214.321 208.901 199.842L217.328 194.05C217.328 194.05 217.328 184.485 217.328 179.57H228.916C228.916 184.396 228.916 193.787 228.916 193.787Z" fill="#F5B7A3"/>
<path d="M228.821 185.199C228.802 185.207 228.784 185.218 228.763 185.226V185.228C228.784 185.218 228.802 185.21 228.821 185.199Z" fill="#1E160B"/>
<path d="M229.442 184.837C229.179 182.73 223.264 187.559 223.264 187.559C225.205 187.385 227.093 187.111 228.916 186.416C228.916 186.248 229.706 186.943 229.442 184.837Z" fill="#1E160B"/>
<path d="M228.966 150.092C227.264 149.139 225.582 148.607 224.088 148.312H221.368C219.875 148.61 218.192 149.142 216.491 150.092C214.713 151.087 205.604 158.833 207.044 169.903C207.703 174.963 210.257 178.33 211.798 180.362C211.798 180.362 215.94 185.825 222.666 188.089C222.695 188.1 222.727 188.1 222.727 188.1C222.727 188.1 222.756 188.1 222.787 188.089C229.282 185.901 233.393 180.626 233.393 180.626C235.073 178.469 237.727 175.06 238.409 169.903C239.876 158.83 230.727 151.079 228.966 150.092Z" fill="#F5B7A3"/>
<path d="M222.356 180.468C220.872 180.468 219.684 179.357 219.236 178.871C220.375 179.061 221.526 179.159 222.663 179.159C223.612 179.159 224.574 179.091 225.525 178.959C225.056 179.423 223.834 180.468 222.356 180.468Z" fill="white"/>
<path d="M219.539 179.024C220.579 179.182 221.629 179.263 222.665 179.263C223.51 179.263 224.363 179.21 225.212 179.105C224.646 179.607 223.591 180.36 222.356 180.36C221.113 180.357 220.08 179.551 219.539 179.024ZM218.961 178.711C218.961 178.711 220.392 180.571 222.356 180.571C224.322 180.571 225.815 178.803 225.815 178.803C224.764 178.965 223.714 179.048 222.663 179.048C221.43 179.048 220.196 178.937 218.961 178.711Z" fill="black"/>
<path d="M222.463 180.469C220.603 180.469 219.125 179.17 218.598 178.637C220.008 178.856 221.432 178.967 222.84 178.967C224.017 178.967 225.212 178.888 226.391 178.735C225.834 179.247 224.312 180.469 222.463 180.469Z" fill="white"/>
<path d="M218.914 178.79C220.221 178.977 221.537 179.073 222.84 179.073C223.909 179.073 224.988 179.009 226.058 178.884C225.378 179.451 224.041 180.362 222.463 180.362C220.874 180.362 219.564 179.385 218.914 178.79ZM218.308 178.48C218.308 178.48 220.059 180.575 222.463 180.575C224.868 180.575 226.696 178.585 226.696 178.585C225.41 178.768 224.126 178.86 222.84 178.86C221.328 178.86 219.818 178.732 218.308 178.48Z" fill="black"/>
<path d="M215.558 168.533C216.418 168.533 217.115 167.603 217.115 166.456C217.115 165.309 216.418 164.379 215.558 164.379C214.697 164.379 214 165.309 214 166.456C214 167.603 214.697 168.533 215.558 168.533Z" fill="#1E160B"/>
<path d="M229.404 168.533C230.264 168.533 230.961 167.603 230.961 166.456C230.961 165.309 230.264 164.379 229.404 164.379C228.543 164.379 227.846 165.309 227.846 166.456C227.846 167.603 228.543 168.533 229.404 168.533Z" fill="#1E160B"/>
<path d="M222.205 164.379C222.609 169.12 219.972 172.9 219.699 173.132C219.699 173.132 221.556 175.17 221.648 175.108C221.737 175.049 220.534 173.132 220.534 173.132C220.534 173.132 223.319 168.332 222.205 164.379Z" fill="#1E160B"/>
<path d="M213.308 162.303C213.808 161.828 214.551 161.283 215.518 161.157C216.52 161.025 217.349 161.398 217.451 161.157C217.534 160.962 217.1 160.466 216.623 160.297C215.194 159.789 213.385 162.2 213.308 162.303Z" fill="#1E160B"/>
<path d="M232 162.303C231.5 161.828 230.757 161.283 229.79 161.157C228.787 161.025 227.958 161.398 227.856 161.157C227.773 160.962 228.207 160.466 228.685 160.297C230.113 159.789 231.922 162.2 232 162.303Z" fill="#1E160B"/>
<path d="M238.528 169.962C241.98 162.327 230.069 143.032 224.085 146.794C215.682 140.423 198.574 162.972 206.978 169.343C206.978 169.343 210.797 162.222 214.297 158.115C217.639 154.195 221.041 151.375 223.777 149.427C226.571 151.744 230.029 155.095 233.258 159.694C235.644 163.09 237.345 167.221 238.528 169.962Z" fill="#1E160B"/>
<path d="M223.253 149.427C222.642 154.587 220.62 158.115 220.62 158.115C220.62 158.115 223.2 156.546 224.043 153.903C225.015 150.862 223.83 147.824 223.517 147.848C223.374 147.858 223.361 148.516 223.253 149.427Z" fill="#1E160B"/>
<path d="M208.11 169.304C206.915 169.098 205.643 169.749 204.95 170.62C203.468 172.487 204.318 175.764 206.267 177.465C207.784 178.787 210.42 179.553 211.534 178.518C213.372 176.809 211.416 169.87 208.11 169.304Z" fill="#F5B7A3"/>
<path d="M240.458 170.62C239.765 169.749 238.493 169.098 237.298 169.304C233.993 169.87 232.036 176.809 233.874 178.518C234.988 179.553 237.624 178.787 239.141 177.465C241.09 175.764 241.941 172.487 240.458 170.62Z" fill="#F5B7A3"/>
<path d="M206.53 174.305C206.53 174.305 206.923 174.157 207.189 174.173C207.502 174.192 207.676 174.247 207.839 174.486C208.232 175.063 208.54 175.713 208.879 176.324C209.619 177.651 210.359 178.98 211.1 180.307C211.223 180.528 211.566 180.331 211.442 180.107C210.496 178.412 209.551 176.714 208.606 175.018C208.297 174.468 207.95 173.689 207.252 173.565C206.741 173.475 206.399 173.647 206.399 173.647C206.399 173.647 205.872 174.173 206.53 174.305Z" fill="#1E160B"/>
<path d="M234.114 179.845C235.059 178.15 236.005 176.452 236.95 174.756C237.258 174.206 237.606 173.427 238.304 173.303C238.81 173.214 239.155 173.385 239.155 173.385C239.155 173.385 239.681 173.911 239.023 174.043C239.023 174.043 238.631 173.896 238.365 173.911C238.051 173.93 237.877 173.985 237.714 174.225C237.322 174.801 237.014 175.451 236.674 176.062C235.934 177.389 235.194 178.719 234.454 180.045" fill="#1E160B"/>
</g>
<path d="M199 134.281H247C255.56 134.281 262.5 141.221 262.5 149.781V209.564C262.5 218.124 255.56 225.064 247 225.064H199C190.44 225.064 183.5 218.124 183.5 209.564V149.781C183.5 141.221 190.44 134.281 199 134.281Z" stroke="#9DA0A2"/>
</g>
<path d="M134.056 52.0346C133.555 52.0346 133.069 51.992 132.6 51.9066C132.131 51.832 131.688 51.7146 131.272 51.5546C130.856 51.3946 130.483 51.1973 130.152 50.9626C130.013 50.8666 129.912 50.7493 129.848 50.6106C129.795 50.472 129.779 50.3386 129.8 50.2106C129.832 50.072 129.891 49.9546 129.976 49.8586C130.072 49.7626 130.184 49.704 130.312 49.6826C130.44 49.6613 130.579 49.704 130.728 49.8106C131.219 50.1413 131.731 50.3813 132.264 50.5306C132.808 50.68 133.405 50.7546 134.056 50.7546C134.995 50.7546 135.683 50.584 136.12 50.2426C136.568 49.9013 136.792 49.4533 136.792 48.8986C136.792 48.44 136.632 48.0826 136.312 47.8266C135.992 47.56 135.453 47.352 134.696 47.2026L133 46.8506C131.997 46.6373 131.245 46.2853 130.744 45.7946C130.253 45.304 130.008 44.648 130.008 43.8266C130.008 43.3253 130.109 42.872 130.312 42.4666C130.515 42.0506 130.803 41.6933 131.176 41.3946C131.549 41.096 131.987 40.8666 132.488 40.7066C133 40.5466 133.565 40.4666 134.184 40.4666C134.845 40.4666 135.464 40.5573 136.04 40.7386C136.627 40.92 137.155 41.1866 137.624 41.5386C137.752 41.6346 137.837 41.752 137.88 41.8906C137.923 42.0186 137.928 42.1466 137.896 42.2746C137.875 42.4026 137.816 42.5093 137.72 42.5946C137.635 42.68 137.523 42.728 137.384 42.7386C137.256 42.7493 137.112 42.7013 136.952 42.5946C136.525 42.296 136.088 42.0826 135.64 41.9546C135.192 41.816 134.701 41.7466 134.168 41.7466C133.624 41.7466 133.149 41.832 132.744 42.0026C132.349 42.1733 132.04 42.4133 131.816 42.7226C131.603 43.0213 131.496 43.3733 131.496 43.7786C131.496 44.2693 131.645 44.6533 131.944 44.9306C132.243 45.208 132.744 45.4213 133.448 45.5706L135.128 45.9066C136.195 46.1306 136.984 46.4773 137.496 46.9466C138.019 47.4053 138.28 48.024 138.28 48.8026C138.28 49.2933 138.179 49.736 137.976 50.1306C137.784 50.5253 137.507 50.8666 137.144 51.1546C136.781 51.432 136.339 51.6506 135.816 51.8106C135.293 51.96 134.707 52.0346 134.056 52.0346ZM143.244 52.0346C142.614 52.0346 142.086 51.9226 141.66 51.6986C141.244 51.4746 140.929 51.1493 140.716 50.7226C140.513 50.296 140.412 49.7733 140.412 49.1546V45.2186H139.388C139.196 45.2186 139.046 45.1706 138.94 45.0746C138.833 44.968 138.78 44.8293 138.78 44.6586C138.78 44.4773 138.833 44.3386 138.94 44.2426C139.046 44.1466 139.196 44.0986 139.388 44.0986H140.412V42.3546C140.412 42.1093 140.476 41.928 140.604 41.8106C140.732 41.6826 140.913 41.6186 141.148 41.6186C141.382 41.6186 141.558 41.6826 141.676 41.8106C141.804 41.928 141.868 42.1093 141.868 42.3546V44.0986H143.804C144.006 44.0986 144.161 44.1466 144.268 44.2426C144.374 44.3386 144.428 44.4773 144.428 44.6586C144.428 44.8293 144.374 44.968 144.268 45.0746C144.161 45.1706 144.006 45.2186 143.804 45.2186H141.868V49.0266C141.868 49.6133 141.99 50.056 142.236 50.3546C142.481 50.6533 142.886 50.8026 143.452 50.8026C143.654 50.8026 143.825 50.7866 143.964 50.7546C144.102 50.712 144.225 50.6906 144.332 50.6906C144.428 50.68 144.508 50.712 144.572 50.7866C144.646 50.8613 144.684 51 144.684 51.2026C144.684 51.352 144.657 51.4906 144.604 51.6186C144.561 51.736 144.47 51.816 144.332 51.8586C144.204 51.9013 144.033 51.9386 143.82 51.9706C143.606 52.0133 143.414 52.0346 143.244 52.0346ZM146.498 52.0026C146.253 52.0026 146.066 51.9386 145.938 51.8106C145.81 51.6826 145.746 51.496 145.746 51.2506V44.7226C145.746 44.4773 145.81 44.296 145.938 44.1786C146.066 44.0506 146.242 43.9866 146.466 43.9866C146.69 43.9866 146.861 44.0506 146.978 44.1786C147.106 44.296 147.17 44.4773 147.17 44.7226V45.9546H147.01C147.181 45.3146 147.501 44.8293 147.97 44.4986C148.439 44.168 149.031 43.9813 149.746 43.9386C149.917 43.928 150.055 43.9706 150.162 44.0666C150.269 44.152 150.327 44.3013 150.338 44.5146C150.349 44.7173 150.301 44.8826 150.194 45.0106C150.087 45.128 149.922 45.1973 149.698 45.2186L149.41 45.2346C148.706 45.3093 148.162 45.5386 147.778 45.9226C147.405 46.3066 147.218 46.8346 147.218 47.5066V51.2506C147.218 51.496 147.154 51.6826 147.026 51.8106C146.909 51.9386 146.733 52.0026 146.498 52.0026ZM154.457 52.0346C153.774 52.0346 153.171 51.8746 152.649 51.5546C152.137 51.224 151.737 50.7546 151.449 50.1466C151.161 49.528 151.017 48.808 151.017 47.9866C151.017 47.1546 151.155 46.44 151.433 45.8426C151.721 45.2346 152.121 44.7706 152.633 44.4506C153.155 44.12 153.763 43.9546 154.457 43.9546C155.15 43.9546 155.747 44.1306 156.249 44.4826C156.75 44.824 157.086 45.2826 157.257 45.8586L157.081 46.0986V44.7226C157.081 44.4773 157.145 44.296 157.273 44.1786C157.401 44.0506 157.577 43.9866 157.801 43.9866C158.035 43.9866 158.217 44.0506 158.345 44.1786C158.473 44.296 158.536 44.4773 158.536 44.7226V51.2506C158.536 51.496 158.473 51.6826 158.345 51.8106C158.217 51.9386 158.035 52.0026 157.801 52.0026C157.577 52.0026 157.401 51.9386 157.273 51.8106C157.145 51.6826 157.081 51.496 157.081 51.2506V49.8906L157.257 50.0826C157.097 50.68 156.761 51.1546 156.249 51.5066C155.747 51.8586 155.15 52.0346 154.457 52.0346ZM154.793 50.8826C155.262 50.8826 155.667 50.7706 156.009 50.5466C156.361 50.3226 156.627 49.9973 156.809 49.5706C157.001 49.144 157.097 48.616 157.097 47.9866C157.097 47.048 156.889 46.3333 156.473 45.8426C156.057 45.352 155.497 45.1066 154.793 45.1066C154.334 45.1066 153.929 45.2186 153.577 45.4426C153.235 45.656 152.969 45.976 152.777 46.4026C152.585 46.8293 152.489 47.3573 152.489 47.9866C152.489 48.9253 152.697 49.6453 153.113 50.1466C153.539 50.6373 154.099 50.8826 154.793 50.8826ZM161.591 51.9706C161.367 51.9706 161.191 51.9013 161.063 51.7626C160.935 51.624 160.871 51.432 160.871 51.1866V44.8026C160.871 44.5466 160.935 44.3546 161.063 44.2266C161.191 44.088 161.367 44.0186 161.591 44.0186C161.826 44.0186 162.007 44.088 162.135 44.2266C162.263 44.3546 162.327 44.5466 162.327 44.8026V51.1866C162.327 51.432 162.263 51.624 162.135 51.7626C162.018 51.9013 161.836 51.9706 161.591 51.9706ZM161.591 42.2906C161.303 42.2906 161.074 42.216 160.903 42.0666C160.743 41.9066 160.663 41.6986 160.663 41.4426C160.663 41.1653 160.743 40.9573 160.903 40.8186C161.074 40.6693 161.303 40.5946 161.591 40.5946C161.9 40.5946 162.13 40.6693 162.279 40.8186C162.439 40.9573 162.519 41.1653 162.519 41.4426C162.519 41.6986 162.439 41.9066 162.279 42.0666C162.13 42.216 161.9 42.2906 161.591 42.2906ZM168.172 54.9146C167.596 54.9146 167.036 54.8506 166.492 54.7226C165.959 54.5946 165.473 54.3973 165.036 54.1306C164.897 54.0453 164.801 53.944 164.748 53.8266C164.705 53.72 164.695 53.608 164.716 53.4906C164.748 53.3733 164.801 53.2666 164.876 53.1706C164.961 53.0853 165.057 53.0266 165.164 52.9946C165.281 52.9733 165.399 53 165.516 53.0746C165.985 53.3413 166.433 53.5226 166.86 53.6186C167.287 53.7146 167.692 53.7626 168.076 53.7626C168.833 53.7626 169.399 53.5653 169.772 53.1706C170.156 52.7866 170.348 52.2213 170.348 51.4746V49.7466H170.492C170.343 50.344 170.007 50.8186 169.484 51.1706C168.972 51.5226 168.375 51.6986 167.692 51.6986C166.988 51.6986 166.375 51.5386 165.852 51.2186C165.329 50.888 164.924 50.4346 164.636 49.8586C164.348 49.272 164.204 48.5946 164.204 47.8266C164.204 47.24 164.284 46.712 164.444 46.2426C164.615 45.7626 164.849 45.3573 165.148 45.0266C165.457 44.6853 165.825 44.424 166.252 44.2426C166.679 44.0506 167.159 43.9546 167.692 43.9546C168.385 43.9546 168.988 44.1306 169.5 44.4826C170.012 44.8346 170.343 45.3093 170.492 45.9066L170.316 46.1306V44.7226C170.316 44.4773 170.38 44.296 170.508 44.1786C170.636 44.0506 170.817 43.9866 171.052 43.9866C171.276 43.9866 171.452 44.0506 171.58 44.1786C171.708 44.296 171.772 44.4773 171.772 44.7226V51.2826C171.772 52.488 171.463 53.3946 170.844 54.0026C170.236 54.6106 169.345 54.9146 168.172 54.9146ZM168.012 50.5466C168.492 50.5466 168.903 50.44 169.244 50.2266C169.596 50.0026 169.863 49.688 170.044 49.2826C170.236 48.8666 170.332 48.3813 170.332 47.8266C170.332 46.984 170.124 46.3226 169.708 45.8426C169.292 45.352 168.727 45.1066 168.012 45.1066C167.532 45.1066 167.116 45.2186 166.764 45.4426C166.423 45.656 166.156 45.9653 165.964 46.3706C165.772 46.776 165.676 47.2613 165.676 47.8266C165.676 48.6586 165.884 49.32 166.3 49.8106C166.727 50.3013 167.297 50.5466 168.012 50.5466ZM174.826 52.0026C174.602 52.0026 174.426 51.9386 174.298 51.8106C174.17 51.6826 174.106 51.496 174.106 51.2506V41.2346C174.106 40.9893 174.17 40.808 174.298 40.6906C174.426 40.5626 174.602 40.4986 174.826 40.4986C175.06 40.4986 175.242 40.5626 175.37 40.6906C175.498 40.808 175.562 40.9893 175.562 41.2346V45.7946H175.354C175.578 45.1866 175.94 44.728 176.442 44.4186C176.954 44.1093 177.535 43.9546 178.186 43.9546C178.815 43.9546 179.332 44.072 179.738 44.3066C180.143 44.5306 180.447 44.872 180.65 45.3306C180.852 45.7893 180.954 46.3653 180.954 47.0586V51.2506C180.954 51.496 180.89 51.6826 180.762 51.8106C180.644 51.9386 180.468 52.0026 180.234 52.0026C179.999 52.0026 179.818 51.9386 179.69 51.8106C179.562 51.6826 179.498 51.496 179.498 51.2506V47.1386C179.498 46.4453 179.364 45.9386 179.098 45.6186C178.831 45.2986 178.404 45.1386 177.818 45.1386C177.135 45.1386 176.586 45.352 176.17 45.7786C175.764 46.1946 175.562 46.76 175.562 47.4746V51.2506C175.562 51.752 175.316 52.0026 174.826 52.0026ZM186.494 52.0346C185.864 52.0346 185.336 51.9226 184.91 51.6986C184.494 51.4746 184.179 51.1493 183.966 50.7226C183.763 50.296 183.662 49.7733 183.662 49.1546V45.2186H182.638C182.446 45.2186 182.296 45.1706 182.19 45.0746C182.083 44.968 182.03 44.8293 182.03 44.6586C182.03 44.4773 182.083 44.3386 182.19 44.2426C182.296 44.1466 182.446 44.0986 182.638 44.0986H183.662V42.3546C183.662 42.1093 183.726 41.928 183.854 41.8106C183.982 41.6826 184.163 41.6186 184.398 41.6186C184.632 41.6186 184.808 41.6826 184.926 41.8106C185.054 41.928 185.118 42.1093 185.118 42.3546V44.0986H187.054C187.256 44.0986 187.411 44.1466 187.518 44.2426C187.624 44.3386 187.678 44.4773 187.678 44.6586C187.678 44.8293 187.624 44.968 187.518 45.0746C187.411 45.1706 187.256 45.2186 187.054 45.2186H185.118V49.0266C185.118 49.6133 185.24 50.056 185.486 50.3546C185.731 50.6533 186.136 50.8026 186.702 50.8026C186.904 50.8026 187.075 50.7866 187.214 50.7546C187.352 50.712 187.475 50.6906 187.582 50.6906C187.678 50.68 187.758 50.712 187.822 50.7866C187.896 50.8613 187.934 51 187.934 51.2026C187.934 51.352 187.907 51.4906 187.854 51.6186C187.811 51.736 187.72 51.816 187.582 51.8586C187.454 51.9013 187.283 51.9386 187.07 51.9706C186.856 52.0133 186.664 52.0346 186.494 52.0346ZM194.144 52.0026C193.899 52.0026 193.707 51.9333 193.568 51.7946C193.429 51.656 193.36 51.4586 193.36 51.2026V41.4106C193.36 41.1546 193.429 40.9573 193.568 40.8186C193.707 40.68 193.904 40.6106 194.16 40.6106H199.904C200.117 40.6106 200.277 40.664 200.384 40.7706C200.491 40.8666 200.544 41.0106 200.544 41.2026C200.544 41.4053 200.491 41.56 200.384 41.6666C200.277 41.7733 200.117 41.8266 199.904 41.8266H194.848V45.6026H199.584C199.787 45.6026 199.941 45.656 200.048 45.7626C200.155 45.8693 200.208 46.0133 200.208 46.1946C200.208 46.3973 200.155 46.552 200.048 46.6586C199.941 46.7653 199.787 46.8186 199.584 46.8186H194.848V51.2026C194.848 51.736 194.613 52.0026 194.144 52.0026ZM204.66 52.0346C203.977 52.0346 203.374 51.8746 202.852 51.5546C202.34 51.224 201.94 50.7546 201.652 50.1466C201.364 49.528 201.22 48.808 201.22 47.9866C201.22 47.1546 201.358 46.44 201.636 45.8426C201.924 45.2346 202.324 44.7706 202.836 44.4506C203.358 44.12 203.966 43.9546 204.66 43.9546C205.353 43.9546 205.95 44.1306 206.452 44.4826C206.953 44.824 207.289 45.2826 207.46 45.8586L207.284 46.0986V44.7226C207.284 44.4773 207.348 44.296 207.476 44.1786C207.604 44.0506 207.78 43.9866 208.004 43.9866C208.238 43.9866 208.42 44.0506 208.548 44.1786C208.676 44.296 208.74 44.4773 208.74 44.7226V51.2506C208.74 51.496 208.676 51.6826 208.548 51.8106C208.42 51.9386 208.238 52.0026 208.004 52.0026C207.78 52.0026 207.604 51.9386 207.476 51.8106C207.348 51.6826 207.284 51.496 207.284 51.2506V49.8906L207.46 50.0826C207.3 50.68 206.964 51.1546 206.452 51.5066C205.95 51.8586 205.353 52.0346 204.66 52.0346ZM204.996 50.8826C205.465 50.8826 205.87 50.7706 206.212 50.5466C206.564 50.3226 206.83 49.9973 207.012 49.5706C207.204 49.144 207.3 48.616 207.3 47.9866C207.3 47.048 207.092 46.3333 206.676 45.8426C206.26 45.352 205.7 45.1066 204.996 45.1066C204.537 45.1066 204.132 45.2186 203.78 45.4426C203.438 45.656 203.172 45.976 202.98 46.4026C202.788 46.8293 202.692 47.3573 202.692 47.9866C202.692 48.9253 202.9 49.6453 203.316 50.1466C203.742 50.6373 204.302 50.8826 204.996 50.8826ZM214.45 52.0346C213.661 52.0346 212.978 51.8693 212.402 51.5386C211.826 51.1973 211.384 50.7226 211.074 50.1146C210.765 49.496 210.61 48.7706 210.61 47.9386C210.61 47.32 210.696 46.7653 210.866 46.2746C211.048 45.784 211.304 45.368 211.634 45.0266C211.965 44.6746 212.365 44.408 212.834 44.2266C213.314 44.0453 213.853 43.9546 214.45 43.9546C214.824 43.9546 215.218 44.0133 215.634 44.1306C216.05 44.248 216.434 44.44 216.786 44.7066C216.904 44.792 216.978 44.8933 217.01 45.0106C217.042 45.1173 217.042 45.2293 217.01 45.3466C216.989 45.464 216.936 45.5653 216.85 45.6506C216.776 45.7253 216.674 45.768 216.546 45.7786C216.429 45.7893 216.301 45.752 216.162 45.6666C215.906 45.4746 215.634 45.336 215.346 45.2506C215.069 45.1653 214.802 45.1226 214.546 45.1226C214.152 45.1226 213.8 45.1866 213.49 45.3146C213.192 45.4426 212.936 45.6293 212.722 45.8746C212.52 46.1093 212.365 46.4026 212.258 46.7546C212.152 47.096 212.098 47.496 212.098 47.9546C212.098 48.8613 212.312 49.576 212.738 50.0986C213.165 50.6106 213.768 50.8666 214.546 50.8666C214.802 50.8666 215.069 50.8293 215.346 50.7546C215.624 50.6693 215.896 50.5306 216.162 50.3386C216.301 50.2533 216.429 50.2213 216.546 50.2426C216.664 50.2533 216.76 50.3013 216.834 50.3866C216.92 50.4613 216.973 50.5573 216.994 50.6746C217.016 50.7813 217.005 50.8933 216.962 51.0106C216.93 51.128 216.856 51.224 216.738 51.2986C216.397 51.5546 216.024 51.7413 215.618 51.8586C215.213 51.976 214.824 52.0346 214.45 52.0346ZM221.956 52.0346C221.113 52.0346 220.388 51.8746 219.78 51.5546C219.182 51.224 218.718 50.76 218.388 50.1626C218.057 49.5546 217.892 48.84 217.892 48.0186C217.892 47.208 218.052 46.4986 218.372 45.8906C218.702 45.2826 219.15 44.808 219.716 44.4666C220.292 44.1253 220.948 43.9546 221.684 43.9546C222.206 43.9546 222.676 44.0453 223.092 44.2266C223.518 44.3973 223.881 44.648 224.18 44.9786C224.478 45.3093 224.702 45.7146 224.852 46.1946C225.012 46.664 225.092 47.1973 225.092 47.7946C225.092 47.9653 225.038 48.0986 224.932 48.1946C224.836 48.28 224.692 48.3226 224.5 48.3226H219.028V47.3946H224.132L223.86 47.6186C223.86 47.064 223.774 46.5946 223.604 46.2106C223.444 45.816 223.204 45.5173 222.884 45.3146C222.574 45.112 222.185 45.0106 221.716 45.0106C221.204 45.0106 220.766 45.1333 220.404 45.3786C220.041 45.6133 219.764 45.9493 219.572 46.3866C219.38 46.8133 219.284 47.3093 219.284 47.8746V47.9706C219.284 48.9306 219.513 49.656 219.972 50.1466C220.43 50.6373 221.092 50.8826 221.956 50.8826C222.297 50.8826 222.644 50.84 222.996 50.7546C223.358 50.6693 223.705 50.5146 224.036 50.2906C224.196 50.1946 224.34 50.152 224.468 50.1626C224.606 50.1626 224.718 50.2053 224.804 50.2906C224.889 50.3653 224.942 50.4613 224.964 50.5786C224.985 50.6853 224.969 50.8026 224.916 50.9306C224.862 51.0586 224.761 51.1706 224.612 51.2666C224.26 51.512 223.838 51.704 223.348 51.8426C222.868 51.9706 222.404 52.0346 221.956 52.0346Z" fill="#030903"/>
<path d="M41 1.28125H89C97.5604 1.28125 104.5 8.22084 104.5 16.7812V76.5637C104.5 85.1241 97.5604 92.0637 89 92.0637H41C32.4396 92.0637 25.5 85.1241 25.5 76.5637V16.7812C25.5 8.22084 32.4396 1.28125 41 1.28125Z" fill="white" stroke="#9DA0A2"/>
<path d="M41 1.28125H89C97.5604 1.28125 104.5 8.22084 104.5 16.7812V76.5637C104.5 85.1241 97.5604 92.0637 89 92.0637H41C32.4396 92.0637 25.5 85.1241 25.5 76.5637V16.7812C25.5 8.22084 32.4396 1.28125 41 1.28125Z" fill="white" stroke="#9DA0A2"/>
<mask id="mask5_3921_233173" style="mask-type:alpha" maskUnits="userSpaceOnUse" x="25" y="0" width="80" height="93">
<path d="M41 1.28125H89C97.5604 1.28125 104.5 8.22084 104.5 16.7812V76.5637C104.5 85.1241 97.5604 92.0637 89 92.0637H41C32.4396 92.0637 25.5 85.1241 25.5 76.5637V16.7812C25.5 8.22084 32.4396 1.28125 41 1.28125Z" fill="white" stroke="#9DA0A2"/>
</mask>
<g mask="url(#mask5_3921_233173)">
<path d="M64.2003 16.9765C68.7091 16.9765 72.3642 13.853 72.3642 9.99996C72.3642 6.14693 68.7091 3.02344 64.2003 3.02344C59.6915 3.02344 56.0364 6.14693 56.0364 9.99996C56.0364 13.853 59.6915 16.9765 64.2003 16.9765Z" fill="#1E160B"/>
<path d="M95.658 69.0996C95.7265 68.939 98.9815 61.894 98.8656 59.8853C98.8103 58.9428 98.5312 58.2636 98.331 57.7792C96.5192 53.3853 91.605 53.8039 88.7108 50.4078C86.4696 47.7778 86.6619 44.0026 87.1069 36.4548C87.3756 31.9108 88.2446 29.5783 87.1069 25.6609C87.1069 25.6609 86.2405 22.6755 84.1679 19.8691C79.6593 13.7666 71.7272 11.8211 67.5978 11.1945V10.7891H63.321V10.9207C59.6683 11.3577 50.6221 13.0531 45.6817 19.7401C43.6091 22.5465 42.7426 25.5319 42.7426 25.5319C41.605 29.4493 42.474 31.7818 42.7426 36.3257C43.1877 43.8736 43.3826 47.6488 41.1388 50.2788C38.2446 53.6749 33.3304 53.2563 31.5186 57.6502C31.3184 58.1346 31.0393 58.8138 30.984 59.7563C30.8681 61.765 34.1337 68.8074 34.1916 68.9706C36.4643 75.4206 22.2782 75.6207 20.0002 76.342V92.9575L64.9248 92.6644L64.9222 92.1379H64.9248C64.9222 92.5644 64.9222 92.7934 64.9222 92.7934L110 93.0178V76.4895C107.725 75.7681 92.8533 75.6838 95.658 69.0996Z" fill="#1E160B"/>
<path d="M25.1187 92.914C26.0509 90.363 37.4703 74.2391 50.9012 66.8677C54.3722 65.5961 67.4371 59.2462 79.6066 66.8677C100.227 79.7835 104.515 93.2016 104.455 93.0207" fill="#FD4C54"/>
<path d="M70.9159 60.814L79.6065 66.869C73.8128 77.9262 59.3284 81.3486 50.9011 66.869L59.3284 61.0772C59.3284 61.0772 59.3284 51.5128 59.3284 46.5977H70.9159C70.9159 51.4233 70.9159 60.814 70.9159 60.814Z" fill="#F5B7A3"/>
<path d="M70.8211 52.2266C70.8027 52.2345 70.7843 52.245 70.7632 52.2529V52.2555C70.7843 52.245 70.8027 52.2371 70.8211 52.2266Z" fill="#1E160B"/>
<path d="M71.4424 51.8639C71.1791 49.7578 65.2642 54.5861 65.2642 54.5861C67.2051 54.4123 69.0933 54.1385 70.9157 53.4435C70.9157 53.275 71.7058 53.97 71.4424 51.8639Z" fill="#1E160B"/>
<path d="M70.9658 17.1156C69.2646 16.1626 67.5818 15.6308 66.0885 15.3359H63.3681C61.8749 15.6334 60.1921 16.1652 58.4908 17.1156C56.7132 18.1107 47.6039 25.856 49.0444 36.9263C49.7028 41.9862 52.2573 45.3534 53.7979 47.3858C53.7979 47.3858 57.9404 52.8485 64.6665 55.1126C64.6954 55.1232 64.727 55.1232 64.727 55.1232C64.727 55.1232 64.756 55.1232 64.7876 55.1126C71.2819 52.9249 75.3928 47.6491 75.3928 47.6491C77.073 45.4929 79.7276 42.0836 80.4097 36.9263C81.8765 25.8534 72.7277 18.1028 70.9658 17.1156Z" fill="#F5B7A3"/>
<path d="M62.4409 46.6629C63.4476 45.8247 64.8231 45.6691 66.7063 46.4496V46.6629C65.0002 46.2364 63.7056 46.1809 62.4409 46.6629Z" fill="#1E160B"/>
<path d="M57.5577 35.5562C58.418 35.5562 59.1154 34.6263 59.1154 33.4793C59.1154 32.3322 58.418 31.4023 57.5577 31.4023C56.6974 31.4023 56 32.3322 56 33.4793C56 34.6263 56.6974 35.5562 57.5577 35.5562Z" fill="#1E160B"/>
<path d="M71.4039 35.5562C72.2642 35.5562 72.9616 34.6263 72.9616 33.4793C72.9616 32.3322 72.2642 31.4023 71.4039 31.4023C70.5436 31.4023 69.8462 32.3322 69.8462 33.4793C69.8462 34.6263 70.5436 35.5562 71.4039 35.5562Z" fill="#1E160B"/>
<path d="M64.4188 31.4023C64.8226 36.143 62.1855 39.9237 61.9126 40.1553C61.9126 40.1553 63.77 42.1938 63.8619 42.1317C63.951 42.0724 62.748 40.1553 62.748 40.1553C62.748 40.1553 65.5327 35.3553 64.4188 31.4023Z" fill="#1E160B"/>
<path d="M55.3079 29.3269C55.8079 28.851 56.5509 28.3063 57.5178 28.1802C58.5205 28.0483 59.3493 28.421 59.4515 28.1802C59.5344 27.9852 59.1007 27.4892 58.6228 27.3201C57.1946 26.8126 55.3852 29.2237 55.3079 29.3269Z" fill="#1E160B"/>
<path d="M74 29.3269C73.5 28.851 72.757 28.3063 71.7901 28.1802C70.7874 28.0483 69.9586 28.421 69.8564 28.1802C69.7735 27.9852 70.2072 27.4892 70.6851 27.3201C72.1133 26.8126 73.9227 29.2237 74 29.3269Z" fill="#1E160B"/>
<path d="M80.5279 36.985C83.9805 29.3503 72.069 10.0556 66.0857 13.8177C57.6821 7.44667 40.5747 29.9953 48.9783 36.3663C48.9783 36.3663 52.7969 29.245 56.2969 25.1381C59.6388 21.2181 63.0413 18.3985 65.7775 16.4503C68.5717 18.7671 72.0295 22.1184 75.2582 26.7177C77.6442 30.1138 79.3455 34.2444 80.5279 36.985Z" fill="#1E160B"/>
<path d="M65.2534 16.4508C64.6424 21.6108 62.6199 25.1386 62.6199 25.1386C62.6199 25.1386 65.2007 23.5695 66.0435 20.9263C67.0152 17.8856 65.8301 14.8475 65.5167 14.8712C65.3745 14.8818 65.3614 15.5399 65.2534 16.4508Z" fill="#1E160B"/>
<path d="M50.1105 36.3272C48.9149 36.1219 47.6429 36.7721 46.9503 37.6435C45.4676 39.5101 46.3182 42.7877 48.267 44.4884C49.7839 45.81 52.4201 46.5761 53.5341 45.5415C55.3723 43.8329 53.4156 36.8932 50.1105 36.3272Z" fill="#F5B7A3"/>
<path d="M82.4579 37.6435C81.7653 36.7721 80.4933 36.1219 79.2977 36.3272C75.9926 36.8932 74.036 43.8329 75.8742 45.5415C76.9881 46.5761 79.6243 45.81 81.1412 44.4884C83.09 42.7877 83.9406 39.5101 82.4579 37.6435Z" fill="#F5B7A3"/>
<path d="M48.5306 41.3282C48.5306 41.3282 48.923 41.1808 49.189 41.1966C49.5024 41.215 49.6762 41.2703 49.8395 41.5098C50.2318 42.0864 50.54 42.7367 50.8797 43.3474C51.6197 44.6743 52.3597 46.0038 53.0998 47.3306C53.2235 47.5518 53.5659 47.3543 53.4421 47.1305C52.4967 45.4351 51.5513 43.7371 50.6058 42.0416C50.2977 41.4914 49.9501 40.7121 49.2522 40.5884C48.7413 40.4989 48.3989 40.67 48.3989 40.67C48.3989 40.67 47.8722 41.1966 48.5306 41.3282Z" fill="#1E160B"/>
<path d="M76.1143 46.8688C77.0597 45.1734 78.0051 43.4753 78.9506 41.7799C79.2587 41.2297 79.6063 40.4504 80.3042 40.3267C80.8098 40.2372 81.1548 40.4083 81.1548 40.4083C81.1548 40.4083 81.6815 40.9348 81.0231 41.0665C81.0231 41.0665 80.6308 40.919 80.3648 40.9348C80.0514 40.9533 79.8776 41.0085 79.7143 41.2481C79.3219 41.8247 79.0138 42.4749 78.674 43.0857C77.934 44.4126 77.194 45.7421 76.454 47.0689" fill="#1E160B"/>
<path d="M41 1.28125H89C97.5604 1.28125 104.5 8.22084 104.5 16.7812V76.5637C104.5 85.1241 97.5604 92.0637 89 92.0637H41C32.4396 92.0637 25.5 85.1241 25.5 76.5637V16.7812C25.5 8.22084 32.4396 1.28125 41 1.28125Z" stroke="#9DA0A2"/>
</g>
</svg>
