<svg width="200" height="200" viewBox="0 0 200 200" fill="none" xmlns="http://www.w3.org/2000/svg">
<path d="M3.98922 62.4259C6.57682 62.4259 7.97844 60.9164 7.97844 58.3288V29.3261C7.97844 15.31 15.31 7.97844 29.3261 7.97844H58.4367C61.0243 7.97844 62.5337 6.57682 62.5337 3.98922C62.5337 1.40162 61.0243 0 58.4367 0H29.1105C10.027 0 0 9.91914 0 28.8949V58.3288C0 60.9164 1.40162 62.4259 3.98922 62.4259ZM196.011 62.4259C198.598 62.4259 200 60.9164 200 58.3288V28.8949C200 10.1348 190.081 0 170.997 0H141.563C138.976 0 137.466 1.40162 137.466 3.98922C137.466 6.57682 138.976 7.97844 141.563 7.97844H170.674C184.259 7.97844 192.022 15.31 192.022 29.3261V58.3288C192.022 60.9164 193.423 62.4259 196.011 62.4259ZM29.1105 200H58.4367C61.0243 200 62.5337 198.598 62.5337 196.011C62.5337 193.423 61.0243 192.022 58.4367 192.022H29.3261C15.31 192.022 7.97844 184.69 7.97844 170.566V141.671C7.97844 139.084 6.57682 137.466 3.98922 137.466C1.40162 137.466 0 139.084 0 141.671V170.997C0 190.081 10.027 200 29.1105 200ZM141.563 200H170.997C190.081 200 200 189.757 200 170.997V141.671C200 139.084 198.598 137.466 196.011 137.466C193.423 137.466 192.022 139.084 192.022 141.671V170.566C192.022 184.69 184.259 192.022 170.674 192.022H141.563C138.976 192.022 137.466 193.423 137.466 196.011C137.466 198.598 138.976 200 141.563 200Z" fill="#00B64C"/>
<path d="M92.1831 114.501H91.2127C87.6547 114.501 86.0375 113.207 86.0375 110.62C86.0375 108.571 87.5469 107.062 89.5955 107.062H93.2612C95.6332 107.062 98.0051 105.229 98.0051 102.318V68.2478C98.0051 65.768 99.299 64.582 101.671 64.582C104.151 64.582 105.337 65.768 105.337 68.2478V101.348C105.337 110.188 100.916 114.501 92.1831 114.501Z" fill="black"/>
<path d="M66.5227 84.4203C66.5227 87.6548 64.4742 89.7033 61.2397 89.7033C58.113 89.7033 56.0645 87.6548 56.0645 84.4203V70.0807C56.0645 66.8462 58.113 64.6898 61.2397 64.6898C64.4742 64.6898 66.5227 66.7384 66.5227 70.0807V84.4203Z" fill="black"/>
<path d="M142.965 84.4203C142.965 87.6548 140.916 89.7033 137.79 89.7033C134.555 89.7033 132.399 87.6548 132.399 84.4203V70.0807C132.399 66.7384 134.555 64.6898 137.79 64.6898C140.916 64.6898 142.965 66.8462 142.965 70.0807V84.4203Z" fill="black"/>
<path d="M131.536 133.8C122.803 142.534 110.943 147.493 99.0833 147.493C87.2235 147.493 75.148 142.641 66.6305 133.8C65.9836 133.153 65.3367 132.183 65.3367 130.889C65.3367 128.733 66.9539 127.331 68.8946 127.331C70.1884 127.331 71.1588 127.763 72.4526 129.164C79.0294 135.633 88.9486 140.269 99.0833 140.269C109.218 140.269 119.245 135.633 125.714 129.164C127.116 127.655 128.086 127.331 129.272 127.331C131.213 127.331 132.83 128.733 132.83 130.889C132.83 132.291 132.183 133.261 131.536 133.8Z" fill="black"/>
</svg>
