<svg width="200" height="200" viewBox="0 0 200 200" fill="none" xmlns="http://www.w3.org/2000/svg">
<g clip-path="url(#clip0_2890_124455)">
<path d="M97.4328 53.0632C112.964 53.0632 125.555 42.3038 125.555 29.0316C125.555 15.7593 112.964 5 97.4328 5C81.9016 5 69.311 15.7593 69.311 29.0316C69.311 42.3038 81.9016 53.0632 97.4328 53.0632Z" fill="#1E160B"/>
<path d="M205.793 232.61C206.029 232.057 217.241 207.79 216.842 200.871C216.652 197.624 215.69 195.284 215.001 193.616C208.759 178.48 191.832 179.922 181.862 168.224C174.142 159.165 174.805 146.16 176.338 120.161C177.263 104.509 180.257 96.4738 176.338 82.9799C176.338 82.9799 173.353 72.6962 166.214 63.0292C150.683 42.0083 123.36 35.3067 109.136 33.1484V31.7518H94.4037V32.2053C81.8215 33.7106 50.6609 39.5508 33.6427 62.5848C26.5034 72.2518 23.5189 82.5355 23.5189 82.5355C19.6 96.0295 22.5936 104.064 23.5189 119.716C25.0519 145.716 25.7232 158.72 17.9943 167.78C8.02467 179.478 -8.90278 178.036 -15.144 193.171C-15.8334 194.84 -16.795 197.18 -16.9855 200.426C-17.3847 207.346 -6.13599 231.604 -5.93642 232.166C1.89231 254.384 -32.1531 255.073 -40 257.558C-40 257.558 -39.9909 315.699 -39.9909 314.792C-39.9909 313.885 99.9283 313.783 99.9283 313.783L99.9193 311.969H99.9283C99.9193 313.438 99.9193 314.227 99.9193 314.227C99.9193 314.227 239.848 314.093 239.848 315V258.002C232.01 255.518 196.132 255.291 205.793 232.61Z" fill="#1E160B"/>
<path d="M-36.2505 314.586C-33.0392 305.799 5.35802 250.305 51.6228 224.913C63.5791 220.533 108.583 198.659 150.502 224.913C221.533 269.403 236.143 315.418 235.935 314.794" fill="#FD4C54"/>
<path d="M120.567 204.056L150.503 224.914C130.545 263.002 80.6519 274.791 51.623 224.914L80.6519 204.963C80.6519 204.963 80.6519 172.017 80.6519 155.086H120.567C120.567 171.709 120.567 204.056 120.567 204.056Z" fill="#F5B7A3"/>
<path d="M120.241 174.476C120.177 174.503 120.114 174.539 120.041 174.567V174.576C120.114 174.539 120.177 174.512 120.241 174.476Z" fill="#1E160B"/>
<path d="M122.381 173.224C121.474 165.969 101.099 182.6 101.099 182.6C107.785 182.002 114.289 181.059 120.567 178.665C120.567 178.084 123.288 180.478 122.381 173.224Z" fill="#1E160B"/>
<path d="M120.737 53.5355C114.877 50.2527 109.08 48.4208 103.936 47.4052H94.5656C89.422 48.4299 83.6253 50.2617 77.7651 53.5355C71.6418 56.9634 40.2634 83.643 45.2255 121.776C47.4934 139.206 56.2928 150.804 61.5996 157.805C61.5996 157.805 75.8691 176.622 99.0378 184.421C99.1376 184.458 99.2464 184.458 99.2464 184.458C99.2464 184.458 99.3462 184.458 99.4551 184.421C121.825 176.885 135.986 158.712 135.986 158.712C141.774 151.285 150.918 139.541 153.267 121.776C158.32 83.6339 126.806 56.9362 120.737 53.5355Z" fill="#F5B7A3"/>
<path d="M89 156.728C93.72 152.798 100.17 152.068 109 155.728V156.728C101 154.728 94.93 154.468 89 156.728Z" fill="#1E160B"/>
<path d="M75.7441 119.451C78.7075 119.451 81.1098 115.981 81.1098 111.701C81.1098 107.421 78.7075 103.951 75.7441 103.951C72.7807 103.951 70.3784 107.421 70.3784 111.701C70.3784 115.981 72.7807 119.451 75.7441 119.451Z" fill="#1E160B"/>
<path d="M122.247 119.451C125.21 119.451 127.613 115.981 127.613 111.701C127.613 107.421 125.21 103.951 122.247 103.951C119.284 103.951 116.881 107.421 116.881 111.701C116.881 115.981 119.284 119.451 122.247 119.451Z" fill="#1E160B"/>
<path d="M98.7043 103.951C100.095 120.281 91.0113 133.304 90.0713 134.101C90.0713 134.101 96.4693 141.123 96.7859 140.909C97.0928 140.705 92.949 134.101 92.949 134.101C92.949 134.101 102.541 117.567 98.7043 103.951Z" fill="#1E160B"/>
<path d="M69.1855 97.9881C70.7643 96.3488 73.1107 94.4724 76.1636 94.0379C79.3299 93.5836 81.9466 94.8675 82.2694 94.0379C82.531 93.3664 81.1616 91.6579 79.6526 91.0753C75.143 89.3273 69.4298 97.6326 69.1855 97.9881Z" fill="#1E160B"/>
<path d="M131.19 97.9881C129.468 96.3488 126.908 94.4724 123.577 94.0379C120.123 93.5836 117.269 94.8675 116.917 94.0379C116.631 93.3664 118.125 91.6579 119.771 91.0753C124.691 89.3273 130.923 97.6326 131.19 97.9881Z" fill="#1E160B"/>
<path d="M153.675 121.984C165.568 95.6853 124.537 29.2222 103.927 42.1811C74.9797 20.2353 16.0511 97.9071 44.9983 119.853C44.9983 119.853 58.152 95.3226 70.2081 81.1757C81.7199 67.6727 93.4403 57.9603 102.866 51.2496C112.49 59.2299 124.401 70.7741 135.523 86.6168C143.742 98.3152 149.602 112.544 153.675 121.984Z" fill="#1E160B"/>
<path d="M101.06 51.2497C98.9552 69.024 91.9883 81.1758 91.9883 81.1758C91.9883 81.1758 100.878 75.771 103.781 66.6662C107.129 56.192 103.046 45.727 101.967 45.8086C101.477 45.8449 101.432 48.112 101.06 51.2497Z" fill="#1E160B"/>
<path d="M48.899 119.718C44.7806 119.011 40.399 121.251 38.0132 124.252C32.9059 130.682 35.836 141.972 42.549 147.831C47.7742 152.383 56.8548 155.022 60.692 151.458C67.0239 145.573 60.2838 121.668 48.899 119.718Z" fill="#F5B7A3"/>
<path d="M160.325 124.252C157.939 121.251 153.557 119.011 149.439 119.718C138.054 121.668 131.314 145.573 137.646 151.458C141.483 155.022 150.564 152.383 155.789 147.831C162.502 141.972 165.432 130.682 160.325 124.252Z" fill="#F5B7A3"/>
<path d="M43.4561 136.948C43.4561 136.948 44.8077 136.44 45.724 136.495C46.8035 136.558 47.4022 136.749 47.9646 137.574C49.3163 139.56 50.3776 141.8 51.5479 143.904C54.097 148.474 56.6461 153.054 59.1952 157.625C59.6215 158.386 60.8009 157.706 60.3745 156.935C57.1178 151.095 53.8611 145.246 50.6045 139.406C49.5431 137.511 48.3456 134.826 45.9417 134.4C44.1818 134.092 43.0025 134.681 43.0025 134.681C43.0025 134.681 41.1882 136.495 43.4561 136.948Z" fill="#1E160B"/>
<path d="M138.472 156.028C141.729 150.188 144.986 144.339 148.242 138.499C149.304 136.603 150.501 133.919 152.905 133.493C154.647 133.184 155.835 133.774 155.835 133.774C155.835 133.774 157.649 135.588 155.382 136.041C155.382 136.041 154.03 135.533 153.114 135.588C152.034 135.651 151.435 135.841 150.873 136.667C149.521 138.653 148.46 140.893 147.29 142.997C144.741 147.567 142.192 152.147 139.642 156.717" fill="#1E160B"/>
</g>
<defs>
<clipPath id="clip0_2890_124455">
<rect width="200" height="200" fill="white"/>
</clipPath>
</defs>
</svg>
