<svg width="422" height="422" viewBox="0 0 422 422" fill="none" xmlns="http://www.w3.org/2000/svg">
<path d="M207.249 65.4478C228.391 65.4478 245.529 50.8021 245.529 32.7356C245.529 14.6692 228.391 0.0235291 207.249 0.0235291C186.108 0.0235291 168.97 14.6692 168.97 32.7356C168.97 50.8021 186.108 65.4478 207.249 65.4478Z" fill="#1E160B"/>
<path d="M354.751 309.85C355.072 309.097 370.334 276.064 369.791 266.645C369.532 262.226 368.223 259.041 367.284 256.77C358.789 236.167 335.747 238.13 322.176 222.206C311.668 209.874 312.569 192.173 314.656 156.782C315.915 135.476 319.99 124.539 314.656 106.171C314.656 106.171 310.593 92.1722 300.875 79.0133C279.735 50.3994 242.542 41.2771 223.18 38.3391V36.4381H203.126V37.0554C185.999 39.1045 143.583 47.0541 120.417 78.4084C110.699 91.5673 106.637 105.566 106.637 105.566C101.302 123.934 105.377 134.871 106.637 156.177C108.723 191.568 109.637 209.269 99.1164 221.601C85.5457 237.525 62.5038 235.562 54.0082 256.165C53.0697 258.436 51.7608 261.621 51.5014 266.04C50.9581 275.459 66.27 308.48 66.5417 309.245C77.1982 339.488 10.6813 340.426 0 343.809V421.717L210.646 420.343L210.634 417.874H210.646C210.634 419.874 210.634 420.947 210.634 420.947L422 422V344.5C411.331 341.118 341.6 340.723 354.751 309.85Z" fill="#1E160B"/>
<path d="M365.308 295.049L336.907 323.441L338.142 324.675L365.308 295.049Z" fill="#1E160B" stroke="black" stroke-width="0.25" stroke-miterlimit="10"/>
<path d="M373.422 300.518L348.009 331.897L349.244 333.131" fill="#1E160B"/>
<path d="M373.422 300.518L348.009 331.897L349.244 333.131" stroke="black" stroke-width="0.25" stroke-miterlimit="10"/>
<path d="M24 421.5C28.3713 409.538 81.9154 333.935 144.892 299.372C161.167 293.409 222.427 263.635 279.488 299.372C376.175 359.932 396.283 422.848 396 422" fill="#FD4C54"/>
<path d="M238.739 270.982L279.488 299.374C252.322 351.219 184.406 367.267 144.892 299.374L184.406 272.217C184.406 272.217 184.406 227.37 184.406 204.323H238.739C238.739 226.95 238.739 270.982 238.739 270.982Z" fill="#F5B7A3"/>
<path d="M238.294 230.716C238.208 230.753 238.121 230.802 238.022 230.839V230.852C238.121 230.802 238.208 230.765 238.294 230.716Z" fill="#1E160B"/>
<path d="M241.208 229.012C239.974 219.137 212.239 241.776 212.239 241.776C221.34 240.961 230.194 239.677 238.739 236.419C238.739 235.628 242.443 238.887 241.208 229.012Z" fill="#1E160B"/>
<path d="M238.972 66.0909C230.995 61.6223 223.104 59.1287 216.103 57.7462H203.347C196.346 59.1411 188.455 61.6346 180.478 66.0909C172.143 70.757 129.43 107.074 136.185 158.981C139.272 182.706 151.25 198.495 158.474 208.024C158.474 208.024 177.897 233.639 209.435 244.255C209.571 244.304 209.719 244.304 209.719 244.304C209.719 244.304 209.855 244.304 210.003 244.255C240.454 233.997 259.73 209.259 259.73 209.259C267.608 199.149 280.055 183.163 283.253 158.981C290.131 107.061 247.233 70.7199 238.972 66.0909Z" fill="#F5B7A3"/>
<path d="M196.392 204.508C202.52 200.737 210.895 200.037 222.361 203.549V204.508C211.973 202.589 204.091 202.349 196.392 204.508Z" fill="#1E160B"/>
<path d="M176.104 152.57C180.137 152.57 183.407 148.21 183.407 142.831C183.407 137.453 180.137 133.093 176.104 133.093C172.07 133.093 168.8 137.453 168.8 142.831C168.8 148.21 172.07 152.57 176.104 152.57Z" fill="#1E160B"/>
<path d="M241.027 152.57C245.06 152.57 248.33 148.21 248.33 142.831C248.33 137.453 245.06 133.093 241.027 133.093C236.993 133.093 233.723 137.453 233.723 142.831C233.723 148.21 236.993 152.57 241.027 152.57Z" fill="#1E160B"/>
<path d="M203.274 133.093C205.167 155.321 192.802 173.049 191.522 174.134C191.522 174.134 200.232 183.693 200.662 183.402C201.08 183.124 195.44 174.134 195.44 174.134C195.44 174.134 208.497 151.628 203.274 133.093Z" fill="#1E160B"/>
<path d="M165.554 123.354C167.898 121.123 171.382 118.569 175.916 117.977C180.618 117.359 184.503 119.106 184.983 117.977C185.371 117.063 183.338 114.738 181.097 113.944C174.4 111.565 165.916 122.87 165.554 123.354Z" fill="#1E160B"/>
<path d="M253.2 123.354C250.855 121.123 247.371 118.569 242.837 117.977C238.136 117.359 234.25 119.106 233.771 117.977C233.382 117.063 235.416 114.738 237.656 113.944C244.353 111.565 252.837 122.87 253.2 123.354Z" fill="#1E160B"/>
<path d="M283.808 159.264C299.997 123.466 244.146 32.9949 216.09 50.6348C176.687 20.7618 96.4724 126.49 135.876 156.363C135.876 156.363 153.781 122.972 170.192 103.715C185.862 85.3343 201.816 72.1137 214.646 62.979C227.747 73.8419 243.96 89.556 259.099 111.121C270.287 127.045 278.264 146.413 283.808 159.264Z" fill="#1E160B"/>
<path d="M212.187 62.9794C209.322 87.174 199.839 103.715 199.839 103.715C199.839 103.715 211.94 96.3581 215.892 83.9645C220.448 69.707 214.891 55.4618 213.422 55.5729C212.755 55.6223 212.693 58.7083 212.187 62.9794Z" fill="#1E160B"/>
<path d="M141.185 156.18C135.579 155.217 129.615 158.266 126.367 162.352C119.415 171.104 123.404 186.472 132.541 194.447C139.654 200.643 152.015 204.236 157.238 199.384C165.857 191.373 156.682 158.834 141.185 156.18Z" fill="#F5B7A3"/>
<path d="M292.859 162.352C289.611 158.266 283.647 155.217 278.041 156.179C262.543 158.833 253.369 191.373 261.988 199.384C267.211 204.235 279.572 200.643 286.684 194.446C295.822 186.472 299.811 171.104 292.859 162.352Z" fill="#F5B7A3"/>
<path d="M133.776 179.633C133.776 179.633 135.616 178.942 136.863 179.016C138.333 179.103 139.148 179.362 139.913 180.485C141.753 183.189 143.198 186.238 144.791 189.101C148.261 195.323 151.731 201.557 155.201 207.778C155.781 208.815 157.386 207.889 156.806 206.84C152.373 198.89 147.94 190.928 143.507 182.979C142.062 180.399 140.432 176.745 137.16 176.165C134.764 175.745 133.159 176.547 133.159 176.547C133.159 176.547 130.689 179.016 133.776 179.633Z" fill="#1E160B"/>
<path d="M263.113 205.605C267.546 197.656 271.979 189.694 276.412 181.744C277.857 179.164 279.487 175.51 282.759 174.93C285.13 174.51 286.748 175.313 286.748 175.313C286.748 175.313 289.218 177.782 286.131 178.399C286.131 178.399 284.291 177.707 283.043 177.782C281.574 177.868 280.759 178.127 279.993 179.25C278.154 181.954 276.709 185.003 275.116 187.867C271.646 194.088 268.176 200.322 264.706 206.544" fill="#1E160B"/>
</svg>
