<svg width="200" height="200" viewBox="0 0 200 200" fill="none" xmlns="http://www.w3.org/2000/svg">
<g clip-path="url(#clip0_2890_124372)">
<path d="M97.4352 53.0631C112.966 53.0631 125.557 42.3038 125.557 29.0316C125.557 15.7593 112.966 5 97.4352 5C81.904 5 69.3135 15.7593 69.3135 29.0316C69.3135 42.3038 81.904 53.0631 97.4352 53.0631Z" fill="#1E160B"/>
<path d="M205.793 232.611C206.029 232.058 217.241 207.791 216.842 200.871C216.652 197.625 215.69 195.285 215.001 193.617C208.759 178.481 191.832 179.923 181.862 168.225C174.142 159.165 174.805 146.161 176.338 120.162C177.263 104.509 180.257 96.4747 176.338 82.9807C176.338 82.9807 173.353 72.697 166.214 63.03C150.683 42.0092 123.36 35.3075 109.136 33.1492V31.7527H94.4037V32.2061C81.8215 33.7115 50.6608 39.5516 33.6427 62.5856C26.5034 72.2527 23.5189 82.5364 23.5189 82.5364C19.6 96.0303 22.5936 104.065 23.5189 119.717C25.0519 145.717 25.7232 158.721 17.9943 167.78C8.02466 179.479 -8.90278 178.037 -15.144 193.172C-15.8334 194.841 -16.795 197.181 -16.9855 200.427C-17.3847 207.346 -6.13599 231.605 -5.93642 232.167C1.89231 254.385 -32.1531 255.074 -40 257.559C-40 257.559 -39.9909 315.7 -39.9909 314.793C-39.9909 313.886 99.9283 313.784 99.9283 313.784L99.9193 311.97H99.9283C99.9193 313.439 99.9193 314.228 99.9193 314.228C99.9193 314.228 239.848 314.094 239.848 315.001V258.003C232.01 255.518 196.132 255.292 205.793 232.611Z" fill="#1E160B"/>
<path d="M-36.2554 314.581C-33.0441 305.794 5.35314 250.299 51.6179 224.907C63.5742 220.527 108.578 198.654 150.498 224.907C221.528 269.398 236.138 315.412 235.93 314.789" fill="#FD4C54"/>
<path d="M120.553 204.029L150.489 224.886C130.532 262.974 80.6383 274.763 51.6094 224.886L80.6383 204.935C80.6383 204.935 80.6383 171.99 80.6383 155.059H120.553C120.553 171.681 120.553 204.029 120.553 204.029Z" fill="#F5B7A3"/>
<path d="M120.236 174.463C120.173 174.49 120.109 174.526 120.037 174.553V174.563C120.109 174.526 120.173 174.499 120.236 174.463Z" fill="#1E160B"/>
<path d="M122.373 173.209C121.466 165.954 101.091 182.586 101.091 182.586C107.777 181.987 114.281 181.044 120.559 178.65C120.559 178.07 123.28 180.464 122.373 173.209Z" fill="#1E160B"/>
<path d="M120.735 53.5363C114.875 50.2535 109.078 48.4217 103.934 47.406H94.5636C89.4201 48.4307 83.6233 50.2626 77.7631 53.5363C71.6398 56.9642 40.2614 83.6438 45.2235 121.777C47.4914 139.207 56.2908 150.805 61.5976 157.806C61.5976 157.806 75.8672 176.623 99.0359 184.422C99.1357 184.459 99.2445 184.459 99.2445 184.459C99.2445 184.459 99.3443 184.459 99.4531 184.422C121.824 176.886 135.984 158.713 135.984 158.713C141.772 151.286 150.916 139.542 153.265 121.777C158.318 83.6347 126.804 56.937 120.735 53.5363Z" fill="#F5B7A3"/>
<path d="M97.8366 157.724C93.5358 157.724 90.094 154.505 88.7964 153.096C92.0961 153.646 95.4329 153.93 98.7264 153.93C101.476 153.93 104.263 153.733 107.019 153.349C105.659 154.696 102.119 157.724 97.8366 157.724Z" fill="white"/>
<path d="M89.6741 153.547C92.6895 154.004 95.7297 154.239 98.7328 154.239C101.18 154.239 103.651 154.085 106.111 153.782C104.473 155.234 101.415 157.415 97.8368 157.415C94.2344 157.409 91.2436 155.073 89.6741 153.547ZM87.9995 152.639C87.9995 152.639 92.1458 158.027 97.8368 158.027C103.534 158.027 107.859 152.904 107.859 152.904C104.813 153.374 101.773 153.615 98.7266 153.615C95.1551 153.615 91.5773 153.294 87.9995 152.639Z" fill="black"/>
<path d="M74.5444 117.079C77.5078 117.079 79.9101 113.876 79.9101 109.925C79.9101 105.973 77.5078 102.77 74.5444 102.77C71.581 102.77 69.1787 105.973 69.1787 109.925C69.1787 113.876 71.581 117.079 74.5444 117.079Z" fill="#1E160B"/>
<path d="M122.236 117.079C125.199 117.079 127.601 113.876 127.601 109.925C127.601 105.973 125.199 102.77 122.236 102.77C119.272 102.77 116.87 105.973 116.87 109.925C116.87 113.876 119.272 117.079 122.236 117.079Z" fill="#1E160B"/>
<path d="M97.5212 102.77C98.9121 119.1 89.8282 132.123 88.8882 132.921C88.8882 132.921 95.2862 139.943 95.6028 139.729C95.9097 139.525 91.7659 132.921 91.7659 132.921C91.7659 132.921 101.358 116.387 97.5212 102.77Z" fill="#1E160B"/>
<path d="M66.7915 95.6187C68.5138 93.9794 71.0735 92.1031 74.4039 91.6685C77.858 91.2143 80.7127 92.4981 81.0648 91.6685C81.3502 90.997 79.8563 89.2885 78.2101 88.7059C73.2906 86.9579 67.0579 95.2632 66.7915 95.6187Z" fill="#1E160B"/>
<path d="M131.179 95.6187C129.456 93.9794 126.897 92.1031 123.566 91.6685C120.112 91.2143 117.257 92.4981 116.905 91.6685C116.62 90.997 118.114 89.2885 119.76 88.7059C124.68 86.9579 130.912 95.2632 131.179 95.6187Z" fill="#1E160B"/>
<path d="M153.66 121.987C165.553 95.6883 124.522 29.2251 103.912 42.184C74.9646 20.2382 16.0359 97.9101 44.9832 119.856C44.9832 119.856 58.1369 95.3255 70.193 81.1786C81.7047 67.6756 93.4251 57.9632 102.85 51.2525C112.475 59.2328 124.386 70.7771 135.508 86.6198C143.727 98.3181 149.587 112.547 153.66 121.987Z" fill="#1E160B"/>
<path d="M101.047 51.2449C98.9425 69.0192 91.9756 81.171 91.9756 81.171C91.9756 81.171 100.866 75.7662 103.769 66.6614C107.116 56.1873 103.034 45.7222 101.954 45.8038C101.464 45.8401 101.419 48.1072 101.047 51.2449Z" fill="#1E160B"/>
<path d="M48.8937 119.728C44.7752 119.021 40.3936 121.261 38.0078 124.262C32.9005 130.692 35.8307 141.982 42.5436 147.84C47.7688 152.393 56.8494 155.032 60.6866 151.468C67.0186 145.582 60.2784 121.678 48.8937 119.728Z" fill="#F5B7A3"/>
<path d="M160.331 124.262C157.946 121.26 153.564 119.02 149.446 119.728C138.061 121.677 131.321 145.582 137.653 151.468C141.49 155.031 150.57 152.392 155.796 147.84C162.509 141.982 165.439 130.692 160.331 124.262Z" fill="#F5B7A3"/>
<path d="M43.4463 136.959C43.4463 136.959 44.798 136.451 45.7142 136.505C46.7937 136.569 47.3924 136.759 47.9548 137.585C49.3065 139.571 50.3679 141.81 51.5381 143.914C54.0872 148.485 56.6363 153.064 59.1854 157.635C59.6118 158.397 60.7911 157.717 60.3647 156.946C57.1081 151.106 53.8514 145.256 50.5947 139.416C49.5333 137.521 48.3359 134.837 45.9319 134.411C44.172 134.102 42.9927 134.692 42.9927 134.692C42.9927 134.692 41.1784 136.505 43.4463 136.959Z" fill="#1E160B"/>
<path d="M138.473 156.025C141.73 150.185 144.987 144.336 148.243 138.496C149.305 136.601 150.502 133.916 152.906 133.49C154.648 133.182 155.836 133.771 155.836 133.771C155.836 133.771 157.65 135.585 155.382 136.038C155.382 136.038 154.031 135.53 153.115 135.585C152.035 135.648 151.436 135.839 150.874 136.664C149.522 138.65 148.461 140.89 147.291 142.994C144.742 147.564 142.193 152.144 139.643 156.714" fill="#1E160B"/>
</g>
<defs>
<clipPath id="clip0_2890_124372">
<rect width="200" height="200" rx="100" fill="white"/>
</clipPath>
</defs>
</svg>
