<svg width="540" height="721" viewBox="0 0 540 721" fill="none" xmlns="http://www.w3.org/2000/svg">
<path d="M222.668 39.3095C44.992 94.3687 116.005 300.115 109.151 331.737C100.637 370.952 72.0395 360.106 50.2094 390.658C28.3792 421.211 54.0296 442.248 54.5754 477.95C54.5754 510.684 0 536.872 0 536.872V652.533L473.715 632.893C473.715 632.893 325.488 492.702 373.296 329.554C407.853 211.623 372.794 121.102 307.805 67.6793C299.488 60.8705 257.88 28.398 222.668 39.3095Z" fill="#1E160B"/>
<path d="M169.619 75.1384C173.886 42.7061 149.397 12.74 114.922 8.20742C80.4468 3.67481 49.04 26.292 44.7732 58.7244C40.5063 91.1567 64.9952 121.123 99.4705 125.655C133.946 130.188 165.352 107.571 169.619 75.1384Z" fill="#1E160B"/>
<path d="M0 578.336C29.1214 550.119 61.8012 520.701 98.2357 491.044C131.33 464.114 167.939 440.197 198.654 419.028C259.779 432.842 316.537 446.678 377.662 460.492C466.838 514.569 521.304 601.228 541.388 720.185L0 718.002V578.336Z" fill="#FD4C54"/>
<path d="M320.903 410.299L347.1 307.732L251.047 290.273C251.047 290.273 250.392 295.358 249.17 303.52C256.766 302.451 264.058 300.312 269.908 295.555C273.161 292.914 277.811 297.541 274.536 300.181C267.398 305.964 258.578 308.539 249.606 309.827C249.126 309.892 248.667 309.936 248.187 309.98C244.607 333.025 237.862 371.28 229.217 397.184L198.655 419.007C195.577 432.843 240.132 525.939 331.819 506.299C360.482 499.49 377.662 467.236 377.662 460.47L320.903 410.299Z" fill="#F5B7A3"/>
<path d="M334.001 384.112C334.001 384.112 306.408 364.624 290.341 342.649C277.047 324.47 272.877 312.097 272.877 312.097L342.733 355.743L334.001 384.112Z" fill="#1E160B"/>
<path d="M467.285 720.5C460.735 699.397 454.186 678.316 447.637 657.214C483.068 626.771 500.052 596.808 508.762 576.469C510.836 571.624 529.217 528.131 519.677 521.911C517.756 520.668 515.03 521.28 513 522C513.327 521.149 520.31 503.297 515.311 500.089C514.525 499.587 512.277 498.692 506.579 502.271C506.622 500.241 506.382 497.252 504.396 495.724C496.406 489.57 466.608 512.615 447.637 530.641C422.882 554.166 415.482 570.184 406.16 567.74C395.66 564.968 398.563 542.861 379.964 532.823C374.463 529.855 365.84 527.258 362.5 530.641C359.072 534.089 362.5 542.403 364.683 548.099C371.93 567.063 377.715 586.856 379.964 607.021C384.33 646.302 390.879 652.849 390.879 652.849C390.879 652.849 395.092 691.345 390.879 720.5H467.285Z" fill="#F5B7A3"/>
<path d="M507 502L459 552.792L461.087 555L507 502Z" fill="#1E160B" stroke="black" stroke-width="0.25" stroke-miterlimit="10"/>
<path d="M513 522L476 565.297L477.798 567" fill="#1E160B"/>
<path d="M513 522L476 565.297L477.798 567" stroke="black" stroke-width="0.25" stroke-miterlimit="10"/>
<path d="M375.479 76.4087C353.714 51.5742 321.144 40.7501 307.805 37.1275C262.813 24.9285 225.986 37.2802 213.936 41.492C140.608 67.1776 104.785 207.062 144.079 281.544C148.38 289.706 301.562 343.216 336.185 312.096C408.006 247.544 424.793 132.668 375.479 76.4087Z" fill="#1E160B"/>
<path d="M216.119 277.18C253.23 344.831 348.191 374.292 399.492 344.831C446.427 293.547 438.786 152.789 373.296 78.5911C368.93 80.7734 293.463 85.5308 272.877 74.2266C264.145 113.508 236.333 160.973 189.922 207.346C183.33 205.95 169.686 204.117 161.543 211.711C147.768 224.586 154.972 259.743 176.824 272.815C193.437 282.766 212.517 278.489 216.119 277.18Z" fill="#F5B7A3"/>
<path d="M174.052 233.533C184.858 233.882 192.761 241.761 198.502 252.148C197.847 254.221 195.751 254.309 193.678 252.912C188.919 244.161 182.239 236.763 174.052 233.533Z" fill="#1E160B"/>
<path d="M358.255 176.052C362.752 212.54 389.035 236.85 391.502 238.16C391.502 238.16 380.543 256.578 379.714 256.273C378.95 255.967 385.084 239.513 385.084 239.513C385.084 239.513 356.05 207.76 358.255 176.052Z" fill="#1E160B"/>
<path d="M334.503 283.879C346.903 295.838 362.664 298.107 380.914 293.154C381.635 292.368 381.809 291.321 381.395 290.535C381.089 289.946 380.521 289.706 380.303 289.618C373.819 290.862 363.778 291.932 351.924 289.618C344.851 288.222 338.979 285.996 334.503 283.879Z" fill="#1E160B"/>
<path d="M281.304 198.552C281.304 198.552 305.033 203.855 316.232 200.734C311.844 211.907 283.487 209.551 281.304 205.099C279.95 202.327 281.304 198.552 281.304 198.552Z" fill="#1E160B"/>
<path d="M403.247 187.924C399.841 189.211 396.239 190.455 392.441 191.634C385.936 193.641 379.779 195.169 374.038 196.326C378.186 198.399 383.927 200.319 390.651 199.905C394.209 199.686 402.788 199.359 404.098 194.427C404.884 191.525 403.247 187.924 403.247 187.924Z" fill="#1E160B"/>
<path d="M274.078 163.133C277.527 159.03 282.832 154.186 290.298 152.243C298.047 150.236 304.88 152.222 305.448 150.301C305.906 148.752 302.02 145.435 298.113 144.649C286.412 142.248 274.558 162.26 274.078 163.133Z" fill="#1E160B"/>
<path d="M393.925 149.581C390.214 146.395 384.887 142.925 378.491 142.75C371.855 142.598 366.856 146.089 365.961 144.365C365.24 142.969 367.554 138.866 370.501 137.186C379.277 132.166 393.336 148.861 393.925 149.581Z" fill="#1E160B"/>
<path d="M270.694 79.0707C274.471 118.286 264.102 148.075 264.102 148.075C264.102 148.075 282.286 131.708 284.644 110.648C287.351 86.4032 272.637 66.1733 270.148 66.9153C269.013 67.2645 270.017 72.131 270.694 79.0707Z" fill="#1E160B"/>
</svg>
