<svg width="540" height="721" viewBox="0 0 540 721" fill="none" xmlns="http://www.w3.org/2000/svg">
<path d="M221.668 39.2833C43.992 94.3425 115.005 300.089 108.151 331.71C99.637 370.926 71.0395 360.08 49.2094 390.632C27.3792 421.184 53.0296 442.222 53.5754 477.924C53.5754 510.658 -1 536.846 -1 536.846V652.507L472.714 632.867C472.714 632.867 324.488 492.676 372.296 329.528C406.853 211.597 371.794 121.054 306.805 67.6531C298.51 60.8225 256.88 28.3718 221.668 39.2833Z" fill="#1E160B"/>
<path d="M168.602 75.1384C172.869 42.706 148.38 12.74 113.905 8.20735C79.4292 3.67474 48.0224 26.292 43.7556 58.7243C39.4887 91.1567 63.9776 121.123 98.4529 125.655C132.928 130.188 164.335 107.571 168.602 75.1384Z" fill="#1E160B"/>
<path d="M-1 578.309C28.1214 550.092 60.8012 520.675 97.2357 491.018C130.33 464.088 166.939 440.17 197.654 419.002C258.779 432.816 315.537 446.652 376.662 460.465C465.838 514.543 520.304 601.201 540.388 720.158L-1 717.976V578.309Z" fill="#FD4C54"/>
<path d="M319.903 410.273L346.1 307.705L250.047 290.247C250.047 290.247 249.392 295.332 248.17 303.494C255.766 302.424 263.058 300.286 268.908 295.528C272.161 292.888 276.811 297.514 273.536 300.155C266.398 305.938 257.578 308.513 248.606 309.8C248.126 309.866 247.667 309.91 247.187 309.953C243.607 332.998 236.862 371.254 228.217 397.158L197.655 418.98C194.577 432.816 239.132 525.913 330.819 506.272C359.482 499.463 376.662 467.209 376.662 460.444L319.903 410.273Z" fill="#F5B7A3"/>
<path d="M333.001 384.086C333.001 384.086 305.408 364.598 289.341 342.622C276.047 324.444 271.877 312.07 271.877 312.07L341.733 355.716L333.001 384.086Z" fill="#1E160B"/>
<path d="M466.285 720.5C459.736 699.397 453.187 678.316 446.638 657.214C482.068 626.771 499.052 596.808 507.762 576.469C509.836 571.624 528.217 528.131 518.677 521.911C516.756 520.668 514.03 521.28 512 522C512.327 521.149 519.31 503.297 514.311 500.089C513.525 499.587 511.277 498.692 505.579 502.271C505.623 500.241 505.383 497.252 503.396 495.724C495.406 489.57 465.608 512.615 446.638 530.641C421.882 554.166 414.482 570.184 405.16 567.74C394.66 564.968 397.563 542.861 378.964 532.823C373.463 529.855 364.84 527.258 361.5 530.641C358.073 534.089 361.5 542.403 363.683 548.099C370.931 567.063 376.716 586.856 378.964 607.021C383.33 646.302 389.879 652.849 389.879 652.849C389.879 652.849 394.092 691.345 389.879 720.5H466.285Z" fill="#F5B7A3"/>
<path d="M506 502L458 552.792L460.087 555L506 502Z" fill="#1E160B" stroke="black" stroke-width="0.25" stroke-miterlimit="10"/>
<path d="M512 522L475 565.297L476.798 567" fill="#1E160B"/>
<path d="M512 522L475 565.297L476.798 567" stroke="black" stroke-width="0.25" stroke-miterlimit="10"/>
<path d="M374.479 76.3823C352.714 51.5479 320.144 40.7237 306.805 37.1011C261.813 24.9021 224.986 37.2539 212.936 41.4657C139.608 67.1513 103.785 207.036 143.079 281.518C147.38 289.68 300.562 343.189 335.185 312.07C407.006 247.518 423.793 132.642 374.479 76.3823Z" fill="#1E160B"/>
<path d="M215.119 277.153C252.23 344.804 347.191 374.265 398.492 344.804C445.427 293.52 437.786 152.763 372.296 78.5648C367.93 80.7471 292.463 85.5045 271.877 74.2002C263.145 113.481 235.333 160.946 188.922 207.32C182.33 205.923 168.686 204.09 160.543 211.685C146.768 224.56 153.972 259.717 175.824 272.789C192.459 282.718 211.517 278.441 215.119 277.153Z" fill="#F5B7A3"/>
<path d="M173.052 233.508C183.858 233.857 191.76 241.735 197.502 252.123C196.847 254.196 194.751 254.283 192.677 252.887C187.918 244.136 181.238 236.716 173.052 233.508Z" fill="#1E160B"/>
<path d="M357.255 176.025C361.752 212.513 388.035 236.824 390.502 238.133C390.502 238.133 379.543 256.552 378.714 256.246C377.95 255.941 384.084 239.486 384.084 239.486C384.084 239.486 355.05 207.712 357.255 176.025Z" fill="#1E160B"/>
<path d="M333.023 282.325C345.423 294.284 361.184 296.554 379.434 291.6C380.155 290.814 380.329 289.767 379.914 288.981C379.609 288.392 379.041 288.152 378.823 288.065C372.339 289.309 362.297 290.378 350.444 288.065C343.371 286.668 337.498 284.442 333.023 282.325Z" fill="#1E160B"/>
<path d="M296.567 212.754C303.198 212.754 308.573 205.26 308.573 196.016C308.573 186.771 303.198 179.277 296.567 179.277C289.936 179.277 284.56 186.771 284.56 196.016C284.56 205.26 289.936 212.754 296.567 212.754Z" fill="#1E160B"/>
<path d="M378.845 201.843C384.873 201.843 389.76 194.349 389.76 185.104C389.76 175.86 384.873 168.366 378.845 168.366C372.817 168.366 367.93 175.86 367.93 185.104C367.93 194.349 372.817 201.843 378.845 201.843Z" fill="#1E160B"/>
<path d="M273.078 163.085C276.527 158.982 281.832 154.137 289.297 152.195C297.047 150.187 303.88 152.173 304.448 150.253C304.906 148.703 301.02 145.386 297.113 144.601C285.412 142.222 273.58 162.233 273.078 163.085Z" fill="#1E160B"/>
<path d="M392.925 149.555C389.214 146.368 383.888 142.899 377.491 142.724C370.855 142.571 365.856 146.063 364.961 144.339C364.241 142.942 366.554 138.84 369.502 137.159C378.277 132.14 392.336 148.834 392.925 149.555Z" fill="#1E160B"/>
<path d="M269.694 79.0228C273.471 118.239 263.101 148.027 263.101 148.027C263.101 148.027 281.286 131.66 283.644 110.601C286.351 86.3553 271.637 66.1255 269.148 66.8674C268.013 67.2166 269.039 72.1049 269.694 79.0228Z" fill="#1E160B"/>
</svg>
