<svg width="128" height="40" viewBox="0 0 128 40" fill="none" xmlns="http://www.w3.org/2000/svg">
<g id="wildr-logo-green">
<path id="Vector" d="M94.9222 36.1538C94.2328 37.3279 93.2225 38.2576 92.0224 38.8222C90.987 39.3033 89.9006 39.6533 88.7861 39.865C87.0354 40.1997 85.3075 39.8859 83.6537 39.2435C81.8511 38.5356 80.2926 37.2771 79.18 35.6309C77.8478 33.7336 77.0336 31.492 76.8248 29.1467C76.6623 27.619 76.6165 26.0802 76.6879 24.545C76.9103 20.9802 77.9739 17.747 80.5828 15.2818C81.9897 13.9369 83.7541 13.0729 85.6411 12.8047C87.2583 12.5326 88.9127 12.6346 90.4884 13.1035C91.648 13.4678 92.7215 14.0837 93.6391 14.9113C94.0468 15.2729 94.446 15.6494 94.8138 15.987V15.7151C94.8138 12.5358 94.7853 9.35642 94.8281 6.17707C94.848 4.81151 95.1588 3.51467 96.2195 2.54652C96.9055 1.94263 97.7624 1.59286 98.6574 1.55148C99.9035 1.44988 101.147 1.5216 102.224 2.33436C102.707 2.67072 103.104 3.12613 103.38 3.66065C103.656 4.19517 103.803 4.79247 103.807 5.40016C103.862 15.3605 103.887 25.3209 103.881 35.2812C103.881 36.859 103.425 38.2873 102.031 39.1837C100.936 39.8889 99.7181 39.8919 98.5092 39.7813C97.9474 39.752 97.4004 39.5824 96.9139 39.2866C96.4273 38.9909 96.0153 38.5775 95.712 38.0811C95.4022 37.4607 95.1381 36.8164 94.9222 36.1538ZM85.6896 26.293C85.758 27.046 85.7951 27.805 85.8949 28.552C86.2256 31.0262 87.9136 32.9625 90.5939 32.843C91.4303 32.8121 92.2388 32.5192 92.9148 32.0019C93.5908 31.4847 94.1033 30.767 94.3861 29.9415C94.9359 28.1782 95.0853 26.3047 94.8224 24.4703C94.6085 22.7521 94.0269 21.2909 92.5698 20.3138C90.8048 19.1186 88.0476 19.6983 86.8672 21.4911C85.9006 22.9344 85.7266 24.5749 85.6896 26.2721V26.293Z" fill="white"/>
<path id="Vector_2" d="M60.4873 17.8279V6.35652C60.4873 5.11048 60.6983 3.91822 61.4967 2.91422C62.0676 2.21789 62.8615 1.76413 63.7293 1.6383C64.9924 1.40522 66.2556 1.42913 67.436 2.06261C68.0533 2.37174 68.5728 2.86026 68.9328 3.47001C69.2927 4.07975 69.4778 4.78504 69.4662 5.50192C69.526 13.4204 69.5175 21.3389 69.5688 29.2544C69.5688 30.5542 70.1248 31.9437 71.5077 32.2126C72.0431 32.2903 72.5862 32.2903 73.1216 32.2126C74.6214 32.0841 75.0377 32.2963 75.2857 33.8411C75.4255 34.8819 75.4255 35.9379 75.2857 36.9787C75.126 38.4339 74.1794 39.2616 72.8735 39.5425C71.7785 39.8145 70.657 39.9518 69.5317 39.9518C67.4674 39.8771 65.4372 39.5305 63.7207 38.1291C62.335 36.9996 61.5423 35.4876 61.069 33.7664C60.5728 31.9736 60.4987 30.118 60.4987 28.2594C60.4968 24.7812 60.493 21.304 60.4873 17.8279Z" fill="white"/>
<path id="Vector_3" d="M0.0157486 15.4281C0.0157486 12.2129 0.0499646 8.99765 0.0157486 5.78543C-0.0127647 3.78938 0.856892 2.40588 2.56484 1.75747C4.23572 1.12399 5.94652 1.12697 7.34938 2.51346C7.76746 2.8973 8.10138 3.37135 8.32827 3.9031C8.55515 4.43486 8.66963 5.01174 8.66384 5.5942C8.64293 11.8533 8.64293 18.1134 8.66384 24.3745C8.63142 26.489 9.22948 28.5615 10.3746 30.3029C11.1258 31.3454 11.9321 32.343 12.7897 33.291C13.3579 34.0179 13.6482 34.9401 13.6045 35.8786C13.5608 36.8172 13.1861 37.7053 12.5531 38.3708C11.7287 39.2712 10.6061 39.806 9.41659 39.8648C7.94531 39.9246 6.72779 39.2672 5.74693 38.1526C4.89142 37.2114 4.08793 36.2197 3.3404 35.1824C2.23146 33.5511 1.37859 31.7444 0.814122 29.8307C0.2353 27.9578 -0.0384535 25.9961 0.00434301 24.0278C0.0414103 21.1622 0.0157486 18.2937 0.0157486 15.4281Z" fill="white"/>
<path id="Vector_4" d="M36.2052 1.45794C38.4207 1.22188 40.2911 2.79362 40.6247 4.68211C40.7159 5.38899 40.7474 6.10293 40.7188 6.81562C40.7188 12.9353 40.7445 19.0669 40.7188 25.1686C40.7188 27.6696 40.0317 30.0243 39.0223 32.2833C38.0507 34.4047 36.7434 36.3384 35.1559 38.0025C34.0781 39.1589 32.8406 39.9986 31.241 39.8701C29.265 39.7147 27.7139 38.5224 27.2235 36.5353C26.8699 35.0951 27.3689 33.8251 28.3897 32.8331C30.0294 31.2913 31.2046 29.282 31.7713 27.0511C31.9486 26.3638 32.0444 25.6563 32.0565 24.9445C32.105 18.272 32.0992 11.5966 32.1705 4.92414C32.1848 3.7289 32.9689 2.8504 33.8614 2.1452C34.1872 1.87023 34.563 1.66752 34.9659 1.54938C35.3688 1.43124 35.7904 1.40013 36.2052 1.45794Z" fill="white"/>
<path id="Vector_5" d="M117.812 17.2358C118.385 16.4048 119 15.6068 119.654 14.8453C120.878 13.5833 122.502 12.8385 124.217 12.7536C124.881 12.6759 125.551 12.6879 126.212 12.7895C126.662 12.8658 127.073 13.101 127.378 13.4559C127.682 13.8108 127.861 14.2642 127.886 14.7407C128.037 15.9307 128.037 17.1364 127.886 18.3264C127.658 19.7906 126.586 20.5347 125.232 20.7737C124.134 20.9679 123.013 21.0277 121.927 21.2667C119.483 21.8076 118.197 23.5407 118.197 26.1643C118.197 29.2838 118.237 32.4034 118.18 35.52C118.149 37.2053 117.527 38.6426 115.968 39.4046C114.408 40.1665 111.306 40.0231 110.085 38.4424C109.403 37.5658 109.037 36.4658 109.05 35.3348C109.025 29.3257 109.01 23.3136 109.05 17.3015C109.05 15.2547 109.826 13.6351 111.728 13.0375C113.37 12.5206 115.007 12.5714 116.441 13.7487C117.234 14.4001 117.581 15.3264 117.738 16.3423C117.778 16.689 117.795 17.0565 117.812 17.2358Z" fill="white"/>
<path id="Vector_6" d="M55.4367 26.2742C55.4367 29.071 55.4766 31.8679 55.411 34.6618C55.3744 35.5745 55.1993 36.4753 54.892 37.3302C54.4957 38.4866 53.6318 39.1947 52.477 39.5055C51.2081 39.8847 49.8541 39.8015 48.6362 39.2694C47.336 38.6897 46.7344 37.5483 46.5034 36.1738C46.3947 35.4604 46.3441 34.7387 46.3523 34.0163C46.3409 28.5919 46.3409 23.1685 46.3523 17.7461C46.3523 16.4971 46.5833 15.2869 47.3645 14.2649C47.9367 13.5323 48.751 13.0523 49.6456 12.9203C50.7985 12.6576 52.001 12.7799 53.0843 13.2699C54.3931 13.8974 55.0517 15.0359 55.2798 16.4642C55.3819 17.1422 55.4315 17.8277 55.4281 18.514C55.4452 21.0898 55.4367 23.6835 55.4367 26.2742Z" fill="white"/>
<path id="Vector_7" d="M24.731 15.0628C24.731 18.2183 24.6939 21.3737 24.7452 24.5291C24.7823 26.7403 22.8833 28.4734 21.164 28.7125C19.4446 28.9515 17.9134 28.4436 16.887 26.9555C16.4088 26.2768 16.1295 25.467 16.0829 24.6248C16.0202 18.2302 16.0572 11.8357 16.043 5.4441C16.043 3.42414 18.1073 1.29063 19.9008 1.44004C20.8788 1.52072 21.8739 1.32948 22.7693 1.97789C24.0238 2.89226 24.7652 4.05164 24.7481 5.71303C24.711 8.82963 24.731 11.9462 24.731 15.0628Z" fill="white"/>
<path id="Vector_8" d="M50.9067 0C52.3038 0 53.5983 0.322717 54.6904 1.28788C55.3409 1.86988 55.7448 2.69827 55.8138 3.59171C55.9364 4.85568 55.9849 6.12861 55.2236 7.24915C54.8905 7.75344 54.4538 8.17305 53.9455 8.47712C53.4373 8.78119 52.8704 8.96196 52.2867 9.00616C51.1302 9.10551 49.9665 9.05332 48.8223 8.85078C47.046 8.53404 45.8598 6.85472 45.8398 4.96624C45.8398 3.98614 45.8712 3.02397 46.3702 2.15741C47.0944 0.902409 48.235 0.364551 49.5608 0.146419C50.0056 0.0687281 50.4562 0.0448216 50.9067 0Z" fill="white"/>
</g>
</svg>
