<svg width="822" height="822" viewBox="0 0 822 822" fill="none" xmlns="http://www.w3.org/2000/svg">
<g filter="url(#filter0_d_136_85)">
<path d="M764.873 328.061C764.873 368.819 765.226 409.597 764.755 450.355C764.481 472.946 764.657 495.792 761.518 518.088C753.572 574.555 729.911 624.594 694.379 668.871C682.798 683.459 670.105 697.126 656.415 709.747C626.809 736.703 591.493 735.818 562.79 719.361C521.314 695.591 516.075 644.196 551.018 611.853C583.979 581.378 604.874 544.1 612.173 499.626C613.427 490.375 613.978 481.042 613.821 471.707C614.095 446.265 613.978 420.804 614.095 395.362C614.462 320.649 614.861 245.935 615.292 171.222C615.292 164.065 614.762 156.791 615.881 149.811C617.176 141.946 618.274 133.118 622.571 126.827C637.619 104.786 656.611 89.4702 685.962 91.1218C700.422 91.9279 714.47 92.4587 727.399 99.3206C753.023 112.926 764.677 134.711 764.579 163.515C764.382 218.39 764.579 273.245 764.579 328.12L764.873 328.061Z" fill="white"/>
<path d="M56.3264 322.045C56.3264 267.759 57.1701 213.474 56.0125 159.229C55.2866 125.804 86.2269 93.2059 118.03 91.7706C130.626 91.2004 143.673 90.5516 155.838 93.1075C184.306 99.006 206.731 129.973 206.731 160.802C206.731 240.332 206.535 319.842 206.594 399.353C206.594 428.845 206.398 458.199 207.712 487.574C209.341 524.498 223.408 556.919 247.109 585.114C256.703 596.478 266.611 607.587 276.538 618.715C287.787 631.088 293.671 647.432 292.899 664.152C292.126 680.872 284.759 696.6 272.418 707.879L271.398 708.784C237.927 738.649 193.39 738.512 161.135 706.7C134.276 680.196 109.849 651.392 92.466 617.417C69.3539 572.196 55.836 524.655 56.3068 473.516C56.5423 448.27 56.503 423.025 56.5423 397.78C56.5815 372.535 56.5423 347.29 56.5423 322.045H56.3264Z" fill="white"/>
<path d="M486.587 318.289C486.587 370.569 485.978 422.848 486.802 475.089C487.313 509.181 456.568 541.288 422.881 545.457C400.103 548.268 378.933 544.592 361.295 528.764C345.089 514.234 335.789 496.185 335.789 473.929C335.554 409.334 335.299 344.753 335.024 280.185C334.907 240.037 334.907 199.888 335.024 159.74C335.122 128.006 361.334 95.8404 392.589 92.0261C408.125 90.2377 423.85 91.0818 439.107 94.5231C465.829 100.54 486.567 130.877 486.587 160.31C486.587 199.266 486.534 238.215 486.43 277.158V318.289H486.587Z" fill="white"/>
</g>
<defs>
<filter id="filter0_d_136_85" x="52" y="91" width="717" height="648" filterUnits="userSpaceOnUse" color-interpolation-filters="sRGB">
<feFlood flood-opacity="0" result="BackgroundImageFix"/>
<feColorMatrix in="SourceAlpha" type="matrix" values="0 0 0 0 0 0 0 0 0 0 0 0 0 0 0 0 0 0 127 0" result="hardAlpha"/>
<feOffset dy="4"/>
<feGaussianBlur stdDeviation="2"/>
<feComposite in2="hardAlpha" operator="out"/>
<feColorMatrix type="matrix" values="0 0 0 0 0 0 0 0 0 0 0 0 0 0 0 0 0 0 0.25 0"/>
<feBlend mode="normal" in2="BackgroundImageFix" result="effect1_dropShadow_136_85"/>
<feBlend mode="normal" in="SourceGraphic" in2="effect1_dropShadow_136_85" result="shape"/>
</filter>
</defs>
</svg>
