<svg width="28" height="28" viewBox="0 0 28 28" fill="none" xmlns="http://www.w3.org/2000/svg">
<path d="M20.9978 7.51326C20.7633 7.10826 20.4326 6.7673 20.0349 6.52057C19.6373 6.27383 19.185 6.12893 18.718 6.09868C18.251 6.06843 17.7837 6.15377 17.3576 6.34714C16.9314 6.54052 16.5595 6.83597 16.2747 7.20734L14.7442 4.55641C14.5047 4.14122 14.1641 3.79333 13.7541 3.54508C13.3441 3.29684 12.8779 3.15631 12.399 3.13655C11.9201 3.1168 11.444 3.21846 11.0149 3.43209C10.5858 3.64573 10.2177 3.96439 9.94487 4.35845C9.50914 3.94973 8.95584 3.6885 8.36338 3.61177C7.77091 3.53505 7.16932 3.64671 6.64385 3.93094C6.11839 4.21517 5.69569 4.65755 5.43565 5.1954C5.17562 5.73326 5.09144 6.3393 5.19504 6.92766C4.76252 7.0284 4.35962 7.22903 4.0186 7.5135C3.67759 7.79797 3.40794 8.15836 3.23127 8.5658C3.0546 8.97323 2.97582 9.41638 3.00125 9.85974C3.02667 10.3031 3.15558 10.7343 3.37766 11.1189L3.59554 11.4964C3.13153 11.5573 2.68969 11.7317 2.30914 12.0041C1.92859 12.2765 1.62105 12.6385 1.41373 13.0581C1.20642 13.4777 1.10573 13.9419 1.12057 14.4097C1.13541 14.8774 1.26533 15.3343 1.49882 15.7399L5.54569 22.7493C6.37525 24.186 7.59612 25.3572 9.06595 26.1265C10.5358 26.8958 12.194 27.2314 13.8473 27.0941C15.5006 26.9569 17.0808 26.3525 18.4037 25.3514C19.7266 24.3504 20.7377 22.9939 21.319 21.4401C22.7385 20.0863 23.6618 18.2948 23.9408 16.3531C24.2198 14.4115 23.8382 12.4325 22.8572 10.7338L20.9978 7.51326ZM11.7344 5.0311C11.9857 4.88638 12.2841 4.84725 12.5643 4.9223C12.8444 4.99735 13.0833 5.18044 13.2286 5.43141L15.5638 9.47588C14.9895 9.64853 14.4839 9.99732 14.1186 10.4729L12.588 7.82202C12.3206 7.35807 11.9269 6.97963 11.4527 6.73079L11.3341 6.52516C11.1895 6.27387 11.1504 5.97545 11.2254 5.69537C11.3005 5.41528 11.4835 5.17639 11.7345 5.0311H11.7344ZM7.44947 5.48435C7.70077 5.33967 7.99918 5.30057 8.27927 5.37561C8.55936 5.45066 8.79825 5.63373 8.94354 5.88466L9.31027 6.51991C8.69174 6.70423 8.15463 7.09414 7.78777 7.62515C7.60193 7.45084 7.3934 7.30242 7.16783 7.18393L7.04916 6.97852C6.90445 6.72722 6.86532 6.42878 6.94037 6.14867C7.01542 5.86855 7.19851 5.62964 7.44947 5.48435ZM16.6234 24.4364C15.0151 25.3625 13.1052 25.6129 11.3125 25.1325C9.51991 24.6522 7.99099 23.4805 7.06119 21.8743L3.01432 14.865C2.86928 14.6138 2.82998 14.3152 2.90508 14.035C2.98017 13.7548 3.1635 13.5159 3.41474 13.3708C3.66598 13.2258 3.96455 13.1865 4.24476 13.2616C4.52497 13.3367 4.76387 13.52 4.90891 13.7713L7.53391 18.3179C7.65077 18.5172 7.84173 18.6622 8.06511 18.7213C8.28849 18.7803 8.52617 18.7486 8.72627 18.6331C8.92637 18.5176 9.07265 18.3276 9.13319 18.1046C9.19373 17.8816 9.16361 17.6437 9.04941 17.4429L4.89316 10.2439C4.82021 10.1195 4.7726 9.98184 4.75306 9.83893C4.73351 9.69601 4.74244 9.55064 4.7793 9.41119C4.81617 9.27174 4.88026 9.14096 4.96788 9.02637C5.0555 8.91179 5.16492 8.81567 5.28984 8.74355C5.41475 8.67142 5.5527 8.62472 5.69574 8.60613C5.83878 8.58754 5.98409 8.59742 6.12329 8.63522C6.2625 8.67301 6.39285 8.73796 6.50685 8.82634C6.62085 8.91472 6.71624 9.02477 6.78754 9.15016L10.9438 16.3491C11.0606 16.5484 11.2516 16.6935 11.475 16.7525C11.6984 16.8116 11.936 16.7799 12.1361 16.6644C12.3362 16.5488 12.4825 16.3588 12.5431 16.1358C12.6036 15.9129 12.5735 15.675 12.4593 15.4741L9.17804 9.79077C9.10622 9.66638 9.05961 9.52906 9.04086 9.38665C9.02212 9.24424 9.0316 9.09954 9.06878 8.9608C9.10596 8.82206 9.1701 8.69199 9.25754 8.57804C9.34498 8.46409 9.45401 8.36847 9.57841 8.29666C9.7028 8.22484 9.84012 8.17823 9.98253 8.15948C10.1249 8.14073 10.2696 8.15022 10.4084 8.1874C10.6886 8.26248 10.9275 8.4458 11.0725 8.69702L15.6663 16.6536C15.7831 16.8529 15.9741 16.998 16.1975 17.057C16.4209 17.1161 16.6585 17.0844 16.8586 16.9689C17.0587 16.8533 17.205 16.6633 17.2656 16.4403C17.3261 16.2174 17.296 15.9795 17.1818 15.7786L15.4318 12.7476V12.7475C15.36 12.6231 15.3133 12.4858 15.2946 12.3434C15.2758 12.201 15.2853 12.0563 15.3225 11.9175C15.3976 11.6373 15.5809 11.3984 15.8321 11.2534C16.0834 11.1084 16.3819 11.069 16.6621 11.1441C16.8009 11.1813 16.9309 11.2455 17.0449 11.3329C17.1588 11.4203 17.2544 11.5294 17.3263 11.6538L19.1856 14.8743C20.1138 16.4821 20.3653 18.3928 19.8848 20.186C19.4043 21.9792 18.2312 23.5081 16.6234 24.4364ZM21.8362 17.5415C21.717 16.2929 21.3299 15.0847 20.7012 13.9993L18.8418 10.7788C18.5745 10.3135 18.1801 9.93395 17.7049 9.68468L17.5879 9.48201C17.5149 9.35757 17.4673 9.21993 17.4478 9.07702C17.4282 8.93411 17.4372 8.78874 17.474 8.64929C17.5109 8.50983 17.575 8.37905 17.6626 8.26447C17.7502 8.14989 17.8596 8.05377 17.9846 7.98164C18.1095 7.90952 18.2474 7.86282 18.3905 7.84422C18.5335 7.82563 18.6788 7.83552 18.818 7.87331C18.9572 7.9111 19.0876 7.97606 19.2016 8.06444C19.3156 8.15281 19.411 8.26286 19.4823 8.38826L21.3416 11.6088C21.8531 12.5013 22.1625 13.4951 22.2479 14.5202C22.3334 15.5453 22.1929 16.5767 21.8362 17.5415ZM18.0442 2.69715L18.4971 1.00687C18.5572 0.782707 18.7039 0.591599 18.9049 0.475585C19.1059 0.35957 19.3447 0.328152 19.5689 0.388242C19.793 0.448332 19.9841 0.595008 20.1002 0.796003C20.2162 0.996998 20.2476 1.23585 20.1875 1.46001L19.7346 3.15029C19.7048 3.26128 19.6535 3.36533 19.5835 3.45648C19.5136 3.54764 19.4263 3.62413 19.3268 3.68157C19.2273 3.73902 19.1174 3.7763 19.0035 3.79128C18.8896 3.80627 18.7738 3.79867 18.6628 3.76891C18.5518 3.73916 18.4478 3.68784 18.3566 3.61787C18.2655 3.54791 18.189 3.46068 18.1315 3.36115C18.0155 3.16016 17.9841 2.92131 18.0442 2.69715ZM20.9268 3.70613L21.9306 2.27255C21.996 2.17723 22.0797 2.09582 22.1767 2.03301C22.2738 1.97021 22.3824 1.92726 22.4961 1.90665C22.6099 1.88605 22.7266 1.88819 22.8395 1.91295C22.9524 1.93771 23.0593 1.98461 23.154 2.05093C23.2487 2.11725 23.3293 2.20167 23.3912 2.29933C23.4531 2.39699 23.495 2.50594 23.5145 2.61989C23.534 2.73384 23.5308 2.85052 23.5049 2.96321C23.4791 3.07589 23.4312 3.18234 23.364 3.2764L22.3601 4.70998C22.226 4.89761 22.0233 5.02471 21.796 5.06365C21.5687 5.1026 21.3352 5.05023 21.1463 4.91793C20.9574 4.78564 20.8284 4.58412 20.7873 4.35719C20.7461 4.13026 20.7963 3.89629 20.9268 3.70613ZM25.7278 6.06973L24.2942 7.07357C24.1041 7.20406 23.8701 7.2542 23.6432 7.21309C23.4162 7.17198 23.2147 7.04295 23.0824 6.85405C22.9501 6.66515 22.8977 6.43166 22.9367 6.20435C22.9756 5.97704 23.1027 5.7743 23.2904 5.64021L24.7239 4.63637C24.818 4.56915 24.9244 4.52123 25.0371 4.49539C25.1498 4.46956 25.2665 4.4663 25.3805 4.48582C25.4944 4.50535 25.6034 4.54726 25.701 4.60913C25.7987 4.67101 25.8831 4.75162 25.9494 4.84631C26.0157 4.94101 26.0626 5.04791 26.0874 5.16083C26.1122 5.27376 26.1143 5.39047 26.0937 5.50423C26.0731 5.61799 26.0301 5.72653 25.9673 5.8236C25.9045 5.92066 25.8231 6.00431 25.7278 6.06973Z" fill="white"/>
</svg>
