<svg width="26" height="26" viewBox="0 0 26 26" fill="none" xmlns="http://www.w3.org/2000/svg">
<path d="M17.95 4C16.036 4 14.199 4.88283 13 6.27793C11.801 4.88283 9.964 4 8.05 4C4.662 4 2 6.6376 2 9.99455C2 14.1144 5.74 17.4714 11.405 22.5722L13 24L14.595 22.5613C20.26 17.4714 24 14.1144 24 9.99455C24 6.6376 21.338 4 17.95 4ZM13.11 20.9482L13 21.0572L12.89 20.9482C7.654 16.2507 4.2 13.1444 4.2 9.99455C4.2 7.81471 5.85 6.17984 8.05 6.17984C9.744 6.17984 11.394 7.25886 11.977 8.75204H14.034C14.606 7.25886 16.256 6.17984 17.95 6.17984C20.15 6.17984 21.8 7.81471 21.8 9.99455C21.8 13.1444 18.346 16.2507 13.11 20.9482Z" fill="white"/>
</svg>
