<svg width="1024" height="1024" viewBox="0 0 1024 1024" fill="none" xmlns="http://www.w3.org/2000/svg">
<rect width="1024" height="1024" fill="#50B359"/>
<g opacity="0.4">
<mask id="mask0_2:946" style="mask-type:alpha" maskUnits="userSpaceOnUse" x="0" y="0" width="1024" height="1024">
<rect width="1024" height="1024" fill="white"/>
</mask>
<g mask="url(#mask0_2:946)">
<path opacity="0.5" fill-rule="evenodd" clip-rule="evenodd" d="M706.163 908.556C749.419 887.291 788.706 859.182 822.601 825.612L950.618 953.629H706.163V908.556ZM514.163 953.629V953.578C581.304 953.254 644.954 937.894 701.897 910.655V953.629H514.163ZM322.163 953.629V910.655C379.106 937.894 442.757 953.254 509.897 953.578V953.629H322.163ZM73.4509 953.629L201.459 825.612C235.354 859.182 274.65 887.291 317.897 908.556V953.629H73.4509ZM115.503 706.162C136.768 749.418 164.877 788.705 198.447 822.6L70.4301 950.617V706.162H115.503ZM70.4301 514.162H70.4813C70.8055 581.311 86.1655 644.953 113.404 701.896H70.4301V514.162ZM70.4301 322.162H113.404C86.1655 379.105 70.8055 442.755 70.4813 509.896H70.4301V322.162ZM70.4301 73.4498L198.447 201.458C164.877 235.353 136.768 274.649 115.503 317.896H70.4301V73.4498ZM317.897 115.502C274.65 136.767 235.354 164.876 201.459 198.446L73.4509 70.429H317.897V115.502ZM509.897 70.429V70.4802C442.757 70.8045 379.106 86.173 322.163 113.403V70.429H509.897ZM701.897 70.429V113.403C644.954 86.173 581.304 70.8045 514.163 70.4802V70.429H701.897ZM950.618 70.429L822.601 198.446C788.706 164.876 749.419 136.767 706.163 115.502V70.429H950.618ZM908.557 317.896C887.3 274.649 859.192 235.353 825.622 201.458L953.63 73.4498V317.896H908.557ZM953.63 509.896H953.579C953.263 442.755 937.895 379.105 910.665 322.162H953.63V509.896ZM953.63 701.896H910.665C937.895 644.953 953.263 581.311 953.579 514.162H953.63V701.896ZM709.184 706.162H903.761C882.829 748.249 855.352 786.512 822.601 819.579L709.184 706.162ZM706.163 709.175L819.588 822.6C786.513 855.351 748.25 882.819 706.163 903.76V709.175ZM514.163 787.178C586.893 786.615 652.95 757.695 701.897 710.958V905.953C645.048 933.465 581.372 948.987 514.163 949.311V787.178ZM322.163 710.958C371.111 757.695 437.167 786.615 509.897 787.178V949.311C442.688 948.987 379.012 933.465 322.163 905.953V710.958ZM317.897 709.183V903.76C275.819 882.819 237.547 855.351 204.48 822.6L317.897 709.183ZM314.884 706.162L201.459 819.579C168.708 786.512 141.24 748.249 120.299 706.162H314.884ZM236.881 514.162C237.444 586.892 266.364 652.948 313.101 701.896H118.106C90.5943 645.047 75.0722 581.371 74.7479 514.162H236.881ZM313.101 322.162C266.364 371.11 237.444 437.166 236.881 509.896H74.7479C75.0722 442.687 90.5943 379.011 118.114 322.162H313.101ZM314.884 317.896H120.299C141.24 275.818 168.708 237.546 201.459 204.479L314.884 317.896ZM317.897 314.875L204.48 201.458C237.547 168.707 275.819 141.239 317.897 120.298V314.875ZM509.897 236.88C437.167 237.443 371.111 266.363 322.163 313.1V118.113C379.012 90.5933 442.688 75.0711 509.897 74.7469V236.88ZM701.897 313.1C652.95 266.363 586.893 237.443 514.163 236.88V74.7469C581.372 75.0711 645.048 90.5933 701.897 118.113V313.1ZM706.163 314.883V120.298C748.25 141.239 786.513 168.707 819.588 201.458L706.163 314.883ZM709.184 317.896L822.601 204.479C855.352 237.546 882.82 275.818 903.761 317.896H709.184ZM787.179 509.896C786.624 437.166 757.696 371.11 710.959 322.162H905.954C933.466 379.011 948.988 442.687 949.312 509.896H787.179ZM787.179 514.162H949.312C948.988 581.371 933.466 645.047 905.954 701.896H710.959C757.696 652.948 786.624 586.892 787.179 514.162ZM514.163 706.162H700.745C652.395 753.181 586.637 782.348 514.163 782.911V706.162ZM509.897 706.162V782.911C437.423 782.348 371.665 753.181 323.315 706.162H509.897ZM317.897 514.162V700.744C270.887 652.394 241.72 586.636 241.148 514.162H317.897ZM317.897 509.896H241.148C241.72 437.422 270.887 371.664 317.897 323.314V509.896ZM509.897 317.896H323.315C371.665 270.886 437.423 241.719 509.897 241.147V317.896ZM514.163 317.896V241.147C586.637 241.719 652.395 270.886 700.745 317.896H514.163ZM706.163 509.896V323.314C753.182 371.664 782.349 437.422 782.912 509.896H706.163ZM706.163 514.162H782.912C782.349 586.636 753.182 652.394 706.163 700.752V514.162ZM514.163 517.175L698.884 701.896H514.163V517.175ZM509.897 517.183V701.896H325.184L509.897 517.183ZM506.884 514.162L322.163 698.883V514.162H506.884ZM506.884 509.896H322.163V325.175L506.884 509.896ZM509.897 506.875L325.184 322.162H509.897V506.875ZM514.163 506.883V322.162H698.884L514.163 506.883ZM701.897 514.162V698.875L517.184 514.162H701.897ZM517.184 509.896L701.897 325.183V509.896H517.184ZM953.63 950.617L825.622 822.6C859.192 788.705 887.3 749.418 908.557 706.162H953.63V950.617ZM1035.58 1032.56L960.918 957.896H1026.16V953.629H957.897V706.162H1026.16V701.896H957.897V514.162H1026.16V509.896H957.897V322.162H1026.16V317.896H957.897V70.429H1026.16V66.1623H960.918L1027.05 0.0289903L1024.03 -2.98328L957.897 63.1501V-2.10434H953.63V66.1623H706.163V-2.10434H701.897V66.1623H514.163V-2.10434H509.897V66.1623H322.163V-2.10434H317.897V66.1623H70.4301V-2.10434H66.1634V63.1501L0.0300775 -2.98328L-2.99072 0.0289903L63.1511 66.1623H-2.10326V70.429H66.1634V317.896H-2.10326V322.162H66.1634V509.896H-2.10326V514.162H66.1634V701.896H-2.10326V706.162H66.1634V953.629H-2.10326V957.896H63.1511L-2.99072 1024.03L0.0300775 1027.05L66.1634 960.916V1026.16H70.4301V957.896H317.897V1026.16H322.163V957.896H509.897V1026.16H514.163V957.896H701.897V1026.16H706.163V957.896H953.63V1026.16H957.897V960.916L1032.56 1035.58L1035.58 1032.56Z" fill="white"/>
</g>
</g>
<path fill-rule="evenodd" clip-rule="evenodd" d="M693.421 815.004C711.427 815.004 727.725 807.684 739.339 795.778C796.87 737.807 832.589 658.172 832.687 570.045V569.508V209.049H768.666C733.386 209.049 704.498 237.936 704.498 273.216V569.508C704.498 622.648 682.93 670.761 648.041 705.456C636.427 717.069 629.352 733.123 629.352 750.836C629.352 786.214 657.995 815.004 693.421 815.004ZM319.641 569.46V273.167C319.641 237.888 290.753 209 255.473 209H191.306V569.46C191.306 657.732 226.976 737.661 284.654 795.631C296.413 807.538 312.614 815.004 330.571 815.004C365.997 815.004 394.738 786.214 394.738 750.836C394.738 733.123 387.565 717.069 375.903 705.456C341.111 670.712 319.641 622.599 319.641 569.46Z" fill="white"/>
<path fill-rule="evenodd" clip-rule="evenodd" d="M512.047 209C547.327 209 576.068 237.888 576.068 273.167V576.389C576.068 611.669 547.278 640.556 512.047 640.556C476.767 640.556 447.879 611.669 447.879 576.389V273.167C447.879 237.936 476.767 209 512.047 209Z" fill="white"/>
</svg>
