<svg width="327" height="422" viewBox="0 0 327 422" fill="none" xmlns="http://www.w3.org/2000/svg">
<g clip-path="url(#clip0_2890_123231)">
<rect width="327" height="422" rx="16" fill="white"/>
<path d="M199.462 37.5087C199.462 55.4683 182.435 70.0174 161.433 70.0174C140.431 70.0174 123.404 55.4683 123.404 37.5087C123.404 19.5492 140.431 5 161.433 5C182.435 5 199.462 19.5492 199.462 37.5087Z" fill="#1E160B"/>
<path d="M370.116 347.249C359.504 343.888 294.903 343.581 307.968 312.901C308.287 312.152 323.449 279.325 322.909 269.964C322.652 265.573 321.351 262.408 320.419 260.151C311.979 239.676 289.088 241.627 275.606 225.802C265.167 213.547 266.062 195.955 268.135 160.784C269.387 139.611 273.435 128.742 268.135 110.488C268.135 110.488 264.099 96.5765 254.445 83.4994C233.443 55.0634 196.493 45.9978 177.258 43.0781V41.189H157.336V41.8023C140.321 43.8387 98.1822 51.739 75.1685 82.8983C65.5017 95.9754 61.478 109.887 61.478 109.887C56.1785 128.141 60.2268 139.01 61.478 160.183C63.5512 195.354 64.459 212.945 54.0071 225.201C40.5252 241.026 17.6342 239.075 9.19421 259.549C8.26188 261.807 6.9615 264.972 6.70388 269.363C6.16412 278.723 21.3757 311.539 21.6456 312.299C32.2324 342.355 -31.5044 343.287 -42.1157 346.648V425.16C-42.1157 423.933 164.807 422.706 164.807 422.706L164.794 420.253H164.819C164.807 422.24 164.807 423.307 164.807 423.307C164.807 423.307 370.116 424.773 370.116 426" fill="#1E160B"/>
<path d="M-19.5117 423.933C-15.1691 412.046 36.9185 336.834 99.4825 302.486C115.639 296.56 176.51 266.971 233.198 302.486C329.252 362.67 352.511 430.226 348.512 423.933" fill="#FD4C54"/>
<path d="M192.715 274.27L233.198 302.485C206.209 354.009 138.738 369.956 99.4825 302.485L138.738 275.497V208.026H192.715V274.27Z" fill="#F5B7A3"/>
<path d="M192.273 234.254C192.187 234.303 192.089 234.34 192.003 234.377V234.389C192.102 234.34 192.187 234.303 192.273 234.254Z" fill="#1E160B"/>
<path d="M195.169 232.561C193.942 222.747 166.389 245.246 166.389 245.246C175.43 244.436 184.226 243.16 192.715 239.921C192.715 239.136 196.395 242.375 195.169 232.561Z" fill="#1E160B"/>
<path d="M192.948 70.6553C185.024 66.2267 177.185 63.7364 170.229 62.3625H157.557C150.601 63.7487 142.762 66.2267 134.838 70.6553C126.557 75.2923 84.124 111.395 90.8343 162.968C93.9134 186.546 105.801 202.236 112.977 211.706C112.977 211.706 132.274 237.161 163.605 247.711C163.74 247.76 163.887 247.76 163.887 247.76C163.887 247.76 164.022 247.76 164.169 247.711C194.42 237.517 213.57 212.933 213.57 212.933C221.397 202.886 233.762 187 236.939 162.968C243.772 111.359 201.155 75.2555 192.948 70.6553Z" fill="#F5B7A3"/>
<path d="M149 211.383C153.72 207.453 160.17 206.723 169 210.383V211.383C161 209.383 154.93 209.123 149 211.383Z" fill="#1E160B"/>
<path d="M237.491 163.25C253.574 127.674 198.088 37.7663 170.217 55.2965C131.071 25.6093 51.3821 130.68 90.5276 160.367C90.5276 160.367 108.315 127.184 124.631 108.047C140.198 89.7803 156.048 76.6419 168.794 67.564C181.81 78.3593 197.917 93.9758 212.957 115.407C224.059 131.22 231.983 150.48 237.491 163.25Z" fill="#1E160B"/>
<path d="M166.34 67.564C163.494 91.6082 154.073 108.047 154.073 108.047C154.073 108.047 166.095 100.735 170.02 88.4186C174.547 74.2497 169.027 60.0931 167.567 60.2035C166.904 60.2526 166.843 63.3072 166.34 67.564Z" fill="#1E160B"/>
<path d="M95.8024 160.183C90.2207 159.226 84.3078 162.256 81.0815 166.317C74.1749 175.014 78.1373 190.287 87.2152 198.212C94.269 204.37 106.561 207.94 111.75 203.119C120.313 195.158 111.198 162.808 95.8024 160.183Z" fill="#F5B7A3"/>
<path d="M246.483 166.317C243.257 162.256 237.332 159.226 231.762 160.183C216.367 162.821 207.252 195.158 215.815 203.119C221.004 207.94 233.284 204.37 240.35 198.212C249.427 190.287 253.39 175.002 246.483 166.317Z" fill="#F5B7A3"/>
<path d="M88.4418 183.491C88.4418 183.491 90.2697 182.804 91.5087 182.878C92.9685 182.964 93.7781 183.221 94.5387 184.338C96.3665 187.024 97.8018 190.054 99.3843 192.9C102.832 199.083 106.279 205.278 109.726 211.461C110.302 212.491 111.897 211.571 111.321 210.529L98.1086 186.816C96.6855 184.252 95.054 180.621 91.8031 180.044C89.4477 179.627 87.8407 180.424 87.8407 180.424C87.8407 180.424 85.375 182.878 88.4418 183.491Z" fill="#1E160B"/>
<path d="M216.931 209.302L230.143 185.589C231.579 183.025 233.198 179.394 236.461 178.817C238.816 178.4 240.423 179.198 240.423 179.198C240.423 179.198 242.877 181.651 239.81 182.265C239.81 182.265 237.982 181.578 236.743 181.651C235.283 181.737 234.474 181.995 233.713 183.111C231.885 185.81 230.45 188.828 228.867 191.674C225.42 197.857 221.973 204.052 218.526 210.234" fill="#1E160B"/>
<path d="M139.352 152.614C139.352 157.815 136.334 162.023 132.605 162.023C128.875 162.023 125.858 157.815 125.858 152.614C125.858 147.413 128.875 143.205 132.605 143.205C136.334 143.193 139.352 147.413 139.352 152.614Z" fill="#1E160B"/>
<path d="M185.563 152.614C185.563 157.815 188.581 162.023 192.31 162.023C196.039 162.023 199.057 157.815 199.057 152.614C199.057 147.413 196.039 143.205 192.31 143.205C188.581 143.193 185.563 147.413 185.563 152.614Z" fill="#1E160B"/>
<path d="M157.753 143.622C159.532 164.219 147.914 180.645 146.712 181.651C146.712 181.651 154.895 190.508 155.299 190.238C155.692 189.981 150.392 181.651 150.392 181.651C150.392 181.651 162.66 160.796 157.753 143.622Z" fill="#1E160B"/>
<path d="M122.177 133.808C124.398 131.772 127.698 129.441 131.991 128.901C136.444 128.337 140.125 129.932 140.579 128.901C140.947 128.067 139.021 125.945 136.898 125.221C130.556 123.05 122.521 133.354 122.177 133.808Z" fill="#1E160B"/>
<path d="M204.418 133.808C202.198 131.772 198.898 129.441 194.604 128.901C190.151 128.337 186.471 129.932 186.017 128.901C185.649 128.067 187.575 125.945 189.697 125.221C196.04 123.05 204.075 133.354 204.418 133.808Z" fill="#1E160B"/>
<path d="M279.09 384.898C273.312 384.371 267.547 383.806 261.744 383.635C258.542 383.536 255.377 383.941 252.212 384.199C252.396 386.002 254.457 406.44 252.2 422.081H295.136C291.529 410.451 287.923 398.834 284.316 387.204C282.586 386.444 280.844 385.659 279.09 384.898Z" fill="#F5B7A3"/>
<path d="M253.322 388.433C253.322 388.433 246.06 375.331 245.079 357.641C245.876 328.703 245.336 287.815 249.581 283.73C263.21 279.265 261.685 321.5 261.685 321.5C261.728 316.127 273.194 318.139 274.384 321.5C275.513 318.507 283.25 316.674 285.618 322.477C308.276 315.092 298.393 383.219 285.488 388.862C284.224 390.064 253.322 388.433 253.322 388.433Z" fill="#F5B7A3"/>
<path d="M284.647 345.588C285.333 338.499 285.462 330.164 285.634 323.063L285.612 322.501C285.612 322.32 286.718 322.085 286.589 322.32C286.475 327.622 286.792 334.607 286.877 339.945C286.949 341.885 286.963 343.824 287.077 345.764L284.147 345.717L284.647 345.588Z" fill="#231509"/>
<path d="M272.431 345.901C273.063 338.218 273.608 329.316 273.709 321.623C273.594 321.365 274.973 321.593 274.973 321.593C274.973 325.059 274.959 330.316 275.002 333.772C275.045 337.337 275.131 342.406 275.361 345.921L272.431 345.901Z" fill="#231509"/>
<path d="M251.832 349.335C260.897 349.666 269.951 349.997 279.016 350.329C280.513 350.378 282.194 350.672 283.666 350.365C284.451 350.206 285.224 349.973 285.997 349.776C287.027 349.519 288.07 349.261 289.1 349.004C289.444 348.918 289.873 348.881 290.192 348.734C290.83 348.439 290.082 348.353 289.701 348.538C290.18 348.476 290.646 348.415 291.124 348.353C290.658 348.169 290.168 347.887 289.677 347.765C288.634 347.519 287.935 348.12 287.039 348.562C284.856 349.629 282.451 349.973 280.047 349.789C280.574 350.095 281.102 350.39 281.629 350.697C280.857 349.629 280.084 348.562 279.311 347.482L278.207 350.181C281.225 349.752 284.267 349.654 287.309 349.801C287.15 348.599 286.978 347.397 286.819 346.182C286.267 346.28 285.702 346.391 285.15 346.489C285.629 347.605 286.095 348.734 286.573 349.85C287.395 349.494 288.242 349.151 289.113 348.955C289.456 348.869 289.8 348.807 290.155 348.795C290.388 348.771 290.621 348.783 290.855 348.832C291.627 349.016 291.664 348.366 290.977 346.894C291.456 346.832 291.922 346.771 292.4 346.71C290.953 346.44 289.701 345.802 288.193 345.704C286.671 345.606 285.138 345.851 283.703 346.329C282.108 346.869 281.813 349.482 283.703 349.875C285.837 350.329 287.972 350.476 290.143 350.267C289.984 349.065 289.812 347.863 289.652 346.648C287.542 347.2 285.469 347.421 283.298 347.323C283.605 348.464 283.923 349.605 284.23 350.746C285.702 349.703 287.248 348.856 288.941 348.255C290.842 347.581 290.609 344.673 288.45 344.636C279.483 344.477 270.515 344.587 261.56 344.98C259.573 345.066 258.959 348.12 261.069 348.599C265.436 349.58 269.865 350.23 274.33 350.549V346.869C270.626 347.041 266.921 347.213 263.216 347.372C260.861 347.482 260.836 350.991 263.216 351.052C266.958 351.138 270.699 351.236 274.428 351.322V347.642C272.699 347.63 270.969 347.617 269.239 347.605V351.285C274.539 351.114 279.838 350.93 285.138 350.758C287.493 350.684 287.518 347.078 285.138 347.078L274.195 347.053C271.815 347.053 271.84 350.598 274.195 350.733C274.662 350.758 275.115 350.782 275.582 350.807V347.127C270.012 347.397 264.443 347.298 258.886 346.832V350.513C260.996 350.365 263.106 350.23 265.216 350.083C267.559 349.924 267.608 346.477 265.216 346.403C262.32 346.317 259.425 346.231 256.53 346.145V349.826C258.186 349.764 259.83 349.703 261.486 349.654C263.866 349.568 263.842 346.121 261.486 345.974L255.377 345.606V349.286C256.898 349.261 258.407 349.286 259.928 349.421C261.425 349.543 262.946 349.985 264.431 350.034C265.436 350.071 266.479 349.936 267.485 349.887C271.631 349.678 275.778 349.629 279.912 349.543V345.863C277.495 345.961 275.091 346.072 272.674 346.17C270.307 346.268 270.307 349.74 272.674 349.85C274.662 349.936 276.661 350.022 278.648 350.108V346.428C276.44 346.697 274.244 346.967 272.036 347.237C269.718 347.519 269.693 351.2 272.036 350.917C274.244 350.648 276.453 350.378 278.648 350.108C280.942 349.826 281.077 346.538 278.648 346.428C276.661 346.342 274.662 346.256 272.674 346.17V349.85C275.091 349.752 277.495 349.642 279.912 349.543C282.267 349.445 282.292 345.814 279.912 345.863C275.766 345.949 271.619 345.998 267.485 346.207C266.455 346.256 265.387 346.378 264.369 346.317C262.897 346.231 261.413 345.863 259.928 345.741C258.419 345.618 256.898 345.581 255.377 345.606C252.997 345.655 253.022 349.139 255.377 349.286L261.486 349.654V345.974C259.83 346.035 258.186 346.096 256.53 346.145C254.163 346.231 254.163 349.752 256.53 349.826C259.425 349.911 262.32 349.997 265.216 350.083V346.403C263.106 346.55 260.996 346.685 258.886 346.832C256.506 346.992 256.53 350.316 258.886 350.513C264.443 350.979 270.012 351.077 275.582 350.807C277.949 350.684 277.949 347.262 275.582 347.127C275.115 347.102 274.662 347.078 274.195 347.053V350.733L285.138 350.758V347.078C279.838 347.249 274.539 347.433 269.239 347.605C266.884 347.679 266.859 351.261 269.239 351.285C270.969 351.298 272.699 351.31 274.428 351.322C276.796 351.347 276.796 347.703 274.428 347.642C270.687 347.556 266.945 347.458 263.216 347.372V351.052C266.921 350.881 270.626 350.709 274.33 350.549C276.71 350.439 276.686 347.041 274.33 346.869C270.184 346.575 266.099 345.961 262.051 345.054C261.891 346.256 261.719 347.458 261.56 348.672C270.515 348.292 279.483 348.182 288.45 348.329C288.291 347.127 288.119 345.925 287.959 344.71C285.96 345.422 284.107 346.354 282.378 347.568C280.906 348.611 281.396 350.917 283.31 351.003C285.788 351.114 288.242 350.831 290.646 350.194C292.597 349.678 292.278 346.366 290.155 346.575C288.315 346.759 286.512 346.697 284.696 346.317V349.862C286.806 349.151 288.634 349.298 290.707 349.997C292.351 350.549 294.204 349.862 294.179 347.826C294.155 345.949 292.302 345.176 290.683 345.103C288.585 345.004 286.61 345.851 284.721 346.661C282.684 347.532 284.23 350.378 286.144 350.022C286.696 349.924 287.26 349.813 287.812 349.715C289.935 349.323 289.309 346.194 287.322 346.096C283.936 345.937 280.599 346.133 277.25 346.612C276.121 346.771 275.508 348.427 276.146 349.31C276.588 349.924 277.029 350.537 277.471 351.15C277.925 351.776 278.44 352.77 279.115 353.175C280.513 354.009 283.236 353.432 284.733 353.15C286.61 352.782 288.413 352.034 290.057 351.065C289.579 351.126 289.113 351.187 288.634 351.249C289.113 351.445 289.64 351.752 290.143 351.862C291.235 352.095 292.241 351.433 292.879 350.598C294.265 348.746 293.504 346.059 291.333 345.238C290.168 344.796 289.162 345.164 288.021 345.446C286.635 345.79 285.236 346.133 283.85 346.489C282.304 346.881 280.967 346.685 279.335 346.624C276.281 346.513 273.226 346.403 270.172 346.293C264.062 346.072 257.953 345.851 251.844 345.618C249.464 345.569 249.464 349.249 251.832 349.335Z" fill="#F5B7A3"/>
<path d="M278.452 345.863C282.219 345.704 286.083 345.434 289.849 345.753C290.291 345.789 290.744 345.826 291.162 345.937C291.382 345.998 291.407 345.986 291.456 346.023C291.358 345.949 291.677 346.611 291.775 346.906C292.143 348.059 292.229 349.629 291.726 350.77C291.358 351.604 290.879 351.727 290.045 351.948C286.39 352.892 282.427 353.027 278.673 353.224C278.097 353.248 277.643 353.739 277.655 354.328C277.716 358.081 277.79 361.848 277.9 365.601C277.949 366.963 279.839 358.008 279.777 354.254C279.434 354.622 279.09 354.99 278.759 355.358C282.55 355.162 286.439 354.929 290.143 354.119C292.18 353.677 293.517 352.831 294.008 350.66C294.425 348.856 294.351 345.421 292.609 344.244C291.787 343.692 290.524 343.692 289.579 343.63C287.678 343.495 285.764 343.532 283.862 343.569C278.403 343.679 272.957 344.011 267.51 344.342C261.805 344.685 250.311 345.507 250.446 346.292C250.421 346.28 269.117 346.268 278.452 345.863Z" fill="#231509"/>
<path d="M260.708 345.901C261.13 338.061 261.685 329.332 261.685 321.482C261.685 320.035 262.662 319.546 262.662 319.546C262.662 323.082 262.394 329.998 262.423 333.524C262.451 337.162 262.509 342.335 262.662 345.921L260.708 345.901Z" fill="#231509"/>
</g>
<defs>
<clipPath id="clip0_2890_123231">
<rect width="327" height="422" rx="16" fill="white"/>
</clipPath>
</defs>
</svg>
