<svg width="327" height="422" viewBox="0 0 327 422" fill="none" xmlns="http://www.w3.org/2000/svg">
<g clip-path="url(#clip0_2890_123292)">
<rect width="327" height="422" rx="16" fill="white"/>
<path d="M197.233 37.7017C197.233 55.6631 180.204 70.2138 159.2 70.2138C138.196 70.2138 121.167 55.6631 121.167 37.7017C121.167 19.7404 138.196 5.1897 159.2 5.1897C180.204 5.1897 197.233 19.7404 197.233 37.7017Z" fill="#1E160B"/>
<path d="M351.818 347.474C341.206 344.112 292.683 343.806 305.749 313.122C306.068 312.373 321.232 279.542 320.693 270.181C320.435 265.789 319.134 262.624 318.202 260.366C309.761 239.89 286.868 241.841 273.384 226.014C262.944 213.758 263.839 196.164 265.913 160.99C267.164 139.814 271.213 128.944 265.913 110.688C265.913 110.688 261.876 96.7755 252.221 83.6971C231.217 55.2583 194.264 46.1917 175.026 43.2718V41.3824H155.102V41.9958C138.085 44.0324 95.9422 51.9335 72.9262 83.096C63.2584 96.1744 59.2343 110.087 59.2343 110.087C53.9343 128.343 57.9829 139.213 59.2343 160.389C61.3077 195.563 62.2156 213.156 51.7627 225.413C38.2794 241.239 15.386 239.289 6.94516 259.765C6.01274 262.023 4.71222 265.188 4.45457 269.58C3.91475 278.941 19.1279 311.76 19.3978 312.521C29.9857 342.579 -33.2025 343.417 -43.8149 346.778L-43.8149 425.719C-43.8149 424.493 162.574 422.939 162.574 422.939L162.561 420.485H162.586C162.574 422.473 162.574 423.54 162.574 423.54C162.574 423.54 351.818 423.54 351.818 424.767" fill="#1E160B"/>
<path d="M-21.7635 424.166C-17.4204 412.277 34.6725 337.058 97.2428 302.706C113.401 296.78 174.278 267.188 230.972 302.706C327.036 362.896 350.297 430.46 346.297 424.166" fill="#FD4C54"/>
<path d="M190.485 274.488L230.972 302.706C203.981 354.234 136.503 370.184 97.243 302.706L136.503 275.715V208.237H190.485V274.488Z" fill="#F5B7A3"/>
<path d="M190.043 234.467C189.957 234.517 189.859 234.553 189.773 234.59V234.602C189.871 234.553 189.957 234.517 190.043 234.467Z" fill="#1E160B"/>
<path d="M192.939 232.774C191.712 222.959 164.156 245.46 164.156 245.46C173.198 244.65 181.995 243.374 190.485 240.135C190.485 239.35 194.165 242.589 192.939 232.774Z" fill="#1E160B"/>
<path d="M190.718 70.8519C182.793 66.4229 174.953 63.9324 167.997 62.5583H155.323C148.367 63.9447 140.527 66.4229 132.602 70.8519C124.32 75.4895 81.8827 111.596 88.5937 163.174C91.6731 186.754 103.561 202.446 110.739 211.917C110.739 211.917 130.037 237.375 161.372 247.926C161.507 247.975 161.654 247.975 161.654 247.975C161.654 247.975 161.789 247.975 161.936 247.926C192.191 237.731 211.342 213.144 211.342 213.144C219.169 203.096 231.536 187.208 234.714 163.174C241.548 111.559 198.926 75.4527 190.718 70.8519Z" fill="#F5B7A3"/>
<path d="M147 210.859C151.72 206.929 158.17 206.199 167 209.859V210.859C159 208.859 152.93 208.599 147 210.859Z" fill="#1E160B"/>
<path d="M235.265 163.456C251.35 127.877 195.858 37.9592 167.984 55.4912C128.834 25.801 49.1371 130.882 88.2865 160.573C88.2865 160.573 106.076 127.386 122.393 108.247C137.962 89.9785 153.814 76.8387 166.561 67.7599C179.578 78.5564 195.687 94.1744 210.728 115.608C221.831 131.422 229.757 150.684 235.265 163.456Z" fill="#1E160B"/>
<path d="M164.107 67.7601C161.261 91.8067 151.839 108.247 151.839 108.247C151.839 108.247 163.862 100.935 167.788 88.6168C172.315 74.4465 166.794 60.2884 165.334 60.3988C164.672 60.4479 164.61 63.5028 164.107 67.7601Z" fill="#1E160B"/>
<path d="M93.5619 160.389C87.9796 159.432 82.0661 162.462 78.8394 166.523C71.9322 175.222 75.8949 190.496 84.9738 198.422C92.0283 204.581 104.322 208.151 109.511 203.329C118.075 195.367 108.959 163.014 93.5619 160.389Z" fill="#F5B7A3"/>
<path d="M244.259 166.523C241.032 162.462 235.106 159.432 229.536 160.389C214.139 163.027 205.023 195.367 213.587 203.329C218.777 208.151 231.058 204.581 238.124 198.422C247.203 190.496 251.166 175.209 244.259 166.523Z" fill="#F5B7A3"/>
<path d="M86.2004 183.699C86.2004 183.699 88.0285 183.012 89.2676 183.086C90.7276 183.172 91.5373 183.429 92.2979 184.546C94.126 187.233 95.5614 190.263 97.1441 193.109C100.592 199.293 104.039 205.488 107.487 211.672C108.063 212.702 109.658 211.782 109.082 210.739L95.8682 187.024C94.445 184.46 92.8132 180.828 89.562 180.252C87.2064 179.835 85.5993 180.632 85.5993 180.632C85.5993 180.632 83.1332 183.086 86.2004 183.699Z" fill="#1E160B"/>
<path d="M214.703 209.513L227.917 185.797C229.352 183.233 230.971 179.602 234.235 179.025C236.59 178.608 238.198 179.406 238.198 179.406C238.198 179.406 240.651 181.859 237.584 182.473C237.584 182.473 235.756 181.786 234.517 181.859C233.057 181.945 232.247 182.203 231.487 183.319C229.659 186.018 228.223 189.036 226.641 191.883C223.193 198.066 219.746 204.262 216.298 210.445" fill="#1E160B"/>
<path d="M137.116 152.819C137.116 158.021 134.098 162.229 130.369 162.229C126.639 162.229 123.621 158.021 123.621 152.819C123.621 147.617 126.639 143.409 130.369 143.409C134.098 143.397 137.116 147.617 137.116 152.819Z" fill="#1E160B"/>
<path d="M183.331 152.819C183.331 158.021 186.35 162.229 190.079 162.229C193.809 162.229 196.827 158.021 196.827 152.819C196.827 147.617 193.809 143.409 190.079 143.409C186.35 143.397 183.331 147.617 183.331 152.819Z" fill="#1E160B"/>
<path d="M155.519 143.826C157.298 164.425 145.679 180.853 144.477 181.859C144.477 181.859 152.66 190.717 153.065 190.447C153.458 190.189 148.157 181.859 148.157 181.859C148.157 181.859 160.426 161.002 155.519 143.826Z" fill="#1E160B"/>
<path d="M119.94 134.011C122.161 131.975 125.461 129.644 129.755 129.104C134.208 128.539 137.889 130.134 138.343 129.104C138.711 128.269 136.785 126.147 134.662 125.423C128.32 123.252 120.284 133.557 119.94 134.011Z" fill="#1E160B"/>
<path d="M202.189 134.011C199.969 131.975 196.668 129.644 192.374 129.104C187.921 128.539 184.24 130.134 183.786 129.104C183.418 128.269 185.344 126.147 187.467 125.423C193.81 123.252 201.846 133.557 202.189 134.011Z" fill="#1E160B"/>
<path d="M276.869 384.973C271.09 384.445 265.324 383.881 259.521 383.709C256.319 383.611 253.153 384.016 249.988 384.274C250.172 386.077 252.233 406.517 249.976 422.159H292.916C289.309 410.529 285.702 398.91 282.095 387.279C280.365 386.519 278.623 385.734 276.869 384.973Z" fill="#F5B7A3"/>
<path d="M290.987 307.436C296.753 327.384 289.514 390.163 280.251 392.507C272.399 394.494 256.119 390.274 252.99 392.409C249.69 394.666 215.154 344.229 218.442 341.972C226.649 336.353 240.697 348.732 240.697 348.732C240.697 348.732 238.256 324.072 240.709 304.393C245.617 283.573 253.248 300.516 253.248 300.516C254.475 283.303 263.391 285.278 267.304 297.756C269.77 289.106 279.293 282.607 282.164 306.114C282.176 306.114 286.558 295.486 290.987 307.436Z" fill="#F5B7A3"/>
<path d="M282.156 306.114C281.235 306.114 281.425 332.3 281.235 332.941C281.235 332.95 281.235 333.047 281.235 333.047H283.092C283.092 333.047 283.092 306.114 282.156 306.114Z" fill="#231509"/>
<path d="M253.374 300.542C252.445 300.542 252.631 332.144 252.445 332.918C252.445 332.928 252.445 333.047 252.445 333.047H254.302C254.302 333.047 254.302 300.542 253.374 300.542Z" fill="#231509"/>
<path d="M267.304 297.756C266.37 297.756 266.571 332.069 266.375 332.908C266.375 332.92 266.375 333.047 266.375 333.047H268.23C268.244 333.047 268.238 297.756 267.304 297.756Z" fill="#231509"/>
</g>
<defs>
<clipPath id="clip0_2890_123292">
<rect width="327" height="422" rx="16" fill="white"/>
</clipPath>
</defs>
</svg>
