<svg width="327" height="422" viewBox="0 0 327 422" fill="none" xmlns="http://www.w3.org/2000/svg">
<g clip-path="url(#clip0_2890_123759)">
<rect width="327" height="422" rx="16" fill="white"/>
<g clip-path="url(#clip1_2890_123759)">
<path d="M199.326 35.1221C199.326 53.5255 181.878 68.4342 160.358 68.4342C138.837 68.4342 121.389 53.5255 121.389 35.1221C121.389 16.7187 138.837 1.81 160.358 1.81C181.878 1.81 199.326 16.7187 199.326 35.1221Z" fill="#1E160B"/>
<path d="M373.983 353C363.109 349.556 297.126 348.759 310.513 317.32C310.84 316.553 326.377 282.914 325.824 273.322C325.56 268.822 324.228 265.579 323.272 263.266C314.624 242.286 291.167 244.284 277.352 228.068C266.654 215.51 267.572 197.484 269.696 161.444C270.979 139.747 275.127 128.61 269.696 109.905C269.696 109.905 265.561 95.6495 255.668 82.2493C234.147 53.1106 196.284 43.8209 176.573 40.8291V38.8932H156.159V39.5218C138.723 41.6085 95.5433 49.704 71.9609 81.6333C62.0552 95.0336 57.9321 109.289 57.9321 109.289C52.5016 127.994 56.6499 139.131 57.9321 160.828C60.0565 196.868 60.9867 214.894 50.2766 227.452C36.4615 243.668 13.0048 241.67 4.3562 262.65C3.40084 264.963 2.06831 268.206 1.80433 272.707C1.25122 282.298 16.8388 315.924 17.1153 316.704C27.9638 347.502 -37.1264 348.457 -48 351.901V432C-48 430.743 163.814 429.839 163.814 429.839L163.802 427.325H163.827C163.814 429.361 163.814 430.455 163.814 430.455C163.814 430.455 373.983 431.712 373.983 432.969" fill="#1E160B"/>
<path d="M-25.0591 431.096C-20.6091 418.915 32.7657 341.845 96.8758 306.647C113.431 300.576 175.807 270.255 233.895 306.647C332.323 368.319 356.157 437.545 352.059 431.096" fill="#FD4C54"/>
<path d="M192.413 277.735L233.896 306.647C206.24 359.444 137.102 375.786 96.876 306.647L137.102 278.992V209.854H192.413V277.735Z" fill="#F5B7A3"/>
<path d="M191.96 236.73C191.872 236.78 191.771 236.818 191.683 236.855V236.868C191.784 236.818 191.872 236.78 191.96 236.73Z" fill="#1E160B"/>
<path d="M194.927 234.995C193.67 224.938 165.436 247.993 165.436 247.993C174.701 247.163 183.714 245.856 192.413 242.537C192.413 241.733 196.184 245.051 194.927 234.995Z" fill="#1E160B"/>
<path d="M192.651 69.0879C184.53 64.5499 176.498 61.9981 169.37 60.5901H156.385C149.257 62.0106 141.225 64.5499 133.104 69.0879C124.619 73.8395 81.1372 110.835 88.0133 163.682C91.1685 187.842 103.349 203.92 110.703 213.625C110.703 213.625 130.477 239.709 162.582 250.519C162.72 250.57 162.871 250.57 162.871 250.57C162.871 250.57 163.009 250.57 163.16 250.519C194.159 240.073 213.782 214.882 213.782 214.882C221.802 204.586 234.473 188.307 237.729 163.682C244.731 110.797 201.061 73.8018 192.651 69.0879Z" fill="#F5B7A3"/>
<path d="M148 212.579C152.72 208.649 159.17 207.919 168 211.579V212.579C160 210.579 153.93 210.319 148 212.579Z" fill="#1E160B"/>
<path d="M238.295 163.971C254.775 127.516 197.919 35.3861 169.358 53.3495C129.245 22.9286 47.5868 130.596 87.6996 161.017C87.6996 161.017 105.927 127.013 122.646 107.403C138.598 88.6854 154.839 75.2223 167.9 65.9201C181.237 76.9822 197.743 92.9846 213.154 114.945C224.531 131.149 232.651 150.885 238.295 163.971Z" fill="#1E160B"/>
<path d="M165.386 65.9202C162.469 90.5585 152.815 107.403 152.815 107.403C152.815 107.403 165.134 99.9111 169.157 87.2902C173.795 72.7711 168.139 58.2647 166.643 58.3778C165.964 58.4281 165.901 61.5582 165.386 65.9202Z" fill="#1E160B"/>
<path d="M93.1048 160.828C87.3851 159.848 81.3261 162.953 78.02 167.113C70.9428 176.026 75.0031 191.676 84.3053 199.797C91.5334 206.107 104.129 209.766 109.447 204.825C118.221 196.667 108.881 163.518 93.1048 160.828Z" fill="#F5B7A3"/>
<path d="M247.509 167.113C244.203 162.953 238.132 159.848 232.425 160.828C216.648 163.531 207.308 196.667 216.083 204.825C221.4 209.766 233.983 206.107 241.224 199.797C250.526 191.676 254.586 176.013 247.509 167.113Z" fill="#F5B7A3"/>
<path d="M85.5623 184.712C85.5623 184.712 87.4353 184.008 88.705 184.084C90.2009 184.172 91.0305 184.436 91.8099 185.58C93.6829 188.333 95.1537 191.438 96.7753 194.354C100.308 200.689 103.84 207.038 107.372 213.373C107.963 214.429 109.597 213.486 109.007 212.418L95.468 188.119C94.0098 185.492 92.3379 181.771 89.0067 181.18C86.5931 180.753 84.9464 181.57 84.9464 181.57C84.9464 181.57 82.4197 184.084 85.5623 184.712Z" fill="#1E160B"/>
<path d="M217.227 211.161L230.765 186.862C232.236 184.235 233.895 180.514 237.239 179.923C239.653 179.496 241.299 180.313 241.299 180.313C241.299 180.313 243.813 182.827 240.671 183.455C240.671 183.455 238.798 182.751 237.528 182.827C236.032 182.915 235.203 183.179 234.423 184.323C232.55 187.088 231.079 190.181 229.458 193.097C225.925 199.432 222.393 205.781 218.861 212.116" fill="#1E160B"/>
<path d="M137.73 153.072C137.73 158.402 134.638 162.714 130.817 162.714C126.995 162.714 123.903 158.402 123.903 153.072C123.903 147.742 126.995 143.43 130.817 143.43C134.638 143.418 137.73 147.742 137.73 153.072Z" fill="#1E160B"/>
<path d="M185.083 153.072C185.083 158.402 188.176 162.714 191.997 162.714C195.819 162.714 198.911 158.402 198.911 153.072C198.911 147.742 195.819 143.43 191.997 143.43C188.176 143.418 185.083 147.742 185.083 153.072Z" fill="#1E160B"/>
<path d="M156.586 143.858C158.409 164.964 146.504 181.796 145.272 182.827C145.272 182.827 153.657 191.903 154.072 191.626C154.474 191.362 149.044 182.827 149.044 182.827C149.044 182.827 161.614 161.457 156.586 143.858Z" fill="#1E160B"/>
<path d="M120.131 133.801C122.407 131.715 125.788 129.326 130.188 128.773C134.751 128.195 138.522 129.829 138.987 128.773C139.364 127.918 137.391 125.744 135.216 125.002C128.717 122.777 120.483 133.336 120.131 133.801Z" fill="#1E160B"/>
<path d="M204.405 133.801C202.13 131.715 198.748 129.326 194.348 128.773C189.785 128.195 186.014 129.829 185.549 128.773C185.172 127.918 187.145 125.744 189.32 125.002C195.819 122.777 204.053 133.336 204.405 133.801Z" fill="#1E160B"/>
<path d="M300.201 370.278C301.695 356.228 273.823 312.751 252.457 320.979C246.558 320.565 241.846 323.597 240.027 328.612C240.027 328.612 228.169 332.759 231.379 339.506C219.907 347.614 221.845 357.844 238.376 369.255C220.476 369.447 198.873 404.967 235.864 390.526C249.955 383.942 258.061 395.337 275.615 393.721C281.052 397.814 300.201 370.278 300.201 370.278Z" fill="#F5B7A3"/>
<path d="M247.051 374.05C244.18 373.62 240.708 371.168 236.24 367.817C236.24 367.817 247.051 374.05 251.887 370.872C254.031 369.884 255.072 367.853 255.166 366.291L255.273 364.388L257.03 365.134C259.767 366.294 261.965 365.365 263.323 364.361C265.506 362.768 266.935 359.932 266.725 357.6L266.515 355.268L268.642 356.26C272.908 358.246 280.435 354.238 277.552 347.438L276.479 344.926L278.875 345.221C281.337 345.844 283.654 344.12 283.903 341.437C284.271 337.539 282.055 333.749 282.141 333.851C284.799 336.982 286.655 339.192 285.985 342.727C285.816 343.35 284.332 347.488 280.245 347.956C280.813 350.952 280.366 354.444 278.139 356.589C275.746 358.9 272.367 359.906 269.356 359.303C268.971 362.042 267.327 364.783 264.917 366.532C262.663 368.177 260.09 368.719 257.55 368.11C256.984 370.021 255.591 372.113 253.023 373.304C251.585 373.992 249.612 374.433 247.051 374.05Z" fill="#231509"/>
<path d="M231.101 339.325C231.099 339.337 231.083 339.36 231.081 339.373L257.455 367.727L258.388 366.761L231.101 339.325Z" fill="#231509"/>
<path d="M268.971 357.033C262.441 350.221 262.23 350.444 239.887 328.527C239.869 328.563 239.864 328.6 239.847 328.623L268.081 358.565L269.462 357.323L268.971 357.033Z" fill="#231509"/>
<path d="M281.253 347.166C280.809 346.566 270.669 338.311 265.234 332.845C260.915 328.499 254.747 322.923 252.393 320.816C252.354 320.823 252.327 320.832 252.29 320.826C255.229 323.859 259.341 328.822 264.28 333.782C269.714 339.261 276.105 345.811 279.092 348.699C279.663 348.11 281.699 347.754 281.253 347.166Z" fill="#231509"/>
<path d="M297.626 366.079L270.175 387.097L303.635 432.897L339.165 446L347 422L297.626 366.079Z" fill="#F5B7A3"/>
</g>
</g>
<defs>
<clipPath id="clip0_2890_123759">
<rect width="327" height="422" rx="16" fill="white"/>
</clipPath>
<clipPath id="clip1_2890_123759">
<rect width="422" height="422" fill="white" transform="translate(-48 1)"/>
</clipPath>
</defs>
</svg>
