<svg width="327" height="422" viewBox="0 0 327 422" fill="none" xmlns="http://www.w3.org/2000/svg">
<g clip-path="url(#clip0_2890_123694)">
<rect width="327" height="422" rx="16" fill="white"/>
<g clip-path="url(#clip1_2890_123694)">
<g clip-path="url(#clip2_2890_123694)">
<path d="M199.29 35.2791C199.29 53.6642 181.859 68.5581 160.36 68.5581C138.86 68.5581 121.43 53.6642 121.43 35.2791C121.43 16.894 138.86 2 160.36 2C181.859 2 199.29 16.894 199.29 35.2791Z" fill="#1E160B"/>
<path d="M379 352.36C368.137 348.919 296.993 348.605 310.367 317.197C310.694 316.431 326.216 282.825 325.663 273.243C325.399 268.747 324.068 265.507 323.114 263.197C314.474 242.237 291.04 244.234 277.239 228.034C266.552 215.488 267.469 197.48 269.591 161.476C270.872 139.8 275.016 128.674 269.591 109.987C269.591 109.987 265.459 95.7465 255.576 82.3595C234.077 53.2498 196.251 43.9693 176.56 40.9805V39.0465H156.166V39.6744C138.748 41.7591 95.6105 49.8465 72.0514 81.7442C62.1556 95.1312 58.0366 109.372 58.0366 109.372C52.6115 128.059 56.7557 139.185 58.0366 160.86C60.1589 196.865 61.0882 214.873 50.3886 227.419C36.5872 243.619 13.1538 241.622 4.5138 262.581C3.55938 264.892 2.22818 268.132 1.96446 272.628C1.4119 282.21 16.984 315.803 17.2603 316.581C28.0979 347.349 -32.1372 348.303 -43 351.744V430.86C-43 429.605 163.814 429.605 163.814 429.605L163.801 427.093H163.826C163.814 429.127 163.814 430.22 163.814 430.22C163.814 430.22 379 430.22 379 431.476" fill="#1E160B"/>
<path d="M-24.873 430.861C-20.4275 418.692 32.8944 341.698 96.9409 306.535C113.48 300.469 175.793 270.179 233.825 306.535C332.155 368.145 355.965 437.303 351.871 430.861" fill="#FD4C54"/>
<path d="M192.383 277.651L233.825 306.535C206.197 359.279 137.127 375.605 96.9409 306.535L137.127 278.907V209.837H192.383V277.651Z" fill="#F5B7A3"/>
<path d="M191.931 236.687C191.843 236.737 191.743 236.774 191.655 236.812V236.825C191.755 236.774 191.843 236.737 191.931 236.687Z" fill="#1E160B"/>
<path d="M194.894 234.953C193.638 224.907 165.433 247.939 165.433 247.939C174.688 247.11 183.692 245.804 192.382 242.488C192.382 241.685 196.15 245 194.894 234.953Z" fill="#1E160B"/>
<path d="M192.621 69.2111C184.508 64.6777 176.484 62.1284 169.363 60.7219H156.391C149.27 62.1409 141.245 64.6777 133.133 69.2111C124.656 73.9581 81.2175 110.917 88.0868 163.711C91.2389 187.848 103.408 203.91 110.754 213.605C110.754 213.605 130.508 239.663 162.582 250.463C162.72 250.513 162.871 250.513 162.871 250.513C162.871 250.513 163.009 250.513 163.159 250.463C194.128 240.027 213.731 214.86 213.731 214.86C221.743 204.575 234.402 188.313 237.654 163.711C244.649 110.879 201.022 73.9204 192.621 69.2111Z" fill="#F5B7A3"/>
<path d="M148 212.579C152.72 208.649 159.17 207.919 168 211.579V212.579C160 210.579 153.93 210.319 148 212.579Z" fill="#1E160B"/>
<path d="M238.222 164C254.686 127.581 197.885 35.5427 169.353 53.4883C129.28 23.0976 47.7023 130.658 87.7753 161.049C87.7753 161.049 105.985 127.079 122.687 107.488C138.623 88.7892 154.848 75.3395 167.896 66.0465C181.22 77.0976 197.709 93.0841 213.105 115.023C224.471 131.211 232.583 150.927 238.222 164Z" fill="#1E160B"/>
<path d="M165.384 66.0465C162.471 90.6605 152.826 107.488 152.826 107.488C152.826 107.488 165.133 100.004 169.152 87.3954C173.786 72.8907 168.135 58.3986 166.64 58.5116C165.962 58.5619 165.899 61.6889 165.384 66.0465Z" fill="#1E160B"/>
<path d="M93.1727 160.86C87.4587 159.881 81.4057 162.983 78.1029 167.139C71.0327 176.043 75.0889 191.678 84.382 199.791C91.6029 206.095 104.186 209.749 109.498 204.814C118.264 196.664 108.933 163.548 93.1727 160.86Z" fill="#F5B7A3"/>
<path d="M247.427 167.139C244.125 162.983 238.059 159.881 232.358 160.86C216.597 163.56 207.266 196.664 216.032 204.814C221.344 209.749 233.915 206.095 241.148 199.791C250.441 191.678 254.498 176.031 247.427 167.139Z" fill="#F5B7A3"/>
<path d="M85.6394 184.721C85.6394 184.721 87.5105 184.018 88.7789 184.093C90.2733 184.181 91.1021 184.445 91.8807 185.587C93.7519 188.338 95.2212 191.439 96.8412 194.353C100.37 200.682 103.899 207.024 107.428 213.353C108.018 214.408 109.651 213.466 109.06 212.399L95.5352 188.124C94.0784 185.499 92.4082 181.782 89.0803 181.192C86.6691 180.765 85.024 181.581 85.024 181.581C85.024 181.581 82.4998 184.093 85.6394 184.721Z" fill="#1E160B"/>
<path d="M217.173 211.143L230.698 186.868C232.168 184.244 233.825 180.527 237.166 179.936C239.577 179.509 241.222 180.326 241.222 180.326C241.222 180.326 243.734 182.837 240.594 183.465C240.594 183.465 238.723 182.762 237.455 182.837C235.96 182.925 235.131 183.189 234.353 184.332C232.482 187.094 231.012 190.184 229.392 193.097C225.864 199.426 222.335 205.768 218.806 212.098" fill="#1E160B"/>
<path d="M137.755 153.112C137.755 158.437 134.666 162.744 130.848 162.744C127.03 162.744 123.941 158.437 123.941 153.112C123.941 147.787 127.03 143.48 130.848 143.48C134.666 143.467 137.755 147.787 137.755 153.112Z" fill="#1E160B"/>
<path d="M185.062 153.112C185.062 158.437 188.152 162.744 191.969 162.744C195.787 162.744 198.876 158.437 198.876 153.112C198.876 147.787 195.787 143.48 191.969 143.48C188.152 143.467 185.062 147.787 185.062 153.112Z" fill="#1E160B"/>
<path d="M156.593 143.907C158.414 164.992 146.521 181.807 145.291 182.837C145.291 182.837 153.667 191.904 154.081 191.628C154.483 191.364 149.058 182.837 149.058 182.837C149.058 182.837 161.616 161.488 156.593 143.907Z" fill="#1E160B"/>
<path d="M120.174 133.861C122.447 131.776 125.825 129.39 130.22 128.837C134.779 128.26 138.546 129.892 139.011 128.837C139.388 127.983 137.416 125.811 135.244 125.07C128.751 122.847 120.525 133.396 120.174 133.861Z" fill="#1E160B"/>
<path d="M204.364 133.861C202.091 131.776 198.713 129.39 194.318 128.837C189.759 128.26 185.992 129.892 185.527 128.837C185.15 127.983 187.122 125.811 189.294 125.07C195.787 122.847 204.013 133.396 204.364 133.861Z" fill="#1E160B"/>
<path d="M294.547 371.192L264.803 388.75L292.503 438.182L327.105 447.716L333.855 423.406L294.547 371.192Z" fill="#F5B7A3"/>
<path d="M266.173 389.649C251.685 383.276 207.919 346.029 229.964 332.528C233.119 322.301 240.121 321.898 240.121 321.898C240.121 321.898 244.107 311.924 251.565 314.675C252.458 313.706 253.768 309.825 259.569 310.064C269.96 312.45 284.422 328.438 281.808 329.066C281.808 329.066 287.717 314.822 296.999 307.109C298.462 306.19 303.945 302.938 306.902 305.554C309.043 307.441 296.846 340.662 295.808 345.981C294.8 351.11 297.82 369.49 296.689 374.226C299.61 380.135 266.173 389.649 266.173 389.649Z" fill="#F5B7A3"/>
<path d="M239.893 341.825L229.9 332.518L229.716 332.691L238.686 342.558C238.752 342.596 238.882 342.643 238.882 342.643C239.2 342.761 239.459 342.749 239.646 342.604C239.877 342.448 239.943 342.125 239.893 341.825Z" fill="#231509"/>
<path d="M250.22 330.549L240.114 321.803C240.037 321.868 239.952 321.917 239.852 321.933L249.055 331.35L249.196 331.402C249.538 331.528 249.813 331.509 250 331.364C250.233 331.169 250.282 330.853 250.22 330.549Z" fill="#231509"/>
<path d="M262.337 322.77L251.671 314.527C251.586 314.576 251.494 314.609 251.387 314.609L251.37 314.617L261.206 323.624L261.241 323.637C261.63 323.781 261.928 323.77 262.141 323.594C262.373 323.399 262.415 323.066 262.337 322.77Z" fill="#231509"/>
</g>
</g>
</g>
<defs>
<clipPath id="clip0_2890_123694">
<rect width="327" height="422" rx="16" fill="white"/>
</clipPath>
<clipPath id="clip1_2890_123694">
<rect width="422" height="422" fill="white" transform="translate(-48 1)"/>
</clipPath>
<clipPath id="clip2_2890_123694">
<rect width="422" height="422" fill="white" transform="translate(-43 1)"/>
</clipPath>
</defs>
</svg>
