<svg width="327" height="422" viewBox="0 0 327 422" fill="none" xmlns="http://www.w3.org/2000/svg">
<g clip-path="url(#clip0_2890_123320)">
<rect width="327" height="422" rx="16" fill="white"/>
<g clip-path="url(#clip1_2890_123320)">
<path d="M196.996 35.2791C196.996 53.6642 179.566 68.5581 158.066 68.5581C136.566 68.5581 119.136 53.6642 119.136 35.2791C119.136 16.894 136.566 2 158.066 2C179.566 2 196.996 16.894 196.996 35.2791Z" fill="#1E160B"/>
<path d="M378 352.36C367.137 348.919 294.699 348.605 308.073 317.197C308.399 316.431 323.921 282.825 323.369 273.243C323.105 268.747 321.774 265.507 320.819 263.197C312.179 242.237 288.746 244.234 274.945 228.034C264.258 215.488 265.174 197.48 267.297 161.476C268.578 139.8 272.722 128.674 267.297 109.987C267.297 109.987 263.165 95.7465 253.282 82.3595C231.782 53.2498 193.957 43.9693 174.266 40.9805V39.0465H153.872V39.6744C136.453 41.7591 93.3162 49.8465 69.7571 81.7442C59.8613 95.1312 55.7423 109.372 55.7423 109.372C50.3172 128.059 54.4614 139.185 55.7423 160.86C57.8646 196.865 58.7939 214.873 48.0944 227.419C34.293 243.619 10.8595 241.622 2.21951 262.581C1.26509 264.892 -0.0661054 268.132 -0.329826 272.628C-0.882384 282.21 14.6897 315.803 14.966 316.581C25.8037 347.349 -33.1372 348.151 -44 351.592L-44 430.929C-44 429.673 161.519 429.605 161.519 429.605L161.507 427.093H161.532C161.519 429.127 161.519 430.22 161.519 430.22C161.519 430.22 378 430.244 378 431.5" fill="#1E160B"/>
<path d="M-27.1665 430.861C-22.7209 418.692 30.6009 341.698 94.6474 306.535C111.187 300.469 173.5 270.179 231.531 306.535C329.861 368.145 353.672 437.303 349.578 430.861" fill="#FD4C54"/>
<path d="M190.089 277.651L231.531 306.535C203.903 359.279 134.834 375.605 94.6475 306.535L134.834 278.907V209.837H190.089V277.651Z" fill="#F5B7A3"/>
<path d="M189.637 236.686C189.549 236.737 189.449 236.774 189.361 236.812V236.825C189.461 236.774 189.549 236.737 189.637 236.686Z" fill="#1E160B"/>
<path d="M192.601 234.953C191.345 224.907 163.14 247.939 163.14 247.939C172.395 247.11 181.399 245.804 190.089 242.488C190.089 241.685 193.857 245 192.601 234.953Z" fill="#1E160B"/>
<path d="M190.328 69.2111C182.215 64.6777 174.191 62.1284 167.07 60.7219H154.098C146.977 62.1409 138.952 64.6777 130.84 69.2111C122.363 73.9581 78.9245 110.917 85.7938 163.711C88.9459 187.848 101.115 203.91 108.461 213.605C108.461 213.605 128.215 239.663 160.289 250.463C160.427 250.513 160.578 250.513 160.578 250.513C160.578 250.513 160.716 250.513 160.866 250.463C191.835 240.027 211.438 214.86 211.438 214.86C219.45 204.575 232.109 188.313 235.361 163.711C242.356 110.879 198.729 73.9204 190.328 69.2111Z" fill="#F5B7A3"/>
<path d="M154.92 215.706C147.96 215.706 142.39 210.496 140.29 208.216C145.63 209.106 151.03 209.566 156.36 209.566C160.81 209.566 165.32 209.246 169.78 208.626C167.58 210.806 161.85 215.706 154.92 215.706Z" fill="white"/>
<path d="M141.71 208.946C146.59 209.686 151.51 210.066 156.37 210.066C160.33 210.066 164.33 209.816 168.31 209.326C165.66 211.676 160.71 215.206 154.92 215.206C149.09 215.196 144.25 211.416 141.71 208.946ZM139 207.476C139 207.476 145.71 216.196 154.92 216.196C164.14 216.196 171.14 207.906 171.14 207.906C166.21 208.666 161.29 209.056 156.36 209.056C150.58 209.056 144.79 208.536 139 207.476Z" fill="black"/>
<path d="M235.926 164C252.39 127.581 195.59 35.5428 167.058 53.4884C126.984 23.0977 45.4069 130.658 85.4799 161.049C85.4799 161.049 103.689 127.079 120.391 107.488C136.328 88.7893 152.553 75.3395 165.601 66.0465C178.925 77.0977 195.414 93.0842 210.81 115.023C222.175 131.211 230.288 150.927 235.926 164Z" fill="#1E160B"/>
<path d="M163.089 66.0465C160.176 90.6605 150.531 107.488 150.531 107.488C150.531 107.488 162.838 100.004 166.857 87.3954C171.491 72.8907 165.84 58.3986 164.345 58.5116C163.667 58.5619 163.604 61.6889 163.089 66.0465Z" fill="#1E160B"/>
<path d="M90.8802 160.86C85.1662 159.881 79.1132 162.983 75.8104 167.139C68.7402 176.043 72.7965 191.678 82.0895 199.791C89.3104 206.095 101.894 209.749 107.206 204.814C115.971 196.664 106.641 163.548 90.8802 160.86Z" fill="#F5B7A3"/>
<path d="M245.131 167.139C241.829 162.983 235.763 159.881 230.062 160.86C214.301 163.56 204.971 196.664 213.736 204.814C219.048 209.749 231.619 206.095 238.852 199.791C248.145 191.678 252.202 176.031 245.131 167.139Z" fill="#F5B7A3"/>
<path d="M83.3449 184.721C83.3449 184.721 85.2161 184.018 86.4845 184.093C87.9789 184.181 88.8077 184.445 89.5863 185.587C91.4575 188.338 92.9268 191.439 94.5468 194.353C98.0756 200.682 101.604 207.024 105.133 213.353C105.724 214.408 107.356 213.466 106.766 212.399L93.2408 188.124C91.784 185.499 90.1138 181.782 86.7859 181.192C84.3747 180.765 82.7296 181.581 82.7296 181.581C82.7296 181.581 80.2054 184.093 83.3449 184.721Z" fill="#1E160B"/>
<path d="M214.879 211.143L228.404 186.868C229.873 184.244 231.531 180.527 234.871 179.936C237.283 179.509 238.928 180.326 238.928 180.326C238.928 180.326 241.439 182.837 238.3 183.465C238.3 183.465 236.429 182.762 235.16 182.837C233.666 182.925 232.837 183.189 232.058 184.332C230.187 187.094 228.718 190.184 227.098 193.097C223.569 199.426 220.04 205.768 216.511 212.098" fill="#1E160B"/>
<path d="M135.461 153.112C135.461 158.437 132.372 162.744 128.554 162.744C124.737 162.744 121.647 158.437 121.647 153.112C121.647 147.787 124.737 143.48 128.554 143.48C132.372 143.467 135.461 147.787 135.461 153.112Z" fill="#1E160B"/>
<path d="M182.768 153.112C182.768 158.437 185.857 162.744 189.675 162.744C193.492 162.744 196.582 158.437 196.582 153.112C196.582 147.787 193.492 143.48 189.675 143.48C185.857 143.467 182.768 147.787 182.768 153.112Z" fill="#1E160B"/>
<path d="M154.298 143.907C156.119 164.992 144.227 181.807 142.996 182.837C142.996 182.837 151.372 191.904 151.787 191.628C152.189 191.364 146.764 182.837 146.764 182.837C146.764 182.837 159.322 161.488 154.298 143.907Z" fill="#1E160B"/>
<path d="M117.88 133.861C120.153 131.776 123.531 129.39 127.926 128.837C132.485 128.26 136.252 129.892 136.717 128.837C137.094 127.983 135.122 125.811 132.95 125.07C126.457 122.847 118.232 133.396 117.88 133.861Z" fill="#1E160B"/>
<path d="M202.07 133.861C199.797 131.776 196.419 129.39 192.023 128.837C187.465 128.26 183.697 129.892 183.233 128.837C182.856 127.983 184.827 125.811 187 125.07C193.493 122.847 201.718 133.396 202.07 133.861Z" fill="#1E160B"/>
<path d="M278.511 390.9C272.596 390.36 266.694 389.783 260.754 389.607C257.476 389.506 254.236 389.921 250.996 390.185C251.184 392.031 253.294 412.952 250.983 428.964H294.937C291.245 417.059 287.553 405.166 283.861 393.261C282.09 392.483 280.307 391.679 278.511 390.9Z" fill="#F5B7A3"/>
<path d="M292.533 339.461C288.163 335.819 285.187 336.598 282.763 336.786C281.984 333.471 281.091 332.515 279.473 330.495C277.539 327.858 267.819 325.107 266.525 329.076C273.897 313.165 278.405 295.407 272.779 293.461C265.571 291.163 261.793 301.505 256.192 310.133C250.591 300.589 245.754 294.051 241.283 294.39C239.211 294.528 237.453 295.696 237.189 298.107C236.75 302.251 239.921 310.413 246.979 328.559C245.848 330.644 245.528 329.992 241.246 339.298C236.963 348.604 237.528 362.317 242.954 379.321C252.322 397.492 259.254 394.968 270.117 398.171C289.532 403.897 300.723 348.009 292.533 339.461Z" fill="#F5B7A3"/>
<path d="M256.308 345.729C258.092 343.142 260.214 340.417 262.964 338.784C265.074 337.541 267.234 337.566 268.754 339.663C269.771 341.057 270.449 342.765 270.298 344.511C270.122 346.545 269.231 348.529 268.377 350.35C267.221 352.812 265.941 355.223 264.647 357.621C264.421 358.036 264.484 358.764 264.986 358.915C271.215 360.786 278.059 371.8 277.708 370.632C276 364.905 271.341 359.857 265.941 357.282C266.054 357.709 266.167 358.136 266.28 358.576C267.636 356.039 269.005 353.502 270.198 350.89C271.114 348.868 271.994 346.746 272.182 344.511C272.333 342.64 271.692 340.856 270.738 339.261C269.344 336.963 267.096 335.532 264.358 336.172C261.307 336.888 258.795 339.525 256.886 341.848C253.571 345.88 248.962 355.298 248.962 355.298C248.962 355.298 254.048 349.019 256.308 345.729Z" fill="#231509"/>
<path d="M266.718 356.833C271.569 360.217 278.453 361.323 284.386 359.237C290.025 357.256 293.972 352.775 295.076 347.89C295.276 346.986 293.584 346.592 293.373 347.505C292.398 351.832 289.097 355.804 284.186 357.737C278.876 359.823 272.392 358.9 267.963 355.813C267.105 355.208 265.86 356.227 266.718 356.833Z" fill="#231509"/>
<path d="M273.305 358.044C276.89 351.386 279.168 344.03 282.753 337.371C283.004 336.907 282.325 336.486 282.074 336.951C278.489 343.61 276.211 350.965 272.626 357.624C272.375 358.089 273.054 358.509 273.305 358.044Z" fill="#231509"/>
<path d="M246.979 328.558C247.013 328.704 256.429 310.244 256.187 310.133Z" fill="#231509"/>
<path d="M246.979 328.559L246.467 327.536C249.964 320.707 255.436 311.039 255.59 310.378L255.867 310.443L256.192 310.133L256.184 310.312C256.192 310.645 256.086 310.77 246.979 328.559Z" fill="#231509"/>
<path d="M262.576 337.773C265.523 332.301 267.592 327.606 267.445 327.536L262.334 337.766C262.417 337.766 262.5 337.766 262.576 337.773Z" fill="#231509"/>
<path d="M262.576 337.773C265.523 332.301 267.592 327.606 267.445 327.536L262.334 337.766C262.417 337.766 262.5 337.766 262.576 337.773Z" stroke="#231509" stroke-width="0.75" stroke-miterlimit="10"/>
</g>
</g>
<defs>
<clipPath id="clip0_2890_123320">
<rect width="327" height="422" rx="16" fill="white"/>
</clipPath>
<clipPath id="clip1_2890_123320">
<rect width="422" height="422" fill="white" transform="translate(-47 1)"/>
</clipPath>
</defs>
</svg>
