<svg width="327" height="422" viewBox="0 0 327 422" fill="none" xmlns="http://www.w3.org/2000/svg">
<g clip-path="url(#clip0_2890_123586)">
<rect width="327" height="422" rx="16" fill="white"/>
<g clip-path="url(#clip1_2890_123586)">
<path d="M199.29 34.2791C199.29 52.6642 181.859 67.5581 160.36 67.5581C138.86 67.5581 121.43 52.6642 121.43 34.2791C121.43 15.894 138.86 1 160.36 1C181.859 1 199.29 15.894 199.29 34.2791Z" fill="#1E160B"/>
<path d="M379 351.36C368.137 347.919 296.993 347.605 310.367 316.197C310.694 315.431 326.216 281.825 325.663 272.243C325.399 267.747 324.068 264.507 323.114 262.197C314.474 241.237 291.04 243.234 277.239 227.034C266.552 214.488 267.469 196.48 269.591 160.476C270.872 138.8 275.016 127.674 269.591 108.987C269.591 108.987 265.459 94.7465 255.576 81.3595C234.077 52.2498 196.251 42.9693 176.56 39.9805V38.0465H156.166V38.6744C138.748 40.7591 95.6105 48.8465 72.0514 80.7442C62.1556 94.1312 58.0366 108.372 58.0366 108.372C52.6115 127.059 56.7557 138.185 58.0366 159.86C60.1589 195.865 61.0882 213.873 50.3886 226.419C36.5872 242.619 13.1538 240.622 4.5138 261.581C3.55938 263.892 2.22818 267.132 1.96446 271.628C1.4119 281.21 16.984 314.803 17.2603 315.581C28.0979 346.349 -32.1372 347.303 -43 350.744V424.5C-43 423.244 163.814 428.605 163.814 428.605L163.801 426.093H163.826C163.814 428.127 163.814 429.22 163.814 429.22C163.814 429.22 379 430.476 379 431.732" fill="#1E160B"/>
<path d="M-24.873 429.86C-20.4275 417.692 32.8944 340.698 96.9409 305.535C113.48 299.469 175.793 269.179 233.825 305.535C332.155 367.145 355.965 436.303 351.871 429.86" fill="#FD4C54"/>
<path d="M192.383 276.651L233.825 305.535C206.197 358.279 137.127 374.605 96.9414 305.535L137.127 277.907V208.837H192.383V276.651Z" fill="#F5B7A3"/>
<path d="M191.931 235.687C191.843 235.737 191.742 235.774 191.654 235.812V235.825C191.755 235.774 191.843 235.737 191.931 235.687Z" fill="#1E160B"/>
<path d="M194.895 233.953C193.639 223.907 165.434 246.939 165.434 246.939C174.689 246.11 183.693 244.804 192.383 241.488C192.383 240.685 196.151 244 194.895 233.953Z" fill="#1E160B"/>
<path d="M192.621 68.2112C184.508 63.6777 176.484 61.1284 169.363 59.7219H156.391C149.27 61.141 141.245 63.6777 133.133 68.2112C124.656 72.9582 81.2175 109.917 88.0868 162.711C91.2389 186.848 103.408 202.91 110.754 212.605C110.754 212.605 130.508 238.663 162.582 249.463C162.72 249.513 162.871 249.513 162.871 249.513C162.871 249.513 163.009 249.513 163.159 249.463C194.128 239.027 213.731 213.861 213.731 213.861C221.743 203.575 234.402 187.313 237.654 162.711C244.649 109.879 201.022 72.9205 192.621 68.2112Z" fill="#F5B7A3"/>
<path d="M156.92 214.706C149.96 214.706 144.39 209.496 142.29 207.216C147.63 208.106 153.03 208.566 158.36 208.566C162.81 208.566 167.32 208.246 171.78 207.626C169.58 209.806 163.85 214.706 156.92 214.706Z" fill="white"/>
<path d="M143.71 207.946C148.59 208.686 153.51 209.066 158.37 209.066C162.33 209.066 166.33 208.816 170.31 208.326C167.66 210.676 162.71 214.206 156.92 214.206C151.09 214.196 146.25 210.416 143.71 207.946ZM141 206.476C141 206.476 147.71 215.196 156.92 215.196C166.14 215.196 173.14 206.906 173.14 206.906C168.21 207.666 163.29 208.056 158.36 208.056C152.58 208.056 146.79 207.536 141 206.476Z" fill="black"/>
<path d="M238.221 163C254.685 126.581 197.885 34.5427 169.352 52.4883C129.279 22.0976 47.7018 129.658 87.7748 160.049C87.7748 160.049 105.984 126.079 122.686 106.488C138.623 87.7892 154.848 74.3394 167.896 65.0464C181.22 76.0976 197.709 92.0841 213.105 114.023C224.47 130.211 232.583 149.927 238.221 163Z" fill="#1E160B"/>
<path d="M165.384 65.0465C162.471 89.6605 152.826 106.488 152.826 106.488C152.826 106.488 165.133 99.0037 169.152 86.3954C173.786 71.8907 168.135 57.3986 166.64 57.5116C165.962 57.5619 165.899 60.6889 165.384 65.0465Z" fill="#1E160B"/>
<path d="M93.1727 159.86C87.4587 158.881 81.4057 161.983 78.1029 166.139C71.0327 175.043 75.0889 190.678 84.382 198.791C91.6029 205.095 104.186 208.749 109.498 203.814C118.264 195.664 108.933 162.548 93.1727 159.86Z" fill="#F5B7A3"/>
<path d="M247.427 166.139C244.124 161.983 238.058 158.881 232.357 159.86C216.597 162.56 207.266 195.664 216.032 203.814C221.344 208.749 233.914 205.095 241.148 198.791C250.441 190.678 254.497 175.031 247.427 166.139Z" fill="#F5B7A3"/>
<path d="M85.6394 183.721C85.6394 183.721 87.5105 183.018 88.7789 183.093C90.2733 183.181 91.1021 183.445 91.8807 184.587C93.7519 187.338 95.2212 190.44 96.8412 193.353C100.37 199.682 103.899 206.024 107.428 212.353C108.018 213.408 109.651 212.467 109.06 211.399L95.5352 187.124C94.0784 184.5 92.4082 180.782 89.0803 180.192C86.6691 179.765 85.024 180.581 85.024 180.581C85.024 180.581 82.4998 183.093 85.6394 183.721Z" fill="#1E160B"/>
<path d="M217.174 210.143L230.699 185.868C232.168 183.244 233.826 179.526 237.166 178.936C239.578 178.509 241.223 179.326 241.223 179.326C241.223 179.326 243.734 181.837 240.595 182.465C240.595 182.465 238.724 181.762 237.455 181.837C235.961 181.925 235.132 182.189 234.353 183.332C232.482 186.094 231.013 189.184 229.393 192.097C225.864 198.426 222.335 204.768 218.806 211.098" fill="#1E160B"/>
<path d="M137.755 152.112C137.755 157.437 134.666 161.744 130.848 161.744C127.031 161.744 123.941 157.437 123.941 152.112C123.941 146.787 127.031 142.48 130.848 142.48C134.666 142.467 137.755 146.787 137.755 152.112Z" fill="#1E160B"/>
<path d="M185.062 152.112C185.062 157.437 188.152 161.744 191.969 161.744C195.787 161.744 198.876 157.437 198.876 152.112C198.876 146.787 195.787 142.48 191.969 142.48C188.152 142.467 185.062 146.787 185.062 152.112Z" fill="#1E160B"/>
<path d="M155.593 142.907C157.414 163.992 145.522 180.807 144.291 181.837C144.291 181.837 152.667 190.904 153.082 190.628C153.484 190.364 148.058 181.837 148.058 181.837C148.058 181.837 160.617 160.488 155.593 142.907Z" fill="#1E160B"/>
<path d="M120.174 132.861C122.447 130.776 125.825 128.39 130.22 127.837C134.779 127.26 138.546 128.892 139.011 127.837C139.388 126.983 137.416 124.811 135.244 124.07C128.751 121.847 120.525 132.396 120.174 132.861Z" fill="#1E160B"/>
<path d="M204.366 132.861C202.093 130.776 198.715 128.39 194.32 127.837C189.761 127.26 185.994 128.892 185.529 127.837C185.152 126.983 187.124 124.811 189.296 124.07C195.789 121.847 204.015 132.396 204.366 132.861Z" fill="#1E160B"/>
<path d="M296.719 367.45L265.844 382.933L290.098 434.144L323.967 446.021L332.363 422.23L296.719 367.45Z" fill="#F5B7A3"/>
<path d="M267.433 383.583C253.375 376.311 212.038 336.396 234.869 324.308C236.624 314.596 245.556 314.668 245.556 314.668C245.556 314.668 248.792 305.249 257.545 307.84C258.489 306.933 260.045 303.14 265.838 303.735C270.577 304.226 274.367 307.232 277.255 310.494C279.133 312.616 286.185 322.409 286.185 322.409C286.185 322.409 299.453 319.942 299.74 341.854C299.255 347.034 300.275 365.451 298.856 370.103C301.395 376.184 267.433 383.583 267.433 383.583Z" fill="#F5B7A3"/>
<path d="M242.446 335.642C242.328 335.6 242.194 335.527 242.057 335.425L234.771 324.247L234.98 324.107L243.352 334.881C243.355 335.175 243.26 335.448 243.035 335.595C242.931 335.665 242.731 335.741 242.446 335.642Z" fill="#231509"/>
<path d="M243.257 334.955L234.885 324.18L242.131 335.318C242.928 335.891 243.227 335.304 243.257 334.955Z" fill="#231509"/>
<path d="M253.674 325.553C253.567 325.516 253.453 325.462 253.335 325.381L245.431 314.638L245.632 314.482L254.603 324.761C254.631 325.063 254.543 325.352 254.318 325.499C254.182 325.585 253.982 325.661 253.674 325.553Z" fill="#231509"/>
<path d="M254.508 324.847L245.525 314.564L253.402 325.271C254.227 325.8 254.495 325.189 254.508 324.847Z" fill="#231509"/>
<path d="M266.232 317.979C266.149 317.95 266.058 317.905 265.968 317.86L257.395 307.734L257.476 307.656L257.561 307.526L257.667 307.643L267.182 317.168C267.221 317.474 267.157 317.771 266.924 317.942C266.803 318.02 266.588 318.104 266.232 317.979Z" fill="#231509"/>
<path d="M267.101 317.246L257.586 307.721C257.586 307.721 257.582 307.733 257.57 307.729L266.025 317.734C266.892 318.224 267.112 317.596 267.101 317.246Z" fill="#231509"/>
<path d="M288.297 325.718C288.167 325.672 288.033 325.598 287.895 325.497L280.627 314.764L280.832 314.636L289.189 325.033C289.197 325.315 289.098 325.559 288.881 325.683C288.761 325.761 288.57 325.813 288.297 325.718Z" fill="#231509"/>
<path d="M289.082 325.114L280.699 314.789L287.974 325.391C288.759 325.959 289.049 325.436 289.082 325.114Z" fill="#231509"/>
</g>
</g>
<defs>
<clipPath id="clip0_2890_123586">
<rect width="327" height="422" rx="16" fill="white"/>
</clipPath>
<clipPath id="clip1_2890_123586">
<rect width="422" height="422" fill="white" transform="translate(-43)"/>
</clipPath>
</defs>
</svg>
