<svg width="327" height="422" viewBox="0 0 327 422" fill="none" xmlns="http://www.w3.org/2000/svg">
<g clip-path="url(#clip0_2890_123520)">
<rect width="327" height="422" rx="16" fill="white"/>
<path d="M199.814 34.2791C199.814 52.6642 182.384 67.5581 160.884 67.5581C139.385 67.5581 121.954 52.6642 121.954 34.2791C121.954 15.894 139.385 1 160.884 1C182.384 1 199.814 15.894 199.814 34.2791Z" fill="#1E160B"/>
<path d="M375 351.5C364.137 348.059 297.516 347.605 310.891 316.197C311.217 315.431 326.739 281.825 326.187 272.243C325.923 267.747 324.592 264.507 323.637 262.197C314.997 241.237 291.564 243.234 277.762 227.034C267.075 214.488 267.992 196.48 270.114 160.476C271.395 138.8 275.539 127.674 270.114 108.987C270.114 108.987 265.983 94.7465 256.1 81.3595C234.6 52.2498 196.775 42.9693 177.084 39.9805V38.0465H156.689V38.6744C139.271 40.7591 96.1339 48.8465 72.5749 80.7442C62.6791 94.1312 58.56 108.372 58.56 108.372C53.1349 127.059 57.2791 138.185 58.56 159.86C60.6824 195.865 61.6116 213.873 50.9121 226.419C37.1107 242.619 13.6772 240.622 5.03724 261.581C4.08282 263.892 2.75162 267.132 2.4879 271.628C1.93534 281.21 17.5074 314.803 17.7837 315.581C28.6214 346.349 -36.1372 347.059 -47 350.5V429.5C-47 428.244 164.337 428.605 164.337 428.605L164.325 426.093H164.35C164.337 428.127 164.337 429.22 164.337 429.22C164.337 429.22 375 430.476 375 431.732" fill="#1E160B"/>
<path d="M-24.3481 429.86C-19.9026 417.692 33.4193 340.698 97.4658 305.535C114.005 299.469 176.318 269.179 234.35 305.535C332.68 367.145 356.49 436.303 352.396 429.86" fill="#FD4C54"/>
<path d="M192.907 276.651L234.349 305.535C206.721 358.279 137.651 374.605 97.4653 305.535L137.651 277.907V208.837H192.907V276.651Z" fill="#F5B7A3"/>
<path d="M192.455 235.687C192.367 235.737 192.266 235.774 192.178 235.812V235.825C192.279 235.774 192.367 235.737 192.455 235.687Z" fill="#1E160B"/>
<path d="M195.417 233.953C194.161 223.907 165.955 246.939 165.955 246.939C175.21 246.11 184.215 244.804 192.905 241.488C192.905 240.685 196.672 244 195.417 233.953Z" fill="#1E160B"/>
<path d="M193.144 68.2111C185.031 63.6777 177.007 61.1284 169.886 59.7219H156.914C149.793 61.1409 141.769 63.6777 133.656 68.2111C125.179 72.9581 81.7407 109.917 88.61 162.711C91.7621 186.848 103.931 202.91 111.277 212.605C111.277 212.605 131.031 238.663 163.105 249.463C163.243 249.513 163.394 249.513 163.394 249.513C163.394 249.513 163.532 249.513 163.683 249.463C194.651 239.027 214.254 213.86 214.254 213.86C222.266 203.575 234.925 187.313 238.177 162.711C245.172 109.879 201.545 72.9204 193.144 68.2111Z" fill="#F5B7A3"/>
<path d="M156.92 214.706C149.96 214.706 144.39 209.496 142.29 207.216C147.63 208.106 153.03 208.566 158.36 208.566C162.81 208.566 167.32 208.246 171.78 207.626C169.58 209.806 163.85 214.706 156.92 214.706Z" fill="white"/>
<path d="M143.71 207.946C148.59 208.686 153.51 209.066 158.37 209.066C162.33 209.066 166.33 208.816 170.31 208.326C167.66 210.676 162.71 214.206 156.92 214.206C151.09 214.196 146.25 210.416 143.71 207.946ZM141 206.476C141 206.476 147.71 215.196 156.92 215.196C166.14 215.196 173.14 206.906 173.14 206.906C168.21 207.666 163.29 208.056 158.36 208.056C152.58 208.056 146.79 207.536 141 206.476Z" fill="black"/>
<path d="M238.744 163C255.208 126.581 198.407 34.5428 169.875 52.4884C129.802 22.0977 48.2247 129.658 88.2977 160.049C88.2977 160.049 106.507 126.079 123.209 106.488C139.146 87.7893 155.371 74.3395 168.419 65.0465C181.743 76.0977 198.232 92.0842 213.628 114.023C224.993 130.211 233.106 149.927 238.744 163Z" fill="#1E160B"/>
<path d="M165.906 65.0465C162.993 89.6605 153.348 106.488 153.348 106.488C153.348 106.488 165.655 99.0037 169.674 86.3954C174.308 71.8907 168.657 57.3986 167.162 57.5116C166.484 57.5619 166.421 60.6889 165.906 65.0465Z" fill="#1E160B"/>
<path d="M93.6961 159.86C87.9822 158.881 81.9291 161.983 78.6263 166.14C71.5561 175.043 75.6124 190.678 84.9054 198.791C92.1263 205.095 104.71 208.749 110.022 203.814C118.787 195.664 109.457 162.548 93.6961 159.86Z" fill="#F5B7A3"/>
<path d="M247.95 166.14C244.647 161.983 238.582 158.881 232.88 159.86C217.12 162.56 207.789 195.664 216.555 203.814C221.867 208.749 234.438 205.095 241.671 198.791C250.964 190.678 255.02 175.031 247.95 166.14Z" fill="#F5B7A3"/>
<path d="M86.1633 183.721C86.1633 183.721 88.0345 183.018 89.3028 183.093C90.7973 183.181 91.6261 183.445 92.4047 184.587C94.2758 187.338 95.7451 190.44 97.3651 193.353C100.894 199.682 104.423 206.024 107.952 212.353C108.542 213.408 110.174 212.467 109.584 211.399L96.0591 187.124C94.6024 184.5 92.9321 180.782 89.6042 180.192C87.1931 179.765 85.548 180.581 85.548 180.581C85.548 180.581 83.0238 183.093 86.1633 183.721Z" fill="#1E160B"/>
<path d="M217.698 210.143L231.223 185.868C232.692 183.244 234.35 179.527 237.69 178.936C240.101 178.509 241.747 179.326 241.747 179.326C241.747 179.326 244.258 181.837 241.119 182.465C241.119 182.465 239.248 181.762 237.979 181.837C236.485 181.925 235.656 182.189 234.877 183.332C233.006 186.094 231.537 189.184 229.917 192.097C226.388 198.426 222.859 204.768 219.33 211.098" fill="#1E160B"/>
<path d="M138.279 152.112C138.279 157.437 135.19 161.744 131.372 161.744C127.555 161.744 124.465 157.437 124.465 152.112C124.465 146.787 127.555 142.48 131.372 142.48C135.19 142.467 138.279 146.787 138.279 152.112Z" fill="#1E160B"/>
<path d="M185.586 152.112C185.586 157.437 188.675 161.744 192.493 161.744C196.311 161.744 199.4 157.437 199.4 152.112C199.4 146.787 196.311 142.48 192.493 142.48C188.675 142.467 185.586 146.787 185.586 152.112Z" fill="#1E160B"/>
<path d="M156.116 142.907C157.937 163.992 146.044 180.807 144.813 181.837C144.813 181.837 153.19 190.904 153.604 190.628C154.006 190.364 148.581 181.837 148.581 181.837C148.581 181.837 161.139 160.488 156.116 142.907Z" fill="#1E160B"/>
<path d="M120.698 132.86C122.971 130.776 126.349 128.39 130.745 127.837C135.303 127.26 139.071 128.892 139.535 127.837C139.912 126.983 137.94 124.811 135.768 124.07C129.275 121.847 121.05 132.396 120.698 132.86Z" fill="#1E160B"/>
<path d="M204.888 132.86C202.615 130.776 199.236 128.39 194.841 127.837C190.283 127.26 186.515 128.892 186.05 127.837C185.674 126.983 187.645 124.811 189.818 124.07C196.31 121.847 204.536 132.396 204.888 132.86Z" fill="#1E160B"/>
<path d="M295.716 367.862L266.097 385.629L294.144 434.864L328.813 444.154L335.391 419.797L295.716 367.862Z" fill="#F5B7A3"/>
<path d="M271.51 393.514C271.529 396.354 247.26 388.382 236.8 381.081C220.746 381.46 205.74 382.392 201.174 376.579C198.725 373.102 202.618 369.347 212.343 365.609C214.829 365.404 225.712 363.119 225.712 363.119L261.654 325.296C263.014 315.272 267.444 298.349 277.516 296.666C287.014 295.233 276.328 323.13 283.232 334.822C290.124 346.51 304.623 368.285 300.873 378.058C293.306 391.645 297.573 396.052 271.51 393.514Z" fill="#F5B7A3"/>
<path d="M226.748 364.45C226.748 364.45 237.116 374.522 244.784 374.626C245.935 374.649 246.885 374.5 247.558 374.368C254.895 371.732 253.297 364.595 253.297 364.595C261.198 364.073 264.809 360.204 266.393 353.179C271.254 351.387 274.372 348.192 275.211 345.401C281.114 340.937 266.724 324.041 252.165 320.296C243.841 317.689 241.156 323.197 240.059 329.572C232.908 330.01 227.43 332.455 227.606 341.889C223.818 343.071 219.678 347.799 219.548 350.807C219.299 356.539 226.748 364.45 226.748 364.45Z" fill="#F5B7A3"/>
<path d="M237.265 350.861C237.204 350.844 237.131 350.825 237.062 350.793L227.354 341.899L227.518 341.723L227.633 341.779L238.197 349.953C238.274 350.247 238.242 350.563 238.034 350.755C237.849 350.913 237.592 350.948 237.265 350.861Z" fill="#231509"/>
<path d="M238.108 350.046L227.544 341.872C227.54 341.884 227.528 341.881 227.525 341.893L237.104 350.687C238.027 351.026 238.16 350.385 238.108 350.046Z" fill="#231509"/>
<path d="M248.803 337.597L239.681 329.523L239.899 329.387L240.07 329.38L249.908 336.723C249.997 337.02 249.964 337.336 249.754 337.54C249.568 337.698 249.309 337.745 248.981 337.658C248.984 337.645 248.863 337.613 248.803 337.597Z" fill="#231509"/>
<path d="M249.83 336.819L239.993 329.477C239.962 329.494 239.919 329.509 239.885 329.539L248.847 337.479C249.759 337.814 249.895 337.161 249.83 336.819Z" fill="#231509"/>
</g>
<defs>
<clipPath id="clip0_2890_123520">
<rect width="327" height="422" rx="16" fill="white"/>
</clipPath>
</defs>
</svg>
