<svg width="327" height="422" viewBox="0 0 327 422" fill="none" xmlns="http://www.w3.org/2000/svg">
<g clip-path="url(#clip0_2890_123446)">
<rect width="327" height="422" rx="16" fill="white"/>
<g clip-path="url(#clip1_2890_123446)">
<path d="M199.861 34.8102C199.861 53.2425 182.386 68.1747 160.831 68.1747C139.277 68.1747 121.801 53.2425 121.801 34.8102C121.801 16.378 139.277 1.4458 160.831 1.4458C182.386 1.4458 199.861 16.378 199.861 34.8102Z" fill="#1E160B"/>
<path d="M380.5 352.704C369.609 349.254 297.815 348.94 311.223 317.451C311.551 316.683 327.112 282.991 326.558 273.385C326.294 268.878 324.959 265.629 324.002 263.313C315.34 242.299 291.847 244.301 278.01 228.06C267.295 215.482 268.215 197.427 270.342 161.331C271.627 139.6 275.781 128.445 270.342 109.71C270.342 109.71 266.2 95.4328 256.292 82.0115C234.737 52.827 196.815 43.5228 177.073 40.5262V38.5873H156.626V39.2169C139.163 41.3069 95.9155 49.415 72.296 81.3946C62.3748 94.8159 58.2452 109.093 58.2452 109.093C52.8062 127.828 56.961 138.983 58.2452 160.714C60.373 196.81 61.3046 214.865 50.5777 227.443C36.7409 243.684 13.2473 241.682 4.58512 262.696C3.62826 265.012 2.29364 268.261 2.02925 272.768C1.47527 282.374 17.0873 316.054 17.3643 316.834C28.2298 347.681 -30.1093 348.637 -41 352.087V432C-41 430.741 164.294 430.147 164.294 430.147L164.281 427.629H164.306C164.294 429.669 164.294 430.764 164.294 430.764C164.294 430.764 380.5 432.023 380.5 433.282" fill="#1E160B"/>
<path d="M-24.8762 431.407C-20.4192 419.206 33.0394 342.015 97.2502 306.762C113.832 300.681 176.305 270.313 234.485 306.762C333.068 368.53 356.939 437.865 352.834 431.407" fill="#FD4C54"/>
<path d="M192.937 277.804L234.485 306.762C206.786 359.641 137.539 376.009 97.25 306.762L137.539 279.063V209.816H192.937V277.804Z" fill="#F5B7A3"/>
<path d="M192.484 236.734C192.395 236.785 192.295 236.822 192.207 236.86V236.873C192.307 236.822 192.395 236.785 192.484 236.734Z" fill="#1E160B"/>
<path d="M195.455 234.997C194.196 224.925 165.918 248.015 165.918 248.015C175.197 247.184 184.224 245.875 192.937 242.551C192.937 241.745 196.714 245.069 195.455 234.997Z" fill="#1E160B"/>
<path d="M193.176 68.8294C185.043 64.2842 176.998 61.7284 169.859 60.3183H156.853C149.714 61.741 141.669 64.2842 133.536 68.8294C125.037 73.5885 81.4872 110.642 88.3741 163.572C91.5343 187.77 103.734 203.874 111.1 213.593C111.1 213.593 130.904 239.718 163.06 250.546C163.199 250.596 163.35 250.596 163.35 250.596C163.35 250.596 163.488 250.596 163.639 250.546C194.687 240.083 214.341 214.852 214.341 214.852C222.373 204.541 235.064 188.236 238.325 163.572C245.338 110.604 201.599 73.5507 193.176 68.8294Z" fill="#F5B7A3"/>
<path d="M156.92 214.706C149.96 214.706 144.39 209.496 142.29 207.216C147.63 208.106 153.03 208.566 158.36 208.566C162.81 208.566 167.32 208.246 171.78 207.626C169.58 209.806 163.85 214.706 156.92 214.706Z" fill="white"/>
<path d="M143.71 207.946C148.59 208.686 153.51 209.066 158.37 209.066C162.33 209.066 166.33 208.816 170.31 208.326C167.66 210.676 162.71 214.206 156.92 214.206C151.09 214.196 146.25 210.416 143.71 207.946ZM141 206.476C141 206.476 147.71 215.196 156.92 215.196C166.14 215.196 173.14 206.906 173.14 206.906C168.21 207.666 163.29 208.056 158.36 208.056C152.58 208.056 146.79 207.536 141 206.476Z" fill="black"/>
<path d="M238.892 163.861C255.398 127.349 198.452 35.0746 169.846 53.0663C129.67 22.5976 47.8835 130.434 88.0593 160.903C88.0593 160.903 106.315 126.846 123.06 107.205C139.038 88.4578 155.304 74.9735 168.386 65.6566C181.744 76.7361 198.275 92.7637 213.711 114.759C225.105 130.988 233.239 150.755 238.892 163.861Z" fill="#1E160B"/>
<path d="M165.868 65.6567C162.947 90.3338 153.277 107.205 153.277 107.205C153.277 107.205 165.616 99.701 169.645 87.0603C174.291 72.5184 168.625 57.9892 167.127 58.1025C166.447 58.1528 166.384 61.2878 165.868 65.6567Z" fill="#1E160B"/>
<path d="M93.4732 160.714C87.7446 159.732 81.6761 162.842 78.3648 167.009C71.2764 175.936 75.3431 191.611 84.66 199.744C91.8994 206.064 104.515 209.728 109.841 204.78C118.629 196.609 109.274 163.408 93.4732 160.714Z" fill="#F5B7A3"/>
<path d="M248.12 167.009C244.809 162.842 238.728 159.732 233.012 160.714C217.211 163.421 207.856 196.609 216.644 204.78C221.97 209.728 234.573 206.064 241.825 199.744C251.142 191.611 255.209 175.923 248.12 167.009Z" fill="#F5B7A3"/>
<path d="M85.9188 184.635C85.9188 184.635 87.7948 183.93 89.0664 184.006C90.5646 184.094 91.3956 184.358 92.1762 185.504C94.0521 188.261 95.5252 191.371 97.1494 194.292C100.687 200.638 104.225 206.996 107.763 213.341C108.355 214.399 109.992 213.455 109.4 212.385L95.84 188.047C94.3795 185.416 92.705 181.689 89.3685 181.098C86.9512 180.669 85.3019 181.488 85.3019 181.488C85.3019 181.488 82.7712 184.006 85.9188 184.635Z" fill="#1E160B"/>
<path d="M217.79 211.126L231.35 186.788C232.823 184.157 234.485 180.43 237.834 179.839C240.251 179.411 241.901 180.229 241.901 180.229C241.901 180.229 244.419 182.747 241.271 183.376C241.271 183.376 239.395 182.671 238.123 182.747C236.625 182.835 235.794 183.099 235.014 184.245C233.138 187.015 231.665 190.112 230.04 193.033C226.503 199.379 222.965 205.737 219.427 212.082" fill="#1E160B"/>
<path d="M138.169 152.945C138.169 158.284 135.072 162.602 131.244 162.602C127.417 162.602 124.319 158.284 124.319 152.945C124.319 147.607 127.417 143.289 131.244 143.289C135.072 143.276 138.169 147.607 138.169 152.945Z" fill="#1E160B"/>
<path d="M185.596 152.945C185.596 158.284 188.694 162.602 192.521 162.602C196.349 162.602 199.446 158.284 199.446 152.945C199.446 147.607 196.349 143.289 192.521 143.289C188.694 143.276 185.596 147.607 185.596 152.945Z" fill="#1E160B"/>
<path d="M156.054 143.717C157.88 164.856 145.957 181.714 144.723 182.747C144.723 182.747 153.12 191.837 153.536 191.56C153.939 191.296 148.5 182.747 148.5 182.747C148.5 182.747 161.09 161.343 156.054 143.717Z" fill="#1E160B"/>
<path d="M120.542 133.645C122.821 131.555 126.208 129.162 130.615 128.608C135.185 128.029 138.962 129.666 139.428 128.608C139.805 127.752 137.829 125.574 135.651 124.831C129.141 122.603 120.895 133.179 120.542 133.645Z" fill="#1E160B"/>
<path d="M204.948 133.645C202.669 131.555 199.282 129.162 194.876 128.608C190.305 128.029 186.528 129.666 186.062 128.608C185.685 127.752 187.661 125.574 189.84 124.831C196.349 122.603 204.595 133.179 204.948 133.645Z" fill="#1E160B"/>
<path d="M281.586 391.344C275.656 390.802 269.738 390.223 263.783 390.047C260.497 389.946 257.248 390.362 254 390.626C254.189 392.477 256.304 413.453 253.988 429.505H298.054C294.352 417.57 290.651 405.647 286.949 393.711C285.174 392.93 283.386 392.124 281.586 391.344Z" fill="#F5B7A3"/>
<path d="M299.741 310.514C300.635 313.422 302.637 388.272 282.668 397.526L254 390.639C212.893 349.116 217.325 324.489 243.626 352.012C243.626 352.012 244.016 305.213 244.62 303.942C244.62 288.279 259.603 280.838 259.603 324.968L284.897 325.685C284.897 296.488 297.752 289.866 299.741 310.514Z" fill="#F5B7A3"/>
<path d="M283.701 324.414C289.392 339.018 284.846 355.021 272.256 347.19C272.256 347.19 264.072 351.609 260.245 347.907C255.675 343.639 257.198 326.529 261.957 323.709C267.346 320.498 282.077 320.259 283.701 324.414Z" fill="#F5B7A3"/>
<path d="M264.463 350.01C262.763 350.01 261.101 349.582 259.842 348.361C257.047 345.754 256.606 339.258 257.072 334.499C257.513 330.067 258.948 324.754 261.668 323.142C266.049 320.548 276.096 319.818 281.22 321.719C282.819 322.311 283.839 323.142 284.242 324.162C287.931 333.642 287.415 343.904 283.021 348.008C281.12 349.783 277.72 351.193 272.231 347.895C271.211 348.411 267.761 350.01 264.463 350.01ZM273.805 321.921C269.461 321.921 264.777 322.764 262.247 324.263C260.333 325.396 258.759 329.475 258.256 334.662C257.689 340.441 258.646 345.578 260.635 347.441C264.123 350.816 271.916 346.686 271.992 346.636L272.281 346.485L272.558 346.661C276.537 349.141 279.898 349.292 282.253 347.089C286.282 343.324 286.672 333.68 283.159 324.678C282.895 323.998 282.089 323.394 280.843 322.928C279.017 322.236 276.474 321.921 273.805 321.921Z" fill="#231509"/>
<path d="M273.125 347.19H270.771C270.771 347.19 271.236 321.291 271.224 321.568C272.395 321.568 272.067 321.568 272.067 321.568L273.125 347.19Z" fill="#231509"/>
<path d="M264.463 349.053C262.763 349.053 261.101 348.638 259.842 347.467C257.047 344.936 256.606 338.666 257.072 334.071C257.513 329.79 258.948 324.64 261.668 323.079C266.049 320.561 276.096 319.856 281.22 321.694C282.819 322.273 283.839 323.067 284.242 324.061C287.931 333.24 287.415 343.148 283.021 347.127C281.12 348.839 277.72 350.211 272.231 347.013C271.211 347.504 267.761 349.053 264.463 349.053ZM273.805 321.87C269.461 321.87 264.777 322.676 262.247 324.137C260.333 325.232 258.759 329.185 258.256 334.184C257.689 339.774 258.646 344.747 260.635 346.548C264.123 349.821 271.916 345.817 271.992 345.78L272.281 345.628L272.558 345.792C276.537 348.197 279.898 348.335 282.253 346.208C286.282 342.569 286.672 333.24 283.159 324.527C282.895 323.872 282.089 323.293 280.843 322.84C279.017 322.185 276.474 321.87 273.805 321.87Z" fill="#231509"/>
<path d="M273.868 369.084C272.042 365.005 269.335 360.221 266.955 359.088C262.373 356.897 253.345 355.864 248.687 355.864C247.894 355.864 247.189 355.89 246.609 355.953L246.295 355.978L246.068 355.751C245.93 355.562 244.859 353.837 243.638 351.848C243.852 352.024 244.066 352.188 244.268 352.364C245.212 353.132 246.106 353.863 246.584 354.341L246.811 354.568L247.126 354.542C247.982 354.48 249.757 354.366 251.96 354.366C259.754 354.366 265.47 355.739 268.076 358.231C269.725 359.805 272.508 362.462 273.868 369.084Z" fill="#231509"/>
<path d="M270.103 336.576C269.902 337.067 269.486 337.482 269.058 337.759C268.479 338.124 267.761 338.162 267.119 338.011C266.515 337.873 265.923 337.382 265.608 336.853C265.344 336.4 265.256 335.909 265.294 335.418C265.294 335.43 265.294 335.443 265.294 335.455C265.331 335.141 265.319 334.838 265.294 334.524C265.218 334.033 265.105 333.542 264.966 333.051C264.891 333.315 264.828 333.579 264.79 333.844C264.74 334.108 264.651 334.373 264.513 334.612C264.387 334.775 264.249 334.952 264.123 335.115C263.669 335.606 262.99 335.82 262.347 335.846C262.184 335.858 262.007 335.833 261.844 335.795C261.718 336.085 261.567 336.349 261.34 336.576C261.164 336.714 261 336.84 260.837 336.966C260.547 337.155 260.232 337.256 259.905 337.268C259.565 337.344 259.238 337.331 258.898 337.231C258.57 337.155 258.281 337.004 258.042 336.777C257.928 336.702 257.84 336.614 257.739 336.526C257.223 340.177 257.185 344.659 259.15 350.702C260.446 353.648 264.576 354.933 267.698 353.56C270.053 352.528 271.715 350.035 271.689 347.706C271.589 343.123 271.01 339.434 270.103 336.576Z" fill="#F5B7A3"/>
<path d="M270.103 336.576C269.902 337.067 269.486 337.482 269.058 337.759C268.479 338.124 267.761 338.162 267.119 338.011C266.515 337.873 265.923 337.382 265.608 336.853C265.344 336.4 265.256 335.909 265.294 335.418C265.294 335.43 265.294 335.443 265.294 335.455C265.331 335.141 265.319 334.838 265.294 334.524C265.218 334.033 265.105 333.542 264.966 333.051C264.891 333.315 264.828 333.579 264.79 333.844C264.74 334.108 264.651 334.373 264.513 334.612C264.387 334.775 264.249 334.952 264.123 335.115C263.669 335.606 262.99 335.82 262.347 335.846C262.184 335.858 262.007 335.833 261.844 335.795C261.718 336.085 261.567 336.349 261.34 336.576C261.164 336.714 261 336.84 260.837 336.966C260.547 337.155 260.232 337.256 259.905 337.268C259.565 337.344 259.238 337.331 258.898 337.231C258.57 337.155 258.281 337.004 258.042 336.777C257.928 336.702 257.84 336.614 257.739 336.526C257.223 340.177 257.185 344.659 259.15 350.702C260.446 353.648 264.576 354.933 267.698 353.56C270.053 352.528 271.715 350.035 271.689 347.706C271.589 343.123 271.01 339.434 270.103 336.576Z" stroke="#231509" stroke-width="1.5" stroke-miterlimit="10"/>
<path d="M259.691 349.494C257.387 344.294 258.142 337.407 258.142 337.407C258.142 337.407 258.872 326.202 263.783 328.858C265.961 331.313 268.038 333.051 269.31 332.497C270.33 332.056 270.38 330.319 270.594 330.344C270.947 330.369 271.299 334.801 270.783 348.486C270.355 351.835 262.876 356.658 259.691 349.494Z" fill="#F5B7A3"/>
<path d="M259.691 349.494C257.387 344.294 258.142 337.407 258.142 337.407C258.142 337.407 258.872 326.202 263.783 328.858C265.961 331.313 268.038 333.051 269.31 332.497C270.33 332.056 270.38 330.319 270.594 330.344C270.947 330.369 271.299 334.801 270.783 348.486C270.355 351.835 262.876 356.658 259.691 349.494Z" stroke="#F5B7A3" stroke-width="0.25" stroke-miterlimit="10"/>
<path d="M262.952 331.653C263.619 332.169 264.299 332.673 265.042 333.088C265.785 333.504 266.565 333.844 267.346 334.146C267.774 334.31 268.416 334.184 268.806 333.957C269.197 333.73 269.574 333.277 269.675 332.824C269.788 332.345 269.763 331.792 269.486 331.363L269.184 330.986C268.945 330.746 268.668 330.595 268.353 330.495C268.189 330.432 268.038 330.369 267.887 330.306C268.038 330.369 268.189 330.432 268.34 330.495C267.258 330.029 266.225 329.437 265.293 328.719L265.671 329.009C265.659 328.996 265.633 328.984 265.621 328.971C265.445 328.782 265.243 328.656 265.017 328.581C264.79 328.468 264.551 328.405 264.286 328.417C263.82 328.417 263.266 328.619 262.952 328.971C262.624 329.336 262.373 329.802 262.398 330.306C262.423 330.772 262.574 331.351 262.952 331.653Z" fill="#F5B7A3"/>
</g>
</g>
<defs>
<clipPath id="clip0_2890_123446">
<rect width="327" height="422" rx="16" fill="white"/>
</clipPath>
<clipPath id="clip1_2890_123446">
<rect width="422" height="422" fill="white" transform="translate(-44 1)"/>
</clipPath>
</defs>
</svg>
