<svg width="327" height="422" viewBox="0 0 327 422" fill="none" xmlns="http://www.w3.org/2000/svg">
<g clip-path="url(#clip0_2890_123386)">
<rect width="327" height="422" rx="16" fill="white"/>
<g clip-path="url(#clip1_2890_123386)">
<path d="M202.291 34.2791C202.291 52.6642 184.86 67.5581 163.36 67.5581C141.861 67.5581 124.43 52.6642 124.43 34.2791C124.43 15.894 141.861 1 163.36 1C184.86 1 202.291 15.894 202.291 34.2791Z" fill="#1E160B"/>
<path d="M378 351.36C367.137 347.919 299.993 347.605 313.367 316.197C313.694 315.431 329.216 281.825 328.663 272.243C328.399 267.747 327.068 264.507 326.114 262.197C317.474 241.237 294.04 243.234 280.239 227.034C269.552 214.488 270.469 196.48 272.591 160.476C273.872 138.8 278.016 127.674 272.591 108.987C272.591 108.987 268.46 94.7465 258.576 81.3595C237.077 52.2498 199.252 42.9693 179.56 39.9805V38.0465H159.166V38.6744C141.748 40.7591 98.6106 48.8465 75.0516 80.7442C65.1557 94.1312 61.0367 108.372 61.0367 108.372C55.6116 127.059 59.7558 138.185 61.0367 159.86C63.159 195.865 64.0883 213.873 53.3888 226.419C39.5874 242.619 16.1539 240.622 7.51392 261.581C6.55951 263.892 5.22831 267.132 4.96458 271.628C4.41203 281.21 19.9841 314.803 20.2604 315.581C31.0981 346.349 -33.1372 347.303 -44 350.744V429.86C-44 428.605 166.814 428.605 166.814 428.605L166.801 426.093H166.826C166.814 428.127 166.814 429.22 166.814 429.22C166.814 429.22 378 430.476 378 431.732" fill="#1E160B"/>
<path d="M-21.8721 429.86C-17.4265 417.692 35.8954 340.698 99.9419 305.535C116.481 299.469 178.794 269.179 236.826 305.535C335.156 367.145 358.966 436.303 354.872 429.86" fill="#FD4C54"/>
<path d="M195.384 276.651L236.826 305.535C209.198 358.279 140.128 374.605 99.9419 305.535L140.128 277.907V208.837H195.384V276.651Z" fill="#F5B7A3"/>
<path d="M194.932 235.687C194.844 235.737 194.743 235.774 194.655 235.812V235.825C194.756 235.774 194.844 235.737 194.932 235.687Z" fill="#1E160B"/>
<path d="M197.896 233.954C196.64 223.907 168.434 246.939 168.434 246.939C177.689 246.11 186.694 244.804 195.384 241.488C195.384 240.685 199.151 244 197.896 233.954Z" fill="#1E160B"/>
<path d="M195.622 68.2111C187.51 63.6777 179.485 61.1284 172.365 59.7219H159.392C152.272 61.1409 144.247 63.6777 136.134 68.2111C127.658 72.9581 84.219 109.917 91.0883 162.711C94.2404 186.848 106.409 202.91 113.756 212.605C113.756 212.605 133.51 238.663 165.583 249.463C165.721 249.513 165.872 249.513 165.872 249.513C165.872 249.513 166.01 249.513 166.161 249.463C197.129 239.027 216.732 213.86 216.732 213.86C224.745 203.575 237.403 187.313 240.656 162.711C247.651 109.879 204.024 72.9204 195.622 68.2111Z" fill="#F5B7A3"/>
<path d="M159.92 214.706C152.96 214.706 147.39 209.496 145.29 207.216C150.63 208.106 156.03 208.566 161.36 208.566C165.81 208.566 170.32 208.246 174.78 207.626C172.58 209.806 166.85 214.706 159.92 214.706Z" fill="white"/>
<path d="M146.71 207.946C151.59 208.686 156.51 209.066 161.37 209.066C165.33 209.066 169.33 208.816 173.31 208.326C170.66 210.676 165.71 214.206 159.92 214.206C154.09 214.196 149.25 210.416 146.71 207.946ZM144 206.476C144 206.476 150.71 215.196 159.92 215.196C169.14 215.196 176.14 206.906 176.14 206.906C171.21 207.666 166.29 208.056 161.36 208.056C155.58 208.056 149.79 207.536 144 206.476Z" fill="black"/>
<path d="M241.221 163C257.685 126.581 200.884 34.5428 172.352 52.4884C132.279 22.0977 50.7015 129.658 90.7746 160.049C90.7746 160.049 108.984 126.079 125.686 106.488C141.622 87.7893 157.848 74.3395 170.895 65.0465C184.22 76.0977 200.708 92.0842 216.105 114.023C227.47 130.211 235.582 149.927 241.221 163Z" fill="#1E160B"/>
<path d="M168.384 65.0466C165.47 89.6605 155.825 106.488 155.825 106.488C155.825 106.488 168.132 99.0038 172.151 86.3954C176.785 71.8908 171.134 57.3987 169.639 57.5117C168.961 57.5619 168.898 60.6889 168.384 65.0466Z" fill="#1E160B"/>
<path d="M96.1744 159.86C90.4604 158.881 84.4074 161.983 81.1046 166.14C74.0344 175.043 78.0907 190.678 87.3837 198.791C94.6046 205.095 107.188 208.749 112.5 203.814C121.266 195.664 111.935 162.548 96.1744 159.86Z" fill="#F5B7A3"/>
<path d="M250.426 166.14C247.123 161.983 241.058 158.881 235.356 159.86C219.596 162.56 210.265 195.664 219.031 203.814C224.343 208.749 236.913 205.095 244.147 198.791C253.44 190.678 257.496 175.031 250.426 166.14Z" fill="#F5B7A3"/>
<path d="M88.6394 183.721C88.6394 183.721 90.5105 183.018 91.7789 183.093C93.2733 183.181 94.1021 183.445 94.8807 184.587C96.7519 187.338 98.2212 190.439 99.8412 193.353C103.37 199.682 106.899 206.024 110.428 212.353C111.018 213.408 112.651 212.466 112.06 211.399L98.5352 187.124C97.0784 184.499 95.4082 180.782 92.0803 180.192C89.6691 179.765 88.024 180.581 88.024 180.581C88.024 180.581 85.4998 183.093 88.6394 183.721Z" fill="#1E160B"/>
<path d="M220.173 210.143L233.698 185.868C235.168 183.244 236.825 179.527 240.166 178.936C242.577 178.509 244.222 179.326 244.222 179.326C244.222 179.326 246.734 181.837 243.594 182.465C243.594 182.465 241.723 181.762 240.455 181.837C238.96 181.925 238.131 182.189 237.353 183.332C235.482 186.094 234.012 189.184 232.392 192.097C228.864 198.426 225.335 204.768 221.806 211.098" fill="#1E160B"/>
<path d="M140.756 152.112C140.756 157.437 137.667 161.744 133.849 161.744C130.031 161.744 126.942 157.437 126.942 152.112C126.942 146.787 130.031 142.48 133.849 142.48C137.667 142.467 140.756 146.787 140.756 152.112Z" fill="#1E160B"/>
<path d="M188.062 152.112C188.062 157.437 191.152 161.744 194.969 161.744C198.787 161.744 201.876 157.437 201.876 152.112C201.876 146.787 198.787 142.48 194.969 142.48C191.152 142.467 188.062 146.787 188.062 152.112Z" fill="#1E160B"/>
<path d="M159.593 142.907C161.414 163.992 149.521 180.807 148.291 181.837C148.291 181.837 156.667 190.904 157.081 190.628C157.483 190.364 152.058 181.837 152.058 181.837C152.058 181.837 164.616 160.488 159.593 142.907Z" fill="#1E160B"/>
<path d="M123.174 132.861C125.447 130.776 128.825 128.39 133.221 127.837C137.779 127.26 141.547 128.892 142.012 127.837C142.388 126.983 140.417 124.811 138.244 124.07C131.752 121.847 123.526 132.396 123.174 132.861Z" fill="#1E160B"/>
<path d="M207.364 132.861C205.091 130.776 201.713 128.39 197.317 127.837C192.759 127.26 188.991 128.892 188.527 127.837C188.15 126.983 190.122 124.811 192.294 124.07C198.787 121.847 207.012 132.396 207.364 132.861Z" fill="#1E160B"/>
<path d="M283.805 389.9C277.891 389.36 271.988 388.783 266.048 388.607C262.771 388.506 259.531 388.921 256.291 389.185C256.479 391.031 258.589 411.952 256.278 427.964H300.232C296.539 416.059 292.847 404.166 289.155 392.261C287.385 391.483 285.601 390.679 283.805 389.9Z" fill="#F5B7A3"/>
<path d="M261.879 328.654C267.806 260.413 235.821 274.403 248.957 372.344C249.509 376.426 250.652 380.432 252.498 384.124C265.446 409.906 285.978 401.291 298.574 376.94C306.41 361.808 309.525 321.484 292.081 332.861C289.808 322.25 278.619 323.204 276.384 328.529C293.802 287.187 274.776 263.44 261.879 328.654Z" fill="#F5B7A3"/>
<path d="M295.359 357.413C290.311 357.413 287.56 352.477 286.845 350.97L286.669 350.594L286.267 350.707C285.061 351.033 283.19 351.435 281.068 351.41C277.727 351.385 275.58 351.799 273.571 350.041C270.092 344.691 271.988 334.18 276.384 328.529C270.682 338.174 270.996 352.276 281.068 349.89C284.685 350.757 287.322 350.254 286.882 348.948L287.573 348.697L287.837 349.401C287.937 349.664 290.286 355.906 295.372 355.906C295.849 355.906 296.326 355.855 296.816 355.742C299.29 355.19 303.999 350.694 303.384 342.343H304.64C305.28 351.46 300.445 356.483 297.142 357.212C296.527 357.35 295.937 357.413 295.359 357.413Z" fill="#231509"/>
<path d="M250.991 347.266C267.668 347.266 280.54 346.7 287.761 348.396C304.225 353.57 296.59 364.37 276.02 362.436V373.437" fill="#F5B7A3"/>
<path d="M275.266 361.343L276.095 361.419C277.74 361.569 279.335 361.657 280.854 361.657C289.972 361.657 295.321 358.756 295.899 355.88C296.426 353.281 293.3 350.656 287.535 348.848C283.341 347.868 277.137 347.667 269.1 347.667C266.613 347.667 263.976 347.693 261.201 347.705H261.05C259.782 347.718 259.104 347.73 258.526 347.73C258.225 347.73 257.948 347.743 257.622 347.743C259.38 347.127 261.804 346.412 264.001 346.198C265.169 346.085 267.103 346.022 269.477 346.022C275.53 346.022 283.881 346.449 287.925 347.404C297.444 350.393 297.695 354.537 297.368 356.194C296.69 359.547 291.19 363.164 280.704 363.164C279.599 363.164 278.456 363.126 277.3 363.039L276.886 363.013L275.253 369.255V361.343H275.266Z" fill="#231509"/>
<path d="M286.355 347.78C286.355 347.78 287.799 349.4 288.176 348.27C290.348 341.577 292.483 331.819 292.081 332.924L286.355 347.78Z" fill="#231509"/>
</g>
</g>
<defs>
<clipPath id="clip0_2890_123386">
<rect width="327" height="422" rx="16" fill="white"/>
</clipPath>
<clipPath id="clip1_2890_123386">
<rect width="422" height="422" fill="white" transform="translate(-47 1)"/>
</clipPath>
</defs>
</svg>
