<svg width="200" height="200" viewBox="0 0 200 200" fill="none" xmlns="http://www.w3.org/2000/svg">
<g clip-path="url(#clip0_617_117390)">
<path d="M103.359 144.775H89.887V124.328H96.4488V103.482L96.4045 103.521H103.392V124.261C110.391 124.261 117.246 124.261 124.101 124.261C124.101 126.451 124.101 128.646 124.101 130.846H130.624V124.3H124.063V110.372H110.175V89.997H103.298V96.5539H96.399L96.4377 96.5927V82.9358H110.286V76.1516H117.213V89.9416H137.656L137.612 89.9028V96.5373H124.157V103.427H137.529V110.41H130.785V117.3H144.528V124.306L144.572 124.267H137.728V137.769H151.488V130.918L151.449 130.962C153.768 130.962 156.086 130.962 158.404 130.962L158.365 130.918V137.924H172.02V151.78H178.892V158.67H185.791L185.747 158.631V165.271H199.247V172.166H192.663V179.178L192.707 179.139H185.752V193.034L185.791 192.99H178.892V199.58H172.02V186.139H158.36C158.36 183.711 158.36 181.422 158.36 179.139C160.545 179.139 162.736 179.139 164.933 179.139V172.327H158.399V179.178H144.6V172.205H130.702L130.741 172.244V165.227H137.562V158.609H124.195V151.664H130.63V144.719H117.119V137.952H103.32V144.808L103.359 144.764V144.775ZM164.933 165.243V144.908H144.633V165.243H164.933ZM172.042 165.365V179.05H178.792V165.365H172.042Z" fill="white"/>
<path d="M124.074 21.2187H130.685V27.831H137.573V34.7094H130.824V48.6601H137.662L137.623 48.6213V55.5274H151.4V76.0295H144.622V89.9026C142.193 89.9026 139.908 89.9026 137.629 89.9026L137.673 89.9414V76.0018H124.052V55.6493H117.119V62.2561H110.231V69.201H96.3824V76.096H75.9446V89.9414L75.9833 89.8971H69.0951V103.476C66.6773 103.476 64.3923 103.476 62.1128 103.476L62.1515 103.521V96.6701H55.4735V103.521L55.5123 103.482H41.6418V110.449L41.6805 110.41H34.842V96.5981H48.5078V90.0024H27.7934C27.7934 85.2801 27.7934 80.6908 27.7934 76.1015L27.7546 76.1459H34.6705V82.9079H62.0464V76.1403H55.5123V69.1234L55.4735 69.1622H68.9789V34.8313H75.9833C75.9833 32.3981 75.9833 30.1145 75.9833 27.8254L75.939 27.8642H82.9213V21.3018H89.8096V34.7925C87.5245 34.7925 85.2395 34.7925 82.8881 34.7925V41.7263H76.0442V55.4553H82.8494C82.8494 50.7995 82.8494 46.2435 82.8494 41.682C85.1676 41.682 87.4913 41.682 89.8096 41.682V55.6216H96.4765V62.1175H103.32V48.6102C105.6 48.6102 107.885 48.6102 110.164 48.6102V41.7208C107.819 41.7208 105.572 41.7208 103.326 41.7208C103.326 39.3984 103.326 37.0761 103.326 34.7537C105.611 34.7537 107.896 34.7537 110.242 34.7537V27.8254H124.112V21.1743L124.074 21.2187V21.2187ZM130.796 69.0458H144.456V62.2838H130.796V69.0458ZM82.8107 62.2894H76.0497V69.0403H82.8107V62.2894ZM124.035 41.8039H117.291V48.5603H124.035V41.8039Z" fill="white"/>
<path d="M199.302 0.68335V48.3996H151.566V0.68335H199.302V0.68335ZM192.558 41.6432V7.45087H158.41V41.6432H192.558Z" fill="white"/>
<path d="M48.4469 0.666748V48.4163H0.72168V0.666748H48.4469ZM7.48266 7.40101V41.5933H41.6361V7.40101H7.48266Z" fill="white"/>
<path d="M0.754883 151.792H48.4469V199.563H0.754883V151.792ZM41.6582 158.626H7.46606V192.812H41.6638V158.626H41.6582Z" fill="white"/>
<path d="M165.01 62.2286V55.655H185.758V62.2286L185.796 62.1898H178.892V76.0186H165.137V82.9634H171.898V89.8585H185.758V103.521L185.796 103.482H178.792V96.6481H171.909V117.339H165.01L165.054 117.377V110.471H151.494V103.538H144.666V96.5484C149.242 96.5484 153.823 96.5484 158.41 96.5484C158.41 98.8319 158.41 101.115 158.41 103.41H164.933V96.5872H158.371V62.1842C160.667 62.1842 162.858 62.1842 165.049 62.1842C165.049 64.4678 165.049 66.7513 165.049 69.046H171.848V62.223H165.01V62.2286Z" fill="white"/>
<path d="M62.107 7.36233H69.0119V0.489502H75.8946V7.25702H82.8271V0.517215H110.236V7.35679L110.275 7.31799H96.3767V14.3238H75.9333V27.8644L75.9776 27.8256C71.4241 27.8256 66.8707 27.8256 62.1679 27.8256V34.6874H55.5508V14.3349H62.1458V7.32908L62.107 7.36787V7.36233Z" fill="white"/>
<path d="M69.0618 172.249V165.282L69.0176 165.321H75.9722V158.631L75.9335 158.675H96.3547V151.775H103.359V144.774L103.32 144.819H110.292V165.354H117.152V172.255L117.191 172.21H110.303V179.139H103.32L103.359 179.183V165.404H82.8494V179.183L82.8881 179.144H75.9058V172.216H69.0176L69.0618 172.255V172.249Z" fill="white"/>
<path d="M21.1596 117.344V124.267H7.33331L7.37204 124.306V110.466H0.511475V103.571H7.37204V96.5594L7.32778 96.5982H14.2824V82.98L14.2437 83.0243H21.154V103.526L21.1983 103.488H14.3543V117.383H21.1983L21.154 117.344H21.1596Z" fill="white"/>
<path d="M130.713 172.21V186.05H144.484V199.552H137.684V193.062H124.162V186.056H117.163L117.202 186.095C117.202 181.461 117.202 176.833 117.202 172.199L117.163 172.244C121.694 172.244 126.226 172.244 130.757 172.244L130.718 172.205L130.713 172.21Z" fill="white"/>
<path d="M69.0175 124.272V144.752H62.1403V151.658H55.5454V137.852H48.552L48.5907 137.896C48.5797 135.574 48.5631 133.251 48.552 130.929H62.168V124.317H69.0618L69.0175 124.278V124.272Z" fill="white"/>
<path d="M14.3433 69.2066V62.2838H0.533691V55.6438H27.7602C27.7602 62.5111 27.7602 69.3285 27.7602 76.1459L27.7989 76.1016C25.6411 76.1016 23.4889 76.1016 21.2371 76.1016V69.1678C18.8636 69.1678 16.5841 69.1678 14.3046 69.1678L14.3489 69.2066H14.3433Z" fill="white"/>
<path d="M69.0562 186.067H62.1514V199.591H55.5896V172.249C60.0656 172.249 64.5637 172.249 69.0618 172.249L69.0175 172.21C69.0175 176.844 69.0175 181.472 69.0175 186.106L69.0562 186.061V186.067Z" fill="white"/>
<path d="M41.675 117.377C41.675 115.055 41.675 112.733 41.675 110.41L41.6362 110.449H55.5067V103.482L55.468 103.521C57.6922 103.521 59.9219 103.521 62.146 103.521L62.1073 103.477C62.1073 105.727 62.1073 107.983 62.1073 110.377H69.0176V117.372L69.0619 117.333C59.9218 117.333 50.7763 117.333 41.6362 117.333L41.6805 117.372L41.675 117.377Z" fill="white"/>
<path d="M82.8881 110.41H75.9777V89.9027L75.939 89.947H82.9212V83.1074H89.7707V96.5981L89.8095 96.5538H82.8493V110.449L82.8881 110.41V110.41Z" fill="white"/>
<path d="M192.674 124.272C192.674 126.501 192.674 128.734 192.674 130.962L192.718 130.924H185.763V144.819L185.802 144.78H178.803V130.89H172.048V124.311H192.718L192.674 124.272V124.272Z" fill="white"/>
<path d="M185.758 103.521H199.23V110.383H192.674V117.377L192.718 117.339H178.958V110.377H185.802V103.482L185.763 103.521H185.758Z" fill="white"/>
<path d="M124.168 14.335V0.52832H144.456V7.30693H130.779V14.2962C128.494 14.2962 126.309 14.2962 124.123 14.2962L124.168 14.335V14.335Z" fill="white"/>
<path d="M185.752 62.2286L192.712 62.2397L192.674 62.2009V82.9025H185.796C185.796 75.9964 185.796 69.0959 185.796 62.1953L185.758 62.2341L185.752 62.2286Z" fill="white"/>
<path d="M7.37212 83.0133V76.1072H0.51709V69.2012C5.09818 69.2012 9.71799 69.2012 14.3433 69.2012L14.2991 69.1624C14.2825 73.7793 14.2659 78.3963 14.2493 83.0133L14.288 82.969C11.9698 82.969 9.6516 82.969 7.33339 82.969L7.37766 83.0078L7.37212 83.0133Z" fill="white"/>
<path d="M110.236 7.3566H117.097V14.3292C119.542 14.3292 121.855 14.3292 124.168 14.3292L124.123 14.2904C124.107 16.6017 124.09 18.9074 124.074 21.2131L124.112 21.1688C119.487 21.1799 114.862 21.1965 110.242 21.2076C110.253 16.5739 110.27 11.9459 110.281 7.31226L110.242 7.35105L110.236 7.3566Z" fill="white"/>
<path d="M96.4044 186.072V192.995H82.8547L82.8935 193.034C82.8935 188.4 82.8935 183.772 82.8935 179.139L82.8547 179.177C85.1729 179.166 87.4911 179.15 89.8094 179.139C89.8094 181.428 89.8094 183.717 89.8094 186.106H96.4486L96.4044 186.067V186.072Z" fill="white"/>
<path d="M41.6692 137.846H27.9204V124.311H34.7533L34.7146 124.267V130.918H41.6692C41.6581 133.24 41.6415 135.563 41.6305 137.885L41.6692 137.841V137.846Z" fill="white"/>
<path d="M192.674 144.78V158.637C190.328 158.637 188.043 158.637 185.758 158.637L185.802 158.675V144.78L185.763 144.819H192.718L192.674 144.78Z" fill="white"/>
<path d="M7.37213 96.5594H0.533691V83.0188C2.81317 83.0188 5.09265 83.0188 7.37213 83.0188L7.32786 82.98V96.5982L7.37213 96.5594Z" fill="white"/>
<path d="M192.674 179.178H199.236V192.995H192.674L192.712 193.04C192.712 188.406 192.712 183.778 192.712 179.144L192.668 179.183L192.674 179.178Z" fill="white"/>
<path d="M21.1594 103.521H27.7212V117.339H21.1594L21.2037 117.377V103.482L21.1594 103.521Z" fill="white"/>
<path d="M192.674 130.957H199.235V144.774H192.674L192.718 144.813C192.718 140.18 192.718 135.552 192.718 130.918L192.674 130.957V130.957Z" fill="white"/>
<path d="M164.971 193.117V199.591H151.593V193.117H164.971Z" fill="white"/>
<path d="M158.41 130.962V117.377H165.054L165.01 117.339V130.918H158.371L158.41 130.962V130.962Z" fill="white"/>
<path d="M69.0176 117.377H75.856V124.267C73.5765 124.267 71.2971 124.267 69.0176 124.267L69.0618 124.306C69.0618 121.983 69.0618 119.661 69.0618 117.339L69.0176 117.377V117.377Z" fill="white"/>
<path d="M117.158 186.061V192.912H110.353V186.1C112.638 186.1 114.917 186.1 117.197 186.1L117.158 186.061Z" fill="white"/>
<path d="M75.9722 192.995H69.0563V186.067L69.0176 186.111H75.9335V193.04L75.9722 192.995Z" fill="white"/>
<path d="M34.7533 124.311V117.377H41.6748L41.6305 117.339C41.6416 119.661 41.6582 121.983 41.6692 124.306C39.351 124.295 37.0328 124.278 34.7146 124.267L34.7533 124.311V124.311Z" fill="white"/>
<path d="M14.288 137.885V131.04H21.0877V137.841H14.2493L14.288 137.88V137.885Z" fill="white"/>
<path d="M48.4912 69.0737V75.9964H41.7634V69.1125C43.9876 69.1125 46.2615 69.1125 48.5355 69.1125L48.4912 69.0737V69.0737Z" fill="white"/>
<path d="M82.794 137.807H76.0552V131.029H82.794V137.807Z" fill="white"/>
<path d="M82.8438 110.449H89.6822V117.267H82.8825C82.8825 114.978 82.8825 112.694 82.8825 110.41L82.8438 110.449V110.449Z" fill="white"/>
<path d="M55.5121 69.1234C53.1717 69.1068 50.8369 69.0957 48.4966 69.0791L48.5408 69.1179C48.5574 66.8121 48.5796 64.5064 48.6017 62.2007L48.563 62.2395C50.8812 62.2395 53.1939 62.2395 55.5121 62.2395L55.4733 62.2007C55.4733 64.523 55.4789 66.8454 55.4844 69.1677L55.5231 69.1289L55.5121 69.1234Z" fill="white"/>
<path d="M14.2491 137.841V144.691H7.44385V137.88C9.72886 137.88 12.0083 137.88 14.2878 137.88L14.2491 137.841Z" fill="white"/>
<path d="M48.5521 137.846V144.697H41.675C41.675 142.413 41.675 140.13 41.675 137.846L41.6362 137.891C43.9544 137.891 46.2726 137.891 48.5909 137.891L48.5521 137.846Z" fill="white"/>
<path d="M103.326 179.139V186.072C100.975 186.072 98.6896 186.072 96.4045 186.072L96.4488 186.111C96.4377 183.789 96.4211 181.467 96.4101 179.144C98.7283 179.155 101.046 179.172 103.365 179.183L103.326 179.139V179.139Z" fill="white"/>
<path d="M144.478 21.1245H137.75V14.3625H144.478V21.1245V21.1245Z" fill="white"/>
<path d="M137.662 48.6602V41.8096H144.467V48.6214C142.182 48.6214 139.903 48.6214 137.623 48.6214L137.662 48.6602V48.6602Z" fill="white"/>
<path d="M69.0617 158.67V151.819H75.9388V158.67L75.9776 158.631C73.6594 158.631 71.3412 158.631 69.0229 158.631L69.0672 158.67H69.0617Z" fill="white"/>
<path d="M7.33331 124.261V130.835H0.528076V124.3C2.81862 124.3 5.09257 124.3 7.37204 124.3L7.33331 124.261V124.261Z" fill="white"/>
<path d="M69.0618 165.288H62.2234V158.675C64.5029 158.675 66.7823 158.675 69.0618 158.675L69.0176 158.636C69.0176 160.865 69.0176 163.098 69.0176 165.326L69.0618 165.288Z" fill="white"/>
<path d="M96.4486 103.488H89.8039C89.8039 101.132 89.8039 98.8431 89.8039 96.554L89.7651 96.5983C91.9893 96.5983 94.219 96.5983 96.4431 96.5983L96.4044 96.5595C96.4044 98.8818 96.4044 101.204 96.4044 103.527L96.4486 103.488V103.488Z" fill="white"/>
<path d="M48.5962 62.1953H41.7578V55.655H48.5575C48.5575 57.8554 48.5575 60.0448 48.5575 62.2341L48.5962 62.1953V62.1953Z" fill="white"/>
<path d="M55.5786 41.7708H62.0519V48.5272H55.5786V41.7708Z" fill="white"/>
<path d="M192.674 117.377H199.235V124.267C197.05 124.267 194.859 124.267 192.674 124.267L192.718 124.306C192.718 121.983 192.718 119.661 192.718 117.339L192.674 117.377Z" fill="white"/>
<path d="M144.539 124.306H151.46V130.962L151.499 130.918H144.583V124.267L144.539 124.306V124.306Z" fill="white"/>
<path d="M82.8549 192.995V199.569H75.9777C75.9777 197.379 75.9777 195.184 75.9777 192.995L75.939 193.039C78.2572 193.039 80.5754 193.039 82.8936 193.039L82.8549 193.001V192.995Z" fill="white"/>
<path d="M62.1514 7.32351H55.5896V0.506104H62.1127C62.1127 2.7952 62.1127 5.07875 62.1127 7.36231L62.1514 7.32351V7.32351Z" fill="white"/>
<path d="M192.679 192.995V199.569H185.802C185.802 197.379 185.802 195.184 185.802 192.995L185.763 193.039C188.082 193.039 190.4 193.039 192.718 193.039L192.679 192.995Z" fill="white"/>
<path d="M55.5011 62.2395V55.666H62.0297V62.2007C59.8332 62.2007 57.6478 62.2007 55.4624 62.2007L55.5011 62.2395V62.2395Z" fill="white"/>
<path d="M192.712 62.2395V55.666H199.241V62.2007C197.044 62.2007 194.859 62.2007 192.674 62.2007L192.712 62.2395V62.2395Z" fill="white"/>
<path d="M151.538 158.553V151.808H158.282V158.553H151.538Z" fill="white"/>
<path d="M110.275 27.8642H103.359V34.7925C101.041 34.7925 98.7227 34.7925 96.4045 34.7925V21.1743H110.275C110.275 23.4024 110.275 25.6361 110.275 27.8642Z" fill="white"/>
<path d="M89.7708 41.721C89.7708 39.3986 89.7708 37.0763 89.7708 34.7539C91.9949 34.7539 94.2246 34.7539 96.4487 34.7539C96.4487 37.0763 96.4487 39.3986 96.4487 41.721C94.2246 41.721 91.9949 41.721 89.7708 41.721Z" fill="white"/>
<path d="M96.4099 41.6875H103.365C103.365 44.0099 103.365 46.3322 103.365 48.6546H96.4099V41.6875Z" fill="white"/>
<path d="M165.193 34.7095V14.3459H185.603V34.7095H165.193Z" fill="white"/>
<path d="M14.2935 34.7095V14.3459H34.6649V34.7039H14.2935V34.7095Z" fill="white"/>
<path d="M14.3376 165.471H34.6704V185.917H14.3376V165.471Z" fill="white"/>
<path d="M96.4431 179.178H89.7651V172.327H96.4431V179.178Z" fill="white"/>
<path d="M41.6362 130.957C41.6362 128.729 41.6362 126.495 41.6362 124.267H48.5909V130.957H41.6362Z" fill="white"/>
</g>
<defs>
<clipPath id="clip0_617_117390">
<rect width="200" height="200" fill="white"/>
</clipPath>
</defs>
</svg>
