<svg width="98" height="98" viewBox="0 0 98 98" fill="none" xmlns="http://www.w3.org/2000/svg">
<path opacity="0.25" d="M94.0089 49C96.2131 49 98.0169 47.21 97.8376 45.0131C97.0238 35.0423 93.1725 25.5235 86.7551 17.7662C80.3378 10.009 71.7092 4.44222 62.0675 1.77451C59.9431 1.18673 57.8469 2.62313 57.4338 4.78828C57.0208 6.95343 58.4492 9.02449 60.564 9.64588C68.3827 11.9432 75.372 16.5288 80.6048 22.8542C85.8377 29.1796 89.0323 36.9044 89.8239 45.015C90.038 47.2088 91.8047 49 94.0089 49Z" fill="#00A84E"/>
<path opacity="0.5" d="M49 94.0089C49 96.2131 50.79 98.0169 52.9869 97.8376C62.9577 97.0238 72.4765 93.1725 80.2338 86.7551C87.991 80.3378 93.5578 71.7092 96.2255 62.0675C96.8133 59.9431 95.3769 57.8469 93.2117 57.4338C91.0466 57.0208 88.9755 58.4492 88.3541 60.564C86.0568 68.3827 81.4712 75.372 75.1458 80.6048C68.8204 85.8377 61.0956 89.0323 52.985 89.8239C50.7912 90.038 49 91.8047 49 94.0089Z" fill="#00A84E"/>
<path opacity="0.75" d="M3.99107 49C1.78687 49 -0.0168874 50.79 0.162418 52.9869C0.976199 62.9577 4.82752 72.4765 11.2449 80.2338C17.6622 87.991 26.2908 93.5578 35.9325 96.2255C38.0569 96.8133 40.1531 95.3769 40.5662 93.2117C40.9792 91.0466 39.5508 88.9755 37.436 88.3541C29.6173 86.0568 22.628 81.4712 17.3952 75.1458C12.1623 68.8204 8.96768 61.0956 8.17608 52.985C7.96197 50.7912 6.19526 49 3.99107 49Z" fill="#00A84E"/>
<path d="M49 3.99106C49 1.78686 47.21 -0.0168929 45.0131 0.162413C35.0423 0.976193 25.5235 4.82752 17.7662 11.2449C10.009 17.6622 4.44223 26.2908 1.77452 35.9325C1.18674 38.0569 2.62313 40.1531 4.78829 40.5662C6.95344 40.9792 9.0245 39.5508 9.64589 37.436C11.9432 29.6173 16.5288 22.628 22.8542 17.3952C29.1796 12.1623 36.9044 8.96767 45.015 8.17608C47.2088 7.96197 49 6.19526 49 3.99106Z" fill="#00A84E"/>
</svg>
