<svg width="1098" height="762" viewBox="0 0 1098 762" fill="none" xmlns="http://www.w3.org/2000/svg">
<g clip-path="url(#clip0_4608_151476)">
<rect width="1098" height="762" rx="12" fill="#101111"/>
<path opacity="0.05" fill-rule="evenodd" clip-rule="evenodd" d="M843.338 312.351C872.058 223.612 953.164 173.831 1049.6 168.776C1158.03 163.094 1238.65 211.962 1279.81 293.076C1305.38 343.462 1313.68 401.836 1309.6 459.969C1332.45 451.891 1356.68 441.458 1382.33 428.295C1426.79 405.473 1479.17 422.277 1499.32 465.828C1519.48 509.38 1499.77 563.187 1455.3 586.01C1382.42 623.419 1313.48 645.572 1249.84 655.223C1179.34 781.322 1047.76 888.919 865.325 876.756C816.875 873.525 782.45 831.133 788.435 782.07C794.42 733.007 838.548 695.852 886.998 699.083C950.39 703.309 1004.96 680.056 1046.69 640.974C981.01 619.163 927.732 580.843 890.108 532.632C843.668 473.124 817.805 391.24 843.338 312.351ZM1131.11 477.075C1137.33 436.299 1132.32 402.627 1121.43 381.161C1111.02 360.659 1092.71 344.286 1048.7 346.593C1026.85 347.738 1017.05 352.993 1014.09 355.003C1011.95 356.459 1011.61 357.202 1011.14 358.651C1009.31 364.292 1007.91 387.562 1031.47 417.747C1049.71 441.122 1082.64 465.913 1131.11 477.075Z" fill="white"/>
<path opacity="0.05" fill-rule="evenodd" clip-rule="evenodd" d="M654.474 -41.1801C674.497 -14.5502 686.637 -0.461748 694.403 5.79177C694.403 5.79177 762.421 82.9609 708.159 140.824C653.896 198.687 588.678 137.273 588.678 137.273C561.997 115.787 537.994 84.5801 519.767 60.3386C514.91 53.8778 510.239 47.5954 505.69 41.4768C490.711 21.3303 477.053 2.95928 462.386 -14.16C443.048 -36.7322 428.767 -48.7007 419.033 -53.7882C416.921 -54.892 415.535 -55.393 414.795 -55.612C414.651 -55.5565 414.475 -55.4855 414.264 -55.3949C413.047 -54.8706 412.062 -54.3966 411.278 -53.9871C410.581 -43.0486 413.936 -24.952 423.401 10.409C424.081 12.9521 424.809 15.6327 425.571 18.4368C433.519 47.7096 445.122 90.4444 444.888 130.81C444.748 154.947 440.626 182.853 426.739 210.261C412.438 238.488 390.364 261.055 362.391 277.525C335.886 293.131 306.989 302.63 276.298 303.251C245.624 303.871 218.785 295.51 196.552 283.9C157.03 263.261 125.984 228.406 106.527 206.562C106.076 206.056 105.632 205.557 105.194 205.066C83.3343 180.539 71.5046 167.579 61.9637 160.457C62.0214 160.688 62.0763 161.015 62.0198 161.527C60.8105 172.504 63.3996 189.85 71.4418 224.261C72.0593 226.903 72.7197 229.684 73.4098 232.59C80.0385 260.502 89.3967 299.908 89.5811 337.906C89.8085 384.753 76.4743 438.975 27.8516 481.577C-30.7532 532.924 -100.393 530.661 -154.27 513.093C-205.754 496.305 -253.404 463.115 -290.81 432.117C-329.375 400.158 -363.136 365.363 -386.875 339.137C-398.865 325.891 -408.577 314.522 -415.373 306.361C-418.777 302.274 -421.464 298.974 -423.355 296.624C-424.301 295.449 -425.05 294.511 -425.59 293.829C-425.771 293.601 -425.929 293.401 -426.063 293.231L-426.245 293.001C-426.328 292.896 -426.397 292.807 -426.453 292.736L-426.528 292.641L-426.557 292.603C-426.57 292.587 -485.876 219.548 -419.485 167.533C-353.095 115.518 -293.81 188.529 -293.82 188.517C-293.775 188.573 -293.681 188.693 -293.536 188.876C-293.246 189.241 -292.759 189.853 -292.083 190.692C-290.732 192.37 -288.632 194.951 -285.862 198.278C-280.311 204.943 -272.127 214.531 -261.923 225.804C-241.275 248.615 -213.456 277.103 -183.255 302.13C-151.895 328.118 -123.591 345.617 -101.939 352.678C-91.7957 355.985 -86.4971 355.859 -84.8866 355.666C-84.813 355.657 -84.7505 355.655 -84.6928 355.652C-84.3762 355.638 -84.2013 355.63 -83.109 354.673C-82.9886 354.567 -82.8613 354.464 -82.7291 354.356C-81.1673 353.085 -78.9112 351.25 -78.9713 338.865C-79.0576 321.093 -83.9432 300.198 -91.9279 266.05C-92.1768 264.985 -92.4287 263.908 -92.6835 262.818L-92.8852 261.955C-99.8277 232.255 -110.366 187.173 -105.519 143.173C-99.6666 90.0527 -72.1227 40.7114 -14.5787 9.45131C12.3632 -5.18449 41.804 -12.6987 72.5495 -10.5632C102.603 -8.47583 127.783 2.40063 147.549 14.7446C180.039 35.0354 207.834 66.4856 226.014 87.0561C227.773 89.0458 229.441 90.9337 231.015 92.6998C253.538 117.971 265.338 129.14 273.779 133.858C274.448 133.544 275.269 133.126 276.248 132.572C276.296 131.861 276.33 130.999 276.336 129.969C276.43 113.861 270.895 92.7134 260.585 54.1918C260.41 53.5371 260.232 52.8741 260.052 52.203C251.81 21.4399 238.998 -26.3806 243.721 -72.4885C246.387 -98.5119 254.696 -126.856 273.655 -152.974C292.622 -179.103 318.427 -197.735 347.778 -210.37C402.512 -233.932 454.871 -225.448 497.15 -203.35C535.733 -183.183 566.842 -151.514 590.377 -124.043C609.241 -102.024 627.598 -77.3077 643.07 -56.4764C647.079 -51.0786 650.894 -45.9417 654.474 -41.1801ZM271.481 134.743C271.481 134.743 271.549 134.72 271.68 134.696C271.546 134.734 271.481 134.743 271.481 134.743ZM408.636 -52.3491C408.636 -52.3491 408.682 -52.3963 408.793 -52.4822C408.695 -52.3906 408.636 -52.3491 408.636 -52.3491Z" fill="white"/>
</g>
<defs>
<clipPath id="clip0_4608_151476">
<rect width="1098" height="762" rx="12" fill="white"/>
</clipPath>
</defs>
</svg>
