<svg width="28" height="28" viewBox="0 0 28 28" fill="none" xmlns="http://www.w3.org/2000/svg">
<path d="M20.9978 7.51277C20.7633 7.10777 20.4326 6.76681 20.0349 6.52008C19.6373 6.27334 19.185 6.12844 18.718 6.09819C18.251 6.06794 17.7837 6.15328 17.3576 6.34666C16.9314 6.54003 16.5595 6.83548 16.2747 7.20685L14.7442 4.55593C14.5047 4.14073 14.1641 3.79284 13.7541 3.5446C13.3441 3.29635 12.8779 3.15582 12.399 3.13606C11.9201 3.11631 11.444 3.21798 11.0149 3.43161C10.5858 3.64524 10.2177 3.9639 9.94487 4.35796C9.50914 3.94924 8.95584 3.68802 8.36338 3.61129C7.77091 3.53456 7.16932 3.64622 6.64385 3.93045C6.11839 4.21468 5.69569 4.65706 5.43565 5.19491C5.17562 5.73277 5.09144 6.33881 5.19504 6.92718C4.76252 7.02791 4.35962 7.22855 4.0186 7.51301C3.67759 7.79748 3.40794 8.15787 3.23127 8.56531C3.0546 8.97274 2.97582 9.41589 3.00125 9.85925C3.02667 10.3026 3.15558 10.7339 3.37766 11.1184L3.59554 11.4959C3.13153 11.5568 2.68969 11.7312 2.30914 12.0036C1.92859 12.276 1.62105 12.638 1.41373 13.0576C1.20642 13.4772 1.10573 13.9414 1.12057 14.4092C1.13541 14.8769 1.26533 15.3338 1.49882 15.7394L5.54569 22.7488C6.37525 24.1855 7.59612 25.3567 9.06595 26.126C10.5358 26.8953 12.194 27.2309 13.8473 27.0936C15.5006 26.9564 17.0808 26.352 18.4037 25.351C19.7266 24.3499 20.7377 22.9934 21.319 21.4396C22.7385 20.0858 23.6618 18.2943 23.9408 16.3526C24.2198 14.411 23.8382 12.432 22.8572 10.7333L20.9978 7.51277ZM11.7344 5.03061C11.9857 4.88589 12.2841 4.84677 12.5643 4.92181C12.8444 4.99686 13.0833 5.17995 13.2286 5.43093L15.5638 9.47539C14.9895 9.64804 14.4839 9.99683 14.1186 10.4725L12.588 7.82154C12.3206 7.35758 11.9269 6.97914 11.4527 6.7303L11.3341 6.52468C11.1895 6.27338 11.1504 5.97497 11.2254 5.69488C11.3005 5.41479 11.4835 5.17591 11.7345 5.03061H11.7344ZM7.44947 5.48386C7.70077 5.33918 7.99918 5.30008 8.27927 5.37512C8.55936 5.45017 8.79825 5.63324 8.94354 5.88418L9.31027 6.51943C8.69174 6.70375 8.15463 7.09365 7.78777 7.62466C7.60193 7.45035 7.3934 7.30194 7.16783 7.18344L7.04916 6.97804C6.90445 6.72673 6.86532 6.42829 6.94037 6.14818C7.01542 5.86806 7.19851 5.62916 7.44947 5.48386V5.48386ZM16.6234 24.4359C15.0151 25.362 13.1052 25.6124 11.3125 25.132C9.51991 24.6517 7.99099 23.48 7.06119 21.8738L3.01432 14.8645C2.86928 14.6133 2.82998 14.3147 2.90508 14.0345C2.98017 13.7543 3.1635 13.5154 3.41474 13.3703C3.66598 13.2253 3.96455 13.186 4.24476 13.2611C4.52497 13.3362 4.76387 13.5195 4.90891 13.7708L7.53391 18.3174C7.65077 18.5167 7.84173 18.6617 8.06511 18.7208C8.28849 18.7798 8.52617 18.7482 8.72627 18.6326C8.92637 18.5171 9.07265 18.3271 9.13319 18.1041C9.19373 17.8811 9.16361 17.6432 9.04941 17.4424L4.89316 10.2434C4.82021 10.119 4.7726 9.98135 4.75306 9.83844C4.73351 9.69552 4.74244 9.55016 4.7793 9.4107C4.81617 9.27125 4.88026 9.14047 4.96788 9.02589C5.0555 8.9113 5.16492 8.81518 5.28984 8.74306C5.41475 8.67094 5.5527 8.62423 5.69574 8.60564C5.83878 8.58705 5.98409 8.59693 6.12329 8.63473C6.2625 8.67252 6.39285 8.73748 6.50685 8.82585C6.62085 8.91423 6.71624 9.02428 6.78754 9.14968L10.9438 16.3486C11.0606 16.548 11.2516 16.693 11.475 16.752C11.6984 16.8111 11.936 16.7794 12.1361 16.6639C12.3362 16.5483 12.4825 16.3583 12.5431 16.1354C12.6036 15.9124 12.5735 15.6745 12.4593 15.4736L9.17804 9.79029C9.10622 9.66589 9.05961 9.52857 9.04086 9.38616C9.02212 9.24376 9.0316 9.09905 9.06878 8.96031C9.10596 8.82157 9.1701 8.69151 9.25754 8.57755C9.34498 8.4636 9.45401 8.36799 9.5784 8.29617C9.7028 8.22435 9.84012 8.17774 9.98253 8.15899C10.1249 8.14025 10.2696 8.14973 10.4084 8.18691C10.6886 8.26199 10.9275 8.44531 11.0725 8.69654L15.6663 16.6531C15.7831 16.8525 15.9741 16.9975 16.1975 17.0565C16.4209 17.1156 16.6585 17.0839 16.8586 16.9684C17.0587 16.8528 17.205 16.6628 17.2656 16.4399C17.3261 16.2169 17.296 15.979 17.1818 15.7781L15.4318 12.7471V12.747C15.36 12.6226 15.3133 12.4853 15.2946 12.3429C15.2758 12.2005 15.2853 12.0558 15.3225 11.917C15.3976 11.6368 15.5809 11.3979 15.8321 11.2529C16.0834 11.1079 16.3819 11.0686 16.6621 11.1436C16.8009 11.1808 16.9309 11.245 17.0449 11.3324C17.1588 11.4198 17.2544 11.5289 17.3263 11.6533L19.1856 14.8738C20.1138 16.4816 20.3653 18.3923 19.8848 20.1855C19.4043 21.9787 18.2312 23.5077 16.6234 24.4359V24.4359ZM21.8362 17.541C21.717 16.2924 21.3299 15.0842 20.7012 13.9988L18.8418 10.7783C18.5745 10.313 18.1801 9.93347 17.7049 9.68419L17.5879 9.48152C17.5149 9.35708 17.4673 9.21945 17.4478 9.07653C17.4282 8.93362 17.4372 8.78825 17.474 8.6488C17.5109 8.50935 17.575 8.37856 17.6626 8.26398C17.7502 8.1494 17.8596 8.05328 17.9846 7.98115C18.1095 7.90903 18.2474 7.86233 18.3905 7.84374C18.5335 7.82514 18.6788 7.83503 18.818 7.87282C18.9572 7.91061 19.0876 7.97557 19.2016 8.06395C19.3156 8.15232 19.411 8.26238 19.4823 8.38777L21.3416 11.6083C21.8531 12.5008 22.1625 13.4946 22.2479 14.5197C22.3334 15.5448 22.1929 16.5762 21.8362 17.541V17.541ZM18.0442 2.69666L18.4971 1.00638C18.5572 0.782219 18.7039 0.591111 18.9049 0.475096C19.1059 0.359082 19.3447 0.327664 19.5689 0.387754C19.793 0.447844 19.9841 0.59452 20.1002 0.795515C20.2162 0.99651 20.2476 1.23536 20.1875 1.45952L19.7346 3.1498C19.7048 3.26079 19.6535 3.36484 19.5835 3.456C19.5136 3.54715 19.4263 3.62364 19.3268 3.68108C19.2273 3.73853 19.1174 3.77581 19.0035 3.79079C18.8896 3.80578 18.7738 3.79818 18.6628 3.76843C18.5518 3.73867 18.4478 3.68735 18.3566 3.61738C18.2655 3.54742 18.189 3.46019 18.1315 3.36066C18.0155 3.15967 17.9841 2.92082 18.0442 2.69666V2.69666ZM20.9268 3.70564L21.9306 2.27207C21.996 2.17674 22.0797 2.09533 22.1767 2.03252C22.2738 1.96972 22.3824 1.92677 22.4961 1.90617C22.6099 1.88556 22.7266 1.8877 22.8395 1.91246C22.9524 1.93722 23.0593 1.98412 23.154 2.05044C23.2487 2.11676 23.3293 2.20119 23.3912 2.29884C23.4531 2.3965 23.495 2.50545 23.5145 2.6194C23.534 2.73335 23.5308 2.85004 23.5049 2.96272C23.4791 3.0754 23.4312 3.18185 23.364 3.27591L22.3601 4.70949C22.226 4.89712 22.0233 5.02422 21.796 5.06317C21.5687 5.10211 21.3352 5.04974 21.1463 4.91744C20.9574 4.78515 20.8284 4.58363 20.7873 4.3567C20.7461 4.12978 20.7963 3.8958 20.9268 3.70564V3.70564ZM25.7278 6.06924L24.2942 7.07308C24.1041 7.20357 23.8701 7.25371 23.6432 7.2126C23.4162 7.17149 23.2147 7.04246 23.0824 6.85356C22.9501 6.66466 22.8977 6.43117 22.9367 6.20386C22.9756 5.97656 23.1027 5.77381 23.2904 5.63972L24.7239 4.63588C24.818 4.56866 24.9244 4.52075 25.0371 4.49491C25.1498 4.46907 25.2665 4.46581 25.3805 4.48534C25.4944 4.50486 25.6034 4.54677 25.701 4.60864C25.7987 4.67052 25.8831 4.75113 25.9494 4.84583C26.0157 4.94052 26.0626 5.04742 26.0874 5.16035C26.1122 5.27327 26.1143 5.38999 26.0937 5.50374C26.0731 5.6175 26.0301 5.72605 25.9673 5.82311C25.9045 5.92017 25.8231 6.00383 25.7278 6.06924V6.06924Z" fill="#292934"/>
</svg>
