<svg width="24" height="24" viewBox="0 0 24 24" fill="none" xmlns="http://www.w3.org/2000/svg">
<path fill-rule="evenodd" clip-rule="evenodd" d="M7.20005 2.40002C5.87456 2.40002 4.80005 3.47454 4.80005 4.80002V19.2C4.80005 20.5255 5.87456 21.6 7.20005 21.6H16.8C18.1255 21.6 19.2 20.5255 19.2 19.2V8.89708C19.2 8.26056 18.9472 7.65011 18.4971 7.20002L14.4 3.10297C13.95 2.65288 13.3395 2.40002 12.703 2.40002H7.20005ZM13.2 9.60002C13.2 8.93728 12.6628 8.40002 12 8.40002C11.3373 8.40002 10.8 8.93728 10.8 9.60002V12H8.40005C7.73731 12 7.20005 12.5373 7.20005 13.2C7.20005 13.8628 7.73731 14.4 8.40005 14.4H10.8V16.8C10.8 17.4628 11.3373 18 12 18C12.6628 18 13.2 17.4628 13.2 16.8L13.2 14.4H15.6C16.2628 14.4 16.8 13.8628 16.8 13.2C16.8 12.5373 16.2628 12 15.6 12H13.2V9.60002Z" fill="#030903"/>
</svg>
