<svg width="40" height="40" viewBox="0 0 40 40" fill="none" xmlns="http://www.w3.org/2000/svg">
<g id="Add User Male">
<path id="Vector" d="M20 5C18.2319 5 16.5362 5.70238 15.286 6.95262C14.0357 8.20286 13.3333 9.89856 13.3333 11.6667C13.3333 13.4348 14.0357 15.1305 15.286 16.3807C16.5362 17.631 18.2319 18.3333 20 18.3333C21.7681 18.3333 23.4638 17.631 24.714 16.3807C25.9643 15.1305 26.6667 13.4348 26.6667 11.6667C26.6667 9.89856 25.9643 8.20286 24.714 6.95262C23.4638 5.70238 21.7681 5 20 5ZM30 20C24.5 20 20 24.5 20 30C20 35.5 24.5 40 30 40C35.5 40 40 35.5 40 30C40 24.5 35.5 20 30 20ZM18.418 23.4115C13.1513 23.8481 5 26.3267 5 30.8333V35H17.6465C17.0198 33.455 16.6667 31.77 16.6667 30C16.6667 27.6 17.308 25.3565 18.418 23.4115ZM30 25C30.92 25 31.6667 25.7467 31.6667 26.6667V28.3333H33.3333C34.2533 28.3333 35 29.08 35 30C35 30.92 34.2533 31.6667 33.3333 31.6667H31.6667V33.3333C31.6667 34.2533 30.92 35 30 35C29.08 35 28.3333 34.2533 28.3333 33.3333V31.6667H26.6667C25.7467 31.6667 25 30.92 25 30C25 29.08 25.7467 28.3333 26.6667 28.3333H28.3333V26.6667C28.3333 25.7467 29.08 25 30 25Z" fill="#A2A3A9"/>
</g>
</svg>
