<svg width="21" height="20" viewBox="0 0 21 20" fill="none" xmlns="http://www.w3.org/2000/svg">
<path d="M2.98828 0.25C1.75448 0.25 0.738281 1.2662 0.738281 2.5V17.5C0.738281 18.7338 1.75448 19.75 2.98828 19.75H17.9883C19.2221 19.75 20.2383 18.7338 20.2383 17.5V2.5C20.2383 1.2662 19.2221 0.25 17.9883 0.25H2.98828ZM2.98828 1.75H17.9883C18.4105 1.75 18.7383 2.0778 18.7383 2.5V17.5C18.7383 17.9222 18.4105 18.25 17.9883 18.25H2.98828C2.56608 18.25 2.23828 17.9222 2.23828 17.5V2.5C2.23828 2.0778 2.56608 1.75 2.98828 1.75ZM5.23828 4.75V6.25H15.7383V4.75H5.23828ZM5.23828 7.75V9.25H11.2383V7.75H5.23828ZM5.23828 10.75V12.25H15.7383V10.75H5.23828ZM5.23828 13.75V15.25H11.2383V13.75H5.23828Z" fill="white"/>
</svg>
