<svg width="24" height="24" viewBox="0 0 24 24" fill="none" xmlns="http://www.w3.org/2000/svg">
<path d="M12.6464 12.6465C12.3077 12.9851 11.7933 13.0074 11.439 12.7319L11.3535 12.6465C10.9988 12.2917 10.9988 11.7183 11.3535 11.3636L11.4391 11.2779C11.7953 11.0009 12.309 11.0261 12.6364 11.3536L12.7215 11.4386C12.9991 11.7961 12.9741 12.3188 12.6464 12.6465ZM12.3535 5.64645L11.9991 5.29206L11.6456 5.64729L9.88912 7.41206L8.09707 5.62001L10.9435 2.77356C11.5283 2.18882 12.4817 2.18882 13.0664 2.77356L15.9129 5.62001L14.12 7.4129L12.3535 5.64645ZM5.64641 11.6465L5.29202 12.0008L5.64724 12.3544L7.41202 14.1108L5.61996 15.9029L2.77351 13.0565C2.18878 12.4717 2.18878 11.5183 2.77351 10.9336L5.61996 8.08711L7.41285 9.88001L5.64641 11.6465ZM18.3535 12.3536L18.7079 11.9992L18.3527 11.6456L16.5879 9.88917L18.38 8.09711L21.2264 10.9436C21.8111 11.5283 21.8111 12.4817 21.2264 13.0665L18.38 15.9129L16.5871 14.12L18.3535 12.3536ZM11.6464 18.3536L12.0008 18.7079L12.3543 18.3527L14.1108 16.5879L15.9029 18.38L13.0564 21.2265C12.4717 21.8112 11.5183 21.8112 10.9335 21.2265L8.08707 18.38L9.87996 16.5871L11.6464 18.3536Z" stroke="black"/>
</svg>
