<svg width="25" height="24" viewBox="0 0 25 24" fill="none" xmlns="http://www.w3.org/2000/svg">
<path d="M5.08555 3.59998C3.76006 3.59998 2.68555 4.67449 2.68555 5.99998C2.68555 7.32546 3.76006 8.39998 5.08555 8.39998H19.4855C20.811 8.39998 21.8855 7.32546 21.8855 5.99998C21.8855 4.67449 20.811 3.59998 19.4855 3.59998H5.08555Z" fill="#030903"/>
<path fill-rule="evenodd" clip-rule="evenodd" d="M3.88555 9.59998H20.6855V18C20.6855 19.3255 19.611 20.4 18.2855 20.4H6.28555C4.96006 20.4 3.88555 19.3255 3.88555 18V9.59998ZM9.88555 13.2C9.88555 12.5372 10.4228 12 11.0855 12H13.4855C14.1483 12 14.6855 12.5372 14.6855 13.2C14.6855 13.8627 14.1483 14.4 13.4855 14.4H11.0855C10.4228 14.4 9.88555 13.8627 9.88555 13.2Z" fill="#030903"/>
</svg>
