<svg width="25" height="24" viewBox="0 0 25 24" fill="none" xmlns="http://www.w3.org/2000/svg">
    <path fill-rule="evenodd" clip-rule="evenodd"
          d="M17.948 6.90886C15.1362 4.09708 10.5774 4.09708 7.76567 6.90886C4.95389 9.72063 4.95389 14.2794 7.76567 17.0912C10.2096 19.5351 13.9759 19.8558 16.7652 18.049C17.3214 17.6887 18.0644 17.8475 18.4247 18.4038C18.785 18.96 18.6262 19.703 18.07 20.0633C14.3502 22.4728 9.32955 22.0492 6.06861 18.7882C2.31958 15.0392 2.31958 8.96083 6.06861 5.2118C9.81764 1.46277 15.896 1.46277 19.6451 5.2118C21.5193 7.08606 22.4568 9.54507 22.4568 12C22.4568 13.9883 20.8451 15.6 18.8568 15.6C18.0464 15.6 17.2986 15.3323 16.6969 14.8804C15.8212 16.046 14.4271 16.8 12.8568 16.8C10.2059 16.8 8.05684 14.651 8.05684 12C8.05684 9.34906 10.2059 7.20002 12.8568 7.20002C15.5078 7.20002 17.6568 9.34906 17.6568 12C17.6568 12.6628 18.1941 13.2 18.8568 13.2C19.5196 13.2 20.0568 12.6628 20.0568 12C20.0568 10.1556 19.3541 8.31495 17.948 6.90886ZM15.2568 12C15.2568 10.6745 14.1823 9.60002 12.8568 9.60002C11.5314 9.60002 10.4568 10.6745 10.4568 12C10.4568 13.3255 11.5314 14.4 12.8568 14.4C14.1823 14.4 15.2568 13.3255 15.2568 12Z"
          fill="#030903"/>
</svg>
