<svg width="25" height="24" viewBox="0 0 25 24" fill="none" xmlns="http://www.w3.org/2000/svg">
<path d="M16.8569 12C16.8569 9.79086 15.0661 8 12.8569 8C10.6478 8 8.85693 9.79086 8.85693 12C8.85693 14.2091 10.6478 16 12.8569 16C15.0661 16 16.8569 14.2091 16.8569 12ZM16.8569 12V13.5C16.8569 14.8807 17.9762 16 19.3569 16C20.7376 16 21.8569 14.8807 21.8569 13.5V12C21.8569 7.02944 17.8275 3 12.8569 3C7.88637 3 3.85693 7.02944 3.85693 12C3.85693 16.9706 7.88637 21 12.8569 21M17.3569 19.7942C15.937 20.614 14.3865 21.0029 12.8569 21.0015" stroke="#030903" stroke-width="2" stroke-linecap="round" stroke-linejoin="round"/>
</svg>
