<svg width="74" height="88" viewBox="0 0 74 88" fill="none" xmlns="http://www.w3.org/2000/svg">
<path d="M27.3334 0.666504C26.7302 0.667369 26.1384 0.83193 25.6213 1.14264C25.1043 1.45336 24.6812 1.89857 24.3972 2.43083H24.3907L1.14201 45.6144L1.14852 45.6209C0.835802 46.1375 0.669282 46.7293 0.666748 47.3332C0.666748 48.2172 1.01794 49.0651 1.64306 49.6902C2.26818 50.3153 3.11603 50.6665 4.00008 50.6665H17.3334V83.9998C17.3334 84.8839 17.6846 85.7317 18.3097 86.3569C18.9348 86.982 19.7827 87.3332 20.6667 87.3332C21.2816 87.3327 21.8843 87.1621 22.4082 86.8404C22.9322 86.5187 23.3569 86.0583 23.6355 85.5103H23.642L47.0209 42.0793L47.0079 42.0597C47.207 41.6325 47.3334 41.1687 47.3334 40.6665C47.3334 38.8265 45.8401 37.3332 44.0001 37.3332H30.6667V3.99984C30.6667 3.11578 30.3156 2.26794 29.6904 1.64281C29.0653 1.01769 28.2175 0.666504 27.3334 0.666504ZM54.241 0.666504L44.0001 30.6665H51.7019L53.6681 24.078H63.6355L65.5365 30.6665H74.0001L63.7397 0.666504H54.241ZM58.4923 7.42432H58.8959L62.1707 18.5897H55.1524L58.4923 7.42432Z" fill="white"/>
</svg>
