<svg width="25" height="24" viewBox="0 0 25 24" fill="none" xmlns="http://www.w3.org/2000/svg">
<path d="M20.3686 9.37668C19.8146 8.07561 18.9497 6.93042 17.8498 6.04165C16.7499 5.15287 15.4487 4.54769 14.0603 4.27921L15.3145 2.27254L14.0425 1.47754L12.3875 4.12541C10.7018 4.13323 9.05531 4.63475 7.65147 5.56801C6.24762 6.50126 5.14794 7.82535 4.48831 9.37668C3.60475 9.39347 2.76304 9.75626 2.14412 10.3871C1.52519 11.0179 1.17847 11.8663 1.17847 12.75C1.17847 13.6338 1.52519 14.4822 2.14412 15.113C2.76304 15.7438 3.60475 16.1066 4.48831 16.1234C5.15075 17.6811 6.25674 19.0096 7.66859 19.9434C9.08043 20.8772 10.7358 21.375 12.4285 21.375C14.1212 21.375 15.7765 20.8772 17.1884 19.9434C18.6002 19.0096 19.7062 17.6811 20.3686 16.1234C21.2522 16.1066 22.0939 15.7438 22.7128 15.113C23.3317 14.4822 23.6785 13.6338 23.6785 12.75C23.6785 11.8663 23.3317 11.0179 22.7128 10.3871C22.0939 9.75626 21.2522 9.39347 20.3686 9.37668ZM21.6414 14.063C21.2983 14.4139 20.8308 14.6153 20.3401 14.6237L19.3686 14.6421L18.9883 15.5362C18.4412 16.8233 17.5275 17.9209 16.3611 18.6925C15.1946 19.464 13.827 19.8754 12.4285 19.8754C11.03 19.8754 9.66236 19.464 8.49593 18.6925C7.32951 17.9209 6.41582 16.8233 5.86864 15.5362L5.4883 14.6421L4.51681 14.6237C4.02597 14.6145 3.55832 14.4131 3.21444 14.0627C2.87056 13.7123 2.67791 13.241 2.67791 12.75C2.67791 12.2591 2.87056 11.7878 3.21444 11.4374C3.55832 11.087 4.02597 10.8856 4.51681 10.8764L5.4883 10.8579L5.86864 9.96384C6.41584 8.67682 7.32953 7.57921 8.49595 6.80766C9.66237 6.03612 11.03 5.62473 12.4285 5.62473C13.827 5.62473 15.1946 6.03612 16.361 6.80766C17.5275 7.57921 18.4411 8.67682 18.9883 9.96384L19.3686 10.8579L20.3401 10.8764C20.7062 10.8833 21.0623 10.9974 21.3643 11.2044C21.6663 11.4115 21.901 11.7025 22.0394 12.0415C22.1779 12.3805 22.2139 12.7526 22.1432 13.1119C22.0724 13.4711 21.898 13.8018 21.6414 14.063V14.063Z" fill="black"/>
<path d="M8.30347 10.875H10.1785V12.75H8.30347V10.875ZM14.6785 10.875H16.5535V12.75H14.6785V10.875ZM12.4285 18C12.9209 18 13.4086 17.903 13.8635 17.7145C14.3185 17.5261 14.7319 17.2499 15.0801 16.9017C15.4283 16.5534 15.7046 16.14 15.893 15.6851C16.0815 15.2301 16.1785 14.7425 16.1785 14.25H8.67847C8.67847 14.7425 8.77546 15.2301 8.96392 15.6851C9.15237 16.14 9.4286 16.5534 9.77682 16.9017C10.4801 17.6049 11.4339 18 12.4285 18V18Z" fill="black"/>
</svg>
