<svg width="25" height="24" viewBox="0 0 25 24" fill="none" xmlns="http://www.w3.org/2000/svg">
<path fill-rule="evenodd" clip-rule="evenodd" d="M22.1712 12C22.1712 17.302 17.8731 21.6 12.5712 21.6C7.26926 21.6 2.97119 17.302 2.97119 12C2.97119 6.69809 7.26926 2.40002 12.5712 2.40002C17.8731 2.40002 22.1712 6.69809 22.1712 12ZM16.7431 17.8689C15.5661 18.707 14.1262 19.2 12.5712 19.2C8.59474 19.2 5.37119 15.9765 5.37119 12C5.37119 10.445 5.86416 9.0051 6.70235 7.8281L16.7431 17.8689ZM18.4401 16.1718L8.39944 6.13107C9.5764 5.29295 11.0162 4.80002 12.5712 4.80002C16.5476 4.80002 19.7712 8.02357 19.7712 12C19.7712 13.555 19.2783 14.9948 18.4401 16.1718Z" fill="#030903"/>
</svg>
