<svg width="21" height="20" viewBox="0 0 21 20" fill="none" xmlns="http://www.w3.org/2000/svg">
<path d="M15.9541 6.66675C15.9541 5.34067 15.4273 4.0689 14.4896 3.13121C13.552 2.19353 12.2802 1.66675 10.9541 1.66675C9.62802 1.66675 8.35625 2.19353 7.41857 3.13121C6.48089 4.0689 5.9541 5.34067 5.9541 6.66675C5.9541 12.5001 3.4541 14.1667 3.4541 14.1667H18.4541C18.4541 14.1667 15.9541 12.5001 15.9541 6.66675Z" fill="white" stroke="white" stroke-width="2" stroke-linecap="round" stroke-linejoin="round"/>
<path d="M12.396 17.5C12.2495 17.7526 12.0392 17.9622 11.7862 18.1079C11.5332 18.2537 11.2463 18.3304 10.9544 18.3304C10.6624 18.3304 10.3755 18.2537 10.1225 18.1079C9.86949 17.9622 9.6592 17.7526 9.5127 17.5" stroke="white" stroke-width="2" stroke-linecap="round" stroke-linejoin="round"/>
</svg>
