<svg width="25" height="24" viewBox="0 0 25 24" fill="none" xmlns="http://www.w3.org/2000/svg">
<path d="M15.1426 17H20.1426L18.7376 15.5951C18.3566 15.2141 18.1426 14.6973 18.1426 14.1585V11C18.1426 8.38757 16.473 6.16509 14.1426 5.34142V5C14.1426 3.89543 13.2471 3 12.1426 3C11.038 3 10.1426 3.89543 10.1426 5V5.34142C7.81219 6.16509 6.14258 8.38757 6.14258 11V14.1585C6.14258 14.6973 5.92853 15.2141 5.54751 15.5951L4.14258 17H9.14258M15.1426 17V18C15.1426 19.6569 13.7994 21 12.1426 21C10.4857 21 9.14258 19.6569 9.14258 18V17M15.1426 17H9.14258" stroke="#030903" stroke-width="2" stroke-linecap="round" stroke-linejoin="round"/>
</svg>
