<svg width="25" height="24" viewBox="0 0 25 24" fill="none" xmlns="http://www.w3.org/2000/svg">
<path fill-rule="evenodd" clip-rule="evenodd" d="M7.91401 2.40002C7.25127 2.40002 6.71401 2.93728 6.71401 3.60002V4.80002H5.51401C4.18853 4.80002 3.11401 5.87454 3.11401 7.20002V19.2C3.11401 20.5255 4.18853 21.6 5.51401 21.6H19.914C21.2395 21.6 22.314 20.5255 22.314 19.2V7.20002C22.314 5.87454 21.2395 4.80002 19.914 4.80002H18.714V3.60002C18.714 2.93728 18.1768 2.40002 17.514 2.40002C16.8513 2.40002 16.314 2.93728 16.314 3.60002V4.80002H9.11401V3.60002C9.11401 2.93728 8.57676 2.40002 7.91401 2.40002ZM7.91401 8.40002C7.25127 8.40002 6.71401 8.93728 6.71401 9.60002C6.71401 10.2628 7.25127 10.8 7.91401 10.8H17.514C18.1768 10.8 18.714 10.2628 18.714 9.60002C18.714 8.93728 18.1768 8.40002 17.514 8.40002H7.91401Z" fill="#030903"/>
</svg>
