<svg width="46" height="45" viewBox="0 0 46 45" fill="none" xmlns="http://www.w3.org/2000/svg">
<path fill-rule="evenodd" clip-rule="evenodd" d="M13.0229 0.803041C13.473 0.352954 14.0835 0.100098 14.72 0.100098H31.28C31.9165 0.100098 32.5269 0.352954 32.977 0.803041L44.697 12.523C45.1471 12.9731 45.4 13.5836 45.4 14.2201V30.7801C45.4 31.4166 45.1471 32.0271 44.697 32.4772L32.977 44.1972C32.5269 44.6472 31.9165 44.9001 31.28 44.9001H14.72C14.0835 44.9001 13.473 44.6472 13.0229 44.1972L1.30292 32.4772C0.852832 32.0271 0.599976 31.4166 0.599976 30.7801V14.2201C0.599976 13.5836 0.852832 12.9731 1.30292 12.523L13.0229 0.803041ZM15.7141 4.9001L5.39998 15.2142V29.786L15.7141 40.1001H30.2859L40.6 29.786V15.2142L30.2859 4.9001H15.7141ZM23.0001 12.1001C24.3256 12.1001 25.4001 13.1746 25.4001 14.5001V22.5001C25.4001 23.8256 24.3256 24.9001 23.0001 24.9001C21.6746 24.9001 20.6001 23.8256 20.6001 22.5001V14.5001C20.6001 13.1746 21.6746 12.1001 23.0001 12.1001ZM23.0001 28.0997C21.6746 28.0997 20.6001 29.1742 20.6001 30.4997C20.6001 31.8252 21.6746 32.8997 23.0001 32.8997H23.0201C24.3456 32.8997 25.4201 31.8252 25.4201 30.4997C25.4201 29.1742 24.3456 28.0997 23.0201 28.0997H23.0001Z" fill="url(#paint0_linear_11812_34614)"/>
<defs>
<linearGradient id="paint0_linear_11812_34614" x1="0.599976" y1="0.100098" x2="45.4" y2="44.9001" gradientUnits="userSpaceOnUse">
<stop stop-color="#FEBC3B"/>
<stop offset="1" stop-color="#F35C3B"/>
</linearGradient>
</defs>
</svg>
