<svg width="24" height="24" viewBox="0 0 24 24" fill="none" xmlns="http://www.w3.org/2000/svg">
<path d="M10.3593 4.8C10.1831 4.62073 9.96394 4.48956 9.7227 4.41899C9.48146 4.34842 9.22616 4.34081 8.98114 4.39688C8.7339 4.45152 8.50451 4.56787 8.31435 4.73507C8.1242 4.90228 7.97947 5.1149 7.89364 5.35312L2.84052 19.2375C2.76172 19.4635 2.73778 19.7049 2.77068 19.942C2.80358 20.179 2.89237 20.4049 3.02974 20.6008C3.1671 20.7968 3.3491 20.9573 3.5607 21.0691C3.77231 21.1809 4.00747 21.2407 4.24677 21.2438C4.4221 21.244 4.59629 21.2155 4.76239 21.1594L18.6468 16.1063C18.885 16.0204 19.0976 15.8757 19.2648 15.6855C19.432 15.4954 19.5484 15.266 19.603 15.0187C19.6591 14.7737 19.6515 14.5184 19.5809 14.2772C19.5103 14.036 19.3792 13.8168 19.1999 13.6406L10.3593 4.8ZM5.98114 14.9813L7.78114 10.0312L13.9686 16.2188L9.01864 18.0187L5.98114 14.9813ZM14.9999 6.75C15.0137 6.24277 15.1351 5.74426 15.3561 5.2875C15.853 4.29375 16.7905 3.75 17.9999 3.75C18.628 3.75 19.0311 3.53437 19.2843 3.075C19.4133 2.81487 19.4867 2.53071 19.4999 2.24062C19.4999 2.14257 19.5193 2.04549 19.5572 1.95502C19.595 1.86454 19.6504 1.78248 19.7201 1.71358C19.7899 1.64468 19.8726 1.59033 19.9636 1.55366C20.0545 1.517 20.1518 1.49876 20.2499 1.5C20.4488 1.5 20.6396 1.57902 20.7802 1.71967C20.9209 1.86032 20.9999 2.05109 20.9999 2.25C20.9999 3.45937 20.203 5.25 17.9999 5.25C17.3718 5.25 16.9686 5.46563 16.7155 5.925C16.5865 6.18513 16.513 6.46929 16.4999 6.75937C16.4999 6.85743 16.4804 6.95451 16.4426 7.04498C16.4048 7.13546 16.3494 7.21752 16.2797 7.28642C16.2099 7.35532 16.1271 7.40967 16.0362 7.44634C15.9453 7.483 15.8479 7.50124 15.7499 7.5C15.551 7.5 15.3602 7.42098 15.2196 7.28033C15.0789 7.13968 14.9999 6.94891 14.9999 6.75V6.75ZM12.7499 3.75V1.5C12.7499 1.30109 12.8289 1.11032 12.9696 0.96967C13.1102 0.829018 13.301 0.75 13.4999 0.75C13.6988 0.75 13.8896 0.829018 14.0302 0.96967C14.1709 1.11032 14.2499 1.30109 14.2499 1.5V3.75C14.2499 3.94891 14.1709 4.13968 14.0302 4.28033C13.8896 4.42098 13.6988 4.5 13.4999 4.5C13.301 4.5 13.1102 4.42098 12.9696 4.28033C12.8289 4.13968 12.7499 3.94891 12.7499 3.75ZM22.2843 11.4656C22.4251 11.6078 22.5041 11.7999 22.5041 12C22.5041 12.2001 22.4251 12.3922 22.2843 12.5344C22.1409 12.673 21.9493 12.7505 21.7499 12.7505C21.5505 12.7505 21.3589 12.673 21.2155 12.5344L19.7155 11.0344C19.5959 10.8887 19.5348 10.7037 19.544 10.5154C19.5533 10.3271 19.6322 10.149 19.7655 10.0157C19.8989 9.88236 20.077 9.8034 20.2653 9.79416C20.4535 9.78491 20.6385 9.84603 20.7843 9.96563L22.2843 11.4656ZM22.7343 7.4625L20.4843 8.2125C20.4089 8.23856 20.3296 8.25125 20.2499 8.25C20.0715 8.25004 19.899 8.18651 19.7632 8.07081C19.6275 7.95511 19.5374 7.7948 19.5092 7.61868C19.4809 7.44255 19.5164 7.26213 19.6092 7.1098C19.702 6.95747 19.8461 6.8432 20.0155 6.7875L22.2655 6.0375C22.3591 6.00672 22.4578 5.99467 22.556 6.00204C22.6542 6.00941 22.7501 6.03606 22.838 6.08046C22.9259 6.12486 23.0042 6.18614 23.0685 6.2608C23.1327 6.33547 23.1816 6.42206 23.2124 6.51562C23.2432 6.60919 23.2552 6.7079 23.2478 6.80613C23.2405 6.90435 23.2138 7.00016 23.1694 7.08809C23.125 7.17601 23.0638 7.25433 22.9891 7.31857C22.9144 7.38281 22.8278 7.43172 22.7343 7.4625Z" fill="black"/>
</svg>
