<svg width="22" height="16" viewBox="0 0 22 16" fill="none" xmlns="http://www.w3.org/2000/svg">
<path id="Vector 178" d="M2.82635 13.9652L0.94988 10.0522C0.353967 8.80951 1.41417 7.41383 2.77114 7.65463L4.48517 7.95879C5.20631 8.08676 5.92791 7.73622 6.27308 7.09026L8.72478 2.50215C9.25202 1.51547 10.5746 1.30295 11.3844 2.07477L14.8729 5.39966C15.4287 5.92939 16.2716 6.01846 16.9258 5.61661L17.7108 5.13445C18.9296 4.38585 20.4697 5.39338 20.2721 6.80997L19.7142 10.8089C19.6143 11.5248 19.0707 12.0982 18.3611 12.236L4.6746 14.8945C3.91884 15.0413 3.15925 14.6594 2.82635 13.9652Z" fill="white" stroke="white" stroke-width="1.50163"/>
</svg>
