<svg width="22" height="16" viewBox="0 0 22 16" fill="none" xmlns="http://www.w3.org/2000/svg">
<path id="Vector 178" d="M2.82586 13.9652L0.949391 10.0522C0.353479 8.80951 1.41369 7.41383 2.77065 7.65463L4.48468 7.95879C5.20582 8.08676 5.92742 7.73622 6.27259 7.09026L8.72429 2.50215C9.25153 1.51547 10.5741 1.30295 11.3839 2.07477L14.8725 5.39966C15.4283 5.92939 16.2711 6.01846 16.9253 5.61661L17.7103 5.13445C18.9291 4.38585 20.4692 5.39338 20.2716 6.80997L19.7137 10.8089C19.6138 11.5248 19.0702 12.0982 18.3606 12.236L4.67411 14.8945C3.91835 15.0413 3.15876 14.6594 2.82586 13.9652Z" stroke="#A2A3A9" stroke-width="1.50163"/>
</svg>
