<svg width="35" height="35" viewBox="0 0 35 35" fill="none" xmlns="http://www.w3.org/2000/svg">
<g clip-path="url(#clip0_7524_151679)">
<g filter="url(#filter0_d_7524_151679)">
<path d="M17.5 0L11.6667 5.83333L17.5 11.6667V7.29167C23.1277 7.29167 27.7083 11.8708 27.7083 17.5C27.7083 18.7833 27.4593 20.0085 27.0247 21.1401L29.235 23.3476C30.1173 21.5844 30.625 19.6029 30.625 17.5C30.625 10.2638 24.7377 4.375 17.5 4.375V0ZM5.76497 11.6524C4.88268 13.4156 4.375 15.3971 4.375 17.5C4.375 24.7362 10.2623 30.625 17.5 30.625V35L23.3333 29.1667L17.5 23.3333V27.7083C11.8723 27.7083 7.29167 23.1292 7.29167 17.5C7.29167 16.2167 7.54068 14.9915 7.97526 13.8599L5.76497 11.6524Z" fill="white"/>
</g>
</g>
<defs>
<filter id="filter0_d_7524_151679" x="1.375" y="-3" width="34.25" height="43" filterUnits="userSpaceOnUse" color-interpolation-filters="sRGB">
<feFlood flood-opacity="0" result="BackgroundImageFix"/>
<feColorMatrix in="SourceAlpha" type="matrix" values="0 0 0 0 0 0 0 0 0 0 0 0 0 0 0 0 0 0 127 0" result="hardAlpha"/>
<feOffset dx="1" dy="1"/>
<feGaussianBlur stdDeviation="2"/>
<feComposite in2="hardAlpha" operator="out"/>
<feColorMatrix type="matrix" values="0 0 0 0 0 0 0 0 0 0 0 0 0 0 0 0 0 0 0.35 0"/>
<feBlend mode="normal" in2="BackgroundImageFix" result="effect1_dropShadow_7524_151679"/>
<feBlend mode="normal" in="SourceGraphic" in2="effect1_dropShadow_7524_151679" result="shape"/>
</filter>
<clipPath id="clip0_7524_151679">
<rect width="35" height="35" fill="white"/>
</clipPath>
</defs>
</svg>
