<svg width="24" height="24" viewBox="0 0 24 24" fill="none" xmlns="http://www.w3.org/2000/svg">
<path fill-rule="evenodd" clip-rule="evenodd" d="M21.75 4.6875V14.4375C21.75 15.7837 20.6587 16.875 19.3125 16.875H13.3941C13.2806 16.875 13.1704 16.9136 13.0818 16.9846L7.93735 21.1001C7.60997 21.362 7.125 21.1289 7.125 20.7097V17.375C7.125 17.0989 6.90114 16.875 6.625 16.875H4.6875C3.34131 16.875 2.25 15.7837 2.25 14.4375V4.6875C2.25 3.34131 3.34131 2.25 4.6875 2.25H19.3125C20.6587 2.25 21.75 3.34131 21.75 4.6875ZM8.34375 9.5625C8.34375 8.8894 7.7981 8.34375 7.125 8.34375V8.34375C6.4519 8.34375 5.90625 8.8894 5.90625 9.5625V9.5625C5.90625 10.2356 6.4519 10.7812 7.125 10.7812V10.7812C7.7981 10.7812 8.34375 10.2356 8.34375 9.5625V9.5625V9.5625ZM10.7812 9.5625C10.7812 8.8894 11.3269 8.34375 12 8.34375V8.34375C12.6731 8.34375 13.2188 8.8894 13.2188 9.5625V9.5625C13.2188 10.2356 12.6731 10.7812 12 10.7812V10.7812C11.3269 10.7812 10.7812 10.2356 10.7812 9.5625V9.5625ZM18.0938 9.5625C18.0938 8.8894 17.5481 8.34375 16.875 8.34375V8.34375C16.2019 8.34375 15.6562 8.8894 15.6562 9.5625V9.5625C15.6562 10.2356 16.2019 10.7812 16.875 10.7812V10.7812C17.5481 10.7812 18.0938 10.2356 18.0938 9.5625V9.5625Z" fill="#030903"/>
</svg>
