<svg width="24" height="24" viewBox="0 0 24 24" fill="none" xmlns="http://www.w3.org/2000/svg">
<path fill-rule="evenodd" clip-rule="evenodd" d="M21.5999 12C21.5999 16.6392 17.3018 20.4 11.9999 20.4C10.2099 20.4 8.53439 19.9713 7.10002 19.2249L4.35574 19.911C3.55345 20.1116 2.86829 19.3071 3.19405 18.547L4.00587 16.6527C2.99126 15.3207 2.3999 13.7208 2.3999 12C2.3999 7.36078 6.69797 3.59998 11.9999 3.59998C17.3018 3.59998 21.5999 7.36078 21.5999 12ZM8.3999 12C8.3999 11.3372 7.86264 10.8 7.1999 10.8V10.8C6.53716 10.8 5.9999 11.3372 5.9999 12V12C5.9999 12.6627 6.53716 13.2 7.1999 13.2V13.2C7.86264 13.2 8.3999 12.6627 8.3999 12V12ZM17.9999 12C17.9999 11.3372 17.4626 10.8 16.7999 10.8V10.8C16.1372 10.8 15.5999 11.3372 15.5999 12V12C15.5999 12.6627 16.1372 13.2 16.7999 13.2V13.2C17.4626 13.2 17.9999 12.6627 17.9999 12V12ZM10.7999 12C10.7999 11.3372 11.3372 10.8 11.9999 10.8V10.8C12.6626 10.8 13.1999 11.3372 13.1999 12V12C13.1999 12.6627 12.6626 13.2 11.9999 13.2V13.2C11.3372 13.2 10.7999 12.6627 10.7999 12V12Z" fill="#030903"/>
</svg>
