<svg width="16" height="16" viewBox="0 0 16 16" fill="none" xmlns="http://www.w3.org/2000/svg">
    <path d="M8 14.2223C11.866 14.2223 15 11.4365 15 8.00005C15 4.56362 11.866 1.77783 8 1.77783C4.13401 1.77783 1 4.56362 1 8.00005C1 9.22449 1.39788 10.3663 2.08499 11.329L1 14.2223L4.6903 13.4842C5.67578 13.9551 6.80279 14.2223 8 14.2223Z"
          stroke="white" stroke-width="1.67" stroke-linecap="round" stroke-linejoin="round"/>
    <path d="M10.2003 8.00007C10.2003 9.21551 9.21502 10.2008 7.99958 10.2008C6.78414 10.2008 5.79883 9.21551 5.79883 8.00007C5.79883 6.78463 6.78414 5.79932 7.99958 5.79932C9.21502 5.79932 10.2003 6.78463 10.2003 8.00007Z"
          stroke="white" stroke-width="1.67" stroke-linecap="round" stroke-linejoin="round"/>
</svg>
