<svg width="17" height="18" viewBox="0 0 17 18" fill="none" xmlns="http://www.w3.org/2000/svg">
    <path d="M3.75 0C2.51367 0 1.5 1.01367 1.5 2.25V3H0V4.5H3V2.25C3 1.82812 3.32812 1.5 3.75 1.5H14.25C14.6719 1.5 15 1.82812 15 2.25V15.75C15 16.1719 14.6719 16.5 14.25 16.5H3.75C3.32812 16.5 3 16.1719 3 15.75V15H1.5V15.75C1.5 16.9863 2.51367 18 3.75 18H14.25C15.4863 18 16.5 16.9863 16.5 15.75V2.25C16.5 1.01367 15.4863 0 14.25 0H3.75ZM9 4.5C7.35352 4.5 6 5.85352 6 7.5C6 8.30273 6.32812 9.03516 6.84375 9.57422C5.45508 10.3418 4.5 11.8066 4.5 13.5H6C6 11.8359 7.33594 10.5 9 10.5C10.6641 10.5 12 11.8359 12 13.5H13.5C13.5 11.8066 12.5449 10.3418 11.1562 9.57422C11.6719 9.03516 12 8.30273 12 7.5C12 5.85352 10.6465 4.5 9 4.5ZM1.5 6V7.5H0V9H3V6H1.5ZM9 6C9.83789 6 10.5 6.66211 10.5 7.5C10.5 8.33789 9.83789 9 9 9C8.16211 9 7.5 8.33789 7.5 7.5C7.5 6.66211 8.16211 6 9 6ZM1.5 10.5V12H0V13.5H3V10.5H1.5Z"
          fill="#BBBDBE"/>
</svg>
