<svg width="390" height="844" viewBox="0 0 390 844" fill="none" xmlns="http://www.w3.org/2000/svg">
<g clip-path="url(#clip0_15256_24232)">
<path d="M403.804 -30.934C410.713 -31.5025 416.09 -25.0394 414.275 -18.349L403.361 21.8715C402.196 26.1665 404.009 30.7148 407.81 33.0302L443.271 54.6347C449.178 58.2332 449.735 66.5976 444.359 70.9483L411.785 97.3067C408.344 100.092 407.143 104.808 408.834 108.9L424.744 147.4C427.376 153.769 422.93 160.828 416.049 161.205L374.22 163.495C369.813 163.736 366.086 166.838 365.047 171.127L355.188 211.842C353.566 218.539 345.816 221.628 340.033 217.882L305.067 195.235C301.351 192.829 296.495 193.152 293.131 196.029L261.289 223.266C256.033 227.762 247.909 225.693 245.445 219.23L230.649 180.431C229.064 176.273 224.921 173.663 220.486 174.028L178.951 177.445C172.042 178.014 166.665 171.55 168.48 164.86L179.394 124.64C180.559 120.345 178.746 115.796 174.945 113.481L139.484 91.8763C133.577 88.2778 133.02 79.9134 138.396 75.5627L170.97 49.2044C174.411 46.4195 175.612 41.7031 173.921 37.6114L158.011 -0.88935C155.379 -7.25759 159.825 -14.3169 166.706 -14.6936L208.535 -16.9842C212.942 -17.2254 216.669 -20.3266 217.708 -24.6157L227.567 -65.3313C229.189 -72.0284 236.939 -75.117 242.722 -71.3711L277.688 -48.7243C281.404 -46.3176 286.26 -46.6406 289.624 -49.5184L321.467 -76.7553C326.722 -81.2511 334.846 -79.1817 337.31 -72.7192L352.106 -33.92C353.691 -29.7618 357.834 -27.1518 362.269 -27.5168L403.804 -30.934Z" fill="#E5A935"/>
<path d="M150.804 620.066C157.713 619.498 163.09 625.961 161.275 632.651L150.361 672.872C149.196 677.166 151.009 681.715 154.81 684.03L190.271 705.635C196.178 709.233 196.735 717.598 191.359 721.948L158.785 748.307C155.344 751.092 154.143 755.808 155.834 759.9L171.744 798.4C174.376 804.769 169.93 811.828 163.049 812.205L121.22 814.495C116.813 814.736 113.086 817.838 112.047 822.127L102.188 862.842C100.566 869.539 92.8162 872.628 87.0327 868.882L52.0673 846.235C48.3514 843.829 43.4953 844.152 40.131 847.029L8.28854 874.266C3.03258 878.762 -5.09089 876.693 -7.55527 870.23L-22.3507 831.431C-23.9364 827.273 -28.0791 824.663 -32.5144 825.028L-74.0489 828.445C-80.958 829.014 -86.3353 822.55 -84.5199 815.86L-73.6064 775.64C-72.441 771.345 -74.2541 766.796 -78.0546 764.481L-113.516 742.876C-119.423 739.278 -119.98 730.913 -114.604 726.563L-82.0303 700.204C-78.5887 697.419 -77.388 692.703 -79.0788 688.611L-94.9894 650.111C-97.6211 643.742 -93.1745 636.683 -86.2942 636.306L-44.4646 634.016C-40.0582 633.775 -36.3309 630.673 -35.2923 626.384L-25.4331 585.669C-23.8114 578.972 -16.0612 575.883 -10.2777 579.629L24.6877 602.276C28.4036 604.682 33.2597 604.359 36.6241 601.482L68.4665 574.245C73.7225 569.749 81.8459 571.818 84.3103 578.281L99.1058 617.08C100.691 621.238 104.834 623.848 109.269 623.483L150.804 620.066Z" fill="#E5A935"/>
<path d="M282.091 281.991C282.55 280.67 284.45 280.67 284.909 281.991L288.618 292.667C290.953 299.387 296.317 304.665 303.145 306.963L313.993 310.613C315.336 311.065 315.336 312.935 313.993 313.387L303.145 317.037C296.317 319.335 290.953 324.613 288.618 331.333L284.909 342.009C284.45 343.33 282.55 343.33 282.091 342.009L278.382 331.333C276.047 324.613 270.683 319.335 263.855 317.037L253.007 313.387C251.664 312.935 251.664 311.065 253.007 310.613L263.855 306.963C270.683 304.665 276.047 299.387 278.382 292.667L282.091 281.991Z" fill="#E5A935"/>
<path d="M246.583 340.656C246.882 339.781 248.118 339.781 248.417 340.656L250.831 347.715C252.35 352.159 255.841 355.65 260.285 357.169L267.344 359.583C268.219 359.882 268.219 361.118 267.344 361.417L260.285 363.831C255.841 365.35 252.35 368.841 250.831 373.285L248.417 380.344C248.118 381.219 246.882 381.219 246.583 380.344L244.169 373.285C242.65 368.841 239.159 365.35 234.715 363.831L227.656 361.417C226.781 361.118 226.781 359.882 227.656 359.583L234.715 357.169C239.159 355.65 242.65 352.159 244.169 347.715L246.583 340.656Z" fill="#E5A935"/>
</g>
<defs>
<clipPath id="clip0_15256_24232">
<rect width="390" height="844" fill="white"/>
</clipPath>
</defs>
</svg>
