<svg width="21" height="21" viewBox="0 0 21 21" fill="none" xmlns="http://www.w3.org/2000/svg">
<g id="Media / Icon">
<path id="Icon" d="M14.7848 6.96908H16.4887C17.4298 6.96908 18.1926 7.71527 18.1926 8.63574V13.6357C18.1926 14.5562 17.4298 15.3024 16.4887 15.3024H14.7848V18.6357L11.377 15.3024H7.96915C7.49863 15.3024 7.07265 15.1159 6.76431 14.8143M6.76431 14.8143L9.67306 11.9691H13.0809C14.0219 11.9691 14.7848 11.2229 14.7848 10.3024V5.30241C14.7848 4.38193 14.0219 3.63574 13.0809 3.63574H4.56133C3.62029 3.63574 2.85742 4.38193 2.85742 5.30241V10.3024C2.85742 11.2229 3.62029 11.9691 4.56133 11.9691H6.26524V15.3024L6.76431 14.8143Z" stroke="white" stroke-width="2" stroke-linecap="round" stroke-linejoin="round"/>
</g>
</svg>
