<svg width="24" height="24" viewBox="0 0 24 24" fill="none" xmlns="http://www.w3.org/2000/svg">
<path fill-rule="evenodd" clip-rule="evenodd" d="M11.9999 21.6C17.3018 21.6 21.5999 17.302 21.5999 12C21.5999 6.69809 17.3018 2.40002 11.9999 2.40002C6.69797 2.40002 2.3999 6.69809 2.3999 12C2.3999 17.302 6.69797 21.6 11.9999 21.6ZM8.3999 10.8C9.06264 10.8 9.5999 10.2628 9.5999 9.60002C9.5999 8.93728 9.06264 8.40002 8.3999 8.40002C7.73716 8.40002 7.1999 8.93728 7.1999 9.60002C7.1999 10.2628 7.73716 10.8 8.3999 10.8ZM16.7999 9.60002C16.7999 10.2628 16.2626 10.8 15.5999 10.8C14.9372 10.8 14.3999 10.2628 14.3999 9.60002C14.3999 8.93728 14.9372 8.40002 15.5999 8.40002C16.2626 8.40002 16.7999 8.93728 16.7999 9.60002ZM16.2425 16.2426C16.7112 15.7739 16.7112 15.0141 16.2425 14.5455C15.7739 14.0769 15.0141 14.0769 14.5455 14.5455C13.1396 15.9514 10.8602 15.9514 9.45432 14.5455C8.98569 14.0769 8.22589 14.0769 7.75726 14.5455C7.28863 15.0141 7.28863 15.7739 7.75726 16.2426C10.1004 18.5857 13.8994 18.5857 16.2425 16.2426Z" fill="#030903"/>
</svg>
