<svg width="24" height="24" viewBox="0 0 24 24" fill="none" xmlns="http://www.w3.org/2000/svg">
<path d="M13.253 5.98003L12 13.5L10.747 5.98003C10.7169 5.7982 10.7268 5.612 10.7759 5.43437C10.8251 5.25674 10.9123 5.09193 11.0315 4.95138C11.1507 4.81084 11.2991 4.69792 11.4663 4.62048C11.6336 4.54304 11.8157 4.50293 12 4.50293C12.1843 4.50293 12.3664 4.54304 12.5336 4.62048C12.7009 4.69792 12.8492 4.81084 12.9685 4.95138C13.0877 5.09193 13.1749 5.25674 13.224 5.43437C13.2732 5.612 13.283 5.7982 13.253 5.98003V5.98003Z" stroke="black" stroke-width="3" stroke-linecap="round" stroke-linejoin="round"/>
<path d="M12 20C12.5523 20 13 19.5523 13 19C13 18.4477 12.5523 18 12 18C11.4477 18 11 18.4477 11 19C11 19.5523 11.4477 20 12 20Z" stroke="black" stroke-width="2"/>
</svg>
