<svg width="24" height="24" viewBox="0 0 24 24" fill="none" xmlns="http://www.w3.org/2000/svg">
<path d="M13.253 5.98L12 13.5L10.747 5.98C10.7169 5.79817 10.7268 5.61197 10.7759 5.43434C10.8251 5.25671 10.9123 5.0919 11.0315 4.95135C11.1507 4.81081 11.2991 4.69789 11.4663 4.62045C11.6336 4.54301 11.8157 4.5029 12 4.5029C12.1843 4.5029 12.3664 4.54301 12.5336 4.62045C12.7009 4.69789 12.8492 4.81081 12.9685 4.95135C13.0877 5.0919 13.1749 5.25671 13.224 5.43434C13.2732 5.61197 13.283 5.79817 13.253 5.98V5.98Z" stroke="black" stroke-linecap="round" stroke-linejoin="round"/>
<path d="M12 20C12.5523 20 13 19.5523 13 19C13 18.4477 12.5523 18 12 18C11.4477 18 11 18.4477 11 19C11 19.5523 11.4477 20 12 20Z" stroke="black"/>
</svg>
