<svg width="25" height="24" viewBox="0 0 25 24" fill="none" xmlns="http://www.w3.org/2000/svg">
<path fill-rule="evenodd" clip-rule="evenodd" d="M10.2249 3.71861C11.1424 2.08745 13.4909 2.08745 14.4084 3.71861L21.1048 15.6233C22.0047 17.2231 20.8486 19.1999 19.013 19.1999H5.62029C3.78471 19.1999 2.62859 17.2231 3.52851 15.6233L10.2249 3.71861ZM13.5166 15.6C13.5166 16.2628 12.9793 16.8 12.3166 16.8C11.6538 16.8 11.1166 16.2628 11.1166 15.6C11.1166 14.9373 11.6538 14.4 12.3166 14.4C12.9793 14.4 13.5166 14.9373 13.5166 15.6ZM12.3166 6.00002C11.6538 6.00002 11.1166 6.53728 11.1166 7.20002V10.8C11.1166 11.4628 11.6538 12 12.3166 12C12.9793 12 13.5166 11.4628 13.5166 10.8V7.20002C13.5166 6.53728 12.9793 6.00002 12.3166 6.00002Z" fill="#030903"/>
</svg>
