<svg width="25" height="24" viewBox="0 0 25 24" fill="none" xmlns="http://www.w3.org/2000/svg">
<g clip-path="url(#clip0_4967_337341)">
<path d="M12.95 14.4C14.2754 14.4 15.35 13.3255 15.35 12C15.35 10.6745 14.2754 9.59998 12.95 9.59998C11.6245 9.59998 10.55 10.6745 10.55 12C10.55 13.3255 11.6245 14.4 12.95 14.4Z" fill="#030903"/>
<path fill-rule="evenodd" clip-rule="evenodd" d="M1.7033 12.5943C1.56035 12.2112 1.56035 11.7889 1.7033 11.4057C3.40423 6.84671 7.79791 3.59998 12.9499 3.59998C18.1019 3.59998 22.4955 6.84667 24.1965 11.4057C24.3395 11.7888 24.3395 12.2111 24.1965 12.5942C22.4956 17.1532 18.1019 20.4 12.9499 20.4C7.79792 20.4 3.40426 17.1533 1.7033 12.5943ZM17.75 12C17.75 14.6509 15.6009 16.8 12.95 16.8C10.299 16.8 8.14996 14.6509 8.14996 12C8.14996 9.34901 10.299 7.19998 12.95 7.19998C15.6009 7.19998 17.75 9.34901 17.75 12Z" fill="#030903"/>
</g>
<defs>
<clipPath id="clip0_4967_337341">
<rect width="24" height="24" fill="white" transform="translate(0.949951)"/>
</clipPath>
</defs>
</svg>
