<svg width="25" height="24" viewBox="0 0 25 24" fill="none" xmlns="http://www.w3.org/2000/svg">
<g clip-path="url(#clip0_4967_337345)">
<path fill-rule="evenodd" clip-rule="evenodd" d="M5.03173 2.7515C4.5631 2.28287 3.8033 2.28287 3.33467 2.7515C2.86605 3.22013 2.86605 3.97992 3.33467 4.44855L20.1347 21.2486C20.6033 21.7172 21.3631 21.7172 21.8317 21.2486C22.3004 20.7799 22.3004 20.0201 21.8317 19.5515L20.0639 17.7837C21.909 16.3109 23.31 14.3053 24.0341 12C22.505 7.13148 17.9566 3.60002 12.5835 3.60002C10.6352 3.60002 8.79534 4.06433 7.16855 4.88831L5.03173 2.7515ZM10.145 7.86472L11.9616 9.68138C12.16 9.62832 12.3684 9.60002 12.5835 9.60002C13.909 9.60002 14.9835 10.6745 14.9835 12C14.9835 12.2151 14.9552 12.4236 14.9022 12.6219L16.7188 14.4386C17.1411 13.7239 17.3835 12.8903 17.3835 12C17.3835 9.34906 15.2345 7.20002 12.5835 7.20002C11.6933 7.20002 10.8596 7.44238 10.145 7.86472Z" fill="#030903"/>
<path d="M15.5281 20.0361L12.2828 16.7908C9.87136 16.6417 7.94184 14.7122 7.79277 12.3007L3.38511 7.89308C2.38396 9.0867 1.61085 10.478 1.13281 12.0001C2.66194 16.8686 7.21028 20.4 12.5834 20.4C13.5994 20.4 14.5859 20.2738 15.5281 20.0361Z" fill="#030903"/>
</g>
<defs>
<clipPath id="clip0_4967_337345">
<rect width="24" height="24" fill="white" transform="translate(0.583252)"/>
</clipPath>
</defs>
</svg>
