<svg width="20" height="21" viewBox="0 0 20 21" fill="none" xmlns="http://www.w3.org/2000/svg">
<g id="Invisible" clip-path="url(#clip0_5978_4254)">
<path id="Vector" d="M3.34473 3.0293L2.46094 3.9082L4.92188 6.36914C1.46484 7.83887 0.06836 10.6953 -0.009765 10.8613L-0.126953 11.125L-0.009765 11.3887C0.0927741 11.6084 2.57324 16.75 9.30664 16.75C11.2988 16.75 12.9102 16.2959 14.2041 15.6562L16.5234 17.9756L17.4072 17.0869L14.4141 14.0938L14.1846 13.8691C14.1895 13.8691 14.1895 13.8691 14.1895 13.8643L13.2764 12.9512C13.2715 12.9512 13.2715 12.9512 13.2715 12.9512L11.1523 10.8369C11.1523 10.8369 11.1572 10.832 11.1523 10.832L9.60449 9.2793H9.59961L7.48047 7.16016H7.48535L6.23047 5.91016C6.23047 5.91016 6.22559 5.90527 6.22559 5.91016L3.34473 3.0293ZM9.30664 5.5C8.74024 5.5 8.21289 5.54883 7.70508 5.61719L8.88672 6.78906C9.02832 6.7793 9.16504 6.75 9.30664 6.75C11.7236 6.75 13.6865 8.71289 13.6865 11.125C13.6865 11.2715 13.6572 11.4082 13.6426 11.5547L14.7119 12.6191C14.8486 12.1455 14.9365 11.6475 14.9365 11.125C14.9365 9.87988 14.5166 8.73242 13.8232 7.7998C15.9033 8.87891 16.9873 10.4854 17.3535 11.125C17.0996 11.5596 16.4844 12.4678 15.4395 13.3467L16.3428 14.25C17.8955 12.9072 18.5791 11.5059 18.6328 11.3887L18.75 11.125L18.6279 10.8613C18.5254 10.6416 16.0449 5.5 9.30664 5.5ZM4.78027 7.82422C4.10156 8.75195 3.68164 9.88965 3.68164 11.125C3.68164 12.375 4.10645 13.5176 4.79981 14.4502C2.71973 13.376 1.63574 11.7646 1.26953 11.125C1.63086 10.5049 2.71973 8.90332 4.78027 7.82422ZM6.41602 7.86328L8.18359 9.63086C7.72949 9.97754 7.43164 10.5146 7.43164 11.125C7.43164 12.1602 8.27637 13 9.30664 13C9.92188 13 10.459 12.7021 10.8008 12.248L12.5732 14.0205C11.7725 14.9238 10.6104 15.5 9.30664 15.5C6.89453 15.5 4.93164 13.5371 4.93164 11.125C4.93164 9.82617 5.50781 8.66406 6.41602 7.86328Z" fill="white"/>
</g>
<defs>
<clipPath id="clip0_5978_4254">
<rect width="20" height="20" fill="white" transform="translate(0 0.5)"/>
</clipPath>
</defs>
</svg>
