<svg width="25" height="24" viewBox="0 0 25 24" fill="none" xmlns="http://www.w3.org/2000/svg">
<path d="M3.80005 3L7.38921 6.58916M21.8 21L18.2112 17.4112M14.6749 18.8246C14.0678 18.9398 13.4412 19 12.8005 19C8.32285 19 4.53255 16.0571 3.2583 12C3.6052 10.8955 4.13856 9.87361 4.82148 8.97118M10.6787 9.87868C11.2216 9.33579 11.9716 9 12.8 9C14.4569 9 15.8 10.3431 15.8 12C15.8 12.8284 15.4643 13.5784 14.9214 14.1213M10.6787 9.87868L14.9214 14.1213M10.6787 9.87868L7.38921 6.58916M14.9214 14.1213L7.38921 6.58916M14.9214 14.1213L18.2112 17.4112M7.38921 6.58916C8.94903 5.58354 10.8066 5 12.8005 5C17.2781 5 21.0684 7.94291 22.3427 12C21.6358 14.2507 20.1546 16.1585 18.2112 17.4112" stroke="black" stroke-width="2" stroke-linecap="round" stroke-linejoin="round"/>
</svg>
