<svg width="25" height="24" viewBox="0 0 25 24" fill="none" xmlns="http://www.w3.org/2000/svg">
<path d="M8.84155 8.25C8.47071 8.25 8.1082 8.35997 7.79986 8.56599C7.49152 8.77202 7.25119 9.06486 7.10928 9.40747C6.96737 9.75008 6.93023 10.1271 7.00258 10.4908C7.07493 10.8545 7.25351 11.1886 7.51573 11.4508C7.77795 11.713 8.11204 11.8916 8.47576 11.964C8.83947 12.0363 9.21647 11.9992 9.55909 11.8573C9.9017 11.7154 10.1945 11.475 10.4006 11.1667C10.6066 10.8584 10.7166 10.4958 10.7166 10.125C10.7166 9.62772 10.519 9.15081 10.1674 8.79917C9.81575 8.44754 9.33883 8.25 8.84155 8.25V8.25ZM15.5916 8.25C15.2207 8.25 14.8582 8.35997 14.5499 8.56599C14.2415 8.77202 14.0012 9.06486 13.8593 9.40747C13.7174 9.75008 13.6802 10.1271 13.7526 10.4908C13.8249 10.8545 14.0035 11.1886 14.2657 11.4508C14.528 11.713 14.862 11.8916 15.2258 11.964C15.5895 12.0363 15.9665 11.9992 16.3091 11.8573C16.6517 11.7154 16.9445 11.475 17.1506 11.1667C17.3566 10.8584 17.4666 10.4958 17.4666 10.125C17.4666 9.62772 17.269 9.15081 16.9174 8.79917C16.5657 8.44754 16.0888 8.25 15.5916 8.25V8.25Z" fill="black"/>
<path d="M22.7165 12C22.7197 10.1598 22.2392 8.35103 21.3231 6.75502C20.407 5.15902 19.0876 3.83179 17.497 2.90634C15.9065 1.98088 14.1006 1.48971 12.2604 1.48203C10.4202 1.47434 8.61028 1.95042 7.01203 2.86256C5.41378 3.7747 4.08331 5.09086 3.15396 6.67917C2.2246 8.26747 1.72899 10.0721 1.71678 11.9123C1.70458 13.7525 2.17621 15.5636 3.08442 17.164C3.99263 18.7645 5.30552 20.0982 6.89154 21.0315L6.90279 21.1485C6.93848 21.5192 7.11128 21.8632 7.38734 22.1132C7.66341 22.3632 8.02286 22.5011 8.39529 22.5H16.0378C16.41 22.5012 16.7692 22.3635 17.0453 22.1138C17.3213 21.8641 17.4942 21.5204 17.5303 21.15L17.5415 21.0315C19.1164 20.1076 20.4225 18.7882 21.3302 17.204C22.238 15.6198 22.7159 13.8258 22.7165 12V12ZM12.2165 2.99998C14.5238 3.001 16.7424 3.88885 18.4134 5.47985C20.0844 7.07085 21.0799 9.24328 21.194 11.5477L17.2895 13.5H7.14354L3.23904 11.5477C3.35315 9.24328 4.34867 7.07085 6.01966 5.47985C7.69066 3.88885 9.90926 3.001 12.2165 2.99998V2.99998ZM3.30654 13.2585L6.26154 14.736L6.69729 19.0935C4.85117 17.6635 3.63489 15.5704 3.30654 13.2585V13.2585ZM16.0378 21H8.39529L7.79529 15H16.6378L16.0378 21ZM17.7358 19.0935L18.1715 14.736L21.1265 13.2585C20.7983 15.5703 19.5823 17.6633 17.7365 19.0935H17.7358Z" fill="black"/>
</svg>
