<svg width="24" height="24" viewBox="0 0 24 24" fill="none" xmlns="http://www.w3.org/2000/svg">
<path d="M8.625 8.25C8.25416 8.25 7.89165 8.35997 7.58331 8.56599C7.27496 8.77202 7.03464 9.06486 6.89273 9.40747C6.75081 9.75008 6.71368 10.1271 6.78603 10.4908C6.85838 10.8545 7.03695 11.1886 7.29918 11.4508C7.5614 11.713 7.89549 11.8916 8.25921 11.964C8.62292 12.0363 8.99992 11.9992 9.34253 11.8573C9.68514 11.7154 9.97798 11.475 10.184 11.1667C10.39 10.8584 10.5 10.4958 10.5 10.125C10.5 9.62772 10.3025 9.15081 9.95083 8.79917C9.5992 8.44754 9.12228 8.25 8.625 8.25V8.25ZM15.375 8.25C15.0042 8.25 14.6416 8.35997 14.3333 8.56599C14.025 8.77202 13.7846 9.06486 13.6427 9.40747C13.5008 9.75008 13.4637 10.1271 13.536 10.4908C13.6084 10.8545 13.787 11.1886 14.0492 11.4508C14.3114 11.713 14.6455 11.8916 15.0092 11.964C15.3729 12.0363 15.7499 11.9992 16.0925 11.8573C16.4351 11.7154 16.728 11.475 16.934 11.1667C17.14 10.8584 17.25 10.4958 17.25 10.125C17.25 9.62772 17.0525 9.15081 16.7008 8.79917C16.3492 8.44754 15.8723 8.25 15.375 8.25V8.25Z" fill="black"/>
<path d="M22.5 12C22.5031 10.1598 22.0226 8.35106 21.1066 6.75505C20.1905 5.15905 18.8711 3.83182 17.2805 2.90637C15.6899 1.98092 13.884 1.48974 12.0438 1.48206C10.2036 1.47437 8.39373 1.95045 6.79548 2.86259C5.19722 3.77473 3.86676 5.0909 2.9374 6.6792C2.00805 8.2675 1.51243 10.0722 1.50023 11.9123C1.48803 13.7525 1.95966 15.5636 2.86787 17.1641C3.77608 18.7646 5.08897 20.0983 6.67498 21.0315L6.68623 21.1485C6.72193 21.5192 6.89472 21.8633 7.17079 22.1133C7.44686 22.3632 7.8063 22.5012 8.17873 22.5H15.8212C16.1934 22.5012 16.5527 22.3635 16.8287 22.1138C17.1047 21.8641 17.2777 21.5205 17.3137 21.15L17.325 21.0315C18.8999 20.1077 20.2059 18.7882 21.1137 17.204C22.0214 15.6198 22.4993 13.8259 22.5 12V12ZM12 3.00001C14.3073 3.00103 16.5259 3.88888 18.1969 5.47988C19.8679 7.07088 20.8634 9.24331 20.9775 11.5478L17.073 13.5H6.92698L3.02248 11.5478C3.1366 9.24331 4.13212 7.07088 5.80311 5.47988C7.4741 3.88888 9.69271 3.00103 12 3.00001V3.00001ZM3.08998 13.2585L6.04498 14.736L6.48073 19.0935C4.63462 17.6635 3.41834 15.5705 3.08998 13.2585V13.2585ZM15.8212 21H8.17873L7.57873 15H16.4212L15.8212 21ZM17.5192 19.0935L17.955 14.736L20.91 13.2585C20.5817 15.5703 19.3658 17.6633 17.52 19.0935H17.5192Z" fill="black"/>
</svg>
