<svg width="25" height="24" viewBox="0 0 25 24" fill="none" xmlns="http://www.w3.org/2000/svg">
<path d="M6.22459 7L2.50459 3.28C2.43299 3.21078 2.37589 3.128 2.33663 3.03648C2.29737 2.94495 2.27672 2.84653 2.2759 2.74694C2.27509 2.64736 2.29411 2.54861 2.33186 2.45646C2.36962 2.3643 2.42535 2.28059 2.4958 2.2102C2.56625 2.13982 2.65002 2.08417 2.74221 2.0465C2.8344 2.00883 2.93316 1.9899 3.03275 1.99082C3.13233 1.99173 3.23074 2.01246 3.32222 2.05181C3.4137 2.09116 3.49644 2.14834 3.56559 2.22L22.0656 20.72C22.1981 20.8622 22.2702 21.0502 22.2668 21.2445C22.2633 21.4388 22.1846 21.6242 22.0472 21.7616C21.9098 21.899 21.7244 21.9777 21.5301 21.9812C21.3358 21.9846 21.1478 21.9125 21.0056 21.78L14.7216 15.497L8.87059 21.536C7.81659 22.624 5.99859 21.642 6.32959 20.164L7.59959 14.496L6.02959 14.49C5.74994 14.4888 5.47465 14.4206 5.22679 14.2911C4.97893 14.1616 4.76572 13.9745 4.60501 13.7457C4.4443 13.5168 4.34079 13.2528 4.30313 12.9757C4.26548 12.6985 4.29478 12.4165 4.38859 12.153L6.22459 7ZM13.6606 14.436L7.39859 8.174L5.80159 12.656C5.78817 12.6936 5.78396 12.7339 5.7893 12.7735C5.79464 12.813 5.80939 12.8507 5.8323 12.8835C5.85521 12.9162 5.88563 12.9429 5.92099 12.9614C5.95636 12.98 5.99566 12.9898 6.03559 12.99L8.53759 13C8.64977 13.0004 8.76043 13.026 8.86141 13.0749C8.96239 13.1237 9.05113 13.1946 9.12108 13.2823C9.19103 13.37 9.24042 13.4723 9.2656 13.5816C9.29078 13.691 9.29112 13.8045 9.26659 13.914L7.79359 20.492L13.6606 14.436V14.436ZM18.4436 9.5L15.7486 12.281L16.8086 13.342L19.9316 10.12C20.6996 9.327 20.1376 8 19.0336 8H15.0756L16.5276 3.645C16.5902 3.45702 16.6072 3.25686 16.5773 3.06101C16.5473 2.86516 16.4712 2.67923 16.3553 2.51856C16.2394 2.3579 16.0869 2.22709 15.9105 2.13693C15.734 2.04677 15.5387 1.99983 15.3406 2H8.88759C8.35859 2 7.88759 2.333 7.70959 2.83L7.33959 3.872L8.51259 5.046L9.06259 3.5H14.9936L13.3236 8.513C13.2861 8.62561 13.2758 8.74551 13.2937 8.86285C13.3116 8.98019 13.357 9.09162 13.4263 9.18797C13.4956 9.28432 13.5868 9.36285 13.6924 9.41709C13.798 9.47134 13.9149 9.49975 14.0336 9.5H18.4436V9.5Z" fill="black"/>
</svg>
