<svg width="86" height="88" viewBox="0 0 86 88" fill="none" xmlns="http://www.w3.org/2000/svg">
<path d="M46.3334 0.666504C45.7302 0.667369 45.1384 0.83193 44.6213 1.14264C44.1043 1.45336 43.6812 1.89857 43.3972 2.43083H43.3907L30.3569 26.6431L5.35685 1.64307L0.643311 6.35661L80.6433 86.3566L85.3568 81.6431L58.9441 55.2303L66.0209 42.0793L66.0079 42.0597C66.207 41.6325 66.3334 41.1687 66.3334 40.6665C66.3334 38.8265 64.8401 37.3332 63.0001 37.3332H49.6667V3.99984C49.6667 3.11578 49.3156 2.26794 48.6904 1.64281C48.0653 1.01769 47.2175 0.666504 46.3334 0.666504ZM23.8009 38.8175L20.142 45.6144L20.1485 45.6209C19.8358 46.1375 19.6693 46.7293 19.6667 47.3332C19.6667 48.2172 20.0179 49.0651 20.6431 49.6902C21.2682 50.3153 22.116 50.6665 23.0001 50.6665H35.6498L23.8009 38.8175ZM36.3334 51.3501V83.9998C36.3334 84.8839 36.6846 85.7317 37.3097 86.3569C37.9348 86.982 38.7827 87.3332 39.6667 87.3332C40.2816 87.3327 40.8843 87.1621 41.4082 86.8404C41.9322 86.5187 42.3569 86.0583 42.6355 85.5103H42.642L52.3881 67.4048L36.3334 51.3501Z" fill="white"/>
</svg>
