<svg width="25" height="24" viewBox="0 0 25 24" fill="none" xmlns="http://www.w3.org/2000/svg">
<path d="M7.70974 2.83C7.79643 2.587 7.95619 2.37677 8.1671 2.22817C8.37801 2.07956 8.62974 1.99986 8.88774 2H15.3407C15.5388 1.99999 15.734 2.04704 15.9103 2.13727C16.0866 2.2275 16.2389 2.35832 16.3547 2.51897C16.4706 2.67962 16.5466 2.86548 16.5765 3.06125C16.6064 3.25703 16.5893 3.4571 16.5267 3.645L15.0757 8H19.0337C20.1377 8 20.6997 9.327 19.9317 10.12L19.2617 10.812C19.12 10.5861 18.9278 10.3961 18.7004 10.2568C18.473 10.1175 18.2164 10.0327 17.9507 10.009L18.4437 9.5H14.0337C13.9151 9.49975 13.7981 9.47134 13.6925 9.41709C13.587 9.36285 13.4958 9.28432 13.4265 9.18797C13.3572 9.09162 13.3117 8.98019 13.2939 8.86285C13.276 8.74551 13.2862 8.62561 13.3237 8.513L14.9937 3.5H9.06374L5.80174 12.656C5.78833 12.6936 5.78411 12.7339 5.78946 12.7735C5.7948 12.813 5.80955 12.8507 5.83246 12.8835C5.85537 12.9162 5.88578 12.9429 5.92115 12.9614C5.95652 12.98 5.99581 12.9898 6.03574 12.99L8.53774 13C8.64993 13.0004 8.76058 13.026 8.86157 13.0749C8.96255 13.1237 9.05128 13.1946 9.12124 13.2823C9.19119 13.37 9.24057 13.4723 9.26576 13.5816C9.29094 13.691 9.29128 13.8045 9.26674 13.914L7.79374 20.492L15.6517 12.382L14.2147 16.02L8.87074 21.536C7.81674 22.624 5.99874 21.642 6.32974 20.164L7.59974 14.496L6.02974 14.49C5.75009 14.4888 5.47481 14.4206 5.22695 14.2911C4.97909 14.1616 4.76587 13.9745 4.60517 13.7457C4.44446 13.5168 4.34095 13.2528 4.30329 12.9757C4.26564 12.6985 4.29494 12.4165 4.38874 12.153L7.70974 2.831V2.83ZM18.4797 11.475L22.2297 20.97C22.2989 21.1466 22.2985 21.3429 22.2288 21.5193C22.159 21.6957 22.0249 21.8391 21.8537 21.9206C21.6824 22.0021 21.4866 22.0157 21.3057 21.9586C21.1248 21.9016 20.9722 21.7781 20.8787 21.613L20.8347 21.521L19.8367 18.996H15.7267L14.7307 21.521C14.6642 21.6896 14.5387 21.8284 14.3777 21.9117C14.2166 21.995 14.0309 22.0171 13.8547 21.974L13.7577 21.944C13.5891 21.8774 13.4503 21.752 13.367 21.5909C13.2837 21.4299 13.2616 21.2441 13.3047 21.068L13.3347 20.97L17.0847 11.475C17.1231 11.374 17.1834 11.2826 17.2612 11.2076C17.339 11.1326 17.4324 11.0757 17.5347 11.041C17.7131 10.9809 17.9073 10.988 18.0807 11.061C18.2207 11.119 18.3447 11.223 18.4297 11.37L18.4797 11.475ZM16.3187 17.496H19.2447L17.7817 13.791L16.3187 17.496V17.496Z" fill="black"/>
</svg>
