<svg width="25" height="24" viewBox="0 0 25 24" fill="none" xmlns="http://www.w3.org/2000/svg">
<path d="M7.95828 2.83C8.04497 2.587 8.20473 2.37677 8.41564 2.22817C8.62655 2.07956 8.87828 1.99986 9.13628 2H15.5893C15.7873 1.99999 15.9825 2.04704 16.1588 2.13727C16.3351 2.2275 16.4875 2.35832 16.6033 2.51897C16.7191 2.67962 16.7951 2.86548 16.825 3.06125C16.8549 3.25703 16.8379 3.4571 16.7753 3.645L15.3233 8H19.2833C20.3863 8 20.9483 9.327 20.1803 10.12L19.5083 10.813C18.7763 9.643 16.9443 9.732 16.4013 11.107L14.4603 16.023L9.11928 21.536C8.06528 22.624 6.24728 21.642 6.57828 20.164L7.84828 14.496L6.27828 14.49C5.99863 14.4888 5.72334 14.4206 5.47548 14.2911C5.22762 14.1616 5.01441 13.9745 4.8537 13.7457C4.693 13.5168 4.58948 13.2528 4.55183 12.9757C4.51417 12.6985 4.54347 12.4165 4.63728 12.153L7.95828 2.831V2.83ZM18.7273 11.475L22.4773 20.97C22.5484 21.1471 22.5493 21.3447 22.4799 21.5225C22.4104 21.7002 22.2758 21.8448 22.1034 21.9268C21.9311 22.0088 21.7339 22.022 21.5522 21.9637C21.3705 21.9054 21.2178 21.78 21.1253 21.613L21.0813 21.521L20.0833 18.996H15.9733L14.9773 21.521C14.9107 21.6896 14.7853 21.8284 14.6242 21.9117C14.4632 21.995 14.2774 22.0171 14.1013 21.974L14.0043 21.944C13.8356 21.8774 13.6968 21.752 13.6136 21.5909C13.5303 21.4299 13.5081 21.2441 13.5513 21.068L13.5813 20.97L17.3313 11.475C17.3697 11.374 17.4299 11.2826 17.5077 11.2076C17.5855 11.1326 17.6789 11.0757 17.7813 11.041C17.9596 10.9809 18.1538 10.988 18.3273 11.061C18.4673 11.119 18.5913 11.223 18.6763 11.37L18.7263 11.475H18.7273ZM16.5653 17.496H19.4913L18.0283 13.791L16.5653 17.496V17.496Z" fill="black"/>
</svg>
