<svg width="25" height="24" viewBox="0 0 25 24" fill="none" xmlns="http://www.w3.org/2000/svg">
<path d="M14.9691 15.497L21.2521 21.781C21.3928 21.9217 21.5836 22.0008 21.7826 22.0008C21.9816 22.0008 22.1724 21.9217 22.3131 21.781C22.4538 21.6403 22.5329 21.4495 22.5329 21.2505C22.5329 21.0516 22.4538 20.8607 22.3131 20.72L3.81311 2.22003C3.74445 2.14634 3.66165 2.08724 3.56965 2.04625C3.47765 2.00526 3.37834 1.98322 3.27764 1.98144C3.17693 1.97966 3.0769 1.99819 2.98352 2.03591C2.89013 2.07363 2.80529 2.12977 2.73407 2.20099C2.66286 2.27221 2.60671 2.35705 2.56899 2.45043C2.53127 2.54382 2.51274 2.64385 2.51452 2.74455C2.5163 2.84526 2.53834 2.94457 2.57933 3.03657C2.62032 3.12857 2.67943 3.21137 2.75311 3.28003L6.47211 7.00003L4.63611 12.153C4.54228 12.4166 4.51299 12.6987 4.55069 12.9759C4.5884 13.2531 4.69201 13.5172 4.85283 13.7461C5.01364 13.975 5.22699 14.162 5.47498 14.2914C5.72297 14.4209 5.99838 14.489 6.27811 14.49L7.84611 14.496L6.57711 20.164C6.24711 21.642 8.06411 22.624 9.11811 21.536L14.9691 15.497V15.497ZM20.1791 10.12L17.0571 13.342L7.58711 3.87203L7.95711 2.83103C8.04364 2.58784 8.20332 2.3774 8.41425 2.22861C8.62517 2.07981 8.87699 1.99997 9.13511 2.00003H15.5881C15.7862 2.00002 15.9814 2.04707 16.1577 2.1373C16.334 2.22753 16.4863 2.35836 16.6021 2.519C16.7179 2.67965 16.7939 2.86551 16.8238 3.06129C16.8537 3.25706 16.8367 3.45714 16.7741 3.64503L15.3231 8.00003H19.2811C20.3851 8.00003 20.9471 9.32703 20.1791 10.12V10.12Z" fill="black"/>
</svg>
