<svg width="25" height="24" viewBox="0 0 25 24" fill="none" xmlns="http://www.w3.org/2000/svg">
<path d="M7.95828 2.83C8.04497 2.587 8.20473 2.37677 8.41564 2.22817C8.62655 2.07956 8.87828 1.99986 9.13628 2H15.5893C15.7873 1.99999 15.9825 2.04704 16.1588 2.13727C16.3351 2.2275 16.4875 2.35832 16.6033 2.51897C16.7191 2.67962 16.7951 2.86548 16.825 3.06125C16.8549 3.25703 16.8379 3.4571 16.7753 3.645L15.3233 8H19.2833C20.3863 8 20.9483 9.327 20.1803 10.12L9.11928 21.536C8.06528 22.624 6.24728 21.642 6.57828 20.164L7.84828 14.496L6.27828 14.49C5.99863 14.4888 5.72334 14.4206 5.47548 14.2911C5.22762 14.1616 5.01441 13.9745 4.8537 13.7457C4.693 13.5168 4.58948 13.2528 4.55183 12.9757C4.51417 12.6985 4.54347 12.4165 4.63728 12.153L7.95828 2.831V2.83Z" fill="black"/>
</svg>
