<svg width="25" height="24" viewBox="0 0 25 24" fill="none" xmlns="http://www.w3.org/2000/svg">
<path d="M7.71072 2.83C7.79741 2.587 7.95717 2.37677 8.16808 2.22817C8.37899 2.07956 8.63072 1.99986 8.88872 2H15.3417C15.5398 1.99999 15.735 2.04704 15.9113 2.13727C16.0876 2.2275 16.2399 2.35832 16.3557 2.51897C16.4715 2.67962 16.5475 2.86548 16.5774 3.06125C16.6073 3.25703 16.5903 3.4571 16.5277 3.645L15.0757 8H19.0357C20.1387 8 20.7007 9.327 19.9327 10.12L8.87172 21.536C7.81772 22.624 5.99972 21.642 6.33072 20.164L7.60072 14.496L6.03072 14.49C5.75107 14.4888 5.47578 14.4206 5.22792 14.2911C4.98006 14.1616 4.76685 13.9745 4.60614 13.7457C4.44544 13.5168 4.34192 13.2528 4.30427 12.9757C4.26661 12.6985 4.29592 12.4165 4.38972 12.153L7.71072 2.831V2.83ZM9.06472 3.5L5.80272 12.656C5.7893 12.6936 5.78509 12.7339 5.79043 12.7735C5.79578 12.813 5.81052 12.8507 5.83344 12.8835C5.85635 12.9162 5.88676 12.9429 5.92213 12.9614C5.9575 12.98 5.99679 12.9898 6.03672 12.99L8.53872 13C8.6509 13.0004 8.76156 13.026 8.86254 13.0749C8.96353 13.1237 9.05226 13.1946 9.12221 13.2823C9.19216 13.37 9.24155 13.4723 9.26673 13.5816C9.29191 13.691 9.29225 13.8045 9.26772 13.914L7.79472 20.492L18.4447 9.5H14.0347C13.916 9.49975 13.7991 9.47134 13.6935 9.41709C13.588 9.36285 13.4968 9.28432 13.4275 9.18797C13.3581 9.09162 13.3127 8.98019 13.2948 8.86285C13.277 8.74551 13.2872 8.62561 13.3247 8.513L14.9947 3.5H9.06572H9.06472Z" fill="black"/>
</svg>
