<svg width="34" height="35" viewBox="0 0 34 35" fill="none" xmlns="http://www.w3.org/2000/svg">
<g filter="url(#filter0_d_6440_189334)">
<path d="M16.5 0L10.6667 5.83333L16.5 11.6667V7.29167C22.1277 7.29167 26.7083 11.8708 26.7083 17.5C26.7083 18.7833 26.4593 20.0085 26.0247 21.1401L28.235 23.3476C29.1173 21.5844 29.625 19.6029 29.625 17.5C29.625 10.2638 23.7377 4.375 16.5 4.375V0ZM4.76497 11.6524C3.88268 13.4156 3.375 15.3971 3.375 17.5C3.375 24.7362 9.26229 30.625 16.5 30.625V35L22.3333 29.1667L16.5 23.3333V27.7083C10.8723 27.7083 6.29167 23.1292 6.29167 17.5C6.29167 16.2167 6.54068 14.9915 6.97526 13.8599L4.76497 11.6524Z" fill="white"/>
</g>
<defs>
<filter id="filter0_d_6440_189334" x="0.375" y="-3" width="34.25" height="43" filterUnits="userSpaceOnUse" color-interpolation-filters="sRGB">
<feFlood flood-opacity="0" result="BackgroundImageFix"/>
<feColorMatrix in="SourceAlpha" type="matrix" values="0 0 0 0 0 0 0 0 0 0 0 0 0 0 0 0 0 0 127 0" result="hardAlpha"/>
<feOffset dx="1" dy="1"/>
<feGaussianBlur stdDeviation="2"/>
<feComposite in2="hardAlpha" operator="out"/>
<feColorMatrix type="matrix" values="0 0 0 0 0 0 0 0 0 0 0 0 0 0 0 0 0 0 0.35 0"/>
<feBlend mode="normal" in2="BackgroundImageFix" result="effect1_dropShadow_6440_189334"/>
<feBlend mode="normal" in="SourceGraphic" in2="effect1_dropShadow_6440_189334" result="shape"/>
</filter>
</defs>
</svg>
