<svg width="25" height="24" viewBox="0 0 25 24" fill="none" xmlns="http://www.w3.org/2000/svg">
<path fill-rule="evenodd" clip-rule="evenodd" d="M6.6332 6.00002C6.6332 4.0118 8.24498 2.40002 10.2332 2.40002C11.1552 2.40002 11.9963 2.74665 12.6332 3.3167C13.2701 2.74665 14.1112 2.40002 15.0332 2.40002C17.0214 2.40002 18.6332 4.0118 18.6332 6.00002C18.6332 6.42079 18.561 6.82469 18.4284 7.20002H19.8332C21.1587 7.20002 22.2332 8.27454 22.2332 9.60002C22.2332 10.9255 21.1587 12 19.8332 12H13.8332V10.8C13.8332 10.1373 13.2959 9.60002 12.6332 9.60002C11.9705 9.60002 11.4332 10.1373 11.4332 10.8V12H5.4332C4.10772 12 3.0332 10.9255 3.0332 9.60002C3.0332 8.27454 4.10772 7.20002 5.4332 7.20002H6.83805C6.70539 6.82469 6.6332 6.42079 6.6332 6.00002ZM11.4332 7.20002V6.00002C11.4332 5.33728 10.8959 4.80002 10.2332 4.80002C9.57046 4.80002 9.0332 5.33728 9.0332 6.00002C9.0332 6.66277 9.57046 7.20002 10.2332 7.20002H11.4332ZM15.0332 7.20002C15.6959 7.20002 16.2332 6.66277 16.2332 6.00002C16.2332 5.33728 15.6959 4.80002 15.0332 4.80002C14.3705 4.80002 13.8332 5.33728 13.8332 6.00002V7.20002H15.0332Z" fill="#030903"/>
<path d="M11.4332 13.2H4.2332V19.2C4.2332 20.5255 5.30772 21.6 6.6332 21.6H11.4332V13.2Z" fill="#030903"/>
<path d="M13.8332 21.6H18.6332C19.9587 21.6 21.0332 20.5255 21.0332 19.2V13.2H13.8332V21.6Z" fill="#030903"/>
</svg>
