<svg width="25" height="24" viewBox="0 0 25 24" fill="none" xmlns="http://www.w3.org/2000/svg">
<path d="M12.5713 8V21M12.5713 8C12.5713 8 12.5713 6.50722 12.5713 6C12.5713 4.89543 13.4667 4 14.5713 4C15.6759 4 16.5713 4.89543 16.5713 6C16.5713 7.10457 15.6759 8 14.5713 8C13.9739 8 12.5713 8 12.5713 8ZM12.5713 8C12.5713 8 12.5713 6.06291 12.5713 5.5C12.5713 4.11929 11.452 3 10.0713 3C8.69058 3 7.57129 4.11929 7.57129 5.5C7.57129 6.88071 8.69058 8 10.0713 8C10.8891 8 12.5713 8 12.5713 8ZM5.57129 12H19.5713M5.57129 12C4.46672 12 3.57129 11.1046 3.57129 10C3.57129 8.89543 4.46672 8 5.57129 8H19.5713C20.6759 8 21.5713 8.89543 21.5713 10C21.5713 11.1046 20.6759 12 19.5713 12M5.57129 12L5.57129 19C5.57129 20.1046 6.46672 21 7.57129 21H17.5713C18.6759 21 19.5713 20.1046 19.5713 19V12" stroke="#030903" stroke-width="2" stroke-linecap="round" stroke-linejoin="round"/>
</svg>
