<svg width="25" height="24" viewBox="0 0 25 24" fill="none" xmlns="http://www.w3.org/2000/svg">
<path d="M3.19775 11H5.14282C6.24739 11 7.14282 11.8954 7.14282 13V14C7.14282 15.1046 8.03825 16 9.14282 16C10.2474 16 11.1428 16.8954 11.1428 18V20.9451M8.14282 3.93552V5.5C8.14282 6.88071 9.26211 8 10.6428 8H11.1428C12.2474 8 13.1428 8.89543 13.1428 10C13.1428 11.1046 14.0383 12 15.1428 12C16.2474 12 17.1428 11.1046 17.1428 10C17.1428 8.89543 18.0383 8 19.1428 8L20.2073 8M15.1428 20.4879V18C15.1428 16.8954 16.0383 16 17.1428 16H20.2073M21.1428 12C21.1428 16.9706 17.1134 21 12.1428 21C7.17226 21 3.14282 16.9706 3.14282 12C3.14282 7.02944 7.17226 3 12.1428 3C17.1134 3 21.1428 7.02944 21.1428 12Z" stroke="#030903" stroke-width="2" stroke-linecap="round" stroke-linejoin="round"/>
</svg>
