<svg width="25" height="24" viewBox="0 0 25 24" fill="none" xmlns="http://www.w3.org/2000/svg">
<path fill-rule="evenodd" clip-rule="evenodd" d="M12.05 21.6C17.3519 21.6 21.65 17.302 21.65 12C21.65 6.69809 17.3519 2.40002 12.05 2.40002C6.74802 2.40002 2.44995 6.69809 2.44995 12C2.44995 17.302 6.74802 21.6 12.05 21.6ZM5.2481 9.63291C5.69646 8.34435 6.50064 7.22239 7.543 6.38469C7.86446 6.87562 8.41934 7.19992 9.04997 7.19992C10.0441 7.19992 10.85 8.0058 10.85 8.99992V9.59992C10.85 10.9254 11.9245 11.9999 13.25 11.9999C14.5755 11.9999 15.65 10.9254 15.65 9.59992C15.65 8.47178 16.4283 7.52543 17.4773 7.26865C18.5813 8.53395 19.25 10.1889 19.25 11.9999C19.25 12.4089 19.2159 12.8098 19.1504 13.2001H18.0499C16.7244 13.2001 15.6499 14.2746 15.6499 15.6001V18.2367C14.5909 18.8493 13.3613 19.1999 12.0498 19.1999V16.8C12.0498 15.4745 10.9753 14.4 9.64985 14.4C8.32437 14.4 7.24985 13.3255 7.24985 12C7.24985 10.8102 6.38404 9.82262 5.2481 9.63291Z" fill="#030903"/>
</svg>
