<svg width="25" height="24" viewBox="0 0 25 24" fill="none" xmlns="http://www.w3.org/2000/svg">
<g clip-path="url(#clip0_4967_337374)">
<path d="M19.3334 4.59003C17.5734 2.99003 15.2434 2.03003 12.6834 2.03003C7.18338 2.03003 2.71338 6.50003 2.71338 12C2.71338 17.5 7.18338 21.97 12.6834 21.97C15.2434 21.97 17.5734 21.01 19.3334 19.41C21.3734 17.6 22.6534 14.94 22.6534 12C22.6534 9.06003 21.3734 6.40003 19.3334 4.59003ZM12.6534 16.39C12.6334 18.04 11.4034 18.44 10.2534 17.98C7.88338 17.03 6.21338 14.71 6.21338 12C6.21338 9.29003 7.88338 6.97003 10.2534 6.01003C11.4034 5.55003 12.6334 5.96003 12.6534 7.60003V16.39Z" fill="#292D32"/>
</g>
<defs>
<clipPath id="clip0_4967_337374">
<rect width="24" height="24" fill="white" transform="translate(0.68335)"/>
</clipPath>
</defs>
</svg>
