<svg width="25" height="24" viewBox="0 0 25 24" fill="none" xmlns="http://www.w3.org/2000/svg">
<g clip-path="url(#clip0_4967_336947)">
<path d="M22.6841 12C22.6841 14.94 21.4041 17.6 19.3641 19.41C17.6041 21.01 15.2741 21.97 12.7141 21.97C7.21414 21.97 2.74414 17.5 2.74414 12C2.74414 6.5 7.21414 2.03 12.7141 2.03C15.2741 2.03 17.6041 2.99 19.3641 4.59C21.4041 6.4 22.6841 9.06 22.6841 12Z" stroke="#292D32" stroke-width="2" stroke-linecap="round" stroke-linejoin="round"/>
<path d="M12.6841 16.39C12.6641 18.04 11.4341 18.44 10.2841 17.98C7.91414 17.03 6.24414 14.71 6.24414 12C6.24414 9.28999 7.91414 6.97 10.2841 6.01C11.4341 5.55 12.6641 5.95999 12.6841 7.59999V16.39Z" stroke="#292D32" stroke-width="2" stroke-linecap="round" stroke-linejoin="round"/>
</g>
<defs>
<clipPath id="clip0_4967_336947">
<rect width="24" height="24" fill="white" transform="translate(0.714111)"/>
</clipPath>
</defs>
</svg>
