<svg width="513" height="513" viewBox="0 0 513 513" fill="none" xmlns="http://www.w3.org/2000/svg">
<path opacity="0.3" d="M256.245 512.49C239.895 512.49 225.823 489.841 210.411 486.759C194.462 483.542 172.885 499.088 158.143 493.057C143.133 486.893 138.978 460.625 125.71 451.645C112.308 442.666 86.4426 448.697 75.0509 437.439C63.6593 426.048 69.8242 400.182 60.8449 386.78C51.9996 373.512 25.7318 369.224 19.4328 354.347C13.402 339.605 28.8142 318.162 25.7318 302.08C22.6494 286.534 4.91196e-05 272.595 4.98343e-05 256.245C5.0549e-05 239.895 22.6494 225.823 25.7318 210.41C28.9483 194.462 13.402 172.885 19.4329 158.143C25.5977 143.133 51.8656 138.978 60.8449 125.71C69.8242 112.308 63.7933 86.4425 75.0509 75.0509C86.4426 63.6592 112.308 69.8241 125.71 60.8448C138.978 51.9996 143.267 25.7317 158.143 19.4328C172.885 13.4019 194.328 28.8142 210.411 25.7317C225.957 22.6493 239.895 -1.19155e-05 256.245 -1.12008e-05C272.596 -1.04861e-05 286.668 22.6493 302.08 25.7317C318.028 28.9482 339.605 13.4019 354.347 19.4328C369.358 25.5977 373.512 51.8655 386.78 60.8448C400.182 69.8241 426.048 63.7932 437.439 75.0509C448.831 86.4425 442.666 112.308 451.645 125.71C460.491 138.978 486.759 143.267 493.057 158.143C499.088 172.885 483.676 194.328 486.759 210.41C489.841 225.957 512.49 239.895 512.49 256.245C512.49 272.596 489.841 286.668 486.759 302.08C483.542 318.028 499.088 339.605 493.057 354.347C486.893 369.358 460.625 373.512 451.645 386.78C442.666 400.182 448.697 426.048 437.439 437.439C426.048 448.831 400.182 442.666 386.78 451.645C373.512 460.491 369.223 486.759 354.347 493.057C339.605 499.088 318.162 483.676 302.08 486.759C286.534 489.841 272.596 512.49 256.245 512.49Z" fill="url(#paint0_linear_7183_1900)"/>
<path d="M267.799 116.924C264.453 111.12 257.439 106.931 250.623 110.077C249.978 110.374 249.333 110.704 248.702 111.069C247.524 111.75 246.473 112.451 245.54 113.146C240.162 117.156 240.547 124.185 243.463 129.243L257.832 154.167C259.169 156.486 258.375 159.447 256.052 160.79C253.727 162.135 250.753 161.331 249.417 158.998C244.776 150.888 236.461 136.377 231.587 127.995C229.229 123.939 224.68 120.393 219.335 122.033C217.721 122.528 215.918 123.278 213.983 124.396C212.663 125.159 211.498 125.932 210.475 126.687C205.267 130.527 205.248 137.234 208.1 142.27C213.077 151.054 221.352 165.201 226.732 174.347C228.096 176.667 227.312 179.656 224.987 181C222.679 182.334 219.728 181.543 218.396 179.231L207.056 159.562C204.731 155.531 200.16 151.939 194.843 153.905C193.511 154.397 192.031 155.079 190.414 156.014C189.088 156.78 187.904 157.582 186.854 158.381C181.336 162.58 181.582 169.907 184.654 175.235C188.996 182.766 196.035 194.974 203.802 208.449C209.379 218.165 217.866 229.902 226.571 239.725C238.781 253.504 257.986 255.37 273.99 246.892C276.896 245.353 280.006 243.638 283.294 241.737C292.545 236.388 299.115 231.966 303.598 228.665C309.416 224.38 313.764 218.529 316.443 211.869C323.991 193.103 327.706 172.13 329.254 161.291C329.991 156.126 329.109 150.363 325.098 146.333C323.247 144.474 321.283 142.962 319.369 141.738C315.738 139.415 311.713 139.409 308.274 140.962C304.877 142.496 302.068 145.529 300.583 149.31C298.573 154.43 296.837 159.151 295.605 162.593C295.403 163.155 295.215 163.684 295.041 164.175L267.799 116.924Z" fill="white" fill-opacity="0.01"/>
<path d="M267.799 116.924C264.453 111.12 257.439 106.931 250.623 110.077C249.978 110.374 249.333 110.704 248.702 111.069C247.524 111.75 246.473 112.451 245.54 113.146C240.162 117.156 240.547 124.185 243.463 129.243L257.832 154.167C259.169 156.486 258.375 159.447 256.052 160.79C253.727 162.135 250.753 161.331 249.417 158.998C244.776 150.888 236.461 136.377 231.587 127.995C229.229 123.939 224.68 120.393 219.335 122.033C217.721 122.528 215.918 123.278 213.983 124.396C212.663 125.159 211.498 125.932 210.475 126.687C205.267 130.527 205.248 137.234 208.1 142.27C213.077 151.054 221.352 165.201 226.732 174.347C228.096 176.667 227.312 179.656 224.987 181C222.679 182.334 219.728 181.543 218.396 179.231L207.056 159.562C204.731 155.531 200.16 151.939 194.843 153.905C193.511 154.397 192.031 155.079 190.414 156.014C189.088 156.78 187.904 157.582 186.854 158.381C181.336 162.58 181.582 169.907 184.654 175.235C188.996 182.766 196.035 194.974 203.802 208.449C209.379 218.165 217.866 229.902 226.571 239.725C238.781 253.504 257.986 255.37 273.99 246.892C276.896 245.353 280.006 243.638 283.294 241.737C292.545 236.388 299.115 231.966 303.598 228.665C309.416 224.38 313.764 218.529 316.443 211.869C323.991 193.103 327.706 172.13 329.254 161.291C329.991 156.126 329.109 150.363 325.098 146.333C323.247 144.474 321.283 142.962 319.369 141.738C315.738 139.415 311.713 139.409 308.274 140.962C304.877 142.496 302.068 145.529 300.583 149.31C298.573 154.43 296.837 159.151 295.605 162.593C295.403 163.155 295.215 163.684 295.041 164.175L267.799 116.924Z" fill="url(#paint1_linear_7183_1900)"/>
<path d="M187.429 247.403C186.814 245.532 184.167 245.532 183.552 247.403L181.904 252.414L176.893 254.061C175.022 254.677 175.022 257.323 176.893 257.939L181.904 259.586L183.552 264.597C184.167 266.468 186.814 266.468 187.429 264.597L189.077 259.586L194.087 257.939C195.958 257.323 195.958 254.677 194.087 254.061L189.077 252.414L187.429 247.403Z" fill="url(#paint2_linear_7183_1900)"/>
<path d="M304.041 97.1226C303.549 95.6258 301.432 95.6258 300.939 97.1226L299.621 101.131L295.613 102.449C294.116 102.941 294.116 105.059 295.613 105.551L299.621 106.869L300.939 110.877C301.432 112.374 303.549 112.374 304.041 110.877L305.359 106.869L309.368 105.551C310.864 105.059 310.864 102.941 309.368 102.449L305.359 101.131L304.041 97.1226Z" fill="url(#paint3_linear_7183_1900)"/>
<path d="M284.592 61.2452C283.608 58.2516 279.373 58.2516 278.388 61.2452L275.752 69.2616L267.735 71.8982C264.742 72.8826 264.742 77.1174 267.735 78.1018L275.752 80.7383L278.388 88.7549C279.373 91.7484 283.608 91.7484 284.592 88.7549L287.229 80.7383L295.245 78.1018C298.239 77.1174 298.239 72.8826 295.245 71.8982L287.229 69.2616L284.592 61.2452Z" fill="url(#paint4_linear_7183_1900)"/>
<defs>
<linearGradient id="paint0_linear_7183_1900" x1="256.245" y1="15.1239" x2="259.742" y2="300.64" gradientUnits="userSpaceOnUse">
<stop stop-color="#00A84E"/>
<stop offset="1" stop-color="#00A84E" stop-opacity="0"/>
</linearGradient>
<linearGradient id="paint1_linear_7183_1900" x1="255.99" y1="109" x2="255.99" y2="252" gradientUnits="userSpaceOnUse">
<stop offset="0.213542" stop-color="#00A84E"/>
<stop offset="1" stop-color="#3BE756" stop-opacity="0.58"/>
</linearGradient>
<linearGradient id="paint2_linear_7183_1900" x1="185.49" y1="246" x2="185.49" y2="266" gradientUnits="userSpaceOnUse">
<stop offset="0.213542" stop-color="#00B569"/>
<stop offset="1" stop-color="#0C9A45" stop-opacity="0.82"/>
</linearGradient>
<linearGradient id="paint3_linear_7183_1900" x1="302.49" y1="96" x2="302.49" y2="112" gradientUnits="userSpaceOnUse">
<stop offset="0.213542" stop-color="#00B569"/>
<stop offset="1" stop-color="#0C9A45" stop-opacity="0.82"/>
</linearGradient>
<linearGradient id="paint4_linear_7183_1900" x1="281.49" y1="59" x2="281.49" y2="91" gradientUnits="userSpaceOnUse">
<stop offset="0.213542" stop-color="#00B569"/>
<stop offset="1" stop-color="#0C9A45" stop-opacity="0.82"/>
</linearGradient>
</defs>
</svg>
