<svg width="25" height="24" viewBox="0 0 25 24" fill="none" xmlns="http://www.w3.org/2000/svg">
<path fill-rule="evenodd" clip-rule="evenodd" d="M11.8688 3.63584C12.5117 3.79658 12.9026 4.4481 12.7419 5.09106L12.2147 7.20002H15.7408L16.4136 4.50897C16.5743 3.86602 17.2258 3.47511 17.8688 3.63584C18.5117 3.79658 18.9026 4.4481 18.7419 5.09106L18.2147 7.20002H21.1777C21.8405 7.20002 22.3777 7.73727 22.3777 8.40002C22.3777 9.06276 21.8405 9.60002 21.1777 9.60002H17.6147L16.4147 14.4H18.7777C19.4405 14.4 19.9777 14.9373 19.9777 15.6C19.9777 16.2628 19.4405 16.8 18.7777 16.8H15.8147L15.1419 19.4911C14.9812 20.134 14.3296 20.5249 13.6867 20.3642C13.0437 20.2035 12.6528 19.5519 12.8136 18.909L13.3408 16.8H9.81467L9.1419 19.4911C8.98117 20.134 8.32965 20.5249 7.68669 20.3642C7.04374 20.2035 6.65282 19.5519 6.81356 18.909L7.3408 16.8H4.37773C3.71499 16.8 3.17773 16.2628 3.17773 15.6C3.17773 14.9373 3.71499 14.4 4.37773 14.4H7.9408L9.1408 9.60002H6.77773C6.11499 9.60002 5.57773 9.06276 5.57773 8.40002C5.57773 7.73727 6.11499 7.20002 6.77773 7.20002H9.7408L10.4136 4.50897C10.5743 3.86602 11.2258 3.47511 11.8688 3.63584ZM11.6147 9.60002L10.4147 14.4H13.9408L15.1408 9.60002H11.6147Z" fill="#030903"/>
</svg>
