<svg width="42" height="42" viewBox="0 0 42 42" fill="none" xmlns="http://www.w3.org/2000/svg">
<path id="Vector 3 (Stroke)" fill-rule="evenodd" clip-rule="evenodd" d="M9.20087 42.8741C13.6427 48.8751 21.0661 50.5843 28.5126 48.5089C36.8843 46.1756 41.7554 40.412 42.8109 33.2075C43.4665 28.7324 42.6078 24.0915 40.8157 19.7847C42.7553 19.815 44.8602 19.9888 47.1415 20.3337C51.0973 20.9317 54.6435 18.321 55.0621 14.5026C55.4808 10.6842 52.6134 7.10396 48.6576 6.50597C42.1736 5.52576 36.3777 5.60274 31.3024 6.4932C22.7379 -1.27733 10.0106 -6.08651 -3.52166 -0.512084C-7.11556 0.968374 -8.64673 5.06272 -6.94164 8.63289C-5.23654 12.2031 -0.940865 13.8971 2.65303 12.4167C7.35526 10.4796 12.0891 10.8526 16.2516 12.7541C11.8241 16.0837 8.75862 20.3498 7.13308 24.9672C5.12664 30.6666 5.25205 37.5392 9.20087 42.8741Z" fill="#FFF2D8"/>
</svg>
