<svg width="513" height="513" viewBox="0 0 513 513" fill="none" xmlns="http://www.w3.org/2000/svg">
<path opacity="0.3" d="M256.245 512.49C239.895 512.49 225.823 489.841 210.411 486.759C194.462 483.542 172.885 499.088 158.143 493.057C143.133 486.893 138.978 460.625 125.71 451.645C112.308 442.666 86.4426 448.697 75.0509 437.439C63.6593 426.048 69.8242 400.182 60.8449 386.78C51.9996 373.512 25.7318 369.224 19.4328 354.347C13.402 339.605 28.8142 318.162 25.7318 302.08C22.6494 286.534 4.91196e-05 272.595 4.98343e-05 256.245C5.0549e-05 239.895 22.6494 225.823 25.7318 210.41C28.9483 194.462 13.402 172.885 19.4329 158.143C25.5977 143.133 51.8656 138.978 60.8449 125.71C69.8242 112.308 63.7933 86.4425 75.0509 75.0509C86.4426 63.6592 112.308 69.8241 125.71 60.8448C138.978 51.9996 143.267 25.7317 158.143 19.4328C172.885 13.4019 194.328 28.8142 210.411 25.7317C225.957 22.6493 239.895 -1.19155e-05 256.245 -1.12008e-05C272.596 -1.04861e-05 286.668 22.6493 302.08 25.7317C318.028 28.9482 339.605 13.4019 354.347 19.4328C369.358 25.5977 373.512 51.8655 386.78 60.8448C400.182 69.8241 426.048 63.7932 437.439 75.0509C448.831 86.4425 442.666 112.308 451.645 125.71C460.491 138.978 486.759 143.267 493.057 158.143C499.088 172.885 483.676 194.328 486.759 210.41C489.841 225.957 512.49 239.895 512.49 256.245C512.49 272.596 489.841 286.668 486.759 302.08C483.542 318.028 499.088 339.605 493.057 354.347C486.893 369.358 460.625 373.512 451.645 386.78C442.666 400.182 448.697 426.048 437.439 437.439C426.048 448.831 400.182 442.666 386.78 451.645C373.512 460.491 369.223 486.759 354.347 493.057C339.605 499.088 318.162 483.676 302.08 486.759C286.534 489.841 272.596 512.49 256.245 512.49Z" fill="url(#paint0_linear_7183_1892)"/>
<path fill-rule="evenodd" clip-rule="evenodd" d="M272.095 109.56C268.096 109.259 262.821 109 256.49 109C250.16 109 244.884 109.259 240.886 109.56C233.803 110.094 227.949 114.548 224.992 120.639L221.569 127.693C215.791 127.909 210.856 128.16 206.762 128.407C195.693 129.076 186.89 137.569 185.905 148.642C185.101 157.676 184.303 170.121 184.303 183.958C184.303 197.795 185.101 210.241 185.905 219.275C186.89 230.348 195.693 238.841 206.762 239.51C217.521 240.159 234.084 240.833 256.49 240.833C278.897 240.833 295.459 240.159 306.219 239.51C317.288 238.841 326.09 230.348 327.076 219.275C327.88 210.241 328.678 197.795 328.678 183.958C328.678 170.121 327.88 157.676 327.076 148.642C326.09 137.569 317.288 129.076 306.219 128.407C302.124 128.16 297.189 127.909 291.412 127.693L287.988 120.639C285.032 114.548 279.178 110.094 272.095 109.56ZM235.957 196.588C233.831 193.753 229.809 193.178 226.974 195.304C224.139 197.431 223.564 201.453 225.691 204.288C241.091 224.821 271.891 224.821 287.291 204.288C289.417 201.453 288.842 197.431 286.007 195.304C283.172 193.178 279.15 193.753 277.024 196.588C266.757 210.277 246.224 210.277 235.957 196.588ZM234.032 158.729C237.576 158.729 240.449 161.602 240.449 165.146V171.563C240.449 175.106 237.576 177.979 234.032 177.979C230.488 177.979 227.615 175.106 227.615 171.563V165.146C227.615 161.602 230.488 158.729 234.032 158.729ZM272.532 165.146C272.532 161.602 275.405 158.729 278.949 158.729C282.492 158.729 285.365 161.602 285.365 165.146V171.563C285.365 175.106 282.492 177.979 278.949 177.979C275.405 177.979 272.532 175.106 272.532 171.563V165.146Z" fill="white" fill-opacity="0.01"/>
<path fill-rule="evenodd" clip-rule="evenodd" d="M272.095 109.56C268.096 109.259 262.821 109 256.49 109C250.16 109 244.884 109.259 240.886 109.56C233.803 110.094 227.949 114.548 224.992 120.639L221.569 127.693C215.791 127.909 210.856 128.16 206.762 128.407C195.693 129.076 186.89 137.569 185.905 148.642C185.101 157.676 184.303 170.121 184.303 183.958C184.303 197.795 185.101 210.241 185.905 219.275C186.89 230.348 195.693 238.841 206.762 239.51C217.521 240.159 234.084 240.833 256.49 240.833C278.897 240.833 295.459 240.159 306.219 239.51C317.288 238.841 326.09 230.348 327.076 219.275C327.88 210.241 328.678 197.795 328.678 183.958C328.678 170.121 327.88 157.676 327.076 148.642C326.09 137.569 317.288 129.076 306.219 128.407C302.124 128.16 297.189 127.909 291.412 127.693L287.988 120.639C285.032 114.548 279.178 110.094 272.095 109.56ZM235.957 196.588C233.831 193.753 229.809 193.178 226.974 195.304C224.139 197.431 223.564 201.453 225.691 204.288C241.091 224.821 271.891 224.821 287.291 204.288C289.417 201.453 288.842 197.431 286.007 195.304C283.172 193.178 279.15 193.753 277.024 196.588C266.757 210.277 246.224 210.277 235.957 196.588ZM234.032 158.729C237.576 158.729 240.449 161.602 240.449 165.146V171.563C240.449 175.106 237.576 177.979 234.032 177.979C230.488 177.979 227.615 175.106 227.615 171.563V165.146C227.615 161.602 230.488 158.729 234.032 158.729ZM272.532 165.146C272.532 161.602 275.405 158.729 278.949 158.729C282.492 158.729 285.365 161.602 285.365 165.146V171.563C285.365 175.106 282.492 177.979 278.949 177.979C275.405 177.979 272.532 175.106 272.532 171.563V165.146Z" fill="url(#paint1_linear_7183_1892)"/>
<path d="M159.429 105.403C158.814 103.532 156.167 103.532 155.552 105.403L153.904 110.414L148.893 112.061C147.022 112.677 147.022 115.323 148.893 115.939L153.904 117.586L155.552 122.597C156.167 124.468 158.814 124.468 159.429 122.597L161.077 117.586L166.087 115.939C167.958 115.323 167.958 112.677 166.087 112.061L161.077 110.414L159.429 105.403Z" fill="url(#paint2_linear_7183_1892)"/>
<path d="M143.041 130.123C142.549 128.626 140.432 128.626 139.939 130.123L138.621 134.131L134.613 135.449C133.116 135.941 133.116 138.059 134.613 138.551L138.621 139.869L139.939 143.877C140.432 145.374 142.549 145.374 143.041 143.877L144.359 139.869L148.368 138.551C149.864 138.059 149.864 135.941 148.368 135.449L144.359 134.131L143.041 130.123Z" fill="url(#paint3_linear_7183_1892)"/>
<path d="M360.592 243.245C359.608 240.252 355.373 240.252 354.388 243.245L351.752 251.262L343.735 253.898C340.742 254.883 340.742 259.117 343.735 260.102L351.752 262.738L354.388 270.755C355.373 273.748 359.608 273.748 360.592 270.755L363.229 262.738L371.245 260.102C374.239 259.117 374.239 254.883 371.245 253.898L363.229 251.262L360.592 243.245Z" fill="url(#paint4_linear_7183_1892)"/>
<defs>
<linearGradient id="paint0_linear_7183_1892" x1="256.245" y1="15.1239" x2="259.742" y2="300.64" gradientUnits="userSpaceOnUse">
<stop stop-color="#00A84E"/>
<stop offset="1" stop-color="#00A84E" stop-opacity="0"/>
</linearGradient>
<linearGradient id="paint1_linear_7183_1892" x1="256.49" y1="109" x2="256.49" y2="240.833" gradientUnits="userSpaceOnUse">
<stop offset="0.213542" stop-color="#00A84E"/>
<stop offset="1" stop-color="#3BE756" stop-opacity="0.58"/>
</linearGradient>
<linearGradient id="paint2_linear_7183_1892" x1="157.49" y1="104" x2="157.49" y2="124" gradientUnits="userSpaceOnUse">
<stop offset="0.213542" stop-color="#00B569"/>
<stop offset="1" stop-color="#0C9A45" stop-opacity="0.82"/>
</linearGradient>
<linearGradient id="paint3_linear_7183_1892" x1="141.49" y1="129" x2="141.49" y2="145" gradientUnits="userSpaceOnUse">
<stop offset="0.213542" stop-color="#00B569"/>
<stop offset="1" stop-color="#0C9A45" stop-opacity="0.82"/>
</linearGradient>
<linearGradient id="paint4_linear_7183_1892" x1="357.49" y1="241" x2="357.49" y2="273" gradientUnits="userSpaceOnUse">
<stop offset="0.213542" stop-color="#00B569"/>
<stop offset="1" stop-color="#0C9A45" stop-opacity="0.82"/>
</linearGradient>
</defs>
</svg>
