<svg width="25" height="24" viewBox="0 0 25 24" fill="none" xmlns="http://www.w3.org/2000/svg">
<path d="M5.22217 21C4.67217 21 4.20117 20.8043 3.80917 20.413C3.41783 20.021 3.22217 19.55 3.22217 19V5C3.22217 4.45 3.41783 3.979 3.80917 3.587C4.20117 3.19567 4.67217 3 5.22217 3H9.22217C9.77445 3 10.2222 3.44772 10.2222 4V4C10.2222 4.55228 9.77445 5 9.22217 5H5.22217V19H19.2222V14.8571C19.2222 14.4117 19.7607 14.1886 20.0757 14.5036L21.0757 15.5036C21.1695 15.5973 21.2222 15.7245 21.2222 15.8571V19C21.2222 19.55 21.0265 20.021 20.6352 20.413C20.2432 20.8043 19.7722 21 19.2222 21H5.22217ZM21.0722 12.7L18.6722 10.3C18.3222 10.5333 17.9472 10.7083 17.5472 10.825C17.1472 10.9417 16.7222 11 16.2722 11C15.0388 11 13.9888 10.5627 13.1222 9.688C12.2555 8.81267 11.8222 7.75 11.8222 6.5C11.8222 5.25 12.2598 4.18733 13.1352 3.312C14.0098 2.43733 15.0722 2 16.3222 2C17.5722 2 18.6348 2.43733 19.5102 3.312C20.3848 4.18733 20.8222 5.25 20.8222 6.5C20.8222 6.95 20.7555 7.38333 20.6222 7.8C20.4888 8.21667 20.3222 8.6 20.1222 8.95L22.4722 11.3C22.6555 11.4833 22.7472 11.7167 22.7472 12C22.7472 12.2833 22.6555 12.5167 22.4722 12.7C22.2888 12.8833 22.0555 12.975 21.7722 12.975C21.4888 12.975 21.2555 12.8833 21.0722 12.7ZM16.3222 9C17.0222 9 17.6138 8.75833 18.0972 8.275C18.5805 7.79167 18.8222 7.2 18.8222 6.5C18.8222 5.8 18.5805 5.20833 18.0972 4.725C17.6138 4.24167 17.0222 4 16.3222 4C15.6222 4 15.0305 4.24167 14.5472 4.725C14.0638 5.20833 13.8222 5.8 13.8222 6.5C13.8222 7.2 14.0638 7.79167 14.5472 8.275C15.0305 8.75833 15.6222 9 16.3222 9ZM7.22217 17C7.02217 17 6.87217 16.9083 6.77217 16.725C6.67217 16.5417 6.68883 16.3667 6.82217 16.2L8.82217 13.525C8.92217 13.3917 9.0555 13.325 9.22217 13.325C9.38883 13.325 9.52217 13.3917 9.62217 13.525L11.4722 16L14.0722 12.525C14.1722 12.3917 14.3055 12.325 14.4722 12.325C14.6388 12.325 14.7722 12.3917 14.8722 12.525L17.6222 16.2C17.7555 16.3667 17.7722 16.5417 17.6722 16.725C17.5722 16.9083 17.4222 17 17.2222 17H7.22217Z" fill="black"/>
</svg>
