<svg width="25" height="24" viewBox="0 0 25 24" fill="none" xmlns="http://www.w3.org/2000/svg">
<path d="M15.7222 2C18.2222 2 20.2222 4 20.2222 6.5C20.2222 7.38 19.9722 8.21 19.5322 8.9L21.9177 11.3011C22.3016 11.6874 22.3006 12.3116 21.9155 12.6967V12.6967C21.5317 13.0805 20.9102 13.083 20.5233 12.7023L18.1022 10.32C17.4122 10.75 16.5922 11 15.7222 11C13.2222 11 11.2222 9 11.2222 6.5C11.2222 4 13.2222 2 15.7222 2ZM15.7222 4C15.0591 4 14.4232 4.26339 13.9544 4.73223C13.4856 5.20107 13.2222 5.83696 13.2222 6.5C13.2222 7.16304 13.4856 7.79893 13.9544 8.26777C14.4232 8.73661 15.0591 9 15.7222 9C16.3852 9 17.0211 8.73661 17.4899 8.26777C17.9588 7.79893 18.2222 7.16304 18.2222 6.5C18.2222 5.83696 17.9588 5.20107 17.4899 4.73223C17.0211 4.26339 16.3852 4 15.7222 4ZM8.11971 14.977C7.91541 14.7319 7.53685 14.7383 7.34092 14.9902L4.84981 18.193C4.59437 18.5215 4.82841 19 5.24449 19H17.2222C17.6342 19 17.8694 18.5296 17.6222 18.2L14.1149 13.5237C13.9171 13.26 13.5227 13.2565 13.3203 13.5167L10.6034 17.0098C10.4075 17.2617 10.0289 17.2681 9.82463 17.0229L8.11971 14.977ZM20.2222 20C20.2222 20.5304 20.0115 21.0391 19.6364 21.4142C19.2613 21.7893 18.7526 22 18.2222 22H4.22217C3.69173 22 3.18303 21.7893 2.80795 21.4142C2.43288 21.0391 2.22217 20.5304 2.22217 20V6C2.22217 5.46957 2.43288 4.96086 2.80795 4.58579C3.18303 4.21071 3.69173 4 4.22217 4H9.34754C9.52584 4 9.64724 4.18156 9.58823 4.3498C9.35239 5.02216 9.22217 5.74299 9.22217 6.5C9.22217 8.22391 9.90699 9.87721 11.126 11.0962C12.345 12.3152 13.9983 13 15.7222 13C16.1934 13 16.6551 12.9472 17.1004 12.8515C17.4622 12.7738 17.8457 12.8636 18.1074 13.1252L19.9293 14.9471C20.1168 15.1346 20.2222 15.389 20.2222 15.6542V20Z" fill="black"/>
</svg>
