<svg width="48" height="48" viewBox="0 0 48 48" fill="none" xmlns="http://www.w3.org/2000/svg">
<g id="InboxOutline">
<path id="Vector" d="M40 26V12C40 10.9391 39.5786 9.92172 38.8284 9.17157C38.0783 8.42143 37.0609 8 36 8H12C10.9391 8 9.92172 8.42143 9.17157 9.17157C8.42143 9.92172 8 10.9391 8 12V26M40 26V36C40 37.0609 39.5786 38.0783 38.8284 38.8284C38.0783 39.5786 37.0609 40 36 40H12C10.9391 40 9.92172 39.5786 9.17157 38.8284C8.42143 38.0783 8 37.0609 8 36V26M40 26H34.828C34.2976 26.0001 33.789 26.2109 33.414 26.586L28.586 31.414C28.211 31.7891 27.7024 31.9999 27.172 32H20.828C20.2976 31.9999 19.789 31.7891 19.414 31.414L14.586 26.586C14.211 26.2109 13.7024 26.0001 13.172 26H8" stroke="#A2A3A9" stroke-width="2" stroke-linecap="round" stroke-linejoin="round"/>
</g>
</svg>
