<svg width="25" height="24" viewBox="0 0 25 24" fill="none" xmlns="http://www.w3.org/2000/svg">
<path d="M8.44458 4H6.44458C5.34001 4 4.44458 4.89543 4.44458 6V18C4.44458 19.1046 5.34001 20 6.44458 20H18.4446C19.5491 20 20.4446 19.1046 20.4446 18V6C20.4446 4.89543 19.5491 4 18.4446 4H16.4446M12.4446 3V11M12.4446 11L15.4446 8M12.4446 11L9.44458 8M4.44458 13H7.03037C7.29558 13 7.54994 13.1054 7.73747 13.2929L10.1517 15.7071C10.3392 15.8946 10.5936 16 10.8588 16H14.0304C14.2956 16 14.5499 15.8946 14.7375 15.7071L17.1517 13.2929C17.3392 13.1054 17.5936 13 17.8588 13H20.4446" stroke="#030903" stroke-width="2" stroke-linecap="round" stroke-linejoin="round"/>
</svg>
