<svg width="25" height="24" viewBox="0 0 25 24" fill="none" xmlns="http://www.w3.org/2000/svg">
<path fill-rule="evenodd" clip-rule="evenodd" d="M4.04468 6.00002C4.04468 4.67454 5.11919 3.60002 6.44468 3.60002H7.64468C8.30742 3.60002 8.84468 4.13728 8.84468 4.80002C8.84468 5.46277 8.30742 6.00002 7.64468 6.00002L6.44468 6.00002V18H18.4447V6.00002H17.2447C16.5819 6.00002 16.0447 5.46277 16.0447 4.80002C16.0447 4.13728 16.5819 3.60002 17.2447 3.60002H18.4447C19.7702 3.60002 20.8447 4.67454 20.8447 6.00002V18C20.8447 19.3255 19.7702 20.4 18.4447 20.4H6.44468C5.11919 20.4 4.04468 19.3255 4.04468 18V6.00002Z" fill="#030903"/>
<path d="M5.24468 14.4H8.84468L10.0447 16.8H14.8447L16.0447 14.4H19.6447V19.2H5.24468V14.4Z" fill="#030903"/>
<path d="M9.19615 8.7515C9.66478 8.28287 10.4246 8.28287 10.8932 8.7515L11.2447 9.10297V3.60002C11.2447 2.93728 11.7819 2.40002 12.4447 2.40002C13.1074 2.40002 13.6447 2.93728 13.6447 3.60002L13.6447 9.10297L13.9962 8.7515C14.4648 8.28287 15.2246 8.28287 15.6932 8.7515C16.1618 9.22013 16.1618 9.97992 15.6932 10.4486L13.2932 12.8486C13.0682 13.0736 12.7629 13.2 12.4447 13.2C12.1264 13.2 11.8212 13.0736 11.5961 12.8486L9.19615 10.4486C8.72752 9.97992 8.72752 9.22013 9.19615 8.7515Z" fill="#030903"/>
</svg>
