<svg width="24" height="24" viewBox="0 0 24 24" fill="none" xmlns="http://www.w3.org/2000/svg">
    <path d="M9.5 8C9.56004 9.35506 10.6449 10.44 12 10.5C10.6449 10.56 9.56004 11.6449 9.5 13C9.43996 11.6449 8.35506 10.56 7 10.5C8.35506 10.44 9.43996 9.35506 9.5 8Z"
          fill="white"/>
    <path d="M17 9C17.1201 11.7101 19.2899 13.8799 22 14C19.2899 14.1201 17.1201 16.2899 17 19C16.8799 16.2899 14.7101 14.1201 12 14C14.7101 13.8799 16.8799 11.7101 17 9Z"
          fill="#1D1D1D"/>
    <path fill-rule="evenodd" clip-rule="evenodd"
          d="M13.8895 4.62913C14.4916 4.37885 15.1371 4.25 15.7889 4.25C16.4408 4.25 17.0862 4.37885 17.6883 4.62913C18.2904 4.8794 18.8373 5.24616 19.2978 5.70834C19.6527 6.06423 19.9509 6.47139 20.1831 6.91547C20.9503 7.09405 21.6324 7.34386 22.1815 7.67514C22.8578 8.08319 23.4074 8.66457 23.5575 9.4494C23.7137 10.2667 23.3866 11.0376 22.8724 11.6843C22.4748 12.1844 21.9291 12.6598 21.2795 13.1022C20.1626 12.8577 19.2041 12.194 18.5768 11.2838C18.7417 11.0589 18.8793 10.8144 18.9864 10.5552C19.1606 10.1335 19.2502 9.68139 19.2502 9.22479C19.2502 8.76819 19.1606 8.31611 18.9864 7.89442C18.8122 7.47273 18.557 7.08975 18.2354 6.76731L18.7665 6.23767L18.2352 6.76706C17.9138 6.44447 17.5323 6.18869 17.1126 6.01423C16.6929 5.83976 16.2431 5.75 15.7889 5.75C15.3348 5.75 14.885 5.83976 14.4653 6.01423C14.0456 6.18869 13.6641 6.44447 13.3427 6.76706L13.3426 6.76718L12.5312 7.58114C12.3905 7.72232 12.1994 7.80166 12 7.80166C11.8007 7.80166 11.6096 7.72232 11.4689 7.58114L10.6575 6.76718C10.0083 6.11588 9.12823 5.75041 8.21112 5.75041C7.29402 5.75041 6.41398 6.11588 5.76476 6.76718C5.11545 7.41857 4.75024 8.30255 4.75024 9.22479C4.75024 10.147 5.11545 11.031 5.76476 11.6824L6.57612 12.4963L9.15045 15.0789C10.0406 15.0415 10.9874 14.9499 11.9697 14.7994C13.3817 14.8635 14.6201 15.5843 15.3873 16.6642L12.5312 19.5295C12.3905 19.6707 12.1994 19.75 12 19.75C11.8007 19.75 11.6096 19.6707 11.4689 19.5295L8.54509 16.5964C7.42465 16.6117 6.38656 16.5434 5.47034 16.3957C4.41442 16.2255 3.47855 15.9433 2.75925 15.5303C2.04273 15.1189 1.45426 14.5231 1.29798 13.7059C1.14987 12.9313 1.43669 12.197 1.90352 11.5739C2.26315 11.094 2.75851 10.6378 3.34892 10.2121C3.28375 9.88946 3.25024 9.55884 3.25024 9.22479C3.25024 7.90627 3.77232 6.64128 4.7024 5.70822C5.63256 4.77508 6.89464 4.25041 8.21112 4.25041C9.52761 4.25041 10.7897 4.77508 11.7198 5.70822L12 5.9893L12.2801 5.70834L12.2802 5.70822C12.7407 5.2461 13.2875 4.87938 13.8895 4.62913ZM20.7502 9.22479C20.7502 9.027 20.7385 8.82979 20.7151 8.6342C20.9828 8.73377 21.2136 8.84306 21.4066 8.95949C21.8723 9.24049 22.0425 9.51343 22.0841 9.73113C22.1274 9.95747 22.063 10.292 21.6983 10.7508C21.3356 11.207 20.735 11.7048 19.9036 12.2006C19.8213 12.2497 19.7371 12.2985 19.651 12.3471C19.9479 11.978 20.1912 11.5675 20.3728 11.1278C20.622 10.5244 20.7502 9.87776 20.7502 9.22479ZM12 17.9376L10.5529 16.4858C11.4386 16.4025 12.3566 16.2723 13.2913 16.0936C13.522 16.0495 13.7507 16.003 13.9771 15.9542L12 17.9376ZM5.51376 13.5553L7.013 15.0594C6.5504 15.0287 6.11427 14.9802 5.70907 14.9148C4.75344 14.7608 4.01156 14.5197 3.5061 14.2295C2.99786 13.9377 2.81457 13.6505 2.77129 13.4241C2.73018 13.2091 2.78556 12.8983 3.10395 12.4734C3.29277 12.2214 3.55694 11.9543 3.89659 11.68C4.11454 12.0651 4.38466 12.4226 4.7024 12.7414L5.51376 13.5553Z"
          fill="white"/>
    <path d="M17 10C17.0961 12.1681 18.8319 13.9039 21 14C18.8319 14.0961 17.0961 15.8319 17 18C16.9039 15.8319 15.1681 14.0961 13 14C15.1681 13.9039 16.9039 12.1681 17 10Z"
          fill="white"/>
</svg>
