<svg width="24" height="24" viewBox="0 0 24 24" fill="none" xmlns="http://www.w3.org/2000/svg">
<path fill-rule="evenodd" clip-rule="evenodd" d="M21.5999 9.60002C21.5999 13.5765 18.3764 16.8 14.3999 16.8C13.8815 16.8 13.3758 16.7452 12.8885 16.6411C12.5277 16.564 12.1455 16.6544 11.8847 16.9153L9.8928 18.9071C9.70526 19.0947 9.4509 19.2 9.18569 19.2H8.1999C7.64762 19.2 7.1999 19.6477 7.1999 20.2V20.6C7.1999 21.1523 6.75219 21.6 6.1999 21.6H3.3999C2.84762 21.6 2.3999 21.1523 2.3999 20.6V17.2142C2.3999 16.949 2.50526 16.6947 2.6928 16.5071L7.08468 12.1153C7.34553 11.8544 7.43588 11.4722 7.35881 11.1115C7.2547 10.6241 7.1999 10.1185 7.1999 9.60002C7.1999 5.62357 10.4235 2.40002 14.3999 2.40002C18.3764 2.40002 21.5999 5.62357 21.5999 9.60002ZM14.3999 4.80002C13.7372 4.80002 13.1999 5.33728 13.1999 6.00002C13.1999 6.66277 13.7372 7.20002 14.3999 7.20002C15.7254 7.20002 16.7999 8.27454 16.7999 9.60002C16.7999 10.2628 17.3372 10.8 17.9999 10.8C18.6626 10.8 19.1999 10.2628 19.1999 9.60002C19.1999 6.94906 17.0509 4.80002 14.3999 4.80002Z" fill="#030903"/>
</svg>
