<svg width="24" height="25" viewBox="0 0 24 25" fill="none" xmlns="http://www.w3.org/2000/svg">
<g id="Media / Icon">
<g id="Icon">
<path d="M4.64961 5.15039C4.06971 5.15039 3.59961 5.62049 3.59961 6.20039V18.8004C3.59961 19.3803 4.06971 19.8504 4.64961 19.8504C5.22951 19.8504 5.69961 19.3803 5.69961 18.8004V6.20039C5.69961 5.62049 5.22951 5.15039 4.64961 5.15039Z" fill="white"/>
<path d="M15.4571 14.9079C15.0471 15.318 15.0471 15.9828 15.4571 16.3929C15.8672 16.8029 16.532 16.8029 16.9421 16.3929L20.0921 13.2429C20.289 13.0459 20.3996 12.7789 20.3996 12.5004C20.3996 12.2219 20.289 11.9548 20.0921 11.7579L16.9421 8.60793C16.532 8.19788 15.8672 8.19788 15.4571 8.60793C15.0471 9.01798 15.0471 9.6828 15.4571 10.0929L16.8147 11.4504L8.84961 11.4504C8.26971 11.4504 7.79961 11.9205 7.79961 12.5004C7.79961 13.0803 8.26971 13.5504 8.84961 13.5504H16.8147L15.4571 14.9079Z" fill="white"/>
</g>
</g>
</svg>
