<svg width="25" height="24" viewBox="0 0 25 24" fill="none" xmlns="http://www.w3.org/2000/svg">
<path d="M18.2125 16.6569C17.2759 17.5935 15.3172 19.5521 13.9695 20.8999C13.1884 21.681 11.9233 21.6814 11.1423 20.9003C9.81801 19.576 7.89726 17.6553 6.89881 16.6569C3.77462 13.5327 3.77462 8.46734 6.89881 5.34315C10.023 2.21895 15.0883 2.21895 18.2125 5.34315C21.3367 8.46734 21.3367 13.5327 18.2125 16.6569Z" stroke="#030903" stroke-width="2" stroke-linecap="round" stroke-linejoin="round"/>
<path d="M15.5557 11C15.5557 12.6569 14.2125 14 12.5557 14C10.8988 14 9.55566 12.6569 9.55566 11C9.55566 9.34315 10.8988 8 12.5557 8C14.2125 8 15.5557 9.34315 15.5557 11Z" stroke="#030903" stroke-width="2" stroke-linecap="round" stroke-linejoin="round"/>
</svg>
