<svg width="25" height="24" viewBox="0 0 25 24" fill="none" xmlns="http://www.w3.org/2000/svg">
<path fill-rule="evenodd" clip-rule="evenodd" d="M6.11118 10.8V8.40002C6.11118 5.08632 8.79747 2.40002 12.1112 2.40002C15.4249 2.40002 18.1112 5.08632 18.1112 8.40002V10.8C19.4367 10.8 20.5112 11.8745 20.5112 13.2V19.2C20.5112 20.5255 19.4367 21.6 18.1112 21.6H6.11118C4.7857 21.6 3.71118 20.5255 3.71118 19.2V13.2C3.71118 11.8745 4.7857 10.8 6.11118 10.8ZM15.7112 8.40002V10.8H8.51118V8.40002C8.51118 6.4118 10.123 4.80002 12.1112 4.80002C14.0994 4.80002 15.7112 6.4118 15.7112 8.40002Z" fill="#030903"/>
</svg>
