<svg width="21" height="21" viewBox="0 0 21 21" fill="none" xmlns="http://www.w3.org/2000/svg">
<path d="M10.5 2.625C6.1586 2.625 2.625 6.1586 2.625 10.5C2.625 10.6471 2.63878 10.7906 2.64679 10.9358C2.63836 11.009 2.625 11.0809 2.625 11.1562H2.65833C2.99386 15.1911 6.38017 18.375 10.5 18.375C14.6198 18.375 18.0061 15.1911 18.3417 11.1562H18.375C18.375 11.0809 18.3616 11.009 18.3532 10.9358C18.3612 10.7906 18.375 10.6471 18.375 10.5C18.375 6.1586 14.8414 2.625 10.5 2.625ZM10.5 3.9375C13.7119 3.9375 16.3714 6.23012 16.9446 9.27209C16.7722 9.22209 16.5938 9.1875 16.4062 9.1875C15.3267 9.1875 14.4375 10.0767 14.4375 11.1562C14.4375 11.2208 14.4716 11.355 14.476 11.428C13.6263 11.007 12.3553 10.5 10.5 10.5C8.64471 10.5 7.37373 11.007 6.52405 11.428C6.52837 11.355 6.5625 11.2208 6.5625 11.1562C6.5625 10.0767 5.67326 9.1875 4.59375 9.1875C4.40622 9.1875 4.2278 9.22209 4.05542 9.27209C4.6286 6.23012 7.28811 3.9375 10.5 3.9375ZM8.20312 7.875C7.65975 7.875 7.21875 8.316 7.21875 8.85938C7.21875 9.40275 7.65975 9.84375 8.20312 9.84375C8.7465 9.84375 9.1875 9.40275 9.1875 8.85938C9.1875 8.316 8.7465 7.875 8.20312 7.875ZM11.8125 8.53125V9.84375H14.4375V8.53125H11.8125ZM4.59375 10.5C4.96455 10.5 5.25 10.7854 5.25 11.1562C5.25 11.3209 5.09477 12.3928 4.93213 13.2788C4.88175 13.5533 4.87646 13.564 4.83087 13.8005C4.34882 12.9725 4.0423 12.0306 3.96313 11.0217C4.02472 10.7213 4.27111 10.5 4.59375 10.5ZM16.4062 10.5C16.7289 10.5 16.9753 10.7213 17.0369 11.0217C16.9577 12.0306 16.6512 12.9725 16.1691 13.8005C16.1235 13.564 16.1183 13.5533 16.0679 13.2788C15.9052 12.3928 15.75 11.3209 15.75 11.1562C15.75 10.7854 16.0354 10.5 16.4062 10.5ZM10.5 11.8125C12.8782 11.8125 14.6597 12.9733 14.7015 13.0007C14.7365 13.1937 14.7397 13.3191 14.7759 13.5159C14.9375 14.3964 15.0915 15.1485 15.0989 15.1848C13.9158 16.3462 12.2941 17.0625 10.5 17.0625C8.70589 17.0625 7.08421 16.3462 5.90112 15.1848C5.90854 15.1485 6.06248 14.3964 6.22412 13.5159C6.26026 13.3191 6.26345 13.1937 6.29846 13.0007C6.34028 12.9733 8.12178 11.8125 10.5 11.8125Z" fill="#A2A3A9"/>
</svg>
