<svg width="25" height="24" viewBox="0 0 25 24" fill="none" xmlns="http://www.w3.org/2000/svg">
<path fill-rule="evenodd" clip-rule="evenodd" d="M3.82227 6.00005C3.82227 5.33731 4.35952 4.80005 5.02227 4.80005H19.4223C20.085 4.80005 20.6223 5.33731 20.6223 6.00005C20.6223 6.66279 20.085 7.20005 19.4223 7.20005H5.02227C4.35952 7.20005 3.82227 6.66279 3.82227 6.00005Z" fill="#030903"/>
<path fill-rule="evenodd" clip-rule="evenodd" d="M3.82227 12C3.82227 11.3373 4.35952 10.8 5.02227 10.8H19.4223C20.085 10.8 20.6223 11.3373 20.6223 12C20.6223 12.6628 20.085 13.2 19.4223 13.2H5.02227C4.35952 13.2 3.82227 12.6628 3.82227 12Z" fill="#030903"/>
<path fill-rule="evenodd" clip-rule="evenodd" d="M3.82227 18C3.82227 17.3373 4.35952 16.8 5.02227 16.8H12.2223C12.885 16.8 13.4223 17.3373 13.4223 18C13.4223 18.6628 12.885 19.2 12.2223 19.2H5.02227C4.35952 19.2 3.82227 18.6628 3.82227 18Z" fill="#030903"/>
</svg>
