<svg width="21" height="21" viewBox="0 0 21 21" fill="none" xmlns="http://www.w3.org/2000/svg">
<path d="M10.5 1.96875C7.70581 1.96875 5.7063 3.10181 4.53223 4.67578C3.45557 6.11645 3.11719 7.86987 3.22998 9.47974C2.53272 9.78223 1.96875 10.3513 1.96875 11.1562C1.96875 11.6946 2.14819 12.2432 2.44556 12.7456C2.74292 13.248 3.19922 13.7812 3.9375 13.7812C4.05542 13.7812 4.19385 13.7402 4.3169 13.7197C4.81934 15.2065 5.71143 16.4883 6.78296 17.3958C7.96729 18.4058 9.28491 19.0312 10.5 19.0312C11.7151 19.0312 13.0327 18.4058 14.217 17.3958C15.2886 16.4883 16.1807 15.2065 16.678 13.7197C16.8062 13.7402 16.9446 13.7812 17.0625 13.7812C17.8008 13.7812 18.2571 13.248 18.5544 12.7456C18.8518 12.2432 19.0312 11.6946 19.0312 11.1562C19.0312 10.3513 18.4673 9.78223 17.7751 9.47974C17.8828 7.86987 17.5444 6.11645 16.4678 4.67578C15.2937 3.10181 13.2942 1.96875 10.5 1.96875ZM10.5 3.28125C12.9558 3.28125 14.4836 4.2041 15.4219 5.4602C16.355 6.71631 16.678 8.36719 16.4934 9.77197L16.4011 10.4692L17.1035 10.5154C17.4573 10.541 17.7188 10.8025 17.7188 11.1562C17.7188 11.3408 17.606 11.7766 17.4265 12.0791C17.2471 12.3816 17.0471 12.4688 17.0625 12.4688C16.9702 12.4688 16.7087 12.4329 16.4421 12.3662L15.832 12.2124L15.6526 12.8174C15.6526 12.8123 15.6372 12.8584 15.6064 12.9558V12.9609C15.2424 14.335 14.3708 15.5449 13.366 16.4011C12.3611 17.2522 11.2178 17.7188 10.5 17.7188C9.78223 17.7188 8.63892 17.2522 7.63403 16.4011C6.62915 15.5449 5.75757 14.335 5.39355 12.9609V12.9558C5.36279 12.8584 5.34741 12.8123 5.34741 12.8174L5.16797 12.2124L4.55786 12.3662C4.29126 12.4329 4.02979 12.4688 3.9375 12.4688C3.95288 12.4688 3.75293 12.3816 3.57349 12.0791C3.39404 11.7766 3.28125 11.3408 3.28125 11.1562C3.28125 10.8025 3.54272 10.541 3.89648 10.5154L4.59888 10.4692L4.50659 9.77197C4.32202 8.36719 4.64502 6.71631 5.57812 5.4602C6.51636 4.2041 8.04419 3.28125 10.5 3.28125ZM10.5923 5.91138C9.00293 5.99854 7.71094 7.33154 7.71094 8.95166H9.02344C9.02344 7.88525 9.94629 7.05469 11.0691 7.24951C11.8792 7.38794 12.5098 8.17749 12.4893 9.00293C12.4636 9.73608 12.0432 10.1975 11.4126 10.4692C11.0281 10.6436 10.6589 10.8076 10.3462 11.1357C10.0334 11.4639 9.86426 11.9509 9.86426 12.4688H11.1768C11.1768 12.1765 11.2126 12.1304 11.2947 12.0432C11.3767 11.9561 11.5869 11.833 11.9458 11.6741C12.925 11.2434 13.7607 10.3103 13.8018 9.04395C13.8428 7.552 12.7764 6.20874 11.2896 5.95239C11.0537 5.91138 10.823 5.90112 10.5923 5.91138ZM9.86426 13.7812V15.0938H11.1768V13.7812H9.86426Z" fill="#A2A3A9"/>
</svg>
