<svg width="20" height="21" viewBox="0 0 20 21" fill="none" xmlns="http://www.w3.org/2000/svg">
<g id="Media / Icon">
<path id="Icon" d="M4.16634 10.3031H4.17467M9.99967 10.3031H10.008M15.833 10.3031H15.8413M4.99967 10.3031C4.99967 10.7633 4.62658 11.1364 4.16634 11.1364C3.7061 11.1364 3.33301 10.7633 3.33301 10.3031C3.33301 9.84282 3.7061 9.46973 4.16634 9.46973C4.62658 9.46973 4.99967 9.84282 4.99967 10.3031ZM10.833 10.3031C10.833 10.7633 10.4599 11.1364 9.99967 11.1364C9.53944 11.1364 9.16634 10.7633 9.16634 10.3031C9.16634 9.84282 9.53944 9.46973 9.99967 9.46973C10.4599 9.46973 10.833 9.84282 10.833 10.3031ZM16.6663 10.3031C16.6663 10.7633 16.2932 11.1364 15.833 11.1364C15.3728 11.1364 14.9997 10.7633 14.9997 10.3031C14.9997 9.84282 15.3728 9.46973 15.833 9.46973C16.2932 9.46973 16.6663 9.84282 16.6663 10.3031Z" stroke="white" stroke-width="2" stroke-linecap="round" stroke-linejoin="round"/>
</g>
</svg>
