<svg width="24" height="24" viewBox="0 0 24 24" fill="none" xmlns="http://www.w3.org/2000/svg">
<path d="M22.9999 16.4V3.2C22.9999 2.61652 22.7681 2.05695 22.3555 1.64437C21.943 1.23179 21.3834 1 20.7999 1H7.5999C7.01643 1 6.45685 1.23179 6.04427 1.64437C5.63169 2.05695 5.3999 2.61652 5.3999 3.2V16.4C5.3999 16.9835 5.63169 17.5431 6.04427 17.9556C6.45685 18.3682 7.01643 18.6 7.5999 18.6H20.7999C21.3834 18.6 21.943 18.3682 22.3555 17.9556C22.7681 17.5431 22.9999 16.9835 22.9999 16.4ZM10.8999 12L11.4499 12.75L11.9999 13.5L13.1329 14.981L16.3999 10.9L20.7999 16.4L7.9999 16.4" fill="black"/>
<path d="M3.25 6C3.25 5.44772 2.80228 5 2.25 5H2C1.44772 5 1 5.44772 1 6V20.75C1 21.9875 2.0125 23 3.25 23H18C18.5523 23 19 22.5523 19 22V21.75C19 21.1977 18.5523 20.75 18 20.75H3.25V6Z" fill="black"/>
</svg>
