<svg width="24" height="24" viewBox="0 0 24 24" fill="none" xmlns="http://www.w3.org/2000/svg">
<path d="M21 17H7V3H21M21 1H7C6.46957 1 5.96086 1.21071 5.58579 1.58579C5.21071 1.96086 5 2.46957 5 3V17C5 17.5304 5.21071 18.0391 5.58579 18.4142C5.96086 18.7893 6.46957 19 7 19H21C21.5304 19 22.0391 18.7893 22.4142 18.4142C22.7893 18.0391 23 17.5304 23 17V3C23 2.46957 22.7893 1.96086 22.4142 1.58579C22.0391 1.21071 21.5304 1 21 1ZM16.3531 10.8131C16.1551 10.5496 15.7608 10.5464 15.5586 10.8067L13.5918 13.3385C13.3958 13.5909 13.0165 13.597 12.8123 13.3512L11.6471 11.9481C11.4431 11.7025 11.0643 11.7084 10.868 11.9603L9.1289 14.1927C8.87309 14.5211 9.10708 15 9.52334 15H18.4987C18.911 15 19.1461 14.5291 18.8984 14.1996L16.3531 10.8131Z" fill="black"/>
<path d="M3.25 6C3.25 5.44772 2.80228 5 2.25 5H2C1.44772 5 1 5.44772 1 6V20.75C1 21.9875 2.0125 23 3.25 23H18C18.5523 23 19 22.5523 19 22V21.75C19 21.1977 18.5523 20.75 18 20.75H3.25V6Z" fill="black"/>
</svg>
