<svg width="24" height="24" viewBox="0 0 24 24" fill="none" xmlns="http://www.w3.org/2000/svg">
<g clip-path="url(#clip0_6906_39977)">
<path fill-rule="evenodd" clip-rule="evenodd" d="M2.95032 4.94984C2.83108 5.25469 2.76562 5.5865 2.76562 5.9336V13.4003C2.76562 14.8924 3.9752 16.1019 5.46729 16.1019H8.36562V19.9336C8.36562 20.2713 8.56907 20.5758 8.88108 20.705C9.1931 20.8343 9.55225 20.7628 9.79106 20.524L14.1578 16.1573L12.9769 14.9764L10.0356 17.9177V15.2669C10.0356 14.8058 9.66178 14.4319 9.20062 14.4319H5.46729C4.89752 14.4319 4.43563 13.97 4.43563 13.4003V6.43514L2.95032 4.94984ZM12.0375 10.5015L11.1664 9.63039C11.1855 9.18619 11.5517 8.83193 12.0006 8.83193H12.01C12.4711 8.83193 12.845 9.20578 12.845 9.66693C12.845 10.1189 12.4859 10.487 12.0375 10.5015ZM15.968 14.4319H18.534C19.1037 14.4319 19.5656 13.97 19.5656 13.4003V5.9336C19.5656 5.36383 19.1037 4.90193 18.534 4.90193H6.43796L4.84093 3.30491C5.04196 3.25719 5.25167 3.23193 5.46729 3.23193H18.534C20.026 3.23193 21.2356 4.44151 21.2356 5.9336V13.4003C21.2356 14.8924 20.026 16.1019 18.534 16.1019H17.638L15.968 14.4319ZM7.45861 9.45812C7.44143 9.52486 7.43229 9.59483 7.43229 9.66693C7.43229 10.1281 7.80613 10.5019 8.26729 10.5019H8.27663C8.34605 10.5019 8.41349 10.4935 8.47798 10.4775L7.45861 9.45812ZM15.734 8.83193C15.2728 8.83193 14.899 9.20578 14.899 9.66693C14.899 10.1281 15.2728 10.5019 15.734 10.5019H15.7433C16.2044 10.5019 16.5783 10.1281 16.5783 9.66693C16.5783 9.20578 16.2044 8.83193 15.7433 8.83193H15.734Z" fill="white"/>
<line x1="2.41421" y1="2" x2="19" y2="18.5858" stroke="white" stroke-width="2" stroke-linecap="round"/>
</g>
<defs>
<clipPath id="clip0_6906_39977">
<rect width="24" height="24" fill="white"/>
</clipPath>
</defs>
</svg>
