<svg width="24" height="24" viewBox="0 0 24 24" fill="none" xmlns="http://www.w3.org/2000/svg">
<path d="M20.9368 13.0734C21.3433 12.8701 21.6001 12.4546 21.6001 12C21.6001 11.5455 21.3433 11.13 20.9368 10.9267L4.13675 2.52672C3.71111 2.3139 3.19993 2.37271 2.83373 2.67663C2.46754 2.98054 2.31553 3.47213 2.44627 3.9297L4.16055 9.92969C4.30774 10.4449 4.7786 10.8 5.31438 10.8L10.8001 10.8C11.4628 10.8 12.0001 11.3373 12.0001 12C12.0001 12.6628 11.4628 13.2 10.8001 13.2L5.31438 13.2C4.77861 13.2 4.30774 13.5552 4.16055 14.0704L2.44627 20.0704C2.31553 20.5279 2.46754 21.0195 2.83373 21.3234C3.19993 21.6274 3.71111 21.6862 4.13675 21.4734L20.9368 13.0734Z" fill="#030903"/>
</svg>
