<svg width="24" height="24" viewBox="0 0 24 24" fill="none" xmlns="http://www.w3.org/2000/svg">
<path d="M2.3999 3.60002C2.3999 2.93728 2.93716 2.40002 3.5999 2.40002H6.18335C6.76996 2.40002 7.27058 2.82412 7.36702 3.40275L8.2542 8.72579C8.3408 9.24543 8.07837 9.76079 7.60718 9.99638L5.74941 10.9253C7.08897 14.254 9.74592 16.911 13.0747 18.2505L14.0035 16.3927C14.2391 15.9216 14.7545 15.6591 15.2741 15.7457L20.5972 16.6329C21.1758 16.7293 21.5999 17.23 21.5999 17.8166V20.4C21.5999 21.0628 21.0626 21.6 20.3999 21.6H17.9999C9.38426 21.6 2.3999 14.6157 2.3999 6.00002V3.60002Z" fill="#030903"/>
</svg>
