<svg width="24" height="24" viewBox="0 0 24 24" fill="none" xmlns="http://www.w3.org/2000/svg">
<path fill-rule="evenodd" clip-rule="evenodd" d="M4.7999 3.59998C3.47442 3.59998 2.3999 4.67449 2.3999 5.99998V18C2.3999 19.3255 3.47442 20.4 4.7999 20.4H19.1999C20.5254 20.4 21.5999 19.3255 21.5999 18V5.99998C21.5999 4.67449 20.5254 3.59998 19.1999 3.59998H4.7999ZM18.4763 16.5528C18.8087 17.2177 18.3252 18 17.5819 18H6.41794C5.67455 18 5.19106 17.2177 5.52351 16.5528L8.70547 10.1888C9.074 9.45178 10.1258 9.45178 10.4943 10.1888L12.3055 13.8111C12.674 14.5482 13.7258 14.5482 14.0943 13.8111L14.7055 12.5888C15.074 11.8518 16.1258 11.8518 16.4943 12.5888L18.4763 16.5528Z" fill="#030903"/>
</svg>
