<svg width="24" height="24" viewBox="0 0 24 24" fill="none" xmlns="http://www.w3.org/2000/svg">
<g id="Property 1=Pin">
<path id="Vector" d="M14.2383 2.99997C14.0414 3.00306 13.8537 3.08344 13.7155 3.22376C13.5774 3.36407 13.5 3.55307 13.5 3.74997V6.43942L10.9395 8.99997H6.75C6.6017 9.00002 6.45674 9.04404 6.33345 9.12646C6.21015 9.20888 6.11406 9.326 6.05731 9.46301C6.00056 9.60003 5.9857 9.75079 6.01461 9.89625C6.04352 10.0417 6.1149 10.1753 6.21973 10.2802L9.43945 13.5L3.03223 19.9072L4.09277 20.9677L10.5 14.5605L13.7197 17.7802C13.8246 17.8851 13.9583 17.9564 14.1037 17.9854C14.2492 18.0143 14.3999 17.9994 14.537 17.9427C14.674 17.8859 14.7911 17.7898 14.8735 17.6665C14.9559 17.5432 14.9999 17.3983 15 17.25V13.2363L17.5752 10.5H20.25C20.3983 10.4999 20.5433 10.4559 20.6666 10.3735C20.7898 10.2911 20.8859 10.1739 20.9427 10.0369C20.9994 9.8999 21.0143 9.74914 20.9854 9.60368C20.9565 9.45822 20.8851 9.3246 20.7803 9.21969L14.7803 3.21969C14.7092 3.14864 14.6247 3.09257 14.5316 3.05483C14.4385 3.01708 14.3387 2.99843 14.2383 2.99997Z" fill="white"/>
</g>
</svg>
