<svg width="24" height="24" viewBox="0 0 24 24" fill="none" xmlns="http://www.w3.org/2000/svg">
<path d="M8.83941 2.42775C10.2869 0.980246 12.7282 1.3755 13.6439 3.20775L16.0252 7.97025C16.0913 8.10241 16.1828 8.22024 16.2945 8.31702C16.4062 8.41379 16.5359 8.4876 16.6762 8.53425L20.4119 9.77999C20.6545 9.8608 20.8725 10.0023 21.045 10.1911C21.2176 10.3798 21.339 10.6096 21.3978 10.8585C21.4566 11.1074 21.4507 11.3671 21.3808 11.6131C21.3109 11.8591 21.1793 12.0832 20.9984 12.264L17.8867 15.3757L22.232 19.7197C22.3728 19.8604 22.4519 20.0515 22.4519 20.2505V20.2505C22.4519 20.6647 22.1162 21.0007 21.702 21.0007V21.0007C21.5031 21.0007 21.3124 20.9217 21.1718 20.7811L16.8269 16.4362L13.7152 19.548C13.5343 19.7287 13.3103 19.8602 13.0644 19.93C12.8185 19.9998 12.5589 20.0056 12.3101 19.9468C12.0613 19.888 11.8317 19.7667 11.643 19.5942C11.4543 19.4218 11.3128 19.204 11.2319 18.9615L9.98615 15.2242C9.89179 14.9413 9.68892 14.7074 9.42216 14.574L4.6589 12.1927C2.8274 11.2762 2.4314 8.83575 3.8789 7.3875L8.83941 2.42775ZM12.3022 3.8775C12.1959 3.66491 12.0406 3.48062 11.8491 3.33981C11.6576 3.19901 11.4355 3.10572 11.2009 3.06763C10.9662 3.02954 10.726 3.04775 10.4998 3.12075C10.2736 3.19375 10.068 3.31945 9.8999 3.4875L4.9394 8.448C4.77136 8.61607 4.64565 8.82167 4.57265 9.04786C4.49966 9.27404 4.48145 9.51434 4.51954 9.74894C4.55762 9.98355 4.65092 10.2057 4.79172 10.3972C4.93253 10.5887 5.11682 10.744 5.3294 10.8502L10.0927 13.2315C10.401 13.3857 10.6759 13.5991 10.9018 13.8596C11.1276 14.12 11.2999 14.4224 11.4089 14.7495L12.6547 18.486L19.9387 11.2027L16.2014 9.957C15.8743 9.84802 15.5719 9.6757 15.3115 9.44985C15.051 9.22401 14.8376 8.94907 14.6834 8.64075L12.3022 3.8775Z" fill="black"/>
</svg>
