<svg width="24" height="24" viewBox="0 0 24 24" fill="none" xmlns="http://www.w3.org/2000/svg">
<path d="M16.6125 2.42775C15.165 0.980246 12.7238 1.3755 11.808 3.20775L9.42675 7.97025C9.3606 8.10241 9.26907 8.22024 9.15736 8.31702C9.04566 8.41379 8.91599 8.4876 8.77575 8.53425L5.04 9.77999C4.79736 9.8608 4.57941 10.0023 4.40686 10.1911C4.23431 10.3798 4.11288 10.6096 4.05411 10.8585C3.99534 11.1074 4.00119 11.3671 4.07109 11.6131C4.14099 11.8591 4.27263 12.0832 4.4535 12.264L7.56525 15.3757L3.21986 19.7197C3.07909 19.8604 3 20.0515 3 20.2505V20.2505C3 20.6647 3.33574 21.0007 3.74989 21.0007V21.0007C3.94877 21.0007 4.13951 20.9217 4.28014 20.7811L8.625 16.4362L11.7367 19.548C11.9176 19.7287 12.1416 19.8602 12.3875 19.93C12.6334 19.9998 12.893 20.0056 13.1418 19.9468C13.3906 19.888 13.6202 19.7667 13.8089 19.5942C13.9976 19.4218 14.1391 19.204 14.22 18.9615L15.4657 15.2242C15.5601 14.9413 15.763 14.7074 16.0297 14.574L20.793 12.1927C22.6245 11.2762 23.0205 8.83575 21.573 7.3875L16.6125 2.42775ZM13.1498 3.8775C13.256 3.66491 13.4113 3.48062 13.6028 3.33981C13.7943 3.19901 14.0165 3.10572 14.2511 3.06763C14.4857 3.02954 14.726 3.04775 14.9521 3.12075C15.1783 3.19375 15.3839 3.31945 15.552 3.4875L20.5125 8.448C20.6805 8.61607 20.8063 8.82167 20.8792 9.04786C20.9522 9.27404 20.9705 9.51434 20.9324 9.74894C20.8943 9.98355 20.801 10.2057 20.6602 10.3972C20.5194 10.5887 20.3351 10.744 20.1225 10.8502L15.3593 13.2315C15.0509 13.3857 14.776 13.5991 14.5501 13.8596C14.3243 14.12 14.152 14.4224 14.043 14.7495L12.7972 18.486L5.51325 11.2027L9.2505 9.957C9.57756 9.84802 9.87996 9.6757 10.1404 9.44985C10.4009 9.22401 10.6143 8.94907 10.7685 8.64075L13.1498 3.8775Z" fill="black"/>
</svg>
