<svg width="24" height="24" viewBox="0 0 24 24" fill="none" xmlns="http://www.w3.org/2000/svg">
<path d="M13.6439 3.20697C12.7282 1.37547 10.2869 0.979472 8.83941 2.42697L3.8789 7.38747C2.4314 8.83497 2.8274 11.277 4.6589 12.192L9.4214 14.574C9.55363 14.64 9.67157 14.7313 9.76847 14.8429C9.86537 14.9545 9.93934 15.0841 9.98615 15.2242L11.2312 18.9615C11.312 19.2041 11.4535 19.4221 11.6422 19.5946C11.831 19.7672 12.0607 19.8886 12.3096 19.9474C12.5585 20.0061 12.8183 20.0003 13.0643 19.9304C13.3103 19.8605 13.5344 19.7288 13.7152 19.548L16.8269 16.4355L21.1718 20.781C21.3124 20.9217 21.5031 21.0007 21.702 21.0007V21.0007C22.1162 21.0007 22.4519 20.6646 22.4519 20.2505V20.2505C22.4519 20.0514 22.3728 19.8604 22.2321 19.7197L17.8874 15.3757L20.9992 12.2632C21.1797 12.0824 21.311 11.8585 21.3807 11.6126C21.4504 11.3668 21.4561 11.1073 21.3974 10.8586C21.3386 10.6099 21.2173 10.3804 21.045 10.1918C20.8727 10.0031 20.655 9.86165 20.4127 9.78072L16.6762 8.53422C16.5359 8.48758 16.4062 8.41377 16.2945 8.31699C16.1828 8.22022 16.0913 8.10238 16.0252 7.97022L13.6439 3.20697Z" fill="black"/>
</svg>
