<svg width="20" height="21" viewBox="0 0 20 21" fill="none" xmlns="http://www.w3.org/2000/svg">
<path d="M12.425 0.750095C12.2118 0.753449 12.0084 0.840527 11.8587 0.992536C11.7091 1.14455 11.6252 1.34929 11.6252 1.5626V4.47617L8.85132 7.2501H4.31274C4.15208 7.25016 3.99504 7.29785 3.86148 7.38713C3.72791 7.47642 3.62381 7.6033 3.56233 7.75173C3.50085 7.90017 3.48475 8.06349 3.51607 8.22107C3.54739 8.37865 3.62472 8.52341 3.73828 8.63706L7.22632 12.1251L0.285156 19.0663L1.43408 20.2152L8.37524 13.274L11.8633 16.7621C11.9769 16.8756 12.1217 16.953 12.2793 16.9843C12.4368 17.0156 12.6002 16.9995 12.7486 16.938C12.897 16.8765 13.0239 16.7724 13.1132 16.6389C13.2025 16.5053 13.2502 16.3483 13.2502 16.1876V11.8395L16.04 8.8751H18.9377C19.0984 8.87503 19.2554 8.82734 19.389 8.73806C19.5226 8.64877 19.6267 8.52189 19.6882 8.37346C19.7496 8.22503 19.7657 8.0617 19.7344 7.90412C19.7031 7.74654 19.6258 7.60178 19.5122 7.48813L13.0122 0.988132C12.9353 0.911156 12.8436 0.85042 12.7428 0.80953C12.6419 0.76864 12.5339 0.748429 12.425 0.750095Z" fill="white"/>
</svg>
