<svg width="24" height="24" viewBox="0 0 24 24" fill="none" xmlns="http://www.w3.org/2000/svg">
<path d="M8.6175 4.59598C8.50336 4.53182 8.37441 4.49866 8.24347 4.4998C8.11254 4.50094 7.98419 4.53634 7.87118 4.60247C7.75817 4.66861 7.66445 4.76318 7.59933 4.87678C7.53421 4.99037 7.49996 5.11904 7.5 5.24998V18.75C7.49996 18.8809 7.53421 19.0096 7.59933 19.1232C7.66445 19.2368 7.75817 19.3313 7.87118 19.3975C7.98419 19.4636 8.11254 19.499 8.24347 19.5002C8.37441 19.5013 8.50336 19.4681 8.6175 19.404L20.6175 12.654C20.7333 12.5887 20.8296 12.4938 20.8967 12.379C20.9637 12.2642 20.999 12.1337 20.999 12.0007C20.999 11.8678 20.9637 11.7373 20.8967 11.6225C20.8296 11.5077 20.7333 11.4128 20.6175 11.3475L8.6175 4.59748V4.59598ZM6 5.24998C6.00015 4.85729 6.10308 4.47148 6.29854 4.1309C6.494 3.79031 6.7752 3.50681 7.11418 3.30858C7.45316 3.11035 7.83812 3.00429 8.2308 3.00094C8.62347 2.99759 9.01019 3.09706 9.3525 3.28948L21.3525 10.0395C21.7006 10.2352 21.9903 10.52 22.1919 10.8646C22.3935 11.2093 22.4998 11.6014 22.4998 12.0007C22.4998 12.4 22.3935 12.7921 22.1919 13.1368C21.9903 13.4815 21.7006 13.7663 21.3525 13.962L9.3525 20.712C9.01007 20.9045 8.62322 21.0039 8.23042 21.0005C7.83762 20.9971 7.45256 20.8909 7.11354 20.6925C6.77451 20.4941 6.49334 20.2104 6.29798 19.8696C6.10262 19.5288 5.99989 19.1428 6 18.75V5.24998Z" fill="black"/>
</svg>
