<svg width="25" height="24" viewBox="0 0 25 24" fill="none" xmlns="http://www.w3.org/2000/svg">
<path fill-rule="evenodd" clip-rule="evenodd" d="M12.1999 21.6C17.5018 21.6 21.7999 17.302 21.7999 12C21.7999 6.69809 17.5018 2.40002 12.1999 2.40002C6.89792 2.40002 2.59985 6.69809 2.59985 12C2.59985 17.302 6.89792 21.6 12.1999 21.6ZM11.6655 8.60157C11.2973 8.35608 10.8238 8.33319 10.4336 8.54202C10.0434 8.75084 9.79985 9.15747 9.79985 9.60003V14.4C9.79985 14.8426 10.0434 15.2492 10.4336 15.458C10.8238 15.6669 11.2973 15.644 11.6655 15.3985L15.2655 12.9985C15.5993 12.7759 15.7999 12.4012 15.7999 12C15.7999 11.5988 15.5993 11.2241 15.2655 11.0016L11.6655 8.60157Z" fill="#030903"/>
</svg>
