<svg width="24" height="24" viewBox="0 0 24 24" fill="none" xmlns="http://www.w3.org/2000/svg">
<path d="M9.3525 3.28801C9.01019 3.0956 8.62347 2.99612 8.2308 2.99947C7.83812 3.00282 7.45316 3.10889 7.11418 3.30712C6.7752 3.50535 6.494 3.78885 6.29854 4.12943C6.10308 4.47002 6.00015 4.85583 6 5.24851V18.7485C5.99989 19.1413 6.10262 19.5273 6.29798 19.8681C6.49334 20.2089 6.77451 20.4926 7.11354 20.691C7.45256 20.8894 7.83762 20.9956 8.23042 20.9991C8.62322 21.0025 9.01007 20.903 9.3525 20.7105L21.3525 13.9605C21.7006 13.7648 21.9903 13.48 22.1919 13.1353C22.3935 12.7907 22.4998 12.3986 22.4998 11.9993C22.4998 11.6 22.3935 11.2078 22.1919 10.8632C21.9903 10.5185 21.7006 10.2337 21.3525 10.038L9.3525 3.28801V3.28801Z" fill="black"/>
</svg>
