<svg width="25" height="24" viewBox="0 0 25 24" fill="none" xmlns="http://www.w3.org/2000/svg">
<path fill-rule="evenodd" clip-rule="evenodd" d="M12.5998 21.6C17.9017 21.6 22.1998 17.302 22.1998 12C22.1998 6.69809 17.9017 2.40002 12.5998 2.40002C7.29782 2.40002 2.99976 6.69809 2.99976 12C2.99976 17.302 7.29782 21.6 12.5998 21.6ZM13.7998 8.40002C13.7998 7.73728 13.2625 7.20002 12.5998 7.20002C11.937 7.20002 11.3998 7.73728 11.3998 8.40002V10.8H8.99976C8.33701 10.8 7.79976 11.3373 7.79976 12C7.79976 12.6628 8.33701 13.2 8.99976 13.2H11.3998V15.6C11.3998 16.2628 11.937 16.8 12.5998 16.8C13.2625 16.8 13.7998 16.2628 13.7998 15.6V13.2H16.1998C16.8625 13.2 17.3998 12.6628 17.3998 12C17.3998 11.3373 16.8625 10.8 16.1998 10.8H13.7998V8.40002Z" fill="#030903"/>
</svg>
