<svg width="24" height="24" viewBox="0 0 24 24" fill="none" xmlns="http://www.w3.org/2000/svg">
<path fill-rule="evenodd" clip-rule="evenodd" d="M12.0001 3.59998C12.6628 3.59998 13.2001 4.13723 13.2001 4.79998V10.8H19.2001C19.8628 10.8 20.4001 11.3372 20.4001 12C20.4001 12.6627 19.8628 13.2 19.2001 13.2H13.2001V19.2C13.2001 19.8627 12.6628 20.4 12.0001 20.4C11.3374 20.4 10.8001 19.8627 10.8001 19.2V13.2H4.8001C4.13736 13.2 3.6001 12.6627 3.6001 12C3.6001 11.3372 4.13736 10.8 4.8001 10.8L10.8001 10.8V4.79998C10.8001 4.13723 11.3374 3.59998 12.0001 3.59998Z" fill="#030903"/>
</svg>
