<svg width="25" height="24" viewBox="0 0 25 24" fill="none" xmlns="http://www.w3.org/2000/svg">
<path fill-rule="evenodd" clip-rule="evenodd" d="M11.2817 17.7321C10.3422 17.7321 9.61743 18.4323 9.61743 19.366C9.61743 20.2738 10.3422 21 11.2817 21C12.2212 21 12.9729 20.2997 12.9729 19.366C12.946 18.4323 12.2212 17.7321 11.2817 17.7321Z" fill="#010101"/>
<path d="M17.59 7.92813C17.59 9.92522 16.5699 11.3258 14.8519 12.3373C13.4024 13.1673 12.8387 13.7897 12.7044 14.8012C12.5971 15.6312 12.1676 16.0202 11.5502 16.124C11.2817 16.1499 10.9865 16.124 10.7449 16.0202C9.99326 15.6831 9.96641 14.9828 9.96641 14.7753C9.96641 13.1413 10.7986 12.052 12.4897 11.0664C14.0735 10.1327 14.8519 9.40649 14.8519 8.08374C14.8519 6.63131 13.4829 5.43824 11.6844 5.54199C10.208 5.64573 9.2148 6.24227 8.7853 7.35753C8.4095 8.29123 7.52366 8.42091 6.90626 8.21342C6.39624 8.0578 5.85937 7.38346 6.47677 5.98291C7.14785 4.34892 9.00005 3.00023 11.8723 3.00023C15.3351 2.97429 17.59 5.17888 17.59 7.92813Z" fill="#010101"/>
</svg>
