<svg width="25" height="24" viewBox="0 0 25 24" fill="none" xmlns="http://www.w3.org/2000/svg">
<path d="M16.33 8.64264C16.33 10.3085 15.3786 11.1081 14.4488 11.8188C13.3461 12.6629 12.9352 12.9516 12.9136 14.0178C12.9136 14.573 12.5244 14.9506 11.9406 14.9284C10.9244 14.9284 10.946 13.9067 10.9244 13.9511C10.8595 12.5074 11.6595 11.6189 12.6758 10.8638C13.5623 10.1752 14.2758 9.70878 14.2758 8.73149C14.2758 7.44324 13.1947 6.93237 12.1568 6.93237C11.0325 6.93237 10.3838 7.50986 10.1892 8.39831C10.0378 9.06465 9.5189 9.35339 9.08645 9.26455C7.98371 9.06465 8.22155 7.9763 8.22155 7.9763C8.63238 5.84402 10.5135 5 12.2649 5C14.4056 5 16.33 6.31046 16.33 8.64264Z" fill="black"/>
<path d="M12.0486 18.46C12.7054 18.46 13.2378 17.9131 13.2378 17.2384C13.2378 16.5637 12.7054 16.0168 12.0486 16.0168C11.3918 16.0168 10.8594 16.5637 10.8594 17.2384C10.8594 17.9131 11.3918 18.46 12.0486 18.46Z" fill="#010101"/>
</svg>
