<svg width="25" height="24" viewBox="0 0 25 24" fill="none" xmlns="http://www.w3.org/2000/svg">
<path fill-rule="evenodd" clip-rule="evenodd" d="M21.9998 12C21.9998 17.302 17.7017 21.6 12.3998 21.6C7.09787 21.6 2.7998 17.302 2.7998 12C2.7998 6.69809 7.09787 2.40002 12.3998 2.40002C17.7017 2.40002 21.9998 6.69809 21.9998 12ZM12.3998 8.40002C11.9572 8.40002 11.5689 8.63908 11.3596 9.00089C11.0278 9.57457 10.2937 9.7706 9.72003 9.43875C9.14635 9.1069 8.95032 8.37283 9.28217 7.79915C9.90282 6.72624 11.0658 6.00002 12.3998 6.00002C14.388 6.00002 15.9998 7.6118 15.9998 9.60002C15.9998 11.1675 14.9981 12.501 13.5998 12.9952V13.2C13.5998 13.8628 13.0626 14.4 12.3998 14.4C11.7371 14.4 11.1998 13.8628 11.1998 13.2V12C11.1998 11.3373 11.7371 10.8 12.3998 10.8C13.0626 10.8 13.5998 10.2628 13.5998 9.60002C13.5998 8.93728 13.0626 8.40002 12.3998 8.40002ZM12.3998 18C13.0625 18 13.5998 17.4628 13.5998 16.8C13.5998 16.1373 13.0625 15.6 12.3998 15.6C11.7371 15.6 11.1998 16.1373 11.1998 16.8C11.1998 17.4628 11.7371 18 12.3998 18Z" fill="#030903"/>
</svg>
