<svg width="25" height="24" viewBox="0 0 25 24" fill="none" xmlns="http://www.w3.org/2000/svg">
<path fill-rule="evenodd" clip-rule="evenodd" d="M5.60015 2.40002C6.26289 2.40002 6.80015 2.93728 6.80015 3.60002V6.12153C8.32426 4.56589 10.4488 3.60002 12.8001 3.60002C16.4594 3.60002 19.5693 5.93921 20.7219 9.20013C20.9427 9.82499 20.6152 10.5106 19.9903 10.7314C19.3655 10.9523 18.6799 10.6248 18.459 9.99992C17.6348 7.66792 15.4107 6.00002 12.8001 6.00002C10.8382 6.00002 9.09459 6.94205 7.99937 8.40002H11.6001C12.2629 8.40002 12.8001 8.93728 12.8001 9.60002C12.8001 10.2628 12.2629 10.8 11.6001 10.8H5.60015C4.9374 10.8 4.40015 10.2628 4.40015 9.60002V3.60002C4.40015 2.93728 4.9374 2.40002 5.60015 2.40002ZM5.60995 13.2686C6.2348 13.0478 6.92039 13.3753 7.14125 14.0001C7.96549 16.3321 10.1896 18 12.8001 18C14.7621 18 16.5057 17.058 17.6009 15.6L14.0001 15.6C13.3374 15.6 12.8001 15.0628 12.8001 14.4C12.8001 13.7373 13.3374 13.2 14.0001 13.2H20.0001C20.3184 13.2 20.6236 13.3265 20.8487 13.5515C21.0737 13.7765 21.2001 14.0818 21.2001 14.4V20.4C21.2001 21.0628 20.6629 21.6 20.0001 21.6C19.3374 21.6 18.8001 21.0628 18.8001 20.4V17.8785C17.276 19.4342 15.1515 20.4 12.8001 20.4C9.14086 20.4 6.031 18.0608 4.87843 14.7999C4.65758 14.1751 4.98509 13.4895 5.60995 13.2686Z" fill="#030903"/>
</svg>
