<svg width="24" height="24" viewBox="0 0 24 24" fill="none" xmlns="http://www.w3.org/2000/svg">
<path d="M6.45649 19.985C6.42794 20.0172 6.41104 20.058 6.40849 20.101C6.40849 20.159 6.46349 20.199 6.53249 20.199C7.58345 19.9057 8.55822 19.3877 9.38949 18.681C9.4585 18.6296 9.53884 18.5955 9.62375 18.5816C9.70866 18.5676 9.79568 18.5743 9.87749 18.601C10.575 18.7523 11.2867 18.8284 12.0005 18.828C16.5975 18.828 20.3235 15.752 20.3235 11.955C20.3235 8.16096 16.5975 5.08496 12.0005 5.08496C7.40349 5.08496 3.67749 8.16096 3.67749 11.955C3.71444 13.0891 4.04468 14.1943 4.636 15.1628C5.22732 16.1312 6.05954 16.9299 7.05149 17.481C7.13126 17.5247 7.19884 17.5877 7.24809 17.6642C7.29734 17.7407 7.32669 17.8282 7.33349 17.919C7.21357 18.6687 6.91253 19.3779 6.45649 19.985V19.985Z" fill="black"/>
<path d="M17.4619 13.8689C17.4614 13.7634 17.4191 13.6623 17.3444 13.5877C17.2697 13.5132 17.1685 13.4712 17.0629 13.4709C16.9658 13.4709 16.872 13.5069 16.7999 13.5719C15.4575 14.6979 13.7558 15.305 12.0039 15.2829H11.9959C10.2485 15.2795 8.55534 14.6758 7.19991 13.5729C7.1205 13.5155 7.02586 13.4828 6.92791 13.4789C6.87292 13.4808 6.81888 13.4938 6.76909 13.5172C6.71929 13.5406 6.67479 13.5739 6.6383 13.6151C6.6018 13.6563 6.57408 13.7044 6.55682 13.7567C6.53956 13.8089 6.53313 13.8641 6.53791 13.9189C6.56554 14.098 6.64477 14.2652 6.76591 14.3999C7.38948 15.1768 8.18464 15.7986 9.08896 16.2164C9.99329 16.6342 10.9822 16.8367 11.9779 16.8079H12.0219C13.0177 16.8367 14.0065 16.6342 14.9109 16.2164C15.8152 15.7986 16.6103 15.1768 17.2339 14.3999C17.3563 14.2467 17.4351 14.0632 17.4619 13.8689" fill="white"/>
<path d="M6.456 19.985C6.42745 20.0172 6.41055 20.058 6.408 20.101C6.408 20.159 6.463 20.199 6.532 20.199C7.58296 19.9057 8.55774 19.3877 9.389 18.681C9.45802 18.6296 9.53835 18.5955 9.62326 18.5816C9.70818 18.5677 9.79519 18.5743 9.877 18.601C10.5745 18.7523 11.2863 18.8284 12 18.828C16.597 18.828 20.323 15.752 20.323 11.955C20.323 8.16096 16.597 5.08496 12 5.08496C7.403 5.08496 3.677 8.16096 3.677 11.955C3.71395 13.0891 4.04419 14.1943 4.63552 15.1628C5.22684 16.1312 6.05905 16.9299 7.051 17.481C7.13077 17.5247 7.19836 17.5877 7.2476 17.6642C7.29685 17.7407 7.32621 17.8282 7.333 17.919C7.21308 18.6687 6.91204 19.3779 6.456 19.985V19.985ZM3.78 20.824C4.57053 20.3828 5.17024 19.6652 5.464 18.809C5.49478 18.7313 5.49828 18.6455 5.47394 18.5655C5.4496 18.4856 5.39885 18.4163 5.33 18.369C4.3169 17.6268 3.48917 16.6604 2.9115 15.5453C2.33382 14.4302 2.02186 13.1966 2 11.941C2 7.17596 6.477 3.31396 12 3.31396C17.523 3.31396 22 7.17596 22 11.941C22 16.708 17.523 20.571 12 20.571C11.2943 20.5713 10.59 20.507 9.896 20.379C9.75387 20.3509 9.60638 20.3784 9.484 20.456C7.91276 21.4054 6.12471 21.9369 4.29 22C4.19046 22.0135 4.08916 22.0056 3.99293 21.9767C3.8967 21.9479 3.80778 21.8987 3.73216 21.8326C3.65654 21.7664 3.59598 21.6848 3.55455 21.5933C3.51312 21.5018 3.49179 21.4024 3.492 21.302C3.49193 21.2036 3.51871 21.1071 3.56947 21.0229C3.62022 20.9386 3.69302 20.8699 3.78 20.824V20.824Z" fill="black"/>
</svg>
