<svg width="24" height="24" viewBox="0 0 24 24" fill="none" xmlns="http://www.w3.org/2000/svg">
<path d="M6.198 17.292C6.198 17.292 6.121 17.237 5.998 17.143C4.155 15.718 3 13.653 3 11.354C3 7.06803 7.03 3.59003 11.998 3.59003C16.968 3.59003 21 7.06803 21 11.354C21 15.642 16.97 19 12 19C11.576 19 10.88 18.972 9.912 18.916C8.65 19.736 6.808 20.409 5.196 20.409C4.697 20.409 4.462 19.999 4.782 19.581C5.268 18.985 5.938 18.03 6.198 17.291V17.292Z" stroke="black" stroke-width="2" stroke-linecap="round" stroke-linejoin="round"/>
<path d="M7.5 13.5C10 16 14 16 16.5 13.5" stroke="black" stroke-width="2" stroke-linecap="round" stroke-linejoin="round"/>
</svg>
