<svg width="24" height="24" viewBox="0 0 24 24" fill="none" xmlns="http://www.w3.org/2000/svg">
<path d="M9.24843 12.3514C8.7798 11.8828 8.02 11.8828 7.55137 12.3514C7.08274 12.8201 7.08274 13.5799 7.55137 14.0485L11.1514 17.6485C11.62 18.1171 12.3798 18.1171 12.8484 17.6485L16.4484 14.0485C16.9171 13.5799 16.9171 12.8201 16.4484 12.3514C15.9798 11.8828 15.22 11.8828 14.7514 12.3514L13.1999 13.9029L13.1999 7.19998H19.1999C20.5254 7.19998 21.5999 8.27449 21.5999 9.59998V18C21.5999 19.3255 20.5254 20.4 19.1999 20.4H4.7999C3.47442 20.4 2.3999 19.3255 2.3999 18V9.59998C2.3999 8.27449 3.47442 7.19998 4.7999 7.19998H10.7999L10.7999 13.9029L9.24843 12.3514Z" fill="#030903"/>
<path d="M10.7999 4.79998C10.7999 4.13723 11.3372 3.59998 11.9999 3.59998C12.6626 3.59998 13.1999 4.13723 13.1999 4.79998L13.1999 7.19998H10.7999L10.7999 4.79998Z" fill="#030903"/>
</svg>
