<svg width="24" height="24" viewBox="0 0 24 24" fill="none" xmlns="http://www.w3.org/2000/svg">
<path d="M17.9999 9.60002C19.9881 9.60002 21.5999 7.98825 21.5999 6.00002C21.5999 4.0118 19.9881 2.40002 17.9999 2.40002C16.0117 2.40002 14.3999 4.0118 14.3999 6.00002C14.3999 6.15061 14.4091 6.29903 14.4271 6.44475L8.49901 9.4088C7.85154 8.7842 6.97059 8.40002 5.9999 8.40002C4.01168 8.40002 2.3999 10.0118 2.3999 12C2.3999 13.9882 4.01168 15.6 5.9999 15.6C6.97061 15.6 7.85158 15.2158 8.49906 14.5912L14.4271 17.5552C14.4091 17.701 14.3999 17.8494 14.3999 18C14.3999 19.9882 16.0117 21.6 17.9999 21.6C19.9881 21.6 21.5999 19.9882 21.5999 18C21.5999 16.0118 19.9881 14.4 17.9999 14.4C17.0292 14.4 16.1483 14.7842 15.5008 15.4088L9.5727 12.4448C9.59066 12.299 9.5999 12.1506 9.5999 12C9.5999 11.8494 9.59065 11.701 9.5727 11.5552L15.5007 8.59121C16.1482 9.21583 17.0292 9.60002 17.9999 9.60002Z" fill="#030903"/>
</svg>
