<svg width="24" height="24" viewBox="0 0 24 24" fill="none" xmlns="http://www.w3.org/2000/svg">
<path fill-rule="evenodd" clip-rule="evenodd" d="M5.9999 2.40002C6.66264 2.40002 7.1999 2.93728 7.1999 3.60002V4.80002H8.3999C9.06264 4.80002 9.5999 5.33728 9.5999 6.00002C9.5999 6.66277 9.06264 7.20002 8.3999 7.20002H7.1999V8.40002C7.1999 9.06277 6.66264 9.60002 5.9999 9.60002C5.33716 9.60002 4.7999 9.06277 4.7999 8.40002V7.20002H3.5999C2.93716 7.20002 2.3999 6.66277 2.3999 6.00002C2.3999 5.33728 2.93716 4.80002 3.5999 4.80002H4.7999V3.60002C4.7999 2.93728 5.33716 2.40002 5.9999 2.40002ZM5.9999 14.4C6.66264 14.4 7.1999 14.9373 7.1999 15.6V16.8H8.3999C9.06264 16.8 9.5999 17.3373 9.5999 18C9.5999 18.6628 9.06264 19.2 8.3999 19.2H7.1999V20.4C7.1999 21.0628 6.66264 21.6 5.9999 21.6C5.33716 21.6 4.7999 21.0628 4.7999 20.4V19.2H3.5999C2.93716 19.2 2.3999 18.6628 2.3999 18C2.3999 17.3373 2.93716 16.8 3.5999 16.8H4.7999V15.6C4.7999 14.9373 5.33716 14.4 5.9999 14.4Z" fill="#030903"/>
<path fill-rule="evenodd" clip-rule="evenodd" d="M14.3998 2.40002C14.9443 2.40002 15.4206 2.7666 15.5599 3.29295L16.9749 8.63874L20.9995 10.9606C21.371 11.1749 21.5998 11.5712 21.5998 12C21.5998 12.4289 21.371 12.8251 20.9995 13.0394L16.9749 15.3613L15.5599 20.7071C15.4206 21.2334 14.9443 21.6 14.3998 21.6C13.8554 21.6 13.3791 21.2334 13.2398 20.7071L11.8247 15.3613L7.80023 13.0394C7.42876 12.8251 7.1999 12.4289 7.1999 12C7.1999 11.5712 7.42876 11.1749 7.80023 10.9606L11.8247 8.63874L13.2398 3.29295C13.3791 2.7666 13.8554 2.40002 14.3998 2.40002Z" fill="#030903"/>
</svg>
