<svg width="8" height="13" viewBox="0 0 8 13" fill="none" xmlns="http://www.w3.org/2000/svg">
<path opacity="0.45" d="M3.22587 0.88768C3.27194 0.752935 3.46251 0.752935 3.50859 0.88768L3.88072 1.97596C4.11496 2.66101 4.65304 3.19909 5.33808 3.43333L6.42637 3.80546C6.56111 3.85153 6.56111 4.0421 6.42637 4.08818L5.33808 4.46031C4.65304 4.69455 4.11496 5.23263 3.88072 5.91767L3.50859 7.00596C3.46251 7.1407 3.27194 7.1407 3.22587 7.00596L2.85374 5.91767C2.6195 5.23263 2.08142 4.69455 1.39637 4.46031L0.30809 4.08818C0.173345 4.0421 0.173345 3.85153 0.308091 3.80546L1.39637 3.43333C2.08142 3.19909 2.6195 2.66101 2.85374 1.97596L3.22587 0.88768Z" fill="black"/>
<path opacity="0.35" d="M5.8113 7.18778C5.83895 7.07998 5.95329 7.07998 5.98093 7.18778L6.20421 8.05841C6.34476 8.60644 6.66761 9.03691 7.07863 9.2243L7.7316 9.522C7.81245 9.55886 7.81245 9.71132 7.7316 9.74818L7.07863 10.0459C6.6676 10.2333 6.34476 10.6637 6.20421 11.2118L5.98093 12.0824C5.95329 12.1902 5.83895 12.1902 5.8113 12.0824L5.58803 11.2118C5.44748 10.6637 5.12463 10.2333 4.7136 10.0459L4.06064 9.74818C3.97979 9.71132 3.97979 9.55886 4.06064 9.522L4.71361 9.2243C5.12463 9.03691 5.44748 8.60644 5.58803 8.05841L5.8113 7.18778Z" fill="black"/>
</svg>
