<svg width="63" height="62" viewBox="0 0 63 62" fill="none" xmlns="http://www.w3.org/2000/svg">
<path d="M30.091 0.991341C30.5502 -0.330448 32.4498 -0.330447 32.909 0.991342L36.6183 11.6669C38.9532 18.3868 44.3166 23.6651 51.145 25.9629L61.9927 29.6133C63.3358 30.0653 63.3358 31.9347 61.9927 32.3867L51.145 36.0371C44.3166 38.3349 38.9532 43.6132 36.6183 50.3331L32.909 61.0087C32.4498 62.3305 30.5502 62.3305 30.091 61.0087L26.3817 50.3331C24.0468 43.6132 18.6834 38.3349 11.855 36.0371L1.00733 32.3867C-0.335778 31.9347 -0.335776 30.0653 1.00733 29.6133L11.855 25.9629C18.6834 23.6651 24.0468 18.3868 26.3817 11.6669L30.091 0.991341Z" fill="#FFF2D8"/>
</svg>
