<svg width="41" height="41" viewBox="0 0 41 41" fill="none" xmlns="http://www.w3.org/2000/svg">
<path d="M19.583 0.655564C19.8819 -0.218522 21.1181 -0.218521 21.417 0.655565L23.831 7.71519C25.3505 12.159 28.841 15.6495 33.2848 17.169L40.3444 19.583C41.2185 19.8819 41.2185 21.1181 40.3444 21.417L33.2848 23.831C28.841 25.3505 25.3505 28.841 23.831 33.2848L21.417 40.3444C21.1181 41.2185 19.8819 41.2185 19.583 40.3444L17.169 33.2848C15.6495 28.841 12.159 25.3505 7.71518 23.831L0.655565 21.417C-0.218522 21.1181 -0.218521 19.8819 0.655565 19.583L7.71519 17.169C12.159 15.6495 15.6495 12.159 17.169 7.71518L19.583 0.655564Z" fill="#FFF2D8"/>
</svg>
