<svg width="39" height="39" viewBox="0 0 39 39" fill="none" xmlns="http://www.w3.org/2000/svg">
<path d="M30.1234 24.2432C29.7812 23.2028 28.3094 23.2028 27.9672 24.2432L27.0509 27.0294L24.2647 27.9458C23.2243 28.2879 23.2243 29.7597 24.2647 30.1019L27.0509 31.0182L27.9672 33.8044C28.3094 34.8449 29.7812 34.8449 30.1234 33.8044L31.0397 31.0182L33.8259 30.1019C34.8664 29.7597 34.8664 28.2879 33.8259 27.9458L31.0397 27.0294L30.1234 24.2432Z" fill="#00A84E"/>
<path opacity="0.8" d="M32.7462 5.21336C32.3695 4.14764 30.7492 4.14763 30.3726 5.21336L29.3638 8.06726L26.2965 9.00588C25.1512 9.35635 25.1512 10.8639 26.2965 11.2144L29.3638 12.153L30.3726 15.007C30.7492 16.0727 32.3695 16.0727 32.7462 15.007L33.755 12.153L36.8222 11.2144C37.9676 10.8639 37.9676 9.35635 36.8222 9.00588L33.755 8.06726L32.7462 5.21336Z" fill="#00A84E"/>
<path d="M17.0475 6.44711C16.2366 3.98118 12.7482 3.98116 11.9373 6.4471L9.76545 13.0506L3.16192 15.2224C0.696025 16.0334 0.696025 19.5217 3.16192 20.3326L9.76545 22.5045L11.9373 29.108C12.7482 31.5739 16.2366 31.5739 17.0475 29.108L19.2193 22.5045L25.8228 20.3326C28.2887 19.5217 28.2887 16.0334 25.8228 15.2224L19.2193 13.0506L17.0475 6.44711Z" fill="#00A84E"/>
</svg>
