<svg width="256" height="306" viewBox="0 0 256 306" fill="none" xmlns="http://www.w3.org/2000/svg">
<path d="M269.804 49.066C276.713 48.4975 282.09 54.9606 280.275 61.651L269.361 101.872C268.196 106.166 270.009 110.715 273.81 113.03L309.271 134.635C315.178 138.233 315.735 146.598 310.359 150.948L277.785 177.307C274.344 180.092 273.143 184.808 274.834 188.9L290.744 227.4C293.376 233.769 288.93 240.828 282.049 241.205L240.22 243.495C235.813 243.736 232.086 246.838 231.047 251.127L221.188 291.842C219.566 298.539 211.816 301.628 206.033 297.882L171.067 275.235C167.351 272.829 162.495 273.152 159.131 276.029L127.289 303.266C122.033 307.762 113.909 305.693 111.445 299.23L96.6493 260.431C95.0636 256.273 90.9209 253.663 86.4856 254.028L44.9511 257.445C38.042 258.014 32.6647 251.55 34.4801 244.86L45.3936 204.64C46.559 200.345 44.7459 195.796 40.9454 193.481L5.48381 171.876C-0.422768 168.278 -0.98039 159.913 4.39624 155.563L36.9697 129.204C40.4113 126.419 41.612 121.703 39.9212 117.611L24.0106 79.1107C21.3789 72.7424 25.8255 65.6831 32.7058 65.3064L74.5354 63.0158C78.9418 62.7746 82.6691 59.6733 83.7077 55.3843L93.5669 14.6687C95.1886 7.97165 102.939 4.88298 108.722 8.62888L143.688 31.2757C147.404 33.6824 152.26 33.3594 155.624 30.4816L187.467 3.24468C192.722 -1.25109 200.846 0.818343 203.31 7.28084L218.106 46.08C219.691 50.2382 223.834 52.8481 228.269 52.4832L269.804 49.066Z" fill="#FFF2D8"/>
</svg>
