<svg width="24" height="24" viewBox="0 0 24 24" fill="none" xmlns="http://www.w3.org/2000/svg">
<path d="M12 5C14.2543 5 16.4163 5.89553 18.0104 7.48959C19.6045 9.08365 20.5 11.2457 20.5 13.5C20.5 15.7543 19.6045 17.9163 18.0104 19.5104C16.4163 21.1045 14.2543 22 12 22C9.74566 22 7.58365 21.1045 5.98959 19.5104C4.39553 17.9163 3.5 15.7543 3.5 13.5C3.5 11.2457 4.39553 9.08365 5.98959 7.48959C7.58365 5.89553 9.74566 5 12 5V5ZM12 8C11.8188 8.00001 11.6437 8.06564 11.5071 8.18477C11.3705 8.30389 11.2816 8.46845 11.257 8.648L11.25 8.75V13.25L11.257 13.352C11.2817 13.5315 11.3706 13.696 11.5071 13.8151C11.6437 13.9342 11.8188 13.9998 12 13.9998C12.1812 13.9998 12.3563 13.9342 12.4929 13.8151C12.6294 13.696 12.7183 13.5315 12.743 13.352L12.75 13.25V8.75L12.743 8.648C12.7184 8.46845 12.6295 8.30389 12.4929 8.18477C12.3563 8.06564 12.1812 8.00001 12 8V8ZM19.17 5.123L19.252 5.184L20.401 6.184C20.545 6.30867 20.6362 6.48345 20.656 6.67287C20.6758 6.86229 20.6229 7.05217 20.5079 7.20397C20.3928 7.35578 20.2244 7.45813 20.0366 7.49026C19.8489 7.5224 19.656 7.4819 19.497 7.377L19.416 7.316L18.267 6.316C18.1243 6.19107 18.0342 6.01668 18.0149 5.82797C17.9955 5.63926 18.0485 5.45025 18.1629 5.299C18.2774 5.14774 18.445 5.04549 18.6318 5.01283C18.8187 4.98018 19.011 5.01954 19.17 5.123ZM14.25 2.5C14.44 2.50006 14.6229 2.57224 14.7618 2.70197C14.9006 2.8317 14.9851 3.0093 14.998 3.19888C15.011 3.38846 14.9515 3.57589 14.8316 3.7233C14.7117 3.87071 14.5403 3.9671 14.352 3.993L14.25 4H9.75C9.55998 3.99994 9.37706 3.92776 9.23821 3.79803C9.09936 3.6683 9.01493 3.4907 9.00197 3.30112C8.98902 3.11154 9.04852 2.92411 9.16843 2.7767C9.28835 2.62929 9.45975 2.5329 9.648 2.507L9.75 2.5H14.25Z" fill="black"/>
</svg>
