<svg width="21" height="21" viewBox="0 0 21 21" fill="none" xmlns="http://www.w3.org/2000/svg">
<path d="M3.9375 3.28125C2.85571 3.28125 1.96875 4.16821 1.96875 5.25V13.5659C1.96875 15.5039 3.271 17.3086 5.17822 17.6521C7.66479 18.1033 9.84375 16.1909 9.84375 13.7812V13.1968C9.84375 12.9404 9.78735 12.6943 9.7002 12.4688H11.2793C11.2024 12.6738 11.1562 12.8943 11.1562 13.125V13.7812C11.1562 15.95 12.925 17.7188 15.0938 17.7188C17.2625 17.7188 19.0312 15.95 19.0312 13.7812V5.25C19.0312 4.16821 18.1443 3.28125 17.0625 3.28125C15.9807 3.28125 15.0938 4.16821 15.0938 5.25V5.90625H16.4062V5.25C16.4062 4.88599 16.6985 4.59375 17.0625 4.59375C17.4265 4.59375 17.7188 4.88599 17.7188 5.25V11.2793C17.5137 11.2024 17.2932 11.1562 17.0625 11.1562H7.875V11.1665C7.84937 11.1614 7.82886 11.1562 7.80322 11.1562H4.00928C3.75293 11.1562 3.50684 11.2126 3.28125 11.2998V5.25C3.28125 4.88599 3.57349 4.59375 3.9375 4.59375C4.30151 4.59375 4.59375 4.88599 4.59375 5.25V5.90625H5.90625V5.25C5.90625 4.16821 5.01929 3.28125 3.9375 3.28125Z" fill="#A2A3A9"/>
</svg>
