<svg width="24" height="24" viewBox="0 0 24 24" fill="none" xmlns="http://www.w3.org/2000/svg">
<path d="M11.9999 2.40002C12.6626 2.40002 13.1999 2.93728 13.1999 3.60002V4.80002C13.1999 5.46277 12.6626 6.00002 11.9999 6.00002C11.3372 6.00002 10.7999 5.46277 10.7999 4.80002V3.60002C10.7999 2.93728 11.3372 2.40002 11.9999 2.40002Z" fill="#030903"/>
<path d="M16.7999 12C16.7999 14.651 14.6509 16.8 11.9999 16.8C9.34894 16.8 7.1999 14.651 7.1999 12C7.1999 9.34906 9.34894 7.20002 11.9999 7.20002C14.6509 7.20002 16.7999 9.34906 16.7999 12Z" fill="#030903"/>
<path d="M16.2426 17.9397L17.0911 18.7882C17.5598 19.2568 18.3196 19.2568 18.7882 18.7882C19.2568 18.3196 19.2568 17.5598 18.7882 17.0911L17.9397 16.2426C17.471 15.774 16.7112 15.774 16.2426 16.2426C15.774 16.7112 15.774 17.471 16.2426 17.9397Z" fill="#030903"/>
<path d="M18.7881 5.21174C19.2567 5.68036 19.2567 6.44016 18.7881 6.90879L17.9395 7.75732C17.4709 8.22595 16.7111 8.22595 16.2425 7.75732C15.7739 7.28869 15.7739 6.52889 16.2425 6.06026L17.091 5.21174C17.5597 4.74311 18.3194 4.74311 18.7881 5.21174Z" fill="#030903"/>
<path d="M20.3999 13.2C21.0626 13.2 21.5999 12.6628 21.5999 12C21.5999 11.3373 21.0626 10.8 20.3999 10.8H19.1999C18.5372 10.8 17.9999 11.3373 17.9999 12C17.9999 12.6628 18.5372 13.2 19.1999 13.2H20.3999Z" fill="#030903"/>
<path d="M11.9999 18C12.6626 18 13.1999 18.5373 13.1999 19.2V20.4C13.1999 21.0628 12.6626 21.6 11.9999 21.6C11.3372 21.6 10.7999 21.0628 10.7999 20.4V19.2C10.7999 18.5373 11.3372 18 11.9999 18Z" fill="#030903"/>
<path d="M6.06027 7.75734C6.5289 8.22597 7.2887 8.22597 7.75733 7.75734C8.22596 7.28871 8.22596 6.52891 7.75733 6.06029L6.9088 5.21176C6.44017 4.74313 5.68038 4.74313 5.21175 5.21176C4.74312 5.68039 4.74312 6.44018 5.21175 6.90881L6.06027 7.75734Z" fill="#030903"/>
<path d="M7.75722 17.9397L6.90869 18.7882C6.44006 19.2568 5.68026 19.2568 5.21163 18.7882C4.74301 18.3195 4.74301 17.5598 5.21163 17.0911L6.06016 16.2426C6.52879 15.774 7.28859 15.774 7.75722 16.2426C8.22585 16.7112 8.22585 17.471 7.75722 17.9397Z" fill="#030903"/>
<path d="M4.7999 13.2C5.46264 13.2 5.9999 12.6628 5.9999 12C5.9999 11.3373 5.46264 10.8 4.7999 10.8H3.5999C2.93716 10.8 2.3999 11.3373 2.3999 12C2.3999 12.6628 2.93716 13.2 3.5999 13.2H4.7999Z" fill="#030903"/>
</svg>
