<svg width="24" height="24" viewBox="0 0 24 24" fill="none" xmlns="http://www.w3.org/2000/svg">
<g clip-path="url(#clip0_4967_337126)">
<path d="M16.8 7C16.8 7.5 16.3 8 15.8 8H11.4V17.9C11.4 18.4 11 18.9 10.4 18.9C9.89999 18.9 9.39999 18.5 9.39999 17.9V8H5C4.5 8 4 7.6 4 7C4 6.5 4.5 6 5 6H15.9C16.3 6 16.8 6.5 16.8 7Z" fill="black"/>
<path d="M20.8999 12.8C20.8999 13.3 20.4999 13.8 19.9999 13.8H18.4999V17.9C18.4999 18.4 18.0999 18.9 17.5999 18.9C17.0999 18.9 16.6999 18.5 16.6999 17.9V13.8H15.2999C14.7999 13.8 14.3999 13.4 14.3999 12.8C14.3999 12.3 14.7999 11.8 15.2999 11.8H19.8999C20.4999 11.8 20.8999 12.3 20.8999 12.8Z" fill="black"/>
</g>
<defs>
<clipPath id="clip0_4967_337126">
<rect width="24" height="24" fill="white"/>
</clipPath>
</defs>
</svg>
