<svg width="24" height="24" viewBox="0 0 24 24" fill="none" xmlns="http://www.w3.org/2000/svg">
<g clip-path="url(#clip0_4967_337547)">
<path d="M15.9 6.29999C15.9 6.99999 15.3 7.60001 14.6 7.60001H10.8V16.6C10.8 17.3 10.2 17.9 9.5 17.9C8.8 17.9 8.19998 17.3 8.19998 16.6V7.60001H4.29999C3.59999 7.60001 3 6.99999 3 6.29999C3 5.59999 3.59999 5 4.29999 5H14.6C15.4 5 15.9 5.59999 15.9 6.29999Z" fill="black"/>
<path d="M20.6001 11.2C20.6001 11.9 20.1001 12.5 19.5001 12.5H18.2001V16.7C18.2001 17.4 17.7001 18 17.1001 18C16.5001 18 16.0001 17.4 16.0001 16.7V12.5H14.7001C14.1001 12.5 13.6001 11.9 13.6001 11.2C13.6001 10.5 14.1001 9.90002 14.7001 9.90002H19.6001C20.1001 9.90002 20.6001 10.5 20.6001 11.2Z" fill="black"/>
</g>
<defs>
<clipPath id="clip0_4967_337547">
<rect width="24" height="24" fill="white"/>
</clipPath>
</defs>
</svg>
