<svg width="24" height="24" viewBox="0 0 24 24" fill="none" xmlns="http://www.w3.org/2000/svg">
<path d="M13.2499 11C13.2499 10.3096 12.6902 9.75 11.9999 9.75C11.3095 9.75 10.7499 10.3096 10.7499 11H13.2499ZM8.18901 19.9056C7.82142 20.49 7.99713 21.2617 8.58149 21.6293C9.16584 21.9969 9.93754 21.8212 10.3051 21.2368L8.18901 19.9056ZM5.8613 18.4413L4.80324 17.7758L4.80324 17.7758L5.8613 18.4413ZM4.73213 17.8921C4.37961 18.4856 4.57502 19.2526 5.16859 19.6051C5.76216 19.9576 6.52911 19.7622 6.88163 19.1687L4.73213 17.8921ZM12.5616 20.2837C12.2524 20.901 12.5021 21.652 13.1193 21.9612C13.7365 22.2704 14.4876 22.0207 14.7968 21.4035L12.5616 20.2837ZM16.3735 17.3404C16.5615 16.6761 16.1753 15.9852 15.5111 15.7972C14.8468 15.6093 14.1559 15.9954 13.9679 16.6596L16.3735 17.3404ZM14.5581 13.8308C14.4647 14.5149 14.9435 15.1451 15.6275 15.2385C16.3115 15.3319 16.9417 14.8532 17.0351 14.1692L14.5581 13.8308ZM17.8074 17.7898C17.6184 18.4538 18.0035 19.1452 18.6675 19.3342C19.3315 19.5232 20.0229 19.1381 20.2119 18.4741L17.8074 17.7898ZM1.87565 14.8179C1.57399 15.4389 1.83283 16.1868 2.45379 16.4885C3.07475 16.7901 3.82268 16.5313 4.12435 15.9103L1.87565 14.8179ZM7.37409 2.98825C6.77652 3.33393 6.57231 4.09859 6.91799 4.69617C7.26367 5.29374 8.02833 5.49794 8.62591 5.15226L7.37409 2.98825ZM6.15226 7.62591C6.49794 7.02833 6.29374 6.26367 5.69617 5.91799C5.09859 5.57231 4.33393 5.77652 3.98825 6.37409L6.15226 7.62591ZM10.7499 11C10.7499 14.2749 9.8113 17.3267 8.18901 19.9056L10.3051 21.2368C12.1709 18.2709 13.2499 14.7595 13.2499 11H10.7499ZM17.2499 11C17.2499 8.1005 14.8994 5.75 11.9999 5.75V8.25C13.5187 8.25 14.7499 9.48122 14.7499 11H17.2499ZM6.74991 11C6.74991 13.4995 6.03598 15.8161 4.80324 17.7758L6.91937 19.1069C8.39561 16.7602 9.24991 13.984 9.24991 11H6.74991ZM11.9999 5.75C9.10041 5.75 6.74991 8.1005 6.74991 11H9.24991C9.24991 9.48122 10.4811 8.25 11.9999 8.25V5.75ZM4.80324 17.7758C4.77898 17.8143 4.75528 17.8531 4.73213 17.8921L6.88163 19.1687C6.8939 19.148 6.90648 19.1274 6.91937 19.1069L4.80324 17.7758ZM14.7968 21.4035C15.4434 20.1129 15.9735 18.7537 16.3735 17.3404L13.9679 16.6596C13.6113 17.92 13.1385 19.1323 12.5616 20.2837L14.7968 21.4035ZM17.0351 14.1692C17.1768 13.1319 17.2499 12.0738 17.2499 11H14.7499C14.7499 11.9602 14.6845 12.9053 14.5581 13.8308L17.0351 14.1692ZM21.25 11C21.25 5.89137 17.1086 1.75 12 1.75V4.25C15.7279 4.25 18.75 7.27208 18.75 11H21.25ZM20.2119 18.4741C20.8883 16.0977 21.25 13.59 21.25 11H18.75C18.75 13.3563 18.4211 15.6337 17.8074 17.7898L20.2119 18.4741ZM2.75 11C2.75 12.3713 2.43542 13.6657 1.87565 14.8179L4.12435 15.9103C4.84589 14.4251 5.25 12.758 5.25 11H2.75ZM12 1.75C10.3172 1.75 8.73592 2.20048 7.37409 2.98825L8.62591 5.15226C9.61747 4.57868 10.7685 4.25 12 4.25V1.75ZM3.98825 6.37409C3.20048 7.73592 2.75 9.31725 2.75 11H5.25C5.25 9.76845 5.57868 8.61747 6.15226 7.62591L3.98825 6.37409Z" fill="#030903"/>
</svg>
