<svg width="24" height="24" viewBox="0 0 24 24" fill="none" xmlns="http://www.w3.org/2000/svg">
<path d="M5 7C5 4.23858 7.23858 2 10 2C12.7614 2 15 4.23858 15 7C15 7.55228 15.4477 8 16 8C16.5523 8 17 7.55228 17 7C17 3.13401 13.866 0 10 0C6.13401 0 3 3.13401 3 7C3 7.55228 3.44772 8 4 8C4.55228 8 5 7.55228 5 7Z" fill="#030903"/>
<path d="M9.99988 4C8.34303 4 6.99988 5.34315 6.99989 7L6.99991 13.1107C5.87499 12.7807 4.60273 13.1147 3.7942 14.085C2.87264 15.191 2.84965 16.7907 3.73905 17.9226L6.71235 21.7069C7.84986 23.1547 9.58911 24 11.4303 24H14.827C17.7267 24 20.2115 21.9263 20.7302 19.0733L21.4676 15.0181C21.8519 12.904 20.4974 10.8639 18.3998 10.3978L12.9999 9.19783V7C12.9999 5.34314 11.6567 4 9.99988 4Z" fill="#030903"/>
</svg>
