<svg width="20" height="21" viewBox="0 0 20 21" fill="none" xmlns="http://www.w3.org/2000/svg">
<path d="M1.43408 19.5081L8.02169 12.9205L8.37524 12.5669L8.7288 12.9205L12.2167 16.4084L1.43408 19.5081ZM1.43408 19.5081L0.992263 19.0663L7.57987 12.4786L7.93342 12.1251L7.57987 11.7715L4.09196 8.28363C4.04827 8.23991 4.01852 8.18423 4.00648 8.12361C3.99443 8.06299 4.00062 8.00016 4.02427 7.94306C4.04792 7.88596 4.08797 7.83716 4.13935 7.80281C4.19073 7.76846 4.25114 7.75012 4.31294 7.7501H8.85132H9.05842L9.20487 7.60365L11.9788 4.82972L12.1252 4.68328V4.47617V1.5626C12.1252 1.48053 12.1575 1.40177 12.2151 1.3433C12.2726 1.28482 12.3509 1.25132 12.4329 1.25003C12.4747 1.24942 12.5162 1.2572 12.5549 1.2729C12.5937 1.28863 12.629 1.31199 12.6586 1.3416L12.6587 1.34169L19.1585 7.84156C19.1586 7.8416 19.1586 7.84164 19.1587 7.84169L1.43408 19.5081ZM12.7502 11.6412L12.8861 11.4968L15.6759 8.53243L15.824 8.3751H16.04H18.9375L12.7502 11.6412ZM12.7502 11.6412V11.8395M12.7502 11.6412V11.8395M12.7502 11.8395V16.1874C12.7502 16.2492 12.7319 16.3096 12.6975 16.361C12.6632 16.4124 12.6144 16.4524 12.5573 16.4761C12.5002 16.4997 12.4373 16.5059 12.3767 16.4939C12.3162 16.4818 12.2605 16.4521 12.2168 16.4085L12.7502 11.8395Z" stroke="white"/>
</svg>
