<svg width="41" height="41" viewBox="0 0 41 41" fill="none" xmlns="http://www.w3.org/2000/svg">
<circle cx="20.9609" cy="20.5" r="20" fill="#FFF2D8"/>
<circle cx="20.9604" cy="20.5" r="11.5385" fill="url(#paint0_linear_14870_222061)"/>
<circle cx="20.9614" cy="20.5007" r="8.58245" fill="#FEB83D"/>
<circle cx="20.9614" cy="20.5007" r="8.58245" fill="#D08417"/>
<path fill-rule="evenodd" clip-rule="evenodd" d="M29.5428 20.6336C29.5435 20.5895 29.5438 20.5452 29.5438 20.5009C29.5438 15.761 25.7013 11.9185 20.9614 11.9185C16.2214 11.9185 12.3789 15.761 12.3789 20.5009C12.3789 25.2409 16.2214 29.0834 20.9614 29.0834C21.0057 29.0834 21.0499 29.083 21.0941 29.0824C16.5377 29.0241 12.8621 25.3125 12.8621 20.7423C12.8621 16.1359 16.5963 12.4016 21.2028 12.4016C25.7729 12.4016 29.4846 16.0773 29.5428 20.6336Z" fill="#CF762C"/>
<path fill-rule="evenodd" clip-rule="evenodd" d="M24.0713 19.1944C24.0733 18.665 24.0752 18.1357 24.066 17.6063C24.0642 17.5048 24.0807 17.4076 24.1118 17.3163C24.1264 17.267 24.1473 17.2203 24.1731 17.1758C24.339 16.867 24.6714 16.6502 24.9809 16.6101C25.3573 16.5613 25.6984 16.6432 25.9533 16.8905C26.1262 17.0296 26.2464 17.2163 26.2854 17.4183C26.3091 17.5861 26.3173 17.7556 26.3099 17.9248C26.3099 18.4091 26.3106 18.8937 26.3114 19.3783V19.3785V19.3786V19.3788C26.3129 20.3476 26.3143 21.3163 26.3099 22.2818C26.3099 22.8755 26.1312 23.4345 25.8688 23.9708C25.6162 24.4744 25.2764 24.9335 24.8636 25.3285C24.5834 25.6031 24.2617 25.8024 23.8459 25.7719C23.3321 25.735 22.9289 25.452 22.8014 24.9802C22.7095 24.6383 22.8392 24.3368 23.1046 24.1013C23.5309 23.7353 23.8364 23.2583 23.9837 22.7287C24.0298 22.5655 24.0547 22.3975 24.0579 22.2285C24.0631 21.5742 24.0659 20.9198 24.0687 20.2653V20.2653V20.2652V20.2651C24.0693 20.1302 24.0698 19.9953 24.0704 19.8604H24.0696C24.0696 19.6384 24.0705 19.4164 24.0713 19.1944ZM15.7266 17.662L15.7257 17.6092C15.7234 17.4832 15.7497 17.3636 15.7972 17.2539C15.8452 17.1323 15.9174 17.0271 16.0133 16.9394C16.1906 16.7609 16.426 16.6418 16.6496 16.6131C17.0598 16.5604 17.4284 16.6599 17.691 16.9554C17.773 17.036 17.8397 17.1299 17.8878 17.2329C17.9468 17.3592 17.9766 17.4961 17.9751 17.6344C17.9696 19.1203 17.9696 20.6065 17.9751 22.0929C17.9666 22.5949 18.1221 23.0869 18.4198 23.5003C18.6151 23.7477 18.8248 23.9846 19.0477 24.2096C19.1954 24.3822 19.2709 24.6011 19.2595 24.8239C19.2482 25.0468 19.1508 25.2576 18.9862 25.4156C18.7719 25.6293 18.48 25.7563 18.1708 25.7703C17.7883 25.7845 17.4717 25.6284 17.2167 25.3638C16.9943 25.1404 16.7854 24.9049 16.5911 24.6587C16.3028 24.2714 16.0811 23.8425 15.9343 23.3882C15.7838 22.9435 15.7127 22.4778 15.7238 22.0106C15.7306 21.5277 15.7292 21.0446 15.7279 20.5616C15.7273 20.364 15.7268 20.1665 15.7268 19.969C15.7268 19.7145 15.7277 19.4601 15.7287 19.2056C15.7307 18.6968 15.7327 18.1882 15.7268 17.6798L15.7266 17.662ZM22.1516 20.5464C22.1524 20.3279 22.1532 20.1094 22.1533 19.8909H22.1565C22.1565 19.3688 22.1557 18.8467 22.1525 18.3247C22.1533 18.104 22.1548 17.8834 22.1577 17.6628C22.1622 17.2683 21.9694 16.9931 21.6433 16.776C21.5611 16.7217 21.4758 16.6922 21.3885 16.6759C21.2154 16.6252 21.0251 16.6151 20.825 16.6405C20.7947 16.6444 20.7642 16.6499 20.7336 16.6569C20.5462 16.6895 20.3589 16.7963 20.2089 16.9423C20.071 17.0719 19.9642 17.2356 19.9181 17.4205C19.9067 17.4646 19.8992 17.5091 19.8961 17.5536C19.8939 17.5809 19.893 17.6087 19.8935 17.6367L19.8948 17.7176C19.8958 18.1933 19.8955 18.6691 19.8953 19.145V19.145V19.1451V19.1451C19.8947 20.1474 19.8942 21.1499 19.9049 22.1524C19.917 22.3523 19.9897 22.5446 20.114 22.7057C20.3808 23.059 20.7789 23.1796 21.2259 23.1228C21.6729 23.0661 22.1666 22.6546 22.157 22.1297C22.1476 21.6019 22.1496 21.0742 22.1516 20.5464Z" fill="url(#paint1_linear_14870_222061)"/>
<path fill-rule="evenodd" clip-rule="evenodd" d="M15.7733 17.4506L15.7725 17.4009C15.7702 17.2772 15.7965 17.1599 15.8436 17.0524C15.8893 16.9383 15.9572 16.8393 16.0468 16.7562C16.2191 16.5805 16.4495 16.4632 16.6682 16.4352C17.0676 16.3839 17.4263 16.4814 17.6811 16.7707C17.7591 16.8481 17.8226 16.938 17.8687 17.0366C17.9259 17.159 17.9547 17.2917 17.9533 17.4258C17.948 18.8664 17.948 20.3072 17.9533 21.7483C17.9451 22.235 18.0958 22.712 18.3845 23.1128C18.5738 23.3527 18.777 23.5824 18.9932 23.8006C19.1364 23.9679 19.2096 24.1801 19.1986 24.3961C19.1876 24.6121 19.0931 24.8166 18.9336 24.9697C18.7258 25.177 18.4428 25.3001 18.143 25.3136C17.7722 25.3274 17.4653 25.1761 17.2181 24.9195C17.0024 24.7029 16.7999 24.4746 16.6115 24.2359C16.332 23.8604 16.117 23.4446 15.9747 23.0041C15.8288 22.5731 15.7598 22.1215 15.7706 21.6685C15.7773 21.2004 15.7759 20.732 15.7746 20.2637C15.774 20.0722 15.7735 19.8806 15.7735 19.6892C15.7735 19.4425 15.7745 19.1958 15.7754 18.9491C15.7773 18.4559 15.7792 17.9627 15.7735 17.4698L15.7733 17.4506ZM22.1621 20.2518C22.1629 20.0399 22.1637 19.828 22.1637 19.6161H22.1674C22.1673 19.0946 22.1665 18.573 22.1632 18.0514C22.164 17.853 22.1654 17.6546 22.168 17.4561C22.1723 17.0738 21.9855 16.8069 21.6693 16.5965C21.5906 16.5445 21.509 16.5159 21.4255 16.5C21.2569 16.4501 21.0715 16.4401 20.8764 16.4649C20.8463 16.4687 20.816 16.4742 20.7857 16.4813C20.6016 16.5137 20.4177 16.6199 20.2715 16.7646C20.1502 16.8807 20.0546 17.0244 20.0068 17.1859C19.9873 17.2488 19.976 17.3126 19.9741 17.3762C19.9732 17.3942 19.973 17.4124 19.9733 17.4307L19.9741 17.4763C19.9751 17.9485 19.9748 18.4208 19.9746 18.8932V18.8932V18.8932V18.8932V18.8933V18.8935C19.974 19.8652 19.9735 20.837 19.9839 21.8089C19.9957 22.0027 20.0661 22.1891 20.1866 22.3453C20.4453 22.6878 20.8313 22.8048 21.2646 22.7497C21.698 22.6947 22.1767 22.2958 22.1673 21.7869C22.1582 21.2752 22.1601 20.7635 22.1621 20.2518ZM25.8638 16.7225C26.0216 16.8556 26.131 17.0305 26.1675 17.2191C26.1905 17.3818 26.1984 17.5461 26.1912 17.7101C26.1912 18.1791 26.1919 18.6484 26.1926 19.1176L26.1926 19.1194V19.1195V19.1197V19.1198C26.1941 20.0591 26.1955 20.9982 26.1912 21.9343C26.1912 22.5099 26.018 23.0519 25.7636 23.5718C25.5187 24.0601 25.1892 24.5052 24.7891 24.8882C24.5174 25.1543 24.2055 25.3476 23.8023 25.318C23.3043 25.2823 22.9133 25.0078 22.7897 24.5505C22.7006 24.219 22.8263 23.9267 23.0836 23.6984C23.4969 23.3435 23.7931 22.881 23.936 22.3676C23.9807 22.2094 24.0048 22.0465 24.0078 21.8827C24.0129 21.2486 24.0156 20.6144 24.0183 19.9801L24.0183 19.9794V19.9793V19.9793V19.9792C24.0201 19.5695 24.0218 19.1599 24.0242 18.7503C24.0257 18.3005 24.0262 17.8507 24.0184 17.4009C24.0169 17.3193 24.0277 17.2406 24.0486 17.1656C24.0656 17.0844 24.0999 17.0102 24.1461 16.9418C24.3135 16.6647 24.6195 16.4722 24.9054 16.4352C25.2781 16.3869 25.6151 16.4706 25.8638 16.7225Z" fill="#FFDF78"/>
<mask id="path-8-inside-1_14870_222061" fill="white">
<path fill-rule="evenodd" clip-rule="evenodd" d="M15.7733 17.4506L15.7725 17.4009C15.7702 17.2772 15.7965 17.1599 15.8436 17.0524C15.8893 16.9383 15.9572 16.8393 16.0468 16.7562C16.2191 16.5805 16.4495 16.4632 16.6682 16.4352C17.0676 16.3839 17.4263 16.4814 17.6811 16.7707C17.7591 16.8481 17.8226 16.938 17.8687 17.0366C17.9259 17.159 17.9547 17.2917 17.9533 17.4258C17.948 18.8664 17.948 20.3072 17.9533 21.7483C17.9451 22.235 18.0958 22.712 18.3845 23.1128C18.5738 23.3527 18.777 23.5824 18.9932 23.8006C19.1364 23.9679 19.2096 24.1801 19.1986 24.3961C19.1876 24.6121 19.0931 24.8166 18.9336 24.9697C18.7258 25.177 18.4428 25.3001 18.143 25.3136C17.7722 25.3274 17.4653 25.1761 17.2181 24.9195C17.0024 24.7029 16.7999 24.4746 16.6115 24.2359C16.332 23.8604 16.117 23.4446 15.9747 23.0041C15.8288 22.5731 15.7598 22.1215 15.7706 21.6685C15.7773 21.2004 15.7759 20.732 15.7746 20.2637C15.774 20.0722 15.7735 19.8806 15.7735 19.6892C15.7735 19.4425 15.7745 19.1958 15.7754 18.9491C15.7773 18.4559 15.7792 17.9627 15.7735 17.4698L15.7733 17.4506ZM22.1621 20.2518C22.1629 20.0399 22.1637 19.828 22.1637 19.6161H22.1674C22.1673 19.0946 22.1665 18.573 22.1632 18.0514C22.164 17.853 22.1654 17.6546 22.168 17.4561C22.1723 17.0738 21.9855 16.8069 21.6693 16.5965C21.5906 16.5445 21.509 16.5159 21.4255 16.5C21.2569 16.4501 21.0715 16.4401 20.8764 16.4649C20.8463 16.4687 20.816 16.4742 20.7857 16.4813C20.6016 16.5137 20.4177 16.6199 20.2715 16.7646C20.1502 16.8807 20.0546 17.0244 20.0068 17.1859C19.9873 17.2488 19.976 17.3126 19.9741 17.3762C19.9732 17.3942 19.973 17.4124 19.9733 17.4307L19.9741 17.4763C19.9751 17.9485 19.9748 18.4208 19.9746 18.8932V18.8932V18.8932V18.8932V18.8933V18.8935C19.974 19.8652 19.9735 20.837 19.9839 21.8089C19.9957 22.0027 20.0661 22.1891 20.1866 22.3453C20.4453 22.6878 20.8313 22.8048 21.2646 22.7497C21.698 22.6947 22.1767 22.2958 22.1673 21.7869C22.1582 21.2752 22.1601 20.7635 22.1621 20.2518ZM25.8638 16.7225C26.0216 16.8556 26.131 17.0305 26.1675 17.2191C26.1905 17.3818 26.1984 17.5461 26.1912 17.7101C26.1912 18.1791 26.1919 18.6484 26.1926 19.1176L26.1926 19.1194V19.1195V19.1197V19.1198C26.1941 20.0591 26.1955 20.9982 26.1912 21.9343C26.1912 22.5099 26.018 23.0519 25.7636 23.5718C25.5187 24.0601 25.1892 24.5052 24.7891 24.8882C24.5174 25.1543 24.2055 25.3476 23.8023 25.318C23.3043 25.2823 22.9133 25.0078 22.7897 24.5505C22.7006 24.219 22.8263 23.9267 23.0836 23.6984C23.4969 23.3435 23.7931 22.881 23.936 22.3676C23.9807 22.2094 24.0048 22.0465 24.0078 21.8827C24.0129 21.2486 24.0156 20.6144 24.0183 19.9801L24.0183 19.9794V19.9793V19.9793V19.9792C24.0201 19.5695 24.0218 19.1599 24.0242 18.7503C24.0257 18.3005 24.0262 17.8507 24.0184 17.4009C24.0169 17.3193 24.0277 17.2406 24.0486 17.1656C24.0656 17.0844 24.0999 17.0102 24.1461 16.9418C24.3135 16.6647 24.6195 16.4722 24.9054 16.4352C25.2781 16.3869 25.6151 16.4706 25.8638 16.7225Z"/>
</mask>
<path fill-rule="evenodd" clip-rule="evenodd" d="M15.7733 17.4506L15.7725 17.4009C15.7702 17.2772 15.7965 17.1599 15.8436 17.0524C15.8893 16.9383 15.9572 16.8393 16.0468 16.7562C16.2191 16.5805 16.4495 16.4632 16.6682 16.4352C17.0676 16.3839 17.4263 16.4814 17.6811 16.7707C17.7591 16.8481 17.8226 16.938 17.8687 17.0366C17.9259 17.159 17.9547 17.2917 17.9533 17.4258C17.948 18.8664 17.948 20.3072 17.9533 21.7483C17.9451 22.235 18.0958 22.712 18.3845 23.1128C18.5738 23.3527 18.777 23.5824 18.9932 23.8006C19.1364 23.9679 19.2096 24.1801 19.1986 24.3961C19.1876 24.6121 19.0931 24.8166 18.9336 24.9697C18.7258 25.177 18.4428 25.3001 18.143 25.3136C17.7722 25.3274 17.4653 25.1761 17.2181 24.9195C17.0024 24.7029 16.7999 24.4746 16.6115 24.2359C16.332 23.8604 16.117 23.4446 15.9747 23.0041C15.8288 22.5731 15.7598 22.1215 15.7706 21.6685C15.7773 21.2004 15.7759 20.732 15.7746 20.2637C15.774 20.0722 15.7735 19.8806 15.7735 19.6892C15.7735 19.4425 15.7745 19.1958 15.7754 18.9491C15.7773 18.4559 15.7792 17.9627 15.7735 17.4698L15.7733 17.4506ZM22.1621 20.2518C22.1629 20.0399 22.1637 19.828 22.1637 19.6161H22.1674C22.1673 19.0946 22.1665 18.573 22.1632 18.0514C22.164 17.853 22.1654 17.6546 22.168 17.4561C22.1723 17.0738 21.9855 16.8069 21.6693 16.5965C21.5906 16.5445 21.509 16.5159 21.4255 16.5C21.2569 16.4501 21.0715 16.4401 20.8764 16.4649C20.8463 16.4687 20.816 16.4742 20.7857 16.4813C20.6016 16.5137 20.4177 16.6199 20.2715 16.7646C20.1502 16.8807 20.0546 17.0244 20.0068 17.1859C19.9873 17.2488 19.976 17.3126 19.9741 17.3762C19.9732 17.3942 19.973 17.4124 19.9733 17.4307L19.9741 17.4763C19.9751 17.9485 19.9748 18.4208 19.9746 18.8932V18.8932V18.8932V18.8932V18.8933V18.8935C19.974 19.8652 19.9735 20.837 19.9839 21.8089C19.9957 22.0027 20.0661 22.1891 20.1866 22.3453C20.4453 22.6878 20.8313 22.8048 21.2646 22.7497C21.698 22.6947 22.1767 22.2958 22.1673 21.7869C22.1582 21.2752 22.1601 20.7635 22.1621 20.2518ZM25.8638 16.7225C26.0216 16.8556 26.131 17.0305 26.1675 17.2191C26.1905 17.3818 26.1984 17.5461 26.1912 17.7101C26.1912 18.1791 26.1919 18.6484 26.1926 19.1176L26.1926 19.1194V19.1195V19.1197V19.1198C26.1941 20.0591 26.1955 20.9982 26.1912 21.9343C26.1912 22.5099 26.018 23.0519 25.7636 23.5718C25.5187 24.0601 25.1892 24.5052 24.7891 24.8882C24.5174 25.1543 24.2055 25.3476 23.8023 25.318C23.3043 25.2823 22.9133 25.0078 22.7897 24.5505C22.7006 24.219 22.8263 23.9267 23.0836 23.6984C23.4969 23.3435 23.7931 22.881 23.936 22.3676C23.9807 22.2094 24.0048 22.0465 24.0078 21.8827C24.0129 21.2486 24.0156 20.6144 24.0183 19.9801L24.0183 19.9794V19.9793V19.9793V19.9792C24.0201 19.5695 24.0218 19.1599 24.0242 18.7503C24.0257 18.3005 24.0262 17.8507 24.0184 17.4009C24.0169 17.3193 24.0277 17.2406 24.0486 17.1656C24.0656 17.0844 24.0999 17.0102 24.1461 16.9418C24.3135 16.6647 24.6195 16.4722 24.9054 16.4352C25.2781 16.3869 25.6151 16.4706 25.8638 16.7225Z" fill="#FFE697"/>
<path d="M15.7725 17.4009L15.8879 17.399L15.8879 17.3988L15.7725 17.4009ZM15.7733 17.4506L15.8887 17.4496L15.8887 17.4487L15.7733 17.4506ZM15.8436 17.0524L15.9493 17.0988L15.9507 17.0953L15.8436 17.0524ZM16.0468 16.7562L16.1253 16.8409L16.1291 16.837L16.0468 16.7562ZM16.6682 16.4352L16.6535 16.3207L16.6535 16.3207L16.6682 16.4352ZM17.6811 16.7707L17.5943 16.8471L17.5998 16.8526L17.6811 16.7707ZM17.8687 17.0366L17.7642 17.0854L17.8687 17.0366ZM17.9533 17.4258L17.8379 17.4246L17.8379 17.4254L17.9533 17.4258ZM17.9533 21.7483L18.0687 21.7502L18.0687 21.7479L17.9533 21.7483ZM18.3845 23.1128L18.2908 23.1803L18.2939 23.1843L18.3845 23.1128ZM18.9932 23.8006L19.0811 23.7253L19.0752 23.7193L18.9932 23.8006ZM19.1986 24.3961L19.3138 24.402H19.3138L19.1986 24.3961ZM18.9336 24.9697L18.8536 24.8865L18.8521 24.888L18.9336 24.9697ZM18.143 25.3136L18.1473 25.4289L18.1482 25.4289L18.143 25.3136ZM17.2181 24.9195L17.3011 24.8394L17.2998 24.8381L17.2181 24.9195ZM16.6115 24.2359L16.5189 24.3048L16.5209 24.3074L16.6115 24.2359ZM15.9747 23.0041L16.0845 22.9687L16.084 22.9672L15.9747 23.0041ZM15.7706 21.6685L15.886 21.6713L15.886 21.6702L15.7706 21.6685ZM15.7746 20.2637L15.6592 20.264L15.7746 20.2637ZM15.7754 18.9491L15.66 18.9487L15.7754 18.9491ZM15.7735 17.4698L15.6581 17.4708L15.6581 17.4712L15.7735 17.4698ZM22.1637 19.6161V19.5007H22.0483L22.0483 19.6161L22.1637 19.6161ZM22.1621 20.2518L22.2775 20.2523L22.1621 20.2518ZM22.1674 19.6161V19.7315H22.2828L22.2828 19.6161L22.1674 19.6161ZM22.1632 18.0514L22.0478 18.051L22.0478 18.0522L22.1632 18.0514ZM22.168 17.4561L22.2834 17.4576L22.2834 17.4574L22.168 17.4561ZM21.6693 16.5965L21.7332 16.5004L21.7329 16.5002L21.6693 16.5965ZM21.4255 16.5L21.3926 16.6112L21.4039 16.6134L21.4255 16.5ZM20.8764 16.4649L20.8618 16.3504L20.8618 16.3504L20.8764 16.4649ZM20.7857 16.4813L20.8057 16.5951L20.8119 16.5937L20.7857 16.4813ZM20.2715 16.7646L20.3513 16.848L20.3527 16.8466L20.2715 16.7646ZM20.0068 17.1859L20.117 17.22L20.1174 17.2187L20.0068 17.1859ZM19.9741 17.3762L20.0894 17.3819L20.0895 17.3795L19.9741 17.3762ZM19.9733 17.4307L20.0887 17.4287L20.0887 17.4286L19.9733 17.4307ZM19.9741 17.4763L20.0895 17.476L20.0894 17.4743L19.9741 17.4763ZM19.9746 18.8932L19.8592 18.8931V18.8932H19.9746ZM19.9746 18.8935L20.0899 18.8936V18.8935H19.9746ZM19.9839 21.8089L19.8684 21.8101L19.8688 21.8159L19.9839 21.8089ZM20.1866 22.3453L20.2787 22.2758L20.278 22.2749L20.1866 22.3453ZM21.2646 22.7497L21.2792 22.8642L21.2646 22.7497ZM22.1673 21.7869L22.0519 21.789L22.0519 21.789L22.1673 21.7869ZM26.1675 17.2191L26.2819 17.2029L26.2808 17.1972L26.1675 17.2191ZM25.8638 16.7225L25.7814 16.804L25.7894 16.8107L25.8638 16.7225ZM26.1912 17.7101L26.0758 17.7051V17.7101H26.1912ZM26.1926 19.1176L26.0773 19.1178V19.1178L26.1926 19.1176ZM26.1926 19.1194H26.308V19.1192L26.1926 19.1194ZM26.1926 19.1198H26.0773V19.12L26.1926 19.1198ZM26.1912 21.9343L26.0758 21.9338V21.9343H26.1912ZM25.7636 23.5718L25.8667 23.6236L25.8672 23.6225L25.7636 23.5718ZM24.7891 24.8882L24.7093 24.8048L24.7083 24.8058L24.7891 24.8882ZM23.8023 25.318L23.8107 25.2029L23.8106 25.2029L23.8023 25.318ZM22.7897 24.5505L22.6782 24.5804L22.6783 24.5806L22.7897 24.5505ZM23.0836 23.6984L23.0084 23.6108L23.007 23.6121L23.0836 23.6984ZM23.936 22.3676L23.8249 22.3362L23.8248 22.3366L23.936 22.3676ZM24.0078 21.8827L24.1232 21.8849L24.1232 21.8836L24.0078 21.8827ZM24.0183 19.9801L24.1337 19.9806V19.9806L24.0183 19.9801ZM24.0183 19.9794L24.1337 19.9799V19.9794H24.0183ZM24.0183 19.9792L23.9029 19.9787V19.9792H24.0183ZM24.0242 18.7503L24.1396 18.7509L24.1396 18.7507L24.0242 18.7503ZM24.0184 17.4009L24.1338 17.3989L24.1338 17.3989L24.0184 17.4009ZM24.0486 17.1656L24.16 17.1966L24.1615 17.1893L24.0486 17.1656ZM24.1461 16.9418L24.2418 17.0064L24.2448 17.0015L24.1461 16.9418ZM24.9054 16.4352L24.8906 16.3207L24.9054 16.4352ZM15.6571 17.4029L15.658 17.4526L15.8887 17.4487L15.8879 17.399L15.6571 17.4029ZM15.7379 17.0061C15.6846 17.1275 15.6545 17.2613 15.6571 17.403L15.8879 17.3988C15.8859 17.293 15.9083 17.1922 15.9493 17.0988L15.7379 17.0061ZM15.9683 16.6716C15.8661 16.7664 15.7885 16.8797 15.7365 17.0095L15.9507 17.0953C15.9901 16.9969 16.0483 16.9122 16.1252 16.8408L15.9683 16.6716ZM16.6535 16.3207C16.4069 16.3524 16.1533 16.4829 15.9644 16.6754L16.1291 16.837C16.285 16.6782 16.4921 16.5741 16.6829 16.5496L16.6535 16.3207ZM17.7677 16.6944C17.4816 16.3696 17.0809 16.2659 16.6535 16.3207L16.6829 16.5496C17.0542 16.5019 17.371 16.5932 17.5945 16.847L17.7677 16.6944ZM17.9732 16.9877C17.9213 16.8767 17.8499 16.7756 17.7624 16.6888L17.5998 16.8526C17.6684 16.9206 17.724 16.9994 17.7642 17.0854L17.9732 16.9877ZM18.0686 17.4271C18.0703 17.2756 18.0377 17.1257 17.9732 16.9877L17.7642 17.0854C17.8141 17.1923 17.8392 17.3079 17.8379 17.4246L18.0686 17.4271ZM18.0687 21.7479C18.0634 20.3071 18.0634 18.8666 18.0687 17.4262L17.8379 17.4254C17.8326 18.8663 17.8326 20.3074 17.8379 21.7487L18.0687 21.7479ZM18.4781 23.0454C18.2038 22.6644 18.0609 22.2117 18.0686 21.7502L17.8379 21.7464C17.8293 22.2583 17.9879 22.7596 18.2908 23.1802L18.4781 23.0454ZM19.0752 23.7193C18.8621 23.5042 18.6617 23.2779 18.4751 23.0413L18.2939 23.1843C18.4859 23.4276 18.692 23.6605 18.9112 23.8818L19.0752 23.7193ZM19.3138 24.402C19.3264 24.1559 19.2429 23.9148 19.0809 23.7255L18.9055 23.8756C19.0299 24.0209 19.0928 24.2043 19.0833 24.3902L19.3138 24.402ZM19.0135 25.053C19.1937 24.88 19.3013 24.6481 19.3138 24.402L19.0833 24.3902C19.0739 24.5762 18.9925 24.7532 18.8536 24.8865L19.0135 25.053ZM18.1482 25.4289C18.476 25.4141 18.7864 25.2795 19.015 25.0514L18.8521 24.888C18.6651 25.0745 18.4096 25.1861 18.1378 25.1983L18.1482 25.4289ZM17.135 24.9996C17.4009 25.2756 17.7382 25.4441 18.1473 25.4289L18.1387 25.1983C17.8061 25.2106 17.5296 25.0765 17.3011 24.8395L17.135 24.9996ZM16.5209 24.3074C16.7121 24.5496 16.9175 24.7812 17.1363 25.0009L17.2998 24.8381C17.0873 24.6246 16.8877 24.3997 16.7021 24.1644L16.5209 24.3074ZM15.8649 23.0396C16.0111 23.4922 16.232 23.9193 16.5189 24.3048L16.704 24.167C16.432 23.8015 16.2229 23.397 16.0845 22.9687L15.8649 23.0396ZM15.6553 21.6658C15.6442 22.1324 15.7152 22.5973 15.8654 23.0411L16.084 22.9672C15.9424 22.5488 15.8755 22.1107 15.886 21.6713L15.6553 21.6658ZM15.6592 20.264C15.6605 20.7325 15.6619 21.1999 15.6553 21.6669L15.886 21.6702C15.8926 21.2009 15.8913 20.7315 15.89 20.2634L15.6592 20.264ZM15.6581 19.6892C15.6581 19.8808 15.6587 20.0725 15.6592 20.264L15.89 20.2634C15.8894 20.0718 15.8889 19.8805 15.8889 19.6892H15.6581ZM15.66 18.9487C15.6591 19.1953 15.6581 19.4422 15.6581 19.6892H15.8889C15.8889 19.4428 15.8898 19.1963 15.8908 18.9496L15.66 18.9487ZM15.6581 17.4712C15.6639 17.963 15.662 18.4553 15.66 18.9487L15.8908 18.9496C15.8927 18.4565 15.8946 17.9624 15.8889 17.4685L15.6581 17.4712ZM15.658 17.4517L15.6581 17.4708L15.8889 17.4688L15.8887 17.4496L15.658 17.4517ZM22.0483 19.6161C22.0483 19.8278 22.0475 20.0395 22.0467 20.2514L22.2775 20.2523C22.2783 20.0404 22.2791 19.8283 22.2791 19.6161L22.0483 19.6161ZM22.1674 19.5007H22.1637V19.7315H22.1674V19.5007ZM22.0478 18.0522C22.0511 18.5734 22.0519 19.0947 22.052 19.6161L22.2828 19.6161C22.2827 19.0945 22.2818 18.5726 22.2785 18.0507L22.0478 18.0522ZM22.0527 17.4546C22.0501 17.6535 22.0486 17.8523 22.0478 18.051L22.2785 18.0519C22.2793 17.8537 22.2808 17.6557 22.2834 17.4576L22.0527 17.4546ZM21.6053 16.6925C21.8983 16.8875 22.0564 17.1215 22.0526 17.4548L22.2834 17.4574C22.2883 17.026 22.0726 16.7263 21.7332 16.5004L21.6053 16.6925ZM21.4039 16.6134C21.4755 16.627 21.5422 16.6507 21.6056 16.6927L21.7329 16.5002C21.6391 16.4382 21.5424 16.4048 21.4471 16.3867L21.4039 16.6134ZM20.891 16.5794C21.0733 16.5562 21.2422 16.5661 21.3927 16.6107L21.4582 16.3894C21.2716 16.3342 21.0696 16.324 20.8618 16.3504L20.891 16.5794ZM20.8119 16.5937C20.8385 16.5875 20.865 16.5827 20.891 16.5794L20.8618 16.3504C20.8277 16.3548 20.7935 16.361 20.7595 16.3689L20.8119 16.5937ZM20.3527 16.8466C20.486 16.7147 20.6495 16.6224 20.8057 16.5949L20.7656 16.3677C20.5537 16.405 20.3494 16.5252 20.1904 16.6826L20.3527 16.8466ZM20.1174 17.2187C20.1587 17.0794 20.2421 16.9525 20.3513 16.848L20.1917 16.6813C20.0584 16.809 19.9506 16.9694 19.8961 17.1531L20.1174 17.2187ZM20.0895 17.3795C20.091 17.3275 20.1003 17.274 20.117 17.22L19.8965 17.1518C19.8744 17.2236 19.861 17.2978 19.8588 17.3729L20.0895 17.3795ZM20.0887 17.4286C20.0884 17.4129 20.0886 17.3973 20.0894 17.3819L19.8589 17.3704C19.8579 17.3911 19.8575 17.4119 19.8579 17.4328L20.0887 17.4286ZM20.0894 17.4743L20.0887 17.4287L19.8579 17.4327L19.8587 17.4783L20.0894 17.4743ZM20.0899 18.8932C20.0902 18.4209 20.0905 17.9484 20.0895 17.476L19.8587 17.4765C19.8597 17.9486 19.8594 18.4207 19.8592 18.8931L20.0899 18.8932ZM20.0899 18.8932V18.8932H19.8592V18.8932H20.0899ZM20.0899 18.8932V18.8932H19.8592V18.8932H20.0899ZM20.0899 18.8932V18.8932H19.8592V18.8932H20.0899ZM20.0899 18.8933V18.8932H19.8592V18.8933H20.0899ZM20.0899 18.8935V18.8933H19.8592V18.8935H20.0899ZM20.0993 21.8077C20.0889 20.8366 20.0894 19.8653 20.0899 18.8936L19.8592 18.8934C19.8586 19.865 19.8581 20.8375 19.8686 21.8101L20.0993 21.8077ZM20.278 22.2749C20.1713 22.1367 20.1094 21.9723 20.0991 21.8019L19.8688 21.8159C19.8819 22.0332 19.9609 22.2416 20.0953 22.4158L20.278 22.2749ZM21.2501 22.6353C20.8473 22.6864 20.5067 22.5777 20.2787 22.2758L20.0945 22.4149C20.384 22.798 20.8153 22.9231 21.2792 22.8642L21.2501 22.6353ZM22.0519 21.789C22.0559 22.0051 21.9565 22.2031 21.801 22.3564C21.6448 22.5104 21.4396 22.6112 21.2501 22.6353L21.2792 22.8642C21.5231 22.8332 21.7739 22.7071 21.963 22.5207C22.1528 22.3335 22.2881 22.0776 22.2827 21.7848L22.0519 21.789ZM22.0467 20.2514C22.0448 20.7629 22.0428 21.2758 22.0519 21.789L22.2827 21.7848C22.2736 21.2746 22.2755 20.7642 22.2775 20.2523L22.0467 20.2514ZM26.2808 17.1972C26.2387 16.9794 26.1135 16.7822 25.9382 16.6343L25.7894 16.8107C25.9297 16.9291 26.0234 17.0816 26.0542 17.241L26.2808 17.1972ZM26.3065 17.7152C26.314 17.5441 26.3057 17.3727 26.2817 17.2029L26.0532 17.2352C26.0752 17.3909 26.0828 17.5481 26.0759 17.7051L26.3065 17.7152ZM26.308 19.1175C26.3073 18.6482 26.3066 18.179 26.3066 17.7101H26.0758C26.0758 18.1792 26.0765 18.6486 26.0773 19.1178L26.308 19.1175ZM26.308 19.1192L26.308 19.1175L26.0773 19.1178L26.0773 19.1196L26.308 19.1192ZM26.308 19.1195V19.1194H26.0773V19.1195H26.308ZM26.308 19.1197V19.1195H26.0773V19.1197H26.308ZM26.308 19.1198V19.1197H26.0773V19.1198H26.308ZM26.3066 21.9348C26.3109 20.9984 26.3095 20.0589 26.308 19.1196L26.0773 19.12C26.0787 20.0594 26.0801 20.9981 26.0758 21.9338L26.3066 21.9348ZM25.8672 23.6225C26.1262 23.0932 26.3066 22.5335 26.3066 21.9343H26.0758C26.0758 22.4864 25.9098 23.0106 25.6599 23.5211L25.8672 23.6225ZM24.8688 24.9715C25.2784 24.5795 25.6158 24.1238 25.8667 23.6236L25.6604 23.5201C25.4216 23.9964 25.1 24.4308 24.7093 24.8048L24.8688 24.9715ZM23.7939 25.4331C24.2446 25.4662 24.5873 25.2474 24.8698 24.9706L24.7083 24.8058C24.4475 25.0613 24.1664 25.229 23.8107 25.2029L23.7939 25.4331ZM22.6783 24.5806C22.8171 25.0942 23.2569 25.3945 23.794 25.4331L23.8106 25.2029C23.3516 25.17 23.0095 24.9215 22.9011 24.5204L22.6783 24.5806ZM23.007 23.6121C22.7256 23.8618 22.5751 24.1967 22.6782 24.5804L22.9011 24.5205C22.826 24.2413 22.9271 23.9916 23.1602 23.7847L23.007 23.6121ZM23.8248 22.3366C23.6882 22.8276 23.4048 23.2705 23.0084 23.6108L23.1588 23.7859C23.589 23.4165 23.898 22.9345 24.0471 22.3985L23.8248 22.3366ZM23.8925 21.8806C23.8896 22.0345 23.8669 22.1875 23.8249 22.3362L24.047 22.3989C24.0944 22.2313 24.12 22.0586 24.1232 21.8849L23.8925 21.8806ZM23.9029 19.9796C23.9002 20.6139 23.8975 21.2479 23.8925 21.8818L24.1232 21.8836C24.1283 21.2493 24.131 20.6148 24.1337 19.9806L23.9029 19.9796ZM23.9029 19.9789L23.9029 19.9796L24.1337 19.9806L24.1337 19.9799L23.9029 19.9789ZM23.9029 19.9793V19.9794H24.1337V19.9793H23.9029ZM23.9029 19.9793V19.9793H24.1337V19.9793H23.9029ZM23.9029 19.9792V19.9793H24.1337V19.9792H23.9029ZM23.9088 18.7496C23.9064 19.1593 23.9047 19.5691 23.9029 19.9787L24.1337 19.9797C24.1355 19.57 24.1372 19.1605 24.1396 18.7509L23.9088 18.7496ZM23.903 17.4029C23.9108 17.8514 23.9104 18.3002 23.9088 18.7499L24.1396 18.7507C24.1411 18.3008 24.1416 17.85 24.1338 17.3989L23.903 17.4029ZM23.9374 17.1346C23.9137 17.2199 23.9013 17.3098 23.903 17.403L24.1338 17.3989C24.1325 17.3289 24.1417 17.2612 24.1598 17.1965L23.9374 17.1346ZM24.0504 16.8772C23.9974 16.9559 23.9563 17.0438 23.9357 17.1418L24.1615 17.1893C24.175 17.1251 24.2024 17.0645 24.2417 17.0063L24.0504 16.8772ZM24.8906 16.3207C24.5694 16.3624 24.2327 16.5754 24.0473 16.8821L24.2448 17.0015C24.3943 16.7541 24.6697 16.5821 24.9203 16.5496L24.8906 16.3207ZM25.9459 16.6415C25.6659 16.3579 25.2896 16.269 24.8906 16.3207L24.9203 16.5496C25.2666 16.5047 25.5643 16.5834 25.7817 16.8036L25.9459 16.6415Z" fill="url(#paint2_linear_14870_222061)" mask="url(#path-8-inside-1_14870_222061)"/>
<defs>
<linearGradient id="paint0_linear_14870_222061" x1="20.9604" y1="8.96142" x2="20.9604" y2="32.0385" gradientUnits="userSpaceOnUse">
<stop stop-color="#FEE197"/>
<stop offset="0.453125" stop-color="#FFC93F"/>
<stop offset="1" stop-color="#E29A2A"/>
</linearGradient>
<linearGradient id="paint1_linear_14870_222061" x1="21.0178" y1="16.5967" x2="21.0178" y2="25.775" gradientUnits="userSpaceOnUse">
<stop stop-color="#C67E0E" stop-opacity="0"/>
<stop offset="0.761026" stop-color="#CE640D"/>
</linearGradient>
<linearGradient id="paint2_linear_14870_222061" x1="21.212" y1="25.591" x2="20.9649" y2="15.5965" gradientUnits="userSpaceOnUse">
<stop stop-color="#DDA81F"/>
<stop offset="0.65324" stop-color="#FEB83D"/>
<stop offset="1" stop-color="white"/>
</linearGradient>
</defs>
</svg>
