<svg width="24" height="24" viewBox="0 0 24 24" fill="none" xmlns="http://www.w3.org/2000/svg">
<path d="M9.5999 10.8C11.5881 10.8 13.1999 9.1882 13.1999 7.19998C13.1999 5.21175 11.5881 3.59998 9.5999 3.59998C7.61168 3.59998 5.9999 5.21175 5.9999 7.19998C5.9999 9.1882 7.61168 10.8 9.5999 10.8Z" fill="#030903"/>
<path d="M9.5999 13.2C13.5764 13.2 16.7999 16.4235 16.7999 20.4H2.3999C2.3999 16.4235 5.62345 13.2 9.5999 13.2Z" fill="#030903"/>
<path d="M19.1999 8.39998C19.1999 7.73723 18.6626 7.19998 17.9999 7.19998C17.3372 7.19998 16.7999 7.73723 16.7999 8.39998V9.59998H15.5999C14.9372 9.59998 14.3999 10.1372 14.3999 10.8C14.3999 11.4627 14.9372 12 15.5999 12H16.7999V13.2C16.7999 13.8627 17.3372 14.4 17.9999 14.4C18.6626 14.4 19.1999 13.8627 19.1999 13.2V12H20.3999C21.0626 12 21.5999 11.4627 21.5999 10.8C21.5999 10.1372 21.0626 9.59998 20.3999 9.59998H19.1999V8.39998Z" fill="#030903"/>
</svg>
