<svg width="24" height="24" viewBox="0 0 24 24" fill="none" xmlns="http://www.w3.org/2000/svg">
<path d="M2.3999 7.20005C2.3999 5.87457 3.47442 4.80005 4.7999 4.80005H11.9999C13.3254 4.80005 14.3999 5.87457 14.3999 7.20005V16.8C14.3999 18.1255 13.3254 19.2 11.9999 19.2H4.7999C3.47442 19.2 2.3999 18.1255 2.3999 16.8V7.20005Z" fill="#030903"/>
<path d="M17.4632 8.52674C17.0567 8.73001 16.7999 9.14552 16.7999 9.60005V14.4001C16.7999 14.8546 17.0567 15.2701 17.4632 15.4734L19.8632 16.6734C20.2352 16.8594 20.677 16.8395 21.0308 16.6208C21.3846 16.4022 21.5999 16.0159 21.5999 15.6001V8.40005C21.5999 7.98416 21.3846 7.59792 21.0308 7.37927C20.677 7.16062 20.2352 7.14074 19.8632 7.32674L17.4632 8.52674Z" fill="#030903"/>
</svg>
