<svg width="25" height="24" viewBox="0 0 25 24" fill="none" xmlns="http://www.w3.org/2000/svg">
<path d="M6.09998 3V6H3.09998V3H6.09998ZM7.59998 21V18C7.59998 17.6022 7.44194 17.2206 7.16064 16.9393C6.87933 16.658 6.4978 16.5 6.09998 16.5H3.09998C2.70215 16.5 2.32062 16.658 2.03932 16.9393C1.75801 17.2206 1.59998 17.6022 1.59998 18V21C1.59998 21.3978 1.75801 21.7794 2.03932 22.0607C2.32062 22.342 2.70215 22.5 3.09998 22.5H6.09998C6.4978 22.5 6.87933 22.342 7.16064 22.0607C7.44194 21.7794 7.59998 21.3978 7.59998 21ZM7.59998 13.5V10.5C7.59998 10.1022 7.44194 9.72064 7.16064 9.43934C6.87933 9.15804 6.4978 9 6.09998 9H3.09998C2.70215 9 2.32062 9.15804 2.03932 9.43934C1.75801 9.72064 1.59998 10.1022 1.59998 10.5V13.5C1.59998 13.8978 1.75801 14.2794 2.03932 14.5607C2.32062 14.842 2.70215 15 3.09998 15H6.09998C6.4978 15 6.87933 14.842 7.16064 14.5607C7.44194 14.2794 7.59998 13.8978 7.59998 13.5ZM7.59998 6V3C7.59998 2.60218 7.44194 2.22064 7.16064 1.93934C6.87933 1.65804 6.4978 1.5 6.09998 1.5H3.09998C2.70215 1.5 2.32062 1.65804 2.03932 1.93934C1.75801 2.22064 1.59998 2.60218 1.59998 3V6C1.59998 6.39782 1.75801 6.77936 2.03932 7.06066C2.32062 7.34196 2.70215 7.5 3.09998 7.5H6.09998C6.4978 7.5 6.87933 7.34196 7.16064 7.06066C7.44194 6.77936 7.59998 6.39782 7.59998 6ZM15.1 21V18C15.1 17.6022 14.9419 17.2206 14.6606 16.9393C14.3793 16.658 13.9978 16.5 13.6 16.5H10.6C10.2022 16.5 9.82062 16.658 9.53932 16.9393C9.25801 17.2206 9.09998 17.6022 9.09998 18V21C9.09998 21.3978 9.25801 21.7794 9.53932 22.0607C9.82062 22.342 10.2022 22.5 10.6 22.5H13.6C13.9978 22.5 14.3793 22.342 14.6606 22.0607C14.9419 21.7794 15.1 21.3978 15.1 21ZM15.1 13.5V10.5C15.1 10.1022 14.9419 9.72064 14.6606 9.43934C14.3793 9.15804 13.9978 9 13.6 9H10.6C10.2022 9 9.82062 9.15804 9.53932 9.43934C9.25801 9.72064 9.09998 10.1022 9.09998 10.5V13.5C9.09998 13.8978 9.25801 14.2794 9.53932 14.5607C9.82062 14.842 10.2022 15 10.6 15H13.6C13.9978 15 14.3793 14.842 14.6606 14.5607C14.9419 14.2794 15.1 13.8978 15.1 13.5ZM15.1 6V3C15.1 2.60218 14.9419 2.22064 14.6606 1.93934C14.3793 1.65804 13.9978 1.5 13.6 1.5H10.6C10.2022 1.5 9.82062 1.65804 9.53932 1.93934C9.25801 2.22064 9.09998 2.60218 9.09998 3V6C9.09998 6.39782 9.25801 6.77936 9.53932 7.06066C9.82062 7.34196 10.2022 7.5 10.6 7.5H13.6C13.9978 7.5 14.3793 7.34196 14.6606 7.06066C14.9419 6.77936 15.1 6.39782 15.1 6ZM13.6 3V6H10.6V3H13.6ZM21.1 3V6H18.1V3H21.1ZM6.09998 10.5V13.5H3.09998V10.5H6.09998ZM13.6 10.5V13.5H10.6V10.5H13.6ZM21.1 10.5H18.1V13.5H21.1V10.5ZM6.09998 18V21H3.09998V18H6.09998ZM13.6 18V21H10.6V18H13.6ZM21.1 18V21H18.1V18H21.1ZM18.1 1.5C17.7022 1.5 17.3206 1.65804 17.0393 1.93934C16.758 2.22064 16.6 2.60218 16.6 3V6C16.6 6.39782 16.758 6.77936 17.0393 7.06066C17.3206 7.34196 17.7022 7.5 18.1 7.5H21.1C21.4978 7.5 21.8793 7.34196 22.1606 7.06066C22.4419 6.77936 22.6 6.39782 22.6 6V3C22.6 2.60218 22.4419 2.22064 22.1606 1.93934C21.8793 1.65804 21.4978 1.5 21.1 1.5H18.1ZM16.6 10.5C16.6 10.1022 16.758 9.72064 17.0393 9.43934C17.3206 9.15804 17.7022 9 18.1 9H21.1C21.4978 9 21.8793 9.15804 22.1606 9.43934C22.4419 9.72064 22.6 10.1022 22.6 10.5V13.5C22.6 13.8978 22.4419 14.2794 22.1606 14.5607C21.8793 14.842 21.4978 15 21.1 15H18.1C17.7022 15 17.3206 14.842 17.0393 14.5607C16.758 14.2794 16.6 13.8978 16.6 13.5V10.5ZM18.1 16.5C17.7022 16.5 17.3206 16.658 17.0393 16.9393C16.758 17.2206 16.6 17.6022 16.6 18V21C16.6 21.3978 16.758 21.7794 17.0393 22.0607C17.3206 22.342 17.7022 22.5 18.1 22.5H21.1C21.4978 22.5 21.8793 22.342 22.1606 22.0607C22.4419 21.7794 22.6 21.3978 22.6 21V18C22.6 17.6022 22.4419 17.2206 22.1606 16.9393C21.8793 16.658 21.4978 16.5 21.1 16.5H18.1Z" fill="white"/>
</svg>
