<svg width="30" height="30" viewBox="0 0 30 30" fill="none" xmlns="http://www.w3.org/2000/svg">
<g opacity="0.35">
<path d="M14.9284 5.21289C14.7738 5.21918 14.6191 5.23806 14.4645 5.27582H14.4521L2.69466 8.7496C1.68034 9.03908 1 10.0082 1 11.0843V23.702C1 25.0487 2.04525 26.2129 3.375 26.2129H17.625C18.9486 26.2129 20 25.055 20 23.702V12.6136C20 11.2542 18.9548 10.0963 17.625 10.0963H3.82031L14.848 6.8365H14.8542C15.015 6.79245 15.0583 6.82392 15.1201 6.88056C15.1758 6.93719 15.25 7.06305 15.25 7.26443V8.4727H16.8333V7.26443C16.8333 6.6603 16.6107 6.08133 16.1715 5.68487C15.8499 5.3891 15.3984 5.21289 14.9284 5.21289ZM3.375 11.7073H17.625C18.0456 11.7073 18.4167 12.0786 18.4167 12.6136V23.702C18.4167 24.2306 18.0456 24.6019 17.625 24.6019H3.375C2.95443 24.6019 2.58333 24.2306 2.58333 23.702V12.6136C2.58333 12.0786 2.95443 11.7073 3.375 11.7073ZM15.25 16.5278C14.3779 16.5278 13.6667 17.2515 13.6667 18.1389C13.6667 19.0262 14.3779 19.7499 15.25 19.7499C16.1221 19.7499 16.8333 19.0262 16.8333 18.1389C16.8333 17.2515 16.1221 16.5278 15.25 16.5278Z" fill="#A2A3A9"/>
<path d="M23.7259 3.10106C23.7719 2.96631 23.9625 2.96631 24.0086 3.10106L24.3807 4.18934C24.615 4.87439 25.153 5.41247 25.8381 5.64671L26.9264 6.01884C27.0611 6.06491 27.0611 6.25548 26.9264 6.30156L25.8381 6.67369C25.153 6.90793 24.615 7.44601 24.3807 8.13105L24.0086 9.21934C23.9625 9.35408 23.7719 9.35408 23.7259 9.21934L23.3537 8.13105C23.1195 7.44601 22.5814 6.90793 21.8964 6.67368L20.8081 6.30156C20.6733 6.25548 20.6733 6.06491 20.8081 6.01884L21.8964 5.64671C22.5814 5.41247 23.1195 4.87438 23.3537 4.18934L23.7259 3.10106Z" fill="white"/>
<path d="M26.3106 9.40116C26.3382 9.29336 26.4526 9.29336 26.4802 9.40116L26.7035 10.2718C26.844 10.8198 27.1669 11.2503 27.5779 11.4377L28.2309 11.7354C28.3117 11.7722 28.3117 11.9247 28.2309 11.9616L27.5779 12.2593C27.1669 12.4467 26.844 12.8771 26.7035 13.4252L26.4802 14.2958C26.4526 14.4036 26.3382 14.4036 26.3106 14.2958L26.0873 13.4252C25.9467 12.8771 25.6239 12.4467 25.2129 12.2593L24.5599 11.9616C24.4791 11.9247 24.4791 11.7722 24.5599 11.7354L25.2129 11.4377C25.6239 11.2503 25.9467 10.8198 26.0873 10.2718L26.3106 9.40116Z" fill="white"/>
</g>
</svg>
