<svg width="32" height="28" viewBox="0 0 32 28" fill="none" xmlns="http://www.w3.org/2000/svg">
<path d="M6.47801 7.99573L7.0932 7.81397L7.26403 8.99446H6.875C6.29767 8.99446 5.81747 9.26464 5.5 9.67182V9.37144C5.5 8.7027 5.92079 8.1548 6.4691 7.99831L6.46911 7.99836L6.47801 7.99573ZM18.1667 16.426C18.1667 16.0745 18.4465 15.815 18.75 15.815C19.0535 15.815 19.3333 16.0745 19.3333 16.426C19.3333 16.7774 19.0535 17.037 18.75 17.037C18.4465 17.037 18.1667 16.7774 18.1667 16.426Z" fill="#A2A3A9" stroke="#A2A3A9" stroke-width="2"/>
<path opacity="0.45" d="M27.0188 0.101059C27.0649 -0.0336865 27.2555 -0.0336864 27.3016 0.101059L27.6737 1.18934C27.9079 1.87439 28.446 2.41247 29.1311 2.64671L30.2193 3.01884C30.3541 3.06491 30.3541 3.25548 30.2193 3.30156L29.1311 3.67369C28.446 3.90793 27.9079 4.44601 27.6737 5.13105L27.3016 6.21934C27.2555 6.35408 27.0649 6.35408 27.0188 6.21934L26.6467 5.13105C26.4125 4.44601 25.8744 3.90793 25.1893 3.67368L24.1011 3.30156C23.9663 3.25548 23.9663 3.06491 24.1011 3.01884L25.1893 2.64671C25.8744 2.41247 26.4125 1.87438 26.6467 1.18934L27.0188 0.101059Z" fill="#AAAAAA"/>
<path opacity="0.35" d="M29.6043 6.40116C29.6319 6.29336 29.7463 6.29336 29.7739 6.40116L29.9972 7.27179C30.1377 7.81982 30.4606 8.25028 30.8716 8.43768L31.5246 8.73538C31.6054 8.77224 31.6054 8.9247 31.5246 8.96156L30.8716 9.25926C30.4606 9.44666 30.1377 9.87712 29.9972 10.4252L29.7739 11.2958C29.7463 11.4036 29.6319 11.4036 29.6043 11.2958L29.381 10.4252C29.2404 9.87712 28.9176 9.44666 28.5066 9.25926L27.8536 8.96156C27.7728 8.9247 27.7728 8.77224 27.8536 8.73538L28.5066 8.43768C28.9176 8.25028 29.2404 7.81982 29.381 7.27179L29.6043 6.40116Z" fill="#AAAAAA"/>
</svg>
