<svg width="513" height="513" viewBox="0 0 513 513" fill="none" xmlns="http://www.w3.org/2000/svg">
<path opacity="0.3" d="M256.755 512.49C240.405 512.49 226.332 489.841 210.92 486.759C194.972 483.542 173.395 499.088 158.653 493.057C143.643 486.893 139.488 460.625 126.22 451.645C112.818 442.666 86.9523 448.697 75.5607 437.439C64.169 426.048 70.334 400.182 61.3547 386.78C52.5094 373.512 26.2415 369.224 19.9426 354.347C13.9117 339.605 29.324 318.162 26.2416 302.08C23.1591 286.534 0.509815 272.595 0.509815 256.245C0.509816 239.895 23.1591 225.823 26.2416 210.41C29.458 194.462 13.9117 172.885 19.9426 158.143C26.1075 143.133 52.3754 138.978 61.3547 125.71C70.334 112.308 64.3031 86.4425 75.5607 75.0509C86.9523 63.6592 112.818 69.8241 126.22 60.8448C139.488 51.9996 143.777 25.7317 158.653 19.4328C173.395 13.4019 194.838 28.8142 210.92 25.7317C226.467 22.6493 240.405 -1.19155e-05 256.755 -1.12008e-05C273.105 -1.04861e-05 287.177 22.6493 302.59 25.7317C318.538 28.9482 340.115 13.4019 354.857 19.4328C369.867 25.5977 374.022 51.8655 387.29 60.8448C400.692 69.8241 426.557 63.7932 437.949 75.0509C449.341 86.4425 443.176 112.308 452.155 125.71C461 138.978 487.268 143.267 493.567 158.143C499.598 172.885 484.186 194.328 487.268 210.41C490.351 225.957 513 239.895 513 256.245C513 272.596 490.351 286.668 487.268 302.08C484.052 318.028 499.598 339.605 493.567 354.347C487.402 369.358 461.134 373.512 452.155 386.78C443.176 400.182 449.207 426.048 437.949 437.439C426.557 448.831 400.692 442.666 387.29 451.645C374.022 460.491 369.733 486.759 354.857 493.057C340.115 499.088 318.672 483.676 302.59 486.759C287.043 489.841 273.105 512.49 256.755 512.49Z" fill="url(#paint0_linear_7183_1875)"/>
<path d="M187.939 243.403C187.323 241.532 184.677 241.532 184.061 243.403L182.414 248.414L177.403 250.061C175.532 250.677 175.532 253.323 177.403 253.939L182.414 255.586L184.061 260.597C184.677 262.468 187.323 262.468 187.939 260.597L189.586 255.586L194.597 253.939C196.468 253.323 196.468 250.677 194.597 250.061L189.586 248.414L187.939 243.403Z" fill="url(#paint1_linear_7183_1875)"/>
<path d="M370.551 109.123C370.059 107.626 367.941 107.626 367.449 109.123L366.131 113.131L362.123 114.449C360.626 114.941 360.626 117.059 362.123 117.551L366.131 118.869L367.449 122.877C367.941 124.374 370.059 124.374 370.551 122.877L371.869 118.869L375.877 117.551C377.374 117.059 377.374 114.941 375.877 114.449L371.869 113.131L370.551 109.123Z" fill="url(#paint2_linear_7183_1875)"/>
<path fill-rule="evenodd" clip-rule="evenodd" d="M204.402 116.502C212.634 114.621 228.344 112.5 257.5 112.5C286.656 112.5 302.366 114.621 310.599 116.502C317.646 118.111 321.663 124.082 322.41 130.493C323.335 138.422 324.531 151.703 324.531 167.4C324.531 167.994 324.529 168.585 324.526 169.173C324.361 198.039 309.196 225.027 283.671 238.635C279.101 241.072 274.463 243.259 270.085 244.846C265.763 246.412 261.413 247.5 257.5 247.5C253.587 247.5 249.237 246.412 244.915 244.846C240.537 243.259 235.899 241.072 231.329 238.635C205.804 225.027 190.638 198.039 190.474 169.173C190.47 168.585 190.469 167.994 190.469 167.4C190.469 151.703 191.665 138.422 192.59 130.493C193.337 124.082 197.354 118.111 204.402 116.502ZM293.684 160.871C295.283 158.401 295.67 155.199 293.938 152.821C291.807 149.894 289.115 147.848 286.746 146.469C283.532 144.596 279.68 146.023 277.542 149.081C264.484 167.75 256.354 179.869 256.354 179.869C256.354 179.869 251.466 173.749 243.338 164.948C240.518 161.894 235.94 161.281 232.816 164.019C231.127 165.499 229.293 167.326 227.666 169.432C225.588 172.122 226.028 175.846 228.153 178.498C236.191 188.529 243.955 196.723 249.51 202.237C254.014 206.708 261.071 206.338 265.033 201.373C271.083 193.794 280.776 180.815 293.684 160.871Z" fill="white" fill-opacity="0.01"/>
<path fill-rule="evenodd" clip-rule="evenodd" d="M204.402 116.502C212.634 114.621 228.344 112.5 257.5 112.5C286.656 112.5 302.366 114.621 310.599 116.502C317.646 118.111 321.663 124.082 322.41 130.493C323.335 138.422 324.531 151.703 324.531 167.4C324.531 167.994 324.529 168.585 324.526 169.173C324.361 198.039 309.196 225.027 283.671 238.635C279.101 241.072 274.463 243.259 270.085 244.846C265.763 246.412 261.413 247.5 257.5 247.5C253.587 247.5 249.237 246.412 244.915 244.846C240.537 243.259 235.899 241.072 231.329 238.635C205.804 225.027 190.638 198.039 190.474 169.173C190.47 168.585 190.469 167.994 190.469 167.4C190.469 151.703 191.665 138.422 192.59 130.493C193.337 124.082 197.354 118.111 204.402 116.502ZM293.684 160.871C295.283 158.401 295.67 155.199 293.938 152.821C291.807 149.894 289.115 147.848 286.746 146.469C283.532 144.596 279.68 146.023 277.542 149.081C264.484 167.75 256.354 179.869 256.354 179.869C256.354 179.869 251.466 173.749 243.338 164.948C240.518 161.894 235.94 161.281 232.816 164.019C231.127 165.499 229.293 167.326 227.666 169.432C225.588 172.122 226.028 175.846 228.153 178.498C236.191 188.529 243.955 196.723 249.51 202.237C254.014 206.708 261.071 206.338 265.033 201.373C271.083 193.794 280.776 180.815 293.684 160.871Z" fill="url(#paint3_linear_7183_1875)"/>
<path d="M348.102 71.2452C347.117 68.2516 342.883 68.2516 341.898 71.2452L339.262 79.2616L331.245 81.8982C328.252 82.8826 328.252 87.1174 331.245 88.1018L339.262 90.7383L341.898 98.7549C342.883 101.748 347.117 101.748 348.102 98.7549L350.738 90.7383L358.755 88.1018C361.748 87.1174 361.748 82.8826 358.755 81.8982L350.738 79.2616L348.102 71.2452Z" fill="url(#paint4_linear_7183_1875)"/>
<defs>
<linearGradient id="paint0_linear_7183_1875" x1="256.755" y1="15.1239" x2="260.252" y2="300.64" gradientUnits="userSpaceOnUse">
<stop stop-color="#00A84E"/>
<stop offset="1" stop-color="#00A84E" stop-opacity="0"/>
</linearGradient>
<linearGradient id="paint1_linear_7183_1875" x1="186" y1="242" x2="186" y2="262" gradientUnits="userSpaceOnUse">
<stop offset="0.213542" stop-color="#00B569"/>
<stop offset="1" stop-color="#0C9A45" stop-opacity="0.82"/>
</linearGradient>
<linearGradient id="paint2_linear_7183_1875" x1="369" y1="108" x2="369" y2="124" gradientUnits="userSpaceOnUse">
<stop offset="0.213542" stop-color="#00B569"/>
<stop offset="1" stop-color="#0C9A45" stop-opacity="0.82"/>
</linearGradient>
<linearGradient id="paint3_linear_7183_1875" x1="257.5" y1="112.5" x2="257.5" y2="247.5" gradientUnits="userSpaceOnUse">
<stop offset="0.213542" stop-color="#00A84E"/>
<stop offset="1" stop-color="#3BE756" stop-opacity="0.58"/>
</linearGradient>
<linearGradient id="paint4_linear_7183_1875" x1="345" y1="69" x2="345" y2="101" gradientUnits="userSpaceOnUse">
<stop offset="0.213542" stop-color="#00B569"/>
<stop offset="1" stop-color="#0C9A45" stop-opacity="0.82"/>
</linearGradient>
</defs>
</svg>
