<svg width="513" height="513" viewBox="0 0 513 513" fill="none" xmlns="http://www.w3.org/2000/svg">
<path opacity="0.3" d="M256.245 512.49C239.895 512.49 225.823 489.841 210.411 486.759C194.462 483.542 172.885 499.088 158.143 493.057C143.133 486.893 138.978 460.625 125.71 451.645C112.308 442.666 86.4426 448.697 75.0509 437.439C63.6593 426.048 69.8242 400.182 60.8449 386.78C51.9996 373.512 25.7318 369.224 19.4328 354.347C13.402 339.605 28.8142 318.162 25.7318 302.08C22.6494 286.534 4.91196e-05 272.595 4.98343e-05 256.245C5.0549e-05 239.895 22.6494 225.823 25.7318 210.41C28.9483 194.462 13.402 172.885 19.4329 158.143C25.5977 143.133 51.8656 138.978 60.8449 125.71C69.8242 112.308 63.7933 86.4425 75.0509 75.0509C86.4426 63.6592 112.308 69.8241 125.71 60.8448C138.978 51.9996 143.267 25.7317 158.143 19.4328C172.885 13.4019 194.328 28.8142 210.411 25.7317C225.957 22.6493 239.895 -1.19155e-05 256.245 -1.12008e-05C272.596 -1.04861e-05 286.668 22.6493 302.08 25.7317C318.028 28.9482 339.605 13.4019 354.347 19.4328C369.358 25.5977 373.512 51.8655 386.78 60.8448C400.182 69.8241 426.048 63.7932 437.439 75.0509C448.831 86.4425 442.666 112.308 451.645 125.71C460.491 138.978 486.759 143.267 493.057 158.143C499.088 172.885 483.676 194.328 486.759 210.41C489.841 225.957 512.49 239.895 512.49 256.245C512.49 272.596 489.841 286.668 486.759 302.08C483.542 318.028 499.088 339.605 493.057 354.347C486.893 369.358 460.625 373.512 451.645 386.78C442.666 400.182 448.697 426.048 437.439 437.439C426.048 448.831 400.182 442.666 386.78 451.645C373.512 460.491 369.223 486.759 354.347 493.057C339.605 499.088 318.162 483.676 302.08 486.759C286.534 489.841 272.596 512.49 256.245 512.49Z" fill="url(#paint0_linear_7183_1902)"/>
<defs>
<linearGradient id="paint0_linear_7183_1902" x1="256.245" y1="15.1239" x2="259.742" y2="300.64" gradientUnits="userSpaceOnUse">
<stop stop-color="#00A84E"/>
<stop offset="1" stop-color="#00A84E" stop-opacity="0"/>
</linearGradient>
</defs>
</svg>
