<svg width="24" height="24" viewBox="0 0 24 24" fill="none" xmlns="http://www.w3.org/2000/svg">
<path d="M13.9163 9.69389C13.9163 11.098 13.9013 12.5021 13.9163 13.9062C13.9312 14.8921 13.0499 15.6688 12.2433 15.7734C11.4367 15.8779 10.7197 15.6539 10.2417 14.9966C10.0177 14.6979 9.88322 14.3394 9.86828 13.951C9.83841 11.098 9.85334 8.25991 9.85334 5.40689C9.85334 4.51066 10.8243 3.55467 11.6608 3.62936C12.1238 3.65923 12.5869 3.58455 13.0051 3.86835C13.5877 4.27166 13.9312 4.79446 13.9312 5.52639C13.9163 6.91556 13.9163 8.30472 13.9163 9.69389Z" fill="black"/>
<path d="M21.3996 14.2353C21.3996 16.5356 20.3839 18.597 18.7856 19.9264C18.6213 20.0608 18.4719 20.1803 18.3076 20.2998C18.1284 20.4193 17.9491 20.5388 17.7549 20.6434C17.5159 20.733 17.262 20.7629 16.9782 20.748C16.4255 20.7031 15.9475 20.509 15.604 20.1505C15.3052 19.8069 15.126 19.3737 15.126 18.8808C15.126 18.4924 15.2455 18.119 15.4397 17.8202C15.4994 17.7456 15.5741 17.6709 15.6338 17.6111C15.7384 17.5215 15.843 17.4169 15.9326 17.3124C16.545 16.6701 16.9782 15.8933 17.2023 15.027C17.2769 14.7282 17.3367 14.3996 17.3367 14.0859C17.3367 13.7573 17.3815 5.98994 17.3815 5.16839C17.3815 5.12358 17.3815 5.0937 17.3964 5.04889C17.5757 4.34684 18.2479 3.70454 18.9051 3.61491C18.9649 3.61491 19.0246 3.59998 19.0694 3.59998C19.0993 3.59998 19.6072 3.61491 19.7715 3.62985C20.5631 3.74935 21.1905 4.36177 21.31 5.04889C21.3548 5.36257 21.3698 5.67626 21.3548 6.00488C21.3847 8.67865 21.3996 14.2353 21.3996 14.2353Z" fill="black"/>
<path d="M2.3999 14.2353C2.3999 16.5356 3.41564 18.597 5.01392 19.9264C5.17823 20.0608 5.32761 20.1803 5.49192 20.2998C5.67116 20.4193 5.85041 20.5388 6.04459 20.6434C6.28359 20.733 6.53752 20.7629 6.82133 20.748C7.37401 20.7031 7.852 20.509 8.19556 20.1505C8.49431 19.8069 8.67355 19.3737 8.67355 18.8808C8.67355 18.4924 8.55405 18.119 8.35987 17.8202C8.30012 17.7456 8.22543 17.6709 8.16569 17.6111C8.06112 17.5215 7.95656 17.4169 7.86694 17.3124C7.25451 16.6701 6.82133 15.8933 6.59727 15.027C6.52259 14.7282 6.46284 14.3996 6.46284 14.0859C6.46284 13.7573 6.41803 5.98994 6.41803 5.16839C6.41803 5.12358 6.41803 5.0937 6.40309 5.04889C6.22384 4.34684 5.55167 3.70454 4.89443 3.61491C4.83468 3.61491 4.77493 3.59998 4.73012 3.59998C4.70024 3.59998 4.19237 3.61491 4.02806 3.62985C3.23639 3.74935 2.60902 4.36177 2.48953 5.04889C2.44471 5.36257 2.42978 5.67626 2.44471 6.00488C2.3999 8.67865 2.3999 14.2353 2.3999 14.2353Z" fill="black"/>
</svg>
