<svg width="500" height="500" viewBox="0 0 500 500" fill="none" xmlns="http://www.w3.org/2000/svg">
    <circle cx="249.994" cy="250.008" r="240.385" fill="url(#paint0_linear_16606_20439)" />
    <circle cx="249.999" cy="249.999" r="178.8" fill="#FEB83D" />
    <circle cx="249.999" cy="249.999" r="178.8" fill="#D08417" />
    <path fill-rule="evenodd" clip-rule="evenodd"
            d="M428.78 252.63C428.793 251.754 428.799 250.877 428.799 249.998C428.799 151.25 348.748 71.1982 249.999 71.1982C151.251 71.1982 71.1992 151.25 71.1992 249.998C71.1992 348.747 151.251 428.798 249.999 428.798C250.878 428.798 251.755 428.792 252.631 428.779C157.771 427.494 81.2691 350.197 81.2691 255.032C81.2691 159.065 159.066 81.2681 255.033 81.2681C350.198 81.2681 427.495 157.77 428.78 252.63Z"
            fill="#CF762C" />
    <path fill-rule="evenodd" clip-rule="evenodd"
            d="M314.832 222.807C314.873 211.778 314.914 200.749 314.721 189.721C314.687 187.78 314.974 185.913 315.522 184.149C315.874 182.769 316.458 181.484 317.215 180.281C320.751 174.099 327.493 169.783 333.783 168.968C341.672 167.945 348.817 169.677 354.138 174.904C357.675 177.791 360.132 181.641 360.937 185.802C361.431 189.298 361.601 192.829 361.446 196.354C361.446 206.443 361.462 216.54 361.477 226.635C361.508 246.823 361.539 267.006 361.446 287.124C361.446 299.494 357.725 311.139 352.258 322.312C346.995 332.804 339.915 342.368 331.316 350.598C325.479 356.317 318.776 360.47 310.113 359.835C299.41 359.066 291.009 353.169 288.353 343.342C286.438 336.218 289.141 329.937 294.669 325.031C303.55 317.406 309.915 307.468 312.985 296.434C313.945 293.035 314.464 289.536 314.529 286.015C314.638 272.385 314.696 258.751 314.755 245.117V245.116V245.114V245.113C314.769 241.8 314.783 238.488 314.798 235.176C314.801 231.053 314.816 226.93 314.832 222.807ZM141.01 222.86C141.051 211.831 141.093 200.802 140.898 189.773C140.834 186.22 141.861 182.915 143.594 180.031C144.195 178.982 144.9 178.006 145.707 177.104C149.49 172.674 154.97 169.684 160.146 169.02C168.471 167.952 175.975 169.891 181.415 175.684C183.355 177.466 184.92 179.591 186.02 181.946C187.249 184.576 187.869 187.429 187.837 190.309C187.724 221.266 187.724 252.227 187.837 283.193C187.662 293.651 190.901 303.901 197.103 312.514C201.172 317.67 205.539 322.604 210.184 327.292C213.261 330.888 214.834 335.449 214.597 340.09C214.36 344.732 212.331 349.125 208.902 352.416C204.437 356.87 198.357 359.514 191.914 359.805C183.946 360.101 177.351 356.85 172.039 351.337C167.405 346.682 163.053 341.778 159.004 336.647C152.998 328.579 148.379 319.643 145.322 310.179C142.187 300.916 140.704 291.213 140.936 281.479C141.078 271.42 141.05 261.354 141.021 251.291C141.009 247.175 140.998 243.06 140.998 238.946C140.998 238.209 140.998 237.472 140.999 236.735H140.975C140.975 232.11 140.992 227.485 141.01 222.86ZM274.828 250.987C274.846 246.429 274.863 241.871 274.863 237.313H274.949C274.947 225.887 274.929 214.46 274.854 203.032C274.872 198.992 274.904 194.952 274.956 190.912C275.049 182.695 271.034 176.961 264.238 172.439C262.596 171.352 260.891 170.743 259.149 170.396C255.489 169.287 251.454 169.058 247.208 169.599C246.489 169.69 245.765 169.826 245.039 170.003C241.243 170.726 237.463 172.898 234.414 175.846C231.763 178.326 229.659 181.41 228.584 184.886C228.094 186.401 227.82 187.946 227.808 189.478C227.799 189.768 227.796 190.059 227.802 190.352L227.81 190.849C227.833 201.162 227.828 211.476 227.822 221.792V221.793V221.793V221.794V221.795C227.811 242.676 227.799 263.561 228.024 284.446C228.276 288.611 229.789 292.617 232.379 295.973C237.938 303.333 246.231 305.845 255.544 304.663C264.856 303.481 275.141 294.909 274.941 283.973C274.745 272.978 274.787 261.982 274.828 250.987Z"
            fill="url(#paint1_linear_16606_20439)" />
    <path fill-rule="evenodd" clip-rule="evenodd"
            d="M142.038 217.498C142.078 206.805 142.118 196.113 141.93 185.42C141.866 181.9 142.907 178.632 144.654 175.793C145.193 174.879 145.815 174.022 146.519 173.223C150.189 168.881 155.539 165.948 160.591 165.3C168.622 164.269 175.864 166.126 181.132 171.676C183.053 173.42 184.6 175.509 185.683 177.826C186.874 180.376 187.476 183.142 187.445 185.935C187.335 215.948 187.335 245.965 187.445 275.987C187.275 286.126 190.415 296.064 196.429 304.414C200.373 309.412 204.607 314.196 209.11 318.742C212.094 322.227 213.619 326.649 213.389 331.149C213.159 335.65 211.192 339.908 207.868 343.099C203.539 347.417 197.644 349.981 191.398 350.263C183.672 350.55 177.279 347.398 172.128 342.053C167.636 337.54 163.417 332.785 159.492 327.811C153.668 319.989 149.19 311.326 146.226 302.15C143.187 293.169 141.749 283.762 141.974 274.325C142.112 264.573 142.084 254.814 142.056 245.058C142.045 241.067 142.034 237.077 142.034 233.089C142.034 232.376 142.034 231.663 142.035 230.95H142.004C142.004 226.466 142.021 221.982 142.038 217.498ZM275.104 244.802C275.121 240.395 275.137 235.988 275.138 231.581H275.199C275.198 221.228 275.182 210.875 275.121 200.521C275.136 195.867 275.167 191.213 275.228 186.559C275.318 178.592 271.425 173.033 264.837 168.649C263.119 167.513 261.331 166.914 259.504 166.593C256.056 165.614 252.276 165.425 248.304 165.931C247.792 165.996 247.276 166.085 246.759 166.195C242.711 166.815 238.639 169.172 235.47 172.401C232.857 174.973 230.848 178.168 229.97 181.755C229.777 182.517 229.643 183.285 229.573 184.053C229.506 184.709 229.477 185.375 229.489 186.051C229.501 186.731 229.513 187.411 229.523 188.091C229.541 197.558 229.536 207.027 229.531 216.497V216.497V216.498V216.498V216.5C229.52 236.744 229.509 256.992 229.726 277.241C229.971 281.279 231.438 285.162 233.949 288.417C239.339 295.552 247.379 297.988 256.407 296.841C265.436 295.695 275.407 287.385 275.213 276.782C275.023 266.122 275.063 255.462 275.104 244.802ZM351.97 171.044C355.413 173.845 357.805 177.586 358.587 181.629C359.066 185.019 359.231 188.442 359.081 191.86C359.081 201.642 359.096 211.431 359.111 221.218V221.222V221.225V221.228C359.141 240.797 359.171 260.361 359.081 279.862C359.081 291.855 355.473 303.145 350.172 313.977C345.07 324.15 338.206 333.422 329.87 341.401C324.21 346.946 317.712 350.972 309.312 350.356C298.936 349.611 290.791 343.894 288.216 334.366C286.36 327.46 288.98 321.371 294.34 316.614C302.95 309.221 309.121 299.586 312.097 288.889C313.028 285.594 313.531 282.201 313.595 278.788C313.7 265.576 313.756 252.361 313.813 239.146L313.813 239.135V239.133V239.132V239.13C313.825 236.403 313.836 233.676 313.848 230.95H313.841C313.841 226.466 313.858 221.982 313.874 217.498C313.914 206.805 313.954 196.113 313.767 185.42C313.732 183.425 314.047 181.511 314.642 179.71C314.951 178.624 315.409 177.598 315.984 176.627C319.354 170.443 326.028 166.106 332.247 165.3C339.89 164.309 346.813 165.985 351.97 171.044Z"
            fill="#FFDF78" />
    <mask id="path-7-inside-1_16606_20439" fill="white">
        <path fill-rule="evenodd" clip-rule="evenodd"
                d="M142.038 217.498C142.078 206.805 142.118 196.113 141.93 185.42C141.866 181.9 142.907 178.632 144.654 175.793C145.193 174.879 145.815 174.022 146.519 173.223C150.189 168.881 155.539 165.948 160.591 165.3C168.622 164.269 175.864 166.126 181.132 171.676C183.053 173.42 184.6 175.509 185.683 177.826C186.874 180.376 187.476 183.142 187.445 185.935C187.335 215.948 187.335 245.965 187.445 275.987C187.275 286.126 190.415 296.064 196.429 304.414C200.373 309.412 204.607 314.196 209.11 318.742C212.094 322.227 213.619 326.649 213.389 331.149C213.159 335.65 211.192 339.908 207.868 343.099C203.539 347.417 197.644 349.981 191.398 350.263C183.672 350.55 177.279 347.398 172.128 342.053C167.636 337.54 163.417 332.785 159.492 327.811C153.668 319.989 149.19 311.326 146.226 302.15C143.187 293.169 141.749 283.762 141.974 274.325C142.112 264.573 142.084 254.814 142.056 245.058C142.045 241.067 142.034 237.077 142.034 233.089C142.034 232.376 142.034 231.663 142.035 230.95H142.004C142.004 226.466 142.021 221.982 142.038 217.498ZM275.104 244.802C275.121 240.395 275.137 235.988 275.138 231.581H275.199C275.198 221.228 275.182 210.875 275.121 200.521C275.136 195.867 275.167 191.213 275.228 186.559C275.318 178.592 271.425 173.033 264.837 168.649C263.119 167.513 261.331 166.914 259.504 166.593C256.056 165.614 252.276 165.425 248.304 165.931C247.792 165.996 247.276 166.085 246.759 166.195C242.711 166.815 238.639 169.172 235.47 172.401C232.857 174.973 230.848 178.168 229.97 181.755C229.777 182.517 229.643 183.285 229.573 184.053C229.506 184.709 229.477 185.375 229.489 186.051C229.501 186.731 229.513 187.411 229.523 188.091C229.541 197.558 229.536 207.027 229.531 216.497V216.497V216.498V216.498V216.5C229.52 236.744 229.509 256.992 229.726 277.241C229.971 281.279 231.438 285.162 233.949 288.417C239.339 295.552 247.379 297.988 256.407 296.841C265.436 295.695 275.407 287.385 275.213 276.782C275.023 266.122 275.063 255.462 275.104 244.802ZM351.97 171.044C355.413 173.845 357.805 177.586 358.587 181.629C359.066 185.019 359.231 188.442 359.081 191.86C359.081 201.642 359.096 211.431 359.111 221.218V221.222V221.225V221.228C359.141 240.797 359.171 260.361 359.081 279.862C359.081 291.855 355.473 303.145 350.172 313.977C345.07 324.15 338.206 333.422 329.87 341.401C324.21 346.946 317.712 350.972 309.312 350.356C298.936 349.611 290.791 343.894 288.216 334.366C286.36 327.46 288.98 321.371 294.34 316.614C302.95 309.221 309.121 299.586 312.097 288.889C313.028 285.594 313.531 282.201 313.595 278.788C313.7 265.576 313.756 252.361 313.813 239.146L313.813 239.135V239.133V239.132V239.13C313.825 236.403 313.836 233.676 313.848 230.95H313.841C313.841 226.466 313.858 221.982 313.874 217.498C313.914 206.805 313.954 196.113 313.767 185.42C313.732 183.425 314.047 181.511 314.642 179.71C314.951 178.624 315.409 177.598 315.984 176.627C319.354 170.443 326.028 166.106 332.247 165.3C339.89 164.309 346.813 165.985 351.97 171.044Z" />
    </mask>
    <path fill-rule="evenodd" clip-rule="evenodd"
            d="M142.038 217.498C142.078 206.805 142.118 196.113 141.93 185.42C141.866 181.9 142.907 178.632 144.654 175.793C145.193 174.879 145.815 174.022 146.519 173.223C150.189 168.881 155.539 165.948 160.591 165.3C168.622 164.269 175.864 166.126 181.132 171.676C183.053 173.42 184.6 175.509 185.683 177.826C186.874 180.376 187.476 183.142 187.445 185.935C187.335 215.948 187.335 245.965 187.445 275.987C187.275 286.126 190.415 296.064 196.429 304.414C200.373 309.412 204.607 314.196 209.11 318.742C212.094 322.227 213.619 326.649 213.389 331.149C213.159 335.65 211.192 339.908 207.868 343.099C203.539 347.417 197.644 349.981 191.398 350.263C183.672 350.55 177.279 347.398 172.128 342.053C167.636 337.54 163.417 332.785 159.492 327.811C153.668 319.989 149.19 311.326 146.226 302.15C143.187 293.169 141.749 283.762 141.974 274.325C142.112 264.573 142.084 254.814 142.056 245.058C142.045 241.067 142.034 237.077 142.034 233.089C142.034 232.376 142.034 231.663 142.035 230.95H142.004C142.004 226.466 142.021 221.982 142.038 217.498ZM275.104 244.802C275.121 240.395 275.137 235.988 275.138 231.581H275.199C275.198 221.228 275.182 210.875 275.121 200.521C275.136 195.867 275.167 191.213 275.228 186.559C275.318 178.592 271.425 173.033 264.837 168.649C263.119 167.513 261.331 166.914 259.504 166.593C256.056 165.614 252.276 165.425 248.304 165.931C247.792 165.996 247.276 166.085 246.759 166.195C242.711 166.815 238.639 169.172 235.47 172.401C232.857 174.973 230.848 178.168 229.97 181.755C229.777 182.517 229.643 183.285 229.573 184.053C229.506 184.709 229.477 185.375 229.489 186.051C229.501 186.731 229.513 187.411 229.523 188.091C229.541 197.558 229.536 207.027 229.531 216.497V216.497V216.498V216.498V216.5C229.52 236.744 229.509 256.992 229.726 277.241C229.971 281.279 231.438 285.162 233.949 288.417C239.339 295.552 247.379 297.988 256.407 296.841C265.436 295.695 275.407 287.385 275.213 276.782C275.023 266.122 275.063 255.462 275.104 244.802ZM351.97 171.044C355.413 173.845 357.805 177.586 358.587 181.629C359.066 185.019 359.231 188.442 359.081 191.86C359.081 201.642 359.096 211.431 359.111 221.218V221.222V221.225V221.228C359.141 240.797 359.171 260.361 359.081 279.862C359.081 291.855 355.473 303.145 350.172 313.977C345.07 324.15 338.206 333.422 329.87 341.401C324.21 346.946 317.712 350.972 309.312 350.356C298.936 349.611 290.791 343.894 288.216 334.366C286.36 327.46 288.98 321.371 294.34 316.614C302.95 309.221 309.121 299.586 312.097 288.889C313.028 285.594 313.531 282.201 313.595 278.788C313.7 265.576 313.756 252.361 313.813 239.146L313.813 239.135V239.133V239.132V239.13C313.825 236.403 313.836 233.676 313.848 230.95H313.841C313.841 226.466 313.858 221.982 313.874 217.498C313.914 206.805 313.954 196.113 313.767 185.42C313.732 183.425 314.047 181.511 314.642 179.71C314.951 178.624 315.409 177.598 315.984 176.627C319.354 170.443 326.028 166.106 332.247 165.3C339.89 164.309 346.813 165.985 351.97 171.044Z"
            fill="#FFE697" />
    <path d="M141.93 185.42L145.295 185.361L145.295 185.359L141.93 185.42ZM142.038 217.498L138.673 217.485L142.038 217.498ZM144.654 175.793L147.52 177.557L147.536 177.53L147.552 177.503L144.654 175.793ZM146.519 173.223L149.043 175.449L149.066 175.423L149.089 175.396L146.519 173.223ZM160.591 165.3L160.162 161.962L160.162 161.962L160.591 165.3ZM181.132 171.676L178.69 173.993L178.777 174.084L178.87 174.169L181.132 171.676ZM185.683 177.826L182.634 179.251L182.634 179.251L185.683 177.826ZM187.445 185.935L184.08 185.899L184.08 185.911L184.08 185.923L187.445 185.935ZM187.445 275.987L190.81 276.043L190.811 276.009L190.811 275.975L187.445 275.987ZM196.429 304.414L193.698 306.38L193.741 306.44L193.787 306.498L196.429 304.414ZM209.11 318.742L211.667 316.553L211.587 316.46L211.501 316.373L209.11 318.742ZM213.389 331.149L216.75 331.321L216.75 331.321L213.389 331.149ZM207.868 343.099L205.537 340.672L205.514 340.694L205.491 340.717L207.868 343.099ZM191.398 350.263L191.523 353.626L191.536 353.626L191.55 353.625L191.398 350.263ZM172.128 342.053L174.552 339.718L174.533 339.698L174.514 339.679L172.128 342.053ZM159.492 327.811L156.792 329.821L156.82 329.859L156.85 329.896L159.492 327.811ZM146.226 302.15L149.428 301.115L149.421 301.093L149.414 301.071L146.226 302.15ZM141.974 274.325L145.338 274.405L145.339 274.389L145.339 274.372L141.974 274.325ZM142.056 245.058L145.422 245.048L142.056 245.058ZM142.035 230.95L145.4 230.953L145.404 227.584H142.035V230.95ZM142.004 230.95L138.639 230.95L138.639 234.315H142.004V230.95ZM275.138 231.581V228.215H271.773L271.772 231.58L275.138 231.581ZM275.104 244.802L271.739 244.789L271.739 244.789L275.104 244.802ZM275.199 231.581V234.946H278.565L278.564 231.58L275.199 231.581ZM275.121 200.521L271.755 200.51L271.755 200.526L271.755 200.541L275.121 200.521ZM275.228 186.559L278.593 186.603L278.593 186.597L275.228 186.559ZM264.837 168.649L266.701 165.847L266.693 165.842L264.837 168.649ZM259.504 166.593L258.585 169.831L258.751 169.878L258.921 169.908L259.504 166.593ZM248.304 165.931L248.729 169.269L248.729 169.269L248.304 165.931ZM246.759 166.195L247.268 169.522L247.367 169.507L247.464 169.486L246.759 166.195ZM235.47 172.401L237.831 174.799L237.851 174.779L237.872 174.759L235.47 172.401ZM229.97 181.755L233.232 182.58L233.236 182.567L233.239 182.555L229.97 181.755ZM229.573 184.053L232.921 184.394L232.922 184.376L232.924 184.358L229.573 184.053ZM229.489 186.051L232.854 185.991L232.854 185.99L229.489 186.051ZM229.523 188.091L232.888 188.084L232.888 188.062L232.888 188.04L229.523 188.091ZM229.531 216.497L226.165 216.495V216.497H229.531ZM229.531 216.5L232.896 216.502V216.5H229.531ZM229.726 277.241L226.361 277.277L226.362 277.361L226.367 277.444L229.726 277.241ZM233.949 288.417L236.634 286.388L236.624 286.374L236.613 286.361L233.949 288.417ZM275.213 276.782L271.848 276.842L271.848 276.844L275.213 276.782ZM358.587 181.629L361.919 181.159L361.907 181.074L361.891 180.99L358.587 181.629ZM351.97 171.044L349.614 173.447L349.725 173.556L349.846 173.655L351.97 171.044ZM359.081 191.86L355.719 191.712L355.716 191.786V191.86H359.081ZM359.111 221.218L362.476 221.218L362.476 221.213L359.111 221.218ZM359.111 221.228H355.745L355.745 221.233L359.111 221.228ZM359.081 279.862L355.716 279.847L355.716 279.855V279.862H359.081ZM350.172 313.977L353.181 315.486L353.188 315.471L353.195 315.457L350.172 313.977ZM329.87 341.401L327.542 338.97L327.528 338.984L327.514 338.997L329.87 341.401ZM309.312 350.356L309.559 347L309.553 347L309.312 350.356ZM288.216 334.366L284.966 335.24L284.967 335.244L288.216 334.366ZM294.34 316.614L292.148 314.06L292.127 314.078L292.106 314.097L294.34 316.614ZM312.097 288.889L308.859 287.974L308.855 287.987L312.097 288.889ZM313.595 278.788L316.959 278.85L316.96 278.833L316.96 278.815L313.595 278.788ZM313.813 239.146L317.178 239.16L317.178 239.16L313.813 239.146ZM313.813 239.135L317.178 239.149V239.135H313.813ZM313.813 239.13L310.448 239.116L310.447 239.123V239.13H313.813ZM313.848 230.95L317.214 230.965L317.229 227.584H313.848V230.95ZM313.841 230.95H310.476V234.315H313.841V230.95ZM313.874 217.498L310.509 217.485L310.509 217.485L313.874 217.498ZM313.767 185.42L317.132 185.361L317.132 185.36L313.767 185.42ZM314.642 179.71L317.838 180.766L317.86 180.699L317.879 180.631L314.642 179.71ZM315.984 176.627L318.88 178.342L318.91 178.29L318.939 178.237L315.984 176.627ZM332.247 165.3L332.68 168.637L332.68 168.637L332.247 165.3ZM138.565 185.479C138.753 196.13 138.713 206.787 138.673 217.485L145.403 217.511C145.444 206.824 145.484 196.095 145.295 185.361L138.565 185.479ZM141.787 174.03C139.748 177.346 138.488 181.239 138.565 185.481L145.295 185.359C145.244 182.561 146.067 179.919 147.52 177.557L141.787 174.03ZM143.994 170.998C143.15 171.956 142.403 172.985 141.755 174.084L147.552 177.503C147.984 176.772 148.48 176.088 149.043 175.449L143.994 170.998ZM160.162 161.962C154.222 162.724 148.126 166.109 143.949 171.051L149.089 175.396C152.252 171.654 156.855 169.172 161.019 168.638L160.162 161.962ZM183.573 169.36C177.39 162.844 168.975 160.831 160.162 161.962L161.019 168.638C168.268 167.708 174.339 169.407 178.69 173.993L183.573 169.36ZM188.732 176.402C187.457 173.673 185.639 171.222 183.393 169.184L178.87 174.169C180.467 175.617 181.744 177.345 182.634 179.251L188.732 176.402ZM190.81 185.972C190.846 182.67 190.135 179.405 188.732 176.402L182.634 179.251C183.614 181.347 184.105 183.614 184.08 185.899L190.81 185.972ZM190.811 275.975C190.701 245.961 190.701 215.952 190.811 185.948L184.08 185.923C183.97 215.944 183.97 245.969 184.08 275.999L190.811 275.975ZM199.16 302.447C193.563 294.676 190.652 285.446 190.81 276.043L184.08 275.93C183.898 286.806 187.267 297.451 193.698 306.38L199.16 302.447ZM211.501 316.373C207.086 311.917 202.936 307.228 199.071 302.329L193.787 306.498C197.81 311.597 202.128 316.475 206.72 321.11L211.501 316.373ZM216.75 331.321C217.024 325.943 215.2 320.68 211.667 316.553L206.554 320.93C208.988 323.774 210.213 327.355 210.028 330.978L216.75 331.321ZM210.198 345.527C214.125 341.757 216.476 336.698 216.75 331.321L210.028 330.978C209.843 334.601 208.258 338.059 205.537 340.672L210.198 345.527ZM191.55 353.625C198.612 353.306 205.307 350.407 210.244 345.482L205.491 340.717C201.77 344.428 196.675 346.656 191.246 346.901L191.55 353.625ZM169.705 344.389C175.402 350.3 182.682 353.954 191.523 353.626L191.273 346.9C184.662 347.145 179.156 344.496 174.552 339.718L169.705 344.389ZM156.85 329.896C160.855 334.972 165.16 339.823 169.743 344.428L174.514 339.679C170.112 335.257 165.978 330.598 162.133 325.726L156.85 329.896ZM143.024 303.184C146.102 312.715 150.752 321.707 156.792 329.821L162.191 325.802C156.585 318.271 152.278 309.937 149.428 301.115L143.024 303.184ZM138.609 274.245C138.375 284.078 139.873 293.876 143.038 303.229L149.414 301.071C146.5 292.461 145.123 283.447 145.338 274.405L138.609 274.245ZM138.691 245.067C138.719 254.828 138.746 264.559 138.609 274.277L145.339 274.372C145.477 264.587 145.449 254.799 145.422 245.048L138.691 245.067ZM138.668 233.089C138.668 237.083 138.68 241.078 138.691 245.067L145.422 245.048C145.41 241.057 145.399 237.072 145.399 233.089H138.668ZM138.669 230.946C138.669 231.66 138.668 232.375 138.668 233.089H145.399C145.399 232.377 145.399 231.665 145.4 230.953L138.669 230.946ZM142.004 234.315H142.035V227.584H142.004V234.315ZM138.673 217.485C138.656 221.968 138.639 226.458 138.639 230.95L145.37 230.95C145.37 226.473 145.387 221.996 145.403 217.511L138.673 217.485ZM271.772 231.58C271.772 235.98 271.755 240.381 271.739 244.789L278.469 244.815C278.486 240.409 278.503 235.995 278.503 231.581L271.772 231.58ZM275.199 228.215H275.138V234.946H275.199V228.215ZM271.755 200.541C271.816 210.885 271.832 221.231 271.834 231.581L278.564 231.58C278.563 221.225 278.547 210.864 278.486 200.501L271.755 200.541ZM271.863 186.515C271.802 191.183 271.77 195.848 271.755 200.51L278.486 200.532C278.501 195.885 278.532 191.243 278.593 186.603L271.863 186.515ZM262.972 171.45C268.883 175.384 271.936 179.986 271.863 186.521L278.593 186.597C278.699 177.199 273.966 170.682 266.701 165.847L262.972 171.45ZM258.921 169.908C260.4 170.168 261.729 170.628 262.98 171.456L266.693 165.842C264.509 164.397 262.263 163.661 260.086 163.278L258.921 169.908ZM248.729 169.269C252.337 168.81 255.65 168.998 258.585 169.831L260.423 163.356C256.462 162.231 252.214 162.041 247.879 162.592L248.729 169.269ZM247.464 169.486C247.891 169.394 248.314 169.322 248.729 169.269L247.879 162.592C247.27 162.67 246.661 162.775 246.054 162.904L247.464 169.486ZM237.872 174.759C240.654 171.924 244.095 170.007 247.268 169.522L246.25 162.869C241.326 163.622 236.624 166.421 233.068 170.044L237.872 174.759ZM233.239 182.555C233.944 179.673 235.585 177.01 237.831 174.799L233.109 170.003C230.129 172.936 227.751 176.663 226.701 180.955L233.239 182.555ZM232.924 184.358C232.977 183.777 233.08 183.182 233.232 182.58L226.707 180.929C226.474 181.852 226.308 182.794 226.221 183.747L232.924 184.358ZM232.854 185.99C232.844 185.45 232.867 184.918 232.921 184.394L226.225 183.711C226.144 184.5 226.11 185.301 226.125 186.113L232.854 185.99ZM232.888 188.04C232.878 187.357 232.866 186.674 232.854 185.991L226.125 186.111C226.137 186.788 226.148 187.464 226.158 188.141L232.888 188.04ZM232.896 216.498C232.901 207.029 232.906 197.556 232.888 188.084L226.157 188.097C226.176 197.56 226.171 207.024 226.165 216.495L232.896 216.498ZM232.896 216.497V216.497H226.165V216.497H232.896ZM232.896 216.498V216.497H226.165V216.498H232.896ZM232.896 216.498V216.498H226.165V216.498H232.896ZM232.896 216.5V216.498H226.165V216.5H232.896ZM233.092 277.205C232.874 256.978 232.885 236.749 232.896 216.502L226.165 216.498C226.154 236.739 226.143 257.006 226.361 277.277L233.092 277.205ZM236.613 286.361C234.507 283.631 233.289 280.391 233.086 277.037L226.367 277.444C226.653 282.167 228.368 286.693 231.284 290.472L236.613 286.361ZM255.983 293.503C247.846 294.536 241.129 292.338 236.634 286.388L231.263 290.445C237.549 298.766 246.912 301.439 256.831 300.18L255.983 293.503ZM271.848 276.844C271.925 281.025 270.002 284.909 266.906 287.961C263.789 291.035 259.704 293.03 255.983 293.503L256.831 300.18C262.139 299.506 267.554 296.774 271.631 292.755C275.73 288.714 278.695 283.142 278.578 276.72L271.848 276.844ZM271.739 244.789C271.698 255.443 271.657 266.14 271.848 276.842L278.578 276.722C278.388 266.105 278.429 255.481 278.469 244.815L271.739 244.789ZM361.891 180.99C360.94 176.072 358.066 171.665 354.094 168.434L349.846 173.655C352.76 176.026 354.67 179.1 355.283 182.269L361.891 180.99ZM362.443 192.007C362.602 188.383 362.427 184.753 361.919 181.159L355.255 182.1C355.704 185.285 355.86 188.501 355.719 191.712L362.443 192.007ZM362.476 221.213C362.461 211.425 362.446 201.639 362.446 191.86H355.716C355.716 201.645 355.731 211.436 355.745 221.223L362.476 221.213ZM362.476 221.222V221.218H355.745V221.222H362.476ZM362.476 221.225V221.222H355.745V221.225H362.476ZM362.476 221.228V221.225H355.745V221.228H362.476ZM362.446 279.878C362.536 260.365 362.506 240.79 362.476 221.223L355.745 221.233C355.775 240.804 355.805 260.358 355.716 279.847L362.446 279.878ZM353.195 315.457C358.629 304.351 362.446 292.541 362.446 279.862H355.716C355.716 291.168 352.316 301.94 347.149 312.498L353.195 315.457ZM332.197 343.832C340.807 335.59 347.903 326.007 353.181 315.486L347.164 312.469C342.237 322.292 335.604 331.253 327.542 338.97L332.197 343.832ZM309.066 353.713C318.852 354.43 326.25 349.659 332.225 343.805L327.514 338.997C322.17 344.233 316.572 347.514 309.559 347L309.066 353.713ZM284.967 335.244C287.986 346.414 297.556 352.886 309.071 353.713L309.553 347C300.317 346.336 293.597 341.375 291.465 333.488L284.967 335.244ZM292.106 314.097C286.042 319.478 282.7 326.81 284.966 335.24L291.466 333.492C290.019 328.11 291.918 323.263 296.574 319.131L292.106 314.097ZM308.855 287.987C306.062 298.027 300.264 307.092 292.148 314.06L296.532 319.167C305.636 311.35 312.18 301.146 315.34 289.791L308.855 287.987ZM310.23 278.725C310.172 281.849 309.711 284.955 308.859 287.974L315.336 289.804C316.345 286.232 316.89 282.553 316.959 278.85L310.23 278.725ZM310.447 239.131C310.391 252.347 310.334 265.556 310.229 278.761L316.96 278.815C317.065 265.595 317.122 252.374 317.178 239.16L310.447 239.131ZM310.448 239.121L310.447 239.132L317.178 239.16L317.178 239.149L310.448 239.121ZM310.447 239.133V239.135H317.178V239.133H310.447ZM310.447 239.132V239.133H317.178V239.132H310.447ZM310.447 239.13V239.132H317.178V239.13H310.447ZM310.483 230.935C310.471 233.662 310.459 236.389 310.448 239.116L317.178 239.145C317.19 236.418 317.202 233.691 317.214 230.965L310.483 230.935ZM313.841 234.315H313.848V227.584H313.841V234.315ZM310.509 217.485C310.492 221.968 310.476 226.458 310.476 230.95H317.206C317.206 226.473 317.223 221.995 317.24 217.51L310.509 217.485ZM310.403 185.479C310.588 196.13 310.549 206.787 310.509 217.485L317.24 217.51C317.279 206.824 317.32 196.096 317.132 185.361L310.403 185.479ZM311.447 178.654C310.739 180.796 310.359 183.087 310.403 185.481L317.132 185.36C317.104 183.763 317.355 182.226 317.838 180.766L311.447 178.654ZM313.088 174.913C312.382 176.105 311.802 177.395 311.405 178.79L317.879 180.631C318.101 179.852 318.436 179.092 318.88 178.342L313.088 174.913ZM331.815 161.962C324.533 162.906 316.917 167.88 313.029 175.017L318.939 178.237C321.79 173.005 327.523 169.306 332.68 168.637L331.815 161.962ZM354.327 168.642C348.257 162.688 340.212 160.874 331.815 161.962L332.68 168.637C339.569 167.745 345.368 169.282 349.614 173.447L354.327 168.642Z"
            fill="url(#paint2_linear_16606_20439)" mask="url(#path-7-inside-1_16606_20439)" />
    <defs>
        <linearGradient id="paint0_linear_16606_20439" x1="249.994" y1="9.62305" x2="249.994"
                y2="490.392" gradientUnits="userSpaceOnUse">
            <stop stop-color="#FEE197" />
            <stop offset="0.453125" stop-color="#FFC93F" />
            <stop offset="1" stop-color="#E29A2A" />
        </linearGradient>
        <linearGradient id="paint1_linear_16606_20439" x1="251.202" y1="168.687" x2="251.202"
                y2="359.899" gradientUnits="userSpaceOnUse">
            <stop stop-color="#C67E0E" stop-opacity="0" />
            <stop offset="0.761026" stop-color="#CE640D" />
        </linearGradient>
        <linearGradient id="paint2_linear_16606_20439" x1="255.33" y1="356.043" x2="250.184"
                y2="147.828" gradientUnits="userSpaceOnUse">
            <stop stop-color="#DDA81F" />
            <stop offset="0.65324" stop-color="#FEB83D" />
            <stop offset="1" stop-color="white" />
        </linearGradient>
    </defs>
</svg>
