<svg width="24" height="24" viewBox="0 0 24 24" fill="none" xmlns="http://www.w3.org/2000/svg">
<path fill-rule="evenodd" clip-rule="evenodd" d="M11.295 5.24555C11.023 5.51316 10.8653 5.8472 10.8653 6.12479C10.8653 6.79829 10.8644 7.47046 10.8635 8.14186C10.8609 10.1503 10.8583 12.1518 10.8793 14.1621C10.891 14.4365 10.986 14.6902 11.1467 14.9045L11.1486 14.9069L11.1504 14.9095C11.4901 15.3765 11.997 15.5541 12.6401 15.4708C12.9147 15.4352 13.227 15.2785 13.4689 15.028C13.7078 14.7808 13.8532 14.469 13.8482 14.137L13.8482 14.1351C13.8387 13.2505 13.8419 12.3634 13.845 11.4798C13.8466 11.0397 13.8481 10.6005 13.8481 10.1629V10.162C13.8481 8.85494 13.8481 7.54526 13.8622 6.2352C13.8616 5.71319 13.6308 5.34099 13.1734 5.02383C13.0568 4.9451 12.9273 4.90922 12.7564 4.89369C12.6679 4.88564 12.5748 4.88351 12.4661 4.88197C12.4556 4.88182 12.4449 4.88167 12.434 4.88153C12.3376 4.88023 12.2283 4.87876 12.1185 4.87168L12.1133 4.87134L12.1081 4.87088C11.8804 4.85055 11.57 4.97498 11.295 5.24555ZM12.1774 4.02952C11.6193 3.98203 11.0809 4.27194 10.7029 4.64378C10.3207 5.01988 10.0211 5.55818 10.0211 6.12479C10.0211 6.79581 10.0202 7.46641 10.0193 8.13689C10.0167 10.1487 10.0141 12.1594 10.0352 14.1772L10.0353 14.1831L10.0355 14.189C10.0529 14.643 10.2102 15.0618 10.4695 15.4085C11.0303 16.1776 11.8732 16.4214 12.7487 16.308C13.2339 16.2451 13.7166 15.9867 14.0761 15.6146C14.4385 15.2394 14.701 14.7214 14.6923 14.1253C14.683 13.2467 14.6861 12.3706 14.6892 11.4911C14.6908 11.0495 14.6923 10.607 14.6923 10.1629C14.6923 8.85399 14.6923 7.54775 14.7064 6.24188L14.7064 6.23962V6.23735C14.7064 5.38229 14.2906 4.77045 13.6522 4.32853L13.6506 4.32741L13.649 4.3263C13.3721 4.13841 13.0869 4.07605 12.8329 4.05295C12.7086 4.04166 12.5862 4.03939 12.4781 4.03785C12.4676 4.0377 12.4573 4.03756 12.4471 4.03742C12.3491 4.03607 12.2629 4.03489 12.1774 4.02952Z" fill="black"/>
<path fill-rule="evenodd" clip-rule="evenodd" d="M19.0069 4.85736C18.8111 4.88956 18.5846 5.00737 18.3813 5.20091C18.1728 5.39943 18.0194 5.64892 17.9575 5.89131L17.9566 5.89499L17.9566 5.89945C17.9566 6.28787 17.946 8.31226 17.9354 10.2757C17.9331 10.7196 17.9307 11.1603 17.9284 11.5784C17.9207 13.0123 17.9143 14.1806 17.9143 14.2992C17.9143 14.6438 17.8493 14.9912 17.7751 15.288L17.7747 15.2897L17.7743 15.2913C17.5461 16.1736 17.1052 16.9662 16.4827 17.6217C16.3897 17.7294 16.2835 17.8358 16.1758 17.9292C16.1269 17.9781 16.0827 18.0233 16.0477 18.0649C15.9144 18.2775 15.832 18.5424 15.832 18.8157C15.832 19.1683 15.9572 19.4766 16.1719 19.7268C16.407 19.9682 16.7471 20.1168 17.1827 20.1532C17.3916 20.1637 17.5614 20.1423 17.7125 20.0899C17.863 20.007 18.0063 19.9121 18.1654 19.806C18.3073 19.7025 18.4384 19.5977 18.5884 19.475C19.9963 18.3033 20.897 16.4814 20.8972 14.4405L20.8965 14.2114C20.8961 14.0634 20.8954 13.8491 20.8946 13.5842C20.8928 13.0542 20.8902 12.3214 20.8866 11.5099C20.8796 9.88653 20.8691 7.94973 20.855 6.69209L20.8549 6.68014L20.8554 6.6682C20.8682 6.38671 20.8556 6.1198 20.818 5.85337C20.7369 5.4044 20.307 4.96132 19.7352 4.86956C19.6661 4.864 19.5287 4.85777 19.3919 4.8527C19.3218 4.8501 19.2555 4.84794 19.2051 4.84643C19.1677 4.8453 19.1433 4.84468 19.1319 4.84439C19.1279 4.84488 19.1229 4.84555 19.1145 4.84668L19.1061 4.84779C19.0858 4.8505 19.0495 4.85535 19.0069 4.85736ZM19.138 4.84372C19.138 4.84372 19.1378 4.84374 19.1374 4.84377ZM21.3193 14.4399L21.7414 14.4388L21.7414 14.4399C21.7414 16.7317 20.7292 18.7925 19.127 20.1251L19.1257 20.1262L19.1243 20.1273C18.9677 20.2554 18.8197 20.374 18.6551 20.4937L18.6481 20.4988L18.6341 20.5081C18.4696 20.6178 18.2868 20.7397 18.0863 20.8476L18.0612 20.8612L18.0344 20.8712C17.743 20.9805 17.4435 21.0123 17.1324 20.996L17.1264 20.9956L17.1205 20.9952C16.5221 20.9467 15.9662 20.7323 15.5554 20.3037L15.5483 20.2963L15.5416 20.2886C15.1976 19.893 14.9878 19.388 14.9878 18.8157C14.9878 18.3652 15.1257 17.934 15.3515 17.5867L15.3628 17.5693L15.3758 17.553C15.4469 17.4642 15.5311 17.3799 15.5846 17.3264L15.6013 17.3098L15.6136 17.2993C15.6957 17.2289 15.7788 17.1457 15.8492 17.0637L15.8565 17.0552L15.8642 17.0471C16.3911 16.4944 16.7634 15.8272 16.9565 15.0816C17.0228 14.8162 17.0701 14.545 17.0701 14.2992C17.0701 14.1781 17.0765 13.0032 17.0843 11.5665C17.0865 11.1503 17.0889 10.7121 17.0913 10.2712C17.1018 8.30561 17.1124 6.28488 17.1124 5.89945C17.1124 5.89765 17.1124 5.89579 17.1124 5.89386C17.1123 5.84895 17.1122 5.76999 17.1427 5.67018C17.2514 5.25607 17.4971 4.87707 17.7992 4.58949C18.1026 4.30062 18.4938 4.07505 18.9126 4.01794L18.941 4.01407H18.9685C18.9688 4.01402 18.9752 4.01358 18.9965 4.01074C18.9978 4.01056 18.9993 4.01036 19.0009 4.01014C19.0117 4.0087 19.0285 4.00644 19.0445 4.00469C19.0635 4.00262 19.092 4 19.1244 4C19.1602 4 19.6522 4.01426 19.8239 4.02987L19.8363 4.031L19.8487 4.03287C20.7595 4.17035 21.5046 4.87436 21.6507 5.71456L21.6518 5.72086L21.6527 5.72719C21.6982 6.04555 21.7136 6.36355 21.6993 6.69438C21.7133 7.95554 21.7238 9.88804 21.7308 11.5063C21.7343 12.3181 21.737 13.0512 21.7387 13.5814C21.7396 13.8464 21.7403 14.0608 21.7407 14.2089L21.7414 14.4388C21.7414 14.4388 21.7414 14.4388 21.3193 14.4399Z" fill="black"/>
<path fill-rule="evenodd" clip-rule="evenodd" d="M4.91751 4.02987C5.08923 4.01426 5.58123 4 5.61702 4C5.6494 4 5.67787 4.00262 5.69687 4.00469C5.71293 4.00644 5.72972 4.0087 5.74045 4.01014C5.74209 4.01036 5.74359 4.01056 5.74492 4.01074C5.76619 4.01358 5.77256 4.01402 5.77284 4.01407H5.80044L5.82882 4.01794C6.24761 4.07505 6.6388 4.30062 6.94222 4.58949C7.24427 4.87707 7.49004 5.25607 7.59866 5.67018C7.6292 5.76999 7.62909 5.84895 7.62903 5.89386C7.62903 5.89578 7.62903 5.89765 7.62903 5.89945C7.62903 6.28488 7.63957 8.30561 7.65013 10.2712C7.65249 10.712 7.65486 11.15 7.65711 11.5661C7.66488 13.0031 7.67124 14.178 7.67124 14.2992C7.67124 14.545 7.71858 14.8162 7.78485 15.0816C7.97798 15.8273 8.35029 16.4945 8.87721 17.0471L8.88492 17.0552L8.8922 17.0637C8.96255 17.1457 9.04574 17.2289 9.12782 17.2993L9.14012 17.3098L9.15674 17.3264C9.21025 17.3799 9.29453 17.4642 9.36563 17.553L9.37861 17.5693L9.38993 17.5867C9.61567 17.934 9.7536 18.3652 9.7536 18.8157C9.7536 19.388 9.54378 19.893 9.19978 20.2886L9.19308 20.2963L9.18601 20.3037C8.77523 20.7323 8.21926 20.9467 7.62093 20.9952L7.61497 20.9956L7.609 20.996C7.29786 21.0123 6.99836 20.9805 6.70697 20.8712L6.68022 20.8612L6.65506 20.8476C6.4546 20.7397 6.27183 20.6178 6.10724 20.5081L6.09329 20.4988L6.08632 20.4937C5.92172 20.374 5.77366 20.2554 5.61706 20.1273L5.61574 20.1262L5.61442 20.1251C4.01224 18.7925 3 16.7317 3 14.4399H3.4221H3.8442C3.8442 16.481 4.74493 18.3032 6.15298 19.475C6.30295 19.5977 6.43414 19.7025 6.57601 19.806C6.73513 19.9121 6.87837 20.007 7.02892 20.0899C7.17997 20.1423 7.3498 20.1637 7.55869 20.1532C7.99432 20.1168 8.33437 19.9682 8.56951 19.7268C8.78417 19.4766 8.9094 19.1683 8.9094 18.8157C8.9094 18.5424 8.82699 18.2775 8.69372 18.0649C8.6587 18.0233 8.61447 17.9781 8.56557 17.9292C8.45793 17.8358 8.35173 17.7294 8.25868 17.6217C7.63622 16.9662 7.19528 16.1736 6.96711 15.2913L6.96669 15.2897L6.96627 15.288C6.89205 14.9912 6.82704 14.6438 6.82704 14.2992C6.82704 14.1806 6.82072 13.0123 6.81297 11.5784C6.81071 11.1603 6.80832 10.7196 6.80594 10.2757C6.79539 8.31226 6.78483 6.28787 6.78483 5.89945L6.78482 5.89499L6.78388 5.89131C6.72199 5.64892 6.56863 5.39943 6.36011 5.20091C6.15682 5.00737 5.93033 4.88956 5.73445 4.85736C5.69192 4.85535 5.65558 4.8505 5.63524 4.84779L5.63334 4.84753C5.631 4.84722 5.62887 4.84694 5.62692 4.84668C5.61847 4.84555 5.61346 4.84488 5.60949 4.84439C5.59808 4.84468 5.57373 4.8453 5.53626 4.84643C5.48592 4.84794 5.41963 4.8501 5.34948 4.8527C5.21269 4.85777 5.07525 4.864 5.00622 4.86956C4.43435 4.96132 4.00453 5.4044 3.92341 5.85337C3.88578 6.1198 3.87318 6.38671 3.88598 6.6682L3.88657 6.68132L3.88635 6.69444C3.8653 7.9505 3.85475 9.886 3.84947 11.5095C3.84684 12.3208 3.84552 13.0534 3.84486 13.5833C3.84453 13.8482 3.84436 14.0624 3.84428 14.2103L3.8442 14.4399C3.8442 14.44 3.8442 14.4399 3.4221 14.4399C3 14.4399 3 14.44 3 14.4399L3.00008 14.2099C3.00017 14.0618 3.00033 13.8474 3.00066 13.5822C3.00132 13.052 3.00264 12.3187 3.00528 11.5067C3.01054 9.88906 3.02104 7.95594 3.04206 6.69318C3.02782 6.36278 3.04324 6.04517 3.08866 5.72719L3.08957 5.72086L3.09066 5.71456C3.23679 4.87436 3.9819 4.17035 4.89273 4.03287L4.90508 4.031L4.91751 4.02987ZM5.60337 4.84372C5.60337 4.84371 5.60356 4.84373 5.60397 4.84377Z" fill="black"/>
</svg>
