<svg width="40" height="40" viewBox="0 0 40 40" fill="none" xmlns="http://www.w3.org/2000/svg">
<circle cx="20" cy="20" r="20" fill="#007637"/>
<g filter="url(#filter0_i_6519_155227)">
<path d="M11.6673 13.667C10.9273 13.667 10.334 14.2603 10.334 15.0003V24.3337C10.334 25.067 10.9273 25.667 11.6673 25.667H18.2807C18.6783 25.667 18.9961 25.3434 19.0433 24.9486C19.1682 23.9036 19.5623 22.9404 20.1548 22.1325C20.4633 21.7119 20.1889 21.0003 19.6673 21.0003C19.3007 21.0003 19.0007 20.7003 19.0007 20.3337C19.0007 19.967 19.3007 19.667 19.6673 19.667H23.6673C23.6846 19.667 23.7019 19.6676 23.7191 19.6689C23.9015 19.6825 24.0875 19.7337 24.2689 19.7109C24.5078 19.681 24.7524 19.667 25.0007 19.667C25.1519 19.667 25.3016 19.6728 25.4497 19.6839C25.9081 19.7183 26.334 19.3792 26.334 18.9196V15.0003C26.334 14.2603 25.734 13.667 25.0007 13.667H11.6673ZM15.0007 16.3337C15.2181 16.3337 15.3845 16.3871 15.5093 16.4573C15.7578 16.5971 16.0483 16.7584 16.2661 16.9425C16.5373 17.1719 16.6673 17.629 16.6673 18.141C16.6673 18.242 16.6561 18.3379 16.64 18.424C16.5982 18.6459 16.676 18.9423 16.6543 19.167C16.654 19.1694 16.6537 19.1718 16.6534 19.1742C16.6094 19.5251 16.2796 20.0104 16.0718 20.2966C15.9147 20.5129 15.834 20.7146 15.834 20.9819V21.0407C15.834 21.1115 15.8423 21.1834 15.8719 21.2477C16.0999 21.7425 16.7585 21.7169 17.2364 22.1928C17.5693 22.5242 17.2107 23.0003 16.741 23.0003H13.2603C12.7906 23.0003 12.432 22.5242 12.7649 22.1928C13.2428 21.7169 13.9014 21.7425 14.1294 21.2477C14.1591 21.1834 14.1673 21.1115 14.1673 21.0407V20.9819C14.1673 20.7146 14.028 20.4472 13.8814 20.2236C13.8792 20.2202 13.8769 20.2168 13.8747 20.2133C13.6852 19.9206 13.3952 19.5311 13.3493 19.1855C13.3485 19.1794 13.3478 19.1732 13.347 19.167C13.325 18.9398 13.4084 18.6467 13.3639 18.4228C13.3464 18.3343 13.334 18.2376 13.334 18.141C13.334 17.1543 13.8207 16.3337 15.0007 16.3337ZM19.6673 17.0003H23.6673C24.034 17.0003 24.334 17.3003 24.334 17.667C24.334 18.0337 24.034 18.3337 23.6673 18.3337H19.6673C19.3007 18.3337 19.0007 18.0337 19.0007 17.667C19.0007 17.3003 19.3007 17.0003 19.6673 17.0003ZM25.0007 21.0003C22.4233 21.0003 20.334 23.0897 20.334 25.667C20.334 28.2443 22.4233 30.3337 25.0007 30.3337C27.578 30.3337 29.6673 28.2443 29.6673 25.667C29.6673 23.0897 27.578 21.0003 25.0007 21.0003ZM27.0007 23.667C27.1712 23.667 27.3417 23.732 27.472 23.8623C27.7327 24.123 27.7327 24.5443 27.472 24.805L24.8053 27.4717C24.6753 27.6017 24.5047 27.667 24.334 27.667C24.1633 27.667 23.9926 27.6017 23.8626 27.4717L22.5293 26.1383C22.2686 25.8777 22.2686 25.4563 22.5293 25.1956C22.79 24.935 23.2113 24.935 23.472 25.1956L23.8249 25.5485C24.106 25.8297 24.5619 25.8297 24.8431 25.5485L26.5293 23.8623C26.6596 23.732 26.8302 23.667 27.0007 23.667Z" fill="#8EFF9D"/>
</g>
<defs>
<filter id="filter0_i_6519_155227" x="10.334" y="13.667" width="19.334" height="16.667" filterUnits="userSpaceOnUse" color-interpolation-filters="sRGB">
<feFlood flood-opacity="0" result="BackgroundImageFix"/>
<feBlend mode="normal" in="SourceGraphic" in2="BackgroundImageFix" result="shape"/>
<feColorMatrix in="SourceAlpha" type="matrix" values="0 0 0 0 0 0 0 0 0 0 0 0 0 0 0 0 0 0 127 0" result="hardAlpha"/>
<feOffset/>
<feGaussianBlur stdDeviation="1.08"/>
<feComposite in2="hardAlpha" operator="arithmetic" k2="-1" k3="1"/>
<feColorMatrix type="matrix" values="0 0 0 0 0.502704 0 0 0 0 0.8875 0 0 0 0 0.469635 0 0 0 1 0"/>
<feBlend mode="normal" in2="shape" result="effect1_innerShadow_6519_155227"/>
</filter>
</defs>
</svg>
