<svg width="22" height="22" viewBox="0 0 22 22" fill="none" xmlns="http://www.w3.org/2000/svg">
<circle cx="10.5998" cy="10.6296" r="10.1921" fill="url(#paint0_linear_15888_14832)"/>
<circle cx="10.6004" cy="10.6317" r="7.58096" fill="#FEB83D"/>
<circle cx="10.6004" cy="10.6317" r="7.58096" fill="#D08417"/>
<path fill-rule="evenodd" clip-rule="evenodd" d="M18.1804 10.7534C18.181 10.7129 18.1813 10.6724 18.1813 10.6317C18.1813 6.44489 14.7872 3.05078 10.6004 3.05078C6.41352 3.05078 3.01941 6.44489 3.01941 10.6317C3.01941 14.8186 6.41352 18.2127 10.6004 18.2127C10.641 18.2127 10.6815 18.2124 10.722 18.2117C6.69525 18.1627 3.44608 14.8832 3.44608 10.8449C3.44608 6.77596 6.74458 3.47745 10.8135 3.47745C14.8519 3.47745 18.1314 6.72662 18.1804 10.7534Z" fill="#CF762C"/>
<path fill-rule="evenodd" clip-rule="evenodd" d="M13.3503 9.48212C13.352 9.01451 13.3538 8.5469 13.3456 8.07929C13.3441 7.99519 13.3569 7.91438 13.3811 7.83812C13.3969 7.77735 13.4234 7.72091 13.4576 7.66823C13.6091 7.41192 13.8908 7.23346 14.1538 7.19937C14.4789 7.15724 14.7743 7.22545 14.9977 7.43288C15.1584 7.55686 15.2704 7.72662 15.306 7.91075C15.3269 8.05898 15.3341 8.20869 15.3276 8.35814C15.3276 8.78537 15.3282 9.21288 15.3289 9.64034L15.3289 9.64207V9.64221V9.64235V9.64249C15.3302 10.4983 15.3315 11.3539 15.3276 12.2067C15.3276 12.7312 15.1698 13.2249 14.938 13.6987C14.7149 14.1435 14.4147 14.549 14.0501 14.898C13.8026 15.1405 13.5184 15.3165 13.1511 15.2896C12.6973 15.257 12.3411 15.007 12.2285 14.5903C12.1473 14.2883 12.2619 14.022 12.4963 13.8139C12.8728 13.4906 13.1427 13.0693 13.2729 12.6015C13.3136 12.4574 13.3356 12.309 13.3383 12.1597C13.3429 11.5818 13.3454 11.0037 13.3479 10.4256C13.3484 10.3072 13.3489 10.1888 13.3494 10.0704H13.3488C13.3488 9.87431 13.3495 9.67821 13.3503 9.48212ZM5.98006 9.48531C5.98182 9.0177 5.98358 8.55008 5.97534 8.08247C5.97261 7.93181 6.01617 7.79169 6.08964 7.6694C6.11926 7.61728 6.15488 7.56934 6.19642 7.52572C6.35597 7.3487 6.57968 7.22973 6.79142 7.20256C7.13112 7.15896 7.43858 7.23349 7.6668 7.45808C7.76201 7.53832 7.8381 7.63721 7.88989 7.74805C7.94199 7.85956 7.96828 7.98053 7.96695 8.10267C7.96215 9.41519 7.96215 10.7279 7.96695 12.0409C7.95951 12.4843 8.09685 12.9189 8.35982 13.284C8.53233 13.5026 8.71748 13.7118 8.91443 13.9106C9.0449 14.0631 9.11158 14.2564 9.10154 14.4532C9.0915 14.6501 9.00545 14.8363 8.86008 14.9758C8.67076 15.1647 8.41296 15.2768 8.13982 15.2891C7.80195 15.3017 7.52235 15.1638 7.29711 14.9301C7.10065 14.7327 6.91613 14.5248 6.74447 14.3073C6.48981 13.9652 6.29396 13.5863 6.16433 13.185C6.03141 12.7923 5.96854 12.3809 5.97837 11.9682C5.98441 11.5417 5.9832 11.1149 5.98198 10.6882C5.98149 10.5137 5.98099 10.3392 5.98099 10.1648L5.98104 10.0736H5.97859C5.97859 9.8775 5.97933 9.6814 5.98006 9.48531ZM11.6545 10.6734C11.6552 10.482 11.656 10.2905 11.656 10.0991H11.659C11.6589 9.63507 11.6582 9.17104 11.6553 8.70699C11.656 8.51343 11.6574 8.31987 11.6599 8.12632C11.6638 7.77793 11.4936 7.53481 11.2055 7.34307C11.1197 7.28635 11.03 7.26027 10.9382 7.24791C10.7968 7.21312 10.6434 7.2076 10.4828 7.22804L10.4694 7.22987C10.0844 7.25408 9.67481 7.65879 9.66121 8.04996C9.66003 8.0691 9.65961 8.08844 9.65996 8.10795L9.66109 8.17522C9.66193 8.59532 9.6617 9.01548 9.66147 9.43568C9.66099 10.321 9.66051 11.2065 9.67002 12.0921C9.68072 12.2687 9.74488 12.4385 9.85467 12.5808C10.0904 12.8929 10.442 12.9994 10.8369 12.9493C11.2317 12.8991 11.6678 12.5357 11.6593 12.072C11.651 11.6058 11.6527 11.1396 11.6545 10.6734Z" fill="url(#paint1_linear_15888_14832)"/>
<path fill-rule="evenodd" clip-rule="evenodd" d="M6.02289 9.25591C6.02459 8.80256 6.0263 8.3492 6.01831 7.89585C6.01012 7.44493 6.42965 7.09151 6.8095 7.04276C7.14579 6.99961 7.44949 7.07584 7.67208 7.30446C7.75799 7.38006 7.82694 7.47168 7.87464 7.57376C7.92515 7.68187 7.95064 7.79915 7.94935 7.91757C7.94469 9.19007 7.94469 10.4628 7.94935 11.7357C7.94213 12.1656 8.07528 12.5869 8.33024 12.9409C8.49748 13.1529 8.67699 13.3557 8.86793 13.5484C8.99443 13.6962 9.05907 13.8837 9.04934 14.0745C9.0396 14.2653 8.95618 14.4459 8.81524 14.5812C8.6317 14.7642 8.38176 14.873 8.11694 14.8849C7.78937 14.8971 7.51831 14.7634 7.29993 14.5368C7.10946 14.3455 6.93057 14.1439 6.76414 13.933C6.51724 13.6013 6.32736 13.234 6.20169 12.845C6.07282 12.4642 6.01187 12.0654 6.0214 11.6652C6.02726 11.2517 6.02608 10.838 6.0249 10.4243C6.02442 10.2551 6.02394 10.086 6.02394 9.91683L6.02399 9.82625H6.02146C6.02146 9.63614 6.02217 9.44603 6.02289 9.25591ZM11.6654 10.4136C11.6661 10.2263 11.6669 10.039 11.6669 9.85173H11.6685C11.6685 9.45126 11.6679 9.05076 11.6659 8.65025C11.6663 8.41489 11.6676 8.17953 11.6707 7.94416C11.6745 7.60639 11.5094 7.37069 11.2301 7.18479C11.1603 7.13865 11.0878 7.11342 11.0137 7.09942C10.8647 7.05523 10.7007 7.04629 10.5282 7.06824C10.4977 7.07213 10.4669 7.07795 10.4361 7.08561C10.299 7.1128 10.1627 7.18572 10.047 7.28567C9.86004 7.4409 9.72582 7.66541 9.7305 7.92133C9.73146 7.97513 9.73228 8.02893 9.73297 8.08273C9.73359 8.45964 9.73338 8.83658 9.73318 9.21357V9.21359V9.21363C9.73271 10.072 9.73225 10.9305 9.74147 11.789C9.75184 11.9602 9.81404 12.1249 9.92049 12.2628C10.149 12.5654 10.4899 12.6686 10.8727 12.62C11.2555 12.5715 11.6783 12.2191 11.6701 11.7696C11.662 11.3176 11.6637 10.8656 11.6654 10.4136ZM14.918 7.28112C15.0675 7.40045 15.1714 7.5612 15.205 7.73517C15.2253 7.87888 15.2324 8.02403 15.226 8.16892C15.226 8.58368 15.2266 8.99871 15.2273 9.4137V9.41383V9.41397V9.4141C15.2285 10.2438 15.2298 11.0733 15.226 11.9002C15.226 12.4086 15.073 12.8873 14.8483 13.3466C14.6319 13.7779 14.3409 14.171 13.9875 14.5093C13.7475 14.7444 13.472 14.9151 13.1158 14.889C12.6759 14.8574 12.3306 14.615 12.2214 14.2111C12.1427 13.9183 12.2538 13.6601 12.481 13.4584C12.8461 13.1449 13.1077 12.7364 13.2339 12.2829C13.2734 12.1431 13.2947 11.9993 13.2974 11.8546C13.3019 11.2942 13.3043 10.7338 13.3067 10.1733V10.1733C13.3072 10.0576 13.3077 9.94193 13.3082 9.82625H13.3067C13.3067 9.63614 13.3074 9.44603 13.3081 9.25591C13.3098 8.80256 13.3115 8.3492 13.3036 7.89585C13.3018 7.79852 13.3198 7.70574 13.3529 7.61958C13.3606 7.59814 13.3697 7.57728 13.3801 7.55696C13.5163 7.27675 13.8122 7.07839 14.0871 7.04276C14.4085 7.00111 14.6999 7.07068 14.918 7.28112Z" fill="#FFDF78"/>
<mask id="path-7-inside-1_15888_14832" fill="white">
<path fill-rule="evenodd" clip-rule="evenodd" d="M6.02289 9.25591C6.02459 8.80256 6.0263 8.3492 6.01831 7.89585C6.01012 7.44493 6.42965 7.09151 6.8095 7.04276C7.14579 6.99961 7.44949 7.07584 7.67208 7.30446C7.75799 7.38006 7.82694 7.47168 7.87464 7.57376C7.92515 7.68187 7.95064 7.79915 7.94935 7.91757C7.94469 9.19007 7.94469 10.4628 7.94935 11.7357C7.94213 12.1656 8.07528 12.5869 8.33024 12.9409C8.49748 13.1529 8.67699 13.3557 8.86793 13.5484C8.99443 13.6962 9.05907 13.8837 9.04934 14.0745C9.0396 14.2653 8.95618 14.4459 8.81524 14.5812C8.6317 14.7642 8.38176 14.873 8.11694 14.8849C7.78937 14.8971 7.51831 14.7634 7.29993 14.5368C7.10946 14.3455 6.93057 14.1439 6.76414 13.933C6.51724 13.6013 6.32736 13.234 6.20169 12.845C6.07282 12.4642 6.01187 12.0654 6.0214 11.6652C6.02726 11.2517 6.02608 10.838 6.0249 10.4243C6.02442 10.2551 6.02394 10.086 6.02394 9.91683L6.02399 9.82625H6.02146C6.02146 9.63614 6.02217 9.44603 6.02289 9.25591ZM11.6654 10.4136C11.6661 10.2263 11.6669 10.039 11.6669 9.85173H11.6685C11.6685 9.45126 11.6679 9.05076 11.6659 8.65025C11.6663 8.41489 11.6676 8.17953 11.6707 7.94416C11.6745 7.60639 11.5094 7.37069 11.2301 7.18479C11.1603 7.13865 11.0878 7.11342 11.0137 7.09942C10.8647 7.05523 10.7007 7.04629 10.5282 7.06824C10.4977 7.07213 10.4669 7.07795 10.4361 7.08561C10.299 7.1128 10.1627 7.18572 10.047 7.28567C9.86004 7.4409 9.72582 7.66541 9.7305 7.92133C9.73146 7.97513 9.73228 8.02893 9.73297 8.08273C9.73359 8.45964 9.73338 8.83658 9.73318 9.21357V9.21359V9.21363C9.73271 10.072 9.73225 10.9305 9.74147 11.789C9.75184 11.9602 9.81404 12.1249 9.92049 12.2628C10.149 12.5654 10.4899 12.6686 10.8727 12.62C11.2555 12.5715 11.6783 12.2191 11.6701 11.7696C11.662 11.3176 11.6637 10.8656 11.6654 10.4136ZM14.918 7.28112C15.0675 7.40045 15.1714 7.5612 15.205 7.73517C15.2253 7.87888 15.2324 8.02403 15.226 8.16892C15.226 8.58368 15.2266 8.99871 15.2273 9.4137V9.41383V9.41397V9.4141C15.2285 10.2438 15.2298 11.0733 15.226 11.9002C15.226 12.4086 15.073 12.8873 14.8483 13.3466C14.6319 13.7779 14.3409 14.171 13.9875 14.5093C13.7475 14.7444 13.472 14.9151 13.1158 14.889C12.6759 14.8574 12.3306 14.615 12.2214 14.2111C12.1427 13.9183 12.2538 13.6601 12.481 13.4584C12.8461 13.1449 13.1077 12.7364 13.2339 12.2829C13.2734 12.1431 13.2947 11.9993 13.2974 11.8546C13.3019 11.2942 13.3043 10.7338 13.3067 10.1733V10.1733C13.3072 10.0576 13.3077 9.94193 13.3082 9.82625H13.3067C13.3067 9.63614 13.3074 9.44603 13.3081 9.25591C13.3098 8.80256 13.3115 8.3492 13.3036 7.89585C13.3018 7.79852 13.3198 7.70574 13.3529 7.61958C13.3606 7.59814 13.3697 7.57728 13.3801 7.55696C13.5163 7.27675 13.8122 7.07839 14.0871 7.04276C14.4085 7.00111 14.6999 7.07068 14.918 7.28112Z"/>
</mask>
<path fill-rule="evenodd" clip-rule="evenodd" d="M6.02289 9.25591C6.02459 8.80256 6.0263 8.3492 6.01831 7.89585C6.01012 7.44493 6.42965 7.09151 6.8095 7.04276C7.14579 6.99961 7.44949 7.07584 7.67208 7.30446C7.75799 7.38006 7.82694 7.47168 7.87464 7.57376C7.92515 7.68187 7.95064 7.79915 7.94935 7.91757C7.94469 9.19007 7.94469 10.4628 7.94935 11.7357C7.94213 12.1656 8.07528 12.5869 8.33024 12.9409C8.49748 13.1529 8.67699 13.3557 8.86793 13.5484C8.99443 13.6962 9.05907 13.8837 9.04934 14.0745C9.0396 14.2653 8.95618 14.4459 8.81524 14.5812C8.6317 14.7642 8.38176 14.873 8.11694 14.8849C7.78937 14.8971 7.51831 14.7634 7.29993 14.5368C7.10946 14.3455 6.93057 14.1439 6.76414 13.933C6.51724 13.6013 6.32736 13.234 6.20169 12.845C6.07282 12.4642 6.01187 12.0654 6.0214 11.6652C6.02726 11.2517 6.02608 10.838 6.0249 10.4243C6.02442 10.2551 6.02394 10.086 6.02394 9.91683L6.02399 9.82625H6.02146C6.02146 9.63614 6.02217 9.44603 6.02289 9.25591ZM11.6654 10.4136C11.6661 10.2263 11.6669 10.039 11.6669 9.85173H11.6685C11.6685 9.45126 11.6679 9.05076 11.6659 8.65025C11.6663 8.41489 11.6676 8.17953 11.6707 7.94416C11.6745 7.60639 11.5094 7.37069 11.2301 7.18479C11.1603 7.13865 11.0878 7.11342 11.0137 7.09942C10.8647 7.05523 10.7007 7.04629 10.5282 7.06824C10.4977 7.07213 10.4669 7.07795 10.4361 7.08561C10.299 7.1128 10.1627 7.18572 10.047 7.28567C9.86004 7.4409 9.72582 7.66541 9.7305 7.92133C9.73146 7.97513 9.73228 8.02893 9.73297 8.08273C9.73359 8.45964 9.73338 8.83658 9.73318 9.21357V9.21359V9.21363C9.73271 10.072 9.73225 10.9305 9.74147 11.789C9.75184 11.9602 9.81404 12.1249 9.92049 12.2628C10.149 12.5654 10.4899 12.6686 10.8727 12.62C11.2555 12.5715 11.6783 12.2191 11.6701 11.7696C11.662 11.3176 11.6637 10.8656 11.6654 10.4136ZM14.918 7.28112C15.0675 7.40045 15.1714 7.5612 15.205 7.73517C15.2253 7.87888 15.2324 8.02403 15.226 8.16892C15.226 8.58368 15.2266 8.99871 15.2273 9.4137V9.41383V9.41397V9.4141C15.2285 10.2438 15.2298 11.0733 15.226 11.9002C15.226 12.4086 15.073 12.8873 14.8483 13.3466C14.6319 13.7779 14.3409 14.171 13.9875 14.5093C13.7475 14.7444 13.472 14.9151 13.1158 14.889C12.6759 14.8574 12.3306 14.615 12.2214 14.2111C12.1427 13.9183 12.2538 13.6601 12.481 13.4584C12.8461 13.1449 13.1077 12.7364 13.2339 12.2829C13.2734 12.1431 13.2947 11.9993 13.2974 11.8546C13.3019 11.2942 13.3043 10.7338 13.3067 10.1733V10.1733C13.3072 10.0576 13.3077 9.94193 13.3082 9.82625H13.3067C13.3067 9.63614 13.3074 9.44603 13.3081 9.25591C13.3098 8.80256 13.3115 8.3492 13.3036 7.89585C13.3018 7.79852 13.3198 7.70574 13.3529 7.61958C13.3606 7.59814 13.3697 7.57728 13.3801 7.55696C13.5163 7.27675 13.8122 7.07839 14.0871 7.04276C14.4085 7.00111 14.6999 7.07068 14.918 7.28112Z" fill="#FFE697"/>
<path d="M6.01831 7.89585L6.12021 7.89405L6.12021 7.89399L6.01831 7.89585ZM6.02289 9.25591L5.92097 9.25553L6.02289 9.25591ZM6.8095 7.04276L6.82248 7.14385L6.82248 7.14385L6.8095 7.04276ZM7.67208 7.30446L7.59884 7.37577L7.60475 7.38097L7.67208 7.30446ZM7.87464 7.57376L7.7823 7.61691V7.61691L7.87464 7.57376ZM7.94935 7.91757L7.84743 7.91646L7.84743 7.9172L7.94935 7.91757ZM7.94935 11.7357L8.05128 11.7374L8.05127 11.7353L7.94935 11.7357ZM8.33024 12.9409L8.24745 13.0006L8.25023 13.0041L8.33024 12.9409ZM8.86793 13.5484L8.94557 13.482L8.94034 13.4767L8.86793 13.5484ZM8.81524 14.5812L8.74465 14.5076L8.74327 14.509L8.81524 14.5812ZM8.11694 14.8849L8.12072 14.9868L8.12154 14.9867L8.11694 14.8849ZM7.29993 14.5368L7.37332 14.4661L7.37216 14.4649L7.29993 14.5368ZM6.76414 13.933L6.68235 13.9939L6.68413 13.9961L6.76414 13.933ZM6.20169 12.845L6.29868 12.8136L6.29823 12.8123L6.20169 12.845ZM6.0214 11.6652L6.1233 11.6676L6.12331 11.6666L6.0214 11.6652ZM6.0249 10.4243L6.12682 10.424L6.0249 10.4243ZM6.02394 9.91683L5.92202 9.91678V9.91683H6.02394ZM6.02399 9.82625L6.12591 9.8263L6.12596 9.72433H6.02399V9.82625ZM6.02146 9.82625H5.91954L5.91954 9.92817H6.02146V9.82625ZM11.6669 9.85173V9.74981H11.565L11.565 9.85172L11.6669 9.85173ZM11.6654 10.4136L11.5635 10.4132V10.4132L11.6654 10.4136ZM11.6685 9.85173V9.95365H11.7705L11.7705 9.85172L11.6685 9.85173ZM11.6659 8.65025L11.5639 8.65006L11.5639 8.65078L11.6659 8.65025ZM11.6707 7.94416L11.7726 7.94549L11.7726 7.94531L11.6707 7.94416ZM11.2301 7.18479L11.2866 7.09994L11.2863 7.09978L11.2301 7.18479ZM11.0137 7.09942L10.9846 7.19764L10.9948 7.19956L11.0137 7.09942ZM10.5282 7.06824L10.5411 7.16935V7.16935L10.5282 7.06824ZM10.4361 7.08561L10.456 7.1857L10.4607 7.18452L10.4361 7.08561ZM10.047 7.28567L10.1121 7.3641L10.1137 7.36278L10.047 7.28567ZM9.7305 7.92133L9.83241 7.91952L9.83241 7.91946L9.7305 7.92133ZM9.73297 8.08273L9.8349 8.08257L9.83489 8.08141L9.73297 8.08273ZM9.73318 9.21357L9.63126 9.21351V9.21357H9.73318ZM9.73318 9.21363L9.8351 9.21369V9.21363H9.73318ZM9.74147 11.789L9.63943 11.7901L9.63973 11.7952L9.74147 11.789ZM9.92049 12.2628L10.0018 12.2014L10.0012 12.2006L9.92049 12.2628ZM10.8727 12.62L10.8856 12.7212L10.8727 12.62ZM11.6701 11.7696L11.5681 11.7714L11.5681 11.7714L11.6701 11.7696ZM15.205 7.73517L15.3061 7.72089L15.3051 7.71581L15.205 7.73517ZM14.918 7.28112L14.8469 7.35479L14.8544 7.36077L14.918 7.28112ZM15.226 8.16892L15.1241 8.16444V8.16892H15.226ZM15.2273 9.4137H15.3292V9.41354L15.2273 9.4137ZM15.2273 9.4141H15.1253V9.41426L15.2273 9.4141ZM15.226 11.9002L15.1241 11.8997V11.9002H15.226ZM14.8483 13.3466L14.9394 13.3923L14.9398 13.3914L14.8483 13.3466ZM13.9875 14.5093L13.917 14.4357L13.9161 14.4365L13.9875 14.5093ZM13.1158 14.889L13.1233 14.7874L13.1231 14.7874L13.1158 14.889ZM12.2214 14.2111L12.123 14.2375L12.123 14.2377L12.2214 14.2111ZM12.481 13.4584L12.4146 13.381L12.4134 13.3821L12.481 13.4584ZM13.2339 12.2829L13.1358 12.2552L13.1357 12.2556L13.2339 12.2829ZM13.2974 11.8546L13.3993 11.8565L13.3993 11.8554L13.2974 11.8546ZM13.3067 10.1733L13.4086 10.1738V10.1733H13.3067ZM13.3067 10.1733L13.2047 10.1728V10.1733H13.3067ZM13.3082 9.82625L13.4101 9.8267L13.4105 9.72433H13.3082V9.82625ZM13.3067 9.82625H13.2048V9.92817H13.3067V9.82625ZM13.3081 9.25591L13.2062 9.25553L13.3081 9.25591ZM13.3036 7.89585L13.4055 7.89407L13.4055 7.89401L13.3036 7.89585ZM13.3529 7.61958L13.448 7.6561L13.4487 7.65421L13.3529 7.61958ZM13.3801 7.55696L13.4709 7.60319L13.4717 7.60152L13.3801 7.55696ZM14.0871 7.04276L14.1002 7.14384V7.14384L14.0871 7.04276ZM5.9164 7.89764C5.92437 8.34973 5.92267 8.80199 5.92097 9.25553L6.12481 9.2563C6.12651 8.80312 6.12822 8.34868 6.12021 7.89405L5.9164 7.89764ZM6.79653 6.94167C6.58232 6.96916 6.36224 7.08108 6.19645 7.2463C6.02997 7.41219 5.9117 7.63872 5.9164 7.8977L6.12021 7.89399C6.11672 7.70205 6.20412 7.52642 6.34033 7.39069C6.47722 7.25427 6.65684 7.16511 6.82248 7.14385L6.79653 6.94167ZM7.74511 7.23336C7.49479 6.97627 7.15611 6.89552 6.79653 6.94167L6.82248 7.14385C7.13547 7.10369 7.40419 7.17542 7.59906 7.37556L7.74511 7.23336ZM7.96697 7.53062C7.91322 7.41558 7.83568 7.31266 7.73942 7.22795L7.60475 7.38097C7.6803 7.44746 7.74065 7.52778 7.7823 7.61691L7.96697 7.53062ZM8.05126 7.91868C8.05272 7.78486 8.02391 7.65246 7.96697 7.53062L7.7823 7.61691C7.82639 7.71128 7.84855 7.81345 7.84743 7.91646L8.05126 7.91868ZM8.05127 11.7353C8.04661 10.4626 8.04661 9.19019 8.05127 7.91794L7.84743 7.9172C7.84277 9.18994 7.84277 10.4629 7.84743 11.736L8.05127 11.7353ZM8.41295 12.8814C8.17062 12.5449 8.04441 12.145 8.05125 11.7374L7.84744 11.734C7.83985 12.1862 7.97994 12.6289 8.24753 13.0005L8.41295 12.8814ZM8.94034 13.4767C8.75208 13.2867 8.57511 13.0867 8.41025 12.8778L8.25023 13.0041C8.41985 13.219 8.60191 13.4247 8.79553 13.6202L8.94034 13.4767ZM9.15113 14.0797C9.16222 13.8623 9.08849 13.6494 8.94536 13.4822L8.7905 13.6147C8.90037 13.7431 8.95593 13.9051 8.94755 14.0693L9.15113 14.0797ZM8.88582 14.6547C9.04502 14.5019 9.14004 14.2971 9.15113 14.0797L8.94755 14.0693C8.93917 14.2336 8.86734 14.3899 8.74466 14.5077L8.88582 14.6547ZM8.12154 14.9867C8.4111 14.9737 8.68525 14.8548 8.88722 14.6533L8.74327 14.509C8.57815 14.6737 8.35243 14.7723 8.11234 14.7831L8.12154 14.9867ZM7.22654 14.6076C7.46146 14.8513 7.75939 15.0002 8.12072 14.9868L8.11316 14.7831C7.81936 14.794 7.57515 14.6755 7.37331 14.4661L7.22654 14.6076ZM6.68413 13.9961C6.85299 14.2101 7.03448 14.4146 7.22769 14.6087L7.37216 14.4649C7.18443 14.2763 7.00814 14.0776 6.84415 13.8698L6.68413 13.9961ZM6.1047 12.8763C6.23384 13.2761 6.42891 13.6533 6.68238 13.9938L6.84589 13.8721C6.60558 13.5493 6.42088 13.1919 6.29867 12.8136L6.1047 12.8763ZM5.91951 11.6628C5.90969 12.0749 5.97247 12.4856 6.10515 12.8776L6.29823 12.8123C6.17317 12.4428 6.11405 12.0558 6.12329 11.6676L5.91951 11.6628ZM5.92298 10.4246C5.92416 10.8384 5.92533 11.2513 5.91949 11.6638L6.12331 11.6666C6.12918 11.2522 6.128 10.8375 6.12682 10.424L5.92298 10.4246ZM5.92202 9.91683C5.92202 10.0861 5.9225 10.2554 5.92298 10.4246L6.12682 10.424C6.12634 10.2548 6.12586 10.0858 6.12586 9.91683H5.92202ZM5.92206 9.8262L5.92202 9.91678L6.12586 9.91689L6.12591 9.8263L5.92206 9.8262ZM6.02146 9.92817H6.02399V9.72433H6.02146V9.92817ZM5.92097 9.25553C5.92025 9.44561 5.91954 9.63592 5.91954 9.82625H6.12338C6.12338 9.63636 6.12409 9.44644 6.12481 9.2563L5.92097 9.25553ZM11.565 9.85172C11.5649 10.0388 11.5642 10.2259 11.5635 10.4132L11.7674 10.414C11.7681 10.2267 11.7688 10.0393 11.7688 9.85174L11.565 9.85172ZM11.6685 9.74981H11.6669V9.95365H11.6685V9.74981ZM11.5639 8.65078C11.566 9.05104 11.5666 9.45135 11.5666 9.85175L11.7705 9.85172C11.7704 9.45117 11.7698 9.05048 11.7678 8.64973L11.5639 8.65078ZM11.5688 7.94283C11.5657 8.17869 11.5644 8.41446 11.5639 8.65006L11.7678 8.65044C11.7682 8.41532 11.7695 8.18036 11.7726 7.94549L11.5688 7.94283ZM11.1737 7.26964C11.4325 7.44189 11.5721 7.6486 11.5688 7.94301L11.7726 7.94531C11.7769 7.56419 11.5864 7.29948 11.2866 7.09995L11.1737 7.26964ZM10.9948 7.19956C11.0584 7.21159 11.1176 7.23258 11.1739 7.26981L11.2863 7.09978C11.2031 7.04472 11.1172 7.01525 11.0327 6.99927L10.9948 7.19956ZM10.5411 7.16935C10.7023 7.14883 10.8517 7.15769 10.9848 7.19713L11.0427 7.0017C10.8777 6.95277 10.6991 6.94375 10.5154 6.96714L10.5411 7.16935ZM10.4607 7.18452C10.4878 7.17778 10.5147 7.17271 10.5411 7.16935L10.5154 6.96714C10.4807 6.97155 10.446 6.97813 10.4115 6.9867L10.4607 7.18452ZM10.1137 7.36278C10.2187 7.27199 10.3395 7.20869 10.4559 7.18558L10.4163 6.98564C10.2586 7.01691 10.1066 7.09946 9.98039 7.20855L10.1137 7.36278ZM9.83241 7.91946C9.82842 7.70204 9.9425 7.50491 10.1121 7.36408L9.98193 7.20725C9.77758 7.37689 9.62321 7.62878 9.6286 7.92319L9.83241 7.91946ZM9.83489 8.08141C9.83419 8.02746 9.83337 7.97349 9.83241 7.91952L9.6286 7.92314C9.62955 7.97677 9.63037 8.03041 9.63106 8.08405L9.83489 8.08141ZM9.8351 9.21362C9.83531 8.83666 9.83551 8.4596 9.83489 8.08257L9.63105 8.0829C9.63167 8.45967 9.63146 8.83651 9.63126 9.21351L9.8351 9.21362ZM9.8351 9.21359V9.21357H9.63126V9.21359H9.8351ZM9.8351 9.21363V9.21359H9.63126V9.21363H9.8351ZM9.84338 11.7879C9.83417 10.9301 9.83463 10.0721 9.8351 9.21369L9.63126 9.21357C9.63079 10.0718 9.63032 10.9309 9.63955 11.7901L9.84338 11.7879ZM10.0012 12.2006C9.907 12.0785 9.85232 11.9333 9.8432 11.7828L9.63973 11.7952C9.65136 11.9871 9.72108 12.1712 9.83979 12.3251L10.0012 12.2006ZM10.8599 12.5189C10.5041 12.5641 10.2032 12.4681 10.0018 12.2014L9.83916 12.3243C10.0948 12.6627 10.4758 12.7732 10.8856 12.7212L10.8599 12.5189ZM11.5681 11.7714C11.5717 11.9623 11.4838 12.1372 11.3465 12.2726C11.2085 12.4086 11.0273 12.4977 10.8599 12.5189L10.8856 12.7212C11.101 12.6938 11.3225 12.5824 11.4896 12.4177C11.6573 12.2524 11.7767 12.0264 11.772 11.7677L11.5681 11.7714ZM11.5635 10.4132C11.5618 10.865 11.5601 11.3181 11.5681 11.7714L11.772 11.7677C11.7639 11.317 11.7656 10.8662 11.7674 10.414L11.5635 10.4132ZM15.3051 7.71581C15.2662 7.51497 15.1474 7.33384 14.9816 7.20147L14.8544 7.36077C14.9875 7.46705 15.0765 7.60743 15.105 7.75452L15.3051 7.71581ZM15.3278 8.17339C15.3344 8.02224 15.3271 7.87082 15.306 7.72091L15.1041 7.74942C15.1235 7.88694 15.1303 8.02582 15.1242 8.16445L15.3278 8.17339ZM15.3292 9.41354C15.3285 8.99854 15.3279 8.58359 15.3279 8.16892H15.1241C15.1241 8.58377 15.1247 8.99888 15.1253 9.41385L15.3292 9.41354ZM15.3292 9.41383V9.4137H15.1253V9.41383H15.3292ZM15.3292 9.41397V9.41383H15.1253V9.41397H15.3292ZM15.3292 9.4141V9.41397H15.1253V9.4141H15.3292ZM15.3279 11.9006C15.3317 11.0734 15.3304 10.2436 15.3292 9.41395L15.1253 9.41426C15.1266 10.244 15.1279 11.0732 15.1241 11.8997L15.3279 11.9006ZM14.9398 13.3914C15.1686 12.9238 15.3279 12.4294 15.3279 11.9002H15.1241C15.1241 12.3878 14.9774 12.8508 14.7567 13.3018L14.9398 13.3914ZM14.0579 14.583C14.4197 14.2367 14.7177 13.8341 14.9394 13.3923L14.7572 13.3009C14.5461 13.7216 14.2621 14.1053 13.917 14.4357L14.0579 14.583ZM13.1084 14.9907C13.5065 15.0199 13.8093 14.8266 14.0588 14.5821L13.9161 14.4365C13.6857 14.6623 13.4375 14.8104 13.1233 14.7874L13.1084 14.9907ZM12.123 14.2377C12.2456 14.6913 12.6341 14.9566 13.1085 14.9907L13.1231 14.7874C12.7177 14.7583 12.4155 14.5387 12.3198 14.1845L12.123 14.2377ZM12.4134 13.3821C12.1648 13.6028 12.0318 13.8986 12.123 14.2375L12.3198 14.1846C12.2535 13.9379 12.3427 13.7174 12.5487 13.5346L12.4134 13.3821ZM13.1357 12.2556C13.0151 12.6892 12.7647 13.0804 12.4146 13.381L12.5474 13.5357C12.9274 13.2094 13.2004 12.7836 13.3321 12.3102L13.1357 12.2556ZM13.1955 11.8527C13.193 11.9886 13.1729 12.1238 13.1358 12.2552L13.332 12.3106C13.3738 12.1625 13.3964 12.01 13.3993 11.8565L13.1955 11.8527ZM13.2047 10.1729C13.2023 10.7334 13.1999 11.2937 13.1955 11.8538L13.3993 11.8554C13.4038 11.2948 13.4062 10.7342 13.4086 10.1738L13.2047 10.1729ZM13.2047 10.1733V10.1733H13.4086V10.1733H13.2047ZM13.2062 9.8258C13.2057 9.94148 13.2052 10.0572 13.2047 10.1728L13.4086 10.1737C13.4091 10.058 13.4096 9.94237 13.4101 9.8267L13.2062 9.8258ZM13.3067 9.92817H13.3082V9.72433H13.3067V9.92817ZM13.2062 9.25553C13.2055 9.44561 13.2048 9.63592 13.2048 9.82625H13.4086C13.4086 9.63636 13.4093 9.44644 13.41 9.25629L13.2062 9.25553ZM13.2017 7.89762C13.2096 8.34972 13.2079 8.802 13.2062 9.25553L13.41 9.25629C13.4117 8.80312 13.4134 8.34868 13.4055 7.89407L13.2017 7.89762ZM13.2577 7.58306C13.2203 7.68065 13.1997 7.78642 13.2017 7.89768L13.4055 7.89401C13.404 7.81062 13.4193 7.73082 13.448 7.65609L13.2577 7.58306ZM13.2892 7.51075C13.2771 7.53461 13.2663 7.55934 13.257 7.58494L13.4487 7.65421C13.455 7.63694 13.4624 7.61994 13.4709 7.60318L13.2892 7.51075ZM14.074 6.94169C13.766 6.98161 13.44 7.20051 13.2884 7.5124L13.4717 7.60152C13.5925 7.35298 13.8584 7.17517 14.1002 7.14384L14.074 6.94169ZM14.9888 7.20778C14.7431 6.97072 14.418 6.8971 14.074 6.94169L14.1002 7.14384C14.399 7.10511 14.6567 7.17063 14.8472 7.35447L14.9888 7.20778Z" fill="url(#paint2_linear_15888_14832)" mask="url(#path-7-inside-1_15888_14832)"/>
<defs>
<linearGradient id="paint0_linear_15888_14832" x1="10.5998" y1="0.4375" x2="10.5998" y2="20.8217" gradientUnits="userSpaceOnUse">
<stop stop-color="#FEE197"/>
<stop offset="0.453125" stop-color="#FFC93F"/>
<stop offset="1" stop-color="#E29A2A"/>
</linearGradient>
<linearGradient id="paint1_linear_15888_14832" x1="10.6527" y1="7.1875" x2="10.6527" y2="15.2923" gradientUnits="userSpaceOnUse">
<stop stop-color="#C67E0E" stop-opacity="0"/>
<stop offset="0.761026" stop-color="#CE640D"/>
</linearGradient>
<linearGradient id="paint2_linear_15888_14832" x1="10.8267" y1="15.1302" x2="10.6085" y2="6.30198" gradientUnits="userSpaceOnUse">
<stop stop-color="#DDA81F"/>
<stop offset="0.65324" stop-color="#FEB83D"/>
<stop offset="1" stop-color="white"/>
</linearGradient>
</defs>
</svg>
