<svg width="14" height="15" viewBox="0 0 14 15" fill="none" xmlns="http://www.w3.org/2000/svg">
<g id="WildrCoin">
<path id="Subtract" d="M13.5962 7.5003C13.5962 11.1433 10.643 14.0965 7.00006 14.0965C3.3571 14.0965 0.403903 11.1433 0.403903 7.5003C0.403903 3.85735 3.3571 0.904147 7.00006 0.904147C10.643 0.904147 13.5962 3.85735 13.5962 7.5003ZM7.00045 12.6417C9.83975 12.6417 12.1415 10.34 12.1415 7.50069C12.1415 4.66139 9.83975 2.35968 7.00045 2.35968C4.16114 2.35968 1.85943 4.66139 1.85943 7.50069C1.85943 10.34 4.16114 12.6417 7.00045 12.6417Z" fill="#A2A3A9" stroke="#A2A3A9" stroke-width="0.269231"/>
<path id="Union" fill-rule="evenodd" clip-rule="evenodd" d="M3.97897 6.48072C3.97988 6.21783 3.98018 5.95495 3.97555 5.69207C3.97382 5.59699 4.00089 5.50848 4.0467 5.43099C4.06178 5.40438 4.07931 5.37947 4.09924 5.3563C4.20212 5.23157 4.35438 5.14713 4.49805 5.1287C4.73126 5.09877 4.94075 5.15579 5.08939 5.32499C5.13526 5.37033 5.17259 5.42306 5.1996 5.48087C5.23296 5.55226 5.24979 5.62971 5.24894 5.70791C5.24586 6.54826 5.24586 7.38874 5.24894 8.22936C5.24417 8.51326 5.3321 8.79151 5.50048 9.02531C5.61092 9.16527 5.72947 9.29921 5.85556 9.42649C5.9391 9.52409 5.98179 9.6479 5.97536 9.77391C5.96893 9.89992 5.91384 10.0192 5.82077 10.1085C5.69955 10.2294 5.5345 10.3012 5.35961 10.3091C5.14329 10.3171 4.96428 10.2289 4.82007 10.0792C4.69428 9.95285 4.57614 9.81971 4.46624 9.68044C4.30319 9.46141 4.17779 9.21884 4.0948 8.96192C4.00969 8.71046 3.96944 8.44707 3.97574 8.18282C3.9796 7.90977 3.97883 7.63651 3.97805 7.36334C3.97773 7.25161 3.97741 7.13989 3.97741 7.02821C3.97741 6.8843 3.97797 6.7404 3.97853 6.59651L3.97897 6.48072ZM7.70406 7.35609C7.70454 7.23197 7.70501 7.10784 7.70502 6.98372H7.70587C7.70583 6.73224 7.70549 6.48075 7.70429 6.22925C7.70451 6.06133 7.70534 5.8934 7.70753 5.72547C7.71005 5.50242 7.60105 5.34676 7.41659 5.22399C7.37476 5.19633 7.33145 5.18005 7.28721 5.17037C7.18515 5.13753 7.07206 5.13034 6.95281 5.14552C6.91976 5.14973 6.88626 5.15737 6.853 5.16814C6.79742 5.18445 6.74275 5.21157 6.69207 5.2466C6.53985 5.34811 6.42244 5.51483 6.426 5.70889C6.42676 5.75203 6.4274 5.79518 6.42791 5.83832C6.42828 6.0801 6.42815 6.32192 6.42802 6.56375V6.56377V6.56379V6.5638V6.56385C6.42771 7.13068 6.4274 7.69763 6.43349 8.26457C6.44034 8.37765 6.48142 8.48637 6.55171 8.5775C6.70264 8.77729 6.92776 8.84549 7.18056 8.81339C7.43335 8.7813 7.71256 8.54861 7.70711 8.25173C7.7018 7.95326 7.70293 7.65479 7.70406 7.35632V7.35628L7.70406 7.35609ZM9.86438 5.29863C9.95589 5.37618 10.0193 5.47784 10.0405 5.58746C10.0539 5.68236 10.0586 5.77822 10.0544 5.8739C10.0544 6.14781 10.0548 6.42189 10.0552 6.69594C10.056 7.24396 10.0569 7.79186 10.0544 8.33798C10.0544 8.67377 9.95334 8.9899 9.80493 9.2932C9.66207 9.57802 9.46986 9.83764 9.23645 10.0611C9.07798 10.2163 8.89604 10.3291 8.66085 10.3118C8.37032 10.2909 8.14226 10.1309 8.07015 9.86408C8.01817 9.67071 8.09154 9.50021 8.24162 9.36702C8.48271 9.16002 8.65549 8.89025 8.73883 8.59072C8.76489 8.49845 8.77897 8.40346 8.78075 8.30789C8.78369 7.93786 8.78528 7.56775 8.78686 7.19764V7.1976V7.19756V7.19751C8.78719 7.12064 8.78752 7.04376 8.78786 6.96689H8.78768C8.78768 6.84134 8.78815 6.71579 8.78862 6.59024C8.78973 6.29085 8.79085 5.99146 8.78562 5.69207C8.78454 5.63193 8.79487 5.57442 8.81408 5.52067C8.82016 5.50218 8.82777 5.48434 8.83671 5.4671C8.92692 5.28266 9.12189 5.15217 9.30306 5.1287C9.52158 5.10038 9.71906 5.1499 9.86438 5.29863Z" fill="#A2A3A9"/>
</g>
</svg>
