<svg width="73" height="72" viewBox="0 0 73 72" fill="none" xmlns="http://www.w3.org/2000/svg">
<g id="WildrCoin">
<circle id="Ellipse 210" cx="36.4992" cy="35.9992" r="34.6154" fill="url(#paint0_linear_16242_17716)"/>
<circle id="Ellipse 212" cx="36.5021" cy="36.0021" r="25.7472" fill="#FEB83D"/>
<circle id="Ellipse 213" cx="36.5021" cy="36.0021" r="25.7472" fill="#D08417"/>
<path id="Subtract" fill-rule="evenodd" clip-rule="evenodd" d="M62.2472 36.4068C62.2492 36.2724 62.2503 36.1379 62.2503 36.0031C62.2503 21.7833 50.7228 10.2559 36.5031 10.2559C22.2833 10.2559 10.7559 21.7833 10.7559 36.0031C10.7559 50.2228 22.2833 61.7503 36.5031 61.7503C36.6379 61.7503 36.7724 61.7492 36.9068 61.7472C23.2352 61.5756 12.2052 50.4395 12.2052 36.7272C12.2052 22.9079 23.4079 11.7052 37.2272 11.7052C50.9395 11.7052 62.0756 22.7352 62.2472 36.4068Z" fill="#CF762C"/>
<path id="Union" fill-rule="evenodd" clip-rule="evenodd" d="M45.8389 32.0862C45.8449 30.498 45.8508 28.9099 45.8231 27.3217C45.8177 27.0249 45.8648 26.7401 45.9535 26.4722C46.0007 26.3058 46.0714 26.149 46.1604 26.0008C46.6635 25.0902 47.6491 24.4524 48.5679 24.3333C49.6938 24.1874 50.7144 24.431 51.4784 25.1681C52.0003 25.5859 52.3632 26.148 52.4808 26.7562C52.5519 27.2597 52.5765 27.7681 52.5542 28.2757C52.5542 29.7286 52.5564 31.1825 52.5587 32.6363V32.6368V32.6372V32.6377C52.5631 35.5443 52.5675 38.4502 52.5542 41.3466C52.5542 43.1279 52.0183 44.8048 51.231 46.4137C50.4732 47.9245 49.4536 49.3017 48.2155 50.4869C47.3749 51.3105 46.4097 51.9085 45.1621 51.817C43.621 51.7063 42.4112 50.8572 42.0287 49.442C41.753 48.4162 42.1422 47.5118 42.9383 46.8053C44.2172 45.7072 45.1337 44.2762 45.5758 42.6873C45.714 42.1979 45.7887 41.694 45.7982 41.187C45.8138 39.2245 45.8222 37.2617 45.8306 35.2988L45.8306 35.2974V35.2972V35.297V35.2968C45.8323 34.8926 45.8341 34.4884 45.8358 34.0842H45.834C45.834 33.4182 45.8365 32.7522 45.8389 32.0862ZM20.8094 32.0947C20.8154 30.5065 20.8214 28.9183 20.7934 27.3302C20.7843 26.8286 20.9262 26.3615 21.1668 25.9521C21.2637 25.7782 21.38 25.6179 21.5156 25.4715C22.0591 24.8525 22.8331 24.4357 23.565 24.3417C24.7539 24.1892 25.8264 24.4626 26.6081 25.2806C26.8969 25.5409 27.1292 25.8535 27.2915 26.2007C27.4684 26.5794 27.5577 26.9903 27.5532 27.4051C27.5369 31.8628 27.5369 36.3212 27.5532 40.7803C27.5279 42.2863 27.9943 43.7623 28.8875 45.0025C29.4734 45.745 30.1022 46.4555 30.7711 47.1306C31.2142 47.6484 31.4407 48.3051 31.4066 48.9736C31.3725 49.642 31.0802 50.2745 30.5865 50.7485C29.9435 51.3898 29.068 51.7706 28.1403 51.8125C26.9928 51.8551 26.0432 51.3869 25.2782 50.5931C24.6109 49.9228 23.9843 49.2165 23.4013 48.4778C22.5364 47.3159 21.8712 46.0292 21.4309 44.6663C20.9795 43.3324 20.766 41.9352 20.7994 40.5335C20.8199 39.085 20.8158 37.6355 20.8116 36.1865C20.8099 35.5938 20.8083 35.0012 20.8083 34.4087L20.8084 34.0926H20.8044C20.8044 33.4266 20.8069 32.7606 20.8094 32.0947L20.8094 32.0947ZM40.0788 36.1413C40.0813 35.4858 40.0838 34.8304 40.0838 34.175H40.0958C40.0956 32.54 40.0929 30.9049 40.0824 29.2697C40.0849 28.6767 40.0894 28.0836 40.0972 27.4905C40.1105 26.3072 39.5323 25.4815 38.5538 24.8303C38.3084 24.668 38.0534 24.5796 37.7927 24.5306C37.2731 24.3782 36.7018 24.3477 36.1011 24.4241C36.0139 24.4353 35.926 24.4509 35.838 24.4708C35.242 24.5707 34.645 24.9219 34.1807 25.3992C33.8465 25.732 33.5802 26.134 33.4329 26.5827C33.3551 26.8102 33.3109 27.0429 33.3079 27.2738C33.3062 27.3198 33.3057 27.366 33.3066 27.4126L33.3082 27.5082C33.3115 28.9843 33.3107 30.4606 33.3099 31.937V31.9371V31.9372V31.9373V31.9374C33.3082 34.9443 33.3066 37.9518 33.3389 40.9593C33.3752 41.5592 33.5931 42.1359 33.966 42.6193C34.7666 43.6791 35.9608 44.0409 37.3018 43.8706C38.6428 43.7004 40.1239 42.4661 40.0949 40.8912C40.0667 39.3079 40.0728 37.7246 40.0788 36.1413Z" fill="url(#paint1_linear_16242_17716)"/>
<path id="Union_2" fill-rule="evenodd" clip-rule="evenodd" d="M20.9505 31.3222C20.9563 29.7825 20.9621 28.2428 20.935 26.703C20.9253 26.1705 21.0913 25.6779 21.3662 25.255C21.4243 25.1629 21.4884 25.0751 21.5585 24.9916C22.0877 24.3417 22.8774 23.9013 23.6221 23.8057C24.7738 23.6579 25.813 23.9224 26.5707 24.7142C26.8523 24.9671 27.0789 25.2714 27.2368 25.6095C27.4084 25.9766 27.495 26.375 27.4906 26.7771C27.4748 31.0989 27.4748 35.4214 27.4906 39.7446C27.4661 41.2046 27.9183 42.6356 28.7842 43.838C29.3522 44.5578 29.9619 45.2467 30.6104 45.9012C31.04 46.4032 31.2596 47.0399 31.2265 47.688C31.1934 48.336 30.9101 48.9492 30.4314 49.4087C29.8081 50.0305 28.9592 50.3997 28.0598 50.4404C26.9473 50.4816 26.0266 50.0277 25.285 49.2581C24.6381 48.6082 24.0305 47.9235 23.4653 47.2073C22.6267 46.0809 21.9818 44.8333 21.555 43.512C21.1173 42.2188 20.9103 40.8642 20.9427 39.5052C20.9626 38.101 20.9586 36.6956 20.9546 35.2908C20.953 34.7161 20.9513 34.1416 20.9513 33.5672L20.9515 33.2593H20.9457C20.9457 32.6136 20.9481 31.9679 20.9505 31.3222ZM40.113 35.2551C40.1154 34.6194 40.1178 33.9837 40.1178 33.348H40.1271C40.1269 31.8399 40.1246 30.3316 40.1156 28.8233C40.1178 28.1716 40.1223 27.5198 40.1308 26.868C40.1437 25.7209 39.5832 24.9203 38.6345 24.289C38.3969 24.1319 38.15 24.0461 37.8976 23.9986C37.3929 23.85 36.8379 23.8201 36.2543 23.8944C36.1629 23.9061 36.0708 23.9228 35.9785 23.9444C35.4465 24.0395 34.915 24.3399 34.4854 24.7506C34.0621 25.1411 33.736 25.6412 33.606 26.2075C33.581 26.3126 33.5637 26.4184 33.555 26.524C33.5468 26.612 33.5433 26.7013 33.545 26.7918L33.5492 27.0477C33.5519 28.4248 33.5512 29.802 33.5504 31.1794C33.5488 34.0946 33.5473 37.0105 33.5786 39.9263C33.6138 40.5078 33.825 41.0669 34.1866 41.5356C34.9628 42.5631 36.1206 42.9138 37.4206 42.7488C38.7207 42.5837 40.1567 41.387 40.1286 39.8602C40.1013 38.3252 40.1071 36.7901 40.113 35.2551ZM51.1627 24.6153C51.6695 25.0205 52.0218 25.5659 52.136 26.1561C52.2049 26.6442 52.2287 27.1372 52.2071 27.6293C52.2071 29.0368 52.2093 30.4453 52.2114 31.8536L52.2114 31.8569C52.2157 34.6753 52.2201 37.4931 52.2071 40.3017C52.2071 42.0286 51.6875 43.6544 50.9243 45.2142C50.1896 46.679 49.2011 48.0142 48.0007 49.1633C47.1857 49.9617 46.25 50.5415 45.0404 50.4528C43.5463 50.3455 42.3734 49.5223 42.0026 48.1502C41.7352 47.1557 42.1125 46.2788 42.8844 45.5939C44.1243 44.5293 45.0129 43.1419 45.4415 41.6015C45.5755 41.1269 45.6479 40.6384 45.6571 40.1469C45.6722 38.2438 45.6804 36.3404 45.6885 34.4369V34.4367V34.4365V34.4363C45.6902 34.0439 45.6919 33.6516 45.6936 33.2593H45.6901C45.6901 32.6136 45.6925 31.9679 45.695 31.3222C45.7007 29.7825 45.7064 28.2428 45.6796 26.703C45.674 26.3969 45.726 26.1041 45.8229 25.8301C45.8616 25.7081 45.9133 25.5915 45.9758 25.4798C46.4532 24.5664 47.4308 23.9236 48.3407 23.8057C49.4324 23.6642 50.422 23.9005 51.1627 24.6153Z" fill="#FFDF78"/>
<g id="Union_3">
<mask id="path-7-inside-1_16242_17716" fill="white">
<path fill-rule="evenodd" clip-rule="evenodd" d="M20.9505 31.3222C20.9563 29.7825 20.9621 28.2428 20.935 26.703C20.9253 26.1705 21.0913 25.6779 21.3662 25.255C21.4243 25.1629 21.4884 25.0751 21.5585 24.9916C22.0877 24.3417 22.8774 23.9013 23.6221 23.8057C24.7738 23.6579 25.813 23.9224 26.5707 24.7142C26.8523 24.9671 27.0789 25.2714 27.2368 25.6095C27.4084 25.9766 27.495 26.375 27.4906 26.7771C27.4748 31.0989 27.4748 35.4214 27.4906 39.7446C27.4661 41.2046 27.9183 42.6356 28.7842 43.838C29.3522 44.5578 29.9619 45.2467 30.6104 45.9012C31.04 46.4032 31.2596 47.0399 31.2265 47.688C31.1934 48.336 30.9101 48.9492 30.4314 49.4087C29.8081 50.0305 28.9592 50.3997 28.0598 50.4404C26.9473 50.4816 26.0266 50.0277 25.285 49.2581C24.6381 48.6082 24.0305 47.9235 23.4653 47.2073C22.6267 46.0809 21.9818 44.8333 21.555 43.512C21.1173 42.2188 20.9103 40.8642 20.9427 39.5052C20.9626 38.101 20.9586 36.6956 20.9546 35.2908C20.953 34.7161 20.9513 34.1416 20.9513 33.5672L20.9515 33.2593H20.9457C20.9457 32.6136 20.9481 31.9679 20.9505 31.3222ZM40.113 35.2551C40.1154 34.6194 40.1178 33.9837 40.1178 33.348H40.1271C40.1269 31.8399 40.1246 30.3316 40.1156 28.8233C40.1178 28.1716 40.1223 27.5198 40.1308 26.868C40.1437 25.7209 39.5832 24.9203 38.6345 24.289C38.3969 24.1319 38.15 24.0461 37.8976 23.9986C37.3929 23.85 36.8379 23.8201 36.2543 23.8944C36.1629 23.9061 36.0708 23.9228 35.9785 23.9444C35.4465 24.0395 34.915 24.3399 34.4854 24.7506C34.0621 25.1411 33.736 25.6412 33.606 26.2075C33.581 26.3126 33.5637 26.4184 33.555 26.524C33.5468 26.612 33.5433 26.7013 33.545 26.7918L33.5492 27.0477C33.5519 28.4248 33.5512 29.802 33.5504 31.1794C33.5488 34.0946 33.5473 37.0105 33.5786 39.9263C33.6138 40.5078 33.825 41.0669 34.1866 41.5356C34.9628 42.5631 36.1206 42.9138 37.4206 42.7488C38.7207 42.5837 40.1567 41.387 40.1286 39.8602C40.1013 38.3252 40.1071 36.7901 40.113 35.2551ZM51.1627 24.6153C51.6695 25.0205 52.0218 25.5659 52.136 26.1561C52.2049 26.6442 52.2287 27.1372 52.2071 27.6293C52.2071 29.0368 52.2093 30.4453 52.2114 31.8536L52.2114 31.8569C52.2157 34.6753 52.2201 37.4931 52.2071 40.3017C52.2071 42.0286 51.6875 43.6544 50.9243 45.2142C50.1896 46.679 49.2011 48.0142 48.0007 49.1633C47.1857 49.9617 46.25 50.5415 45.0404 50.4528C43.5463 50.3455 42.3734 49.5223 42.0026 48.1502C41.7352 47.1557 42.1125 46.2788 42.8844 45.5939C44.1243 44.5293 45.0129 43.1419 45.4415 41.6015C45.5755 41.1269 45.6479 40.6384 45.6571 40.1469C45.6722 38.2438 45.6804 36.3404 45.6885 34.4369V34.4367V34.4365V34.4363C45.6902 34.0439 45.6919 33.6516 45.6936 33.2593H45.6901C45.6901 32.6136 45.6925 31.9679 45.695 31.3222C45.7007 29.7825 45.7064 28.2428 45.6796 26.703C45.674 26.3969 45.726 26.1041 45.8229 25.8301C45.8616 25.7081 45.9133 25.5915 45.9758 25.4798C46.4532 24.5664 47.4308 23.9236 48.3407 23.8057C49.4324 23.6642 50.422 23.9005 51.1627 24.6153Z"/>
</mask>
<path fill-rule="evenodd" clip-rule="evenodd" d="M20.9505 31.3222C20.9563 29.7825 20.9621 28.2428 20.935 26.703C20.9253 26.1705 21.0913 25.6779 21.3662 25.255C21.4243 25.1629 21.4884 25.0751 21.5585 24.9916C22.0877 24.3417 22.8774 23.9013 23.6221 23.8057C24.7738 23.6579 25.813 23.9224 26.5707 24.7142C26.8523 24.9671 27.0789 25.2714 27.2368 25.6095C27.4084 25.9766 27.495 26.375 27.4906 26.7771C27.4748 31.0989 27.4748 35.4214 27.4906 39.7446C27.4661 41.2046 27.9183 42.6356 28.7842 43.838C29.3522 44.5578 29.9619 45.2467 30.6104 45.9012C31.04 46.4032 31.2596 47.0399 31.2265 47.688C31.1934 48.336 30.9101 48.9492 30.4314 49.4087C29.8081 50.0305 28.9592 50.3997 28.0598 50.4404C26.9473 50.4816 26.0266 50.0277 25.285 49.2581C24.6381 48.6082 24.0305 47.9235 23.4653 47.2073C22.6267 46.0809 21.9818 44.8333 21.555 43.512C21.1173 42.2188 20.9103 40.8642 20.9427 39.5052C20.9626 38.101 20.9586 36.6956 20.9546 35.2908C20.953 34.7161 20.9513 34.1416 20.9513 33.5672L20.9515 33.2593H20.9457C20.9457 32.6136 20.9481 31.9679 20.9505 31.3222ZM40.113 35.2551C40.1154 34.6194 40.1178 33.9837 40.1178 33.348H40.1271C40.1269 31.8399 40.1246 30.3316 40.1156 28.8233C40.1178 28.1716 40.1223 27.5198 40.1308 26.868C40.1437 25.7209 39.5832 24.9203 38.6345 24.289C38.3969 24.1319 38.15 24.0461 37.8976 23.9986C37.3929 23.85 36.8379 23.8201 36.2543 23.8944C36.1629 23.9061 36.0708 23.9228 35.9785 23.9444C35.4465 24.0395 34.915 24.3399 34.4854 24.7506C34.0621 25.1411 33.736 25.6412 33.606 26.2075C33.581 26.3126 33.5637 26.4184 33.555 26.524C33.5468 26.612 33.5433 26.7013 33.545 26.7918L33.5492 27.0477C33.5519 28.4248 33.5512 29.802 33.5504 31.1794C33.5488 34.0946 33.5473 37.0105 33.5786 39.9263C33.6138 40.5078 33.825 41.0669 34.1866 41.5356C34.9628 42.5631 36.1206 42.9138 37.4206 42.7488C38.7207 42.5837 40.1567 41.387 40.1286 39.8602C40.1013 38.3252 40.1071 36.7901 40.113 35.2551ZM51.1627 24.6153C51.6695 25.0205 52.0218 25.5659 52.136 26.1561C52.2049 26.6442 52.2287 27.1372 52.2071 27.6293C52.2071 29.0368 52.2093 30.4453 52.2114 31.8536L52.2114 31.8569C52.2157 34.6753 52.2201 37.4931 52.2071 40.3017C52.2071 42.0286 51.6875 43.6544 50.9243 45.2142C50.1896 46.679 49.2011 48.0142 48.0007 49.1633C47.1857 49.9617 46.25 50.5415 45.0404 50.4528C43.5463 50.3455 42.3734 49.5223 42.0026 48.1502C41.7352 47.1557 42.1125 46.2788 42.8844 45.5939C44.1243 44.5293 45.0129 43.1419 45.4415 41.6015C45.5755 41.1269 45.6479 40.6384 45.6571 40.1469C45.6722 38.2438 45.6804 36.3404 45.6885 34.4369V34.4367V34.4365V34.4363C45.6902 34.0439 45.6919 33.6516 45.6936 33.2593H45.6901C45.6901 32.6136 45.6925 31.9679 45.695 31.3222C45.7007 29.7825 45.7064 28.2428 45.6796 26.703C45.674 26.3969 45.726 26.1041 45.8229 25.8301C45.8616 25.7081 45.9133 25.5915 45.9758 25.4798C46.4532 24.5664 47.4308 23.9236 48.3407 23.8057C49.4324 23.6642 50.422 23.9005 51.1627 24.6153Z" fill="#FFE697"/>
<path d="M20.935 26.703L21.2054 26.6983L21.2054 26.6981L20.935 26.703ZM20.9505 31.3222L20.6801 31.3212L20.9505 31.3222ZM21.3662 25.255L21.593 25.4024L21.595 25.3993L21.3662 25.255ZM21.5585 24.9916L21.7657 25.1654L21.7682 25.1623L21.5585 24.9916ZM23.6221 23.8057L23.6565 24.0739L23.6221 23.8057ZM26.5707 24.7142L26.3753 24.9011L26.3824 24.9085L26.39 24.9154L26.5707 24.7142ZM27.2368 25.6095L26.9918 25.7239V25.7239L27.2368 25.6095ZM27.4906 26.7771L27.2202 26.7742L27.2202 26.7761L27.4906 26.7771ZM27.4906 39.7446L27.761 39.7491L27.761 39.7436L27.4906 39.7446ZM28.7842 43.838L28.5646 43.9962L28.5719 44.0055L28.7842 43.838ZM30.6104 45.9012L30.8158 45.7254L30.8094 45.7179L30.8025 45.7109L30.6104 45.9012ZM31.2265 47.688L31.4966 47.7017L31.2265 47.688ZM30.4314 49.4087L30.2441 49.2136L30.2405 49.2173L30.4314 49.4087ZM28.0598 50.4404L28.0698 50.7106L28.072 50.7105L28.0598 50.4404ZM25.285 49.2581L25.4797 49.0704L25.4766 49.0674L25.285 49.2581ZM23.4653 47.2073L23.2483 47.3688L23.253 47.3748L23.4653 47.2073ZM21.555 43.512L21.8124 43.4289L21.8112 43.4253L21.555 43.512ZM20.9427 39.5052L21.2131 39.5117L21.2131 39.5091L20.9427 39.5052ZM20.9546 35.2908L21.225 35.29L20.9546 35.2908ZM20.9513 33.5672L20.6809 33.5671V33.5672H20.9513ZM20.9515 33.2593L21.2219 33.2594L21.2221 32.9888H20.9515V33.2593ZM20.9457 33.2593H20.6752L20.6752 33.5297H20.9457V33.2593ZM40.1178 33.348V33.0776H39.8474L39.8474 33.348L40.1178 33.348ZM40.113 35.2551L39.8425 35.2541L40.113 35.2551ZM40.1271 33.348V33.6184H40.3976L40.3976 33.348L40.1271 33.348ZM40.1156 28.8233L39.8451 28.8224L39.8451 28.8249L40.1156 28.8233ZM40.1308 26.868L40.4012 26.8716L40.4012 26.8711L40.1308 26.868ZM38.6345 24.289L38.7843 24.0639L38.7837 24.0634L38.6345 24.289ZM37.8976 23.9986L37.8212 24.2581L37.8342 24.2619L37.8476 24.2644L37.8976 23.9986ZM36.2543 23.8944L36.2884 24.1627V24.1627L36.2543 23.8944ZM35.9785 23.9444L36.0261 24.2107L36.0332 24.2094L36.0403 24.2077L35.9785 23.9444ZM34.4854 24.7506L34.6688 24.9494L34.6723 24.9461L34.4854 24.7506ZM33.606 26.2075L33.8691 26.2701L33.8696 26.268L33.606 26.2075ZM33.555 26.524L33.8243 26.5492L33.8245 26.5463L33.555 26.524ZM33.545 26.7918L33.8154 26.7873L33.8153 26.7868L33.545 26.7918ZM33.5492 27.0477L33.8197 27.0472L33.8196 27.0432L33.5492 27.0477ZM33.5504 31.1794L33.28 31.1793L33.5504 31.1794ZM33.5786 39.9263L33.3078 39.9292L33.3086 39.9426L33.5786 39.9263ZM34.1866 41.5356L34.4024 41.3726L34.4007 41.3704L34.1866 41.5356ZM37.4206 42.7488L37.4547 43.017H37.4547L37.4206 42.7488ZM40.1286 39.8602L39.8582 39.865L39.8582 39.8652L40.1286 39.8602ZM52.136 26.1561L52.4041 26.1182L52.4015 26.1048L52.136 26.1561ZM51.1627 24.6153L50.9749 24.8099L50.984 24.8187L50.9939 24.8266L51.1627 24.6153ZM52.2071 27.6293L51.9367 27.6174V27.6293H52.2071ZM52.2114 31.8536L51.941 31.854V31.8541L52.2114 31.8536ZM52.2114 31.8569L52.4819 31.8565V31.8564L52.2114 31.8569ZM52.2071 40.3017L51.9367 40.3004V40.3017H52.2071ZM50.9243 45.2142L51.166 45.3355L51.1672 45.3331L50.9243 45.2142ZM48.0007 49.1633L47.8137 48.9679L47.8114 48.9701L48.0007 49.1633ZM45.0404 50.4528L45.0602 50.1831L45.0598 50.183L45.0404 50.4528ZM42.0026 48.1502L41.7414 48.2204L41.7415 48.2208L42.0026 48.1502ZM42.8844 45.5939L42.7082 45.3886L42.7049 45.3916L42.8844 45.5939ZM45.4415 41.6015L45.1812 41.528L45.1809 41.529L45.4415 41.6015ZM45.6571 40.1469L45.9275 40.152L45.9275 40.1491L45.6571 40.1469ZM45.6885 34.4369L45.959 34.4381V34.4369H45.6885ZM45.6885 34.4363L45.4181 34.4351V34.4363H45.6885ZM45.6936 33.2593L45.9641 33.2605L45.9653 32.9888H45.6936V33.2593ZM45.6901 33.2593H45.4197V33.5297H45.6901V33.2593ZM45.695 31.3222L45.9654 31.3232V31.3232L45.695 31.3222ZM45.6796 26.703L45.9499 26.6983L45.9499 26.6982L45.6796 26.703ZM45.8229 25.8301L46.078 25.9203L46.0807 25.9118L45.8229 25.8301ZM45.9758 25.4798L46.2118 25.612L46.2154 25.6051L45.9758 25.4798ZM48.3407 23.8057L48.3059 23.5375L48.3407 23.8057ZM20.6646 26.7078C20.6917 28.2441 20.6859 29.781 20.6801 31.3212L21.221 31.3232C21.2267 29.784 21.2326 28.2414 21.2054 26.6983L20.6646 26.7078ZM21.1395 25.1076C20.8393 25.5695 20.6538 26.1143 20.6646 26.7079L21.2054 26.6981C21.1968 26.2266 21.3434 25.7864 21.593 25.4024L21.1395 25.1076ZM21.3514 24.8177C21.2734 24.9106 21.2021 25.0083 21.1375 25.1108L21.595 25.3993C21.6465 25.3176 21.7034 25.2396 21.7657 25.1654L21.3514 24.8177ZM23.5877 23.5375C22.7702 23.6424 21.9192 24.1204 21.3488 24.8208L21.7682 25.1623C22.2563 24.563 22.9846 24.1602 23.6565 24.0739L23.5877 23.5375ZM26.7661 24.5272C25.9348 23.6586 24.8019 23.3816 23.5877 23.5375L23.6565 24.0739C24.7458 23.9341 25.6912 24.1863 26.3753 24.9011L26.7661 24.5272ZM27.4819 25.495C27.3082 25.1234 27.0596 24.7898 26.7514 24.513L26.39 24.9154C26.6451 25.1445 26.8495 25.4194 26.9918 25.7239L27.4819 25.495ZM27.761 26.7801C27.7658 26.337 27.6704 25.8986 27.4819 25.495L26.9918 25.7239C27.1464 26.0547 27.2241 26.4129 27.2202 26.7742L27.761 26.7801ZM27.761 39.7436C27.7452 35.4211 27.7452 31.0992 27.761 26.7781L27.2202 26.7761C27.2043 31.0986 27.2043 35.4217 27.2202 39.7455L27.761 39.7436ZM29.0037 43.68C28.1713 42.5241 27.7375 41.15 27.761 39.7491L27.2202 39.74C27.1947 41.2593 27.6653 42.7471 28.5648 43.9961L29.0037 43.68ZM30.8025 45.7109C30.1611 45.0635 29.5582 44.3823 28.9965 43.6705L28.5719 44.0055C29.1462 44.7334 29.7627 45.4298 30.4183 46.0916L30.8025 45.7109ZM31.4966 47.7017C31.5332 46.9832 31.2896 46.2789 30.8158 45.7254L30.4049 46.0771C30.7904 46.5275 30.9859 47.0967 30.9564 47.6742L31.4966 47.7017ZM30.6187 49.6038C31.1458 49.0978 31.4599 48.4203 31.4966 47.7017L30.9564 47.6742C30.9269 48.2518 30.6744 48.8006 30.2441 49.2137L30.6187 49.6038ZM28.072 50.7105C29.037 50.6669 29.9501 50.2707 30.6224 49.6002L30.2405 49.2173C29.666 49.7903 28.8814 50.1325 28.0476 50.1702L28.072 50.7105ZM25.0902 49.4458C25.8758 50.2609 26.8677 50.7552 28.0698 50.7106L28.0498 50.1701C27.0268 50.2081 26.1775 49.7945 25.4797 49.0705L25.0902 49.4458ZM23.253 47.3748C23.8247 48.0992 24.4391 48.7917 25.0933 49.4489L25.4766 49.0674C24.837 48.4248 24.2363 47.7478 23.6776 47.0397L23.253 47.3748ZM21.2977 43.5952C21.7337 44.945 22.3923 46.2189 23.2483 47.3688L23.6822 47.0458C22.8611 45.9428 22.23 44.7217 21.8124 43.4289L21.2977 43.5952ZM20.6723 39.4988C20.6392 40.8896 20.8511 42.2756 21.2989 43.5987L21.8112 43.4253C21.3836 42.1619 21.1815 40.8389 21.2131 39.5117L20.6723 39.4988ZM20.6842 35.2915C20.6882 36.6968 20.6921 38.0998 20.6723 39.5014L21.2131 39.5091C21.233 38.1021 21.229 36.6945 21.225 35.29L20.6842 35.2915ZM20.6809 33.5672C20.6809 34.1421 20.6825 34.717 20.6842 35.2915L21.225 35.29C21.2234 34.7153 21.2218 34.1412 21.2218 33.5672H20.6809ZM20.681 33.2591L20.6809 33.5671L21.2218 33.5674L21.2219 33.2594L20.681 33.2591ZM20.9457 33.5297H20.9515V32.9888H20.9457V33.5297ZM20.6801 31.3212C20.6777 31.9668 20.6752 32.613 20.6752 33.2593H21.2161C21.2161 32.6142 21.2185 31.969 21.221 31.3232L20.6801 31.3212ZM39.8474 33.348C39.8474 33.9831 39.8449 34.6183 39.8425 35.2541L40.3834 35.2561C40.3858 34.6205 40.3882 33.9843 40.3883 33.348L39.8474 33.348ZM40.1271 33.0776H40.1178V33.6184H40.1271V33.0776ZM39.8451 28.8249C39.8541 30.3325 39.8565 31.8401 39.8567 33.348L40.3976 33.348C40.3974 31.8396 40.395 30.3308 40.386 28.8217L39.8451 28.8249ZM39.8604 26.8645C39.8519 27.5174 39.8473 28.17 39.8451 28.8224L40.386 28.8242C40.3882 28.1731 40.3927 27.5222 40.4012 26.8716L39.8604 26.8645ZM38.4847 24.5141C39.3789 25.1093 39.872 25.8329 39.8604 26.865L40.4012 26.8711C40.4154 25.6089 39.7874 24.7314 38.7843 24.0639L38.4847 24.5141ZM37.8476 24.2644C38.0722 24.3067 38.2836 24.3812 38.4853 24.5146L38.7837 24.0634C38.5102 23.8826 38.2278 23.7856 37.9476 23.7329L37.8476 24.2644ZM36.2884 24.1627C36.8423 24.0922 37.3588 24.1219 37.8212 24.2581L37.974 23.7392C37.4271 23.5782 36.8336 23.5481 36.2202 23.6262L36.2884 24.1627ZM36.0403 24.2077C36.1238 24.1882 36.2067 24.1731 36.2884 24.1627L36.2202 23.6262C36.1191 23.639 36.0177 23.6575 35.9168 23.6811L36.0403 24.2077ZM34.6723 24.9461C35.0721 24.5639 35.5571 24.2945 36.0261 24.2107L35.931 23.6782C35.3359 23.7846 34.758 24.1159 34.2985 24.5551L34.6723 24.9461ZM33.8696 26.268C33.9852 25.7641 34.2779 25.3099 34.6688 24.9494L34.3021 24.5518C33.8463 24.9722 33.4867 25.5183 33.3424 26.147L33.8696 26.268ZM33.8245 26.5463C33.832 26.455 33.847 26.3628 33.8691 26.2701L33.3429 26.1449C33.3149 26.2625 33.2954 26.3817 33.2855 26.5018L33.8245 26.5463ZM33.8153 26.7868C33.8139 26.7065 33.8169 26.6273 33.8242 26.5492L33.2857 26.4988C33.2766 26.5967 33.2727 26.6961 33.2746 26.7967L33.8153 26.7868ZM33.8196 27.0432L33.8154 26.7873L33.2746 26.7963L33.2788 27.0522L33.8196 27.0432ZM33.8209 31.1796C33.8216 29.8022 33.8224 28.4246 33.8196 27.0472L33.2788 27.0482C33.2815 28.4249 33.2807 29.8018 33.28 31.1793L33.8209 31.1796ZM33.849 39.9233C33.8177 37.0093 33.8193 34.095 33.8209 31.1796L33.28 31.1793C33.2784 34.0942 33.2768 37.0116 33.3082 39.9292L33.849 39.9233ZM34.4007 41.3704C34.0717 40.9439 33.8804 40.4364 33.8485 39.9099L33.3086 39.9426C33.3472 40.5791 33.5784 41.19 33.9725 41.7008L34.4007 41.3704ZM37.3866 42.4805C36.1581 42.6365 35.1066 42.3048 34.4024 41.3726L33.9708 41.6986C34.8189 42.8213 36.083 43.1912 37.4547 43.017L37.3866 42.4805ZM39.8582 39.8652C39.8706 40.5386 39.5605 41.1516 39.0828 41.6226C38.6034 42.0952 37.9729 42.406 37.3866 42.4805L37.4547 43.017C38.1685 42.9264 38.906 42.5564 39.4625 42.0077C40.0208 41.4574 40.4147 40.7087 40.399 39.8553L39.8582 39.8652ZM39.8425 35.2541C39.8367 36.7886 39.8308 38.3266 39.8582 39.865L40.399 39.8554C40.3717 38.3238 40.3776 36.7916 40.3834 35.2561L39.8425 35.2541ZM52.4015 26.1048C52.2735 25.4433 51.8817 24.8438 51.3316 24.4041L50.9939 24.8266C51.4574 25.1971 51.7701 25.6885 51.8705 26.2075L52.4015 26.1048ZM52.4773 27.6411C52.4996 27.1324 52.475 26.6228 52.4037 26.1183L51.8682 26.1939C51.9348 26.6656 51.9578 27.1419 51.9369 27.6174L52.4773 27.6411ZM52.4819 31.8532C52.4797 30.4449 52.4776 29.0366 52.4776 27.6293H51.9367C51.9367 29.0371 51.9388 30.4458 51.941 31.854L52.4819 31.8532ZM52.4819 31.8564L52.4819 31.8532L51.941 31.8541L51.941 31.8574L52.4819 31.8564ZM52.4776 40.3029C52.4905 37.4933 52.4862 34.6747 52.4819 31.8565L51.941 31.8573C51.9453 34.6758 51.9496 37.4928 51.9367 40.3004L52.4776 40.3029ZM51.1672 45.3331C51.9412 43.7513 52.4776 42.0837 52.4776 40.3017H51.9367C51.9367 41.9734 51.4338 43.5575 50.6814 45.0954L51.1672 45.3331ZM48.1877 49.3586C49.4101 48.1885 50.4172 46.8283 51.166 45.3355L50.6825 45.093C49.9619 46.5297 48.9921 47.8399 47.8137 48.9679L48.1877 49.3586ZM45.0207 50.7225C46.3416 50.8194 47.3496 50.1797 48.1899 49.3564L47.8114 48.9701C47.0218 49.7437 46.1584 50.2636 45.0602 50.1831L45.0207 50.7225ZM41.7415 48.2208C42.148 49.7247 43.4354 50.6086 45.0211 50.7225L45.0598 50.183C43.6573 50.0823 42.5988 49.3198 42.2637 48.0796L41.7415 48.2208ZM42.7049 45.3916C41.8765 46.1268 41.4412 47.1035 41.7414 48.2204L42.2637 48.08C42.0293 47.208 42.3486 46.4309 43.0639 45.7961L42.7049 45.3916ZM45.1809 41.529C44.767 43.0166 43.9084 44.3582 42.7082 45.3887L43.0606 45.799C44.3401 44.7004 45.2587 43.2672 45.702 41.674L45.1809 41.529ZM45.3867 40.1419C45.378 40.6101 45.309 41.0757 45.1812 41.528L45.7017 41.675C45.842 41.1782 45.9179 40.6667 45.9275 40.152L45.3867 40.1419ZM45.4181 34.4358C45.4099 36.3393 45.4018 38.2423 45.3867 40.1448L45.9275 40.1491C45.9426 38.2454 45.9508 36.3415 45.9589 34.4381L45.4181 34.4358ZM45.4181 34.4367V34.4369H45.959V34.4367H45.4181ZM45.4181 34.4365V34.4367H45.959V34.4365H45.4181ZM45.4181 34.4363V34.4365H45.959V34.4363H45.4181ZM45.4232 33.2581C45.4214 33.6504 45.4198 34.0428 45.4181 34.4351L45.9589 34.4374C45.9606 34.0451 45.9623 33.6528 45.9641 33.2605L45.4232 33.2581ZM45.6901 33.5297H45.6936V32.9888H45.6901V33.5297ZM45.4245 31.3212C45.4221 31.9668 45.4197 32.613 45.4197 33.2593H45.9606C45.9606 32.6142 45.963 31.969 45.9654 31.3232L45.4245 31.3212ZM45.4092 26.7077C45.436 28.2441 45.4303 29.781 45.4245 31.3212L45.9654 31.3232C45.9711 29.784 45.9769 28.2414 45.9499 26.6983L45.4092 26.7077ZM45.5679 25.7399C45.4609 26.0427 45.403 26.3676 45.4092 26.7079L45.9499 26.6982C45.945 26.4262 45.9911 26.1655 46.0779 25.9202L45.5679 25.7399ZM45.7398 25.3477C45.6691 25.4739 45.6098 25.6074 45.5651 25.7484L46.0807 25.9118C46.1133 25.8087 46.1574 25.709 46.2117 25.6119L45.7398 25.3477ZM48.3059 23.5375C47.3096 23.6666 46.2549 24.3618 45.7361 25.3546L46.2154 25.6051C46.6514 24.7709 47.5519 24.1806 48.3754 24.0739L48.3059 23.5375ZM51.3505 24.4207C50.5366 23.6353 49.4576 23.3883 48.3059 23.5375L48.3754 24.0739C49.4071 23.9402 50.3074 24.1658 50.9749 24.8099L51.3505 24.4207Z" fill="url(#paint2_linear_16242_17716)" mask="url(#path-7-inside-1_16242_17716)"/>
</g>
</g>
<defs>
<linearGradient id="paint0_linear_16242_17716" x1="36.4992" y1="1.38379" x2="36.4992" y2="70.6146" gradientUnits="userSpaceOnUse">
<stop stop-color="#FEE197"/>
<stop offset="0.453125" stop-color="#FFC93F"/>
<stop offset="1" stop-color="#E29A2A"/>
</linearGradient>
<linearGradient id="paint1_linear_16242_17716" x1="36.678" y1="24.293" x2="36.678" y2="51.8262" gradientUnits="userSpaceOnUse">
<stop stop-color="#C67E0E" stop-opacity="0"/>
<stop offset="0.761026" stop-color="#CE640D"/>
</linearGradient>
<linearGradient id="paint2_linear_16242_17716" x1="37.2659" y1="51.2717" x2="36.5249" y2="21.2899" gradientUnits="userSpaceOnUse">
<stop stop-color="#DDA81F"/>
<stop offset="0.65324" stop-color="#FEB83D"/>
<stop offset="1" stop-color="white"/>
</linearGradient>
</defs>
</svg>
