<svg width="24" height="24" viewBox="0 0 24 24" fill="none" xmlns="http://www.w3.org/2000/svg">
<path fill-rule="evenodd" clip-rule="evenodd" d="M11.9999 21.6C17.3018 21.6 21.5999 17.302 21.5999 12C21.5999 6.69809 17.3018 2.40002 11.9999 2.40002C6.69797 2.40002 2.3999 6.69809 2.3999 12C2.3999 17.302 6.69797 21.6 11.9999 21.6ZM10.4484 8.7515C9.9798 8.28287 9.22 8.28287 8.75137 8.7515C8.28274 9.22012 8.28274 9.97992 8.75137 10.4486L10.3028 12L8.75137 13.5515C8.28274 14.0201 8.28274 14.7799 8.75137 15.2486C9.22 15.7172 9.9798 15.7172 10.4484 15.2486L11.9999 13.6971L13.5514 15.2486C14.02 15.7172 14.7798 15.7172 15.2484 15.2486C15.7171 14.7799 15.7171 14.0201 15.2484 13.5515L13.697 12L15.2484 10.4486C15.7171 9.97992 15.7171 9.22012 15.2484 8.7515C14.7798 8.28287 14.02 8.28287 13.5514 8.7515L11.9999 10.303L10.4484 8.7515Z" fill="#030903"/>
</svg>
