<svg width="24" height="24" viewBox="0 0 24 24" fill="none" xmlns="http://www.w3.org/2000/svg">
<path fill-rule="evenodd" clip-rule="evenodd" d="M5.15152 5.15152C5.62015 4.68289 6.37995 4.68289 6.84858 5.15152L12 10.303L17.1515 5.15152C17.6202 4.68289 18.3799 4.68289 18.8486 5.15152C19.3172 5.62015 19.3172 6.37995 18.8486 6.84858L13.6971 12L18.8486 17.1515C19.3172 17.6202 19.3172 18.3799 18.8486 18.8486C18.3799 19.3172 17.6202 19.3172 17.1515 18.8486L12 13.6971L6.84858 18.8486C6.37995 19.3172 5.62015 19.3172 5.15152 18.8486C4.68289 18.3799 4.68289 17.6202 5.15152 17.1515L10.303 12L5.15152 6.84858C4.68289 6.37995 4.68289 5.62015 5.15152 5.15152Z" fill="#030903"/>
</svg>
