<svg width="137" height="41" viewBox="0 0 137 41" fill="none" xmlns="http://www.w3.org/2000/svg">
<path d="M101.595 36.8532C100.857 38.05 99.7754 38.9977 98.4909 39.5732C97.3827 40.0636 96.2199 40.4205 95.0271 40.6362C93.1533 40.9774 91.3039 40.6576 89.5338 40.0027C87.6044 39.2811 85.9364 37.9983 84.7455 36.3202C83.3197 34.3862 82.4482 32.1013 82.2247 29.7105C82.0508 28.1534 82.0018 26.5848 82.0782 25.0198C82.3163 21.3861 83.4546 18.0904 86.247 15.5775C87.7528 14.2066 89.6412 13.3258 91.6609 13.0524C93.3919 12.7751 95.1626 12.8791 96.849 13.357C98.0902 13.7284 99.2392 14.3562 100.221 15.1998C100.658 15.5684 101.085 15.9522 101.479 16.2963V16.0192C101.479 12.7783 101.448 9.53746 101.494 6.29661C101.515 4.90462 101.848 3.5827 102.983 2.59582C103.717 1.98024 104.635 1.62371 105.592 1.58153C106.926 1.47797 108.257 1.55107 109.41 2.37956C109.927 2.72242 110.352 3.18664 110.647 3.7315C110.943 4.27636 111.099 4.88522 111.104 5.50467C111.163 15.6577 111.19 25.8108 111.183 35.9638C111.183 37.572 110.695 39.028 109.203 39.9418C108.031 40.6606 106.728 40.6637 105.434 40.551C104.833 40.521 104.247 40.3481 103.726 40.0467C103.206 39.7452 102.765 39.3239 102.44 38.8178C102.108 38.1855 101.826 37.5287 101.595 36.8532V36.8532ZM91.7128 26.8017C91.7861 27.5693 91.8257 28.3429 91.9326 29.1044C92.2866 31.6264 94.0932 33.6002 96.9619 33.4783C97.8572 33.4469 98.7225 33.1483 99.446 32.6211C100.17 32.0939 100.718 31.3623 101.021 30.5208C101.609 28.7233 101.769 26.8136 101.488 24.9437C101.259 23.1923 100.636 21.7028 99.0769 20.7068C97.1878 19.4885 94.2367 20.0794 92.9732 21.9069C91.9387 23.3781 91.7525 25.0503 91.7128 26.7804V26.8017Z" fill="white"/>
<path d="M64.7395 18.1726V6.47934C64.7395 5.2092 64.9653 3.99388 65.8198 2.97045C66.4308 2.26065 67.2806 1.79812 68.2094 1.66984C69.5613 1.43226 70.9133 1.45663 72.1767 2.10236C72.8375 2.41748 73.3935 2.91545 73.7787 3.53699C74.164 4.15853 74.3621 4.87747 74.3496 5.60821C74.4137 13.6799 74.4046 21.7516 74.4595 29.8202C74.4595 31.1452 75.0546 32.5615 76.5347 32.8356C77.1078 32.9149 77.689 32.9149 78.2621 32.8356C79.8673 32.7047 80.3129 32.9209 80.5784 34.4957C80.728 35.5565 80.728 36.633 80.5784 37.6939C80.4075 39.1772 79.3943 40.021 77.9966 40.3073C76.8246 40.5845 75.6243 40.7246 74.4198 40.7246C72.2103 40.6484 70.0374 40.2951 68.2002 38.8666C66.717 37.7152 65.8686 36.174 65.362 34.4195C64.831 32.592 64.7517 30.7005 64.7517 28.8059C64.7496 25.2605 64.7456 21.716 64.7395 18.1726Z" fill="white"/>
<path d="M126.096 17.5688C126.708 16.7217 127.367 15.9083 128.067 15.132C129.376 13.8456 131.115 13.0864 132.95 12.9999C133.661 12.9207 134.379 12.9329 135.086 13.0365C135.567 13.1143 136.008 13.354 136.333 13.7158C136.659 14.0775 136.851 14.5397 136.878 15.0254C137.04 16.2385 137.04 17.4675 136.878 18.6805C136.634 20.173 135.486 20.9315 134.037 21.1751C132.862 21.3731 131.662 21.434 130.499 21.6777C127.884 22.229 126.508 23.9957 126.508 26.67C126.508 29.8499 126.55 33.0298 126.489 36.2067C126.456 37.9246 125.79 39.3897 124.121 40.1664C122.452 40.9431 119.131 40.7969 117.825 39.1856C117.095 38.292 116.703 37.1708 116.717 36.0179C116.69 29.8925 116.675 23.7642 116.717 17.6358C116.717 15.5493 117.548 13.8984 119.583 13.2893C121.341 12.7623 123.093 12.8141 124.628 14.0142C125.476 14.6782 125.848 15.6224 126.016 16.658C126.059 17.0114 126.077 17.386 126.096 17.5688Z" fill="white"/>
<path d="M59.3335 26.7826C59.3335 29.6336 59.3762 32.4845 59.306 35.3325C59.2669 36.2628 59.0794 37.181 58.7506 38.0525C58.3264 39.2313 57.4017 39.9531 56.1657 40.2699C54.8077 40.6564 53.3584 40.5716 52.0549 40.0293C50.6633 39.4384 50.0194 38.2748 49.7722 36.8737C49.6558 36.1466 49.6017 35.4109 49.6104 34.6746C49.5982 29.1452 49.5982 23.6169 49.6104 18.0896C49.6104 16.8164 49.8576 15.5828 50.6938 14.5411C51.3062 13.7943 52.1778 13.305 53.1353 13.1704C54.3693 12.9026 55.6563 13.0273 56.8158 13.5268C58.2165 14.1664 58.9215 15.3269 59.1656 16.7829C59.2749 17.4739 59.328 18.1727 59.3243 18.8724C59.3427 21.4979 59.3335 24.1418 59.3335 26.7826Z" fill="white"/>
<path d="M54.4856 0C55.981 0 57.3665 0.32896 58.5353 1.31279C59.2316 1.90605 59.6639 2.75047 59.7378 3.66119C59.869 4.94961 59.9209 6.24717 59.106 7.38939C58.7495 7.90343 58.2821 8.33116 57.7381 8.64111C57.1941 8.95106 56.5874 9.13534 55.9627 9.18038C54.7249 9.28166 53.4793 9.22845 52.2547 9.022C50.3534 8.69913 49.0839 6.98733 49.0625 5.06231C49.0625 4.06325 49.0961 3.08247 49.6301 2.19915C50.4053 0.919866 51.626 0.371603 53.0451 0.149251C53.5212 0.0700577 54.0034 0.0456887 54.4856 0Z" fill="white"/>
<path fill-rule="evenodd" clip-rule="evenodd" d="M39.0056 1.45624C41.9493 1.45624 43.5822 3.29725 43.5822 5.82486V25.8997C43.5822 31.2696 40.1301 36.1269 37.0993 39.27C35.3448 41.0895 32.6555 41.1422 30.42 38.9716C28.6005 37.2171 28.7559 34.7358 30.5104 32.9164C33.0964 30.2346 34.4289 27.6028 34.4289 25.8997V5.82486C34.4289 3.29725 36.0619 1.45624 39.0056 1.45624Z" fill="white"/>
<path fill-rule="evenodd" clip-rule="evenodd" d="M21.7391 29.2281C18.7954 29.2281 17.1624 27.3871 17.1624 24.8595V5.82481C17.1624 3.2972 18.7954 1.45619 21.7391 1.45619C24.6828 1.45619 26.3157 3.2972 26.3157 5.82481V24.8595C26.3157 27.3871 24.6828 29.2281 21.7391 29.2281Z" fill="white"/>
<path fill-rule="evenodd" clip-rule="evenodd" d="M4.57665 1.45624C1.63298 1.45624 -2.87772e-07 3.29725 -2.87772e-07 5.82486V25.8997C-2.87772e-07 31.2696 3.45211 36.1269 6.48292 39.27C8.23742 41.0895 10.9267 41.1422 13.1622 38.9716C14.9817 37.2171 14.8264 34.7358 13.0719 32.9164C10.4859 30.2346 9.1533 27.6028 9.1533 25.8997V5.82486C9.1533 3.29725 7.52033 1.45624 4.57665 1.45624Z" fill="white"/>
</svg>
