<svg width="25" height="25" viewBox="0 0 25 25" fill="none" xmlns="http://www.w3.org/2000/svg">
<g clip-path="url(#clip0_383_100227)">
<path d="M17.5812 1.75659H6.81921C3.84738 1.75659 1.43823 4.16574 1.43823 7.13757V17.8995C1.43823 20.8714 3.84738 23.2805 6.81921 23.2805H17.5812C20.553 23.2805 22.9622 20.8714 22.9622 17.8995V7.13757C22.9622 4.16574 20.553 1.75659 17.5812 1.75659Z" stroke="white" stroke-width="2.15239" stroke-linecap="round" stroke-linejoin="round"/>
<path d="M16.5049 11.8406C16.6377 12.7362 16.4847 13.651 16.0677 14.4547C15.6507 15.2584 14.9909 15.9101 14.1821 16.3172C13.3733 16.7243 12.4567 16.866 11.5628 16.7221C10.6688 16.5783 9.84299 16.1562 9.20274 15.516C8.56249 14.8757 8.14042 14.0499 7.99657 13.1559C7.85272 12.262 7.99442 11.3454 8.4015 10.5366C8.80858 9.72785 9.46033 9.06802 10.264 8.651C11.0677 8.23397 11.9825 8.08099 12.8781 8.2138C13.7917 8.34928 14.6375 8.775 15.2906 9.42808C15.9437 10.0812 16.3694 10.927 16.5049 11.8406Z" stroke="white" stroke-width="2.15239" stroke-linecap="round" stroke-linejoin="round"/>
<path d="M18.1194 6.59937H18.1304" stroke="white" stroke-width="2.15239" stroke-linecap="round" stroke-linejoin="round"/>
</g>
<defs>
<clipPath id="clip0_383_100227">
<rect width="24" height="24" fill="white" transform="translate(0.200195 0.518555)"/>
</clipPath>
</defs>
</svg>
