<svg width="58" height="56" viewBox="0 0 58 56" fill="none" xmlns="http://www.w3.org/2000/svg">
<path d="M24.647 0.836661C24.7481 0.814674 24.8281 0.797295 24.9298 0.801717C25.033 0.806204 25.1541 0.842096 25.2528 0.873502L25.9348 1.08886C26.4283 1.25486 26.7513 1.72146 26.7244 2.23741C26.693 2.75336 26.3341 3.20651 25.8271 3.31418C20.2773 4.48966 16.3874 8.60382 16.3874 13.3282C16.3874 18.3542 20.7965 22.5565 26.6184 23.4775L19.975 30.1209C17.6934 28.179 14.9192 27.039 12.188 27.039C10.5774 27.039 9.10128 27.4473 7.77326 28.2235C3.8251 30.4937 2.15611 35.8955 3.75332 41.1447C3.84305 41.3062 3.89689 41.4812 3.89689 41.6831C3.89689 42.3202 3.38093 42.8317 2.74833 42.8317H2.71244C2.37146 42.8317 2.03946 42.6791 1.81513 42.401L1.34853 41.8267C1.26328 41.719 1.20945 41.5979 1.16907 41.4678C-1.32545 33.8631 1.11971 26.0834 7.09131 22.5525C8.78722 21.6103 10.5818 21.0585 12.4034 20.8655C11.6137 19.1517 11.2189 17.3212 11.2189 15.4099C11.2189 8.59485 16.7419 2.59185 24.6427 0.83761L24.647 0.836661Z" fill="#00A84E"/>
<path d="M18.3428 31.7531C16.509 30.2353 14.3227 29.3361 12.188 29.3361C12.1329 29.3361 12.0843 29.3451 12.0352 29.3541C11.9922 29.362 11.949 29.3699 11.9009 29.372C11.7122 32.0029 12.1057 34.6259 13.0714 37.0245L18.3428 31.7531Z" fill="#00A84E"/>
<path d="M19.0793 44.593L22.8832 40.7892C22.9651 42.7589 22.5135 44.6126 21.5559 46.062C20.6896 45.6421 19.8616 45.1506 19.0793 44.593Z" fill="#00A84E"/>
<path d="M12.9437 50.7286C13.9923 51.0583 15.0667 51.2305 16.1362 51.2305C17.7199 51.2305 19.2139 50.8671 20.5509 50.1178C24.2391 47.9672 25.8364 43.388 24.9635 38.7088L46.7502 16.9222C46.6015 18.3163 46.2294 19.6534 45.6397 20.9373C47.5779 21.1078 49.3815 21.7135 50.9877 22.6961C56.865 26.052 59.2878 33.8137 56.874 41.5754C56.8336 41.71 56.7843 41.8581 56.6945 41.9703L56.2279 42.5445C55.8825 42.9752 55.2813 43.0964 54.7922 42.8317C54.3032 42.567 54.0475 41.9972 54.218 41.4678C55.9587 36.0256 54.3346 30.6103 50.2698 28.3312C48.9238 27.546 47.4747 27.1826 45.8909 27.1826C41.7723 27.1826 37.4697 29.9149 34.9438 34.1457C33.0594 37.3087 32.4582 40.9698 33.2927 44.1956C33.9567 46.7753 35.4956 48.8661 37.6357 50.1178C38.9547 50.876 40.4263 51.2664 42.0146 51.2664C45.2359 51.2664 48.5245 49.6602 51.0235 46.8875C51.387 46.4837 51.9926 46.3985 52.4592 46.6722C52.9303 46.9458 53.1322 47.5201 52.9617 48.0361L52.7464 48.718C52.697 48.8706 52.6028 49.0276 52.4951 49.1487C48.9687 53.0027 44.3207 55.2145 39.7175 55.2145C37.362 55.2145 35.1322 54.6268 33.1492 53.4917C31.5071 52.5809 30.1118 51.3292 29.0215 49.7948C27.9313 51.3292 26.5091 52.572 24.858 53.4917C22.857 54.6358 20.6317 55.2145 18.2538 55.2145C15.5995 55.2145 12.9586 54.4833 10.5477 53.1246L12.9437 50.7286Z" fill="#00A84E"/>
<path d="M43.4437 6.65224C41.0626 3.87344 37.5633 1.80478 33.4004 0.945287C33.2613 0.918368 33.1088 0.922854 32.9697 0.945287L32.2877 1.05296C31.7449 1.14269 31.3321 1.61378 31.3186 2.16563C31.3052 2.71747 31.6731 3.20202 32.216 3.31418C36.1382 4.14492 39.2313 6.4434 40.7082 9.38772L43.4437 6.65224Z" fill="#00A84E"/>
<path d="M35.4791 14.6168C33.4519 13.7781 31.2613 13.3282 29.0215 13.3282C25.5714 13.3282 22.2379 14.3959 19.4383 16.3072C20.524 18.4159 22.7224 20.0759 25.4682 20.8655C26.6033 20.4438 27.7788 20.2195 29.0215 20.2195C29.3004 20.2195 29.576 20.229 29.8481 20.2478L35.4791 14.6168Z" fill="#00A84E"/>
<path d="M39.2509 32.4229C41.207 30.5655 43.5893 29.4797 45.8909 29.4797C45.9236 29.4797 45.953 29.4792 45.9813 29.4787C46.0345 29.4777 46.0836 29.4768 46.1422 29.4797C46.362 32.8401 45.6218 36.1871 43.9169 39.1706C42.203 42.1677 39.6681 44.5276 36.5948 46.0261C36.1237 45.3127 35.7469 44.5096 35.5181 43.6213C35.1098 42.0331 35.1277 40.2968 35.5539 38.5964C36.523 37.8067 37.38 36.8421 38.0305 35.725C38.6272 34.702 39.0355 33.567 39.2509 32.4229Z" fill="#00A84E"/>
<path d="M49.9026 4.07867C50.6524 3.32886 51.868 3.32886 52.6178 4.07867C53.3676 4.82848 53.3676 6.04415 52.6178 6.79396L5.55281 53.859C4.80301 54.6088 3.58733 54.6088 2.83752 53.859C2.08772 53.1092 2.08772 51.8935 2.83752 51.1437L49.9026 4.07867Z" fill="#00A84E"/>
</svg>
