<svg width="64" height="65" viewBox="0 0 64 65" fill="none" xmlns="http://www.w3.org/2000/svg">
<path d="M32 30.8534C39.0616 30.8534 44.7862 25.1288 44.7862 18.0672C44.7862 11.0056 39.0616 5.28101 32 5.28101C24.9384 5.28101 19.2139 11.0056 19.2139 18.0672C19.2139 25.1288 24.9384 30.8534 32 30.8534Z" fill="#3DBEE1"/>
<path fill-rule="evenodd" clip-rule="evenodd" d="M6.40039 48.492C6.40039 39.7782 23.3122 35.026 32.0004 35.026C40.6886 35.026 57.6004 39.7804 57.6004 48.4942C57.6004 51.1957 56.3572 53.7336 54.2877 55.4936C54.3621 54.9802 54.4005 54.4551 54.4005 53.9211C54.4005 47.9122 49.5294 43.0411 43.5205 43.0411C37.5117 43.0411 32.6405 47.9122 32.6405 53.9211C32.6405 56.3694 33.4493 58.6289 34.8141 60.4469C33.8862 60.4842 32.9575 60.5025 32.0324 60.5025C24.2839 60.5025 16.787 59.2175 12.1478 57.0396C8.60174 55.3753 6.40039 52.102 6.40039 48.492Z" fill="#3DBEE1"/>
<path d="M43.5208 46.241C39.2795 46.241 35.8408 49.6797 35.8408 53.921C35.8408 58.1622 39.2795 61.601 43.5208 61.601C47.7621 61.601 51.2008 58.1622 51.2008 53.921C51.2008 49.6797 47.7621 46.241 43.5208 46.241ZM47.8133 52.4534L42.9749 57.2918C42.8546 57.4122 42.692 57.4794 42.5224 57.4794C42.3528 57.4794 42.1896 57.4122 42.0699 57.2918L39.86 55.0819C39.6098 54.8317 39.6098 54.4272 39.86 54.177C40.1103 53.9267 40.5147 53.9267 40.765 54.177L42.5224 55.9344L46.9083 51.5485C47.1586 51.2982 47.5631 51.2982 47.8133 51.5485C48.0635 51.7987 48.0635 52.2032 47.8133 52.4534Z" fill="#3DBEE1"/>
</svg>
