<svg width="64" height="65" viewBox="0 0 64 65" fill="none" xmlns="http://www.w3.org/2000/svg">
<path fill-rule="evenodd" clip-rule="evenodd" d="M32.0002 57.4163C45.5949 57.4163 56.6155 46.3956 56.6155 32.8009C56.6155 19.2062 45.5949 8.18549 32.0002 8.18549C18.4054 8.18549 7.38477 19.2062 7.38477 32.8009C7.38477 46.3956 18.4054 57.4163 32.0002 57.4163ZM32.0016 51.1114C42.1134 51.1114 50.3107 42.9141 50.3107 32.8023C50.3107 22.6905 42.1134 14.4932 32.0016 14.4932C21.8897 14.4932 13.6925 22.6905 13.6925 32.8023C13.6925 42.9141 21.8897 51.1114 32.0016 51.1114Z" fill="#FEBC3B"/>
<path fill-rule="evenodd" clip-rule="evenodd" d="M32.0002 57.4163C45.5949 57.4163 56.6155 46.3956 56.6155 32.8009C56.6155 19.2062 45.5949 8.18549 32.0002 8.18549C18.4054 8.18549 7.38477 19.2062 7.38477 32.8009C7.38477 46.3956 18.4054 57.4163 32.0002 57.4163ZM32.0016 51.1114C42.1134 51.1114 50.3107 42.9141 50.3107 32.8023C50.3107 22.6905 42.1134 14.4932 32.0016 14.4932C21.8897 14.4932 13.6925 22.6905 13.6925 32.8023C13.6925 42.9141 21.8897 51.1114 32.0016 51.1114Z" fill="#FEBC3B"/>
<path fill-rule="evenodd" clip-rule="evenodd" d="M20.9449 29.4733C20.9491 28.3784 20.9532 27.2835 20.9339 26.1886C20.9269 25.8042 21.0486 25.4492 21.2493 25.1455C21.2836 25.0924 21.3207 25.0412 21.3607 24.9922C21.737 24.5187 22.3073 24.1972 22.8447 24.1283C23.6694 24.0224 24.413 24.2139 24.9527 24.7861C25.1476 24.9639 25.3046 25.1764 25.4147 25.4121C25.5367 25.6732 25.5982 25.9565 25.5951 26.2425C25.5839 29.3157 25.5839 32.3895 25.5951 35.4637C25.5777 36.502 25.8993 37.5196 26.515 38.3747C26.919 38.8865 27.3525 39.3764 27.8137 39.8418C28.1192 40.1988 28.2753 40.6516 28.2518 41.1124C28.2283 41.5732 28.0268 42.0093 27.6864 42.3361C27.2431 42.7782 26.6395 43.0408 25.9999 43.0697C25.2088 43.099 24.5541 42.7762 24.0267 42.229C23.5667 41.7668 23.1346 41.2799 22.7327 40.7706C22.1364 39.9696 21.6778 39.0824 21.3743 38.1428C21.063 37.2232 20.9158 36.26 20.9389 35.2936C20.953 34.295 20.9502 33.2956 20.9473 32.2966C20.9462 31.888 20.945 31.4794 20.945 31.071L20.9451 30.8508H20.9415C20.9415 30.3917 20.9432 29.9325 20.9449 29.4733ZM34.5703 32.2707C34.572 31.8192 34.5737 31.3677 34.5738 30.9163H34.5818C34.5817 29.7947 34.5798 28.6731 34.5727 27.5514C34.5744 27.1365 34.5776 26.7215 34.583 26.3066C34.5922 25.4908 34.1935 24.9215 33.5189 24.4726C33.3461 24.3582 33.1663 24.2971 32.9825 24.2638C32.6273 24.1616 32.2375 24.1416 31.8278 24.1937C31.774 24.2006 31.7198 24.2099 31.6656 24.2217C31.2349 24.2882 30.8019 24.5467 30.4727 24.8975C30.2611 25.1163 30.0919 25.3763 29.9939 25.6647C29.9375 25.8248 29.9051 25.9889 29.9023 26.1516C29.9009 26.1855 29.9005 26.2197 29.9012 26.2541L29.9025 26.3327C29.9047 27.3457 29.9041 28.3589 29.9036 29.3722V29.3722V29.3723V29.3723V29.3724C29.9025 31.4455 29.9013 33.5189 29.9236 35.5924C29.9487 36.0059 30.0989 36.4036 30.356 36.7368C30.9079 37.4675 31.7312 37.7169 32.6557 37.5995C33.5803 37.4821 34.6014 36.6312 34.5814 35.5454C34.562 34.4538 34.5661 33.3623 34.5703 32.2707ZM42.4453 24.719C42.797 25.0057 43.0413 25.3882 43.1213 25.8017C43.1703 26.1488 43.1872 26.4993 43.1719 26.8493C43.1719 27.851 43.1734 28.8533 43.1749 29.8556C43.178 31.8598 43.1811 33.8635 43.1719 35.8607C43.1719 37.0888 42.8024 38.2449 42.2596 39.3541C41.7372 40.3957 41.0343 41.3452 40.1806 42.1623C39.6011 42.7301 38.9357 43.1424 38.0756 43.0793C37.0131 43.003 36.179 42.4176 35.9153 41.4419C35.7252 40.7347 35.9935 40.1112 36.5424 39.6241C37.4241 38.8671 38.056 37.8805 38.3607 36.7851C38.4561 36.4476 38.5076 36.1002 38.5141 35.7507C38.5248 34.3974 38.5306 33.0439 38.5364 31.6903V31.6902V31.69V31.6899C38.5376 31.4102 38.5388 31.1305 38.5401 30.8508H38.5383C38.5383 30.3917 38.54 29.9325 38.5417 29.4733C38.5458 28.3784 38.5499 27.2835 38.5307 26.1886C38.5268 25.9716 38.5636 25.7639 38.6321 25.5696C38.6585 25.4863 38.6934 25.4066 38.7355 25.3301C39.0728 24.6745 39.7723 24.2126 40.4231 24.1283C41.207 24.0267 41.9169 24.199 42.4453 24.719Z" fill="#FEBC3B"/>
<path fill-rule="evenodd" clip-rule="evenodd" d="M20.9449 29.4733C20.9491 28.3784 20.9532 27.2835 20.9339 26.1886C20.9269 25.8042 21.0486 25.4492 21.2493 25.1455C21.2836 25.0924 21.3207 25.0412 21.3607 24.9922C21.737 24.5187 22.3073 24.1972 22.8447 24.1283C23.6694 24.0224 24.413 24.2139 24.9527 24.7861C25.1476 24.9639 25.3046 25.1764 25.4147 25.4121C25.5367 25.6732 25.5982 25.9565 25.5951 26.2425C25.5839 29.3157 25.5839 32.3895 25.5951 35.4637C25.5777 36.502 25.8993 37.5196 26.515 38.3747C26.919 38.8865 27.3525 39.3764 27.8137 39.8418C28.1192 40.1988 28.2753 40.6516 28.2518 41.1124C28.2283 41.5732 28.0268 42.0093 27.6864 42.3361C27.2431 42.7782 26.6395 43.0408 25.9999 43.0697C25.2088 43.099 24.5541 42.7762 24.0267 42.229C23.5667 41.7668 23.1346 41.2799 22.7327 40.7706C22.1364 39.9696 21.6778 39.0824 21.3743 38.1428C21.063 37.2232 20.9158 36.26 20.9389 35.2936C20.953 34.295 20.9502 33.2956 20.9473 32.2966C20.9462 31.888 20.945 31.4794 20.945 31.071L20.9451 30.8508H20.9415C20.9415 30.3917 20.9432 29.9325 20.9449 29.4733ZM34.5703 32.2707C34.572 31.8192 34.5737 31.3677 34.5738 30.9163H34.5818C34.5817 29.7947 34.5798 28.6731 34.5727 27.5514C34.5744 27.1365 34.5776 26.7215 34.583 26.3066C34.5922 25.4908 34.1935 24.9215 33.5189 24.4726C33.3461 24.3582 33.1663 24.2971 32.9825 24.2638C32.6273 24.1616 32.2375 24.1416 31.8278 24.1937C31.774 24.2006 31.7198 24.2099 31.6656 24.2217C31.2349 24.2882 30.8019 24.5467 30.4727 24.8975C30.2611 25.1163 30.0919 25.3763 29.9939 25.6647C29.9375 25.8248 29.9051 25.9889 29.9023 26.1516C29.9009 26.1855 29.9005 26.2197 29.9012 26.2541L29.9025 26.3327C29.9047 27.3457 29.9041 28.3589 29.9036 29.3722V29.3722V29.3723V29.3723V29.3724C29.9025 31.4455 29.9013 33.5189 29.9236 35.5924C29.9487 36.0059 30.0989 36.4036 30.356 36.7368C30.9079 37.4675 31.7312 37.7169 32.6557 37.5995C33.5803 37.4821 34.6014 36.6312 34.5814 35.5454C34.562 34.4538 34.5661 33.3623 34.5703 32.2707ZM42.4453 24.719C42.797 25.0057 43.0413 25.3882 43.1213 25.8017C43.1703 26.1488 43.1872 26.4993 43.1719 26.8493C43.1719 27.851 43.1734 28.8533 43.1749 29.8556C43.178 31.8598 43.1811 33.8635 43.1719 35.8607C43.1719 37.0888 42.8024 38.2449 42.2596 39.3541C41.7372 40.3957 41.0343 41.3452 40.1806 42.1623C39.6011 42.7301 38.9357 43.1424 38.0756 43.0793C37.0131 43.003 36.179 42.4176 35.9153 41.4419C35.7252 40.7347 35.9935 40.1112 36.5424 39.6241C37.4241 38.8671 38.056 37.8805 38.3607 36.7851C38.4561 36.4476 38.5076 36.1002 38.5141 35.7507C38.5248 34.3974 38.5306 33.0439 38.5364 31.6903V31.6902V31.69V31.6899C38.5376 31.4102 38.5388 31.1305 38.5401 30.8508H38.5383C38.5383 30.3917 38.54 29.9325 38.5417 29.4733C38.5458 28.3784 38.5499 27.2835 38.5307 26.1886C38.5268 25.9716 38.5636 25.7639 38.6321 25.5696C38.6585 25.4863 38.6934 25.4066 38.7355 25.3301C39.0728 24.6745 39.7723 24.2126 40.4231 24.1283C41.207 24.0267 41.9169 24.199 42.4453 24.719Z" fill="#FEBC3B"/>
</svg>
