<svg width="170" height="170" viewBox="0 0 170 170" fill="none" xmlns="http://www.w3.org/2000/svg">
<circle cx="85" cy="85" r="85" fill="#441819"/>
<circle cx="85" cy="85" r="70" fill="#FE4658"/>
<path fill-rule="evenodd" clip-rule="evenodd" d="M65.0251 65.0251C66.392 63.6583 68.608 63.6583 69.9749 65.0251L85 80.0503L100.025 65.0251C101.392 63.6583 103.608 63.6583 104.975 65.0251C106.342 66.392 106.342 68.608 104.975 69.9749L89.9497 85L104.975 100.025C106.342 101.392 106.342 103.608 104.975 104.975C103.608 106.342 101.392 106.342 100.025 104.975L85 89.9497L69.9749 104.975C68.608 106.342 66.392 106.342 65.0251 104.975C63.6583 103.608 63.6583 101.392 65.0251 100.025L80.0503 85L65.0251 69.9749C63.6583 68.608 63.6583 66.392 65.0251 65.0251Z" fill="white"/>
</svg>
